%TF.GenerationSoftware,KiCad,Pcbnew,(6.0.11)*%
%TF.CreationDate,2023-02-25T23:46:12+01:00*%
%TF.ProjectId,mem-decoder,6d656d2d-6465-4636-9f64-65722e6b6963,rev?*%
%TF.SameCoordinates,Original*%
%TF.FileFunction,Legend,Top*%
%TF.FilePolarity,Positive*%
%FSLAX46Y46*%
G04 Gerber Fmt 4.6, Leading zero omitted, Abs format (unit mm)*
G04 Created by KiCad (PCBNEW (6.0.11)) date 2023-02-25 23:46:12*
%MOMM*%
%LPD*%
G01*
G04 APERTURE LIST*
%ADD10C,0.150000*%
%ADD11C,0.350000*%
%ADD12C,0.250000*%
%ADD13C,0.120000*%
G04 APERTURE END LIST*
D10*
X105092500Y-61595000D02*
X106362500Y-61595000D01*
X106362500Y-61595000D02*
X107315000Y-61595000D01*
X85725000Y-61595000D02*
X105092500Y-61595000D01*
X107315000Y-56515000D02*
X129222500Y-56515000D01*
X107315000Y-57150000D02*
X107315000Y-56515000D01*
X107315000Y-67945000D02*
X126365000Y-67945000D01*
X107315000Y-61595000D02*
X107315000Y-67945000D01*
X107315000Y-61595000D02*
X107315000Y-57150000D01*
X104457500Y-97155000D02*
X105727500Y-97155000D01*
X105727500Y-97155000D02*
X106362500Y-97155000D01*
X83502500Y-97155000D02*
X104457500Y-97155000D01*
X106362500Y-91440000D02*
X128587500Y-91440000D01*
X106362500Y-92710000D02*
X106362500Y-91440000D01*
X114300000Y-103505000D02*
X128587500Y-103505000D01*
X106362500Y-97155000D02*
X106362500Y-103505000D01*
X106362500Y-97155000D02*
X106362500Y-92710000D01*
X107950000Y-127635000D02*
X130175000Y-127635000D01*
X107950000Y-128270000D02*
X107950000Y-127635000D01*
X107950000Y-132715000D02*
X107950000Y-128270000D01*
X107950000Y-139065000D02*
X130175000Y-139065000D01*
X107950000Y-132715000D02*
X107950000Y-139065000D01*
X107315000Y-132715000D02*
X107950000Y-132715000D01*
X106045000Y-132715000D02*
X107315000Y-132715000D01*
X85090000Y-132715000D02*
X106045000Y-132715000D01*
X114618095Y-30127380D02*
X114618095Y-29127380D01*
X114951428Y-29841666D01*
X115284761Y-29127380D01*
X115284761Y-30127380D01*
X116141904Y-30079761D02*
X116046666Y-30127380D01*
X115856190Y-30127380D01*
X115760952Y-30079761D01*
X115713333Y-29984523D01*
X115713333Y-29603571D01*
X115760952Y-29508333D01*
X115856190Y-29460714D01*
X116046666Y-29460714D01*
X116141904Y-29508333D01*
X116189523Y-29603571D01*
X116189523Y-29698809D01*
X115713333Y-29794047D01*
X116618095Y-30127380D02*
X116618095Y-29460714D01*
X116618095Y-29555952D02*
X116665714Y-29508333D01*
X116760952Y-29460714D01*
X116903809Y-29460714D01*
X116999047Y-29508333D01*
X117046666Y-29603571D01*
X117046666Y-30127380D01*
X117046666Y-29603571D02*
X117094285Y-29508333D01*
X117189523Y-29460714D01*
X117332380Y-29460714D01*
X117427619Y-29508333D01*
X117475238Y-29603571D01*
X117475238Y-30127380D01*
X118094285Y-30127380D02*
X117999047Y-30079761D01*
X117951428Y-30032142D01*
X117903809Y-29936904D01*
X117903809Y-29651190D01*
X117951428Y-29555952D01*
X117999047Y-29508333D01*
X118094285Y-29460714D01*
X118237142Y-29460714D01*
X118332380Y-29508333D01*
X118380000Y-29555952D01*
X118427619Y-29651190D01*
X118427619Y-29936904D01*
X118380000Y-30032142D01*
X118332380Y-30079761D01*
X118237142Y-30127380D01*
X118094285Y-30127380D01*
X118856190Y-30127380D02*
X118856190Y-29460714D01*
X118856190Y-29651190D02*
X118903809Y-29555952D01*
X118951428Y-29508333D01*
X119046666Y-29460714D01*
X119141904Y-29460714D01*
X119380000Y-29460714D02*
X119618095Y-30127380D01*
X119856190Y-29460714D02*
X119618095Y-30127380D01*
X119522857Y-30365476D01*
X119475238Y-30413095D01*
X119380000Y-30460714D01*
X121332380Y-29603571D02*
X121475238Y-29651190D01*
X121522857Y-29698809D01*
X121570476Y-29794047D01*
X121570476Y-29936904D01*
X121522857Y-30032142D01*
X121475238Y-30079761D01*
X121380000Y-30127380D01*
X120999047Y-30127380D01*
X120999047Y-29127380D01*
X121332380Y-29127380D01*
X121427619Y-29175000D01*
X121475238Y-29222619D01*
X121522857Y-29317857D01*
X121522857Y-29413095D01*
X121475238Y-29508333D01*
X121427619Y-29555952D01*
X121332380Y-29603571D01*
X120999047Y-29603571D01*
X122427619Y-30127380D02*
X122427619Y-29603571D01*
X122380000Y-29508333D01*
X122284761Y-29460714D01*
X122094285Y-29460714D01*
X121999047Y-29508333D01*
X122427619Y-30079761D02*
X122332380Y-30127380D01*
X122094285Y-30127380D01*
X121999047Y-30079761D01*
X121951428Y-29984523D01*
X121951428Y-29889285D01*
X121999047Y-29794047D01*
X122094285Y-29746428D01*
X122332380Y-29746428D01*
X122427619Y-29698809D01*
X122903809Y-29460714D02*
X122903809Y-30127380D01*
X122903809Y-29555952D02*
X122951428Y-29508333D01*
X123046666Y-29460714D01*
X123189523Y-29460714D01*
X123284761Y-29508333D01*
X123332380Y-29603571D01*
X123332380Y-30127380D01*
X123808571Y-30127380D02*
X123808571Y-29127380D01*
X123903809Y-29746428D02*
X124189523Y-30127380D01*
X124189523Y-29460714D02*
X123808571Y-29841666D01*
X114618095Y-31737380D02*
X114618095Y-30737380D01*
X114856190Y-30737380D01*
X114999047Y-30785000D01*
X115094285Y-30880238D01*
X115141904Y-30975476D01*
X115189523Y-31165952D01*
X115189523Y-31308809D01*
X115141904Y-31499285D01*
X115094285Y-31594523D01*
X114999047Y-31689761D01*
X114856190Y-31737380D01*
X114618095Y-31737380D01*
X115999047Y-31689761D02*
X115903809Y-31737380D01*
X115713333Y-31737380D01*
X115618095Y-31689761D01*
X115570476Y-31594523D01*
X115570476Y-31213571D01*
X115618095Y-31118333D01*
X115713333Y-31070714D01*
X115903809Y-31070714D01*
X115999047Y-31118333D01*
X116046666Y-31213571D01*
X116046666Y-31308809D01*
X115570476Y-31404047D01*
X116903809Y-31689761D02*
X116808571Y-31737380D01*
X116618095Y-31737380D01*
X116522857Y-31689761D01*
X116475238Y-31642142D01*
X116427619Y-31546904D01*
X116427619Y-31261190D01*
X116475238Y-31165952D01*
X116522857Y-31118333D01*
X116618095Y-31070714D01*
X116808571Y-31070714D01*
X116903809Y-31118333D01*
X117475238Y-31737380D02*
X117380000Y-31689761D01*
X117332380Y-31642142D01*
X117284761Y-31546904D01*
X117284761Y-31261190D01*
X117332380Y-31165952D01*
X117380000Y-31118333D01*
X117475238Y-31070714D01*
X117618095Y-31070714D01*
X117713333Y-31118333D01*
X117760952Y-31165952D01*
X117808571Y-31261190D01*
X117808571Y-31546904D01*
X117760952Y-31642142D01*
X117713333Y-31689761D01*
X117618095Y-31737380D01*
X117475238Y-31737380D01*
X118665714Y-31737380D02*
X118665714Y-30737380D01*
X118665714Y-31689761D02*
X118570476Y-31737380D01*
X118380000Y-31737380D01*
X118284761Y-31689761D01*
X118237142Y-31642142D01*
X118189523Y-31546904D01*
X118189523Y-31261190D01*
X118237142Y-31165952D01*
X118284761Y-31118333D01*
X118380000Y-31070714D01*
X118570476Y-31070714D01*
X118665714Y-31118333D01*
X119522857Y-31689761D02*
X119427619Y-31737380D01*
X119237142Y-31737380D01*
X119141904Y-31689761D01*
X119094285Y-31594523D01*
X119094285Y-31213571D01*
X119141904Y-31118333D01*
X119237142Y-31070714D01*
X119427619Y-31070714D01*
X119522857Y-31118333D01*
X119570476Y-31213571D01*
X119570476Y-31308809D01*
X119094285Y-31404047D01*
X119999047Y-31737380D02*
X119999047Y-31070714D01*
X119999047Y-31261190D02*
X120046666Y-31165952D01*
X120094285Y-31118333D01*
X120189523Y-31070714D01*
X120284761Y-31070714D01*
X121237142Y-30737380D02*
X121570476Y-31737380D01*
X121903809Y-30737380D01*
X122760952Y-31737380D02*
X122189523Y-31737380D01*
X122475238Y-31737380D02*
X122475238Y-30737380D01*
X122380000Y-30880238D01*
X122284761Y-30975476D01*
X122189523Y-31023095D01*
X123189523Y-31642142D02*
X123237142Y-31689761D01*
X123189523Y-31737380D01*
X123141904Y-31689761D01*
X123189523Y-31642142D01*
X123189523Y-31737380D01*
X123856190Y-30737380D02*
X123951428Y-30737380D01*
X124046666Y-30785000D01*
X124094285Y-30832619D01*
X124141904Y-30927857D01*
X124189523Y-31118333D01*
X124189523Y-31356428D01*
X124141904Y-31546904D01*
X124094285Y-31642142D01*
X124046666Y-31689761D01*
X123951428Y-31737380D01*
X123856190Y-31737380D01*
X123760952Y-31689761D01*
X123713333Y-31642142D01*
X123665714Y-31546904D01*
X123618095Y-31356428D01*
X123618095Y-31118333D01*
X123665714Y-30927857D01*
X123713333Y-30832619D01*
X123760952Y-30785000D01*
X123856190Y-30737380D01*
D11*
X115380000Y-27797142D02*
X115665714Y-27892380D01*
X115760952Y-27987619D01*
X115856190Y-28178095D01*
X115856190Y-28463809D01*
X115760952Y-28654285D01*
X115665714Y-28749523D01*
X115475238Y-28844761D01*
X114713333Y-28844761D01*
X114713333Y-26844761D01*
X115380000Y-26844761D01*
X115570476Y-26940000D01*
X115665714Y-27035238D01*
X115760952Y-27225714D01*
X115760952Y-27416190D01*
X115665714Y-27606666D01*
X115570476Y-27701904D01*
X115380000Y-27797142D01*
X114713333Y-27797142D01*
X116713333Y-28844761D02*
X116713333Y-27511428D01*
X116713333Y-27892380D02*
X116808571Y-27701904D01*
X116903809Y-27606666D01*
X117094285Y-27511428D01*
X117284761Y-27511428D01*
X118713333Y-28749523D02*
X118522857Y-28844761D01*
X118141904Y-28844761D01*
X117951428Y-28749523D01*
X117856190Y-28559047D01*
X117856190Y-27797142D01*
X117951428Y-27606666D01*
X118141904Y-27511428D01*
X118522857Y-27511428D01*
X118713333Y-27606666D01*
X118808571Y-27797142D01*
X118808571Y-27987619D01*
X117856190Y-28178095D01*
X120522857Y-28844761D02*
X120522857Y-27797142D01*
X120427619Y-27606666D01*
X120237142Y-27511428D01*
X119856190Y-27511428D01*
X119665714Y-27606666D01*
X120522857Y-28749523D02*
X120332380Y-28844761D01*
X119856190Y-28844761D01*
X119665714Y-28749523D01*
X119570476Y-28559047D01*
X119570476Y-28368571D01*
X119665714Y-28178095D01*
X119856190Y-28082857D01*
X120332380Y-28082857D01*
X120522857Y-27987619D01*
X122332380Y-28844761D02*
X122332380Y-26844761D01*
X122332380Y-28749523D02*
X122141904Y-28844761D01*
X121760952Y-28844761D01*
X121570476Y-28749523D01*
X121475238Y-28654285D01*
X121380000Y-28463809D01*
X121380000Y-27892380D01*
X121475238Y-27701904D01*
X121570476Y-27606666D01*
X121760952Y-27511428D01*
X122141904Y-27511428D01*
X122332380Y-27606666D01*
X122999047Y-26844761D02*
X123665714Y-28844761D01*
X124332380Y-26844761D01*
D10*
X81018095Y-103640000D02*
X80922857Y-103592380D01*
X80780000Y-103592380D01*
X80637142Y-103640000D01*
X80541904Y-103735238D01*
X80494285Y-103830476D01*
X80446666Y-104020952D01*
X80446666Y-104163809D01*
X80494285Y-104354285D01*
X80541904Y-104449523D01*
X80637142Y-104544761D01*
X80780000Y-104592380D01*
X80875238Y-104592380D01*
X81018095Y-104544761D01*
X81065714Y-104497142D01*
X81065714Y-104163809D01*
X80875238Y-104163809D01*
X81494285Y-104592380D02*
X81494285Y-103592380D01*
X82065714Y-104592380D01*
X82065714Y-103592380D01*
X80446666Y-95972380D02*
X80780000Y-96972380D01*
X81113333Y-95972380D01*
X82018095Y-96877142D02*
X81970476Y-96924761D01*
X81827619Y-96972380D01*
X81732380Y-96972380D01*
X81589523Y-96924761D01*
X81494285Y-96829523D01*
X81446666Y-96734285D01*
X81399047Y-96543809D01*
X81399047Y-96400952D01*
X81446666Y-96210476D01*
X81494285Y-96115238D01*
X81589523Y-96020000D01*
X81732380Y-95972380D01*
X81827619Y-95972380D01*
X81970476Y-96020000D01*
X82018095Y-96067619D01*
X80010000Y-95250000D02*
X82610000Y-95250000D01*
X82610000Y-95250000D02*
X82610000Y-105410000D01*
X82610000Y-105410000D02*
X80010000Y-105410000D01*
X80010000Y-105410000D02*
X80010000Y-95250000D01*
X82550000Y-72390000D02*
X85090000Y-72390000D01*
X85090000Y-72390000D02*
X85090000Y-92710000D01*
X85090000Y-92710000D02*
X82550000Y-92710000D01*
X82550000Y-92710000D02*
X82550000Y-72390000D01*
D12*
X124742380Y-163381428D02*
X124742380Y-163095714D01*
X124790000Y-162952857D01*
X124885238Y-162810000D01*
X125075714Y-162738571D01*
X125409047Y-162738571D01*
X125599523Y-162810000D01*
X125694761Y-162952857D01*
X125742380Y-163095714D01*
X125742380Y-163381428D01*
X125694761Y-163524285D01*
X125599523Y-163667142D01*
X125409047Y-163738571D01*
X125075714Y-163738571D01*
X124885238Y-163667142D01*
X124790000Y-163524285D01*
X124742380Y-163381428D01*
X125218571Y-162095714D02*
X125218571Y-161595714D01*
X125742380Y-161381428D02*
X125742380Y-162095714D01*
X124742380Y-162095714D01*
X124742380Y-161381428D01*
D10*
X124020000Y-160020000D02*
X131640000Y-160020000D01*
X131640000Y-160020000D02*
X131640000Y-165100000D01*
X131640000Y-165100000D02*
X124020000Y-165100000D01*
X124020000Y-165100000D02*
X124020000Y-160020000D01*
X124460000Y-27940000D02*
X132080000Y-27940000D01*
X132080000Y-27940000D02*
X132080000Y-33020000D01*
X132080000Y-33020000D02*
X124460000Y-33020000D01*
X124460000Y-33020000D02*
X124460000Y-27940000D01*
D12*
X125182380Y-32515714D02*
X126182380Y-32158571D01*
X125468095Y-31872857D01*
X126182380Y-31587142D01*
X125182380Y-31230000D01*
X125658571Y-30658571D02*
X125658571Y-30158571D01*
X126182380Y-29944285D02*
X126182380Y-30658571D01*
X125182380Y-30658571D01*
X125182380Y-29944285D01*
X126182380Y-28515714D02*
X126182380Y-29372857D01*
X126182380Y-28944285D02*
X125182380Y-28944285D01*
X125325238Y-29087142D01*
X125420476Y-29230000D01*
X125468095Y-29372857D01*
D10*
X128270000Y-97730000D02*
X135890000Y-97730000D01*
X135890000Y-97730000D02*
X135890000Y-100390000D01*
X135890000Y-100390000D02*
X128270000Y-100390000D01*
X128270000Y-100390000D02*
X128270000Y-97730000D01*
X129476666Y-98230000D02*
X130429047Y-98230000D01*
X129667142Y-99464761D02*
X129810000Y-99512380D01*
X130048095Y-99512380D01*
X130143333Y-99464761D01*
X130190952Y-99417142D01*
X130238571Y-99321904D01*
X130238571Y-99226666D01*
X130190952Y-99131428D01*
X130143333Y-99083809D01*
X130048095Y-99036190D01*
X129857619Y-98988571D01*
X129762380Y-98940952D01*
X129714761Y-98893333D01*
X129667142Y-98798095D01*
X129667142Y-98702857D01*
X129714761Y-98607619D01*
X129762380Y-98560000D01*
X129857619Y-98512380D01*
X130095714Y-98512380D01*
X130238571Y-98560000D01*
X130429047Y-98230000D02*
X131333809Y-98230000D01*
X130667142Y-98988571D02*
X131000476Y-98988571D01*
X131143333Y-99512380D02*
X130667142Y-99512380D01*
X130667142Y-98512380D01*
X131143333Y-98512380D01*
X131333809Y-98230000D02*
X132143333Y-98230000D01*
X132048095Y-99512380D02*
X131571904Y-99512380D01*
X131571904Y-98512380D01*
X82772380Y-65210000D02*
X83915238Y-65210000D01*
X82915238Y-65492380D02*
X83153333Y-66492380D01*
X83343809Y-65778095D01*
X83534285Y-66492380D01*
X83772380Y-65492380D01*
X83915238Y-65210000D02*
X84867619Y-65210000D01*
X84058095Y-65492380D02*
X84677142Y-65492380D01*
X84343809Y-65873333D01*
X84486666Y-65873333D01*
X84581904Y-65920952D01*
X84629523Y-65968571D01*
X84677142Y-66063809D01*
X84677142Y-66301904D01*
X84629523Y-66397142D01*
X84581904Y-66444761D01*
X84486666Y-66492380D01*
X84200952Y-66492380D01*
X84105714Y-66444761D01*
X84058095Y-66397142D01*
X82772380Y-60130000D02*
X83915238Y-60130000D01*
X82915238Y-60412380D02*
X83153333Y-61412380D01*
X83343809Y-60698095D01*
X83534285Y-61412380D01*
X83772380Y-60412380D01*
X83915238Y-60130000D02*
X84867619Y-60130000D01*
X84677142Y-61412380D02*
X84105714Y-61412380D01*
X84391428Y-61412380D02*
X84391428Y-60412380D01*
X84296190Y-60555238D01*
X84200952Y-60650476D01*
X84105714Y-60698095D01*
X82772380Y-67750000D02*
X83915238Y-67750000D01*
X82915238Y-68032380D02*
X83153333Y-69032380D01*
X83343809Y-68318095D01*
X83534285Y-69032380D01*
X83772380Y-68032380D01*
X83915238Y-67750000D02*
X84867619Y-67750000D01*
X84581904Y-68365714D02*
X84581904Y-69032380D01*
X84343809Y-67984761D02*
X84105714Y-68699047D01*
X84724761Y-68699047D01*
X82772380Y-62670000D02*
X83915238Y-62670000D01*
X82915238Y-62952380D02*
X83153333Y-63952380D01*
X83343809Y-63238095D01*
X83534285Y-63952380D01*
X83772380Y-62952380D01*
X83915238Y-62670000D02*
X84867619Y-62670000D01*
X84105714Y-63047619D02*
X84153333Y-63000000D01*
X84248571Y-62952380D01*
X84486666Y-62952380D01*
X84581904Y-63000000D01*
X84629523Y-63047619D01*
X84677142Y-63142857D01*
X84677142Y-63238095D01*
X84629523Y-63380952D01*
X84058095Y-63952380D01*
X84677142Y-63952380D01*
X79950000Y-59630000D02*
X85090000Y-59630000D01*
X85090000Y-59630000D02*
X85090000Y-69850000D01*
X85090000Y-69850000D02*
X79950000Y-69850000D01*
X79950000Y-69850000D02*
X79950000Y-59630000D01*
X79950000Y-130750000D02*
X85090000Y-130750000D01*
X85090000Y-130750000D02*
X85090000Y-140970000D01*
X85090000Y-140970000D02*
X79950000Y-140970000D01*
X79950000Y-140970000D02*
X79950000Y-130750000D01*
X82915238Y-133790000D02*
X83772380Y-133790000D01*
X83105714Y-134786666D02*
X83581904Y-134786666D01*
X83010476Y-135072380D02*
X83343809Y-134072380D01*
X83677142Y-135072380D01*
X83772380Y-133790000D02*
X84724761Y-133790000D01*
X83962857Y-134167619D02*
X84010476Y-134120000D01*
X84105714Y-134072380D01*
X84343809Y-134072380D01*
X84439047Y-134120000D01*
X84486666Y-134167619D01*
X84534285Y-134262857D01*
X84534285Y-134358095D01*
X84486666Y-134500952D01*
X83915238Y-135072380D01*
X84534285Y-135072380D01*
X82843809Y-138870000D02*
X83891428Y-138870000D01*
X83272380Y-139152380D02*
X83462857Y-139152380D01*
X83558095Y-139200000D01*
X83653333Y-139295238D01*
X83700952Y-139485714D01*
X83700952Y-139819047D01*
X83653333Y-140009523D01*
X83558095Y-140104761D01*
X83462857Y-140152380D01*
X83272380Y-140152380D01*
X83177142Y-140104761D01*
X83081904Y-140009523D01*
X83034285Y-139819047D01*
X83034285Y-139485714D01*
X83081904Y-139295238D01*
X83177142Y-139200000D01*
X83272380Y-139152380D01*
X83891428Y-138870000D02*
X84796190Y-138870000D01*
X84129523Y-139628571D02*
X84462857Y-139628571D01*
X84605714Y-140152380D02*
X84129523Y-140152380D01*
X84129523Y-139152380D01*
X84605714Y-139152380D01*
X82915238Y-131250000D02*
X83772380Y-131250000D01*
X83105714Y-132246666D02*
X83581904Y-132246666D01*
X83010476Y-132532380D02*
X83343809Y-131532380D01*
X83677142Y-132532380D01*
X83772380Y-131250000D02*
X84724761Y-131250000D01*
X84534285Y-132532380D02*
X83962857Y-132532380D01*
X84248571Y-132532380D02*
X84248571Y-131532380D01*
X84153333Y-131675238D01*
X84058095Y-131770476D01*
X83962857Y-131818095D01*
X82915238Y-136330000D02*
X83772380Y-136330000D01*
X83105714Y-137326666D02*
X83581904Y-137326666D01*
X83010476Y-137612380D02*
X83343809Y-136612380D01*
X83677142Y-137612380D01*
X83772380Y-136330000D02*
X84724761Y-136330000D01*
X83915238Y-136612380D02*
X84534285Y-136612380D01*
X84200952Y-136993333D01*
X84343809Y-136993333D01*
X84439047Y-137040952D01*
X84486666Y-137088571D01*
X84534285Y-137183809D01*
X84534285Y-137421904D01*
X84486666Y-137517142D01*
X84439047Y-137564761D01*
X84343809Y-137612380D01*
X84058095Y-137612380D01*
X83962857Y-137564761D01*
X83915238Y-137517142D01*
X130810000Y-146050000D02*
X135890000Y-146050000D01*
X135890000Y-146050000D02*
X135890000Y-143510000D01*
X135890000Y-143510000D02*
X130810000Y-143510000D01*
X130810000Y-143510000D02*
X130810000Y-146050000D01*
X130810000Y-120650000D02*
X135890000Y-120650000D01*
X135890000Y-120650000D02*
X135890000Y-118110000D01*
X135890000Y-118110000D02*
X130810000Y-118110000D01*
X130810000Y-118110000D02*
X130810000Y-120650000D01*
D12*
X131850000Y-118832380D02*
X132135714Y-118832380D01*
X132278571Y-118880000D01*
X132421428Y-118975238D01*
X132492857Y-119165714D01*
X132492857Y-119499047D01*
X132421428Y-119689523D01*
X132278571Y-119784761D01*
X132135714Y-119832380D01*
X131850000Y-119832380D01*
X131707142Y-119784761D01*
X131564285Y-119689523D01*
X131492857Y-119499047D01*
X131492857Y-119165714D01*
X131564285Y-118975238D01*
X131707142Y-118880000D01*
X131850000Y-118832380D01*
X133135714Y-118832380D02*
X133135714Y-119641904D01*
X133207142Y-119737142D01*
X133278571Y-119784761D01*
X133421428Y-119832380D01*
X133707142Y-119832380D01*
X133850000Y-119784761D01*
X133921428Y-119737142D01*
X133992857Y-119641904D01*
X133992857Y-118832380D01*
X134492857Y-118832380D02*
X135350000Y-118832380D01*
X134921428Y-119832380D02*
X134921428Y-118832380D01*
X132564285Y-145232380D02*
X132564285Y-144232380D01*
X133278571Y-145232380D02*
X133278571Y-144232380D01*
X134135714Y-145232380D01*
X134135714Y-144232380D01*
D10*
X130810000Y-74930000D02*
X135890000Y-74930000D01*
X135890000Y-74930000D02*
X135890000Y-72390000D01*
X135890000Y-72390000D02*
X130810000Y-72390000D01*
X130810000Y-72390000D02*
X130810000Y-74930000D01*
D12*
X132564285Y-74112380D02*
X132564285Y-73112380D01*
X133278571Y-74112380D02*
X133278571Y-73112380D01*
X134135714Y-74112380D01*
X134135714Y-73112380D01*
X131850000Y-47712380D02*
X132135714Y-47712380D01*
X132278571Y-47760000D01*
X132421428Y-47855238D01*
X132492857Y-48045714D01*
X132492857Y-48379047D01*
X132421428Y-48569523D01*
X132278571Y-48664761D01*
X132135714Y-48712380D01*
X131850000Y-48712380D01*
X131707142Y-48664761D01*
X131564285Y-48569523D01*
X131492857Y-48379047D01*
X131492857Y-48045714D01*
X131564285Y-47855238D01*
X131707142Y-47760000D01*
X131850000Y-47712380D01*
X133135714Y-47712380D02*
X133135714Y-48521904D01*
X133207142Y-48617142D01*
X133278571Y-48664761D01*
X133421428Y-48712380D01*
X133707142Y-48712380D01*
X133850000Y-48664761D01*
X133921428Y-48617142D01*
X133992857Y-48521904D01*
X133992857Y-47712380D01*
X134492857Y-47712380D02*
X135350000Y-47712380D01*
X134921428Y-48712380D02*
X134921428Y-47712380D01*
D10*
X130810000Y-49530000D02*
X135890000Y-49530000D01*
X135890000Y-49530000D02*
X135890000Y-46990000D01*
X135890000Y-46990000D02*
X130810000Y-46990000D01*
X130810000Y-46990000D02*
X130810000Y-49530000D01*
X131032380Y-67750000D02*
X132175238Y-67750000D01*
X131175238Y-68032380D02*
X131413333Y-69032380D01*
X131603809Y-68318095D01*
X131794285Y-69032380D01*
X132032380Y-68032380D01*
X132175238Y-67750000D02*
X133127619Y-67750000D01*
X132318095Y-68032380D02*
X132937142Y-68032380D01*
X132603809Y-68413333D01*
X132746666Y-68413333D01*
X132841904Y-68460952D01*
X132889523Y-68508571D01*
X132937142Y-68603809D01*
X132937142Y-68841904D01*
X132889523Y-68937142D01*
X132841904Y-68984761D01*
X132746666Y-69032380D01*
X132460952Y-69032380D01*
X132365714Y-68984761D01*
X132318095Y-68937142D01*
X131032380Y-62670000D02*
X132175238Y-62670000D01*
X131175238Y-62952380D02*
X131413333Y-63952380D01*
X131603809Y-63238095D01*
X131794285Y-63952380D01*
X132032380Y-62952380D01*
X132175238Y-62670000D02*
X133127619Y-62670000D01*
X132937142Y-63952380D02*
X132365714Y-63952380D01*
X132651428Y-63952380D02*
X132651428Y-62952380D01*
X132556190Y-63095238D01*
X132460952Y-63190476D01*
X132365714Y-63238095D01*
X131032380Y-70290000D02*
X132175238Y-70290000D01*
X131175238Y-70572380D02*
X131413333Y-71572380D01*
X131603809Y-70858095D01*
X131794285Y-71572380D01*
X132032380Y-70572380D01*
X132175238Y-70290000D02*
X133127619Y-70290000D01*
X132841904Y-70905714D02*
X132841904Y-71572380D01*
X132603809Y-70524761D02*
X132365714Y-71239047D01*
X132984761Y-71239047D01*
X131032380Y-65210000D02*
X132175238Y-65210000D01*
X131175238Y-65492380D02*
X131413333Y-66492380D01*
X131603809Y-65778095D01*
X131794285Y-66492380D01*
X132032380Y-65492380D01*
X132175238Y-65210000D02*
X133127619Y-65210000D01*
X132365714Y-65587619D02*
X132413333Y-65540000D01*
X132508571Y-65492380D01*
X132746666Y-65492380D01*
X132841904Y-65540000D01*
X132889523Y-65587619D01*
X132937142Y-65682857D01*
X132937142Y-65778095D01*
X132889523Y-65920952D01*
X132318095Y-66492380D01*
X132937142Y-66492380D01*
X131032380Y-57590000D02*
X132175238Y-57590000D01*
X131175238Y-57872380D02*
X131413333Y-58872380D01*
X131603809Y-58158095D01*
X131794285Y-58872380D01*
X132032380Y-57872380D01*
X132175238Y-57590000D02*
X133127619Y-57590000D01*
X132841904Y-58205714D02*
X132841904Y-58872380D01*
X132603809Y-57824761D02*
X132365714Y-58539047D01*
X132984761Y-58539047D01*
X131032380Y-55050000D02*
X132175238Y-55050000D01*
X131175238Y-55332380D02*
X131413333Y-56332380D01*
X131603809Y-55618095D01*
X131794285Y-56332380D01*
X132032380Y-55332380D01*
X132175238Y-55050000D02*
X133127619Y-55050000D01*
X132318095Y-55332380D02*
X132937142Y-55332380D01*
X132603809Y-55713333D01*
X132746666Y-55713333D01*
X132841904Y-55760952D01*
X132889523Y-55808571D01*
X132937142Y-55903809D01*
X132937142Y-56141904D01*
X132889523Y-56237142D01*
X132841904Y-56284761D01*
X132746666Y-56332380D01*
X132460952Y-56332380D01*
X132365714Y-56284761D01*
X132318095Y-56237142D01*
X131032380Y-52510000D02*
X132175238Y-52510000D01*
X131175238Y-52792380D02*
X131413333Y-53792380D01*
X131603809Y-53078095D01*
X131794285Y-53792380D01*
X132032380Y-52792380D01*
X132175238Y-52510000D02*
X133127619Y-52510000D01*
X132365714Y-52887619D02*
X132413333Y-52840000D01*
X132508571Y-52792380D01*
X132746666Y-52792380D01*
X132841904Y-52840000D01*
X132889523Y-52887619D01*
X132937142Y-52982857D01*
X132937142Y-53078095D01*
X132889523Y-53220952D01*
X132318095Y-53792380D01*
X132937142Y-53792380D01*
X131032380Y-49970000D02*
X132175238Y-49970000D01*
X131175238Y-50252380D02*
X131413333Y-51252380D01*
X131603809Y-50538095D01*
X131794285Y-51252380D01*
X132032380Y-50252380D01*
X132175238Y-49970000D02*
X133127619Y-49970000D01*
X132937142Y-51252380D02*
X132365714Y-51252380D01*
X132651428Y-51252380D02*
X132651428Y-50252380D01*
X132556190Y-50395238D01*
X132460952Y-50490476D01*
X132365714Y-50538095D01*
X131103809Y-141410000D02*
X132151428Y-141410000D01*
X131532380Y-141692380D02*
X131722857Y-141692380D01*
X131818095Y-141740000D01*
X131913333Y-141835238D01*
X131960952Y-142025714D01*
X131960952Y-142359047D01*
X131913333Y-142549523D01*
X131818095Y-142644761D01*
X131722857Y-142692380D01*
X131532380Y-142692380D01*
X131437142Y-142644761D01*
X131341904Y-142549523D01*
X131294285Y-142359047D01*
X131294285Y-142025714D01*
X131341904Y-141835238D01*
X131437142Y-141740000D01*
X131532380Y-141692380D01*
X132151428Y-141410000D02*
X133056190Y-141410000D01*
X132389523Y-142168571D02*
X132722857Y-142168571D01*
X132865714Y-142692380D02*
X132389523Y-142692380D01*
X132389523Y-141692380D01*
X132865714Y-141692380D01*
X131175238Y-133790000D02*
X132032380Y-133790000D01*
X131365714Y-134786666D02*
X131841904Y-134786666D01*
X131270476Y-135072380D02*
X131603809Y-134072380D01*
X131937142Y-135072380D01*
X132032380Y-133790000D02*
X132984761Y-133790000D01*
X132794285Y-135072380D02*
X132222857Y-135072380D01*
X132508571Y-135072380D02*
X132508571Y-134072380D01*
X132413333Y-134215238D01*
X132318095Y-134310476D01*
X132222857Y-134358095D01*
X131175238Y-136330000D02*
X132032380Y-136330000D01*
X131365714Y-137326666D02*
X131841904Y-137326666D01*
X131270476Y-137612380D02*
X131603809Y-136612380D01*
X131937142Y-137612380D01*
X132032380Y-136330000D02*
X132984761Y-136330000D01*
X132222857Y-136707619D02*
X132270476Y-136660000D01*
X132365714Y-136612380D01*
X132603809Y-136612380D01*
X132699047Y-136660000D01*
X132746666Y-136707619D01*
X132794285Y-136802857D01*
X132794285Y-136898095D01*
X132746666Y-137040952D01*
X132175238Y-137612380D01*
X132794285Y-137612380D01*
X131175238Y-138870000D02*
X132032380Y-138870000D01*
X131365714Y-139866666D02*
X131841904Y-139866666D01*
X131270476Y-140152380D02*
X131603809Y-139152380D01*
X131937142Y-140152380D01*
X132032380Y-138870000D02*
X132984761Y-138870000D01*
X132175238Y-139152380D02*
X132794285Y-139152380D01*
X132460952Y-139533333D01*
X132603809Y-139533333D01*
X132699047Y-139580952D01*
X132746666Y-139628571D01*
X132794285Y-139723809D01*
X132794285Y-139961904D01*
X132746666Y-140057142D01*
X132699047Y-140104761D01*
X132603809Y-140152380D01*
X132318095Y-140152380D01*
X132222857Y-140104761D01*
X132175238Y-140057142D01*
X131103809Y-128710000D02*
X132151428Y-128710000D01*
X131532380Y-128992380D02*
X131722857Y-128992380D01*
X131818095Y-129040000D01*
X131913333Y-129135238D01*
X131960952Y-129325714D01*
X131960952Y-129659047D01*
X131913333Y-129849523D01*
X131818095Y-129944761D01*
X131722857Y-129992380D01*
X131532380Y-129992380D01*
X131437142Y-129944761D01*
X131341904Y-129849523D01*
X131294285Y-129659047D01*
X131294285Y-129325714D01*
X131341904Y-129135238D01*
X131437142Y-129040000D01*
X131532380Y-128992380D01*
X132151428Y-128710000D02*
X133056190Y-128710000D01*
X132389523Y-129468571D02*
X132722857Y-129468571D01*
X132865714Y-129992380D02*
X132389523Y-129992380D01*
X132389523Y-128992380D01*
X132865714Y-128992380D01*
X131175238Y-126170000D02*
X132032380Y-126170000D01*
X131365714Y-127166666D02*
X131841904Y-127166666D01*
X131270476Y-127452380D02*
X131603809Y-126452380D01*
X131937142Y-127452380D01*
X132032380Y-126170000D02*
X132984761Y-126170000D01*
X132175238Y-126452380D02*
X132794285Y-126452380D01*
X132460952Y-126833333D01*
X132603809Y-126833333D01*
X132699047Y-126880952D01*
X132746666Y-126928571D01*
X132794285Y-127023809D01*
X132794285Y-127261904D01*
X132746666Y-127357142D01*
X132699047Y-127404761D01*
X132603809Y-127452380D01*
X132318095Y-127452380D01*
X132222857Y-127404761D01*
X132175238Y-127357142D01*
X131175238Y-123630000D02*
X132032380Y-123630000D01*
X131365714Y-124626666D02*
X131841904Y-124626666D01*
X131270476Y-124912380D02*
X131603809Y-123912380D01*
X131937142Y-124912380D01*
X132032380Y-123630000D02*
X132984761Y-123630000D01*
X132222857Y-124007619D02*
X132270476Y-123960000D01*
X132365714Y-123912380D01*
X132603809Y-123912380D01*
X132699047Y-123960000D01*
X132746666Y-124007619D01*
X132794285Y-124102857D01*
X132794285Y-124198095D01*
X132746666Y-124340952D01*
X132175238Y-124912380D01*
X132794285Y-124912380D01*
X131175238Y-121090000D02*
X132032380Y-121090000D01*
X131365714Y-122086666D02*
X131841904Y-122086666D01*
X131270476Y-122372380D02*
X131603809Y-121372380D01*
X131937142Y-122372380D01*
X132032380Y-121090000D02*
X132984761Y-121090000D01*
X132794285Y-122372380D02*
X132222857Y-122372380D01*
X132508571Y-122372380D02*
X132508571Y-121372380D01*
X132413333Y-121515238D01*
X132318095Y-121610476D01*
X132222857Y-121658095D01*
X133290000Y-59750000D02*
X130810000Y-59750000D01*
X130810000Y-59750000D02*
X130810000Y-49530000D01*
X130810000Y-49530000D02*
X133290000Y-49530000D01*
X133290000Y-49530000D02*
X133290000Y-59750000D01*
X133290000Y-72450000D02*
X130810000Y-72450000D01*
X130810000Y-72450000D02*
X130810000Y-62230000D01*
X130810000Y-62230000D02*
X133290000Y-62230000D01*
X133290000Y-62230000D02*
X133290000Y-72450000D01*
X133290000Y-130870000D02*
X130810000Y-130870000D01*
X130810000Y-130870000D02*
X130810000Y-120650000D01*
X130810000Y-120650000D02*
X133290000Y-120650000D01*
X133290000Y-120650000D02*
X133290000Y-130870000D01*
X133290000Y-133290000D02*
X130810000Y-133290000D01*
X130810000Y-133290000D02*
X130810000Y-143570000D01*
X130810000Y-143570000D02*
X133290000Y-143570000D01*
X133290000Y-143570000D02*
X133290000Y-133290000D01*
X82550000Y-143510000D02*
X85090000Y-143510000D01*
X85090000Y-143510000D02*
X85090000Y-163830000D01*
X85090000Y-163830000D02*
X82550000Y-163830000D01*
X82550000Y-163830000D02*
X82550000Y-143510000D01*
X118170000Y-161350000D02*
X120650000Y-161350000D01*
X120650000Y-161350000D02*
X120650000Y-140910000D01*
X120650000Y-140910000D02*
X118170000Y-140910000D01*
X118170000Y-140910000D02*
X118170000Y-161350000D01*
X87630000Y-138490000D02*
X87630000Y-140970000D01*
X90170000Y-140970000D02*
X90170000Y-138430000D01*
X92710000Y-138430000D02*
X92710000Y-140970000D01*
X95220000Y-138490000D02*
X95220000Y-140970000D01*
X97790000Y-138430000D02*
X97790000Y-140970000D01*
X100330000Y-138430000D02*
X100330000Y-140970000D01*
X102870000Y-138430000D02*
X102870000Y-140970000D01*
X82610000Y-146050000D02*
X85090000Y-146050000D01*
X82550000Y-148590000D02*
X85090000Y-148590000D01*
X82550000Y-151130000D02*
X85090000Y-151130000D01*
X82550000Y-153670000D02*
X85090000Y-153670000D01*
X82550000Y-156210000D02*
X85090000Y-156210000D01*
X82550000Y-158750000D02*
X85090000Y-158750000D01*
X82550000Y-161290000D02*
X85090000Y-161290000D01*
X118110000Y-158750000D02*
X120650000Y-158750000D01*
X120650000Y-156210000D02*
X118110000Y-156210000D01*
X118110000Y-153670000D02*
X120650000Y-153670000D01*
X120650000Y-151130000D02*
X118170000Y-151130000D01*
X118170000Y-148590000D02*
X120650000Y-148590000D01*
X120650000Y-146050000D02*
X118110000Y-146050000D01*
X118110000Y-143510000D02*
X120650000Y-143510000D01*
X82550000Y-107950000D02*
X85090000Y-107950000D01*
X85090000Y-107950000D02*
X85090000Y-128270000D01*
X85090000Y-128270000D02*
X82550000Y-128270000D01*
X82550000Y-128270000D02*
X82550000Y-107950000D01*
X118170000Y-125790000D02*
X120650000Y-125790000D01*
X120650000Y-125790000D02*
X120650000Y-105350000D01*
X120650000Y-105350000D02*
X118170000Y-105350000D01*
X118170000Y-105350000D02*
X118170000Y-125790000D01*
X87630000Y-102930000D02*
X87630000Y-105410000D01*
X90170000Y-105410000D02*
X90170000Y-102870000D01*
X92710000Y-102870000D02*
X92710000Y-105410000D01*
X95220000Y-102930000D02*
X95220000Y-105410000D01*
X97790000Y-102870000D02*
X97790000Y-105410000D01*
X100330000Y-102870000D02*
X100330000Y-105410000D01*
X102870000Y-102870000D02*
X102870000Y-105410000D01*
X82610000Y-110490000D02*
X85090000Y-110490000D01*
X82550000Y-113030000D02*
X85090000Y-113030000D01*
X82550000Y-115570000D02*
X85090000Y-115570000D01*
X82550000Y-118110000D02*
X85090000Y-118110000D01*
X82550000Y-120650000D02*
X85090000Y-120650000D01*
X82550000Y-123190000D02*
X85090000Y-123190000D01*
X82550000Y-125730000D02*
X85090000Y-125730000D01*
X118110000Y-123190000D02*
X120650000Y-123190000D01*
X120650000Y-120650000D02*
X118110000Y-120650000D01*
X118110000Y-118110000D02*
X120650000Y-118110000D01*
X120650000Y-115570000D02*
X118170000Y-115570000D01*
X118170000Y-113030000D02*
X120650000Y-113030000D01*
X120650000Y-110490000D02*
X118110000Y-110490000D01*
X118110000Y-107950000D02*
X120650000Y-107950000D01*
X118170000Y-90230000D02*
X120650000Y-90230000D01*
X120650000Y-90230000D02*
X120650000Y-69790000D01*
X120650000Y-69790000D02*
X118170000Y-69790000D01*
X118170000Y-69790000D02*
X118170000Y-90230000D01*
X87630000Y-67370000D02*
X87630000Y-69850000D01*
X90170000Y-69850000D02*
X90170000Y-67310000D01*
X92710000Y-67310000D02*
X92710000Y-69850000D01*
X95220000Y-67370000D02*
X95220000Y-69850000D01*
X97790000Y-67310000D02*
X97790000Y-69850000D01*
X100330000Y-67310000D02*
X100330000Y-69850000D01*
X102870000Y-67310000D02*
X102870000Y-69850000D01*
X82610000Y-74930000D02*
X85090000Y-74930000D01*
X82550000Y-77470000D02*
X85090000Y-77470000D01*
X82550000Y-80010000D02*
X85090000Y-80010000D01*
X82550000Y-82550000D02*
X85090000Y-82550000D01*
X82550000Y-85090000D02*
X85090000Y-85090000D01*
X82550000Y-87630000D02*
X85090000Y-87630000D01*
X82550000Y-90170000D02*
X85090000Y-90170000D01*
X118110000Y-87630000D02*
X120650000Y-87630000D01*
X120650000Y-85090000D02*
X118110000Y-85090000D01*
X118110000Y-82550000D02*
X120650000Y-82550000D01*
X120650000Y-80010000D02*
X118170000Y-80010000D01*
X118170000Y-77470000D02*
X120650000Y-77470000D01*
X120650000Y-74930000D02*
X118110000Y-74930000D01*
X118110000Y-72390000D02*
X120650000Y-72390000D01*
X119332380Y-141692380D02*
X119427619Y-141692380D01*
X119522857Y-141740000D01*
X119570476Y-141787619D01*
X119618095Y-141882857D01*
X119665714Y-142073333D01*
X119665714Y-142311428D01*
X119618095Y-142501904D01*
X119570476Y-142597142D01*
X119522857Y-142644761D01*
X119427619Y-142692380D01*
X119332380Y-142692380D01*
X119237142Y-142644761D01*
X119189523Y-142597142D01*
X119141904Y-142501904D01*
X119094285Y-142311428D01*
X119094285Y-142073333D01*
X119141904Y-141882857D01*
X119189523Y-141787619D01*
X119237142Y-141740000D01*
X119332380Y-141692380D01*
X119665714Y-145232380D02*
X119094285Y-145232380D01*
X119380000Y-145232380D02*
X119380000Y-144232380D01*
X119284761Y-144375238D01*
X119189523Y-144470476D01*
X119094285Y-144518095D01*
X119094285Y-146867619D02*
X119141904Y-146820000D01*
X119237142Y-146772380D01*
X119475238Y-146772380D01*
X119570476Y-146820000D01*
X119618095Y-146867619D01*
X119665714Y-146962857D01*
X119665714Y-147058095D01*
X119618095Y-147200952D01*
X119046666Y-147772380D01*
X119665714Y-147772380D01*
X119046666Y-149312380D02*
X119665714Y-149312380D01*
X119332380Y-149693333D01*
X119475238Y-149693333D01*
X119570476Y-149740952D01*
X119618095Y-149788571D01*
X119665714Y-149883809D01*
X119665714Y-150121904D01*
X119618095Y-150217142D01*
X119570476Y-150264761D01*
X119475238Y-150312380D01*
X119189523Y-150312380D01*
X119094285Y-150264761D01*
X119046666Y-150217142D01*
X119570476Y-152185714D02*
X119570476Y-152852380D01*
X119332380Y-151804761D02*
X119094285Y-152519047D01*
X119713333Y-152519047D01*
X119618095Y-154392380D02*
X119141904Y-154392380D01*
X119094285Y-154868571D01*
X119141904Y-154820952D01*
X119237142Y-154773333D01*
X119475238Y-154773333D01*
X119570476Y-154820952D01*
X119618095Y-154868571D01*
X119665714Y-154963809D01*
X119665714Y-155201904D01*
X119618095Y-155297142D01*
X119570476Y-155344761D01*
X119475238Y-155392380D01*
X119237142Y-155392380D01*
X119141904Y-155344761D01*
X119094285Y-155297142D01*
X119570476Y-156932380D02*
X119380000Y-156932380D01*
X119284761Y-156980000D01*
X119237142Y-157027619D01*
X119141904Y-157170476D01*
X119094285Y-157360952D01*
X119094285Y-157741904D01*
X119141904Y-157837142D01*
X119189523Y-157884761D01*
X119284761Y-157932380D01*
X119475238Y-157932380D01*
X119570476Y-157884761D01*
X119618095Y-157837142D01*
X119665714Y-157741904D01*
X119665714Y-157503809D01*
X119618095Y-157408571D01*
X119570476Y-157360952D01*
X119475238Y-157313333D01*
X119284761Y-157313333D01*
X119189523Y-157360952D01*
X119141904Y-157408571D01*
X119094285Y-157503809D01*
X119046666Y-159472380D02*
X119713333Y-159472380D01*
X119284761Y-160472380D01*
X84010476Y-154725714D02*
X84010476Y-155392380D01*
X83772380Y-154344761D02*
X83534285Y-155059047D01*
X84153333Y-155059047D01*
X84105714Y-147772380D02*
X83534285Y-147772380D01*
X83820000Y-147772380D02*
X83820000Y-146772380D01*
X83724761Y-146915238D01*
X83629523Y-147010476D01*
X83534285Y-147058095D01*
X84058095Y-156932380D02*
X83581904Y-156932380D01*
X83534285Y-157408571D01*
X83581904Y-157360952D01*
X83677142Y-157313333D01*
X83915238Y-157313333D01*
X84010476Y-157360952D01*
X84058095Y-157408571D01*
X84105714Y-157503809D01*
X84105714Y-157741904D01*
X84058095Y-157837142D01*
X84010476Y-157884761D01*
X83915238Y-157932380D01*
X83677142Y-157932380D01*
X83581904Y-157884761D01*
X83534285Y-157837142D01*
X83486666Y-151852380D02*
X84105714Y-151852380D01*
X83772380Y-152233333D01*
X83915238Y-152233333D01*
X84010476Y-152280952D01*
X84058095Y-152328571D01*
X84105714Y-152423809D01*
X84105714Y-152661904D01*
X84058095Y-152757142D01*
X84010476Y-152804761D01*
X83915238Y-152852380D01*
X83629523Y-152852380D01*
X83534285Y-152804761D01*
X83486666Y-152757142D01*
X83534285Y-149407619D02*
X83581904Y-149360000D01*
X83677142Y-149312380D01*
X83915238Y-149312380D01*
X84010476Y-149360000D01*
X84058095Y-149407619D01*
X84105714Y-149502857D01*
X84105714Y-149598095D01*
X84058095Y-149740952D01*
X83486666Y-150312380D01*
X84105714Y-150312380D01*
X84010476Y-159472380D02*
X83820000Y-159472380D01*
X83724761Y-159520000D01*
X83677142Y-159567619D01*
X83581904Y-159710476D01*
X83534285Y-159900952D01*
X83534285Y-160281904D01*
X83581904Y-160377142D01*
X83629523Y-160424761D01*
X83724761Y-160472380D01*
X83915238Y-160472380D01*
X84010476Y-160424761D01*
X84058095Y-160377142D01*
X84105714Y-160281904D01*
X84105714Y-160043809D01*
X84058095Y-159948571D01*
X84010476Y-159900952D01*
X83915238Y-159853333D01*
X83724761Y-159853333D01*
X83629523Y-159900952D01*
X83581904Y-159948571D01*
X83534285Y-160043809D01*
X83772380Y-144232380D02*
X83867619Y-144232380D01*
X83962857Y-144280000D01*
X84010476Y-144327619D01*
X84058095Y-144422857D01*
X84105714Y-144613333D01*
X84105714Y-144851428D01*
X84058095Y-145041904D01*
X84010476Y-145137142D01*
X83962857Y-145184761D01*
X83867619Y-145232380D01*
X83772380Y-145232380D01*
X83677142Y-145184761D01*
X83629523Y-145137142D01*
X83581904Y-145041904D01*
X83534285Y-144851428D01*
X83534285Y-144613333D01*
X83581904Y-144422857D01*
X83629523Y-144327619D01*
X83677142Y-144280000D01*
X83772380Y-144232380D01*
X83486666Y-162012380D02*
X84153333Y-162012380D01*
X83724761Y-163012380D01*
X96710476Y-139485714D02*
X96710476Y-140152380D01*
X96472380Y-139104761D02*
X96234285Y-139819047D01*
X96853333Y-139819047D01*
X89185714Y-140152380D02*
X88614285Y-140152380D01*
X88900000Y-140152380D02*
X88900000Y-139152380D01*
X88804761Y-139295238D01*
X88709523Y-139390476D01*
X88614285Y-139438095D01*
X99298095Y-139152380D02*
X98821904Y-139152380D01*
X98774285Y-139628571D01*
X98821904Y-139580952D01*
X98917142Y-139533333D01*
X99155238Y-139533333D01*
X99250476Y-139580952D01*
X99298095Y-139628571D01*
X99345714Y-139723809D01*
X99345714Y-139961904D01*
X99298095Y-140057142D01*
X99250476Y-140104761D01*
X99155238Y-140152380D01*
X98917142Y-140152380D01*
X98821904Y-140104761D01*
X98774285Y-140057142D01*
X93646666Y-139152380D02*
X94265714Y-139152380D01*
X93932380Y-139533333D01*
X94075238Y-139533333D01*
X94170476Y-139580952D01*
X94218095Y-139628571D01*
X94265714Y-139723809D01*
X94265714Y-139961904D01*
X94218095Y-140057142D01*
X94170476Y-140104761D01*
X94075238Y-140152380D01*
X93789523Y-140152380D01*
X93694285Y-140104761D01*
X93646666Y-140057142D01*
X91154285Y-139247619D02*
X91201904Y-139200000D01*
X91297142Y-139152380D01*
X91535238Y-139152380D01*
X91630476Y-139200000D01*
X91678095Y-139247619D01*
X91725714Y-139342857D01*
X91725714Y-139438095D01*
X91678095Y-139580952D01*
X91106666Y-140152380D01*
X91725714Y-140152380D01*
X101790476Y-139152380D02*
X101600000Y-139152380D01*
X101504761Y-139200000D01*
X101457142Y-139247619D01*
X101361904Y-139390476D01*
X101314285Y-139580952D01*
X101314285Y-139961904D01*
X101361904Y-140057142D01*
X101409523Y-140104761D01*
X101504761Y-140152380D01*
X101695238Y-140152380D01*
X101790476Y-140104761D01*
X101838095Y-140057142D01*
X101885714Y-139961904D01*
X101885714Y-139723809D01*
X101838095Y-139628571D01*
X101790476Y-139580952D01*
X101695238Y-139533333D01*
X101504761Y-139533333D01*
X101409523Y-139580952D01*
X101361904Y-139628571D01*
X101314285Y-139723809D01*
X86312380Y-139152380D02*
X86407619Y-139152380D01*
X86502857Y-139200000D01*
X86550476Y-139247619D01*
X86598095Y-139342857D01*
X86645714Y-139533333D01*
X86645714Y-139771428D01*
X86598095Y-139961904D01*
X86550476Y-140057142D01*
X86502857Y-140104761D01*
X86407619Y-140152380D01*
X86312380Y-140152380D01*
X86217142Y-140104761D01*
X86169523Y-140057142D01*
X86121904Y-139961904D01*
X86074285Y-139771428D01*
X86074285Y-139533333D01*
X86121904Y-139342857D01*
X86169523Y-139247619D01*
X86217142Y-139200000D01*
X86312380Y-139152380D01*
X103806666Y-139152380D02*
X104473333Y-139152380D01*
X104044761Y-140152380D01*
X119332380Y-106132380D02*
X119427619Y-106132380D01*
X119522857Y-106180000D01*
X119570476Y-106227619D01*
X119618095Y-106322857D01*
X119665714Y-106513333D01*
X119665714Y-106751428D01*
X119618095Y-106941904D01*
X119570476Y-107037142D01*
X119522857Y-107084761D01*
X119427619Y-107132380D01*
X119332380Y-107132380D01*
X119237142Y-107084761D01*
X119189523Y-107037142D01*
X119141904Y-106941904D01*
X119094285Y-106751428D01*
X119094285Y-106513333D01*
X119141904Y-106322857D01*
X119189523Y-106227619D01*
X119237142Y-106180000D01*
X119332380Y-106132380D01*
X119665714Y-109672380D02*
X119094285Y-109672380D01*
X119380000Y-109672380D02*
X119380000Y-108672380D01*
X119284761Y-108815238D01*
X119189523Y-108910476D01*
X119094285Y-108958095D01*
X119094285Y-111307619D02*
X119141904Y-111260000D01*
X119237142Y-111212380D01*
X119475238Y-111212380D01*
X119570476Y-111260000D01*
X119618095Y-111307619D01*
X119665714Y-111402857D01*
X119665714Y-111498095D01*
X119618095Y-111640952D01*
X119046666Y-112212380D01*
X119665714Y-112212380D01*
X119046666Y-113752380D02*
X119665714Y-113752380D01*
X119332380Y-114133333D01*
X119475238Y-114133333D01*
X119570476Y-114180952D01*
X119618095Y-114228571D01*
X119665714Y-114323809D01*
X119665714Y-114561904D01*
X119618095Y-114657142D01*
X119570476Y-114704761D01*
X119475238Y-114752380D01*
X119189523Y-114752380D01*
X119094285Y-114704761D01*
X119046666Y-114657142D01*
X119570476Y-116625714D02*
X119570476Y-117292380D01*
X119332380Y-116244761D02*
X119094285Y-116959047D01*
X119713333Y-116959047D01*
X119618095Y-118832380D02*
X119141904Y-118832380D01*
X119094285Y-119308571D01*
X119141904Y-119260952D01*
X119237142Y-119213333D01*
X119475238Y-119213333D01*
X119570476Y-119260952D01*
X119618095Y-119308571D01*
X119665714Y-119403809D01*
X119665714Y-119641904D01*
X119618095Y-119737142D01*
X119570476Y-119784761D01*
X119475238Y-119832380D01*
X119237142Y-119832380D01*
X119141904Y-119784761D01*
X119094285Y-119737142D01*
X119570476Y-121372380D02*
X119380000Y-121372380D01*
X119284761Y-121420000D01*
X119237142Y-121467619D01*
X119141904Y-121610476D01*
X119094285Y-121800952D01*
X119094285Y-122181904D01*
X119141904Y-122277142D01*
X119189523Y-122324761D01*
X119284761Y-122372380D01*
X119475238Y-122372380D01*
X119570476Y-122324761D01*
X119618095Y-122277142D01*
X119665714Y-122181904D01*
X119665714Y-121943809D01*
X119618095Y-121848571D01*
X119570476Y-121800952D01*
X119475238Y-121753333D01*
X119284761Y-121753333D01*
X119189523Y-121800952D01*
X119141904Y-121848571D01*
X119094285Y-121943809D01*
X119046666Y-123912380D02*
X119713333Y-123912380D01*
X119284761Y-124912380D01*
X84010476Y-119165714D02*
X84010476Y-119832380D01*
X83772380Y-118784761D02*
X83534285Y-119499047D01*
X84153333Y-119499047D01*
X84105714Y-112212380D02*
X83534285Y-112212380D01*
X83820000Y-112212380D02*
X83820000Y-111212380D01*
X83724761Y-111355238D01*
X83629523Y-111450476D01*
X83534285Y-111498095D01*
X84058095Y-121372380D02*
X83581904Y-121372380D01*
X83534285Y-121848571D01*
X83581904Y-121800952D01*
X83677142Y-121753333D01*
X83915238Y-121753333D01*
X84010476Y-121800952D01*
X84058095Y-121848571D01*
X84105714Y-121943809D01*
X84105714Y-122181904D01*
X84058095Y-122277142D01*
X84010476Y-122324761D01*
X83915238Y-122372380D01*
X83677142Y-122372380D01*
X83581904Y-122324761D01*
X83534285Y-122277142D01*
X83486666Y-116292380D02*
X84105714Y-116292380D01*
X83772380Y-116673333D01*
X83915238Y-116673333D01*
X84010476Y-116720952D01*
X84058095Y-116768571D01*
X84105714Y-116863809D01*
X84105714Y-117101904D01*
X84058095Y-117197142D01*
X84010476Y-117244761D01*
X83915238Y-117292380D01*
X83629523Y-117292380D01*
X83534285Y-117244761D01*
X83486666Y-117197142D01*
X83534285Y-113847619D02*
X83581904Y-113800000D01*
X83677142Y-113752380D01*
X83915238Y-113752380D01*
X84010476Y-113800000D01*
X84058095Y-113847619D01*
X84105714Y-113942857D01*
X84105714Y-114038095D01*
X84058095Y-114180952D01*
X83486666Y-114752380D01*
X84105714Y-114752380D01*
X84010476Y-123912380D02*
X83820000Y-123912380D01*
X83724761Y-123960000D01*
X83677142Y-124007619D01*
X83581904Y-124150476D01*
X83534285Y-124340952D01*
X83534285Y-124721904D01*
X83581904Y-124817142D01*
X83629523Y-124864761D01*
X83724761Y-124912380D01*
X83915238Y-124912380D01*
X84010476Y-124864761D01*
X84058095Y-124817142D01*
X84105714Y-124721904D01*
X84105714Y-124483809D01*
X84058095Y-124388571D01*
X84010476Y-124340952D01*
X83915238Y-124293333D01*
X83724761Y-124293333D01*
X83629523Y-124340952D01*
X83581904Y-124388571D01*
X83534285Y-124483809D01*
X83772380Y-108672380D02*
X83867619Y-108672380D01*
X83962857Y-108720000D01*
X84010476Y-108767619D01*
X84058095Y-108862857D01*
X84105714Y-109053333D01*
X84105714Y-109291428D01*
X84058095Y-109481904D01*
X84010476Y-109577142D01*
X83962857Y-109624761D01*
X83867619Y-109672380D01*
X83772380Y-109672380D01*
X83677142Y-109624761D01*
X83629523Y-109577142D01*
X83581904Y-109481904D01*
X83534285Y-109291428D01*
X83534285Y-109053333D01*
X83581904Y-108862857D01*
X83629523Y-108767619D01*
X83677142Y-108720000D01*
X83772380Y-108672380D01*
X83486666Y-126452380D02*
X84153333Y-126452380D01*
X83724761Y-127452380D01*
X96710476Y-103925714D02*
X96710476Y-104592380D01*
X96472380Y-103544761D02*
X96234285Y-104259047D01*
X96853333Y-104259047D01*
X89185714Y-104592380D02*
X88614285Y-104592380D01*
X88900000Y-104592380D02*
X88900000Y-103592380D01*
X88804761Y-103735238D01*
X88709523Y-103830476D01*
X88614285Y-103878095D01*
X99298095Y-103592380D02*
X98821904Y-103592380D01*
X98774285Y-104068571D01*
X98821904Y-104020952D01*
X98917142Y-103973333D01*
X99155238Y-103973333D01*
X99250476Y-104020952D01*
X99298095Y-104068571D01*
X99345714Y-104163809D01*
X99345714Y-104401904D01*
X99298095Y-104497142D01*
X99250476Y-104544761D01*
X99155238Y-104592380D01*
X98917142Y-104592380D01*
X98821904Y-104544761D01*
X98774285Y-104497142D01*
X93646666Y-103592380D02*
X94265714Y-103592380D01*
X93932380Y-103973333D01*
X94075238Y-103973333D01*
X94170476Y-104020952D01*
X94218095Y-104068571D01*
X94265714Y-104163809D01*
X94265714Y-104401904D01*
X94218095Y-104497142D01*
X94170476Y-104544761D01*
X94075238Y-104592380D01*
X93789523Y-104592380D01*
X93694285Y-104544761D01*
X93646666Y-104497142D01*
X91154285Y-103687619D02*
X91201904Y-103640000D01*
X91297142Y-103592380D01*
X91535238Y-103592380D01*
X91630476Y-103640000D01*
X91678095Y-103687619D01*
X91725714Y-103782857D01*
X91725714Y-103878095D01*
X91678095Y-104020952D01*
X91106666Y-104592380D01*
X91725714Y-104592380D01*
X101790476Y-103592380D02*
X101600000Y-103592380D01*
X101504761Y-103640000D01*
X101457142Y-103687619D01*
X101361904Y-103830476D01*
X101314285Y-104020952D01*
X101314285Y-104401904D01*
X101361904Y-104497142D01*
X101409523Y-104544761D01*
X101504761Y-104592380D01*
X101695238Y-104592380D01*
X101790476Y-104544761D01*
X101838095Y-104497142D01*
X101885714Y-104401904D01*
X101885714Y-104163809D01*
X101838095Y-104068571D01*
X101790476Y-104020952D01*
X101695238Y-103973333D01*
X101504761Y-103973333D01*
X101409523Y-104020952D01*
X101361904Y-104068571D01*
X101314285Y-104163809D01*
X86312380Y-103592380D02*
X86407619Y-103592380D01*
X86502857Y-103640000D01*
X86550476Y-103687619D01*
X86598095Y-103782857D01*
X86645714Y-103973333D01*
X86645714Y-104211428D01*
X86598095Y-104401904D01*
X86550476Y-104497142D01*
X86502857Y-104544761D01*
X86407619Y-104592380D01*
X86312380Y-104592380D01*
X86217142Y-104544761D01*
X86169523Y-104497142D01*
X86121904Y-104401904D01*
X86074285Y-104211428D01*
X86074285Y-103973333D01*
X86121904Y-103782857D01*
X86169523Y-103687619D01*
X86217142Y-103640000D01*
X86312380Y-103592380D01*
X103806666Y-103592380D02*
X104473333Y-103592380D01*
X104044761Y-104592380D01*
X119332380Y-70572380D02*
X119427619Y-70572380D01*
X119522857Y-70620000D01*
X119570476Y-70667619D01*
X119618095Y-70762857D01*
X119665714Y-70953333D01*
X119665714Y-71191428D01*
X119618095Y-71381904D01*
X119570476Y-71477142D01*
X119522857Y-71524761D01*
X119427619Y-71572380D01*
X119332380Y-71572380D01*
X119237142Y-71524761D01*
X119189523Y-71477142D01*
X119141904Y-71381904D01*
X119094285Y-71191428D01*
X119094285Y-70953333D01*
X119141904Y-70762857D01*
X119189523Y-70667619D01*
X119237142Y-70620000D01*
X119332380Y-70572380D01*
X119665714Y-74112380D02*
X119094285Y-74112380D01*
X119380000Y-74112380D02*
X119380000Y-73112380D01*
X119284761Y-73255238D01*
X119189523Y-73350476D01*
X119094285Y-73398095D01*
X119094285Y-75747619D02*
X119141904Y-75700000D01*
X119237142Y-75652380D01*
X119475238Y-75652380D01*
X119570476Y-75700000D01*
X119618095Y-75747619D01*
X119665714Y-75842857D01*
X119665714Y-75938095D01*
X119618095Y-76080952D01*
X119046666Y-76652380D01*
X119665714Y-76652380D01*
X119046666Y-78192380D02*
X119665714Y-78192380D01*
X119332380Y-78573333D01*
X119475238Y-78573333D01*
X119570476Y-78620952D01*
X119618095Y-78668571D01*
X119665714Y-78763809D01*
X119665714Y-79001904D01*
X119618095Y-79097142D01*
X119570476Y-79144761D01*
X119475238Y-79192380D01*
X119189523Y-79192380D01*
X119094285Y-79144761D01*
X119046666Y-79097142D01*
X119570476Y-81065714D02*
X119570476Y-81732380D01*
X119332380Y-80684761D02*
X119094285Y-81399047D01*
X119713333Y-81399047D01*
X119618095Y-83272380D02*
X119141904Y-83272380D01*
X119094285Y-83748571D01*
X119141904Y-83700952D01*
X119237142Y-83653333D01*
X119475238Y-83653333D01*
X119570476Y-83700952D01*
X119618095Y-83748571D01*
X119665714Y-83843809D01*
X119665714Y-84081904D01*
X119618095Y-84177142D01*
X119570476Y-84224761D01*
X119475238Y-84272380D01*
X119237142Y-84272380D01*
X119141904Y-84224761D01*
X119094285Y-84177142D01*
X119570476Y-85812380D02*
X119380000Y-85812380D01*
X119284761Y-85860000D01*
X119237142Y-85907619D01*
X119141904Y-86050476D01*
X119094285Y-86240952D01*
X119094285Y-86621904D01*
X119141904Y-86717142D01*
X119189523Y-86764761D01*
X119284761Y-86812380D01*
X119475238Y-86812380D01*
X119570476Y-86764761D01*
X119618095Y-86717142D01*
X119665714Y-86621904D01*
X119665714Y-86383809D01*
X119618095Y-86288571D01*
X119570476Y-86240952D01*
X119475238Y-86193333D01*
X119284761Y-86193333D01*
X119189523Y-86240952D01*
X119141904Y-86288571D01*
X119094285Y-86383809D01*
X119046666Y-88352380D02*
X119713333Y-88352380D01*
X119284761Y-89352380D01*
X84010476Y-83605714D02*
X84010476Y-84272380D01*
X83772380Y-83224761D02*
X83534285Y-83939047D01*
X84153333Y-83939047D01*
X84105714Y-76652380D02*
X83534285Y-76652380D01*
X83820000Y-76652380D02*
X83820000Y-75652380D01*
X83724761Y-75795238D01*
X83629523Y-75890476D01*
X83534285Y-75938095D01*
X84058095Y-85812380D02*
X83581904Y-85812380D01*
X83534285Y-86288571D01*
X83581904Y-86240952D01*
X83677142Y-86193333D01*
X83915238Y-86193333D01*
X84010476Y-86240952D01*
X84058095Y-86288571D01*
X84105714Y-86383809D01*
X84105714Y-86621904D01*
X84058095Y-86717142D01*
X84010476Y-86764761D01*
X83915238Y-86812380D01*
X83677142Y-86812380D01*
X83581904Y-86764761D01*
X83534285Y-86717142D01*
X83486666Y-80732380D02*
X84105714Y-80732380D01*
X83772380Y-81113333D01*
X83915238Y-81113333D01*
X84010476Y-81160952D01*
X84058095Y-81208571D01*
X84105714Y-81303809D01*
X84105714Y-81541904D01*
X84058095Y-81637142D01*
X84010476Y-81684761D01*
X83915238Y-81732380D01*
X83629523Y-81732380D01*
X83534285Y-81684761D01*
X83486666Y-81637142D01*
X83534285Y-78287619D02*
X83581904Y-78240000D01*
X83677142Y-78192380D01*
X83915238Y-78192380D01*
X84010476Y-78240000D01*
X84058095Y-78287619D01*
X84105714Y-78382857D01*
X84105714Y-78478095D01*
X84058095Y-78620952D01*
X83486666Y-79192380D01*
X84105714Y-79192380D01*
X84010476Y-88352380D02*
X83820000Y-88352380D01*
X83724761Y-88400000D01*
X83677142Y-88447619D01*
X83581904Y-88590476D01*
X83534285Y-88780952D01*
X83534285Y-89161904D01*
X83581904Y-89257142D01*
X83629523Y-89304761D01*
X83724761Y-89352380D01*
X83915238Y-89352380D01*
X84010476Y-89304761D01*
X84058095Y-89257142D01*
X84105714Y-89161904D01*
X84105714Y-88923809D01*
X84058095Y-88828571D01*
X84010476Y-88780952D01*
X83915238Y-88733333D01*
X83724761Y-88733333D01*
X83629523Y-88780952D01*
X83581904Y-88828571D01*
X83534285Y-88923809D01*
X83772380Y-73112380D02*
X83867619Y-73112380D01*
X83962857Y-73160000D01*
X84010476Y-73207619D01*
X84058095Y-73302857D01*
X84105714Y-73493333D01*
X84105714Y-73731428D01*
X84058095Y-73921904D01*
X84010476Y-74017142D01*
X83962857Y-74064761D01*
X83867619Y-74112380D01*
X83772380Y-74112380D01*
X83677142Y-74064761D01*
X83629523Y-74017142D01*
X83581904Y-73921904D01*
X83534285Y-73731428D01*
X83534285Y-73493333D01*
X83581904Y-73302857D01*
X83629523Y-73207619D01*
X83677142Y-73160000D01*
X83772380Y-73112380D01*
X83486666Y-90892380D02*
X84153333Y-90892380D01*
X83724761Y-91892380D01*
X96710476Y-68365714D02*
X96710476Y-69032380D01*
X96472380Y-67984761D02*
X96234285Y-68699047D01*
X96853333Y-68699047D01*
X89185714Y-69032380D02*
X88614285Y-69032380D01*
X88900000Y-69032380D02*
X88900000Y-68032380D01*
X88804761Y-68175238D01*
X88709523Y-68270476D01*
X88614285Y-68318095D01*
X99298095Y-68032380D02*
X98821904Y-68032380D01*
X98774285Y-68508571D01*
X98821904Y-68460952D01*
X98917142Y-68413333D01*
X99155238Y-68413333D01*
X99250476Y-68460952D01*
X99298095Y-68508571D01*
X99345714Y-68603809D01*
X99345714Y-68841904D01*
X99298095Y-68937142D01*
X99250476Y-68984761D01*
X99155238Y-69032380D01*
X98917142Y-69032380D01*
X98821904Y-68984761D01*
X98774285Y-68937142D01*
X93646666Y-68032380D02*
X94265714Y-68032380D01*
X93932380Y-68413333D01*
X94075238Y-68413333D01*
X94170476Y-68460952D01*
X94218095Y-68508571D01*
X94265714Y-68603809D01*
X94265714Y-68841904D01*
X94218095Y-68937142D01*
X94170476Y-68984761D01*
X94075238Y-69032380D01*
X93789523Y-69032380D01*
X93694285Y-68984761D01*
X93646666Y-68937142D01*
X91154285Y-68127619D02*
X91201904Y-68080000D01*
X91297142Y-68032380D01*
X91535238Y-68032380D01*
X91630476Y-68080000D01*
X91678095Y-68127619D01*
X91725714Y-68222857D01*
X91725714Y-68318095D01*
X91678095Y-68460952D01*
X91106666Y-69032380D01*
X91725714Y-69032380D01*
X101790476Y-68032380D02*
X101600000Y-68032380D01*
X101504761Y-68080000D01*
X101457142Y-68127619D01*
X101361904Y-68270476D01*
X101314285Y-68460952D01*
X101314285Y-68841904D01*
X101361904Y-68937142D01*
X101409523Y-68984761D01*
X101504761Y-69032380D01*
X101695238Y-69032380D01*
X101790476Y-68984761D01*
X101838095Y-68937142D01*
X101885714Y-68841904D01*
X101885714Y-68603809D01*
X101838095Y-68508571D01*
X101790476Y-68460952D01*
X101695238Y-68413333D01*
X101504761Y-68413333D01*
X101409523Y-68460952D01*
X101361904Y-68508571D01*
X101314285Y-68603809D01*
X86312380Y-68032380D02*
X86407619Y-68032380D01*
X86502857Y-68080000D01*
X86550476Y-68127619D01*
X86598095Y-68222857D01*
X86645714Y-68413333D01*
X86645714Y-68651428D01*
X86598095Y-68841904D01*
X86550476Y-68937142D01*
X86502857Y-68984761D01*
X86407619Y-69032380D01*
X86312380Y-69032380D01*
X86217142Y-68984761D01*
X86169523Y-68937142D01*
X86121904Y-68841904D01*
X86074285Y-68651428D01*
X86074285Y-68413333D01*
X86121904Y-68222857D01*
X86169523Y-68127619D01*
X86217142Y-68080000D01*
X86312380Y-68032380D01*
X103806666Y-68032380D02*
X104473333Y-68032380D01*
X104044761Y-69032380D01*
X103806666Y-32472380D02*
X104473333Y-32472380D01*
X104044761Y-33472380D01*
X86312380Y-32472380D02*
X86407619Y-32472380D01*
X86502857Y-32520000D01*
X86550476Y-32567619D01*
X86598095Y-32662857D01*
X86645714Y-32853333D01*
X86645714Y-33091428D01*
X86598095Y-33281904D01*
X86550476Y-33377142D01*
X86502857Y-33424761D01*
X86407619Y-33472380D01*
X86312380Y-33472380D01*
X86217142Y-33424761D01*
X86169523Y-33377142D01*
X86121904Y-33281904D01*
X86074285Y-33091428D01*
X86074285Y-32853333D01*
X86121904Y-32662857D01*
X86169523Y-32567619D01*
X86217142Y-32520000D01*
X86312380Y-32472380D01*
X101790476Y-32472380D02*
X101600000Y-32472380D01*
X101504761Y-32520000D01*
X101457142Y-32567619D01*
X101361904Y-32710476D01*
X101314285Y-32900952D01*
X101314285Y-33281904D01*
X101361904Y-33377142D01*
X101409523Y-33424761D01*
X101504761Y-33472380D01*
X101695238Y-33472380D01*
X101790476Y-33424761D01*
X101838095Y-33377142D01*
X101885714Y-33281904D01*
X101885714Y-33043809D01*
X101838095Y-32948571D01*
X101790476Y-32900952D01*
X101695238Y-32853333D01*
X101504761Y-32853333D01*
X101409523Y-32900952D01*
X101361904Y-32948571D01*
X101314285Y-33043809D01*
X91154285Y-32567619D02*
X91201904Y-32520000D01*
X91297142Y-32472380D01*
X91535238Y-32472380D01*
X91630476Y-32520000D01*
X91678095Y-32567619D01*
X91725714Y-32662857D01*
X91725714Y-32758095D01*
X91678095Y-32900952D01*
X91106666Y-33472380D01*
X91725714Y-33472380D01*
X93646666Y-32472380D02*
X94265714Y-32472380D01*
X93932380Y-32853333D01*
X94075238Y-32853333D01*
X94170476Y-32900952D01*
X94218095Y-32948571D01*
X94265714Y-33043809D01*
X94265714Y-33281904D01*
X94218095Y-33377142D01*
X94170476Y-33424761D01*
X94075238Y-33472380D01*
X93789523Y-33472380D01*
X93694285Y-33424761D01*
X93646666Y-33377142D01*
X99298095Y-32472380D02*
X98821904Y-32472380D01*
X98774285Y-32948571D01*
X98821904Y-32900952D01*
X98917142Y-32853333D01*
X99155238Y-32853333D01*
X99250476Y-32900952D01*
X99298095Y-32948571D01*
X99345714Y-33043809D01*
X99345714Y-33281904D01*
X99298095Y-33377142D01*
X99250476Y-33424761D01*
X99155238Y-33472380D01*
X98917142Y-33472380D01*
X98821904Y-33424761D01*
X98774285Y-33377142D01*
X89185714Y-33472380D02*
X88614285Y-33472380D01*
X88900000Y-33472380D02*
X88900000Y-32472380D01*
X88804761Y-32615238D01*
X88709523Y-32710476D01*
X88614285Y-32758095D01*
X96710476Y-32805714D02*
X96710476Y-33472380D01*
X96472380Y-32424761D02*
X96234285Y-33139047D01*
X96853333Y-33139047D01*
X83486666Y-55332380D02*
X84153333Y-55332380D01*
X83724761Y-56332380D01*
X83772380Y-37552380D02*
X83867619Y-37552380D01*
X83962857Y-37600000D01*
X84010476Y-37647619D01*
X84058095Y-37742857D01*
X84105714Y-37933333D01*
X84105714Y-38171428D01*
X84058095Y-38361904D01*
X84010476Y-38457142D01*
X83962857Y-38504761D01*
X83867619Y-38552380D01*
X83772380Y-38552380D01*
X83677142Y-38504761D01*
X83629523Y-38457142D01*
X83581904Y-38361904D01*
X83534285Y-38171428D01*
X83534285Y-37933333D01*
X83581904Y-37742857D01*
X83629523Y-37647619D01*
X83677142Y-37600000D01*
X83772380Y-37552380D01*
X84010476Y-52792380D02*
X83820000Y-52792380D01*
X83724761Y-52840000D01*
X83677142Y-52887619D01*
X83581904Y-53030476D01*
X83534285Y-53220952D01*
X83534285Y-53601904D01*
X83581904Y-53697142D01*
X83629523Y-53744761D01*
X83724761Y-53792380D01*
X83915238Y-53792380D01*
X84010476Y-53744761D01*
X84058095Y-53697142D01*
X84105714Y-53601904D01*
X84105714Y-53363809D01*
X84058095Y-53268571D01*
X84010476Y-53220952D01*
X83915238Y-53173333D01*
X83724761Y-53173333D01*
X83629523Y-53220952D01*
X83581904Y-53268571D01*
X83534285Y-53363809D01*
X83534285Y-42727619D02*
X83581904Y-42680000D01*
X83677142Y-42632380D01*
X83915238Y-42632380D01*
X84010476Y-42680000D01*
X84058095Y-42727619D01*
X84105714Y-42822857D01*
X84105714Y-42918095D01*
X84058095Y-43060952D01*
X83486666Y-43632380D01*
X84105714Y-43632380D01*
X83486666Y-45172380D02*
X84105714Y-45172380D01*
X83772380Y-45553333D01*
X83915238Y-45553333D01*
X84010476Y-45600952D01*
X84058095Y-45648571D01*
X84105714Y-45743809D01*
X84105714Y-45981904D01*
X84058095Y-46077142D01*
X84010476Y-46124761D01*
X83915238Y-46172380D01*
X83629523Y-46172380D01*
X83534285Y-46124761D01*
X83486666Y-46077142D01*
X84058095Y-50252380D02*
X83581904Y-50252380D01*
X83534285Y-50728571D01*
X83581904Y-50680952D01*
X83677142Y-50633333D01*
X83915238Y-50633333D01*
X84010476Y-50680952D01*
X84058095Y-50728571D01*
X84105714Y-50823809D01*
X84105714Y-51061904D01*
X84058095Y-51157142D01*
X84010476Y-51204761D01*
X83915238Y-51252380D01*
X83677142Y-51252380D01*
X83581904Y-51204761D01*
X83534285Y-51157142D01*
X84105714Y-41092380D02*
X83534285Y-41092380D01*
X83820000Y-41092380D02*
X83820000Y-40092380D01*
X83724761Y-40235238D01*
X83629523Y-40330476D01*
X83534285Y-40378095D01*
X84010476Y-48045714D02*
X84010476Y-48712380D01*
X83772380Y-47664761D02*
X83534285Y-48379047D01*
X84153333Y-48379047D01*
X119046666Y-52792380D02*
X119713333Y-52792380D01*
X119284761Y-53792380D01*
X119570476Y-50252380D02*
X119380000Y-50252380D01*
X119284761Y-50300000D01*
X119237142Y-50347619D01*
X119141904Y-50490476D01*
X119094285Y-50680952D01*
X119094285Y-51061904D01*
X119141904Y-51157142D01*
X119189523Y-51204761D01*
X119284761Y-51252380D01*
X119475238Y-51252380D01*
X119570476Y-51204761D01*
X119618095Y-51157142D01*
X119665714Y-51061904D01*
X119665714Y-50823809D01*
X119618095Y-50728571D01*
X119570476Y-50680952D01*
X119475238Y-50633333D01*
X119284761Y-50633333D01*
X119189523Y-50680952D01*
X119141904Y-50728571D01*
X119094285Y-50823809D01*
X119618095Y-47712380D02*
X119141904Y-47712380D01*
X119094285Y-48188571D01*
X119141904Y-48140952D01*
X119237142Y-48093333D01*
X119475238Y-48093333D01*
X119570476Y-48140952D01*
X119618095Y-48188571D01*
X119665714Y-48283809D01*
X119665714Y-48521904D01*
X119618095Y-48617142D01*
X119570476Y-48664761D01*
X119475238Y-48712380D01*
X119237142Y-48712380D01*
X119141904Y-48664761D01*
X119094285Y-48617142D01*
X119570476Y-45505714D02*
X119570476Y-46172380D01*
X119332380Y-45124761D02*
X119094285Y-45839047D01*
X119713333Y-45839047D01*
X119046666Y-42632380D02*
X119665714Y-42632380D01*
X119332380Y-43013333D01*
X119475238Y-43013333D01*
X119570476Y-43060952D01*
X119618095Y-43108571D01*
X119665714Y-43203809D01*
X119665714Y-43441904D01*
X119618095Y-43537142D01*
X119570476Y-43584761D01*
X119475238Y-43632380D01*
X119189523Y-43632380D01*
X119094285Y-43584761D01*
X119046666Y-43537142D01*
X119094285Y-40187619D02*
X119141904Y-40140000D01*
X119237142Y-40092380D01*
X119475238Y-40092380D01*
X119570476Y-40140000D01*
X119618095Y-40187619D01*
X119665714Y-40282857D01*
X119665714Y-40378095D01*
X119618095Y-40520952D01*
X119046666Y-41092380D01*
X119665714Y-41092380D01*
X119665714Y-38552380D02*
X119094285Y-38552380D01*
X119380000Y-38552380D02*
X119380000Y-37552380D01*
X119284761Y-37695238D01*
X119189523Y-37790476D01*
X119094285Y-37838095D01*
X119332380Y-35012380D02*
X119427619Y-35012380D01*
X119522857Y-35060000D01*
X119570476Y-35107619D01*
X119618095Y-35202857D01*
X119665714Y-35393333D01*
X119665714Y-35631428D01*
X119618095Y-35821904D01*
X119570476Y-35917142D01*
X119522857Y-35964761D01*
X119427619Y-36012380D01*
X119332380Y-36012380D01*
X119237142Y-35964761D01*
X119189523Y-35917142D01*
X119141904Y-35821904D01*
X119094285Y-35631428D01*
X119094285Y-35393333D01*
X119141904Y-35202857D01*
X119189523Y-35107619D01*
X119237142Y-35060000D01*
X119332380Y-35012380D01*
X118110000Y-36830000D02*
X120650000Y-36830000D01*
X120650000Y-39370000D02*
X118110000Y-39370000D01*
X118170000Y-41910000D02*
X120650000Y-41910000D01*
X120650000Y-44450000D02*
X118170000Y-44450000D01*
X118110000Y-46990000D02*
X120650000Y-46990000D01*
X120650000Y-49530000D02*
X118110000Y-49530000D01*
X118110000Y-52070000D02*
X120650000Y-52070000D01*
X82550000Y-54610000D02*
X85090000Y-54610000D01*
X82550000Y-52070000D02*
X85090000Y-52070000D01*
X82550000Y-49530000D02*
X85090000Y-49530000D01*
X82550000Y-46990000D02*
X85090000Y-46990000D01*
X82550000Y-44450000D02*
X85090000Y-44450000D01*
X82550000Y-41910000D02*
X85090000Y-41910000D01*
X82610000Y-39370000D02*
X85090000Y-39370000D01*
X102870000Y-31750000D02*
X102870000Y-34290000D01*
X100330000Y-31750000D02*
X100330000Y-34290000D01*
X97790000Y-31750000D02*
X97790000Y-34290000D01*
X95220000Y-31810000D02*
X95220000Y-34290000D01*
X92710000Y-31750000D02*
X92710000Y-34290000D01*
X90170000Y-34290000D02*
X90170000Y-31750000D01*
X87630000Y-31810000D02*
X87630000Y-34290000D01*
X118170000Y-54670000D02*
X120650000Y-54670000D01*
X120650000Y-54670000D02*
X120650000Y-34230000D01*
X120650000Y-34230000D02*
X118170000Y-34230000D01*
X118170000Y-34230000D02*
X118170000Y-54670000D01*
X82550000Y-36830000D02*
X85090000Y-36830000D01*
X85090000Y-36830000D02*
X85090000Y-57150000D01*
X85090000Y-57150000D02*
X82550000Y-57150000D01*
X82550000Y-57150000D02*
X82550000Y-36830000D01*
%TO.C,J4*%
X116506666Y-163282380D02*
X116506666Y-163996666D01*
X116459047Y-164139523D01*
X116363809Y-164234761D01*
X116220952Y-164282380D01*
X116125714Y-164282380D01*
X117411428Y-163615714D02*
X117411428Y-164282380D01*
X117173333Y-163234761D02*
X116935238Y-163949047D01*
X117554285Y-163949047D01*
%TO.C,J3*%
X119256666Y-126512380D02*
X119256666Y-127226666D01*
X119209047Y-127369523D01*
X119113809Y-127464761D01*
X118970952Y-127512380D01*
X118875714Y-127512380D01*
X119637619Y-126512380D02*
X120256666Y-126512380D01*
X119923333Y-126893333D01*
X120066190Y-126893333D01*
X120161428Y-126940952D01*
X120209047Y-126988571D01*
X120256666Y-127083809D01*
X120256666Y-127321904D01*
X120209047Y-127417142D01*
X120161428Y-127464761D01*
X120066190Y-127512380D01*
X119780476Y-127512380D01*
X119685238Y-127464761D01*
X119637619Y-127417142D01*
%TO.C,J2*%
X127936666Y-61892380D02*
X127936666Y-62606666D01*
X127889047Y-62749523D01*
X127793809Y-62844761D01*
X127650952Y-62892380D01*
X127555714Y-62892380D01*
X128365238Y-61987619D02*
X128412857Y-61940000D01*
X128508095Y-61892380D01*
X128746190Y-61892380D01*
X128841428Y-61940000D01*
X128889047Y-61987619D01*
X128936666Y-62082857D01*
X128936666Y-62178095D01*
X128889047Y-62320952D01*
X128317619Y-62892380D01*
X128936666Y-62892380D01*
%TO.C,J1*%
X121582380Y-54943333D02*
X122296666Y-54943333D01*
X122439523Y-54990952D01*
X122534761Y-55086190D01*
X122582380Y-55229047D01*
X122582380Y-55324285D01*
X122582380Y-53943333D02*
X122582380Y-54514761D01*
X122582380Y-54229047D02*
X121582380Y-54229047D01*
X121725238Y-54324285D01*
X121820476Y-54419523D01*
X121868095Y-54514761D01*
%TO.C,C4*%
X109942333Y-103481142D02*
X109894714Y-103528761D01*
X109751857Y-103576380D01*
X109656619Y-103576380D01*
X109513761Y-103528761D01*
X109418523Y-103433523D01*
X109370904Y-103338285D01*
X109323285Y-103147809D01*
X109323285Y-103004952D01*
X109370904Y-102814476D01*
X109418523Y-102719238D01*
X109513761Y-102624000D01*
X109656619Y-102576380D01*
X109751857Y-102576380D01*
X109894714Y-102624000D01*
X109942333Y-102671619D01*
X110799476Y-102909714D02*
X110799476Y-103576380D01*
X110561380Y-102528761D02*
X110323285Y-103243047D01*
X110942333Y-103243047D01*
%TO.C,C3*%
X123952333Y-90019142D02*
X123904714Y-90066761D01*
X123761857Y-90114380D01*
X123666619Y-90114380D01*
X123523761Y-90066761D01*
X123428523Y-89971523D01*
X123380904Y-89876285D01*
X123333285Y-89685809D01*
X123333285Y-89542952D01*
X123380904Y-89352476D01*
X123428523Y-89257238D01*
X123523761Y-89162000D01*
X123666619Y-89114380D01*
X123761857Y-89114380D01*
X123904714Y-89162000D01*
X123952333Y-89209619D01*
X124285666Y-89114380D02*
X124904714Y-89114380D01*
X124571380Y-89495333D01*
X124714238Y-89495333D01*
X124809476Y-89542952D01*
X124857095Y-89590571D01*
X124904714Y-89685809D01*
X124904714Y-89923904D01*
X124857095Y-90019142D01*
X124809476Y-90066761D01*
X124714238Y-90114380D01*
X124428523Y-90114380D01*
X124333285Y-90066761D01*
X124285666Y-90019142D01*
%TO.C,C2*%
X110791333Y-30964142D02*
X110743714Y-31011761D01*
X110600857Y-31059380D01*
X110505619Y-31059380D01*
X110362761Y-31011761D01*
X110267523Y-30916523D01*
X110219904Y-30821285D01*
X110172285Y-30630809D01*
X110172285Y-30487952D01*
X110219904Y-30297476D01*
X110267523Y-30202238D01*
X110362761Y-30107000D01*
X110505619Y-30059380D01*
X110600857Y-30059380D01*
X110743714Y-30107000D01*
X110791333Y-30154619D01*
X111172285Y-30154619D02*
X111219904Y-30107000D01*
X111315142Y-30059380D01*
X111553238Y-30059380D01*
X111648476Y-30107000D01*
X111696095Y-30154619D01*
X111743714Y-30249857D01*
X111743714Y-30345095D01*
X111696095Y-30487952D01*
X111124666Y-31059380D01*
X111743714Y-31059380D01*
%TO.C,C1*%
X111593333Y-164314142D02*
X111545714Y-164361761D01*
X111402857Y-164409380D01*
X111307619Y-164409380D01*
X111164761Y-164361761D01*
X111069523Y-164266523D01*
X111021904Y-164171285D01*
X110974285Y-163980809D01*
X110974285Y-163837952D01*
X111021904Y-163647476D01*
X111069523Y-163552238D01*
X111164761Y-163457000D01*
X111307619Y-163409380D01*
X111402857Y-163409380D01*
X111545714Y-163457000D01*
X111593333Y-163504619D01*
X112545714Y-164409380D02*
X111974285Y-164409380D01*
X112260000Y-164409380D02*
X112260000Y-163409380D01*
X112164761Y-163552238D01*
X112069523Y-163647476D01*
X111974285Y-163695095D01*
%TO.C,D2*%
X128361904Y-166972380D02*
X128361904Y-165972380D01*
X128600000Y-165972380D01*
X128742857Y-166020000D01*
X128838095Y-166115238D01*
X128885714Y-166210476D01*
X128933333Y-166400952D01*
X128933333Y-166543809D01*
X128885714Y-166734285D01*
X128838095Y-166829523D01*
X128742857Y-166924761D01*
X128600000Y-166972380D01*
X128361904Y-166972380D01*
X129314285Y-166067619D02*
X129361904Y-166020000D01*
X129457142Y-165972380D01*
X129695238Y-165972380D01*
X129790476Y-166020000D01*
X129838095Y-166067619D01*
X129885714Y-166162857D01*
X129885714Y-166258095D01*
X129838095Y-166400952D01*
X129266666Y-166972380D01*
X129885714Y-166972380D01*
%TO.C,D1*%
X135072380Y-94718095D02*
X134072380Y-94718095D01*
X134072380Y-94480000D01*
X134120000Y-94337142D01*
X134215238Y-94241904D01*
X134310476Y-94194285D01*
X134500952Y-94146666D01*
X134643809Y-94146666D01*
X134834285Y-94194285D01*
X134929523Y-94241904D01*
X135024761Y-94337142D01*
X135072380Y-94480000D01*
X135072380Y-94718095D01*
X135072380Y-93194285D02*
X135072380Y-93765714D01*
X135072380Y-93480000D02*
X134072380Y-93480000D01*
X134215238Y-93575238D01*
X134310476Y-93670476D01*
X134358095Y-93765714D01*
%TO.C,J6*%
X80946666Y-93432380D02*
X80946666Y-94146666D01*
X80899047Y-94289523D01*
X80803809Y-94384761D01*
X80660952Y-94432380D01*
X80565714Y-94432380D01*
X81851428Y-93432380D02*
X81660952Y-93432380D01*
X81565714Y-93480000D01*
X81518095Y-93527619D01*
X81422857Y-93670476D01*
X81375238Y-93860952D01*
X81375238Y-94241904D01*
X81422857Y-94337142D01*
X81470476Y-94384761D01*
X81565714Y-94432380D01*
X81756190Y-94432380D01*
X81851428Y-94384761D01*
X81899047Y-94337142D01*
X81946666Y-94241904D01*
X81946666Y-94003809D01*
X81899047Y-93908571D01*
X81851428Y-93860952D01*
X81756190Y-93813333D01*
X81565714Y-93813333D01*
X81470476Y-93860952D01*
X81422857Y-93908571D01*
X81375238Y-94003809D01*
%TO.C,J5*%
X134286666Y-96182380D02*
X134286666Y-96896666D01*
X134239047Y-97039523D01*
X134143809Y-97134761D01*
X134000952Y-97182380D01*
X133905714Y-97182380D01*
X135239047Y-96182380D02*
X134762857Y-96182380D01*
X134715238Y-96658571D01*
X134762857Y-96610952D01*
X134858095Y-96563333D01*
X135096190Y-96563333D01*
X135191428Y-96610952D01*
X135239047Y-96658571D01*
X135286666Y-96753809D01*
X135286666Y-96991904D01*
X135239047Y-97087142D01*
X135191428Y-97134761D01*
X135096190Y-97182380D01*
X134858095Y-97182380D01*
X134762857Y-97134761D01*
X134715238Y-97087142D01*
%TO.C,J~{w}in1*%
X80652380Y-58082380D02*
X80652380Y-58796666D01*
X80604761Y-58939523D01*
X80509523Y-59034761D01*
X80366666Y-59082380D01*
X80271428Y-59082380D01*
X80890476Y-57800000D02*
X81938095Y-57800000D01*
X81033333Y-58415714D02*
X81223809Y-59082380D01*
X81414285Y-58606190D01*
X81604761Y-59082380D01*
X81795238Y-58415714D01*
X82176190Y-59082380D02*
X82176190Y-58415714D01*
X82176190Y-58082380D02*
X82128571Y-58130000D01*
X82176190Y-58177619D01*
X82223809Y-58130000D01*
X82176190Y-58082380D01*
X82176190Y-58177619D01*
X82652380Y-58415714D02*
X82652380Y-59082380D01*
X82652380Y-58510952D02*
X82700000Y-58463333D01*
X82795238Y-58415714D01*
X82938095Y-58415714D01*
X83033333Y-58463333D01*
X83080952Y-58558571D01*
X83080952Y-59082380D01*
X84080952Y-59082380D02*
X83509523Y-59082380D01*
X83795238Y-59082380D02*
X83795238Y-58082380D01*
X83700000Y-58225238D01*
X83604761Y-58320476D01*
X83509523Y-58368095D01*
%TO.C,J~{e}in1*%
X80747619Y-129052380D02*
X80747619Y-129766666D01*
X80700000Y-129909523D01*
X80604761Y-130004761D01*
X80461904Y-130052380D01*
X80366666Y-130052380D01*
X80985714Y-128770000D02*
X81842857Y-128770000D01*
X81604761Y-130004761D02*
X81509523Y-130052380D01*
X81319047Y-130052380D01*
X81223809Y-130004761D01*
X81176190Y-129909523D01*
X81176190Y-129528571D01*
X81223809Y-129433333D01*
X81319047Y-129385714D01*
X81509523Y-129385714D01*
X81604761Y-129433333D01*
X81652380Y-129528571D01*
X81652380Y-129623809D01*
X81176190Y-129719047D01*
X82080952Y-130052380D02*
X82080952Y-129385714D01*
X82080952Y-129052380D02*
X82033333Y-129100000D01*
X82080952Y-129147619D01*
X82128571Y-129100000D01*
X82080952Y-129052380D01*
X82080952Y-129147619D01*
X82557142Y-129385714D02*
X82557142Y-130052380D01*
X82557142Y-129480952D02*
X82604761Y-129433333D01*
X82700000Y-129385714D01*
X82842857Y-129385714D01*
X82938095Y-129433333D01*
X82985714Y-129528571D01*
X82985714Y-130052380D01*
X83985714Y-130052380D02*
X83414285Y-130052380D01*
X83700000Y-130052380D02*
X83700000Y-129052380D01*
X83604761Y-129195238D01*
X83509523Y-129290476D01*
X83414285Y-129338095D01*
%TO.C,U1*%
X126247380Y-97291904D02*
X127056904Y-97291904D01*
X127152142Y-97244285D01*
X127199761Y-97196666D01*
X127247380Y-97101428D01*
X127247380Y-96910952D01*
X127199761Y-96815714D01*
X127152142Y-96768095D01*
X127056904Y-96720476D01*
X126247380Y-96720476D01*
X127247380Y-95720476D02*
X127247380Y-96291904D01*
X127247380Y-96006190D02*
X126247380Y-96006190D01*
X126390238Y-96101428D01*
X126485476Y-96196666D01*
X126533095Y-96291904D01*
%TO.C,U3*%
X126242380Y-62991904D02*
X127051904Y-62991904D01*
X127147142Y-62944285D01*
X127194761Y-62896666D01*
X127242380Y-62801428D01*
X127242380Y-62610952D01*
X127194761Y-62515714D01*
X127147142Y-62468095D01*
X127051904Y-62420476D01*
X126242380Y-62420476D01*
X126242380Y-62039523D02*
X126242380Y-61420476D01*
X126623333Y-61753809D01*
X126623333Y-61610952D01*
X126670952Y-61515714D01*
X126718571Y-61468095D01*
X126813809Y-61420476D01*
X127051904Y-61420476D01*
X127147142Y-61468095D01*
X127194761Y-61515714D01*
X127242380Y-61610952D01*
X127242380Y-61896666D01*
X127194761Y-61991904D01*
X127147142Y-62039523D01*
%TO.C,U2*%
X128782380Y-134111904D02*
X129591904Y-134111904D01*
X129687142Y-134064285D01*
X129734761Y-134016666D01*
X129782380Y-133921428D01*
X129782380Y-133730952D01*
X129734761Y-133635714D01*
X129687142Y-133588095D01*
X129591904Y-133540476D01*
X128782380Y-133540476D01*
X128877619Y-133111904D02*
X128830000Y-133064285D01*
X128782380Y-132969047D01*
X128782380Y-132730952D01*
X128830000Y-132635714D01*
X128877619Y-132588095D01*
X128972857Y-132540476D01*
X129068095Y-132540476D01*
X129210952Y-132588095D01*
X129782380Y-133159523D01*
X129782380Y-132540476D01*
%TO.C,J~{w}out1*%
X131302380Y-45172380D02*
X131302380Y-45886666D01*
X131254761Y-46029523D01*
X131159523Y-46124761D01*
X131016666Y-46172380D01*
X130921428Y-46172380D01*
X131540476Y-44890000D02*
X132588095Y-44890000D01*
X131683333Y-45505714D02*
X131873809Y-46172380D01*
X132064285Y-45696190D01*
X132254761Y-46172380D01*
X132445238Y-45505714D01*
X132969047Y-46172380D02*
X132873809Y-46124761D01*
X132826190Y-46077142D01*
X132778571Y-45981904D01*
X132778571Y-45696190D01*
X132826190Y-45600952D01*
X132873809Y-45553333D01*
X132969047Y-45505714D01*
X133111904Y-45505714D01*
X133207142Y-45553333D01*
X133254761Y-45600952D01*
X133302380Y-45696190D01*
X133302380Y-45981904D01*
X133254761Y-46077142D01*
X133207142Y-46124761D01*
X133111904Y-46172380D01*
X132969047Y-46172380D01*
X134159523Y-45505714D02*
X134159523Y-46172380D01*
X133730952Y-45505714D02*
X133730952Y-46029523D01*
X133778571Y-46124761D01*
X133873809Y-46172380D01*
X134016666Y-46172380D01*
X134111904Y-46124761D01*
X134159523Y-46077142D01*
X134492857Y-45505714D02*
X134873809Y-45505714D01*
X134635714Y-45172380D02*
X134635714Y-46029523D01*
X134683333Y-46124761D01*
X134778571Y-46172380D01*
X134873809Y-46172380D01*
X135730952Y-46172380D02*
X135159523Y-46172380D01*
X135445238Y-46172380D02*
X135445238Y-45172380D01*
X135350000Y-45315238D01*
X135254761Y-45410476D01*
X135159523Y-45458095D01*
%TO.C,J~{w}in2*%
X131802380Y-75652380D02*
X131802380Y-76366666D01*
X131754761Y-76509523D01*
X131659523Y-76604761D01*
X131516666Y-76652380D01*
X131421428Y-76652380D01*
X132040476Y-75370000D02*
X133088095Y-75370000D01*
X132183333Y-75985714D02*
X132373809Y-76652380D01*
X132564285Y-76176190D01*
X132754761Y-76652380D01*
X132945238Y-75985714D01*
X133326190Y-76652380D02*
X133326190Y-75985714D01*
X133326190Y-75652380D02*
X133278571Y-75700000D01*
X133326190Y-75747619D01*
X133373809Y-75700000D01*
X133326190Y-75652380D01*
X133326190Y-75747619D01*
X133802380Y-75985714D02*
X133802380Y-76652380D01*
X133802380Y-76080952D02*
X133850000Y-76033333D01*
X133945238Y-75985714D01*
X134088095Y-75985714D01*
X134183333Y-76033333D01*
X134230952Y-76128571D01*
X134230952Y-76652380D01*
X134659523Y-75747619D02*
X134707142Y-75700000D01*
X134802380Y-75652380D01*
X135040476Y-75652380D01*
X135135714Y-75700000D01*
X135183333Y-75747619D01*
X135230952Y-75842857D01*
X135230952Y-75938095D01*
X135183333Y-76080952D01*
X134611904Y-76652380D01*
X135230952Y-76652380D01*
%TO.C,J~{e}out1*%
X131397619Y-116292380D02*
X131397619Y-117006666D01*
X131350000Y-117149523D01*
X131254761Y-117244761D01*
X131111904Y-117292380D01*
X131016666Y-117292380D01*
X131635714Y-116010000D02*
X132492857Y-116010000D01*
X132254761Y-117244761D02*
X132159523Y-117292380D01*
X131969047Y-117292380D01*
X131873809Y-117244761D01*
X131826190Y-117149523D01*
X131826190Y-116768571D01*
X131873809Y-116673333D01*
X131969047Y-116625714D01*
X132159523Y-116625714D01*
X132254761Y-116673333D01*
X132302380Y-116768571D01*
X132302380Y-116863809D01*
X131826190Y-116959047D01*
X132873809Y-117292380D02*
X132778571Y-117244761D01*
X132730952Y-117197142D01*
X132683333Y-117101904D01*
X132683333Y-116816190D01*
X132730952Y-116720952D01*
X132778571Y-116673333D01*
X132873809Y-116625714D01*
X133016666Y-116625714D01*
X133111904Y-116673333D01*
X133159523Y-116720952D01*
X133207142Y-116816190D01*
X133207142Y-117101904D01*
X133159523Y-117197142D01*
X133111904Y-117244761D01*
X133016666Y-117292380D01*
X132873809Y-117292380D01*
X134064285Y-116625714D02*
X134064285Y-117292380D01*
X133635714Y-116625714D02*
X133635714Y-117149523D01*
X133683333Y-117244761D01*
X133778571Y-117292380D01*
X133921428Y-117292380D01*
X134016666Y-117244761D01*
X134064285Y-117197142D01*
X134397619Y-116625714D02*
X134778571Y-116625714D01*
X134540476Y-116292380D02*
X134540476Y-117149523D01*
X134588095Y-117244761D01*
X134683333Y-117292380D01*
X134778571Y-117292380D01*
X135635714Y-117292380D02*
X135064285Y-117292380D01*
X135350000Y-117292380D02*
X135350000Y-116292380D01*
X135254761Y-116435238D01*
X135159523Y-116530476D01*
X135064285Y-116578095D01*
%TO.C,J~{e}in2*%
X131897619Y-146772380D02*
X131897619Y-147486666D01*
X131850000Y-147629523D01*
X131754761Y-147724761D01*
X131611904Y-147772380D01*
X131516666Y-147772380D01*
X132135714Y-146490000D02*
X132992857Y-146490000D01*
X132754761Y-147724761D02*
X132659523Y-147772380D01*
X132469047Y-147772380D01*
X132373809Y-147724761D01*
X132326190Y-147629523D01*
X132326190Y-147248571D01*
X132373809Y-147153333D01*
X132469047Y-147105714D01*
X132659523Y-147105714D01*
X132754761Y-147153333D01*
X132802380Y-147248571D01*
X132802380Y-147343809D01*
X132326190Y-147439047D01*
X133230952Y-147772380D02*
X133230952Y-147105714D01*
X133230952Y-146772380D02*
X133183333Y-146820000D01*
X133230952Y-146867619D01*
X133278571Y-146820000D01*
X133230952Y-146772380D01*
X133230952Y-146867619D01*
X133707142Y-147105714D02*
X133707142Y-147772380D01*
X133707142Y-147200952D02*
X133754761Y-147153333D01*
X133850000Y-147105714D01*
X133992857Y-147105714D01*
X134088095Y-147153333D01*
X134135714Y-147248571D01*
X134135714Y-147772380D01*
X134564285Y-146867619D02*
X134611904Y-146820000D01*
X134707142Y-146772380D01*
X134945238Y-146772380D01*
X135040476Y-146820000D01*
X135088095Y-146867619D01*
X135135714Y-146962857D01*
X135135714Y-147058095D01*
X135088095Y-147200952D01*
X134516666Y-147772380D01*
X135135714Y-147772380D01*
%TO.C,U15*%
X124491904Y-139362380D02*
X124491904Y-140171904D01*
X124539523Y-140267142D01*
X124587142Y-140314761D01*
X124682380Y-140362380D01*
X124872857Y-140362380D01*
X124968095Y-140314761D01*
X125015714Y-140267142D01*
X125063333Y-140171904D01*
X125063333Y-139362380D01*
X126063333Y-140362380D02*
X125491904Y-140362380D01*
X125777619Y-140362380D02*
X125777619Y-139362380D01*
X125682380Y-139505238D01*
X125587142Y-139600476D01*
X125491904Y-139648095D01*
X126968095Y-139362380D02*
X126491904Y-139362380D01*
X126444285Y-139838571D01*
X126491904Y-139790952D01*
X126587142Y-139743333D01*
X126825238Y-139743333D01*
X126920476Y-139790952D01*
X126968095Y-139838571D01*
X127015714Y-139933809D01*
X127015714Y-140171904D01*
X126968095Y-140267142D01*
X126920476Y-140314761D01*
X126825238Y-140362380D01*
X126587142Y-140362380D01*
X126491904Y-140314761D01*
X126444285Y-140267142D01*
%TO.C,U14*%
X104857380Y-164218095D02*
X105666904Y-164218095D01*
X105762142Y-164170476D01*
X105809761Y-164122857D01*
X105857380Y-164027619D01*
X105857380Y-163837142D01*
X105809761Y-163741904D01*
X105762142Y-163694285D01*
X105666904Y-163646666D01*
X104857380Y-163646666D01*
X105857380Y-162646666D02*
X105857380Y-163218095D01*
X105857380Y-162932380D02*
X104857380Y-162932380D01*
X105000238Y-163027619D01*
X105095476Y-163122857D01*
X105143095Y-163218095D01*
X105190714Y-161789523D02*
X105857380Y-161789523D01*
X104809761Y-162027619D02*
X105524047Y-162265714D01*
X105524047Y-161646666D01*
%TO.C,U13*%
X104352380Y-154218095D02*
X105161904Y-154218095D01*
X105257142Y-154170476D01*
X105304761Y-154122857D01*
X105352380Y-154027619D01*
X105352380Y-153837142D01*
X105304761Y-153741904D01*
X105257142Y-153694285D01*
X105161904Y-153646666D01*
X104352380Y-153646666D01*
X105352380Y-152646666D02*
X105352380Y-153218095D01*
X105352380Y-152932380D02*
X104352380Y-152932380D01*
X104495238Y-153027619D01*
X104590476Y-153122857D01*
X104638095Y-153218095D01*
X104352380Y-152313333D02*
X104352380Y-151694285D01*
X104733333Y-152027619D01*
X104733333Y-151884761D01*
X104780952Y-151789523D01*
X104828571Y-151741904D01*
X104923809Y-151694285D01*
X105161904Y-151694285D01*
X105257142Y-151741904D01*
X105304761Y-151789523D01*
X105352380Y-151884761D01*
X105352380Y-152170476D01*
X105304761Y-152265714D01*
X105257142Y-152313333D01*
%TO.C,U12*%
X124491904Y-103802380D02*
X124491904Y-104611904D01*
X124539523Y-104707142D01*
X124587142Y-104754761D01*
X124682380Y-104802380D01*
X124872857Y-104802380D01*
X124968095Y-104754761D01*
X125015714Y-104707142D01*
X125063333Y-104611904D01*
X125063333Y-103802380D01*
X126063333Y-104802380D02*
X125491904Y-104802380D01*
X125777619Y-104802380D02*
X125777619Y-103802380D01*
X125682380Y-103945238D01*
X125587142Y-104040476D01*
X125491904Y-104088095D01*
X126444285Y-103897619D02*
X126491904Y-103850000D01*
X126587142Y-103802380D01*
X126825238Y-103802380D01*
X126920476Y-103850000D01*
X126968095Y-103897619D01*
X127015714Y-103992857D01*
X127015714Y-104088095D01*
X126968095Y-104230952D01*
X126396666Y-104802380D01*
X127015714Y-104802380D01*
%TO.C,U11*%
X104857380Y-128658095D02*
X105666904Y-128658095D01*
X105762142Y-128610476D01*
X105809761Y-128562857D01*
X105857380Y-128467619D01*
X105857380Y-128277142D01*
X105809761Y-128181904D01*
X105762142Y-128134285D01*
X105666904Y-128086666D01*
X104857380Y-128086666D01*
X105857380Y-127086666D02*
X105857380Y-127658095D01*
X105857380Y-127372380D02*
X104857380Y-127372380D01*
X105000238Y-127467619D01*
X105095476Y-127562857D01*
X105143095Y-127658095D01*
X105857380Y-126134285D02*
X105857380Y-126705714D01*
X105857380Y-126420000D02*
X104857380Y-126420000D01*
X105000238Y-126515238D01*
X105095476Y-126610476D01*
X105143095Y-126705714D01*
%TO.C,U10*%
X104352380Y-118658095D02*
X105161904Y-118658095D01*
X105257142Y-118610476D01*
X105304761Y-118562857D01*
X105352380Y-118467619D01*
X105352380Y-118277142D01*
X105304761Y-118181904D01*
X105257142Y-118134285D01*
X105161904Y-118086666D01*
X104352380Y-118086666D01*
X105352380Y-117086666D02*
X105352380Y-117658095D01*
X105352380Y-117372380D02*
X104352380Y-117372380D01*
X104495238Y-117467619D01*
X104590476Y-117562857D01*
X104638095Y-117658095D01*
X104352380Y-116467619D02*
X104352380Y-116372380D01*
X104400000Y-116277142D01*
X104447619Y-116229523D01*
X104542857Y-116181904D01*
X104733333Y-116134285D01*
X104971428Y-116134285D01*
X105161904Y-116181904D01*
X105257142Y-116229523D01*
X105304761Y-116277142D01*
X105352380Y-116372380D01*
X105352380Y-116467619D01*
X105304761Y-116562857D01*
X105257142Y-116610476D01*
X105161904Y-116658095D01*
X104971428Y-116705714D01*
X104733333Y-116705714D01*
X104542857Y-116658095D01*
X104447619Y-116610476D01*
X104400000Y-116562857D01*
X104352380Y-116467619D01*
%TO.C,U9*%
X124968095Y-68242380D02*
X124968095Y-69051904D01*
X125015714Y-69147142D01*
X125063333Y-69194761D01*
X125158571Y-69242380D01*
X125349047Y-69242380D01*
X125444285Y-69194761D01*
X125491904Y-69147142D01*
X125539523Y-69051904D01*
X125539523Y-68242380D01*
X126063333Y-69242380D02*
X126253809Y-69242380D01*
X126349047Y-69194761D01*
X126396666Y-69147142D01*
X126491904Y-69004285D01*
X126539523Y-68813809D01*
X126539523Y-68432857D01*
X126491904Y-68337619D01*
X126444285Y-68290000D01*
X126349047Y-68242380D01*
X126158571Y-68242380D01*
X126063333Y-68290000D01*
X126015714Y-68337619D01*
X125968095Y-68432857D01*
X125968095Y-68670952D01*
X126015714Y-68766190D01*
X126063333Y-68813809D01*
X126158571Y-68861428D01*
X126349047Y-68861428D01*
X126444285Y-68813809D01*
X126491904Y-68766190D01*
X126539523Y-68670952D01*
%TO.C,U8*%
X104857380Y-92621904D02*
X105666904Y-92621904D01*
X105762142Y-92574285D01*
X105809761Y-92526666D01*
X105857380Y-92431428D01*
X105857380Y-92240952D01*
X105809761Y-92145714D01*
X105762142Y-92098095D01*
X105666904Y-92050476D01*
X104857380Y-92050476D01*
X105285952Y-91431428D02*
X105238333Y-91526666D01*
X105190714Y-91574285D01*
X105095476Y-91621904D01*
X105047857Y-91621904D01*
X104952619Y-91574285D01*
X104905000Y-91526666D01*
X104857380Y-91431428D01*
X104857380Y-91240952D01*
X104905000Y-91145714D01*
X104952619Y-91098095D01*
X105047857Y-91050476D01*
X105095476Y-91050476D01*
X105190714Y-91098095D01*
X105238333Y-91145714D01*
X105285952Y-91240952D01*
X105285952Y-91431428D01*
X105333571Y-91526666D01*
X105381190Y-91574285D01*
X105476428Y-91621904D01*
X105666904Y-91621904D01*
X105762142Y-91574285D01*
X105809761Y-91526666D01*
X105857380Y-91431428D01*
X105857380Y-91240952D01*
X105809761Y-91145714D01*
X105762142Y-91098095D01*
X105666904Y-91050476D01*
X105476428Y-91050476D01*
X105381190Y-91098095D01*
X105333571Y-91145714D01*
X105285952Y-91240952D01*
%TO.C,U7*%
X104352380Y-82621904D02*
X105161904Y-82621904D01*
X105257142Y-82574285D01*
X105304761Y-82526666D01*
X105352380Y-82431428D01*
X105352380Y-82240952D01*
X105304761Y-82145714D01*
X105257142Y-82098095D01*
X105161904Y-82050476D01*
X104352380Y-82050476D01*
X104352380Y-81669523D02*
X104352380Y-81002857D01*
X105352380Y-81431428D01*
%TO.C,R64*%
X86652380Y-144812857D02*
X86176190Y-145146190D01*
X86652380Y-145384285D02*
X85652380Y-145384285D01*
X85652380Y-145003333D01*
X85700000Y-144908095D01*
X85747619Y-144860476D01*
X85842857Y-144812857D01*
X85985714Y-144812857D01*
X86080952Y-144860476D01*
X86128571Y-144908095D01*
X86176190Y-145003333D01*
X86176190Y-145384285D01*
X85652380Y-143955714D02*
X85652380Y-144146190D01*
X85700000Y-144241428D01*
X85747619Y-144289047D01*
X85890476Y-144384285D01*
X86080952Y-144431904D01*
X86461904Y-144431904D01*
X86557142Y-144384285D01*
X86604761Y-144336666D01*
X86652380Y-144241428D01*
X86652380Y-144050952D01*
X86604761Y-143955714D01*
X86557142Y-143908095D01*
X86461904Y-143860476D01*
X86223809Y-143860476D01*
X86128571Y-143908095D01*
X86080952Y-143955714D01*
X86033333Y-144050952D01*
X86033333Y-144241428D01*
X86080952Y-144336666D01*
X86128571Y-144384285D01*
X86223809Y-144431904D01*
X85985714Y-143003333D02*
X86652380Y-143003333D01*
X85604761Y-143241428D02*
X86319047Y-143479523D01*
X86319047Y-142860476D01*
%TO.C,R63*%
X89152380Y-144812857D02*
X88676190Y-145146190D01*
X89152380Y-145384285D02*
X88152380Y-145384285D01*
X88152380Y-145003333D01*
X88200000Y-144908095D01*
X88247619Y-144860476D01*
X88342857Y-144812857D01*
X88485714Y-144812857D01*
X88580952Y-144860476D01*
X88628571Y-144908095D01*
X88676190Y-145003333D01*
X88676190Y-145384285D01*
X88152380Y-143955714D02*
X88152380Y-144146190D01*
X88200000Y-144241428D01*
X88247619Y-144289047D01*
X88390476Y-144384285D01*
X88580952Y-144431904D01*
X88961904Y-144431904D01*
X89057142Y-144384285D01*
X89104761Y-144336666D01*
X89152380Y-144241428D01*
X89152380Y-144050952D01*
X89104761Y-143955714D01*
X89057142Y-143908095D01*
X88961904Y-143860476D01*
X88723809Y-143860476D01*
X88628571Y-143908095D01*
X88580952Y-143955714D01*
X88533333Y-144050952D01*
X88533333Y-144241428D01*
X88580952Y-144336666D01*
X88628571Y-144384285D01*
X88723809Y-144431904D01*
X88152380Y-143527142D02*
X88152380Y-142908095D01*
X88533333Y-143241428D01*
X88533333Y-143098571D01*
X88580952Y-143003333D01*
X88628571Y-142955714D01*
X88723809Y-142908095D01*
X88961904Y-142908095D01*
X89057142Y-142955714D01*
X89104761Y-143003333D01*
X89152380Y-143098571D01*
X89152380Y-143384285D01*
X89104761Y-143479523D01*
X89057142Y-143527142D01*
%TO.C,R62*%
X108257142Y-160222380D02*
X107923809Y-159746190D01*
X107685714Y-160222380D02*
X107685714Y-159222380D01*
X108066666Y-159222380D01*
X108161904Y-159270000D01*
X108209523Y-159317619D01*
X108257142Y-159412857D01*
X108257142Y-159555714D01*
X108209523Y-159650952D01*
X108161904Y-159698571D01*
X108066666Y-159746190D01*
X107685714Y-159746190D01*
X109114285Y-159222380D02*
X108923809Y-159222380D01*
X108828571Y-159270000D01*
X108780952Y-159317619D01*
X108685714Y-159460476D01*
X108638095Y-159650952D01*
X108638095Y-160031904D01*
X108685714Y-160127142D01*
X108733333Y-160174761D01*
X108828571Y-160222380D01*
X109019047Y-160222380D01*
X109114285Y-160174761D01*
X109161904Y-160127142D01*
X109209523Y-160031904D01*
X109209523Y-159793809D01*
X109161904Y-159698571D01*
X109114285Y-159650952D01*
X109019047Y-159603333D01*
X108828571Y-159603333D01*
X108733333Y-159650952D01*
X108685714Y-159698571D01*
X108638095Y-159793809D01*
X109590476Y-159317619D02*
X109638095Y-159270000D01*
X109733333Y-159222380D01*
X109971428Y-159222380D01*
X110066666Y-159270000D01*
X110114285Y-159317619D01*
X110161904Y-159412857D01*
X110161904Y-159508095D01*
X110114285Y-159650952D01*
X109542857Y-160222380D01*
X110161904Y-160222380D01*
%TO.C,R61*%
X108257142Y-157722380D02*
X107923809Y-157246190D01*
X107685714Y-157722380D02*
X107685714Y-156722380D01*
X108066666Y-156722380D01*
X108161904Y-156770000D01*
X108209523Y-156817619D01*
X108257142Y-156912857D01*
X108257142Y-157055714D01*
X108209523Y-157150952D01*
X108161904Y-157198571D01*
X108066666Y-157246190D01*
X107685714Y-157246190D01*
X109114285Y-156722380D02*
X108923809Y-156722380D01*
X108828571Y-156770000D01*
X108780952Y-156817619D01*
X108685714Y-156960476D01*
X108638095Y-157150952D01*
X108638095Y-157531904D01*
X108685714Y-157627142D01*
X108733333Y-157674761D01*
X108828571Y-157722380D01*
X109019047Y-157722380D01*
X109114285Y-157674761D01*
X109161904Y-157627142D01*
X109209523Y-157531904D01*
X109209523Y-157293809D01*
X109161904Y-157198571D01*
X109114285Y-157150952D01*
X109019047Y-157103333D01*
X108828571Y-157103333D01*
X108733333Y-157150952D01*
X108685714Y-157198571D01*
X108638095Y-157293809D01*
X110161904Y-157722380D02*
X109590476Y-157722380D01*
X109876190Y-157722380D02*
X109876190Y-156722380D01*
X109780952Y-156865238D01*
X109685714Y-156960476D01*
X109590476Y-157008095D01*
%TO.C,R60*%
X108257142Y-155122380D02*
X107923809Y-154646190D01*
X107685714Y-155122380D02*
X107685714Y-154122380D01*
X108066666Y-154122380D01*
X108161904Y-154170000D01*
X108209523Y-154217619D01*
X108257142Y-154312857D01*
X108257142Y-154455714D01*
X108209523Y-154550952D01*
X108161904Y-154598571D01*
X108066666Y-154646190D01*
X107685714Y-154646190D01*
X109114285Y-154122380D02*
X108923809Y-154122380D01*
X108828571Y-154170000D01*
X108780952Y-154217619D01*
X108685714Y-154360476D01*
X108638095Y-154550952D01*
X108638095Y-154931904D01*
X108685714Y-155027142D01*
X108733333Y-155074761D01*
X108828571Y-155122380D01*
X109019047Y-155122380D01*
X109114285Y-155074761D01*
X109161904Y-155027142D01*
X109209523Y-154931904D01*
X109209523Y-154693809D01*
X109161904Y-154598571D01*
X109114285Y-154550952D01*
X109019047Y-154503333D01*
X108828571Y-154503333D01*
X108733333Y-154550952D01*
X108685714Y-154598571D01*
X108638095Y-154693809D01*
X109828571Y-154122380D02*
X109923809Y-154122380D01*
X110019047Y-154170000D01*
X110066666Y-154217619D01*
X110114285Y-154312857D01*
X110161904Y-154503333D01*
X110161904Y-154741428D01*
X110114285Y-154931904D01*
X110066666Y-155027142D01*
X110019047Y-155074761D01*
X109923809Y-155122380D01*
X109828571Y-155122380D01*
X109733333Y-155074761D01*
X109685714Y-155027142D01*
X109638095Y-154931904D01*
X109590476Y-154741428D01*
X109590476Y-154503333D01*
X109638095Y-154312857D01*
X109685714Y-154217619D01*
X109733333Y-154170000D01*
X109828571Y-154122380D01*
%TO.C,R59*%
X108257142Y-152622380D02*
X107923809Y-152146190D01*
X107685714Y-152622380D02*
X107685714Y-151622380D01*
X108066666Y-151622380D01*
X108161904Y-151670000D01*
X108209523Y-151717619D01*
X108257142Y-151812857D01*
X108257142Y-151955714D01*
X108209523Y-152050952D01*
X108161904Y-152098571D01*
X108066666Y-152146190D01*
X107685714Y-152146190D01*
X109161904Y-151622380D02*
X108685714Y-151622380D01*
X108638095Y-152098571D01*
X108685714Y-152050952D01*
X108780952Y-152003333D01*
X109019047Y-152003333D01*
X109114285Y-152050952D01*
X109161904Y-152098571D01*
X109209523Y-152193809D01*
X109209523Y-152431904D01*
X109161904Y-152527142D01*
X109114285Y-152574761D01*
X109019047Y-152622380D01*
X108780952Y-152622380D01*
X108685714Y-152574761D01*
X108638095Y-152527142D01*
X109685714Y-152622380D02*
X109876190Y-152622380D01*
X109971428Y-152574761D01*
X110019047Y-152527142D01*
X110114285Y-152384285D01*
X110161904Y-152193809D01*
X110161904Y-151812857D01*
X110114285Y-151717619D01*
X110066666Y-151670000D01*
X109971428Y-151622380D01*
X109780952Y-151622380D01*
X109685714Y-151670000D01*
X109638095Y-151717619D01*
X109590476Y-151812857D01*
X109590476Y-152050952D01*
X109638095Y-152146190D01*
X109685714Y-152193809D01*
X109780952Y-152241428D01*
X109971428Y-152241428D01*
X110066666Y-152193809D01*
X110114285Y-152146190D01*
X110161904Y-152050952D01*
%TO.C,R58*%
X108257142Y-150022380D02*
X107923809Y-149546190D01*
X107685714Y-150022380D02*
X107685714Y-149022380D01*
X108066666Y-149022380D01*
X108161904Y-149070000D01*
X108209523Y-149117619D01*
X108257142Y-149212857D01*
X108257142Y-149355714D01*
X108209523Y-149450952D01*
X108161904Y-149498571D01*
X108066666Y-149546190D01*
X107685714Y-149546190D01*
X109161904Y-149022380D02*
X108685714Y-149022380D01*
X108638095Y-149498571D01*
X108685714Y-149450952D01*
X108780952Y-149403333D01*
X109019047Y-149403333D01*
X109114285Y-149450952D01*
X109161904Y-149498571D01*
X109209523Y-149593809D01*
X109209523Y-149831904D01*
X109161904Y-149927142D01*
X109114285Y-149974761D01*
X109019047Y-150022380D01*
X108780952Y-150022380D01*
X108685714Y-149974761D01*
X108638095Y-149927142D01*
X109780952Y-149450952D02*
X109685714Y-149403333D01*
X109638095Y-149355714D01*
X109590476Y-149260476D01*
X109590476Y-149212857D01*
X109638095Y-149117619D01*
X109685714Y-149070000D01*
X109780952Y-149022380D01*
X109971428Y-149022380D01*
X110066666Y-149070000D01*
X110114285Y-149117619D01*
X110161904Y-149212857D01*
X110161904Y-149260476D01*
X110114285Y-149355714D01*
X110066666Y-149403333D01*
X109971428Y-149450952D01*
X109780952Y-149450952D01*
X109685714Y-149498571D01*
X109638095Y-149546190D01*
X109590476Y-149641428D01*
X109590476Y-149831904D01*
X109638095Y-149927142D01*
X109685714Y-149974761D01*
X109780952Y-150022380D01*
X109971428Y-150022380D01*
X110066666Y-149974761D01*
X110114285Y-149927142D01*
X110161904Y-149831904D01*
X110161904Y-149641428D01*
X110114285Y-149546190D01*
X110066666Y-149498571D01*
X109971428Y-149450952D01*
%TO.C,R57*%
X108257142Y-147622380D02*
X107923809Y-147146190D01*
X107685714Y-147622380D02*
X107685714Y-146622380D01*
X108066666Y-146622380D01*
X108161904Y-146670000D01*
X108209523Y-146717619D01*
X108257142Y-146812857D01*
X108257142Y-146955714D01*
X108209523Y-147050952D01*
X108161904Y-147098571D01*
X108066666Y-147146190D01*
X107685714Y-147146190D01*
X109161904Y-146622380D02*
X108685714Y-146622380D01*
X108638095Y-147098571D01*
X108685714Y-147050952D01*
X108780952Y-147003333D01*
X109019047Y-147003333D01*
X109114285Y-147050952D01*
X109161904Y-147098571D01*
X109209523Y-147193809D01*
X109209523Y-147431904D01*
X109161904Y-147527142D01*
X109114285Y-147574761D01*
X109019047Y-147622380D01*
X108780952Y-147622380D01*
X108685714Y-147574761D01*
X108638095Y-147527142D01*
X109542857Y-146622380D02*
X110209523Y-146622380D01*
X109780952Y-147622380D01*
%TO.C,R56*%
X108257142Y-145022380D02*
X107923809Y-144546190D01*
X107685714Y-145022380D02*
X107685714Y-144022380D01*
X108066666Y-144022380D01*
X108161904Y-144070000D01*
X108209523Y-144117619D01*
X108257142Y-144212857D01*
X108257142Y-144355714D01*
X108209523Y-144450952D01*
X108161904Y-144498571D01*
X108066666Y-144546190D01*
X107685714Y-144546190D01*
X109161904Y-144022380D02*
X108685714Y-144022380D01*
X108638095Y-144498571D01*
X108685714Y-144450952D01*
X108780952Y-144403333D01*
X109019047Y-144403333D01*
X109114285Y-144450952D01*
X109161904Y-144498571D01*
X109209523Y-144593809D01*
X109209523Y-144831904D01*
X109161904Y-144927142D01*
X109114285Y-144974761D01*
X109019047Y-145022380D01*
X108780952Y-145022380D01*
X108685714Y-144974761D01*
X108638095Y-144927142D01*
X110066666Y-144022380D02*
X109876190Y-144022380D01*
X109780952Y-144070000D01*
X109733333Y-144117619D01*
X109638095Y-144260476D01*
X109590476Y-144450952D01*
X109590476Y-144831904D01*
X109638095Y-144927142D01*
X109685714Y-144974761D01*
X109780952Y-145022380D01*
X109971428Y-145022380D01*
X110066666Y-144974761D01*
X110114285Y-144927142D01*
X110161904Y-144831904D01*
X110161904Y-144593809D01*
X110114285Y-144498571D01*
X110066666Y-144450952D01*
X109971428Y-144403333D01*
X109780952Y-144403333D01*
X109685714Y-144450952D01*
X109638095Y-144498571D01*
X109590476Y-144593809D01*
%TO.C,R55*%
X108257142Y-142422380D02*
X107923809Y-141946190D01*
X107685714Y-142422380D02*
X107685714Y-141422380D01*
X108066666Y-141422380D01*
X108161904Y-141470000D01*
X108209523Y-141517619D01*
X108257142Y-141612857D01*
X108257142Y-141755714D01*
X108209523Y-141850952D01*
X108161904Y-141898571D01*
X108066666Y-141946190D01*
X107685714Y-141946190D01*
X109161904Y-141422380D02*
X108685714Y-141422380D01*
X108638095Y-141898571D01*
X108685714Y-141850952D01*
X108780952Y-141803333D01*
X109019047Y-141803333D01*
X109114285Y-141850952D01*
X109161904Y-141898571D01*
X109209523Y-141993809D01*
X109209523Y-142231904D01*
X109161904Y-142327142D01*
X109114285Y-142374761D01*
X109019047Y-142422380D01*
X108780952Y-142422380D01*
X108685714Y-142374761D01*
X108638095Y-142327142D01*
X110114285Y-141422380D02*
X109638095Y-141422380D01*
X109590476Y-141898571D01*
X109638095Y-141850952D01*
X109733333Y-141803333D01*
X109971428Y-141803333D01*
X110066666Y-141850952D01*
X110114285Y-141898571D01*
X110161904Y-141993809D01*
X110161904Y-142231904D01*
X110114285Y-142327142D01*
X110066666Y-142374761D01*
X109971428Y-142422380D01*
X109733333Y-142422380D01*
X109638095Y-142374761D01*
X109590476Y-142327142D01*
%TO.C,R54*%
X91752380Y-144612857D02*
X91276190Y-144946190D01*
X91752380Y-145184285D02*
X90752380Y-145184285D01*
X90752380Y-144803333D01*
X90800000Y-144708095D01*
X90847619Y-144660476D01*
X90942857Y-144612857D01*
X91085714Y-144612857D01*
X91180952Y-144660476D01*
X91228571Y-144708095D01*
X91276190Y-144803333D01*
X91276190Y-145184285D01*
X90752380Y-143708095D02*
X90752380Y-144184285D01*
X91228571Y-144231904D01*
X91180952Y-144184285D01*
X91133333Y-144089047D01*
X91133333Y-143850952D01*
X91180952Y-143755714D01*
X91228571Y-143708095D01*
X91323809Y-143660476D01*
X91561904Y-143660476D01*
X91657142Y-143708095D01*
X91704761Y-143755714D01*
X91752380Y-143850952D01*
X91752380Y-144089047D01*
X91704761Y-144184285D01*
X91657142Y-144231904D01*
X91085714Y-142803333D02*
X91752380Y-142803333D01*
X90704761Y-143041428D02*
X91419047Y-143279523D01*
X91419047Y-142660476D01*
%TO.C,R53*%
X94352380Y-144812857D02*
X93876190Y-145146190D01*
X94352380Y-145384285D02*
X93352380Y-145384285D01*
X93352380Y-145003333D01*
X93400000Y-144908095D01*
X93447619Y-144860476D01*
X93542857Y-144812857D01*
X93685714Y-144812857D01*
X93780952Y-144860476D01*
X93828571Y-144908095D01*
X93876190Y-145003333D01*
X93876190Y-145384285D01*
X93352380Y-143908095D02*
X93352380Y-144384285D01*
X93828571Y-144431904D01*
X93780952Y-144384285D01*
X93733333Y-144289047D01*
X93733333Y-144050952D01*
X93780952Y-143955714D01*
X93828571Y-143908095D01*
X93923809Y-143860476D01*
X94161904Y-143860476D01*
X94257142Y-143908095D01*
X94304761Y-143955714D01*
X94352380Y-144050952D01*
X94352380Y-144289047D01*
X94304761Y-144384285D01*
X94257142Y-144431904D01*
X93352380Y-143527142D02*
X93352380Y-142908095D01*
X93733333Y-143241428D01*
X93733333Y-143098571D01*
X93780952Y-143003333D01*
X93828571Y-142955714D01*
X93923809Y-142908095D01*
X94161904Y-142908095D01*
X94257142Y-142955714D01*
X94304761Y-143003333D01*
X94352380Y-143098571D01*
X94352380Y-143384285D01*
X94304761Y-143479523D01*
X94257142Y-143527142D01*
%TO.C,R52*%
X96852380Y-144812857D02*
X96376190Y-145146190D01*
X96852380Y-145384285D02*
X95852380Y-145384285D01*
X95852380Y-145003333D01*
X95900000Y-144908095D01*
X95947619Y-144860476D01*
X96042857Y-144812857D01*
X96185714Y-144812857D01*
X96280952Y-144860476D01*
X96328571Y-144908095D01*
X96376190Y-145003333D01*
X96376190Y-145384285D01*
X95852380Y-143908095D02*
X95852380Y-144384285D01*
X96328571Y-144431904D01*
X96280952Y-144384285D01*
X96233333Y-144289047D01*
X96233333Y-144050952D01*
X96280952Y-143955714D01*
X96328571Y-143908095D01*
X96423809Y-143860476D01*
X96661904Y-143860476D01*
X96757142Y-143908095D01*
X96804761Y-143955714D01*
X96852380Y-144050952D01*
X96852380Y-144289047D01*
X96804761Y-144384285D01*
X96757142Y-144431904D01*
X95947619Y-143479523D02*
X95900000Y-143431904D01*
X95852380Y-143336666D01*
X95852380Y-143098571D01*
X95900000Y-143003333D01*
X95947619Y-142955714D01*
X96042857Y-142908095D01*
X96138095Y-142908095D01*
X96280952Y-142955714D01*
X96852380Y-143527142D01*
X96852380Y-142908095D01*
%TO.C,R51*%
X99352380Y-144812857D02*
X98876190Y-145146190D01*
X99352380Y-145384285D02*
X98352380Y-145384285D01*
X98352380Y-145003333D01*
X98400000Y-144908095D01*
X98447619Y-144860476D01*
X98542857Y-144812857D01*
X98685714Y-144812857D01*
X98780952Y-144860476D01*
X98828571Y-144908095D01*
X98876190Y-145003333D01*
X98876190Y-145384285D01*
X98352380Y-143908095D02*
X98352380Y-144384285D01*
X98828571Y-144431904D01*
X98780952Y-144384285D01*
X98733333Y-144289047D01*
X98733333Y-144050952D01*
X98780952Y-143955714D01*
X98828571Y-143908095D01*
X98923809Y-143860476D01*
X99161904Y-143860476D01*
X99257142Y-143908095D01*
X99304761Y-143955714D01*
X99352380Y-144050952D01*
X99352380Y-144289047D01*
X99304761Y-144384285D01*
X99257142Y-144431904D01*
X99352380Y-142908095D02*
X99352380Y-143479523D01*
X99352380Y-143193809D02*
X98352380Y-143193809D01*
X98495238Y-143289047D01*
X98590476Y-143384285D01*
X98638095Y-143479523D01*
%TO.C,R50*%
X101852380Y-144752857D02*
X101376190Y-145086190D01*
X101852380Y-145324285D02*
X100852380Y-145324285D01*
X100852380Y-144943333D01*
X100900000Y-144848095D01*
X100947619Y-144800476D01*
X101042857Y-144752857D01*
X101185714Y-144752857D01*
X101280952Y-144800476D01*
X101328571Y-144848095D01*
X101376190Y-144943333D01*
X101376190Y-145324285D01*
X100852380Y-143848095D02*
X100852380Y-144324285D01*
X101328571Y-144371904D01*
X101280952Y-144324285D01*
X101233333Y-144229047D01*
X101233333Y-143990952D01*
X101280952Y-143895714D01*
X101328571Y-143848095D01*
X101423809Y-143800476D01*
X101661904Y-143800476D01*
X101757142Y-143848095D01*
X101804761Y-143895714D01*
X101852380Y-143990952D01*
X101852380Y-144229047D01*
X101804761Y-144324285D01*
X101757142Y-144371904D01*
X100852380Y-143181428D02*
X100852380Y-143086190D01*
X100900000Y-142990952D01*
X100947619Y-142943333D01*
X101042857Y-142895714D01*
X101233333Y-142848095D01*
X101471428Y-142848095D01*
X101661904Y-142895714D01*
X101757142Y-142943333D01*
X101804761Y-142990952D01*
X101852380Y-143086190D01*
X101852380Y-143181428D01*
X101804761Y-143276666D01*
X101757142Y-143324285D01*
X101661904Y-143371904D01*
X101471428Y-143419523D01*
X101233333Y-143419523D01*
X101042857Y-143371904D01*
X100947619Y-143324285D01*
X100900000Y-143276666D01*
X100852380Y-143181428D01*
%TO.C,R49*%
X104452380Y-144752857D02*
X103976190Y-145086190D01*
X104452380Y-145324285D02*
X103452380Y-145324285D01*
X103452380Y-144943333D01*
X103500000Y-144848095D01*
X103547619Y-144800476D01*
X103642857Y-144752857D01*
X103785714Y-144752857D01*
X103880952Y-144800476D01*
X103928571Y-144848095D01*
X103976190Y-144943333D01*
X103976190Y-145324285D01*
X103785714Y-143895714D02*
X104452380Y-143895714D01*
X103404761Y-144133809D02*
X104119047Y-144371904D01*
X104119047Y-143752857D01*
X104452380Y-143324285D02*
X104452380Y-143133809D01*
X104404761Y-143038571D01*
X104357142Y-142990952D01*
X104214285Y-142895714D01*
X104023809Y-142848095D01*
X103642857Y-142848095D01*
X103547619Y-142895714D01*
X103500000Y-142943333D01*
X103452380Y-143038571D01*
X103452380Y-143229047D01*
X103500000Y-143324285D01*
X103547619Y-143371904D01*
X103642857Y-143419523D01*
X103880952Y-143419523D01*
X103976190Y-143371904D01*
X104023809Y-143324285D01*
X104071428Y-143229047D01*
X104071428Y-143038571D01*
X104023809Y-142943333D01*
X103976190Y-142895714D01*
X103880952Y-142848095D01*
%TO.C,R48*%
X86652380Y-109252857D02*
X86176190Y-109586190D01*
X86652380Y-109824285D02*
X85652380Y-109824285D01*
X85652380Y-109443333D01*
X85700000Y-109348095D01*
X85747619Y-109300476D01*
X85842857Y-109252857D01*
X85985714Y-109252857D01*
X86080952Y-109300476D01*
X86128571Y-109348095D01*
X86176190Y-109443333D01*
X86176190Y-109824285D01*
X85985714Y-108395714D02*
X86652380Y-108395714D01*
X85604761Y-108633809D02*
X86319047Y-108871904D01*
X86319047Y-108252857D01*
X86080952Y-107729047D02*
X86033333Y-107824285D01*
X85985714Y-107871904D01*
X85890476Y-107919523D01*
X85842857Y-107919523D01*
X85747619Y-107871904D01*
X85700000Y-107824285D01*
X85652380Y-107729047D01*
X85652380Y-107538571D01*
X85700000Y-107443333D01*
X85747619Y-107395714D01*
X85842857Y-107348095D01*
X85890476Y-107348095D01*
X85985714Y-107395714D01*
X86033333Y-107443333D01*
X86080952Y-107538571D01*
X86080952Y-107729047D01*
X86128571Y-107824285D01*
X86176190Y-107871904D01*
X86271428Y-107919523D01*
X86461904Y-107919523D01*
X86557142Y-107871904D01*
X86604761Y-107824285D01*
X86652380Y-107729047D01*
X86652380Y-107538571D01*
X86604761Y-107443333D01*
X86557142Y-107395714D01*
X86461904Y-107348095D01*
X86271428Y-107348095D01*
X86176190Y-107395714D01*
X86128571Y-107443333D01*
X86080952Y-107538571D01*
%TO.C,R47*%
X89152380Y-109252857D02*
X88676190Y-109586190D01*
X89152380Y-109824285D02*
X88152380Y-109824285D01*
X88152380Y-109443333D01*
X88200000Y-109348095D01*
X88247619Y-109300476D01*
X88342857Y-109252857D01*
X88485714Y-109252857D01*
X88580952Y-109300476D01*
X88628571Y-109348095D01*
X88676190Y-109443333D01*
X88676190Y-109824285D01*
X88485714Y-108395714D02*
X89152380Y-108395714D01*
X88104761Y-108633809D02*
X88819047Y-108871904D01*
X88819047Y-108252857D01*
X88152380Y-107967142D02*
X88152380Y-107300476D01*
X89152380Y-107729047D01*
%TO.C,R46*%
X108257142Y-124662380D02*
X107923809Y-124186190D01*
X107685714Y-124662380D02*
X107685714Y-123662380D01*
X108066666Y-123662380D01*
X108161904Y-123710000D01*
X108209523Y-123757619D01*
X108257142Y-123852857D01*
X108257142Y-123995714D01*
X108209523Y-124090952D01*
X108161904Y-124138571D01*
X108066666Y-124186190D01*
X107685714Y-124186190D01*
X109114285Y-123995714D02*
X109114285Y-124662380D01*
X108876190Y-123614761D02*
X108638095Y-124329047D01*
X109257142Y-124329047D01*
X110066666Y-123662380D02*
X109876190Y-123662380D01*
X109780952Y-123710000D01*
X109733333Y-123757619D01*
X109638095Y-123900476D01*
X109590476Y-124090952D01*
X109590476Y-124471904D01*
X109638095Y-124567142D01*
X109685714Y-124614761D01*
X109780952Y-124662380D01*
X109971428Y-124662380D01*
X110066666Y-124614761D01*
X110114285Y-124567142D01*
X110161904Y-124471904D01*
X110161904Y-124233809D01*
X110114285Y-124138571D01*
X110066666Y-124090952D01*
X109971428Y-124043333D01*
X109780952Y-124043333D01*
X109685714Y-124090952D01*
X109638095Y-124138571D01*
X109590476Y-124233809D01*
%TO.C,R45*%
X108257142Y-122162380D02*
X107923809Y-121686190D01*
X107685714Y-122162380D02*
X107685714Y-121162380D01*
X108066666Y-121162380D01*
X108161904Y-121210000D01*
X108209523Y-121257619D01*
X108257142Y-121352857D01*
X108257142Y-121495714D01*
X108209523Y-121590952D01*
X108161904Y-121638571D01*
X108066666Y-121686190D01*
X107685714Y-121686190D01*
X109114285Y-121495714D02*
X109114285Y-122162380D01*
X108876190Y-121114761D02*
X108638095Y-121829047D01*
X109257142Y-121829047D01*
X110114285Y-121162380D02*
X109638095Y-121162380D01*
X109590476Y-121638571D01*
X109638095Y-121590952D01*
X109733333Y-121543333D01*
X109971428Y-121543333D01*
X110066666Y-121590952D01*
X110114285Y-121638571D01*
X110161904Y-121733809D01*
X110161904Y-121971904D01*
X110114285Y-122067142D01*
X110066666Y-122114761D01*
X109971428Y-122162380D01*
X109733333Y-122162380D01*
X109638095Y-122114761D01*
X109590476Y-122067142D01*
%TO.C,R44*%
X108257142Y-119562380D02*
X107923809Y-119086190D01*
X107685714Y-119562380D02*
X107685714Y-118562380D01*
X108066666Y-118562380D01*
X108161904Y-118610000D01*
X108209523Y-118657619D01*
X108257142Y-118752857D01*
X108257142Y-118895714D01*
X108209523Y-118990952D01*
X108161904Y-119038571D01*
X108066666Y-119086190D01*
X107685714Y-119086190D01*
X109114285Y-118895714D02*
X109114285Y-119562380D01*
X108876190Y-118514761D02*
X108638095Y-119229047D01*
X109257142Y-119229047D01*
X110066666Y-118895714D02*
X110066666Y-119562380D01*
X109828571Y-118514761D02*
X109590476Y-119229047D01*
X110209523Y-119229047D01*
%TO.C,R43*%
X108257142Y-117062380D02*
X107923809Y-116586190D01*
X107685714Y-117062380D02*
X107685714Y-116062380D01*
X108066666Y-116062380D01*
X108161904Y-116110000D01*
X108209523Y-116157619D01*
X108257142Y-116252857D01*
X108257142Y-116395714D01*
X108209523Y-116490952D01*
X108161904Y-116538571D01*
X108066666Y-116586190D01*
X107685714Y-116586190D01*
X109114285Y-116395714D02*
X109114285Y-117062380D01*
X108876190Y-116014761D02*
X108638095Y-116729047D01*
X109257142Y-116729047D01*
X109542857Y-116062380D02*
X110161904Y-116062380D01*
X109828571Y-116443333D01*
X109971428Y-116443333D01*
X110066666Y-116490952D01*
X110114285Y-116538571D01*
X110161904Y-116633809D01*
X110161904Y-116871904D01*
X110114285Y-116967142D01*
X110066666Y-117014761D01*
X109971428Y-117062380D01*
X109685714Y-117062380D01*
X109590476Y-117014761D01*
X109542857Y-116967142D01*
%TO.C,R42*%
X108257142Y-114462380D02*
X107923809Y-113986190D01*
X107685714Y-114462380D02*
X107685714Y-113462380D01*
X108066666Y-113462380D01*
X108161904Y-113510000D01*
X108209523Y-113557619D01*
X108257142Y-113652857D01*
X108257142Y-113795714D01*
X108209523Y-113890952D01*
X108161904Y-113938571D01*
X108066666Y-113986190D01*
X107685714Y-113986190D01*
X109114285Y-113795714D02*
X109114285Y-114462380D01*
X108876190Y-113414761D02*
X108638095Y-114129047D01*
X109257142Y-114129047D01*
X109590476Y-113557619D02*
X109638095Y-113510000D01*
X109733333Y-113462380D01*
X109971428Y-113462380D01*
X110066666Y-113510000D01*
X110114285Y-113557619D01*
X110161904Y-113652857D01*
X110161904Y-113748095D01*
X110114285Y-113890952D01*
X109542857Y-114462380D01*
X110161904Y-114462380D01*
%TO.C,R41*%
X108257142Y-112062380D02*
X107923809Y-111586190D01*
X107685714Y-112062380D02*
X107685714Y-111062380D01*
X108066666Y-111062380D01*
X108161904Y-111110000D01*
X108209523Y-111157619D01*
X108257142Y-111252857D01*
X108257142Y-111395714D01*
X108209523Y-111490952D01*
X108161904Y-111538571D01*
X108066666Y-111586190D01*
X107685714Y-111586190D01*
X109114285Y-111395714D02*
X109114285Y-112062380D01*
X108876190Y-111014761D02*
X108638095Y-111729047D01*
X109257142Y-111729047D01*
X110161904Y-112062380D02*
X109590476Y-112062380D01*
X109876190Y-112062380D02*
X109876190Y-111062380D01*
X109780952Y-111205238D01*
X109685714Y-111300476D01*
X109590476Y-111348095D01*
%TO.C,R40*%
X108257142Y-109462380D02*
X107923809Y-108986190D01*
X107685714Y-109462380D02*
X107685714Y-108462380D01*
X108066666Y-108462380D01*
X108161904Y-108510000D01*
X108209523Y-108557619D01*
X108257142Y-108652857D01*
X108257142Y-108795714D01*
X108209523Y-108890952D01*
X108161904Y-108938571D01*
X108066666Y-108986190D01*
X107685714Y-108986190D01*
X109114285Y-108795714D02*
X109114285Y-109462380D01*
X108876190Y-108414761D02*
X108638095Y-109129047D01*
X109257142Y-109129047D01*
X109828571Y-108462380D02*
X109923809Y-108462380D01*
X110019047Y-108510000D01*
X110066666Y-108557619D01*
X110114285Y-108652857D01*
X110161904Y-108843333D01*
X110161904Y-109081428D01*
X110114285Y-109271904D01*
X110066666Y-109367142D01*
X110019047Y-109414761D01*
X109923809Y-109462380D01*
X109828571Y-109462380D01*
X109733333Y-109414761D01*
X109685714Y-109367142D01*
X109638095Y-109271904D01*
X109590476Y-109081428D01*
X109590476Y-108843333D01*
X109638095Y-108652857D01*
X109685714Y-108557619D01*
X109733333Y-108510000D01*
X109828571Y-108462380D01*
%TO.C,R39*%
X108257142Y-106862380D02*
X107923809Y-106386190D01*
X107685714Y-106862380D02*
X107685714Y-105862380D01*
X108066666Y-105862380D01*
X108161904Y-105910000D01*
X108209523Y-105957619D01*
X108257142Y-106052857D01*
X108257142Y-106195714D01*
X108209523Y-106290952D01*
X108161904Y-106338571D01*
X108066666Y-106386190D01*
X107685714Y-106386190D01*
X108590476Y-105862380D02*
X109209523Y-105862380D01*
X108876190Y-106243333D01*
X109019047Y-106243333D01*
X109114285Y-106290952D01*
X109161904Y-106338571D01*
X109209523Y-106433809D01*
X109209523Y-106671904D01*
X109161904Y-106767142D01*
X109114285Y-106814761D01*
X109019047Y-106862380D01*
X108733333Y-106862380D01*
X108638095Y-106814761D01*
X108590476Y-106767142D01*
X109685714Y-106862380D02*
X109876190Y-106862380D01*
X109971428Y-106814761D01*
X110019047Y-106767142D01*
X110114285Y-106624285D01*
X110161904Y-106433809D01*
X110161904Y-106052857D01*
X110114285Y-105957619D01*
X110066666Y-105910000D01*
X109971428Y-105862380D01*
X109780952Y-105862380D01*
X109685714Y-105910000D01*
X109638095Y-105957619D01*
X109590476Y-106052857D01*
X109590476Y-106290952D01*
X109638095Y-106386190D01*
X109685714Y-106433809D01*
X109780952Y-106481428D01*
X109971428Y-106481428D01*
X110066666Y-106433809D01*
X110114285Y-106386190D01*
X110161904Y-106290952D01*
%TO.C,R38*%
X91752380Y-109052857D02*
X91276190Y-109386190D01*
X91752380Y-109624285D02*
X90752380Y-109624285D01*
X90752380Y-109243333D01*
X90800000Y-109148095D01*
X90847619Y-109100476D01*
X90942857Y-109052857D01*
X91085714Y-109052857D01*
X91180952Y-109100476D01*
X91228571Y-109148095D01*
X91276190Y-109243333D01*
X91276190Y-109624285D01*
X90752380Y-108719523D02*
X90752380Y-108100476D01*
X91133333Y-108433809D01*
X91133333Y-108290952D01*
X91180952Y-108195714D01*
X91228571Y-108148095D01*
X91323809Y-108100476D01*
X91561904Y-108100476D01*
X91657142Y-108148095D01*
X91704761Y-108195714D01*
X91752380Y-108290952D01*
X91752380Y-108576666D01*
X91704761Y-108671904D01*
X91657142Y-108719523D01*
X91180952Y-107529047D02*
X91133333Y-107624285D01*
X91085714Y-107671904D01*
X90990476Y-107719523D01*
X90942857Y-107719523D01*
X90847619Y-107671904D01*
X90800000Y-107624285D01*
X90752380Y-107529047D01*
X90752380Y-107338571D01*
X90800000Y-107243333D01*
X90847619Y-107195714D01*
X90942857Y-107148095D01*
X90990476Y-107148095D01*
X91085714Y-107195714D01*
X91133333Y-107243333D01*
X91180952Y-107338571D01*
X91180952Y-107529047D01*
X91228571Y-107624285D01*
X91276190Y-107671904D01*
X91371428Y-107719523D01*
X91561904Y-107719523D01*
X91657142Y-107671904D01*
X91704761Y-107624285D01*
X91752380Y-107529047D01*
X91752380Y-107338571D01*
X91704761Y-107243333D01*
X91657142Y-107195714D01*
X91561904Y-107148095D01*
X91371428Y-107148095D01*
X91276190Y-107195714D01*
X91228571Y-107243333D01*
X91180952Y-107338571D01*
%TO.C,R37*%
X94352380Y-109252857D02*
X93876190Y-109586190D01*
X94352380Y-109824285D02*
X93352380Y-109824285D01*
X93352380Y-109443333D01*
X93400000Y-109348095D01*
X93447619Y-109300476D01*
X93542857Y-109252857D01*
X93685714Y-109252857D01*
X93780952Y-109300476D01*
X93828571Y-109348095D01*
X93876190Y-109443333D01*
X93876190Y-109824285D01*
X93352380Y-108919523D02*
X93352380Y-108300476D01*
X93733333Y-108633809D01*
X93733333Y-108490952D01*
X93780952Y-108395714D01*
X93828571Y-108348095D01*
X93923809Y-108300476D01*
X94161904Y-108300476D01*
X94257142Y-108348095D01*
X94304761Y-108395714D01*
X94352380Y-108490952D01*
X94352380Y-108776666D01*
X94304761Y-108871904D01*
X94257142Y-108919523D01*
X93352380Y-107967142D02*
X93352380Y-107300476D01*
X94352380Y-107729047D01*
%TO.C,R36*%
X96852380Y-109252857D02*
X96376190Y-109586190D01*
X96852380Y-109824285D02*
X95852380Y-109824285D01*
X95852380Y-109443333D01*
X95900000Y-109348095D01*
X95947619Y-109300476D01*
X96042857Y-109252857D01*
X96185714Y-109252857D01*
X96280952Y-109300476D01*
X96328571Y-109348095D01*
X96376190Y-109443333D01*
X96376190Y-109824285D01*
X95852380Y-108919523D02*
X95852380Y-108300476D01*
X96233333Y-108633809D01*
X96233333Y-108490952D01*
X96280952Y-108395714D01*
X96328571Y-108348095D01*
X96423809Y-108300476D01*
X96661904Y-108300476D01*
X96757142Y-108348095D01*
X96804761Y-108395714D01*
X96852380Y-108490952D01*
X96852380Y-108776666D01*
X96804761Y-108871904D01*
X96757142Y-108919523D01*
X95852380Y-107443333D02*
X95852380Y-107633809D01*
X95900000Y-107729047D01*
X95947619Y-107776666D01*
X96090476Y-107871904D01*
X96280952Y-107919523D01*
X96661904Y-107919523D01*
X96757142Y-107871904D01*
X96804761Y-107824285D01*
X96852380Y-107729047D01*
X96852380Y-107538571D01*
X96804761Y-107443333D01*
X96757142Y-107395714D01*
X96661904Y-107348095D01*
X96423809Y-107348095D01*
X96328571Y-107395714D01*
X96280952Y-107443333D01*
X96233333Y-107538571D01*
X96233333Y-107729047D01*
X96280952Y-107824285D01*
X96328571Y-107871904D01*
X96423809Y-107919523D01*
%TO.C,R35*%
X99352380Y-109252857D02*
X98876190Y-109586190D01*
X99352380Y-109824285D02*
X98352380Y-109824285D01*
X98352380Y-109443333D01*
X98400000Y-109348095D01*
X98447619Y-109300476D01*
X98542857Y-109252857D01*
X98685714Y-109252857D01*
X98780952Y-109300476D01*
X98828571Y-109348095D01*
X98876190Y-109443333D01*
X98876190Y-109824285D01*
X98352380Y-108919523D02*
X98352380Y-108300476D01*
X98733333Y-108633809D01*
X98733333Y-108490952D01*
X98780952Y-108395714D01*
X98828571Y-108348095D01*
X98923809Y-108300476D01*
X99161904Y-108300476D01*
X99257142Y-108348095D01*
X99304761Y-108395714D01*
X99352380Y-108490952D01*
X99352380Y-108776666D01*
X99304761Y-108871904D01*
X99257142Y-108919523D01*
X98352380Y-107395714D02*
X98352380Y-107871904D01*
X98828571Y-107919523D01*
X98780952Y-107871904D01*
X98733333Y-107776666D01*
X98733333Y-107538571D01*
X98780952Y-107443333D01*
X98828571Y-107395714D01*
X98923809Y-107348095D01*
X99161904Y-107348095D01*
X99257142Y-107395714D01*
X99304761Y-107443333D01*
X99352380Y-107538571D01*
X99352380Y-107776666D01*
X99304761Y-107871904D01*
X99257142Y-107919523D01*
%TO.C,R34*%
X101852380Y-109192857D02*
X101376190Y-109526190D01*
X101852380Y-109764285D02*
X100852380Y-109764285D01*
X100852380Y-109383333D01*
X100900000Y-109288095D01*
X100947619Y-109240476D01*
X101042857Y-109192857D01*
X101185714Y-109192857D01*
X101280952Y-109240476D01*
X101328571Y-109288095D01*
X101376190Y-109383333D01*
X101376190Y-109764285D01*
X100852380Y-108859523D02*
X100852380Y-108240476D01*
X101233333Y-108573809D01*
X101233333Y-108430952D01*
X101280952Y-108335714D01*
X101328571Y-108288095D01*
X101423809Y-108240476D01*
X101661904Y-108240476D01*
X101757142Y-108288095D01*
X101804761Y-108335714D01*
X101852380Y-108430952D01*
X101852380Y-108716666D01*
X101804761Y-108811904D01*
X101757142Y-108859523D01*
X101185714Y-107383333D02*
X101852380Y-107383333D01*
X100804761Y-107621428D02*
X101519047Y-107859523D01*
X101519047Y-107240476D01*
%TO.C,R33*%
X104452380Y-109192857D02*
X103976190Y-109526190D01*
X104452380Y-109764285D02*
X103452380Y-109764285D01*
X103452380Y-109383333D01*
X103500000Y-109288095D01*
X103547619Y-109240476D01*
X103642857Y-109192857D01*
X103785714Y-109192857D01*
X103880952Y-109240476D01*
X103928571Y-109288095D01*
X103976190Y-109383333D01*
X103976190Y-109764285D01*
X103452380Y-108859523D02*
X103452380Y-108240476D01*
X103833333Y-108573809D01*
X103833333Y-108430952D01*
X103880952Y-108335714D01*
X103928571Y-108288095D01*
X104023809Y-108240476D01*
X104261904Y-108240476D01*
X104357142Y-108288095D01*
X104404761Y-108335714D01*
X104452380Y-108430952D01*
X104452380Y-108716666D01*
X104404761Y-108811904D01*
X104357142Y-108859523D01*
X103452380Y-107907142D02*
X103452380Y-107288095D01*
X103833333Y-107621428D01*
X103833333Y-107478571D01*
X103880952Y-107383333D01*
X103928571Y-107335714D01*
X104023809Y-107288095D01*
X104261904Y-107288095D01*
X104357142Y-107335714D01*
X104404761Y-107383333D01*
X104452380Y-107478571D01*
X104452380Y-107764285D01*
X104404761Y-107859523D01*
X104357142Y-107907142D01*
%TO.C,R32*%
X86652380Y-73692857D02*
X86176190Y-74026190D01*
X86652380Y-74264285D02*
X85652380Y-74264285D01*
X85652380Y-73883333D01*
X85700000Y-73788095D01*
X85747619Y-73740476D01*
X85842857Y-73692857D01*
X85985714Y-73692857D01*
X86080952Y-73740476D01*
X86128571Y-73788095D01*
X86176190Y-73883333D01*
X86176190Y-74264285D01*
X85652380Y-73359523D02*
X85652380Y-72740476D01*
X86033333Y-73073809D01*
X86033333Y-72930952D01*
X86080952Y-72835714D01*
X86128571Y-72788095D01*
X86223809Y-72740476D01*
X86461904Y-72740476D01*
X86557142Y-72788095D01*
X86604761Y-72835714D01*
X86652380Y-72930952D01*
X86652380Y-73216666D01*
X86604761Y-73311904D01*
X86557142Y-73359523D01*
X85747619Y-72359523D02*
X85700000Y-72311904D01*
X85652380Y-72216666D01*
X85652380Y-71978571D01*
X85700000Y-71883333D01*
X85747619Y-71835714D01*
X85842857Y-71788095D01*
X85938095Y-71788095D01*
X86080952Y-71835714D01*
X86652380Y-72407142D01*
X86652380Y-71788095D01*
%TO.C,R31*%
X89152380Y-73692857D02*
X88676190Y-74026190D01*
X89152380Y-74264285D02*
X88152380Y-74264285D01*
X88152380Y-73883333D01*
X88200000Y-73788095D01*
X88247619Y-73740476D01*
X88342857Y-73692857D01*
X88485714Y-73692857D01*
X88580952Y-73740476D01*
X88628571Y-73788095D01*
X88676190Y-73883333D01*
X88676190Y-74264285D01*
X88152380Y-73359523D02*
X88152380Y-72740476D01*
X88533333Y-73073809D01*
X88533333Y-72930952D01*
X88580952Y-72835714D01*
X88628571Y-72788095D01*
X88723809Y-72740476D01*
X88961904Y-72740476D01*
X89057142Y-72788095D01*
X89104761Y-72835714D01*
X89152380Y-72930952D01*
X89152380Y-73216666D01*
X89104761Y-73311904D01*
X89057142Y-73359523D01*
X89152380Y-71788095D02*
X89152380Y-72359523D01*
X89152380Y-72073809D02*
X88152380Y-72073809D01*
X88295238Y-72169047D01*
X88390476Y-72264285D01*
X88438095Y-72359523D01*
%TO.C,R30*%
X108257142Y-89102380D02*
X107923809Y-88626190D01*
X107685714Y-89102380D02*
X107685714Y-88102380D01*
X108066666Y-88102380D01*
X108161904Y-88150000D01*
X108209523Y-88197619D01*
X108257142Y-88292857D01*
X108257142Y-88435714D01*
X108209523Y-88530952D01*
X108161904Y-88578571D01*
X108066666Y-88626190D01*
X107685714Y-88626190D01*
X108590476Y-88102380D02*
X109209523Y-88102380D01*
X108876190Y-88483333D01*
X109019047Y-88483333D01*
X109114285Y-88530952D01*
X109161904Y-88578571D01*
X109209523Y-88673809D01*
X109209523Y-88911904D01*
X109161904Y-89007142D01*
X109114285Y-89054761D01*
X109019047Y-89102380D01*
X108733333Y-89102380D01*
X108638095Y-89054761D01*
X108590476Y-89007142D01*
X109828571Y-88102380D02*
X109923809Y-88102380D01*
X110019047Y-88150000D01*
X110066666Y-88197619D01*
X110114285Y-88292857D01*
X110161904Y-88483333D01*
X110161904Y-88721428D01*
X110114285Y-88911904D01*
X110066666Y-89007142D01*
X110019047Y-89054761D01*
X109923809Y-89102380D01*
X109828571Y-89102380D01*
X109733333Y-89054761D01*
X109685714Y-89007142D01*
X109638095Y-88911904D01*
X109590476Y-88721428D01*
X109590476Y-88483333D01*
X109638095Y-88292857D01*
X109685714Y-88197619D01*
X109733333Y-88150000D01*
X109828571Y-88102380D01*
%TO.C,R29*%
X108257142Y-86602380D02*
X107923809Y-86126190D01*
X107685714Y-86602380D02*
X107685714Y-85602380D01*
X108066666Y-85602380D01*
X108161904Y-85650000D01*
X108209523Y-85697619D01*
X108257142Y-85792857D01*
X108257142Y-85935714D01*
X108209523Y-86030952D01*
X108161904Y-86078571D01*
X108066666Y-86126190D01*
X107685714Y-86126190D01*
X108638095Y-85697619D02*
X108685714Y-85650000D01*
X108780952Y-85602380D01*
X109019047Y-85602380D01*
X109114285Y-85650000D01*
X109161904Y-85697619D01*
X109209523Y-85792857D01*
X109209523Y-85888095D01*
X109161904Y-86030952D01*
X108590476Y-86602380D01*
X109209523Y-86602380D01*
X109685714Y-86602380D02*
X109876190Y-86602380D01*
X109971428Y-86554761D01*
X110019047Y-86507142D01*
X110114285Y-86364285D01*
X110161904Y-86173809D01*
X110161904Y-85792857D01*
X110114285Y-85697619D01*
X110066666Y-85650000D01*
X109971428Y-85602380D01*
X109780952Y-85602380D01*
X109685714Y-85650000D01*
X109638095Y-85697619D01*
X109590476Y-85792857D01*
X109590476Y-86030952D01*
X109638095Y-86126190D01*
X109685714Y-86173809D01*
X109780952Y-86221428D01*
X109971428Y-86221428D01*
X110066666Y-86173809D01*
X110114285Y-86126190D01*
X110161904Y-86030952D01*
%TO.C,R28*%
X108257142Y-84002380D02*
X107923809Y-83526190D01*
X107685714Y-84002380D02*
X107685714Y-83002380D01*
X108066666Y-83002380D01*
X108161904Y-83050000D01*
X108209523Y-83097619D01*
X108257142Y-83192857D01*
X108257142Y-83335714D01*
X108209523Y-83430952D01*
X108161904Y-83478571D01*
X108066666Y-83526190D01*
X107685714Y-83526190D01*
X108638095Y-83097619D02*
X108685714Y-83050000D01*
X108780952Y-83002380D01*
X109019047Y-83002380D01*
X109114285Y-83050000D01*
X109161904Y-83097619D01*
X109209523Y-83192857D01*
X109209523Y-83288095D01*
X109161904Y-83430952D01*
X108590476Y-84002380D01*
X109209523Y-84002380D01*
X109780952Y-83430952D02*
X109685714Y-83383333D01*
X109638095Y-83335714D01*
X109590476Y-83240476D01*
X109590476Y-83192857D01*
X109638095Y-83097619D01*
X109685714Y-83050000D01*
X109780952Y-83002380D01*
X109971428Y-83002380D01*
X110066666Y-83050000D01*
X110114285Y-83097619D01*
X110161904Y-83192857D01*
X110161904Y-83240476D01*
X110114285Y-83335714D01*
X110066666Y-83383333D01*
X109971428Y-83430952D01*
X109780952Y-83430952D01*
X109685714Y-83478571D01*
X109638095Y-83526190D01*
X109590476Y-83621428D01*
X109590476Y-83811904D01*
X109638095Y-83907142D01*
X109685714Y-83954761D01*
X109780952Y-84002380D01*
X109971428Y-84002380D01*
X110066666Y-83954761D01*
X110114285Y-83907142D01*
X110161904Y-83811904D01*
X110161904Y-83621428D01*
X110114285Y-83526190D01*
X110066666Y-83478571D01*
X109971428Y-83430952D01*
%TO.C,R27*%
X108257142Y-81502380D02*
X107923809Y-81026190D01*
X107685714Y-81502380D02*
X107685714Y-80502380D01*
X108066666Y-80502380D01*
X108161904Y-80550000D01*
X108209523Y-80597619D01*
X108257142Y-80692857D01*
X108257142Y-80835714D01*
X108209523Y-80930952D01*
X108161904Y-80978571D01*
X108066666Y-81026190D01*
X107685714Y-81026190D01*
X108638095Y-80597619D02*
X108685714Y-80550000D01*
X108780952Y-80502380D01*
X109019047Y-80502380D01*
X109114285Y-80550000D01*
X109161904Y-80597619D01*
X109209523Y-80692857D01*
X109209523Y-80788095D01*
X109161904Y-80930952D01*
X108590476Y-81502380D01*
X109209523Y-81502380D01*
X109542857Y-80502380D02*
X110209523Y-80502380D01*
X109780952Y-81502380D01*
%TO.C,R26*%
X108257142Y-78902380D02*
X107923809Y-78426190D01*
X107685714Y-78902380D02*
X107685714Y-77902380D01*
X108066666Y-77902380D01*
X108161904Y-77950000D01*
X108209523Y-77997619D01*
X108257142Y-78092857D01*
X108257142Y-78235714D01*
X108209523Y-78330952D01*
X108161904Y-78378571D01*
X108066666Y-78426190D01*
X107685714Y-78426190D01*
X108638095Y-77997619D02*
X108685714Y-77950000D01*
X108780952Y-77902380D01*
X109019047Y-77902380D01*
X109114285Y-77950000D01*
X109161904Y-77997619D01*
X109209523Y-78092857D01*
X109209523Y-78188095D01*
X109161904Y-78330952D01*
X108590476Y-78902380D01*
X109209523Y-78902380D01*
X110066666Y-77902380D02*
X109876190Y-77902380D01*
X109780952Y-77950000D01*
X109733333Y-77997619D01*
X109638095Y-78140476D01*
X109590476Y-78330952D01*
X109590476Y-78711904D01*
X109638095Y-78807142D01*
X109685714Y-78854761D01*
X109780952Y-78902380D01*
X109971428Y-78902380D01*
X110066666Y-78854761D01*
X110114285Y-78807142D01*
X110161904Y-78711904D01*
X110161904Y-78473809D01*
X110114285Y-78378571D01*
X110066666Y-78330952D01*
X109971428Y-78283333D01*
X109780952Y-78283333D01*
X109685714Y-78330952D01*
X109638095Y-78378571D01*
X109590476Y-78473809D01*
%TO.C,R25*%
X108257142Y-76502380D02*
X107923809Y-76026190D01*
X107685714Y-76502380D02*
X107685714Y-75502380D01*
X108066666Y-75502380D01*
X108161904Y-75550000D01*
X108209523Y-75597619D01*
X108257142Y-75692857D01*
X108257142Y-75835714D01*
X108209523Y-75930952D01*
X108161904Y-75978571D01*
X108066666Y-76026190D01*
X107685714Y-76026190D01*
X108638095Y-75597619D02*
X108685714Y-75550000D01*
X108780952Y-75502380D01*
X109019047Y-75502380D01*
X109114285Y-75550000D01*
X109161904Y-75597619D01*
X109209523Y-75692857D01*
X109209523Y-75788095D01*
X109161904Y-75930952D01*
X108590476Y-76502380D01*
X109209523Y-76502380D01*
X110114285Y-75502380D02*
X109638095Y-75502380D01*
X109590476Y-75978571D01*
X109638095Y-75930952D01*
X109733333Y-75883333D01*
X109971428Y-75883333D01*
X110066666Y-75930952D01*
X110114285Y-75978571D01*
X110161904Y-76073809D01*
X110161904Y-76311904D01*
X110114285Y-76407142D01*
X110066666Y-76454761D01*
X109971428Y-76502380D01*
X109733333Y-76502380D01*
X109638095Y-76454761D01*
X109590476Y-76407142D01*
%TO.C,R24*%
X108257142Y-73902380D02*
X107923809Y-73426190D01*
X107685714Y-73902380D02*
X107685714Y-72902380D01*
X108066666Y-72902380D01*
X108161904Y-72950000D01*
X108209523Y-72997619D01*
X108257142Y-73092857D01*
X108257142Y-73235714D01*
X108209523Y-73330952D01*
X108161904Y-73378571D01*
X108066666Y-73426190D01*
X107685714Y-73426190D01*
X108638095Y-72997619D02*
X108685714Y-72950000D01*
X108780952Y-72902380D01*
X109019047Y-72902380D01*
X109114285Y-72950000D01*
X109161904Y-72997619D01*
X109209523Y-73092857D01*
X109209523Y-73188095D01*
X109161904Y-73330952D01*
X108590476Y-73902380D01*
X109209523Y-73902380D01*
X110066666Y-73235714D02*
X110066666Y-73902380D01*
X109828571Y-72854761D02*
X109590476Y-73569047D01*
X110209523Y-73569047D01*
%TO.C,R23*%
X108257142Y-71302380D02*
X107923809Y-70826190D01*
X107685714Y-71302380D02*
X107685714Y-70302380D01*
X108066666Y-70302380D01*
X108161904Y-70350000D01*
X108209523Y-70397619D01*
X108257142Y-70492857D01*
X108257142Y-70635714D01*
X108209523Y-70730952D01*
X108161904Y-70778571D01*
X108066666Y-70826190D01*
X107685714Y-70826190D01*
X108638095Y-70397619D02*
X108685714Y-70350000D01*
X108780952Y-70302380D01*
X109019047Y-70302380D01*
X109114285Y-70350000D01*
X109161904Y-70397619D01*
X109209523Y-70492857D01*
X109209523Y-70588095D01*
X109161904Y-70730952D01*
X108590476Y-71302380D01*
X109209523Y-71302380D01*
X109542857Y-70302380D02*
X110161904Y-70302380D01*
X109828571Y-70683333D01*
X109971428Y-70683333D01*
X110066666Y-70730952D01*
X110114285Y-70778571D01*
X110161904Y-70873809D01*
X110161904Y-71111904D01*
X110114285Y-71207142D01*
X110066666Y-71254761D01*
X109971428Y-71302380D01*
X109685714Y-71302380D01*
X109590476Y-71254761D01*
X109542857Y-71207142D01*
%TO.C,R22*%
X91752380Y-73492857D02*
X91276190Y-73826190D01*
X91752380Y-74064285D02*
X90752380Y-74064285D01*
X90752380Y-73683333D01*
X90800000Y-73588095D01*
X90847619Y-73540476D01*
X90942857Y-73492857D01*
X91085714Y-73492857D01*
X91180952Y-73540476D01*
X91228571Y-73588095D01*
X91276190Y-73683333D01*
X91276190Y-74064285D01*
X90847619Y-73111904D02*
X90800000Y-73064285D01*
X90752380Y-72969047D01*
X90752380Y-72730952D01*
X90800000Y-72635714D01*
X90847619Y-72588095D01*
X90942857Y-72540476D01*
X91038095Y-72540476D01*
X91180952Y-72588095D01*
X91752380Y-73159523D01*
X91752380Y-72540476D01*
X90847619Y-72159523D02*
X90800000Y-72111904D01*
X90752380Y-72016666D01*
X90752380Y-71778571D01*
X90800000Y-71683333D01*
X90847619Y-71635714D01*
X90942857Y-71588095D01*
X91038095Y-71588095D01*
X91180952Y-71635714D01*
X91752380Y-72207142D01*
X91752380Y-71588095D01*
%TO.C,R21*%
X94352380Y-73692857D02*
X93876190Y-74026190D01*
X94352380Y-74264285D02*
X93352380Y-74264285D01*
X93352380Y-73883333D01*
X93400000Y-73788095D01*
X93447619Y-73740476D01*
X93542857Y-73692857D01*
X93685714Y-73692857D01*
X93780952Y-73740476D01*
X93828571Y-73788095D01*
X93876190Y-73883333D01*
X93876190Y-74264285D01*
X93447619Y-73311904D02*
X93400000Y-73264285D01*
X93352380Y-73169047D01*
X93352380Y-72930952D01*
X93400000Y-72835714D01*
X93447619Y-72788095D01*
X93542857Y-72740476D01*
X93638095Y-72740476D01*
X93780952Y-72788095D01*
X94352380Y-73359523D01*
X94352380Y-72740476D01*
X94352380Y-71788095D02*
X94352380Y-72359523D01*
X94352380Y-72073809D02*
X93352380Y-72073809D01*
X93495238Y-72169047D01*
X93590476Y-72264285D01*
X93638095Y-72359523D01*
%TO.C,R20*%
X96852380Y-73692857D02*
X96376190Y-74026190D01*
X96852380Y-74264285D02*
X95852380Y-74264285D01*
X95852380Y-73883333D01*
X95900000Y-73788095D01*
X95947619Y-73740476D01*
X96042857Y-73692857D01*
X96185714Y-73692857D01*
X96280952Y-73740476D01*
X96328571Y-73788095D01*
X96376190Y-73883333D01*
X96376190Y-74264285D01*
X95947619Y-73311904D02*
X95900000Y-73264285D01*
X95852380Y-73169047D01*
X95852380Y-72930952D01*
X95900000Y-72835714D01*
X95947619Y-72788095D01*
X96042857Y-72740476D01*
X96138095Y-72740476D01*
X96280952Y-72788095D01*
X96852380Y-73359523D01*
X96852380Y-72740476D01*
X95852380Y-72121428D02*
X95852380Y-72026190D01*
X95900000Y-71930952D01*
X95947619Y-71883333D01*
X96042857Y-71835714D01*
X96233333Y-71788095D01*
X96471428Y-71788095D01*
X96661904Y-71835714D01*
X96757142Y-71883333D01*
X96804761Y-71930952D01*
X96852380Y-72026190D01*
X96852380Y-72121428D01*
X96804761Y-72216666D01*
X96757142Y-72264285D01*
X96661904Y-72311904D01*
X96471428Y-72359523D01*
X96233333Y-72359523D01*
X96042857Y-72311904D01*
X95947619Y-72264285D01*
X95900000Y-72216666D01*
X95852380Y-72121428D01*
%TO.C,R19*%
X99352380Y-73692857D02*
X98876190Y-74026190D01*
X99352380Y-74264285D02*
X98352380Y-74264285D01*
X98352380Y-73883333D01*
X98400000Y-73788095D01*
X98447619Y-73740476D01*
X98542857Y-73692857D01*
X98685714Y-73692857D01*
X98780952Y-73740476D01*
X98828571Y-73788095D01*
X98876190Y-73883333D01*
X98876190Y-74264285D01*
X99352380Y-72740476D02*
X99352380Y-73311904D01*
X99352380Y-73026190D02*
X98352380Y-73026190D01*
X98495238Y-73121428D01*
X98590476Y-73216666D01*
X98638095Y-73311904D01*
X99352380Y-72264285D02*
X99352380Y-72073809D01*
X99304761Y-71978571D01*
X99257142Y-71930952D01*
X99114285Y-71835714D01*
X98923809Y-71788095D01*
X98542857Y-71788095D01*
X98447619Y-71835714D01*
X98400000Y-71883333D01*
X98352380Y-71978571D01*
X98352380Y-72169047D01*
X98400000Y-72264285D01*
X98447619Y-72311904D01*
X98542857Y-72359523D01*
X98780952Y-72359523D01*
X98876190Y-72311904D01*
X98923809Y-72264285D01*
X98971428Y-72169047D01*
X98971428Y-71978571D01*
X98923809Y-71883333D01*
X98876190Y-71835714D01*
X98780952Y-71788095D01*
%TO.C,R18*%
X101852380Y-73632857D02*
X101376190Y-73966190D01*
X101852380Y-74204285D02*
X100852380Y-74204285D01*
X100852380Y-73823333D01*
X100900000Y-73728095D01*
X100947619Y-73680476D01*
X101042857Y-73632857D01*
X101185714Y-73632857D01*
X101280952Y-73680476D01*
X101328571Y-73728095D01*
X101376190Y-73823333D01*
X101376190Y-74204285D01*
X101852380Y-72680476D02*
X101852380Y-73251904D01*
X101852380Y-72966190D02*
X100852380Y-72966190D01*
X100995238Y-73061428D01*
X101090476Y-73156666D01*
X101138095Y-73251904D01*
X101280952Y-72109047D02*
X101233333Y-72204285D01*
X101185714Y-72251904D01*
X101090476Y-72299523D01*
X101042857Y-72299523D01*
X100947619Y-72251904D01*
X100900000Y-72204285D01*
X100852380Y-72109047D01*
X100852380Y-71918571D01*
X100900000Y-71823333D01*
X100947619Y-71775714D01*
X101042857Y-71728095D01*
X101090476Y-71728095D01*
X101185714Y-71775714D01*
X101233333Y-71823333D01*
X101280952Y-71918571D01*
X101280952Y-72109047D01*
X101328571Y-72204285D01*
X101376190Y-72251904D01*
X101471428Y-72299523D01*
X101661904Y-72299523D01*
X101757142Y-72251904D01*
X101804761Y-72204285D01*
X101852380Y-72109047D01*
X101852380Y-71918571D01*
X101804761Y-71823333D01*
X101757142Y-71775714D01*
X101661904Y-71728095D01*
X101471428Y-71728095D01*
X101376190Y-71775714D01*
X101328571Y-71823333D01*
X101280952Y-71918571D01*
%TO.C,R17*%
X104452380Y-73632857D02*
X103976190Y-73966190D01*
X104452380Y-74204285D02*
X103452380Y-74204285D01*
X103452380Y-73823333D01*
X103500000Y-73728095D01*
X103547619Y-73680476D01*
X103642857Y-73632857D01*
X103785714Y-73632857D01*
X103880952Y-73680476D01*
X103928571Y-73728095D01*
X103976190Y-73823333D01*
X103976190Y-74204285D01*
X104452380Y-72680476D02*
X104452380Y-73251904D01*
X104452380Y-72966190D02*
X103452380Y-72966190D01*
X103595238Y-73061428D01*
X103690476Y-73156666D01*
X103738095Y-73251904D01*
X103452380Y-72347142D02*
X103452380Y-71680476D01*
X104452380Y-72109047D01*
%TO.C,Jmsk4*%
X113760476Y-139362380D02*
X113760476Y-140076666D01*
X113712857Y-140219523D01*
X113617619Y-140314761D01*
X113474761Y-140362380D01*
X113379523Y-140362380D01*
X114236666Y-140362380D02*
X114236666Y-139695714D01*
X114236666Y-139790952D02*
X114284285Y-139743333D01*
X114379523Y-139695714D01*
X114522380Y-139695714D01*
X114617619Y-139743333D01*
X114665238Y-139838571D01*
X114665238Y-140362380D01*
X114665238Y-139838571D02*
X114712857Y-139743333D01*
X114808095Y-139695714D01*
X114950952Y-139695714D01*
X115046190Y-139743333D01*
X115093809Y-139838571D01*
X115093809Y-140362380D01*
X115522380Y-140314761D02*
X115617619Y-140362380D01*
X115808095Y-140362380D01*
X115903333Y-140314761D01*
X115950952Y-140219523D01*
X115950952Y-140171904D01*
X115903333Y-140076666D01*
X115808095Y-140029047D01*
X115665238Y-140029047D01*
X115570000Y-139981428D01*
X115522380Y-139886190D01*
X115522380Y-139838571D01*
X115570000Y-139743333D01*
X115665238Y-139695714D01*
X115808095Y-139695714D01*
X115903333Y-139743333D01*
X116379523Y-140362380D02*
X116379523Y-139362380D01*
X116474761Y-139981428D02*
X116760476Y-140362380D01*
X116760476Y-139695714D02*
X116379523Y-140076666D01*
X117617619Y-139695714D02*
X117617619Y-140362380D01*
X117379523Y-139314761D02*
X117141428Y-140029047D01*
X117760476Y-140029047D01*
%TO.C,Jmsk3*%
X113760476Y-103802380D02*
X113760476Y-104516666D01*
X113712857Y-104659523D01*
X113617619Y-104754761D01*
X113474761Y-104802380D01*
X113379523Y-104802380D01*
X114236666Y-104802380D02*
X114236666Y-104135714D01*
X114236666Y-104230952D02*
X114284285Y-104183333D01*
X114379523Y-104135714D01*
X114522380Y-104135714D01*
X114617619Y-104183333D01*
X114665238Y-104278571D01*
X114665238Y-104802380D01*
X114665238Y-104278571D02*
X114712857Y-104183333D01*
X114808095Y-104135714D01*
X114950952Y-104135714D01*
X115046190Y-104183333D01*
X115093809Y-104278571D01*
X115093809Y-104802380D01*
X115522380Y-104754761D02*
X115617619Y-104802380D01*
X115808095Y-104802380D01*
X115903333Y-104754761D01*
X115950952Y-104659523D01*
X115950952Y-104611904D01*
X115903333Y-104516666D01*
X115808095Y-104469047D01*
X115665238Y-104469047D01*
X115570000Y-104421428D01*
X115522380Y-104326190D01*
X115522380Y-104278571D01*
X115570000Y-104183333D01*
X115665238Y-104135714D01*
X115808095Y-104135714D01*
X115903333Y-104183333D01*
X116379523Y-104802380D02*
X116379523Y-103802380D01*
X116474761Y-104421428D02*
X116760476Y-104802380D01*
X116760476Y-104135714D02*
X116379523Y-104516666D01*
X117093809Y-103802380D02*
X117712857Y-103802380D01*
X117379523Y-104183333D01*
X117522380Y-104183333D01*
X117617619Y-104230952D01*
X117665238Y-104278571D01*
X117712857Y-104373809D01*
X117712857Y-104611904D01*
X117665238Y-104707142D01*
X117617619Y-104754761D01*
X117522380Y-104802380D01*
X117236666Y-104802380D01*
X117141428Y-104754761D01*
X117093809Y-104707142D01*
%TO.C,Jmsk2*%
X113760476Y-68242380D02*
X113760476Y-68956666D01*
X113712857Y-69099523D01*
X113617619Y-69194761D01*
X113474761Y-69242380D01*
X113379523Y-69242380D01*
X114236666Y-69242380D02*
X114236666Y-68575714D01*
X114236666Y-68670952D02*
X114284285Y-68623333D01*
X114379523Y-68575714D01*
X114522380Y-68575714D01*
X114617619Y-68623333D01*
X114665238Y-68718571D01*
X114665238Y-69242380D01*
X114665238Y-68718571D02*
X114712857Y-68623333D01*
X114808095Y-68575714D01*
X114950952Y-68575714D01*
X115046190Y-68623333D01*
X115093809Y-68718571D01*
X115093809Y-69242380D01*
X115522380Y-69194761D02*
X115617619Y-69242380D01*
X115808095Y-69242380D01*
X115903333Y-69194761D01*
X115950952Y-69099523D01*
X115950952Y-69051904D01*
X115903333Y-68956666D01*
X115808095Y-68909047D01*
X115665238Y-68909047D01*
X115570000Y-68861428D01*
X115522380Y-68766190D01*
X115522380Y-68718571D01*
X115570000Y-68623333D01*
X115665238Y-68575714D01*
X115808095Y-68575714D01*
X115903333Y-68623333D01*
X116379523Y-69242380D02*
X116379523Y-68242380D01*
X116474761Y-68861428D02*
X116760476Y-69242380D01*
X116760476Y-68575714D02*
X116379523Y-68956666D01*
X117141428Y-68337619D02*
X117189047Y-68290000D01*
X117284285Y-68242380D01*
X117522380Y-68242380D01*
X117617619Y-68290000D01*
X117665238Y-68337619D01*
X117712857Y-68432857D01*
X117712857Y-68528095D01*
X117665238Y-68670952D01*
X117093809Y-69242380D01*
X117712857Y-69242380D01*
%TO.C,Jbase4*%
X106132380Y-137961428D02*
X106846666Y-137961428D01*
X106989523Y-138009047D01*
X107084761Y-138104285D01*
X107132380Y-138247142D01*
X107132380Y-138342380D01*
X107132380Y-137485238D02*
X106132380Y-137485238D01*
X106513333Y-137485238D02*
X106465714Y-137390000D01*
X106465714Y-137199523D01*
X106513333Y-137104285D01*
X106560952Y-137056666D01*
X106656190Y-137009047D01*
X106941904Y-137009047D01*
X107037142Y-137056666D01*
X107084761Y-137104285D01*
X107132380Y-137199523D01*
X107132380Y-137390000D01*
X107084761Y-137485238D01*
X107132380Y-136151904D02*
X106608571Y-136151904D01*
X106513333Y-136199523D01*
X106465714Y-136294761D01*
X106465714Y-136485238D01*
X106513333Y-136580476D01*
X107084761Y-136151904D02*
X107132380Y-136247142D01*
X107132380Y-136485238D01*
X107084761Y-136580476D01*
X106989523Y-136628095D01*
X106894285Y-136628095D01*
X106799047Y-136580476D01*
X106751428Y-136485238D01*
X106751428Y-136247142D01*
X106703809Y-136151904D01*
X107084761Y-135723333D02*
X107132380Y-135628095D01*
X107132380Y-135437619D01*
X107084761Y-135342380D01*
X106989523Y-135294761D01*
X106941904Y-135294761D01*
X106846666Y-135342380D01*
X106799047Y-135437619D01*
X106799047Y-135580476D01*
X106751428Y-135675714D01*
X106656190Y-135723333D01*
X106608571Y-135723333D01*
X106513333Y-135675714D01*
X106465714Y-135580476D01*
X106465714Y-135437619D01*
X106513333Y-135342380D01*
X107084761Y-134485238D02*
X107132380Y-134580476D01*
X107132380Y-134770952D01*
X107084761Y-134866190D01*
X106989523Y-134913809D01*
X106608571Y-134913809D01*
X106513333Y-134866190D01*
X106465714Y-134770952D01*
X106465714Y-134580476D01*
X106513333Y-134485238D01*
X106608571Y-134437619D01*
X106703809Y-134437619D01*
X106799047Y-134913809D01*
X106465714Y-133580476D02*
X107132380Y-133580476D01*
X106084761Y-133818571D02*
X106799047Y-134056666D01*
X106799047Y-133437619D01*
%TO.C,Jbase3*%
X83482380Y-102401428D02*
X84196666Y-102401428D01*
X84339523Y-102449047D01*
X84434761Y-102544285D01*
X84482380Y-102687142D01*
X84482380Y-102782380D01*
X84482380Y-101925238D02*
X83482380Y-101925238D01*
X83863333Y-101925238D02*
X83815714Y-101830000D01*
X83815714Y-101639523D01*
X83863333Y-101544285D01*
X83910952Y-101496666D01*
X84006190Y-101449047D01*
X84291904Y-101449047D01*
X84387142Y-101496666D01*
X84434761Y-101544285D01*
X84482380Y-101639523D01*
X84482380Y-101830000D01*
X84434761Y-101925238D01*
X84482380Y-100591904D02*
X83958571Y-100591904D01*
X83863333Y-100639523D01*
X83815714Y-100734761D01*
X83815714Y-100925238D01*
X83863333Y-101020476D01*
X84434761Y-100591904D02*
X84482380Y-100687142D01*
X84482380Y-100925238D01*
X84434761Y-101020476D01*
X84339523Y-101068095D01*
X84244285Y-101068095D01*
X84149047Y-101020476D01*
X84101428Y-100925238D01*
X84101428Y-100687142D01*
X84053809Y-100591904D01*
X84434761Y-100163333D02*
X84482380Y-100068095D01*
X84482380Y-99877619D01*
X84434761Y-99782380D01*
X84339523Y-99734761D01*
X84291904Y-99734761D01*
X84196666Y-99782380D01*
X84149047Y-99877619D01*
X84149047Y-100020476D01*
X84101428Y-100115714D01*
X84006190Y-100163333D01*
X83958571Y-100163333D01*
X83863333Y-100115714D01*
X83815714Y-100020476D01*
X83815714Y-99877619D01*
X83863333Y-99782380D01*
X84434761Y-98925238D02*
X84482380Y-99020476D01*
X84482380Y-99210952D01*
X84434761Y-99306190D01*
X84339523Y-99353809D01*
X83958571Y-99353809D01*
X83863333Y-99306190D01*
X83815714Y-99210952D01*
X83815714Y-99020476D01*
X83863333Y-98925238D01*
X83958571Y-98877619D01*
X84053809Y-98877619D01*
X84149047Y-99353809D01*
X83482380Y-98544285D02*
X83482380Y-97925238D01*
X83863333Y-98258571D01*
X83863333Y-98115714D01*
X83910952Y-98020476D01*
X83958571Y-97972857D01*
X84053809Y-97925238D01*
X84291904Y-97925238D01*
X84387142Y-97972857D01*
X84434761Y-98020476D01*
X84482380Y-98115714D01*
X84482380Y-98401428D01*
X84434761Y-98496666D01*
X84387142Y-98544285D01*
%TO.C,Jbase2*%
X106132380Y-66841428D02*
X106846666Y-66841428D01*
X106989523Y-66889047D01*
X107084761Y-66984285D01*
X107132380Y-67127142D01*
X107132380Y-67222380D01*
X107132380Y-66365238D02*
X106132380Y-66365238D01*
X106513333Y-66365238D02*
X106465714Y-66270000D01*
X106465714Y-66079523D01*
X106513333Y-65984285D01*
X106560952Y-65936666D01*
X106656190Y-65889047D01*
X106941904Y-65889047D01*
X107037142Y-65936666D01*
X107084761Y-65984285D01*
X107132380Y-66079523D01*
X107132380Y-66270000D01*
X107084761Y-66365238D01*
X107132380Y-65031904D02*
X106608571Y-65031904D01*
X106513333Y-65079523D01*
X106465714Y-65174761D01*
X106465714Y-65365238D01*
X106513333Y-65460476D01*
X107084761Y-65031904D02*
X107132380Y-65127142D01*
X107132380Y-65365238D01*
X107084761Y-65460476D01*
X106989523Y-65508095D01*
X106894285Y-65508095D01*
X106799047Y-65460476D01*
X106751428Y-65365238D01*
X106751428Y-65127142D01*
X106703809Y-65031904D01*
X107084761Y-64603333D02*
X107132380Y-64508095D01*
X107132380Y-64317619D01*
X107084761Y-64222380D01*
X106989523Y-64174761D01*
X106941904Y-64174761D01*
X106846666Y-64222380D01*
X106799047Y-64317619D01*
X106799047Y-64460476D01*
X106751428Y-64555714D01*
X106656190Y-64603333D01*
X106608571Y-64603333D01*
X106513333Y-64555714D01*
X106465714Y-64460476D01*
X106465714Y-64317619D01*
X106513333Y-64222380D01*
X107084761Y-63365238D02*
X107132380Y-63460476D01*
X107132380Y-63650952D01*
X107084761Y-63746190D01*
X106989523Y-63793809D01*
X106608571Y-63793809D01*
X106513333Y-63746190D01*
X106465714Y-63650952D01*
X106465714Y-63460476D01*
X106513333Y-63365238D01*
X106608571Y-63317619D01*
X106703809Y-63317619D01*
X106799047Y-63793809D01*
X106227619Y-62936666D02*
X106180000Y-62889047D01*
X106132380Y-62793809D01*
X106132380Y-62555714D01*
X106180000Y-62460476D01*
X106227619Y-62412857D01*
X106322857Y-62365238D01*
X106418095Y-62365238D01*
X106560952Y-62412857D01*
X107132380Y-62984285D01*
X107132380Y-62365238D01*
%TO.C,J10*%
X80470476Y-141902380D02*
X80470476Y-142616666D01*
X80422857Y-142759523D01*
X80327619Y-142854761D01*
X80184761Y-142902380D01*
X80089523Y-142902380D01*
X81470476Y-142902380D02*
X80899047Y-142902380D01*
X81184761Y-142902380D02*
X81184761Y-141902380D01*
X81089523Y-142045238D01*
X80994285Y-142140476D01*
X80899047Y-142188095D01*
X82089523Y-141902380D02*
X82184761Y-141902380D01*
X82280000Y-141950000D01*
X82327619Y-141997619D01*
X82375238Y-142092857D01*
X82422857Y-142283333D01*
X82422857Y-142521428D01*
X82375238Y-142711904D01*
X82327619Y-142807142D01*
X82280000Y-142854761D01*
X82184761Y-142902380D01*
X82089523Y-142902380D01*
X81994285Y-142854761D01*
X81946666Y-142807142D01*
X81899047Y-142711904D01*
X81851428Y-142521428D01*
X81851428Y-142283333D01*
X81899047Y-142092857D01*
X81946666Y-141997619D01*
X81994285Y-141950000D01*
X82089523Y-141902380D01*
%TO.C,J9*%
X80946666Y-106342380D02*
X80946666Y-107056666D01*
X80899047Y-107199523D01*
X80803809Y-107294761D01*
X80660952Y-107342380D01*
X80565714Y-107342380D01*
X81470476Y-107342380D02*
X81660952Y-107342380D01*
X81756190Y-107294761D01*
X81803809Y-107247142D01*
X81899047Y-107104285D01*
X81946666Y-106913809D01*
X81946666Y-106532857D01*
X81899047Y-106437619D01*
X81851428Y-106390000D01*
X81756190Y-106342380D01*
X81565714Y-106342380D01*
X81470476Y-106390000D01*
X81422857Y-106437619D01*
X81375238Y-106532857D01*
X81375238Y-106770952D01*
X81422857Y-106866190D01*
X81470476Y-106913809D01*
X81565714Y-106961428D01*
X81756190Y-106961428D01*
X81851428Y-106913809D01*
X81899047Y-106866190D01*
X81946666Y-106770952D01*
%TO.C,J8*%
X80946666Y-70782380D02*
X80946666Y-71496666D01*
X80899047Y-71639523D01*
X80803809Y-71734761D01*
X80660952Y-71782380D01*
X80565714Y-71782380D01*
X81565714Y-71210952D02*
X81470476Y-71163333D01*
X81422857Y-71115714D01*
X81375238Y-71020476D01*
X81375238Y-70972857D01*
X81422857Y-70877619D01*
X81470476Y-70830000D01*
X81565714Y-70782380D01*
X81756190Y-70782380D01*
X81851428Y-70830000D01*
X81899047Y-70877619D01*
X81946666Y-70972857D01*
X81946666Y-71020476D01*
X81899047Y-71115714D01*
X81851428Y-71163333D01*
X81756190Y-71210952D01*
X81565714Y-71210952D01*
X81470476Y-71258571D01*
X81422857Y-71306190D01*
X81375238Y-71401428D01*
X81375238Y-71591904D01*
X81422857Y-71687142D01*
X81470476Y-71734761D01*
X81565714Y-71782380D01*
X81756190Y-71782380D01*
X81851428Y-71734761D01*
X81899047Y-71687142D01*
X81946666Y-71591904D01*
X81946666Y-71401428D01*
X81899047Y-71306190D01*
X81851428Y-71258571D01*
X81756190Y-71210952D01*
%TO.C,J7*%
X80946666Y-35222380D02*
X80946666Y-35936666D01*
X80899047Y-36079523D01*
X80803809Y-36174761D01*
X80660952Y-36222380D01*
X80565714Y-36222380D01*
X81327619Y-35222380D02*
X81994285Y-35222380D01*
X81565714Y-36222380D01*
%TO.C,U6*%
X124968095Y-33682380D02*
X124968095Y-34491904D01*
X125015714Y-34587142D01*
X125063333Y-34634761D01*
X125158571Y-34682380D01*
X125349047Y-34682380D01*
X125444285Y-34634761D01*
X125491904Y-34587142D01*
X125539523Y-34491904D01*
X125539523Y-33682380D01*
X126444285Y-33682380D02*
X126253809Y-33682380D01*
X126158571Y-33730000D01*
X126110952Y-33777619D01*
X126015714Y-33920476D01*
X125968095Y-34110952D01*
X125968095Y-34491904D01*
X126015714Y-34587142D01*
X126063333Y-34634761D01*
X126158571Y-34682380D01*
X126349047Y-34682380D01*
X126444285Y-34634761D01*
X126491904Y-34587142D01*
X126539523Y-34491904D01*
X126539523Y-34253809D01*
X126491904Y-34158571D01*
X126444285Y-34110952D01*
X126349047Y-34063333D01*
X126158571Y-34063333D01*
X126063333Y-34110952D01*
X126015714Y-34158571D01*
X125968095Y-34253809D01*
%TO.C,U5*%
X104857380Y-57061904D02*
X105666904Y-57061904D01*
X105762142Y-57014285D01*
X105809761Y-56966666D01*
X105857380Y-56871428D01*
X105857380Y-56680952D01*
X105809761Y-56585714D01*
X105762142Y-56538095D01*
X105666904Y-56490476D01*
X104857380Y-56490476D01*
X104857380Y-55538095D02*
X104857380Y-56014285D01*
X105333571Y-56061904D01*
X105285952Y-56014285D01*
X105238333Y-55919047D01*
X105238333Y-55680952D01*
X105285952Y-55585714D01*
X105333571Y-55538095D01*
X105428809Y-55490476D01*
X105666904Y-55490476D01*
X105762142Y-55538095D01*
X105809761Y-55585714D01*
X105857380Y-55680952D01*
X105857380Y-55919047D01*
X105809761Y-56014285D01*
X105762142Y-56061904D01*
%TO.C,U4*%
X104352380Y-47061904D02*
X105161904Y-47061904D01*
X105257142Y-47014285D01*
X105304761Y-46966666D01*
X105352380Y-46871428D01*
X105352380Y-46680952D01*
X105304761Y-46585714D01*
X105257142Y-46538095D01*
X105161904Y-46490476D01*
X104352380Y-46490476D01*
X104685714Y-45585714D02*
X105352380Y-45585714D01*
X104304761Y-45823809D02*
X105019047Y-46061904D01*
X105019047Y-45442857D01*
%TO.C,R16*%
X86652380Y-38132857D02*
X86176190Y-38466190D01*
X86652380Y-38704285D02*
X85652380Y-38704285D01*
X85652380Y-38323333D01*
X85700000Y-38228095D01*
X85747619Y-38180476D01*
X85842857Y-38132857D01*
X85985714Y-38132857D01*
X86080952Y-38180476D01*
X86128571Y-38228095D01*
X86176190Y-38323333D01*
X86176190Y-38704285D01*
X86652380Y-37180476D02*
X86652380Y-37751904D01*
X86652380Y-37466190D02*
X85652380Y-37466190D01*
X85795238Y-37561428D01*
X85890476Y-37656666D01*
X85938095Y-37751904D01*
X85652380Y-36323333D02*
X85652380Y-36513809D01*
X85700000Y-36609047D01*
X85747619Y-36656666D01*
X85890476Y-36751904D01*
X86080952Y-36799523D01*
X86461904Y-36799523D01*
X86557142Y-36751904D01*
X86604761Y-36704285D01*
X86652380Y-36609047D01*
X86652380Y-36418571D01*
X86604761Y-36323333D01*
X86557142Y-36275714D01*
X86461904Y-36228095D01*
X86223809Y-36228095D01*
X86128571Y-36275714D01*
X86080952Y-36323333D01*
X86033333Y-36418571D01*
X86033333Y-36609047D01*
X86080952Y-36704285D01*
X86128571Y-36751904D01*
X86223809Y-36799523D01*
%TO.C,R15*%
X89152380Y-38132857D02*
X88676190Y-38466190D01*
X89152380Y-38704285D02*
X88152380Y-38704285D01*
X88152380Y-38323333D01*
X88200000Y-38228095D01*
X88247619Y-38180476D01*
X88342857Y-38132857D01*
X88485714Y-38132857D01*
X88580952Y-38180476D01*
X88628571Y-38228095D01*
X88676190Y-38323333D01*
X88676190Y-38704285D01*
X89152380Y-37180476D02*
X89152380Y-37751904D01*
X89152380Y-37466190D02*
X88152380Y-37466190D01*
X88295238Y-37561428D01*
X88390476Y-37656666D01*
X88438095Y-37751904D01*
X88152380Y-36275714D02*
X88152380Y-36751904D01*
X88628571Y-36799523D01*
X88580952Y-36751904D01*
X88533333Y-36656666D01*
X88533333Y-36418571D01*
X88580952Y-36323333D01*
X88628571Y-36275714D01*
X88723809Y-36228095D01*
X88961904Y-36228095D01*
X89057142Y-36275714D01*
X89104761Y-36323333D01*
X89152380Y-36418571D01*
X89152380Y-36656666D01*
X89104761Y-36751904D01*
X89057142Y-36799523D01*
%TO.C,R14*%
X108257142Y-53542380D02*
X107923809Y-53066190D01*
X107685714Y-53542380D02*
X107685714Y-52542380D01*
X108066666Y-52542380D01*
X108161904Y-52590000D01*
X108209523Y-52637619D01*
X108257142Y-52732857D01*
X108257142Y-52875714D01*
X108209523Y-52970952D01*
X108161904Y-53018571D01*
X108066666Y-53066190D01*
X107685714Y-53066190D01*
X109209523Y-53542380D02*
X108638095Y-53542380D01*
X108923809Y-53542380D02*
X108923809Y-52542380D01*
X108828571Y-52685238D01*
X108733333Y-52780476D01*
X108638095Y-52828095D01*
X110066666Y-52875714D02*
X110066666Y-53542380D01*
X109828571Y-52494761D02*
X109590476Y-53209047D01*
X110209523Y-53209047D01*
%TO.C,R13*%
X108257142Y-51042380D02*
X107923809Y-50566190D01*
X107685714Y-51042380D02*
X107685714Y-50042380D01*
X108066666Y-50042380D01*
X108161904Y-50090000D01*
X108209523Y-50137619D01*
X108257142Y-50232857D01*
X108257142Y-50375714D01*
X108209523Y-50470952D01*
X108161904Y-50518571D01*
X108066666Y-50566190D01*
X107685714Y-50566190D01*
X109209523Y-51042380D02*
X108638095Y-51042380D01*
X108923809Y-51042380D02*
X108923809Y-50042380D01*
X108828571Y-50185238D01*
X108733333Y-50280476D01*
X108638095Y-50328095D01*
X109542857Y-50042380D02*
X110161904Y-50042380D01*
X109828571Y-50423333D01*
X109971428Y-50423333D01*
X110066666Y-50470952D01*
X110114285Y-50518571D01*
X110161904Y-50613809D01*
X110161904Y-50851904D01*
X110114285Y-50947142D01*
X110066666Y-50994761D01*
X109971428Y-51042380D01*
X109685714Y-51042380D01*
X109590476Y-50994761D01*
X109542857Y-50947142D01*
%TO.C,R12*%
X108257142Y-48442380D02*
X107923809Y-47966190D01*
X107685714Y-48442380D02*
X107685714Y-47442380D01*
X108066666Y-47442380D01*
X108161904Y-47490000D01*
X108209523Y-47537619D01*
X108257142Y-47632857D01*
X108257142Y-47775714D01*
X108209523Y-47870952D01*
X108161904Y-47918571D01*
X108066666Y-47966190D01*
X107685714Y-47966190D01*
X109209523Y-48442380D02*
X108638095Y-48442380D01*
X108923809Y-48442380D02*
X108923809Y-47442380D01*
X108828571Y-47585238D01*
X108733333Y-47680476D01*
X108638095Y-47728095D01*
X109590476Y-47537619D02*
X109638095Y-47490000D01*
X109733333Y-47442380D01*
X109971428Y-47442380D01*
X110066666Y-47490000D01*
X110114285Y-47537619D01*
X110161904Y-47632857D01*
X110161904Y-47728095D01*
X110114285Y-47870952D01*
X109542857Y-48442380D01*
X110161904Y-48442380D01*
%TO.C,R11*%
X108257142Y-45942380D02*
X107923809Y-45466190D01*
X107685714Y-45942380D02*
X107685714Y-44942380D01*
X108066666Y-44942380D01*
X108161904Y-44990000D01*
X108209523Y-45037619D01*
X108257142Y-45132857D01*
X108257142Y-45275714D01*
X108209523Y-45370952D01*
X108161904Y-45418571D01*
X108066666Y-45466190D01*
X107685714Y-45466190D01*
X109209523Y-45942380D02*
X108638095Y-45942380D01*
X108923809Y-45942380D02*
X108923809Y-44942380D01*
X108828571Y-45085238D01*
X108733333Y-45180476D01*
X108638095Y-45228095D01*
X110161904Y-45942380D02*
X109590476Y-45942380D01*
X109876190Y-45942380D02*
X109876190Y-44942380D01*
X109780952Y-45085238D01*
X109685714Y-45180476D01*
X109590476Y-45228095D01*
%TO.C,R10*%
X108257142Y-43342380D02*
X107923809Y-42866190D01*
X107685714Y-43342380D02*
X107685714Y-42342380D01*
X108066666Y-42342380D01*
X108161904Y-42390000D01*
X108209523Y-42437619D01*
X108257142Y-42532857D01*
X108257142Y-42675714D01*
X108209523Y-42770952D01*
X108161904Y-42818571D01*
X108066666Y-42866190D01*
X107685714Y-42866190D01*
X109209523Y-43342380D02*
X108638095Y-43342380D01*
X108923809Y-43342380D02*
X108923809Y-42342380D01*
X108828571Y-42485238D01*
X108733333Y-42580476D01*
X108638095Y-42628095D01*
X109828571Y-42342380D02*
X109923809Y-42342380D01*
X110019047Y-42390000D01*
X110066666Y-42437619D01*
X110114285Y-42532857D01*
X110161904Y-42723333D01*
X110161904Y-42961428D01*
X110114285Y-43151904D01*
X110066666Y-43247142D01*
X110019047Y-43294761D01*
X109923809Y-43342380D01*
X109828571Y-43342380D01*
X109733333Y-43294761D01*
X109685714Y-43247142D01*
X109638095Y-43151904D01*
X109590476Y-42961428D01*
X109590476Y-42723333D01*
X109638095Y-42532857D01*
X109685714Y-42437619D01*
X109733333Y-42390000D01*
X109828571Y-42342380D01*
%TO.C,R9*%
X108733333Y-40942380D02*
X108400000Y-40466190D01*
X108161904Y-40942380D02*
X108161904Y-39942380D01*
X108542857Y-39942380D01*
X108638095Y-39990000D01*
X108685714Y-40037619D01*
X108733333Y-40132857D01*
X108733333Y-40275714D01*
X108685714Y-40370952D01*
X108638095Y-40418571D01*
X108542857Y-40466190D01*
X108161904Y-40466190D01*
X109209523Y-40942380D02*
X109400000Y-40942380D01*
X109495238Y-40894761D01*
X109542857Y-40847142D01*
X109638095Y-40704285D01*
X109685714Y-40513809D01*
X109685714Y-40132857D01*
X109638095Y-40037619D01*
X109590476Y-39990000D01*
X109495238Y-39942380D01*
X109304761Y-39942380D01*
X109209523Y-39990000D01*
X109161904Y-40037619D01*
X109114285Y-40132857D01*
X109114285Y-40370952D01*
X109161904Y-40466190D01*
X109209523Y-40513809D01*
X109304761Y-40561428D01*
X109495238Y-40561428D01*
X109590476Y-40513809D01*
X109638095Y-40466190D01*
X109685714Y-40370952D01*
%TO.C,R8*%
X108733333Y-38342380D02*
X108400000Y-37866190D01*
X108161904Y-38342380D02*
X108161904Y-37342380D01*
X108542857Y-37342380D01*
X108638095Y-37390000D01*
X108685714Y-37437619D01*
X108733333Y-37532857D01*
X108733333Y-37675714D01*
X108685714Y-37770952D01*
X108638095Y-37818571D01*
X108542857Y-37866190D01*
X108161904Y-37866190D01*
X109304761Y-37770952D02*
X109209523Y-37723333D01*
X109161904Y-37675714D01*
X109114285Y-37580476D01*
X109114285Y-37532857D01*
X109161904Y-37437619D01*
X109209523Y-37390000D01*
X109304761Y-37342380D01*
X109495238Y-37342380D01*
X109590476Y-37390000D01*
X109638095Y-37437619D01*
X109685714Y-37532857D01*
X109685714Y-37580476D01*
X109638095Y-37675714D01*
X109590476Y-37723333D01*
X109495238Y-37770952D01*
X109304761Y-37770952D01*
X109209523Y-37818571D01*
X109161904Y-37866190D01*
X109114285Y-37961428D01*
X109114285Y-38151904D01*
X109161904Y-38247142D01*
X109209523Y-38294761D01*
X109304761Y-38342380D01*
X109495238Y-38342380D01*
X109590476Y-38294761D01*
X109638095Y-38247142D01*
X109685714Y-38151904D01*
X109685714Y-37961428D01*
X109638095Y-37866190D01*
X109590476Y-37818571D01*
X109495238Y-37770952D01*
%TO.C,R7*%
X108733333Y-35742380D02*
X108400000Y-35266190D01*
X108161904Y-35742380D02*
X108161904Y-34742380D01*
X108542857Y-34742380D01*
X108638095Y-34790000D01*
X108685714Y-34837619D01*
X108733333Y-34932857D01*
X108733333Y-35075714D01*
X108685714Y-35170952D01*
X108638095Y-35218571D01*
X108542857Y-35266190D01*
X108161904Y-35266190D01*
X109066666Y-34742380D02*
X109733333Y-34742380D01*
X109304761Y-35742380D01*
%TO.C,R6*%
X91752380Y-37456666D02*
X91276190Y-37790000D01*
X91752380Y-38028095D02*
X90752380Y-38028095D01*
X90752380Y-37647142D01*
X90800000Y-37551904D01*
X90847619Y-37504285D01*
X90942857Y-37456666D01*
X91085714Y-37456666D01*
X91180952Y-37504285D01*
X91228571Y-37551904D01*
X91276190Y-37647142D01*
X91276190Y-38028095D01*
X90752380Y-36599523D02*
X90752380Y-36790000D01*
X90800000Y-36885238D01*
X90847619Y-36932857D01*
X90990476Y-37028095D01*
X91180952Y-37075714D01*
X91561904Y-37075714D01*
X91657142Y-37028095D01*
X91704761Y-36980476D01*
X91752380Y-36885238D01*
X91752380Y-36694761D01*
X91704761Y-36599523D01*
X91657142Y-36551904D01*
X91561904Y-36504285D01*
X91323809Y-36504285D01*
X91228571Y-36551904D01*
X91180952Y-36599523D01*
X91133333Y-36694761D01*
X91133333Y-36885238D01*
X91180952Y-36980476D01*
X91228571Y-37028095D01*
X91323809Y-37075714D01*
%TO.C,R5*%
X94352380Y-37656666D02*
X93876190Y-37990000D01*
X94352380Y-38228095D02*
X93352380Y-38228095D01*
X93352380Y-37847142D01*
X93400000Y-37751904D01*
X93447619Y-37704285D01*
X93542857Y-37656666D01*
X93685714Y-37656666D01*
X93780952Y-37704285D01*
X93828571Y-37751904D01*
X93876190Y-37847142D01*
X93876190Y-38228095D01*
X93352380Y-36751904D02*
X93352380Y-37228095D01*
X93828571Y-37275714D01*
X93780952Y-37228095D01*
X93733333Y-37132857D01*
X93733333Y-36894761D01*
X93780952Y-36799523D01*
X93828571Y-36751904D01*
X93923809Y-36704285D01*
X94161904Y-36704285D01*
X94257142Y-36751904D01*
X94304761Y-36799523D01*
X94352380Y-36894761D01*
X94352380Y-37132857D01*
X94304761Y-37228095D01*
X94257142Y-37275714D01*
%TO.C,R4*%
X96852380Y-37656666D02*
X96376190Y-37990000D01*
X96852380Y-38228095D02*
X95852380Y-38228095D01*
X95852380Y-37847142D01*
X95900000Y-37751904D01*
X95947619Y-37704285D01*
X96042857Y-37656666D01*
X96185714Y-37656666D01*
X96280952Y-37704285D01*
X96328571Y-37751904D01*
X96376190Y-37847142D01*
X96376190Y-38228095D01*
X96185714Y-36799523D02*
X96852380Y-36799523D01*
X95804761Y-37037619D02*
X96519047Y-37275714D01*
X96519047Y-36656666D01*
%TO.C,R3*%
X99352380Y-37656666D02*
X98876190Y-37990000D01*
X99352380Y-38228095D02*
X98352380Y-38228095D01*
X98352380Y-37847142D01*
X98400000Y-37751904D01*
X98447619Y-37704285D01*
X98542857Y-37656666D01*
X98685714Y-37656666D01*
X98780952Y-37704285D01*
X98828571Y-37751904D01*
X98876190Y-37847142D01*
X98876190Y-38228095D01*
X98352380Y-37323333D02*
X98352380Y-36704285D01*
X98733333Y-37037619D01*
X98733333Y-36894761D01*
X98780952Y-36799523D01*
X98828571Y-36751904D01*
X98923809Y-36704285D01*
X99161904Y-36704285D01*
X99257142Y-36751904D01*
X99304761Y-36799523D01*
X99352380Y-36894761D01*
X99352380Y-37180476D01*
X99304761Y-37275714D01*
X99257142Y-37323333D01*
%TO.C,R2*%
X101852380Y-37596666D02*
X101376190Y-37930000D01*
X101852380Y-38168095D02*
X100852380Y-38168095D01*
X100852380Y-37787142D01*
X100900000Y-37691904D01*
X100947619Y-37644285D01*
X101042857Y-37596666D01*
X101185714Y-37596666D01*
X101280952Y-37644285D01*
X101328571Y-37691904D01*
X101376190Y-37787142D01*
X101376190Y-38168095D01*
X100947619Y-37215714D02*
X100900000Y-37168095D01*
X100852380Y-37072857D01*
X100852380Y-36834761D01*
X100900000Y-36739523D01*
X100947619Y-36691904D01*
X101042857Y-36644285D01*
X101138095Y-36644285D01*
X101280952Y-36691904D01*
X101852380Y-37263333D01*
X101852380Y-36644285D01*
%TO.C,R1*%
X104452380Y-37596666D02*
X103976190Y-37930000D01*
X104452380Y-38168095D02*
X103452380Y-38168095D01*
X103452380Y-37787142D01*
X103500000Y-37691904D01*
X103547619Y-37644285D01*
X103642857Y-37596666D01*
X103785714Y-37596666D01*
X103880952Y-37644285D01*
X103928571Y-37691904D01*
X103976190Y-37787142D01*
X103976190Y-38168095D01*
X104452380Y-36644285D02*
X104452380Y-37215714D01*
X104452380Y-36930000D02*
X103452380Y-36930000D01*
X103595238Y-37025238D01*
X103690476Y-37120476D01*
X103738095Y-37215714D01*
%TO.C,Jmsk1*%
X113760476Y-32682380D02*
X113760476Y-33396666D01*
X113712857Y-33539523D01*
X113617619Y-33634761D01*
X113474761Y-33682380D01*
X113379523Y-33682380D01*
X114236666Y-33682380D02*
X114236666Y-33015714D01*
X114236666Y-33110952D02*
X114284285Y-33063333D01*
X114379523Y-33015714D01*
X114522380Y-33015714D01*
X114617619Y-33063333D01*
X114665238Y-33158571D01*
X114665238Y-33682380D01*
X114665238Y-33158571D02*
X114712857Y-33063333D01*
X114808095Y-33015714D01*
X114950952Y-33015714D01*
X115046190Y-33063333D01*
X115093809Y-33158571D01*
X115093809Y-33682380D01*
X115522380Y-33634761D02*
X115617619Y-33682380D01*
X115808095Y-33682380D01*
X115903333Y-33634761D01*
X115950952Y-33539523D01*
X115950952Y-33491904D01*
X115903333Y-33396666D01*
X115808095Y-33349047D01*
X115665238Y-33349047D01*
X115570000Y-33301428D01*
X115522380Y-33206190D01*
X115522380Y-33158571D01*
X115570000Y-33063333D01*
X115665238Y-33015714D01*
X115808095Y-33015714D01*
X115903333Y-33063333D01*
X116379523Y-33682380D02*
X116379523Y-32682380D01*
X116474761Y-33301428D02*
X116760476Y-33682380D01*
X116760476Y-33015714D02*
X116379523Y-33396666D01*
X117712857Y-33682380D02*
X117141428Y-33682380D01*
X117427142Y-33682380D02*
X117427142Y-32682380D01*
X117331904Y-32825238D01*
X117236666Y-32920476D01*
X117141428Y-32968095D01*
%TO.C,Jbase1*%
X83482380Y-31281428D02*
X84196666Y-31281428D01*
X84339523Y-31329047D01*
X84434761Y-31424285D01*
X84482380Y-31567142D01*
X84482380Y-31662380D01*
X84482380Y-30805238D02*
X83482380Y-30805238D01*
X83863333Y-30805238D02*
X83815714Y-30710000D01*
X83815714Y-30519523D01*
X83863333Y-30424285D01*
X83910952Y-30376666D01*
X84006190Y-30329047D01*
X84291904Y-30329047D01*
X84387142Y-30376666D01*
X84434761Y-30424285D01*
X84482380Y-30519523D01*
X84482380Y-30710000D01*
X84434761Y-30805238D01*
X84482380Y-29471904D02*
X83958571Y-29471904D01*
X83863333Y-29519523D01*
X83815714Y-29614761D01*
X83815714Y-29805238D01*
X83863333Y-29900476D01*
X84434761Y-29471904D02*
X84482380Y-29567142D01*
X84482380Y-29805238D01*
X84434761Y-29900476D01*
X84339523Y-29948095D01*
X84244285Y-29948095D01*
X84149047Y-29900476D01*
X84101428Y-29805238D01*
X84101428Y-29567142D01*
X84053809Y-29471904D01*
X84434761Y-29043333D02*
X84482380Y-28948095D01*
X84482380Y-28757619D01*
X84434761Y-28662380D01*
X84339523Y-28614761D01*
X84291904Y-28614761D01*
X84196666Y-28662380D01*
X84149047Y-28757619D01*
X84149047Y-28900476D01*
X84101428Y-28995714D01*
X84006190Y-29043333D01*
X83958571Y-29043333D01*
X83863333Y-28995714D01*
X83815714Y-28900476D01*
X83815714Y-28757619D01*
X83863333Y-28662380D01*
X84434761Y-27805238D02*
X84482380Y-27900476D01*
X84482380Y-28090952D01*
X84434761Y-28186190D01*
X84339523Y-28233809D01*
X83958571Y-28233809D01*
X83863333Y-28186190D01*
X83815714Y-28090952D01*
X83815714Y-27900476D01*
X83863333Y-27805238D01*
X83958571Y-27757619D01*
X84053809Y-27757619D01*
X84149047Y-28233809D01*
X84482380Y-26805238D02*
X84482380Y-27376666D01*
X84482380Y-27090952D02*
X83482380Y-27090952D01*
X83625238Y-27186190D01*
X83720476Y-27281428D01*
X83768095Y-27376666D01*
D13*
%TO.C,J4*%
X119380000Y-165160000D02*
X118050000Y-165160000D01*
X123250000Y-165160000D02*
X123250000Y-162500000D01*
X120650000Y-165160000D02*
X123250000Y-165160000D01*
X120650000Y-165160000D02*
X120650000Y-162500000D01*
X118050000Y-165160000D02*
X118050000Y-163830000D01*
X120650000Y-162500000D02*
X123250000Y-162500000D01*
%TO.C,J3*%
X121920000Y-127060000D02*
X120590000Y-127060000D01*
X125790000Y-127060000D02*
X125790000Y-124400000D01*
X123190000Y-127060000D02*
X125790000Y-127060000D01*
X123190000Y-127060000D02*
X123190000Y-124400000D01*
X120590000Y-127060000D02*
X120590000Y-125730000D01*
X123190000Y-124400000D02*
X125790000Y-124400000D01*
%TO.C,J2*%
X126940000Y-64770000D02*
X126940000Y-63440000D01*
X126940000Y-68640000D02*
X129600000Y-68640000D01*
X126940000Y-66040000D02*
X126940000Y-68640000D01*
X126940000Y-66040000D02*
X129600000Y-66040000D01*
X126940000Y-63440000D02*
X128270000Y-63440000D01*
X129600000Y-66040000D02*
X129600000Y-68640000D01*
%TO.C,J1*%
X124460000Y-55940000D02*
X123130000Y-55940000D01*
X128330000Y-55940000D02*
X128330000Y-53280000D01*
X125730000Y-55940000D02*
X128330000Y-55940000D01*
X125730000Y-55940000D02*
X125730000Y-53280000D01*
X123130000Y-55940000D02*
X123130000Y-54610000D01*
X125730000Y-53280000D02*
X128330000Y-53280000D01*
%TO.C,C4*%
X107489000Y-101754000D02*
X107489000Y-102069000D01*
X107489000Y-104179000D02*
X107489000Y-104494000D01*
X112729000Y-101754000D02*
X112729000Y-102069000D01*
X107489000Y-104494000D02*
X112729000Y-104494000D01*
X107489000Y-101754000D02*
X112729000Y-101754000D01*
X112729000Y-104179000D02*
X112729000Y-104494000D01*
%TO.C,C3*%
X126739000Y-90717000D02*
X126739000Y-91032000D01*
X121499000Y-88292000D02*
X126739000Y-88292000D01*
X121499000Y-91032000D02*
X126739000Y-91032000D01*
X126739000Y-88292000D02*
X126739000Y-88607000D01*
X121499000Y-90717000D02*
X121499000Y-91032000D01*
X121499000Y-88292000D02*
X121499000Y-88607000D01*
%TO.C,C2*%
X113578000Y-31662000D02*
X113578000Y-31977000D01*
X108338000Y-29237000D02*
X113578000Y-29237000D01*
X108338000Y-31977000D02*
X113578000Y-31977000D01*
X113578000Y-29237000D02*
X113578000Y-29552000D01*
X108338000Y-31662000D02*
X108338000Y-31977000D01*
X108338000Y-29237000D02*
X108338000Y-29552000D01*
%TO.C,C1*%
X114380000Y-165012000D02*
X114380000Y-165327000D01*
X109140000Y-162587000D02*
X114380000Y-162587000D01*
X109140000Y-165327000D02*
X114380000Y-165327000D01*
X114380000Y-162587000D02*
X114380000Y-162902000D01*
X109140000Y-165012000D02*
X109140000Y-165327000D01*
X109140000Y-162587000D02*
X109140000Y-162902000D01*
%TO.C,D3*%
X132100000Y-32025000D02*
X132100000Y-28935000D01*
X132100000Y-28935170D02*
G75*
G03*
X126550000Y-30480462I-2560000J-1544830D01*
G01*
X126550000Y-30479538D02*
G75*
G03*
X132100000Y-32024830I2990000J-462D01*
G01*
X132040000Y-30480000D02*
G75*
G03*
X132040000Y-30480000I-2500000J0D01*
G01*
%TO.C,D2*%
X131660000Y-164105000D02*
X131660000Y-161015000D01*
X131660000Y-161015170D02*
G75*
G03*
X126110000Y-162560462I-2560000J-1544830D01*
G01*
X126110000Y-162559538D02*
G75*
G03*
X131660000Y-164104830I2990000J-462D01*
G01*
X131600000Y-162560000D02*
G75*
G03*
X131600000Y-162560000I-2500000J0D01*
G01*
%TO.C,D1*%
X129265000Y-96540000D02*
X132355000Y-96540000D01*
X132354830Y-96540000D02*
G75*
G03*
X130809538Y-90990000I-1544830J2560000D01*
G01*
X130810462Y-90990000D02*
G75*
G03*
X129265170Y-96540000I-462J-2990000D01*
G01*
X133310000Y-93980000D02*
G75*
G03*
X133310000Y-93980000I-2500000J0D01*
G01*
%TO.C,J6*%
X82610000Y-100330000D02*
X82610000Y-102930000D01*
X79950000Y-97730000D02*
X81280000Y-97730000D01*
X79950000Y-100330000D02*
X82610000Y-100330000D01*
X79950000Y-100330000D02*
X79950000Y-102930000D01*
X79950000Y-102930000D02*
X82610000Y-102930000D01*
X79950000Y-99060000D02*
X79950000Y-97730000D01*
%TO.C,J5*%
X133290000Y-97730000D02*
X134620000Y-97730000D01*
X133290000Y-100330000D02*
X135950000Y-100330000D01*
X133290000Y-100390000D02*
X135950000Y-100390000D01*
X135950000Y-100330000D02*
X135950000Y-100390000D01*
X133290000Y-100330000D02*
X133290000Y-100390000D01*
X133290000Y-99060000D02*
X133290000Y-97730000D01*
%TO.C,J~{w}in1*%
X82610000Y-62230000D02*
X82610000Y-69910000D01*
X79950000Y-60960000D02*
X79950000Y-59630000D01*
X79950000Y-69910000D02*
X82610000Y-69910000D01*
X79950000Y-62230000D02*
X82610000Y-62230000D01*
X79950000Y-59630000D02*
X81280000Y-59630000D01*
X79950000Y-62230000D02*
X79950000Y-69910000D01*
%TO.C,J~{e}in1*%
X82610000Y-133350000D02*
X82610000Y-141030000D01*
X79950000Y-132080000D02*
X79950000Y-130750000D01*
X79950000Y-141030000D02*
X82610000Y-141030000D01*
X79950000Y-133350000D02*
X82610000Y-133350000D01*
X79950000Y-130750000D02*
X81280000Y-130750000D01*
X79950000Y-133350000D02*
X79950000Y-141030000D01*
%TO.C,U1*%
X125795000Y-93880000D02*
X107895000Y-93880000D01*
X125795000Y-99180000D02*
X125795000Y-97530000D01*
X107895000Y-93880000D02*
X107895000Y-99180000D01*
X107895000Y-99180000D02*
X125795000Y-99180000D01*
X125795000Y-95530000D02*
X125795000Y-93880000D01*
X125795000Y-95530000D02*
G75*
G03*
X125795000Y-97530000I0J-1000000D01*
G01*
%TO.C,U3*%
X125790000Y-59580000D02*
X107890000Y-59580000D01*
X125790000Y-64880000D02*
X125790000Y-63230000D01*
X107890000Y-59580000D02*
X107890000Y-64880000D01*
X107890000Y-64880000D02*
X125790000Y-64880000D01*
X125790000Y-61230000D02*
X125790000Y-59580000D01*
X125790000Y-61230000D02*
G75*
G03*
X125790000Y-63230000I0J-1000000D01*
G01*
%TO.C,U2*%
X128330000Y-130700000D02*
X110430000Y-130700000D01*
X128330000Y-136000000D02*
X128330000Y-134350000D01*
X110430000Y-130700000D02*
X110430000Y-136000000D01*
X110430000Y-136000000D02*
X128330000Y-136000000D01*
X128330000Y-132350000D02*
X128330000Y-130700000D01*
X128330000Y-132350000D02*
G75*
G03*
X128330000Y-134350000I0J-1000000D01*
G01*
%TO.C,J~{w}out1*%
X135950000Y-52070000D02*
X135950000Y-59750000D01*
X133290000Y-50800000D02*
X133290000Y-49470000D01*
X133290000Y-59750000D02*
X135950000Y-59750000D01*
X133290000Y-52070000D02*
X135950000Y-52070000D01*
X133290000Y-49470000D02*
X134620000Y-49470000D01*
X133290000Y-52070000D02*
X133290000Y-59750000D01*
%TO.C,J~{w}in2*%
X135950000Y-64770000D02*
X135950000Y-72450000D01*
X133290000Y-63500000D02*
X133290000Y-62170000D01*
X133290000Y-72450000D02*
X135950000Y-72450000D01*
X133290000Y-64770000D02*
X135950000Y-64770000D01*
X133290000Y-62170000D02*
X134620000Y-62170000D01*
X133290000Y-64770000D02*
X133290000Y-72450000D01*
%TO.C,J~{e}out1*%
X133290000Y-123190000D02*
X133290000Y-130870000D01*
X133290000Y-120590000D02*
X134620000Y-120590000D01*
X133290000Y-123190000D02*
X135950000Y-123190000D01*
X133290000Y-130870000D02*
X135950000Y-130870000D01*
X133290000Y-121920000D02*
X133290000Y-120590000D01*
X135950000Y-123190000D02*
X135950000Y-130870000D01*
%TO.C,J~{e}in2*%
X133290000Y-135890000D02*
X133290000Y-143570000D01*
X133290000Y-133290000D02*
X134620000Y-133290000D01*
X133290000Y-135890000D02*
X135950000Y-135890000D01*
X133290000Y-143570000D02*
X135950000Y-143570000D01*
X133290000Y-134620000D02*
X133290000Y-133290000D01*
X135950000Y-135890000D02*
X135950000Y-143570000D01*
%TO.C,U15*%
X123080000Y-140910000D02*
X123080000Y-158810000D01*
X128380000Y-140910000D02*
X126730000Y-140910000D01*
X123080000Y-158810000D02*
X128380000Y-158810000D01*
X128380000Y-158810000D02*
X128380000Y-140910000D01*
X124730000Y-140910000D02*
X123080000Y-140910000D01*
X124730000Y-140910000D02*
G75*
G03*
X126730000Y-140910000I1000000J0D01*
G01*
%TO.C,U14*%
X104405000Y-160330000D02*
X86505000Y-160330000D01*
X104405000Y-165630000D02*
X104405000Y-163980000D01*
X86505000Y-160330000D02*
X86505000Y-165630000D01*
X86505000Y-165630000D02*
X104405000Y-165630000D01*
X104405000Y-161980000D02*
X104405000Y-160330000D01*
X104405000Y-161980000D02*
G75*
G03*
X104405000Y-163980000I0J-1000000D01*
G01*
%TO.C,U13*%
X104430000Y-150330000D02*
X86530000Y-150330000D01*
X104430000Y-155630000D02*
X104430000Y-153980000D01*
X86530000Y-150330000D02*
X86530000Y-155630000D01*
X86530000Y-155630000D02*
X104430000Y-155630000D01*
X104430000Y-151980000D02*
X104430000Y-150330000D01*
X104430000Y-151980000D02*
G75*
G03*
X104430000Y-153980000I0J-1000000D01*
G01*
%TO.C,U12*%
X124730000Y-105350000D02*
G75*
G03*
X126730000Y-105350000I1000000J0D01*
G01*
X124730000Y-105350000D02*
X123080000Y-105350000D01*
X128380000Y-123250000D02*
X128380000Y-105350000D01*
X123080000Y-123250000D02*
X128380000Y-123250000D01*
X128380000Y-105350000D02*
X126730000Y-105350000D01*
X123080000Y-105350000D02*
X123080000Y-123250000D01*
%TO.C,U11*%
X104405000Y-126420000D02*
G75*
G03*
X104405000Y-128420000I0J-1000000D01*
G01*
X104405000Y-126420000D02*
X104405000Y-124770000D01*
X86505000Y-130070000D02*
X104405000Y-130070000D01*
X86505000Y-124770000D02*
X86505000Y-130070000D01*
X104405000Y-130070000D02*
X104405000Y-128420000D01*
X104405000Y-124770000D02*
X86505000Y-124770000D01*
%TO.C,U10*%
X104430000Y-116420000D02*
G75*
G03*
X104430000Y-118420000I0J-1000000D01*
G01*
X104430000Y-116420000D02*
X104430000Y-114770000D01*
X86530000Y-120070000D02*
X104430000Y-120070000D01*
X86530000Y-114770000D02*
X86530000Y-120070000D01*
X104430000Y-120070000D02*
X104430000Y-118420000D01*
X104430000Y-114770000D02*
X86530000Y-114770000D01*
%TO.C,U9*%
X123080000Y-69790000D02*
X123080000Y-87690000D01*
X128380000Y-69790000D02*
X126730000Y-69790000D01*
X123080000Y-87690000D02*
X128380000Y-87690000D01*
X128380000Y-87690000D02*
X128380000Y-69790000D01*
X124730000Y-69790000D02*
X123080000Y-69790000D01*
X124730000Y-69790000D02*
G75*
G03*
X126730000Y-69790000I1000000J0D01*
G01*
%TO.C,U8*%
X104405000Y-89210000D02*
X86505000Y-89210000D01*
X104405000Y-94510000D02*
X104405000Y-92860000D01*
X86505000Y-89210000D02*
X86505000Y-94510000D01*
X86505000Y-94510000D02*
X104405000Y-94510000D01*
X104405000Y-90860000D02*
X104405000Y-89210000D01*
X104405000Y-90860000D02*
G75*
G03*
X104405000Y-92860000I0J-1000000D01*
G01*
%TO.C,U7*%
X104430000Y-79210000D02*
X86530000Y-79210000D01*
X104430000Y-84510000D02*
X104430000Y-82860000D01*
X86530000Y-79210000D02*
X86530000Y-84510000D01*
X86530000Y-84510000D02*
X104430000Y-84510000D01*
X104430000Y-80860000D02*
X104430000Y-79210000D01*
X104430000Y-80860000D02*
G75*
G03*
X104430000Y-82860000I0J-1000000D01*
G01*
%TO.C,R64*%
X87120000Y-146090000D02*
X87120000Y-142250000D01*
X85280000Y-146090000D02*
X85280000Y-142250000D01*
%TO.C,R63*%
X89620000Y-146090000D02*
X89620000Y-142250000D01*
X87780000Y-146090000D02*
X87780000Y-142250000D01*
%TO.C,R62*%
X106980000Y-160690000D02*
X110820000Y-160690000D01*
X106980000Y-158850000D02*
X110820000Y-158850000D01*
%TO.C,R61*%
X106980000Y-158190000D02*
X110820000Y-158190000D01*
X106980000Y-156350000D02*
X110820000Y-156350000D01*
%TO.C,R60*%
X106980000Y-155590000D02*
X110820000Y-155590000D01*
X106980000Y-153750000D02*
X110820000Y-153750000D01*
%TO.C,R59*%
X106980000Y-153090000D02*
X110820000Y-153090000D01*
X106980000Y-151250000D02*
X110820000Y-151250000D01*
%TO.C,R58*%
X106980000Y-150490000D02*
X110820000Y-150490000D01*
X106980000Y-148650000D02*
X110820000Y-148650000D01*
%TO.C,R57*%
X106980000Y-148090000D02*
X110820000Y-148090000D01*
X106980000Y-146250000D02*
X110820000Y-146250000D01*
%TO.C,R56*%
X106980000Y-145490000D02*
X110820000Y-145490000D01*
X106980000Y-143650000D02*
X110820000Y-143650000D01*
%TO.C,R55*%
X106980000Y-142890000D02*
X110820000Y-142890000D01*
X106980000Y-141050000D02*
X110820000Y-141050000D01*
%TO.C,R54*%
X92220000Y-145890000D02*
X92220000Y-142050000D01*
X90380000Y-145890000D02*
X90380000Y-142050000D01*
%TO.C,R53*%
X94720000Y-146090000D02*
X94720000Y-142250000D01*
X92880000Y-146090000D02*
X92880000Y-142250000D01*
%TO.C,R52*%
X97320000Y-146090000D02*
X97320000Y-142250000D01*
X95480000Y-146090000D02*
X95480000Y-142250000D01*
%TO.C,R51*%
X99820000Y-146090000D02*
X99820000Y-142250000D01*
X97980000Y-146090000D02*
X97980000Y-142250000D01*
%TO.C,R50*%
X102320000Y-146030000D02*
X102320000Y-142190000D01*
X100480000Y-146030000D02*
X100480000Y-142190000D01*
%TO.C,R49*%
X104920000Y-146030000D02*
X104920000Y-142190000D01*
X103080000Y-146030000D02*
X103080000Y-142190000D01*
%TO.C,R48*%
X85280000Y-110530000D02*
X85280000Y-106690000D01*
X87120000Y-110530000D02*
X87120000Y-106690000D01*
%TO.C,R47*%
X87780000Y-110530000D02*
X87780000Y-106690000D01*
X89620000Y-110530000D02*
X89620000Y-106690000D01*
%TO.C,R46*%
X106980000Y-123290000D02*
X110820000Y-123290000D01*
X106980000Y-125130000D02*
X110820000Y-125130000D01*
%TO.C,R45*%
X106980000Y-120790000D02*
X110820000Y-120790000D01*
X106980000Y-122630000D02*
X110820000Y-122630000D01*
%TO.C,R44*%
X106980000Y-118190000D02*
X110820000Y-118190000D01*
X106980000Y-120030000D02*
X110820000Y-120030000D01*
%TO.C,R43*%
X106980000Y-115690000D02*
X110820000Y-115690000D01*
X106980000Y-117530000D02*
X110820000Y-117530000D01*
%TO.C,R42*%
X106980000Y-113090000D02*
X110820000Y-113090000D01*
X106980000Y-114930000D02*
X110820000Y-114930000D01*
%TO.C,R41*%
X106980000Y-110690000D02*
X110820000Y-110690000D01*
X106980000Y-112530000D02*
X110820000Y-112530000D01*
%TO.C,R40*%
X106980000Y-108090000D02*
X110820000Y-108090000D01*
X106980000Y-109930000D02*
X110820000Y-109930000D01*
%TO.C,R39*%
X106980000Y-105490000D02*
X110820000Y-105490000D01*
X106980000Y-107330000D02*
X110820000Y-107330000D01*
%TO.C,R38*%
X90380000Y-110330000D02*
X90380000Y-106490000D01*
X92220000Y-110330000D02*
X92220000Y-106490000D01*
%TO.C,R37*%
X92880000Y-110530000D02*
X92880000Y-106690000D01*
X94720000Y-110530000D02*
X94720000Y-106690000D01*
%TO.C,R36*%
X95480000Y-110530000D02*
X95480000Y-106690000D01*
X97320000Y-110530000D02*
X97320000Y-106690000D01*
%TO.C,R35*%
X97980000Y-110530000D02*
X97980000Y-106690000D01*
X99820000Y-110530000D02*
X99820000Y-106690000D01*
%TO.C,R34*%
X100480000Y-110470000D02*
X100480000Y-106630000D01*
X102320000Y-110470000D02*
X102320000Y-106630000D01*
%TO.C,R33*%
X103080000Y-110470000D02*
X103080000Y-106630000D01*
X104920000Y-110470000D02*
X104920000Y-106630000D01*
%TO.C,R32*%
X87120000Y-74970000D02*
X87120000Y-71130000D01*
X85280000Y-74970000D02*
X85280000Y-71130000D01*
%TO.C,R31*%
X89620000Y-74970000D02*
X89620000Y-71130000D01*
X87780000Y-74970000D02*
X87780000Y-71130000D01*
%TO.C,R30*%
X106980000Y-89570000D02*
X110820000Y-89570000D01*
X106980000Y-87730000D02*
X110820000Y-87730000D01*
%TO.C,R29*%
X106980000Y-87070000D02*
X110820000Y-87070000D01*
X106980000Y-85230000D02*
X110820000Y-85230000D01*
%TO.C,R28*%
X106980000Y-84470000D02*
X110820000Y-84470000D01*
X106980000Y-82630000D02*
X110820000Y-82630000D01*
%TO.C,R27*%
X106980000Y-81970000D02*
X110820000Y-81970000D01*
X106980000Y-80130000D02*
X110820000Y-80130000D01*
%TO.C,R26*%
X106980000Y-79370000D02*
X110820000Y-79370000D01*
X106980000Y-77530000D02*
X110820000Y-77530000D01*
%TO.C,R25*%
X106980000Y-76970000D02*
X110820000Y-76970000D01*
X106980000Y-75130000D02*
X110820000Y-75130000D01*
%TO.C,R24*%
X106980000Y-74370000D02*
X110820000Y-74370000D01*
X106980000Y-72530000D02*
X110820000Y-72530000D01*
%TO.C,R23*%
X106980000Y-71770000D02*
X110820000Y-71770000D01*
X106980000Y-69930000D02*
X110820000Y-69930000D01*
%TO.C,R22*%
X92220000Y-74770000D02*
X92220000Y-70930000D01*
X90380000Y-74770000D02*
X90380000Y-70930000D01*
%TO.C,R21*%
X94720000Y-74970000D02*
X94720000Y-71130000D01*
X92880000Y-74970000D02*
X92880000Y-71130000D01*
%TO.C,R20*%
X97320000Y-74970000D02*
X97320000Y-71130000D01*
X95480000Y-74970000D02*
X95480000Y-71130000D01*
%TO.C,R19*%
X99820000Y-74970000D02*
X99820000Y-71130000D01*
X97980000Y-74970000D02*
X97980000Y-71130000D01*
%TO.C,R18*%
X102320000Y-74910000D02*
X102320000Y-71070000D01*
X100480000Y-74910000D02*
X100480000Y-71070000D01*
%TO.C,R17*%
X104920000Y-74910000D02*
X104920000Y-71070000D01*
X103080000Y-74910000D02*
X103080000Y-71070000D01*
%TO.C,Jmsk4*%
X115570000Y-143510000D02*
X115570000Y-140910000D01*
X112970000Y-143510000D02*
X112970000Y-161350000D01*
X118170000Y-140910000D02*
X118170000Y-161350000D01*
X112970000Y-143510000D02*
X115570000Y-143510000D01*
X112970000Y-161350000D02*
X118170000Y-161350000D01*
X115570000Y-140910000D02*
X118170000Y-140910000D01*
X112970000Y-142240000D02*
X112970000Y-140910000D01*
X112970000Y-140910000D02*
X114300000Y-140910000D01*
%TO.C,Jmsk3*%
X112970000Y-105350000D02*
X114300000Y-105350000D01*
X112970000Y-106680000D02*
X112970000Y-105350000D01*
X115570000Y-105350000D02*
X118170000Y-105350000D01*
X112970000Y-125790000D02*
X118170000Y-125790000D01*
X112970000Y-107950000D02*
X115570000Y-107950000D01*
X118170000Y-105350000D02*
X118170000Y-125790000D01*
X112970000Y-107950000D02*
X112970000Y-125790000D01*
X115570000Y-107950000D02*
X115570000Y-105350000D01*
%TO.C,Jmsk2*%
X115570000Y-72390000D02*
X115570000Y-69790000D01*
X112970000Y-72390000D02*
X112970000Y-90230000D01*
X118170000Y-69790000D02*
X118170000Y-90230000D01*
X112970000Y-72390000D02*
X115570000Y-72390000D01*
X112970000Y-90230000D02*
X118170000Y-90230000D01*
X115570000Y-69790000D02*
X118170000Y-69790000D01*
X112970000Y-71120000D02*
X112970000Y-69790000D01*
X112970000Y-69790000D02*
X114300000Y-69790000D01*
%TO.C,Jbase4*%
X87630000Y-135890000D02*
X85030000Y-135890000D01*
X87630000Y-138490000D02*
X105470000Y-138490000D01*
X85030000Y-133290000D02*
X105470000Y-133290000D01*
X87630000Y-138490000D02*
X87630000Y-135890000D01*
X105470000Y-138490000D02*
X105470000Y-133290000D01*
X85030000Y-135890000D02*
X85030000Y-133290000D01*
X86360000Y-138490000D02*
X85030000Y-138490000D01*
X85030000Y-138490000D02*
X85030000Y-137160000D01*
%TO.C,Jbase3*%
X85030000Y-102930000D02*
X85030000Y-101600000D01*
X86360000Y-102930000D02*
X85030000Y-102930000D01*
X85030000Y-100330000D02*
X85030000Y-97730000D01*
X105470000Y-102930000D02*
X105470000Y-97730000D01*
X87630000Y-102930000D02*
X87630000Y-100330000D01*
X85030000Y-97730000D02*
X105470000Y-97730000D01*
X87630000Y-102930000D02*
X105470000Y-102930000D01*
X87630000Y-100330000D02*
X85030000Y-100330000D01*
%TO.C,Jbase2*%
X87630000Y-64770000D02*
X85030000Y-64770000D01*
X87630000Y-67370000D02*
X105470000Y-67370000D01*
X85030000Y-62170000D02*
X105470000Y-62170000D01*
X87630000Y-67370000D02*
X87630000Y-64770000D01*
X105470000Y-67370000D02*
X105470000Y-62170000D01*
X85030000Y-64770000D02*
X85030000Y-62170000D01*
X86360000Y-67370000D02*
X85030000Y-67370000D01*
X85030000Y-67370000D02*
X85030000Y-66040000D01*
%TO.C,J10*%
X79950000Y-146050000D02*
X82610000Y-146050000D01*
X79950000Y-163890000D02*
X82610000Y-163890000D01*
X79950000Y-146050000D02*
X79950000Y-163890000D01*
X79950000Y-144780000D02*
X79950000Y-143450000D01*
X82610000Y-146050000D02*
X82610000Y-163890000D01*
X79950000Y-143450000D02*
X81280000Y-143450000D01*
%TO.C,J9*%
X79950000Y-107890000D02*
X81280000Y-107890000D01*
X82610000Y-110490000D02*
X82610000Y-128330000D01*
X79950000Y-109220000D02*
X79950000Y-107890000D01*
X79950000Y-110490000D02*
X79950000Y-128330000D01*
X79950000Y-128330000D02*
X82610000Y-128330000D01*
X79950000Y-110490000D02*
X82610000Y-110490000D01*
%TO.C,J8*%
X79950000Y-74930000D02*
X82610000Y-74930000D01*
X79950000Y-92770000D02*
X82610000Y-92770000D01*
X79950000Y-74930000D02*
X79950000Y-92770000D01*
X79950000Y-73660000D02*
X79950000Y-72330000D01*
X82610000Y-74930000D02*
X82610000Y-92770000D01*
X79950000Y-72330000D02*
X81280000Y-72330000D01*
%TO.C,J7*%
X79950000Y-39370000D02*
X82610000Y-39370000D01*
X79950000Y-57210000D02*
X82610000Y-57210000D01*
X79950000Y-39370000D02*
X79950000Y-57210000D01*
X79950000Y-38100000D02*
X79950000Y-36770000D01*
X82610000Y-39370000D02*
X82610000Y-57210000D01*
X79950000Y-36770000D02*
X81280000Y-36770000D01*
%TO.C,U6*%
X123080000Y-34230000D02*
X123080000Y-52130000D01*
X128380000Y-34230000D02*
X126730000Y-34230000D01*
X123080000Y-52130000D02*
X128380000Y-52130000D01*
X128380000Y-52130000D02*
X128380000Y-34230000D01*
X124730000Y-34230000D02*
X123080000Y-34230000D01*
X124730000Y-34230000D02*
G75*
G03*
X126730000Y-34230000I1000000J0D01*
G01*
%TO.C,U5*%
X104405000Y-53650000D02*
X86505000Y-53650000D01*
X104405000Y-58950000D02*
X104405000Y-57300000D01*
X86505000Y-53650000D02*
X86505000Y-58950000D01*
X86505000Y-58950000D02*
X104405000Y-58950000D01*
X104405000Y-55300000D02*
X104405000Y-53650000D01*
X104405000Y-55300000D02*
G75*
G03*
X104405000Y-57300000I0J-1000000D01*
G01*
%TO.C,U4*%
X104430000Y-45300000D02*
G75*
G03*
X104430000Y-47300000I0J-1000000D01*
G01*
X104430000Y-45300000D02*
X104430000Y-43650000D01*
X86530000Y-48950000D02*
X104430000Y-48950000D01*
X86530000Y-43650000D02*
X86530000Y-48950000D01*
X104430000Y-48950000D02*
X104430000Y-47300000D01*
X104430000Y-43650000D02*
X86530000Y-43650000D01*
%TO.C,R16*%
X87120000Y-39410000D02*
X87120000Y-35570000D01*
X85280000Y-39410000D02*
X85280000Y-35570000D01*
%TO.C,R15*%
X89620000Y-39410000D02*
X89620000Y-35570000D01*
X87780000Y-39410000D02*
X87780000Y-35570000D01*
%TO.C,R14*%
X106980000Y-54010000D02*
X110820000Y-54010000D01*
X106980000Y-52170000D02*
X110820000Y-52170000D01*
%TO.C,R13*%
X106980000Y-51510000D02*
X110820000Y-51510000D01*
X106980000Y-49670000D02*
X110820000Y-49670000D01*
%TO.C,R12*%
X106980000Y-48910000D02*
X110820000Y-48910000D01*
X106980000Y-47070000D02*
X110820000Y-47070000D01*
%TO.C,R11*%
X106980000Y-46410000D02*
X110820000Y-46410000D01*
X106980000Y-44570000D02*
X110820000Y-44570000D01*
%TO.C,R10*%
X106980000Y-43810000D02*
X110820000Y-43810000D01*
X106980000Y-41970000D02*
X110820000Y-41970000D01*
%TO.C,R9*%
X106980000Y-41410000D02*
X110820000Y-41410000D01*
X106980000Y-39570000D02*
X110820000Y-39570000D01*
%TO.C,R8*%
X106980000Y-38810000D02*
X110820000Y-38810000D01*
X106980000Y-36970000D02*
X110820000Y-36970000D01*
%TO.C,R7*%
X106980000Y-36210000D02*
X110820000Y-36210000D01*
X106980000Y-34370000D02*
X110820000Y-34370000D01*
%TO.C,R6*%
X92220000Y-39210000D02*
X92220000Y-35370000D01*
X90380000Y-39210000D02*
X90380000Y-35370000D01*
%TO.C,R5*%
X94720000Y-39410000D02*
X94720000Y-35570000D01*
X92880000Y-39410000D02*
X92880000Y-35570000D01*
%TO.C,R4*%
X97320000Y-39410000D02*
X97320000Y-35570000D01*
X95480000Y-39410000D02*
X95480000Y-35570000D01*
%TO.C,R3*%
X99820000Y-39410000D02*
X99820000Y-35570000D01*
X97980000Y-39410000D02*
X97980000Y-35570000D01*
%TO.C,R2*%
X102320000Y-39350000D02*
X102320000Y-35510000D01*
X100480000Y-39350000D02*
X100480000Y-35510000D01*
%TO.C,R1*%
X104920000Y-39350000D02*
X104920000Y-35510000D01*
X103080000Y-39350000D02*
X103080000Y-35510000D01*
%TO.C,Jmsk1*%
X115570000Y-36830000D02*
X115570000Y-34230000D01*
X112970000Y-36830000D02*
X112970000Y-54670000D01*
X118170000Y-34230000D02*
X118170000Y-54670000D01*
X112970000Y-36830000D02*
X115570000Y-36830000D01*
X112970000Y-54670000D02*
X118170000Y-54670000D01*
X115570000Y-34230000D02*
X118170000Y-34230000D01*
X112970000Y-35560000D02*
X112970000Y-34230000D01*
X112970000Y-34230000D02*
X114300000Y-34230000D01*
%TO.C,Jbase1*%
X87630000Y-29210000D02*
X85030000Y-29210000D01*
X87630000Y-31810000D02*
X105470000Y-31810000D01*
X85030000Y-26610000D02*
X105470000Y-26610000D01*
X87630000Y-31810000D02*
X87630000Y-29210000D01*
X105470000Y-31810000D02*
X105470000Y-26610000D01*
X85030000Y-29210000D02*
X85030000Y-26610000D01*
X86360000Y-31810000D02*
X85030000Y-31810000D01*
X85030000Y-31810000D02*
X85030000Y-30480000D01*
%TD*%
M02*
