%TF.GenerationSoftware,KiCad,Pcbnew,(6.0.11)*%
%TF.CreationDate,2023-02-25T23:46:15+01:00*%
%TF.ProjectId,mem-decoder,6d656d2d-6465-4636-9f64-65722e6b6963,rev?*%
%TF.SameCoordinates,Original*%
%TF.FileFunction,Drillmap*%
%TF.FilePolarity,Positive*%
%FSLAX45Y45*%
G04 Gerber Fmt 4.5, Leading zero omitted, Abs format (unit mm)*
G04 Created by KiCad (PCBNEW (6.0.11)) date 2023-02-25 23:46:15*
%MOMM*%
%LPD*%
G01*
G04 APERTURE LIST*
%ADD10C,0.100000*%
%ADD11C,0.200000*%
%ADD12C,0.040000*%
%ADD13C,0.070000*%
%ADD14C,0.080000*%
%ADD15C,0.090000*%
G04 APERTURE END LIST*
D10*
X13335000Y-11049000D02*
G75*
G03*
X13589000Y-11557000I635000J0D01*
G01*
X13335000Y-8509000D02*
G75*
G03*
X13589000Y-9017000I635000J0D01*
G01*
X13335000Y-3937000D02*
G75*
G03*
X13589000Y-4445000I635000J0D01*
G01*
X13335000Y-8509000D02*
X13335000Y-8255000D01*
X13589000Y-7747000D02*
G75*
G03*
X13335000Y-8255000I381000J-508000D01*
G01*
X13589000Y-10160000D02*
G75*
G03*
X13335000Y-10668000I381000J-508000D01*
G01*
X13589000Y-14859000D02*
G75*
G03*
X13335000Y-15367000I381000J-508000D01*
G01*
X7874000Y-2540000D02*
X7874000Y-3556000D01*
X13335000Y-2540000D02*
X7874000Y-2540000D01*
X13335000Y-2667000D02*
X13335000Y-2540000D01*
X13335000Y-3937000D02*
X13335000Y-2667000D01*
X13589000Y-7747000D02*
X13589000Y-4445000D01*
X13589000Y-10160000D02*
X13589000Y-9017000D01*
X13335000Y-11049000D02*
X13335000Y-10668000D01*
X13589000Y-14859000D02*
X13589000Y-11557000D01*
X13335000Y-16891000D02*
X13335000Y-15367000D01*
X9525000Y-16891000D02*
X13335000Y-16891000D01*
X7874000Y-16891000D02*
X9525000Y-16891000D01*
X7874000Y-16383000D02*
X7874000Y-16891000D01*
X7874000Y-13335000D02*
X7874000Y-16383000D01*
X7874000Y-10668000D02*
X7874000Y-13335000D01*
X7874000Y-7366000D02*
X7874000Y-10668000D01*
X7874000Y-3937000D02*
X7874000Y-7366000D01*
X7874000Y-3556000D02*
X7874000Y-3937000D01*
D11*
D12*
X8298930Y-10990470D02*
X8338930Y-11030470D01*
X8338930Y-10990470D02*
X8298930Y-11030470D01*
X8323900Y-14559600D02*
X8363900Y-14599600D01*
X8363900Y-14559600D02*
X8323900Y-14599600D01*
X8387400Y-12083100D02*
X8427400Y-12123100D01*
X8427400Y-12083100D02*
X8387400Y-12123100D01*
X8400530Y-15664070D02*
X8440530Y-15704070D01*
X8440530Y-15664070D02*
X8400530Y-15704070D01*
X8440840Y-5036380D02*
X8480840Y-5076380D01*
X8480840Y-5036380D02*
X8440840Y-5076380D01*
X8484378Y-3923681D02*
X8524378Y-3963681D01*
X8524378Y-3923681D02*
X8484378Y-3963681D01*
X8484378Y-7479681D02*
X8524378Y-7519681D01*
X8524378Y-7479681D02*
X8484378Y-7519681D01*
X8484580Y-8616000D02*
X8524580Y-8656000D01*
X8524580Y-8616000D02*
X8484580Y-8656000D01*
X8730000Y-3789000D02*
X8770000Y-3829000D01*
X8770000Y-3789000D02*
X8730000Y-3829000D01*
X8730000Y-7345000D02*
X8770000Y-7385000D01*
X8770000Y-7345000D02*
X8730000Y-7385000D01*
X8730000Y-10901000D02*
X8770000Y-10941000D01*
X8770000Y-10901000D02*
X8730000Y-10941000D01*
X8730000Y-14457000D02*
X8770000Y-14497000D01*
X8770000Y-14457000D02*
X8730000Y-14497000D01*
X8860000Y-3789000D02*
X8900000Y-3829000D01*
X8900000Y-3789000D02*
X8860000Y-3829000D01*
X8860000Y-7345000D02*
X8900000Y-7385000D01*
X8900000Y-7345000D02*
X8860000Y-7385000D01*
X8860000Y-10901000D02*
X8900000Y-10941000D01*
X8900000Y-10901000D02*
X8860000Y-10941000D01*
X8860000Y-14457000D02*
X8900000Y-14497000D01*
X8900000Y-14457000D02*
X8860000Y-14497000D01*
X8870000Y-3619000D02*
X8910000Y-3659000D01*
X8910000Y-3619000D02*
X8870000Y-3659000D01*
X8870000Y-7175000D02*
X8910000Y-7215000D01*
X8910000Y-7175000D02*
X8870000Y-7215000D01*
X8870000Y-10731000D02*
X8910000Y-10771000D01*
X8910000Y-10731000D02*
X8870000Y-10771000D01*
X8870000Y-14287000D02*
X8910000Y-14327000D01*
X8910000Y-14287000D02*
X8870000Y-14327000D01*
X8890000Y-4139000D02*
X8930000Y-4179000D01*
X8930000Y-4139000D02*
X8890000Y-4179000D01*
X8890000Y-7695000D02*
X8930000Y-7735000D01*
X8930000Y-7695000D02*
X8890000Y-7735000D01*
X8890000Y-11251000D02*
X8930000Y-11291000D01*
X8930000Y-11251000D02*
X8890000Y-11291000D01*
X8890000Y-14807000D02*
X8930000Y-14847000D01*
X8930000Y-14807000D02*
X8890000Y-14847000D01*
X8981770Y-3500770D02*
X9021770Y-3540770D01*
X9021770Y-3500770D02*
X8981770Y-3540770D01*
X8981770Y-7056770D02*
X9021770Y-7096770D01*
X9021770Y-7056770D02*
X8981770Y-7096770D01*
X8981770Y-10612770D02*
X9021770Y-10652770D01*
X9021770Y-10612770D02*
X8981770Y-10652770D01*
X8981770Y-14168770D02*
X9021770Y-14208770D01*
X9021770Y-14168770D02*
X8981770Y-14208770D01*
X9000000Y-4509000D02*
X9040000Y-4549000D01*
X9040000Y-4509000D02*
X9000000Y-4549000D01*
X9000000Y-8065000D02*
X9040000Y-8105000D01*
X9040000Y-8065000D02*
X9000000Y-8105000D01*
X9000000Y-11621000D02*
X9040000Y-11661000D01*
X9040000Y-11621000D02*
X9000000Y-11661000D01*
X9000000Y-15177000D02*
X9040000Y-15217000D01*
X9040000Y-15177000D02*
X9000000Y-15217000D01*
X9060000Y-5571450D02*
X9100000Y-5611450D01*
X9100000Y-5571450D02*
X9060000Y-5611450D01*
X9060000Y-9127450D02*
X9100000Y-9167450D01*
X9100000Y-9127450D02*
X9060000Y-9167450D01*
X9060000Y-12683450D02*
X9100000Y-12723450D01*
X9100000Y-12683450D02*
X9060000Y-12723450D01*
X9060000Y-16239450D02*
X9100000Y-16279450D01*
X9100000Y-16239450D02*
X9060000Y-16279450D01*
X9070000Y-4719000D02*
X9110000Y-4759000D01*
X9110000Y-4719000D02*
X9070000Y-4759000D01*
X9070000Y-8275000D02*
X9110000Y-8315000D01*
X9110000Y-8275000D02*
X9070000Y-8315000D01*
X9070000Y-11831000D02*
X9110000Y-11871000D01*
X9110000Y-11831000D02*
X9070000Y-11871000D01*
X9070000Y-15387000D02*
X9110000Y-15427000D01*
X9110000Y-15387000D02*
X9070000Y-15427000D01*
X9105663Y-3833122D02*
X9145663Y-3873122D01*
X9145663Y-3833122D02*
X9105663Y-3873122D01*
X9105663Y-7389122D02*
X9145663Y-7429122D01*
X9145663Y-7389122D02*
X9105663Y-7429122D01*
X9105663Y-10945122D02*
X9145663Y-10985122D01*
X9145663Y-10945122D02*
X9105663Y-10985122D01*
X9105663Y-14501122D02*
X9145663Y-14541122D01*
X9145663Y-14501122D02*
X9105663Y-14541122D01*
X9130000Y-4109000D02*
X9170000Y-4149000D01*
X9170000Y-4109000D02*
X9130000Y-4149000D01*
X9130000Y-7665000D02*
X9170000Y-7705000D01*
X9170000Y-7665000D02*
X9130000Y-7705000D01*
X9130000Y-11221000D02*
X9170000Y-11261000D01*
X9170000Y-11221000D02*
X9130000Y-11261000D01*
X9130000Y-14777000D02*
X9170000Y-14817000D01*
X9170000Y-14777000D02*
X9130000Y-14817000D01*
X9230000Y-3910550D02*
X9270000Y-3950550D01*
X9270000Y-3910550D02*
X9230000Y-3950550D01*
X9230000Y-7466550D02*
X9270000Y-7506550D01*
X9270000Y-7466550D02*
X9230000Y-7506550D01*
X9230000Y-11022550D02*
X9270000Y-11062550D01*
X9270000Y-11022550D02*
X9230000Y-11062550D01*
X9230000Y-14578550D02*
X9270000Y-14618550D01*
X9270000Y-14578550D02*
X9230000Y-14618550D01*
X9238770Y-4821450D02*
X9278770Y-4861450D01*
X9278770Y-4821450D02*
X9238770Y-4861450D01*
X9238770Y-8377450D02*
X9278770Y-8417450D01*
X9278770Y-8377450D02*
X9238770Y-8417450D01*
X9238770Y-11933450D02*
X9278770Y-11973450D01*
X9278770Y-11933450D02*
X9238770Y-11973450D01*
X9238770Y-15489450D02*
X9278770Y-15529450D01*
X9278770Y-15489450D02*
X9238770Y-15529450D01*
X9250000Y-5701450D02*
X9290000Y-5741450D01*
X9290000Y-5701450D02*
X9250000Y-5741450D01*
X9250000Y-9257450D02*
X9290000Y-9297450D01*
X9290000Y-9257450D02*
X9250000Y-9297450D01*
X9250000Y-12813450D02*
X9290000Y-12853450D01*
X9290000Y-12813450D02*
X9250000Y-12853450D01*
X9250000Y-16369450D02*
X9290000Y-16409450D01*
X9290000Y-16369450D02*
X9250000Y-16409450D01*
X9420000Y-4766550D02*
X9460000Y-4806550D01*
X9460000Y-4766550D02*
X9420000Y-4806550D01*
X9420000Y-8322550D02*
X9460000Y-8362550D01*
X9460000Y-8322550D02*
X9420000Y-8362550D01*
X9420000Y-11878550D02*
X9460000Y-11918550D01*
X9460000Y-11878550D02*
X9420000Y-11918550D01*
X9420000Y-15434550D02*
X9460000Y-15474550D01*
X9460000Y-15434550D02*
X9420000Y-15474550D01*
X9470000Y-3809000D02*
X9510000Y-3849000D01*
X9510000Y-3809000D02*
X9470000Y-3849000D01*
X9470000Y-7365000D02*
X9510000Y-7405000D01*
X9510000Y-7365000D02*
X9470000Y-7405000D01*
X9470000Y-10921000D02*
X9510000Y-10961000D01*
X9510000Y-10921000D02*
X9470000Y-10961000D01*
X9470000Y-14477000D02*
X9510000Y-14517000D01*
X9510000Y-14477000D02*
X9470000Y-14517000D01*
X9480000Y-4501450D02*
X9520000Y-4541450D01*
X9520000Y-4501450D02*
X9480000Y-4541450D01*
X9480000Y-8057450D02*
X9520000Y-8097450D01*
X9520000Y-8057450D02*
X9480000Y-8097450D01*
X9480000Y-11613450D02*
X9520000Y-11653450D01*
X9520000Y-11613450D02*
X9480000Y-11653450D01*
X9480000Y-15169450D02*
X9520000Y-15209450D01*
X9520000Y-15169450D02*
X9480000Y-15209450D01*
X9490000Y-4079000D02*
X9530000Y-4119000D01*
X9530000Y-4079000D02*
X9490000Y-4119000D01*
X9490000Y-7635000D02*
X9530000Y-7675000D01*
X9530000Y-7635000D02*
X9490000Y-7675000D01*
X9490000Y-11191000D02*
X9530000Y-11231000D01*
X9530000Y-11191000D02*
X9490000Y-11231000D01*
X9490000Y-14747000D02*
X9530000Y-14787000D01*
X9530000Y-14747000D02*
X9490000Y-14787000D01*
X9542505Y-4766550D02*
X9582505Y-4806550D01*
X9582505Y-4766550D02*
X9542505Y-4806550D01*
X9542505Y-8322550D02*
X9582505Y-8362550D01*
X9582505Y-8322550D02*
X9542505Y-8362550D01*
X9542505Y-11878550D02*
X9582505Y-11918550D01*
X9582505Y-11878550D02*
X9542505Y-11918550D01*
X9542505Y-15434550D02*
X9582505Y-15474550D01*
X9582505Y-15434550D02*
X9542505Y-15474550D01*
X9660000Y-4129000D02*
X9700000Y-4169000D01*
X9700000Y-4129000D02*
X9660000Y-4169000D01*
X9660000Y-4869000D02*
X9700000Y-4909000D01*
X9700000Y-4869000D02*
X9660000Y-4909000D01*
X9660000Y-7685000D02*
X9700000Y-7725000D01*
X9700000Y-7685000D02*
X9660000Y-7725000D01*
X9660000Y-8425000D02*
X9700000Y-8465000D01*
X9700000Y-8425000D02*
X9660000Y-8465000D01*
X9660000Y-11241000D02*
X9700000Y-11281000D01*
X9700000Y-11241000D02*
X9660000Y-11281000D01*
X9660000Y-11981000D02*
X9700000Y-12021000D01*
X9700000Y-11981000D02*
X9660000Y-12021000D01*
X9660000Y-14797000D02*
X9700000Y-14837000D01*
X9700000Y-14797000D02*
X9660000Y-14837000D01*
X9660000Y-15537000D02*
X9700000Y-15577000D01*
X9700000Y-15537000D02*
X9660000Y-15577000D01*
X9780000Y-4501450D02*
X9820000Y-4541450D01*
X9820000Y-4501450D02*
X9780000Y-4541450D01*
X9780000Y-8057450D02*
X9820000Y-8097450D01*
X9820000Y-8057450D02*
X9780000Y-8097450D01*
X9780000Y-11613450D02*
X9820000Y-11653450D01*
X9820000Y-11613450D02*
X9780000Y-11653450D01*
X9780000Y-15169450D02*
X9820000Y-15209450D01*
X9820000Y-15169450D02*
X9780000Y-15209450D01*
X9890000Y-3729000D02*
X9930000Y-3769000D01*
X9930000Y-3729000D02*
X9890000Y-3769000D01*
X9890000Y-7285000D02*
X9930000Y-7325000D01*
X9930000Y-7285000D02*
X9890000Y-7325000D01*
X9890000Y-10841000D02*
X9930000Y-10881000D01*
X9930000Y-10841000D02*
X9890000Y-10881000D01*
X9890000Y-14397000D02*
X9930000Y-14437000D01*
X9930000Y-14397000D02*
X9890000Y-14437000D01*
X9920000Y-4509000D02*
X9960000Y-4549000D01*
X9960000Y-4509000D02*
X9920000Y-4549000D01*
X9920000Y-8065000D02*
X9960000Y-8105000D01*
X9960000Y-8065000D02*
X9920000Y-8105000D01*
X9920000Y-11621000D02*
X9960000Y-11661000D01*
X9960000Y-11621000D02*
X9920000Y-11661000D01*
X9920000Y-15177000D02*
X9960000Y-15217000D01*
X9960000Y-15177000D02*
X9920000Y-15217000D01*
X9960000Y-4089000D02*
X10000000Y-4129000D01*
X10000000Y-4089000D02*
X9960000Y-4129000D01*
X9960000Y-7645000D02*
X10000000Y-7685000D01*
X10000000Y-7645000D02*
X9960000Y-7685000D01*
X9960000Y-11201000D02*
X10000000Y-11241000D01*
X10000000Y-11201000D02*
X9960000Y-11241000D01*
X9960000Y-14757000D02*
X10000000Y-14797000D01*
X10000000Y-14757000D02*
X9960000Y-14797000D01*
X10010000Y-4601550D02*
X10050000Y-4641550D01*
X10050000Y-4601550D02*
X10010000Y-4641550D01*
X10010000Y-8157550D02*
X10050000Y-8197550D01*
X10050000Y-8157550D02*
X10010000Y-8197550D01*
X10010000Y-11713550D02*
X10050000Y-11753550D01*
X10050000Y-11713550D02*
X10010000Y-11753550D01*
X10010000Y-15269550D02*
X10050000Y-15309550D01*
X10050000Y-15269550D02*
X10010000Y-15309550D01*
X10030000Y-5719000D02*
X10070000Y-5759000D01*
X10070000Y-5719000D02*
X10030000Y-5759000D01*
X10030000Y-9275000D02*
X10070000Y-9315000D01*
X10070000Y-9275000D02*
X10030000Y-9315000D01*
X10030000Y-12831000D02*
X10070000Y-12871000D01*
X10070000Y-12831000D02*
X10030000Y-12871000D01*
X10030000Y-16387000D02*
X10070000Y-16427000D01*
X10070000Y-16387000D02*
X10030000Y-16427000D01*
X10044950Y-3829000D02*
X10084950Y-3869000D01*
X10084950Y-3829000D02*
X10044950Y-3869000D01*
X10044950Y-7385000D02*
X10084950Y-7425000D01*
X10084950Y-7385000D02*
X10044950Y-7425000D01*
X10044950Y-10941000D02*
X10084950Y-10981000D01*
X10084950Y-10941000D02*
X10044950Y-10981000D01*
X10044950Y-14497000D02*
X10084950Y-14537000D01*
X10084950Y-14497000D02*
X10044950Y-14537000D01*
X10150000Y-5489000D02*
X10190000Y-5529000D01*
X10190000Y-5489000D02*
X10150000Y-5529000D01*
X10150000Y-9045000D02*
X10190000Y-9085000D01*
X10190000Y-9045000D02*
X10150000Y-9085000D01*
X10150000Y-12601000D02*
X10190000Y-12641000D01*
X10190000Y-12601000D02*
X10150000Y-12641000D01*
X10150000Y-16157000D02*
X10190000Y-16197000D01*
X10190000Y-16157000D02*
X10150000Y-16197000D01*
X10160000Y-4849000D02*
X10200000Y-4889000D01*
X10200000Y-4849000D02*
X10160000Y-4889000D01*
X10160000Y-8405000D02*
X10200000Y-8445000D01*
X10200000Y-8405000D02*
X10160000Y-8445000D01*
X10160000Y-11961000D02*
X10200000Y-12001000D01*
X10200000Y-11961000D02*
X10160000Y-12001000D01*
X10160000Y-15517000D02*
X10200000Y-15557000D01*
X10200000Y-15517000D02*
X10160000Y-15557000D01*
X10163707Y-4099380D02*
X10203707Y-4139380D01*
X10203707Y-4099380D02*
X10163707Y-4139380D01*
X10163707Y-7655380D02*
X10203707Y-7695380D01*
X10203707Y-7655380D02*
X10163707Y-7695380D01*
X10163707Y-11211380D02*
X10203707Y-11251380D01*
X10203707Y-11211380D02*
X10163707Y-11251380D01*
X10163707Y-14767380D02*
X10203707Y-14807380D01*
X10203707Y-14767380D02*
X10163707Y-14807380D01*
X10170000Y-4549000D02*
X10210000Y-4589000D01*
X10210000Y-4549000D02*
X10170000Y-4589000D01*
X10170000Y-8105000D02*
X10210000Y-8145000D01*
X10210000Y-8105000D02*
X10170000Y-8145000D01*
X10170000Y-11661000D02*
X10210000Y-11701000D01*
X10210000Y-11661000D02*
X10170000Y-11701000D01*
X10170000Y-15217000D02*
X10210000Y-15257000D01*
X10210000Y-15217000D02*
X10170000Y-15257000D01*
X10332450Y-4549000D02*
X10372450Y-4589000D01*
X10372450Y-4549000D02*
X10332450Y-4589000D01*
X10332450Y-8105000D02*
X10372450Y-8145000D01*
X10372450Y-8105000D02*
X10332450Y-8145000D01*
X10332450Y-11661000D02*
X10372450Y-11701000D01*
X10372450Y-11661000D02*
X10332450Y-11701000D01*
X10332450Y-15217000D02*
X10372450Y-15257000D01*
X10372450Y-15217000D02*
X10332450Y-15257000D01*
X10350000Y-4679000D02*
X10390000Y-4719000D01*
X10390000Y-4679000D02*
X10350000Y-4719000D01*
X10350000Y-8235000D02*
X10390000Y-8275000D01*
X10390000Y-8235000D02*
X10350000Y-8275000D01*
X10350000Y-11791000D02*
X10390000Y-11831000D01*
X10390000Y-11791000D02*
X10350000Y-11831000D01*
X10350000Y-15347000D02*
X10390000Y-15387000D01*
X10390000Y-15347000D02*
X10350000Y-15387000D01*
X10360000Y-4409000D02*
X10400000Y-4449000D01*
X10400000Y-4409000D02*
X10360000Y-4449000D01*
X10360000Y-7965000D02*
X10400000Y-8005000D01*
X10400000Y-7965000D02*
X10360000Y-8005000D01*
X10360000Y-11521000D02*
X10400000Y-11561000D01*
X10400000Y-11521000D02*
X10360000Y-11561000D01*
X10360000Y-15077000D02*
X10400000Y-15117000D01*
X10400000Y-15077000D02*
X10360000Y-15117000D01*
X10448200Y-6092550D02*
X10488200Y-6132550D01*
X10488200Y-6092550D02*
X10448200Y-6132550D01*
X10559100Y-9305769D02*
X10599100Y-9345769D01*
X10599100Y-9305769D02*
X10559100Y-9345769D01*
X10585000Y-9590000D02*
X10625000Y-9630000D01*
X10625000Y-9590000D02*
X10585000Y-9630000D01*
X10585000Y-13146000D02*
X10625000Y-13186000D01*
X10625000Y-13146000D02*
X10585000Y-13186000D01*
X10585000Y-16702000D02*
X10625000Y-16742000D01*
X10625000Y-16702000D02*
X10585000Y-16742000D01*
X10593600Y-6740000D02*
X10633600Y-6780000D01*
X10633600Y-6740000D02*
X10593600Y-6780000D01*
X10630000Y-5709000D02*
X10670000Y-5749000D01*
X10670000Y-5709000D02*
X10630000Y-5749000D01*
X10630000Y-12821000D02*
X10670000Y-12861000D01*
X10670000Y-12821000D02*
X10630000Y-12861000D01*
X10630000Y-16377000D02*
X10670000Y-16417000D01*
X10670000Y-16377000D02*
X10630000Y-16417000D01*
X10631550Y-9185000D02*
X10671550Y-9225000D01*
X10671550Y-9185000D02*
X10631550Y-9225000D01*
X10656950Y-6001434D02*
X10696950Y-6041434D01*
X10696950Y-6001434D02*
X10656950Y-6041434D01*
X10688450Y-5568000D02*
X10728450Y-5608000D01*
X10728450Y-5568000D02*
X10688450Y-5608000D01*
X10760000Y-12741000D02*
X10800000Y-12781000D01*
X10800000Y-12741000D02*
X10760000Y-12781000D01*
X10760000Y-16297000D02*
X10800000Y-16337000D01*
X10800000Y-16297000D02*
X10760000Y-16337000D01*
X10770000Y-6160000D02*
X10810000Y-6200000D01*
X10810000Y-6160000D02*
X10770000Y-6200000D01*
X10800000Y-6850000D02*
X10840000Y-6890000D01*
X10840000Y-6850000D02*
X10800000Y-6890000D01*
X10837550Y-13369550D02*
X10877550Y-13409550D01*
X10877550Y-13369550D02*
X10837550Y-13409550D01*
X10837550Y-14020000D02*
X10877550Y-14060000D01*
X10877550Y-14020000D02*
X10837550Y-14060000D01*
X10890900Y-12999100D02*
X10930900Y-13039100D01*
X10930900Y-12999100D02*
X10890900Y-13039100D01*
X10902000Y-13160000D02*
X10942000Y-13200000D01*
X10942000Y-13160000D02*
X10902000Y-13200000D01*
X11360000Y-6040000D02*
X11400000Y-6080000D01*
X11400000Y-6040000D02*
X11360000Y-6080000D01*
X11440000Y-14020000D02*
X11480000Y-14060000D01*
X11480000Y-14020000D02*
X11440000Y-14060000D01*
X11600906Y-6727556D02*
X11640906Y-6767556D01*
X11640906Y-6727556D02*
X11600906Y-6767556D01*
X11736450Y-5187000D02*
X11776450Y-5227000D01*
X11776450Y-5187000D02*
X11736450Y-5227000D01*
X11736450Y-8743000D02*
X11776450Y-8783000D01*
X11776450Y-8743000D02*
X11736450Y-8783000D01*
X11736450Y-12299000D02*
X11776450Y-12339000D01*
X11776450Y-12299000D02*
X11736450Y-12339000D01*
X11736450Y-15855000D02*
X11776450Y-15895000D01*
X11776450Y-15855000D02*
X11736450Y-15895000D01*
X11890000Y-9490000D02*
X11930000Y-9530000D01*
X11930000Y-9490000D02*
X11890000Y-9530000D01*
X12290000Y-13090000D02*
X12330000Y-13130000D01*
X12330000Y-13090000D02*
X12290000Y-13130000D01*
X12300000Y-13450000D02*
X12340000Y-13490000D01*
X12340000Y-13450000D02*
X12300000Y-13490000D01*
X12490000Y-6930000D02*
X12530000Y-6970000D01*
X12530000Y-6930000D02*
X12490000Y-6970000D01*
X12640750Y-6400750D02*
X12680750Y-6440750D01*
X12680750Y-6400750D02*
X12640750Y-6440750D01*
X12650000Y-13260000D02*
X12690000Y-13300000D01*
X12690000Y-13260000D02*
X12650000Y-13300000D01*
X12671230Y-9668770D02*
X12711230Y-9708770D01*
X12711230Y-9668770D02*
X12671230Y-9708770D01*
X12720000Y-12480000D02*
X12760000Y-12520000D01*
X12760000Y-12480000D02*
X12720000Y-12520000D01*
X12752450Y-7002450D02*
X12792450Y-7042450D01*
X12792450Y-7002450D02*
X12752450Y-7042450D01*
X12807000Y-6203000D02*
X12847000Y-6243000D01*
X12847000Y-6203000D02*
X12807000Y-6243000D01*
X12940000Y-13640000D02*
X12980000Y-13680000D01*
X12980000Y-13640000D02*
X12940000Y-13680000D01*
X12985000Y-6745000D02*
X13025000Y-6785000D01*
X13025000Y-6745000D02*
X12985000Y-6785000D01*
X13006450Y-5365000D02*
X13046450Y-5405000D01*
X13046450Y-5365000D02*
X13006450Y-5405000D01*
X13011230Y-13411230D02*
X13051230Y-13451230D01*
X13051230Y-13411230D02*
X13011230Y-13451230D01*
X13052550Y-6457000D02*
X13092550Y-6497000D01*
X13092550Y-6457000D02*
X13052550Y-6497000D01*
X13086543Y-8868998D02*
X13126543Y-8908998D01*
X13126543Y-8868998D02*
X13086543Y-8908998D01*
X13116230Y-5393770D02*
X13156230Y-5433770D01*
X13156230Y-5393770D02*
X13116230Y-5433770D01*
X13130000Y-5690000D02*
X13170000Y-5730000D01*
X13170000Y-5690000D02*
X13130000Y-5730000D01*
X13172450Y-10410000D02*
X13212450Y-10450000D01*
X13212450Y-10410000D02*
X13172450Y-10450000D01*
X13242450Y-6765550D02*
X13282450Y-6805550D01*
X13282450Y-6765550D02*
X13242450Y-6805550D01*
X13242450Y-7600000D02*
X13282450Y-7640000D01*
X13282450Y-7600000D02*
X13242450Y-7640000D01*
D13*
X8655000Y-3495000D02*
G75*
G03*
X8655000Y-3495000I-35000J0D01*
G01*
X8655000Y-4003000D02*
G75*
G03*
X8655000Y-4003000I-35000J0D01*
G01*
X8655000Y-7051000D02*
G75*
G03*
X8655000Y-7051000I-35000J0D01*
G01*
X8655000Y-7559000D02*
G75*
G03*
X8655000Y-7559000I-35000J0D01*
G01*
X8655000Y-10607000D02*
G75*
G03*
X8655000Y-10607000I-35000J0D01*
G01*
X8655000Y-11115000D02*
G75*
G03*
X8655000Y-11115000I-35000J0D01*
G01*
X8655000Y-14163000D02*
G75*
G03*
X8655000Y-14163000I-35000J0D01*
G01*
X8655000Y-14671000D02*
G75*
G03*
X8655000Y-14671000I-35000J0D01*
G01*
X8905000Y-3495000D02*
G75*
G03*
X8905000Y-3495000I-35000J0D01*
G01*
X8905000Y-4003000D02*
G75*
G03*
X8905000Y-4003000I-35000J0D01*
G01*
X8905000Y-7051000D02*
G75*
G03*
X8905000Y-7051000I-35000J0D01*
G01*
X8905000Y-7559000D02*
G75*
G03*
X8905000Y-7559000I-35000J0D01*
G01*
X8905000Y-10607000D02*
G75*
G03*
X8905000Y-10607000I-35000J0D01*
G01*
X8905000Y-11115000D02*
G75*
G03*
X8905000Y-11115000I-35000J0D01*
G01*
X8905000Y-14163000D02*
G75*
G03*
X8905000Y-14163000I-35000J0D01*
G01*
X8905000Y-14671000D02*
G75*
G03*
X8905000Y-14671000I-35000J0D01*
G01*
X9165000Y-3475000D02*
G75*
G03*
X9165000Y-3475000I-35000J0D01*
G01*
X9165000Y-3983000D02*
G75*
G03*
X9165000Y-3983000I-35000J0D01*
G01*
X9165000Y-7031000D02*
G75*
G03*
X9165000Y-7031000I-35000J0D01*
G01*
X9165000Y-7539000D02*
G75*
G03*
X9165000Y-7539000I-35000J0D01*
G01*
X9165000Y-10587000D02*
G75*
G03*
X9165000Y-10587000I-35000J0D01*
G01*
X9165000Y-11095000D02*
G75*
G03*
X9165000Y-11095000I-35000J0D01*
G01*
X9165000Y-14143000D02*
G75*
G03*
X9165000Y-14143000I-35000J0D01*
G01*
X9165000Y-14651000D02*
G75*
G03*
X9165000Y-14651000I-35000J0D01*
G01*
X9415000Y-3495000D02*
G75*
G03*
X9415000Y-3495000I-35000J0D01*
G01*
X9415000Y-4003000D02*
G75*
G03*
X9415000Y-4003000I-35000J0D01*
G01*
X9415000Y-7051000D02*
G75*
G03*
X9415000Y-7051000I-35000J0D01*
G01*
X9415000Y-7559000D02*
G75*
G03*
X9415000Y-7559000I-35000J0D01*
G01*
X9415000Y-10607000D02*
G75*
G03*
X9415000Y-10607000I-35000J0D01*
G01*
X9415000Y-11115000D02*
G75*
G03*
X9415000Y-11115000I-35000J0D01*
G01*
X9415000Y-14163000D02*
G75*
G03*
X9415000Y-14163000I-35000J0D01*
G01*
X9415000Y-14671000D02*
G75*
G03*
X9415000Y-14671000I-35000J0D01*
G01*
X9675000Y-3495000D02*
G75*
G03*
X9675000Y-3495000I-35000J0D01*
G01*
X9675000Y-4003000D02*
G75*
G03*
X9675000Y-4003000I-35000J0D01*
G01*
X9675000Y-7051000D02*
G75*
G03*
X9675000Y-7051000I-35000J0D01*
G01*
X9675000Y-7559000D02*
G75*
G03*
X9675000Y-7559000I-35000J0D01*
G01*
X9675000Y-10607000D02*
G75*
G03*
X9675000Y-10607000I-35000J0D01*
G01*
X9675000Y-11115000D02*
G75*
G03*
X9675000Y-11115000I-35000J0D01*
G01*
X9675000Y-14163000D02*
G75*
G03*
X9675000Y-14163000I-35000J0D01*
G01*
X9675000Y-14671000D02*
G75*
G03*
X9675000Y-14671000I-35000J0D01*
G01*
X9925000Y-3495000D02*
G75*
G03*
X9925000Y-3495000I-35000J0D01*
G01*
X9925000Y-4003000D02*
G75*
G03*
X9925000Y-4003000I-35000J0D01*
G01*
X9925000Y-7051000D02*
G75*
G03*
X9925000Y-7051000I-35000J0D01*
G01*
X9925000Y-7559000D02*
G75*
G03*
X9925000Y-7559000I-35000J0D01*
G01*
X9925000Y-10607000D02*
G75*
G03*
X9925000Y-10607000I-35000J0D01*
G01*
X9925000Y-11115000D02*
G75*
G03*
X9925000Y-11115000I-35000J0D01*
G01*
X9925000Y-14163000D02*
G75*
G03*
X9925000Y-14163000I-35000J0D01*
G01*
X9925000Y-14671000D02*
G75*
G03*
X9925000Y-14671000I-35000J0D01*
G01*
X10175000Y-3489000D02*
G75*
G03*
X10175000Y-3489000I-35000J0D01*
G01*
X10175000Y-3997000D02*
G75*
G03*
X10175000Y-3997000I-35000J0D01*
G01*
X10175000Y-7045000D02*
G75*
G03*
X10175000Y-7045000I-35000J0D01*
G01*
X10175000Y-7553000D02*
G75*
G03*
X10175000Y-7553000I-35000J0D01*
G01*
X10175000Y-10601000D02*
G75*
G03*
X10175000Y-10601000I-35000J0D01*
G01*
X10175000Y-11109000D02*
G75*
G03*
X10175000Y-11109000I-35000J0D01*
G01*
X10175000Y-14157000D02*
G75*
G03*
X10175000Y-14157000I-35000J0D01*
G01*
X10175000Y-14665000D02*
G75*
G03*
X10175000Y-14665000I-35000J0D01*
G01*
X10435000Y-3489000D02*
G75*
G03*
X10435000Y-3489000I-35000J0D01*
G01*
X10435000Y-3997000D02*
G75*
G03*
X10435000Y-3997000I-35000J0D01*
G01*
X10435000Y-7045000D02*
G75*
G03*
X10435000Y-7045000I-35000J0D01*
G01*
X10435000Y-7553000D02*
G75*
G03*
X10435000Y-7553000I-35000J0D01*
G01*
X10435000Y-10601000D02*
G75*
G03*
X10435000Y-10601000I-35000J0D01*
G01*
X10435000Y-11109000D02*
G75*
G03*
X10435000Y-11109000I-35000J0D01*
G01*
X10435000Y-14157000D02*
G75*
G03*
X10435000Y-14157000I-35000J0D01*
G01*
X10435000Y-14665000D02*
G75*
G03*
X10435000Y-14665000I-35000J0D01*
G01*
X10671000Y-3529000D02*
G75*
G03*
X10671000Y-3529000I-35000J0D01*
G01*
X10671000Y-3789000D02*
G75*
G03*
X10671000Y-3789000I-35000J0D01*
G01*
X10671000Y-4049000D02*
G75*
G03*
X10671000Y-4049000I-35000J0D01*
G01*
X10671000Y-4289000D02*
G75*
G03*
X10671000Y-4289000I-35000J0D01*
G01*
X10671000Y-4549000D02*
G75*
G03*
X10671000Y-4549000I-35000J0D01*
G01*
X10671000Y-4799000D02*
G75*
G03*
X10671000Y-4799000I-35000J0D01*
G01*
X10671000Y-5059000D02*
G75*
G03*
X10671000Y-5059000I-35000J0D01*
G01*
X10671000Y-5309000D02*
G75*
G03*
X10671000Y-5309000I-35000J0D01*
G01*
X10671000Y-7085000D02*
G75*
G03*
X10671000Y-7085000I-35000J0D01*
G01*
X10671000Y-7345000D02*
G75*
G03*
X10671000Y-7345000I-35000J0D01*
G01*
X10671000Y-7605000D02*
G75*
G03*
X10671000Y-7605000I-35000J0D01*
G01*
X10671000Y-7845000D02*
G75*
G03*
X10671000Y-7845000I-35000J0D01*
G01*
X10671000Y-8105000D02*
G75*
G03*
X10671000Y-8105000I-35000J0D01*
G01*
X10671000Y-8355000D02*
G75*
G03*
X10671000Y-8355000I-35000J0D01*
G01*
X10671000Y-8615000D02*
G75*
G03*
X10671000Y-8615000I-35000J0D01*
G01*
X10671000Y-8865000D02*
G75*
G03*
X10671000Y-8865000I-35000J0D01*
G01*
X10671000Y-10641000D02*
G75*
G03*
X10671000Y-10641000I-35000J0D01*
G01*
X10671000Y-10901000D02*
G75*
G03*
X10671000Y-10901000I-35000J0D01*
G01*
X10671000Y-11161000D02*
G75*
G03*
X10671000Y-11161000I-35000J0D01*
G01*
X10671000Y-11401000D02*
G75*
G03*
X10671000Y-11401000I-35000J0D01*
G01*
X10671000Y-11661000D02*
G75*
G03*
X10671000Y-11661000I-35000J0D01*
G01*
X10671000Y-11911000D02*
G75*
G03*
X10671000Y-11911000I-35000J0D01*
G01*
X10671000Y-12171000D02*
G75*
G03*
X10671000Y-12171000I-35000J0D01*
G01*
X10671000Y-12421000D02*
G75*
G03*
X10671000Y-12421000I-35000J0D01*
G01*
X10671000Y-14197000D02*
G75*
G03*
X10671000Y-14197000I-35000J0D01*
G01*
X10671000Y-14457000D02*
G75*
G03*
X10671000Y-14457000I-35000J0D01*
G01*
X10671000Y-14717000D02*
G75*
G03*
X10671000Y-14717000I-35000J0D01*
G01*
X10671000Y-14957000D02*
G75*
G03*
X10671000Y-14957000I-35000J0D01*
G01*
X10671000Y-15217000D02*
G75*
G03*
X10671000Y-15217000I-35000J0D01*
G01*
X10671000Y-15467000D02*
G75*
G03*
X10671000Y-15467000I-35000J0D01*
G01*
X10671000Y-15727000D02*
G75*
G03*
X10671000Y-15727000I-35000J0D01*
G01*
X10671000Y-15977000D02*
G75*
G03*
X10671000Y-15977000I-35000J0D01*
G01*
X11179000Y-3529000D02*
G75*
G03*
X11179000Y-3529000I-35000J0D01*
G01*
X11179000Y-3789000D02*
G75*
G03*
X11179000Y-3789000I-35000J0D01*
G01*
X11179000Y-4049000D02*
G75*
G03*
X11179000Y-4049000I-35000J0D01*
G01*
X11179000Y-4289000D02*
G75*
G03*
X11179000Y-4289000I-35000J0D01*
G01*
X11179000Y-4549000D02*
G75*
G03*
X11179000Y-4549000I-35000J0D01*
G01*
X11179000Y-4799000D02*
G75*
G03*
X11179000Y-4799000I-35000J0D01*
G01*
X11179000Y-5059000D02*
G75*
G03*
X11179000Y-5059000I-35000J0D01*
G01*
X11179000Y-5309000D02*
G75*
G03*
X11179000Y-5309000I-35000J0D01*
G01*
X11179000Y-7085000D02*
G75*
G03*
X11179000Y-7085000I-35000J0D01*
G01*
X11179000Y-7345000D02*
G75*
G03*
X11179000Y-7345000I-35000J0D01*
G01*
X11179000Y-7605000D02*
G75*
G03*
X11179000Y-7605000I-35000J0D01*
G01*
X11179000Y-7845000D02*
G75*
G03*
X11179000Y-7845000I-35000J0D01*
G01*
X11179000Y-8105000D02*
G75*
G03*
X11179000Y-8105000I-35000J0D01*
G01*
X11179000Y-8355000D02*
G75*
G03*
X11179000Y-8355000I-35000J0D01*
G01*
X11179000Y-8615000D02*
G75*
G03*
X11179000Y-8615000I-35000J0D01*
G01*
X11179000Y-8865000D02*
G75*
G03*
X11179000Y-8865000I-35000J0D01*
G01*
X11179000Y-10641000D02*
G75*
G03*
X11179000Y-10641000I-35000J0D01*
G01*
X11179000Y-10901000D02*
G75*
G03*
X11179000Y-10901000I-35000J0D01*
G01*
X11179000Y-11161000D02*
G75*
G03*
X11179000Y-11161000I-35000J0D01*
G01*
X11179000Y-11401000D02*
G75*
G03*
X11179000Y-11401000I-35000J0D01*
G01*
X11179000Y-11661000D02*
G75*
G03*
X11179000Y-11661000I-35000J0D01*
G01*
X11179000Y-11911000D02*
G75*
G03*
X11179000Y-11911000I-35000J0D01*
G01*
X11179000Y-12171000D02*
G75*
G03*
X11179000Y-12171000I-35000J0D01*
G01*
X11179000Y-12421000D02*
G75*
G03*
X11179000Y-12421000I-35000J0D01*
G01*
X11179000Y-14197000D02*
G75*
G03*
X11179000Y-14197000I-35000J0D01*
G01*
X11179000Y-14457000D02*
G75*
G03*
X11179000Y-14457000I-35000J0D01*
G01*
X11179000Y-14717000D02*
G75*
G03*
X11179000Y-14717000I-35000J0D01*
G01*
X11179000Y-14957000D02*
G75*
G03*
X11179000Y-14957000I-35000J0D01*
G01*
X11179000Y-15217000D02*
G75*
G03*
X11179000Y-15217000I-35000J0D01*
G01*
X11179000Y-15467000D02*
G75*
G03*
X11179000Y-15467000I-35000J0D01*
G01*
X11179000Y-15727000D02*
G75*
G03*
X11179000Y-15727000I-35000J0D01*
G01*
X11179000Y-15977000D02*
G75*
G03*
X11179000Y-15977000I-35000J0D01*
G01*
D14*
X8783500Y-5209000D02*
X8783500Y-5289000D01*
X8743500Y-5249000D02*
X8823500Y-5249000D01*
X8783500Y-5971000D02*
X8783500Y-6051000D01*
X8743500Y-6011000D02*
X8823500Y-6011000D01*
X8783500Y-8765000D02*
X8783500Y-8845000D01*
X8743500Y-8805000D02*
X8823500Y-8805000D01*
X8783500Y-9527000D02*
X8783500Y-9607000D01*
X8743500Y-9567000D02*
X8823500Y-9567000D01*
X8783500Y-12321000D02*
X8783500Y-12401000D01*
X8743500Y-12361000D02*
X8823500Y-12361000D01*
X8783500Y-13083000D02*
X8783500Y-13163000D01*
X8743500Y-13123000D02*
X8823500Y-13123000D01*
X8783500Y-15877000D02*
X8783500Y-15957000D01*
X8743500Y-15917000D02*
X8823500Y-15917000D01*
X8783500Y-16639000D02*
X8783500Y-16719000D01*
X8743500Y-16679000D02*
X8823500Y-16679000D01*
X8786000Y-4209000D02*
X8786000Y-4289000D01*
X8746000Y-4249000D02*
X8826000Y-4249000D01*
X8786000Y-4971000D02*
X8786000Y-5051000D01*
X8746000Y-5011000D02*
X8826000Y-5011000D01*
X8786000Y-7765000D02*
X8786000Y-7845000D01*
X8746000Y-7805000D02*
X8826000Y-7805000D01*
X8786000Y-8527000D02*
X8786000Y-8607000D01*
X8746000Y-8567000D02*
X8826000Y-8567000D01*
X8786000Y-11321000D02*
X8786000Y-11401000D01*
X8746000Y-11361000D02*
X8826000Y-11361000D01*
X8786000Y-12083000D02*
X8786000Y-12163000D01*
X8746000Y-12123000D02*
X8826000Y-12123000D01*
X8786000Y-14877000D02*
X8786000Y-14957000D01*
X8746000Y-14917000D02*
X8826000Y-14917000D01*
X8786000Y-15639000D02*
X8786000Y-15719000D01*
X8746000Y-15679000D02*
X8826000Y-15679000D01*
X9037500Y-5209000D02*
X9037500Y-5289000D01*
X8997500Y-5249000D02*
X9077500Y-5249000D01*
X9037500Y-5971000D02*
X9037500Y-6051000D01*
X8997500Y-6011000D02*
X9077500Y-6011000D01*
X9037500Y-8765000D02*
X9037500Y-8845000D01*
X8997500Y-8805000D02*
X9077500Y-8805000D01*
X9037500Y-9527000D02*
X9037500Y-9607000D01*
X8997500Y-9567000D02*
X9077500Y-9567000D01*
X9037500Y-12321000D02*
X9037500Y-12401000D01*
X8997500Y-12361000D02*
X9077500Y-12361000D01*
X9037500Y-13083000D02*
X9037500Y-13163000D01*
X8997500Y-13123000D02*
X9077500Y-13123000D01*
X9037500Y-15877000D02*
X9037500Y-15957000D01*
X8997500Y-15917000D02*
X9077500Y-15917000D01*
X9037500Y-16639000D02*
X9037500Y-16719000D01*
X8997500Y-16679000D02*
X9077500Y-16679000D01*
X9040000Y-4209000D02*
X9040000Y-4289000D01*
X9000000Y-4249000D02*
X9080000Y-4249000D01*
X9040000Y-4971000D02*
X9040000Y-5051000D01*
X9000000Y-5011000D02*
X9080000Y-5011000D01*
X9040000Y-7765000D02*
X9040000Y-7845000D01*
X9000000Y-7805000D02*
X9080000Y-7805000D01*
X9040000Y-8527000D02*
X9040000Y-8607000D01*
X9000000Y-8567000D02*
X9080000Y-8567000D01*
X9040000Y-11321000D02*
X9040000Y-11401000D01*
X9000000Y-11361000D02*
X9080000Y-11361000D01*
X9040000Y-12083000D02*
X9040000Y-12163000D01*
X9000000Y-12123000D02*
X9080000Y-12123000D01*
X9040000Y-14877000D02*
X9040000Y-14957000D01*
X9000000Y-14917000D02*
X9080000Y-14917000D01*
X9040000Y-15639000D02*
X9040000Y-15719000D01*
X9000000Y-15679000D02*
X9080000Y-15679000D01*
X9291500Y-5209000D02*
X9291500Y-5289000D01*
X9251500Y-5249000D02*
X9331500Y-5249000D01*
X9291500Y-5971000D02*
X9291500Y-6051000D01*
X9251500Y-6011000D02*
X9331500Y-6011000D01*
X9291500Y-8765000D02*
X9291500Y-8845000D01*
X9251500Y-8805000D02*
X9331500Y-8805000D01*
X9291500Y-9527000D02*
X9291500Y-9607000D01*
X9251500Y-9567000D02*
X9331500Y-9567000D01*
X9291500Y-12321000D02*
X9291500Y-12401000D01*
X9251500Y-12361000D02*
X9331500Y-12361000D01*
X9291500Y-13083000D02*
X9291500Y-13163000D01*
X9251500Y-13123000D02*
X9331500Y-13123000D01*
X9291500Y-15877000D02*
X9291500Y-15957000D01*
X9251500Y-15917000D02*
X9331500Y-15917000D01*
X9291500Y-16639000D02*
X9291500Y-16719000D01*
X9251500Y-16679000D02*
X9331500Y-16679000D01*
X9294000Y-4209000D02*
X9294000Y-4289000D01*
X9254000Y-4249000D02*
X9334000Y-4249000D01*
X9294000Y-4971000D02*
X9294000Y-5051000D01*
X9254000Y-5011000D02*
X9334000Y-5011000D01*
X9294000Y-7765000D02*
X9294000Y-7845000D01*
X9254000Y-7805000D02*
X9334000Y-7805000D01*
X9294000Y-8527000D02*
X9294000Y-8607000D01*
X9254000Y-8567000D02*
X9334000Y-8567000D01*
X9294000Y-11321000D02*
X9294000Y-11401000D01*
X9254000Y-11361000D02*
X9334000Y-11361000D01*
X9294000Y-12083000D02*
X9294000Y-12163000D01*
X9254000Y-12123000D02*
X9334000Y-12123000D01*
X9294000Y-14877000D02*
X9294000Y-14957000D01*
X9254000Y-14917000D02*
X9334000Y-14917000D01*
X9294000Y-15639000D02*
X9294000Y-15719000D01*
X9254000Y-15679000D02*
X9334000Y-15679000D01*
X9545500Y-5209000D02*
X9545500Y-5289000D01*
X9505500Y-5249000D02*
X9585500Y-5249000D01*
X9545500Y-5971000D02*
X9545500Y-6051000D01*
X9505500Y-6011000D02*
X9585500Y-6011000D01*
X9545500Y-8765000D02*
X9545500Y-8845000D01*
X9505500Y-8805000D02*
X9585500Y-8805000D01*
X9545500Y-9527000D02*
X9545500Y-9607000D01*
X9505500Y-9567000D02*
X9585500Y-9567000D01*
X9545500Y-12321000D02*
X9545500Y-12401000D01*
X9505500Y-12361000D02*
X9585500Y-12361000D01*
X9545500Y-13083000D02*
X9545500Y-13163000D01*
X9505500Y-13123000D02*
X9585500Y-13123000D01*
X9545500Y-15877000D02*
X9545500Y-15957000D01*
X9505500Y-15917000D02*
X9585500Y-15917000D01*
X9545500Y-16639000D02*
X9545500Y-16719000D01*
X9505500Y-16679000D02*
X9585500Y-16679000D01*
X9548000Y-4209000D02*
X9548000Y-4289000D01*
X9508000Y-4249000D02*
X9588000Y-4249000D01*
X9548000Y-4971000D02*
X9548000Y-5051000D01*
X9508000Y-5011000D02*
X9588000Y-5011000D01*
X9548000Y-7765000D02*
X9548000Y-7845000D01*
X9508000Y-7805000D02*
X9588000Y-7805000D01*
X9548000Y-8527000D02*
X9548000Y-8607000D01*
X9508000Y-8567000D02*
X9588000Y-8567000D01*
X9548000Y-11321000D02*
X9548000Y-11401000D01*
X9508000Y-11361000D02*
X9588000Y-11361000D01*
X9548000Y-12083000D02*
X9548000Y-12163000D01*
X9508000Y-12123000D02*
X9588000Y-12123000D01*
X9548000Y-14877000D02*
X9548000Y-14957000D01*
X9508000Y-14917000D02*
X9588000Y-14917000D01*
X9548000Y-15639000D02*
X9548000Y-15719000D01*
X9508000Y-15679000D02*
X9588000Y-15679000D01*
X9799500Y-5209000D02*
X9799500Y-5289000D01*
X9759500Y-5249000D02*
X9839500Y-5249000D01*
X9799500Y-5971000D02*
X9799500Y-6051000D01*
X9759500Y-6011000D02*
X9839500Y-6011000D01*
X9799500Y-8765000D02*
X9799500Y-8845000D01*
X9759500Y-8805000D02*
X9839500Y-8805000D01*
X9799500Y-9527000D02*
X9799500Y-9607000D01*
X9759500Y-9567000D02*
X9839500Y-9567000D01*
X9799500Y-12321000D02*
X9799500Y-12401000D01*
X9759500Y-12361000D02*
X9839500Y-12361000D01*
X9799500Y-13083000D02*
X9799500Y-13163000D01*
X9759500Y-13123000D02*
X9839500Y-13123000D01*
X9799500Y-15877000D02*
X9799500Y-15957000D01*
X9759500Y-15917000D02*
X9839500Y-15917000D01*
X9799500Y-16639000D02*
X9799500Y-16719000D01*
X9759500Y-16679000D02*
X9839500Y-16679000D01*
X9802000Y-4209000D02*
X9802000Y-4289000D01*
X9762000Y-4249000D02*
X9842000Y-4249000D01*
X9802000Y-4971000D02*
X9802000Y-5051000D01*
X9762000Y-5011000D02*
X9842000Y-5011000D01*
X9802000Y-7765000D02*
X9802000Y-7845000D01*
X9762000Y-7805000D02*
X9842000Y-7805000D01*
X9802000Y-8527000D02*
X9802000Y-8607000D01*
X9762000Y-8567000D02*
X9842000Y-8567000D01*
X9802000Y-11321000D02*
X9802000Y-11401000D01*
X9762000Y-11361000D02*
X9842000Y-11361000D01*
X9802000Y-12083000D02*
X9802000Y-12163000D01*
X9762000Y-12123000D02*
X9842000Y-12123000D01*
X9802000Y-14877000D02*
X9802000Y-14957000D01*
X9762000Y-14917000D02*
X9842000Y-14917000D01*
X9802000Y-15639000D02*
X9802000Y-15719000D01*
X9762000Y-15679000D02*
X9842000Y-15679000D01*
X10053500Y-5209000D02*
X10053500Y-5289000D01*
X10013500Y-5249000D02*
X10093500Y-5249000D01*
X10053500Y-5971000D02*
X10053500Y-6051000D01*
X10013500Y-6011000D02*
X10093500Y-6011000D01*
X10053500Y-8765000D02*
X10053500Y-8845000D01*
X10013500Y-8805000D02*
X10093500Y-8805000D01*
X10053500Y-9527000D02*
X10053500Y-9607000D01*
X10013500Y-9567000D02*
X10093500Y-9567000D01*
X10053500Y-12321000D02*
X10053500Y-12401000D01*
X10013500Y-12361000D02*
X10093500Y-12361000D01*
X10053500Y-13083000D02*
X10053500Y-13163000D01*
X10013500Y-13123000D02*
X10093500Y-13123000D01*
X10053500Y-15877000D02*
X10053500Y-15957000D01*
X10013500Y-15917000D02*
X10093500Y-15917000D01*
X10053500Y-16639000D02*
X10053500Y-16719000D01*
X10013500Y-16679000D02*
X10093500Y-16679000D01*
X10056000Y-4209000D02*
X10056000Y-4289000D01*
X10016000Y-4249000D02*
X10096000Y-4249000D01*
X10056000Y-4971000D02*
X10056000Y-5051000D01*
X10016000Y-5011000D02*
X10096000Y-5011000D01*
X10056000Y-7765000D02*
X10056000Y-7845000D01*
X10016000Y-7805000D02*
X10096000Y-7805000D01*
X10056000Y-8527000D02*
X10056000Y-8607000D01*
X10016000Y-8567000D02*
X10096000Y-8567000D01*
X10056000Y-11321000D02*
X10056000Y-11401000D01*
X10016000Y-11361000D02*
X10096000Y-11361000D01*
X10056000Y-12083000D02*
X10056000Y-12163000D01*
X10016000Y-12123000D02*
X10096000Y-12123000D01*
X10056000Y-14877000D02*
X10056000Y-14957000D01*
X10016000Y-14917000D02*
X10096000Y-14917000D01*
X10056000Y-15639000D02*
X10056000Y-15719000D01*
X10016000Y-15679000D02*
X10096000Y-15679000D01*
X10307500Y-5209000D02*
X10307500Y-5289000D01*
X10267500Y-5249000D02*
X10347500Y-5249000D01*
X10307500Y-5971000D02*
X10307500Y-6051000D01*
X10267500Y-6011000D02*
X10347500Y-6011000D01*
X10307500Y-8765000D02*
X10307500Y-8845000D01*
X10267500Y-8805000D02*
X10347500Y-8805000D01*
X10307500Y-9527000D02*
X10307500Y-9607000D01*
X10267500Y-9567000D02*
X10347500Y-9567000D01*
X10307500Y-12321000D02*
X10307500Y-12401000D01*
X10267500Y-12361000D02*
X10347500Y-12361000D01*
X10307500Y-13083000D02*
X10307500Y-13163000D01*
X10267500Y-13123000D02*
X10347500Y-13123000D01*
X10307500Y-15877000D02*
X10307500Y-15957000D01*
X10267500Y-15917000D02*
X10347500Y-15917000D01*
X10307500Y-16639000D02*
X10307500Y-16719000D01*
X10267500Y-16679000D02*
X10347500Y-16679000D01*
X10310000Y-4209000D02*
X10310000Y-4289000D01*
X10270000Y-4249000D02*
X10350000Y-4249000D01*
X10310000Y-4971000D02*
X10310000Y-5051000D01*
X10270000Y-5011000D02*
X10350000Y-5011000D01*
X10310000Y-7765000D02*
X10310000Y-7845000D01*
X10270000Y-7805000D02*
X10350000Y-7805000D01*
X10310000Y-8527000D02*
X10310000Y-8607000D01*
X10270000Y-8567000D02*
X10350000Y-8567000D01*
X10310000Y-11321000D02*
X10310000Y-11401000D01*
X10270000Y-11361000D02*
X10350000Y-11361000D01*
X10310000Y-12083000D02*
X10310000Y-12163000D01*
X10270000Y-12123000D02*
X10350000Y-12123000D01*
X10310000Y-14877000D02*
X10310000Y-14957000D01*
X10270000Y-14917000D02*
X10350000Y-14917000D01*
X10310000Y-15639000D02*
X10310000Y-15719000D01*
X10270000Y-15679000D02*
X10350000Y-15679000D01*
X10760900Y-10272400D02*
X10760900Y-10352400D01*
X10720900Y-10312400D02*
X10800900Y-10312400D01*
X10845800Y-3020700D02*
X10845800Y-3100700D01*
X10805800Y-3060700D02*
X10885800Y-3060700D01*
X10922000Y-5802000D02*
X10922000Y-5882000D01*
X10882000Y-5842000D02*
X10962000Y-5842000D01*
X10922000Y-6564000D02*
X10922000Y-6644000D01*
X10882000Y-6604000D02*
X10962000Y-6604000D01*
X10922500Y-9232000D02*
X10922500Y-9312000D01*
X10882500Y-9272000D02*
X10962500Y-9272000D01*
X10922500Y-9994000D02*
X10922500Y-10074000D01*
X10882500Y-10034000D02*
X10962500Y-10034000D01*
X10926000Y-16355700D02*
X10926000Y-16435700D01*
X10886000Y-16395700D02*
X10966000Y-16395700D01*
X11176000Y-5802000D02*
X11176000Y-5882000D01*
X11136000Y-5842000D02*
X11216000Y-5842000D01*
X11176000Y-6564000D02*
X11176000Y-6644000D01*
X11136000Y-6604000D02*
X11216000Y-6604000D01*
X11176000Y-12914000D02*
X11176000Y-12994000D01*
X11136000Y-12954000D02*
X11216000Y-12954000D01*
X11176000Y-13676000D02*
X11176000Y-13756000D01*
X11136000Y-13716000D02*
X11216000Y-13716000D01*
X11176500Y-9232000D02*
X11176500Y-9312000D01*
X11136500Y-9272000D02*
X11216500Y-9272000D01*
X11176500Y-9994000D02*
X11176500Y-10074000D01*
X11136500Y-10034000D02*
X11216500Y-10034000D01*
X11260900Y-10272400D02*
X11260900Y-10352400D01*
X11220900Y-10312400D02*
X11300900Y-10312400D01*
X11345800Y-3020700D02*
X11345800Y-3100700D01*
X11305800Y-3060700D02*
X11385800Y-3060700D01*
X11426000Y-16355700D02*
X11426000Y-16435700D01*
X11386000Y-16395700D02*
X11466000Y-16395700D01*
X11430000Y-5802000D02*
X11430000Y-5882000D01*
X11390000Y-5842000D02*
X11470000Y-5842000D01*
X11430000Y-6564000D02*
X11430000Y-6644000D01*
X11390000Y-6604000D02*
X11470000Y-6604000D01*
X11430000Y-12914000D02*
X11430000Y-12994000D01*
X11390000Y-12954000D02*
X11470000Y-12954000D01*
X11430000Y-13676000D02*
X11430000Y-13756000D01*
X11390000Y-13716000D02*
X11470000Y-13716000D01*
X11430500Y-9232000D02*
X11430500Y-9312000D01*
X11390500Y-9272000D02*
X11470500Y-9272000D01*
X11430500Y-9994000D02*
X11430500Y-10074000D01*
X11390500Y-10034000D02*
X11470500Y-10034000D01*
X11684000Y-5802000D02*
X11684000Y-5882000D01*
X11644000Y-5842000D02*
X11724000Y-5842000D01*
X11684000Y-6564000D02*
X11684000Y-6644000D01*
X11644000Y-6604000D02*
X11724000Y-6604000D01*
X11684000Y-12914000D02*
X11684000Y-12994000D01*
X11644000Y-12954000D02*
X11724000Y-12954000D01*
X11684000Y-13676000D02*
X11684000Y-13756000D01*
X11644000Y-13716000D02*
X11724000Y-13716000D01*
X11684500Y-9232000D02*
X11684500Y-9312000D01*
X11644500Y-9272000D02*
X11724500Y-9272000D01*
X11684500Y-9994000D02*
X11684500Y-10074000D01*
X11644500Y-10034000D02*
X11724500Y-10034000D01*
X11938000Y-5802000D02*
X11938000Y-5882000D01*
X11898000Y-5842000D02*
X11978000Y-5842000D01*
X11938000Y-6564000D02*
X11938000Y-6644000D01*
X11898000Y-6604000D02*
X11978000Y-6604000D01*
X11938000Y-12914000D02*
X11938000Y-12994000D01*
X11898000Y-12954000D02*
X11978000Y-12954000D01*
X11938000Y-13676000D02*
X11938000Y-13756000D01*
X11898000Y-13716000D02*
X11978000Y-13716000D01*
X11938500Y-9232000D02*
X11938500Y-9312000D01*
X11898500Y-9272000D02*
X11978500Y-9272000D01*
X11938500Y-9994000D02*
X11938500Y-10074000D01*
X11898500Y-10034000D02*
X11978500Y-10034000D01*
X12161900Y-8926200D02*
X12161900Y-9006200D01*
X12121900Y-8966200D02*
X12201900Y-8966200D01*
X12192000Y-3516000D02*
X12192000Y-3596000D01*
X12152000Y-3556000D02*
X12232000Y-3556000D01*
X12192000Y-3770000D02*
X12192000Y-3850000D01*
X12152000Y-3810000D02*
X12232000Y-3810000D01*
X12192000Y-4024000D02*
X12192000Y-4104000D01*
X12152000Y-4064000D02*
X12232000Y-4064000D01*
X12192000Y-4278000D02*
X12192000Y-4358000D01*
X12152000Y-4318000D02*
X12232000Y-4318000D01*
X12192000Y-4532000D02*
X12192000Y-4612000D01*
X12152000Y-4572000D02*
X12232000Y-4572000D01*
X12192000Y-4786000D02*
X12192000Y-4866000D01*
X12152000Y-4826000D02*
X12232000Y-4826000D01*
X12192000Y-5040000D02*
X12192000Y-5120000D01*
X12152000Y-5080000D02*
X12232000Y-5080000D01*
X12192000Y-5802000D02*
X12192000Y-5882000D01*
X12152000Y-5842000D02*
X12232000Y-5842000D01*
X12192000Y-6564000D02*
X12192000Y-6644000D01*
X12152000Y-6604000D02*
X12232000Y-6604000D01*
X12192000Y-7072000D02*
X12192000Y-7152000D01*
X12152000Y-7112000D02*
X12232000Y-7112000D01*
X12192000Y-7326000D02*
X12192000Y-7406000D01*
X12152000Y-7366000D02*
X12232000Y-7366000D01*
X12192000Y-7580000D02*
X12192000Y-7660000D01*
X12152000Y-7620000D02*
X12232000Y-7620000D01*
X12192000Y-7834000D02*
X12192000Y-7914000D01*
X12152000Y-7874000D02*
X12232000Y-7874000D01*
X12192000Y-8088000D02*
X12192000Y-8168000D01*
X12152000Y-8128000D02*
X12232000Y-8128000D01*
X12192000Y-8342000D02*
X12192000Y-8422000D01*
X12152000Y-8382000D02*
X12232000Y-8382000D01*
X12192000Y-8596000D02*
X12192000Y-8676000D01*
X12152000Y-8636000D02*
X12232000Y-8636000D01*
X12192000Y-10628000D02*
X12192000Y-10708000D01*
X12152000Y-10668000D02*
X12232000Y-10668000D01*
X12192000Y-10882000D02*
X12192000Y-10962000D01*
X12152000Y-10922000D02*
X12232000Y-10922000D01*
X12192000Y-11136000D02*
X12192000Y-11216000D01*
X12152000Y-11176000D02*
X12232000Y-11176000D01*
X12192000Y-11390000D02*
X12192000Y-11470000D01*
X12152000Y-11430000D02*
X12232000Y-11430000D01*
X12192000Y-11644000D02*
X12192000Y-11724000D01*
X12152000Y-11684000D02*
X12232000Y-11684000D01*
X12192000Y-11898000D02*
X12192000Y-11978000D01*
X12152000Y-11938000D02*
X12232000Y-11938000D01*
X12192000Y-12152000D02*
X12192000Y-12232000D01*
X12152000Y-12192000D02*
X12232000Y-12192000D01*
X12192000Y-12914000D02*
X12192000Y-12994000D01*
X12152000Y-12954000D02*
X12232000Y-12954000D01*
X12192000Y-13676000D02*
X12192000Y-13756000D01*
X12152000Y-13716000D02*
X12232000Y-13716000D01*
X12192000Y-14184000D02*
X12192000Y-14264000D01*
X12152000Y-14224000D02*
X12232000Y-14224000D01*
X12192000Y-14438000D02*
X12192000Y-14518000D01*
X12152000Y-14478000D02*
X12232000Y-14478000D01*
X12192000Y-14692000D02*
X12192000Y-14772000D01*
X12152000Y-14732000D02*
X12232000Y-14732000D01*
X12192000Y-14946000D02*
X12192000Y-15026000D01*
X12152000Y-14986000D02*
X12232000Y-14986000D01*
X12192000Y-15200000D02*
X12192000Y-15280000D01*
X12152000Y-15240000D02*
X12232000Y-15240000D01*
X12192000Y-15454000D02*
X12192000Y-15534000D01*
X12152000Y-15494000D02*
X12232000Y-15494000D01*
X12192000Y-15708000D02*
X12192000Y-15788000D01*
X12152000Y-15748000D02*
X12232000Y-15748000D01*
X12192500Y-9232000D02*
X12192500Y-9312000D01*
X12152500Y-9272000D02*
X12232500Y-9272000D01*
X12192500Y-9994000D02*
X12192500Y-10074000D01*
X12152500Y-10034000D02*
X12232500Y-10034000D01*
X12446000Y-5802000D02*
X12446000Y-5882000D01*
X12406000Y-5842000D02*
X12486000Y-5842000D01*
X12446000Y-6564000D02*
X12446000Y-6644000D01*
X12406000Y-6604000D02*
X12486000Y-6604000D01*
X12446000Y-12914000D02*
X12446000Y-12994000D01*
X12406000Y-12954000D02*
X12486000Y-12954000D01*
X12446000Y-13676000D02*
X12446000Y-13756000D01*
X12406000Y-13716000D02*
X12486000Y-13716000D01*
X12446500Y-9232000D02*
X12446500Y-9312000D01*
X12406500Y-9272000D02*
X12486500Y-9272000D01*
X12446500Y-9994000D02*
X12446500Y-10074000D01*
X12406500Y-10034000D02*
X12486500Y-10034000D01*
X12661900Y-8926200D02*
X12661900Y-9006200D01*
X12621900Y-8966200D02*
X12701900Y-8966200D01*
X12700000Y-12914000D02*
X12700000Y-12994000D01*
X12660000Y-12954000D02*
X12740000Y-12954000D01*
X12700000Y-13676000D02*
X12700000Y-13756000D01*
X12660000Y-13716000D02*
X12740000Y-13716000D01*
X12954000Y-3516000D02*
X12954000Y-3596000D01*
X12914000Y-3556000D02*
X12994000Y-3556000D01*
X12954000Y-3770000D02*
X12954000Y-3850000D01*
X12914000Y-3810000D02*
X12994000Y-3810000D01*
X12954000Y-4024000D02*
X12954000Y-4104000D01*
X12914000Y-4064000D02*
X12994000Y-4064000D01*
X12954000Y-4278000D02*
X12954000Y-4358000D01*
X12914000Y-4318000D02*
X12994000Y-4318000D01*
X12954000Y-4532000D02*
X12954000Y-4612000D01*
X12914000Y-4572000D02*
X12994000Y-4572000D01*
X12954000Y-4786000D02*
X12954000Y-4866000D01*
X12914000Y-4826000D02*
X12994000Y-4826000D01*
X12954000Y-5040000D02*
X12954000Y-5120000D01*
X12914000Y-5080000D02*
X12994000Y-5080000D01*
X12954000Y-7072000D02*
X12954000Y-7152000D01*
X12914000Y-7112000D02*
X12994000Y-7112000D01*
X12954000Y-7326000D02*
X12954000Y-7406000D01*
X12914000Y-7366000D02*
X12994000Y-7366000D01*
X12954000Y-7580000D02*
X12954000Y-7660000D01*
X12914000Y-7620000D02*
X12994000Y-7620000D01*
X12954000Y-7834000D02*
X12954000Y-7914000D01*
X12914000Y-7874000D02*
X12994000Y-7874000D01*
X12954000Y-8088000D02*
X12954000Y-8168000D01*
X12914000Y-8128000D02*
X12994000Y-8128000D01*
X12954000Y-8342000D02*
X12954000Y-8422000D01*
X12914000Y-8382000D02*
X12994000Y-8382000D01*
X12954000Y-8596000D02*
X12954000Y-8676000D01*
X12914000Y-8636000D02*
X12994000Y-8636000D01*
X12954000Y-10628000D02*
X12954000Y-10708000D01*
X12914000Y-10668000D02*
X12994000Y-10668000D01*
X12954000Y-10882000D02*
X12954000Y-10962000D01*
X12914000Y-10922000D02*
X12994000Y-10922000D01*
X12954000Y-11136000D02*
X12954000Y-11216000D01*
X12914000Y-11176000D02*
X12994000Y-11176000D01*
X12954000Y-11390000D02*
X12954000Y-11470000D01*
X12914000Y-11430000D02*
X12994000Y-11430000D01*
X12954000Y-11644000D02*
X12954000Y-11724000D01*
X12914000Y-11684000D02*
X12994000Y-11684000D01*
X12954000Y-11898000D02*
X12954000Y-11978000D01*
X12914000Y-11938000D02*
X12994000Y-11938000D01*
X12954000Y-12152000D02*
X12954000Y-12232000D01*
X12914000Y-12192000D02*
X12994000Y-12192000D01*
X12954000Y-14184000D02*
X12954000Y-14264000D01*
X12914000Y-14224000D02*
X12994000Y-14224000D01*
X12954000Y-14438000D02*
X12954000Y-14518000D01*
X12914000Y-14478000D02*
X12994000Y-14478000D01*
X12954000Y-14692000D02*
X12954000Y-14772000D01*
X12914000Y-14732000D02*
X12994000Y-14732000D01*
X12954000Y-14946000D02*
X12954000Y-15026000D01*
X12914000Y-14986000D02*
X12994000Y-14986000D01*
X12954000Y-15200000D02*
X12954000Y-15280000D01*
X12914000Y-15240000D02*
X12994000Y-15240000D01*
X12954000Y-15454000D02*
X12954000Y-15534000D01*
X12914000Y-15494000D02*
X12994000Y-15494000D01*
X12954000Y-15708000D02*
X12954000Y-15788000D01*
X12914000Y-15748000D02*
X12994000Y-15748000D01*
D15*
X12814820Y-16287820D02*
X12814820Y-16224180D01*
X12751180Y-16224180D01*
X12751180Y-16287820D01*
X12814820Y-16287820D01*
X12858820Y-3079820D02*
X12858820Y-3016180D01*
X12795180Y-3016180D01*
X12795180Y-3079820D01*
X12858820Y-3079820D01*
X13068820Y-16287820D02*
X13068820Y-16224180D01*
X13005180Y-16224180D01*
X13005180Y-16287820D01*
X13068820Y-16287820D01*
X13112820Y-3079820D02*
X13112820Y-3016180D01*
X13049180Y-3016180D01*
X13049180Y-3079820D01*
X13112820Y-3079820D01*
X13112820Y-9302820D02*
X13112820Y-9239180D01*
X13049180Y-9239180D01*
X13049180Y-9302820D01*
X13112820Y-9302820D01*
X13112820Y-9556820D02*
X13112820Y-9493180D01*
X13049180Y-9493180D01*
X13049180Y-9556820D01*
X13112820Y-9556820D01*
D10*
X8128000Y-3860000D02*
X8178000Y-3810000D01*
X8128000Y-3760000D01*
X8078000Y-3810000D01*
X8128000Y-3860000D01*
X8128000Y-4114000D02*
X8178000Y-4064000D01*
X8128000Y-4014000D01*
X8078000Y-4064000D01*
X8128000Y-4114000D01*
X8128000Y-4368000D02*
X8178000Y-4318000D01*
X8128000Y-4268000D01*
X8078000Y-4318000D01*
X8128000Y-4368000D01*
X8128000Y-4622000D02*
X8178000Y-4572000D01*
X8128000Y-4522000D01*
X8078000Y-4572000D01*
X8128000Y-4622000D01*
X8128000Y-4876000D02*
X8178000Y-4826000D01*
X8128000Y-4776000D01*
X8078000Y-4826000D01*
X8128000Y-4876000D01*
X8128000Y-5130000D02*
X8178000Y-5080000D01*
X8128000Y-5030000D01*
X8078000Y-5080000D01*
X8128000Y-5130000D01*
X8128000Y-5384000D02*
X8178000Y-5334000D01*
X8128000Y-5284000D01*
X8078000Y-5334000D01*
X8128000Y-5384000D01*
X8128000Y-5638000D02*
X8178000Y-5588000D01*
X8128000Y-5538000D01*
X8078000Y-5588000D01*
X8128000Y-5638000D01*
X8128000Y-6146000D02*
X8178000Y-6096000D01*
X8128000Y-6046000D01*
X8078000Y-6096000D01*
X8128000Y-6146000D01*
X8128000Y-6400000D02*
X8178000Y-6350000D01*
X8128000Y-6300000D01*
X8078000Y-6350000D01*
X8128000Y-6400000D01*
X8128000Y-6654000D02*
X8178000Y-6604000D01*
X8128000Y-6554000D01*
X8078000Y-6604000D01*
X8128000Y-6654000D01*
X8128000Y-6908000D02*
X8178000Y-6858000D01*
X8128000Y-6808000D01*
X8078000Y-6858000D01*
X8128000Y-6908000D01*
X8128000Y-7416000D02*
X8178000Y-7366000D01*
X8128000Y-7316000D01*
X8078000Y-7366000D01*
X8128000Y-7416000D01*
X8128000Y-7670000D02*
X8178000Y-7620000D01*
X8128000Y-7570000D01*
X8078000Y-7620000D01*
X8128000Y-7670000D01*
X8128000Y-7924000D02*
X8178000Y-7874000D01*
X8128000Y-7824000D01*
X8078000Y-7874000D01*
X8128000Y-7924000D01*
X8128000Y-8178000D02*
X8178000Y-8128000D01*
X8128000Y-8078000D01*
X8078000Y-8128000D01*
X8128000Y-8178000D01*
X8128000Y-8432000D02*
X8178000Y-8382000D01*
X8128000Y-8332000D01*
X8078000Y-8382000D01*
X8128000Y-8432000D01*
X8128000Y-8686000D02*
X8178000Y-8636000D01*
X8128000Y-8586000D01*
X8078000Y-8636000D01*
X8128000Y-8686000D01*
X8128000Y-8940000D02*
X8178000Y-8890000D01*
X8128000Y-8840000D01*
X8078000Y-8890000D01*
X8128000Y-8940000D01*
X8128000Y-9194000D02*
X8178000Y-9144000D01*
X8128000Y-9094000D01*
X8078000Y-9144000D01*
X8128000Y-9194000D01*
X8128000Y-9956000D02*
X8178000Y-9906000D01*
X8128000Y-9856000D01*
X8078000Y-9906000D01*
X8128000Y-9956000D01*
X8128000Y-10210000D02*
X8178000Y-10160000D01*
X8128000Y-10110000D01*
X8078000Y-10160000D01*
X8128000Y-10210000D01*
X8128000Y-10972000D02*
X8178000Y-10922000D01*
X8128000Y-10872000D01*
X8078000Y-10922000D01*
X8128000Y-10972000D01*
X8128000Y-11226000D02*
X8178000Y-11176000D01*
X8128000Y-11126000D01*
X8078000Y-11176000D01*
X8128000Y-11226000D01*
X8128000Y-11480000D02*
X8178000Y-11430000D01*
X8128000Y-11380000D01*
X8078000Y-11430000D01*
X8128000Y-11480000D01*
X8128000Y-11734000D02*
X8178000Y-11684000D01*
X8128000Y-11634000D01*
X8078000Y-11684000D01*
X8128000Y-11734000D01*
X8128000Y-11988000D02*
X8178000Y-11938000D01*
X8128000Y-11888000D01*
X8078000Y-11938000D01*
X8128000Y-11988000D01*
X8128000Y-12242000D02*
X8178000Y-12192000D01*
X8128000Y-12142000D01*
X8078000Y-12192000D01*
X8128000Y-12242000D01*
X8128000Y-12496000D02*
X8178000Y-12446000D01*
X8128000Y-12396000D01*
X8078000Y-12446000D01*
X8128000Y-12496000D01*
X8128000Y-12750000D02*
X8178000Y-12700000D01*
X8128000Y-12650000D01*
X8078000Y-12700000D01*
X8128000Y-12750000D01*
X8128000Y-13258000D02*
X8178000Y-13208000D01*
X8128000Y-13158000D01*
X8078000Y-13208000D01*
X8128000Y-13258000D01*
X8128000Y-13512000D02*
X8178000Y-13462000D01*
X8128000Y-13412000D01*
X8078000Y-13462000D01*
X8128000Y-13512000D01*
X8128000Y-13766000D02*
X8178000Y-13716000D01*
X8128000Y-13666000D01*
X8078000Y-13716000D01*
X8128000Y-13766000D01*
X8128000Y-14020000D02*
X8178000Y-13970000D01*
X8128000Y-13920000D01*
X8078000Y-13970000D01*
X8128000Y-14020000D01*
X8128000Y-14528000D02*
X8178000Y-14478000D01*
X8128000Y-14428000D01*
X8078000Y-14478000D01*
X8128000Y-14528000D01*
X8128000Y-14782000D02*
X8178000Y-14732000D01*
X8128000Y-14682000D01*
X8078000Y-14732000D01*
X8128000Y-14782000D01*
X8128000Y-15036000D02*
X8178000Y-14986000D01*
X8128000Y-14936000D01*
X8078000Y-14986000D01*
X8128000Y-15036000D01*
X8128000Y-15290000D02*
X8178000Y-15240000D01*
X8128000Y-15190000D01*
X8078000Y-15240000D01*
X8128000Y-15290000D01*
X8128000Y-15544000D02*
X8178000Y-15494000D01*
X8128000Y-15444000D01*
X8078000Y-15494000D01*
X8128000Y-15544000D01*
X8128000Y-15798000D02*
X8178000Y-15748000D01*
X8128000Y-15698000D01*
X8078000Y-15748000D01*
X8128000Y-15798000D01*
X8128000Y-16052000D02*
X8178000Y-16002000D01*
X8128000Y-15952000D01*
X8078000Y-16002000D01*
X8128000Y-16052000D01*
X8128000Y-16306000D02*
X8178000Y-16256000D01*
X8128000Y-16206000D01*
X8078000Y-16256000D01*
X8128000Y-16306000D01*
X8636000Y-2844000D02*
X8686000Y-2794000D01*
X8636000Y-2744000D01*
X8586000Y-2794000D01*
X8636000Y-2844000D01*
X8636000Y-3098000D02*
X8686000Y-3048000D01*
X8636000Y-2998000D01*
X8586000Y-3048000D01*
X8636000Y-3098000D01*
X8636000Y-6400000D02*
X8686000Y-6350000D01*
X8636000Y-6300000D01*
X8586000Y-6350000D01*
X8636000Y-6400000D01*
X8636000Y-6654000D02*
X8686000Y-6604000D01*
X8636000Y-6554000D01*
X8586000Y-6604000D01*
X8636000Y-6654000D01*
X8636000Y-9956000D02*
X8686000Y-9906000D01*
X8636000Y-9856000D01*
X8586000Y-9906000D01*
X8636000Y-9956000D01*
X8636000Y-10210000D02*
X8686000Y-10160000D01*
X8636000Y-10110000D01*
X8586000Y-10160000D01*
X8636000Y-10210000D01*
X8636000Y-13512000D02*
X8686000Y-13462000D01*
X8636000Y-13412000D01*
X8586000Y-13462000D01*
X8636000Y-13512000D01*
X8636000Y-13766000D02*
X8686000Y-13716000D01*
X8636000Y-13666000D01*
X8586000Y-13716000D01*
X8636000Y-13766000D01*
X8890000Y-2844000D02*
X8940000Y-2794000D01*
X8890000Y-2744000D01*
X8840000Y-2794000D01*
X8890000Y-2844000D01*
X8890000Y-3098000D02*
X8940000Y-3048000D01*
X8890000Y-2998000D01*
X8840000Y-3048000D01*
X8890000Y-3098000D01*
X8890000Y-6400000D02*
X8940000Y-6350000D01*
X8890000Y-6300000D01*
X8840000Y-6350000D01*
X8890000Y-6400000D01*
X8890000Y-6654000D02*
X8940000Y-6604000D01*
X8890000Y-6554000D01*
X8840000Y-6604000D01*
X8890000Y-6654000D01*
X8890000Y-9956000D02*
X8940000Y-9906000D01*
X8890000Y-9856000D01*
X8840000Y-9906000D01*
X8890000Y-9956000D01*
X8890000Y-10210000D02*
X8940000Y-10160000D01*
X8890000Y-10110000D01*
X8840000Y-10160000D01*
X8890000Y-10210000D01*
X8890000Y-13512000D02*
X8940000Y-13462000D01*
X8890000Y-13412000D01*
X8840000Y-13462000D01*
X8890000Y-13512000D01*
X8890000Y-13766000D02*
X8940000Y-13716000D01*
X8890000Y-13666000D01*
X8840000Y-13716000D01*
X8890000Y-13766000D01*
X9144000Y-2844000D02*
X9194000Y-2794000D01*
X9144000Y-2744000D01*
X9094000Y-2794000D01*
X9144000Y-2844000D01*
X9144000Y-3098000D02*
X9194000Y-3048000D01*
X9144000Y-2998000D01*
X9094000Y-3048000D01*
X9144000Y-3098000D01*
X9144000Y-6400000D02*
X9194000Y-6350000D01*
X9144000Y-6300000D01*
X9094000Y-6350000D01*
X9144000Y-6400000D01*
X9144000Y-6654000D02*
X9194000Y-6604000D01*
X9144000Y-6554000D01*
X9094000Y-6604000D01*
X9144000Y-6654000D01*
X9144000Y-9956000D02*
X9194000Y-9906000D01*
X9144000Y-9856000D01*
X9094000Y-9906000D01*
X9144000Y-9956000D01*
X9144000Y-10210000D02*
X9194000Y-10160000D01*
X9144000Y-10110000D01*
X9094000Y-10160000D01*
X9144000Y-10210000D01*
X9144000Y-13512000D02*
X9194000Y-13462000D01*
X9144000Y-13412000D01*
X9094000Y-13462000D01*
X9144000Y-13512000D01*
X9144000Y-13766000D02*
X9194000Y-13716000D01*
X9144000Y-13666000D01*
X9094000Y-13716000D01*
X9144000Y-13766000D01*
X9398000Y-2844000D02*
X9448000Y-2794000D01*
X9398000Y-2744000D01*
X9348000Y-2794000D01*
X9398000Y-2844000D01*
X9398000Y-3098000D02*
X9448000Y-3048000D01*
X9398000Y-2998000D01*
X9348000Y-3048000D01*
X9398000Y-3098000D01*
X9398000Y-6400000D02*
X9448000Y-6350000D01*
X9398000Y-6300000D01*
X9348000Y-6350000D01*
X9398000Y-6400000D01*
X9398000Y-6654000D02*
X9448000Y-6604000D01*
X9398000Y-6554000D01*
X9348000Y-6604000D01*
X9398000Y-6654000D01*
X9398000Y-9956000D02*
X9448000Y-9906000D01*
X9398000Y-9856000D01*
X9348000Y-9906000D01*
X9398000Y-9956000D01*
X9398000Y-10210000D02*
X9448000Y-10160000D01*
X9398000Y-10110000D01*
X9348000Y-10160000D01*
X9398000Y-10210000D01*
X9398000Y-13512000D02*
X9448000Y-13462000D01*
X9398000Y-13412000D01*
X9348000Y-13462000D01*
X9398000Y-13512000D01*
X9398000Y-13766000D02*
X9448000Y-13716000D01*
X9398000Y-13666000D01*
X9348000Y-13716000D01*
X9398000Y-13766000D01*
X9652000Y-2844000D02*
X9702000Y-2794000D01*
X9652000Y-2744000D01*
X9602000Y-2794000D01*
X9652000Y-2844000D01*
X9652000Y-3098000D02*
X9702000Y-3048000D01*
X9652000Y-2998000D01*
X9602000Y-3048000D01*
X9652000Y-3098000D01*
X9652000Y-6400000D02*
X9702000Y-6350000D01*
X9652000Y-6300000D01*
X9602000Y-6350000D01*
X9652000Y-6400000D01*
X9652000Y-6654000D02*
X9702000Y-6604000D01*
X9652000Y-6554000D01*
X9602000Y-6604000D01*
X9652000Y-6654000D01*
X9652000Y-9956000D02*
X9702000Y-9906000D01*
X9652000Y-9856000D01*
X9602000Y-9906000D01*
X9652000Y-9956000D01*
X9652000Y-10210000D02*
X9702000Y-10160000D01*
X9652000Y-10110000D01*
X9602000Y-10160000D01*
X9652000Y-10210000D01*
X9652000Y-13512000D02*
X9702000Y-13462000D01*
X9652000Y-13412000D01*
X9602000Y-13462000D01*
X9652000Y-13512000D01*
X9652000Y-13766000D02*
X9702000Y-13716000D01*
X9652000Y-13666000D01*
X9602000Y-13716000D01*
X9652000Y-13766000D01*
X9906000Y-2844000D02*
X9956000Y-2794000D01*
X9906000Y-2744000D01*
X9856000Y-2794000D01*
X9906000Y-2844000D01*
X9906000Y-3098000D02*
X9956000Y-3048000D01*
X9906000Y-2998000D01*
X9856000Y-3048000D01*
X9906000Y-3098000D01*
X9906000Y-6400000D02*
X9956000Y-6350000D01*
X9906000Y-6300000D01*
X9856000Y-6350000D01*
X9906000Y-6400000D01*
X9906000Y-6654000D02*
X9956000Y-6604000D01*
X9906000Y-6554000D01*
X9856000Y-6604000D01*
X9906000Y-6654000D01*
X9906000Y-9956000D02*
X9956000Y-9906000D01*
X9906000Y-9856000D01*
X9856000Y-9906000D01*
X9906000Y-9956000D01*
X9906000Y-10210000D02*
X9956000Y-10160000D01*
X9906000Y-10110000D01*
X9856000Y-10160000D01*
X9906000Y-10210000D01*
X9906000Y-13512000D02*
X9956000Y-13462000D01*
X9906000Y-13412000D01*
X9856000Y-13462000D01*
X9906000Y-13512000D01*
X9906000Y-13766000D02*
X9956000Y-13716000D01*
X9906000Y-13666000D01*
X9856000Y-13716000D01*
X9906000Y-13766000D01*
X10160000Y-2844000D02*
X10210000Y-2794000D01*
X10160000Y-2744000D01*
X10110000Y-2794000D01*
X10160000Y-2844000D01*
X10160000Y-3098000D02*
X10210000Y-3048000D01*
X10160000Y-2998000D01*
X10110000Y-3048000D01*
X10160000Y-3098000D01*
X10160000Y-6400000D02*
X10210000Y-6350000D01*
X10160000Y-6300000D01*
X10110000Y-6350000D01*
X10160000Y-6400000D01*
X10160000Y-6654000D02*
X10210000Y-6604000D01*
X10160000Y-6554000D01*
X10110000Y-6604000D01*
X10160000Y-6654000D01*
X10160000Y-9956000D02*
X10210000Y-9906000D01*
X10160000Y-9856000D01*
X10110000Y-9906000D01*
X10160000Y-9956000D01*
X10160000Y-10210000D02*
X10210000Y-10160000D01*
X10160000Y-10110000D01*
X10110000Y-10160000D01*
X10160000Y-10210000D01*
X10160000Y-13512000D02*
X10210000Y-13462000D01*
X10160000Y-13412000D01*
X10110000Y-13462000D01*
X10160000Y-13512000D01*
X10160000Y-13766000D02*
X10210000Y-13716000D01*
X10160000Y-13666000D01*
X10110000Y-13716000D01*
X10160000Y-13766000D01*
X10414000Y-2844000D02*
X10464000Y-2794000D01*
X10414000Y-2744000D01*
X10364000Y-2794000D01*
X10414000Y-2844000D01*
X10414000Y-3098000D02*
X10464000Y-3048000D01*
X10414000Y-2998000D01*
X10364000Y-3048000D01*
X10414000Y-3098000D01*
X10414000Y-6400000D02*
X10464000Y-6350000D01*
X10414000Y-6300000D01*
X10364000Y-6350000D01*
X10414000Y-6400000D01*
X10414000Y-6654000D02*
X10464000Y-6604000D01*
X10414000Y-6554000D01*
X10364000Y-6604000D01*
X10414000Y-6654000D01*
X10414000Y-9956000D02*
X10464000Y-9906000D01*
X10414000Y-9856000D01*
X10364000Y-9906000D01*
X10414000Y-9956000D01*
X10414000Y-10210000D02*
X10464000Y-10160000D01*
X10414000Y-10110000D01*
X10364000Y-10160000D01*
X10414000Y-10210000D01*
X10414000Y-13512000D02*
X10464000Y-13462000D01*
X10414000Y-13412000D01*
X10364000Y-13462000D01*
X10414000Y-13512000D01*
X10414000Y-13766000D02*
X10464000Y-13716000D01*
X10414000Y-13666000D01*
X10364000Y-13716000D01*
X10414000Y-13766000D01*
X11430000Y-3606000D02*
X11480000Y-3556000D01*
X11430000Y-3506000D01*
X11380000Y-3556000D01*
X11430000Y-3606000D01*
X11430000Y-3860000D02*
X11480000Y-3810000D01*
X11430000Y-3760000D01*
X11380000Y-3810000D01*
X11430000Y-3860000D01*
X11430000Y-4114000D02*
X11480000Y-4064000D01*
X11430000Y-4014000D01*
X11380000Y-4064000D01*
X11430000Y-4114000D01*
X11430000Y-4368000D02*
X11480000Y-4318000D01*
X11430000Y-4268000D01*
X11380000Y-4318000D01*
X11430000Y-4368000D01*
X11430000Y-4622000D02*
X11480000Y-4572000D01*
X11430000Y-4522000D01*
X11380000Y-4572000D01*
X11430000Y-4622000D01*
X11430000Y-4876000D02*
X11480000Y-4826000D01*
X11430000Y-4776000D01*
X11380000Y-4826000D01*
X11430000Y-4876000D01*
X11430000Y-5130000D02*
X11480000Y-5080000D01*
X11430000Y-5030000D01*
X11380000Y-5080000D01*
X11430000Y-5130000D01*
X11430000Y-5384000D02*
X11480000Y-5334000D01*
X11430000Y-5284000D01*
X11380000Y-5334000D01*
X11430000Y-5384000D01*
X11430000Y-7162000D02*
X11480000Y-7112000D01*
X11430000Y-7062000D01*
X11380000Y-7112000D01*
X11430000Y-7162000D01*
X11430000Y-7416000D02*
X11480000Y-7366000D01*
X11430000Y-7316000D01*
X11380000Y-7366000D01*
X11430000Y-7416000D01*
X11430000Y-7670000D02*
X11480000Y-7620000D01*
X11430000Y-7570000D01*
X11380000Y-7620000D01*
X11430000Y-7670000D01*
X11430000Y-7924000D02*
X11480000Y-7874000D01*
X11430000Y-7824000D01*
X11380000Y-7874000D01*
X11430000Y-7924000D01*
X11430000Y-8178000D02*
X11480000Y-8128000D01*
X11430000Y-8078000D01*
X11380000Y-8128000D01*
X11430000Y-8178000D01*
X11430000Y-8432000D02*
X11480000Y-8382000D01*
X11430000Y-8332000D01*
X11380000Y-8382000D01*
X11430000Y-8432000D01*
X11430000Y-8686000D02*
X11480000Y-8636000D01*
X11430000Y-8586000D01*
X11380000Y-8636000D01*
X11430000Y-8686000D01*
X11430000Y-8940000D02*
X11480000Y-8890000D01*
X11430000Y-8840000D01*
X11380000Y-8890000D01*
X11430000Y-8940000D01*
X11430000Y-10718000D02*
X11480000Y-10668000D01*
X11430000Y-10618000D01*
X11380000Y-10668000D01*
X11430000Y-10718000D01*
X11430000Y-10972000D02*
X11480000Y-10922000D01*
X11430000Y-10872000D01*
X11380000Y-10922000D01*
X11430000Y-10972000D01*
X11430000Y-11226000D02*
X11480000Y-11176000D01*
X11430000Y-11126000D01*
X11380000Y-11176000D01*
X11430000Y-11226000D01*
X11430000Y-11480000D02*
X11480000Y-11430000D01*
X11430000Y-11380000D01*
X11380000Y-11430000D01*
X11430000Y-11480000D01*
X11430000Y-11734000D02*
X11480000Y-11684000D01*
X11430000Y-11634000D01*
X11380000Y-11684000D01*
X11430000Y-11734000D01*
X11430000Y-11988000D02*
X11480000Y-11938000D01*
X11430000Y-11888000D01*
X11380000Y-11938000D01*
X11430000Y-11988000D01*
X11430000Y-12242000D02*
X11480000Y-12192000D01*
X11430000Y-12142000D01*
X11380000Y-12192000D01*
X11430000Y-12242000D01*
X11430000Y-12496000D02*
X11480000Y-12446000D01*
X11430000Y-12396000D01*
X11380000Y-12446000D01*
X11430000Y-12496000D01*
X11430000Y-14274000D02*
X11480000Y-14224000D01*
X11430000Y-14174000D01*
X11380000Y-14224000D01*
X11430000Y-14274000D01*
X11430000Y-14528000D02*
X11480000Y-14478000D01*
X11430000Y-14428000D01*
X11380000Y-14478000D01*
X11430000Y-14528000D01*
X11430000Y-14782000D02*
X11480000Y-14732000D01*
X11430000Y-14682000D01*
X11380000Y-14732000D01*
X11430000Y-14782000D01*
X11430000Y-15036000D02*
X11480000Y-14986000D01*
X11430000Y-14936000D01*
X11380000Y-14986000D01*
X11430000Y-15036000D01*
X11430000Y-15290000D02*
X11480000Y-15240000D01*
X11430000Y-15190000D01*
X11380000Y-15240000D01*
X11430000Y-15290000D01*
X11430000Y-15544000D02*
X11480000Y-15494000D01*
X11430000Y-15444000D01*
X11380000Y-15494000D01*
X11430000Y-15544000D01*
X11430000Y-15798000D02*
X11480000Y-15748000D01*
X11430000Y-15698000D01*
X11380000Y-15748000D01*
X11430000Y-15798000D01*
X11430000Y-16052000D02*
X11480000Y-16002000D01*
X11430000Y-15952000D01*
X11380000Y-16002000D01*
X11430000Y-16052000D01*
X11684000Y-3606000D02*
X11734000Y-3556000D01*
X11684000Y-3506000D01*
X11634000Y-3556000D01*
X11684000Y-3606000D01*
X11684000Y-3860000D02*
X11734000Y-3810000D01*
X11684000Y-3760000D01*
X11634000Y-3810000D01*
X11684000Y-3860000D01*
X11684000Y-4114000D02*
X11734000Y-4064000D01*
X11684000Y-4014000D01*
X11634000Y-4064000D01*
X11684000Y-4114000D01*
X11684000Y-4368000D02*
X11734000Y-4318000D01*
X11684000Y-4268000D01*
X11634000Y-4318000D01*
X11684000Y-4368000D01*
X11684000Y-4622000D02*
X11734000Y-4572000D01*
X11684000Y-4522000D01*
X11634000Y-4572000D01*
X11684000Y-4622000D01*
X11684000Y-4876000D02*
X11734000Y-4826000D01*
X11684000Y-4776000D01*
X11634000Y-4826000D01*
X11684000Y-4876000D01*
X11684000Y-5130000D02*
X11734000Y-5080000D01*
X11684000Y-5030000D01*
X11634000Y-5080000D01*
X11684000Y-5130000D01*
X11684000Y-5384000D02*
X11734000Y-5334000D01*
X11684000Y-5284000D01*
X11634000Y-5334000D01*
X11684000Y-5384000D01*
X11684000Y-7162000D02*
X11734000Y-7112000D01*
X11684000Y-7062000D01*
X11634000Y-7112000D01*
X11684000Y-7162000D01*
X11684000Y-7416000D02*
X11734000Y-7366000D01*
X11684000Y-7316000D01*
X11634000Y-7366000D01*
X11684000Y-7416000D01*
X11684000Y-7670000D02*
X11734000Y-7620000D01*
X11684000Y-7570000D01*
X11634000Y-7620000D01*
X11684000Y-7670000D01*
X11684000Y-7924000D02*
X11734000Y-7874000D01*
X11684000Y-7824000D01*
X11634000Y-7874000D01*
X11684000Y-7924000D01*
X11684000Y-8178000D02*
X11734000Y-8128000D01*
X11684000Y-8078000D01*
X11634000Y-8128000D01*
X11684000Y-8178000D01*
X11684000Y-8432000D02*
X11734000Y-8382000D01*
X11684000Y-8332000D01*
X11634000Y-8382000D01*
X11684000Y-8432000D01*
X11684000Y-8686000D02*
X11734000Y-8636000D01*
X11684000Y-8586000D01*
X11634000Y-8636000D01*
X11684000Y-8686000D01*
X11684000Y-8940000D02*
X11734000Y-8890000D01*
X11684000Y-8840000D01*
X11634000Y-8890000D01*
X11684000Y-8940000D01*
X11684000Y-10718000D02*
X11734000Y-10668000D01*
X11684000Y-10618000D01*
X11634000Y-10668000D01*
X11684000Y-10718000D01*
X11684000Y-10972000D02*
X11734000Y-10922000D01*
X11684000Y-10872000D01*
X11634000Y-10922000D01*
X11684000Y-10972000D01*
X11684000Y-11226000D02*
X11734000Y-11176000D01*
X11684000Y-11126000D01*
X11634000Y-11176000D01*
X11684000Y-11226000D01*
X11684000Y-11480000D02*
X11734000Y-11430000D01*
X11684000Y-11380000D01*
X11634000Y-11430000D01*
X11684000Y-11480000D01*
X11684000Y-11734000D02*
X11734000Y-11684000D01*
X11684000Y-11634000D01*
X11634000Y-11684000D01*
X11684000Y-11734000D01*
X11684000Y-11988000D02*
X11734000Y-11938000D01*
X11684000Y-11888000D01*
X11634000Y-11938000D01*
X11684000Y-11988000D01*
X11684000Y-12242000D02*
X11734000Y-12192000D01*
X11684000Y-12142000D01*
X11634000Y-12192000D01*
X11684000Y-12242000D01*
X11684000Y-12496000D02*
X11734000Y-12446000D01*
X11684000Y-12396000D01*
X11634000Y-12446000D01*
X11684000Y-12496000D01*
X11684000Y-14274000D02*
X11734000Y-14224000D01*
X11684000Y-14174000D01*
X11634000Y-14224000D01*
X11684000Y-14274000D01*
X11684000Y-14528000D02*
X11734000Y-14478000D01*
X11684000Y-14428000D01*
X11634000Y-14478000D01*
X11684000Y-14528000D01*
X11684000Y-14782000D02*
X11734000Y-14732000D01*
X11684000Y-14682000D01*
X11634000Y-14732000D01*
X11684000Y-14782000D01*
X11684000Y-15036000D02*
X11734000Y-14986000D01*
X11684000Y-14936000D01*
X11634000Y-14986000D01*
X11684000Y-15036000D01*
X11684000Y-15290000D02*
X11734000Y-15240000D01*
X11684000Y-15190000D01*
X11634000Y-15240000D01*
X11684000Y-15290000D01*
X11684000Y-15544000D02*
X11734000Y-15494000D01*
X11684000Y-15444000D01*
X11634000Y-15494000D01*
X11684000Y-15544000D01*
X11684000Y-15798000D02*
X11734000Y-15748000D01*
X11684000Y-15698000D01*
X11634000Y-15748000D01*
X11684000Y-15798000D01*
X11684000Y-16052000D02*
X11734000Y-16002000D01*
X11684000Y-15952000D01*
X11634000Y-16002000D01*
X11684000Y-16052000D01*
X11938000Y-16433000D02*
X11988000Y-16383000D01*
X11938000Y-16333000D01*
X11888000Y-16383000D01*
X11938000Y-16433000D01*
X12192000Y-12623000D02*
X12242000Y-12573000D01*
X12192000Y-12523000D01*
X12142000Y-12573000D01*
X12192000Y-12623000D01*
X12192000Y-16433000D02*
X12242000Y-16383000D01*
X12192000Y-16333000D01*
X12142000Y-16383000D01*
X12192000Y-16433000D01*
X12446000Y-5511000D02*
X12496000Y-5461000D01*
X12446000Y-5411000D01*
X12396000Y-5461000D01*
X12446000Y-5511000D01*
X12446000Y-12623000D02*
X12496000Y-12573000D01*
X12446000Y-12523000D01*
X12396000Y-12573000D01*
X12446000Y-12623000D01*
X12700000Y-5511000D02*
X12750000Y-5461000D01*
X12700000Y-5411000D01*
X12650000Y-5461000D01*
X12700000Y-5511000D01*
X12827000Y-6527000D02*
X12877000Y-6477000D01*
X12827000Y-6427000D01*
X12777000Y-6477000D01*
X12827000Y-6527000D01*
X12827000Y-6781000D02*
X12877000Y-6731000D01*
X12827000Y-6681000D01*
X12777000Y-6731000D01*
X12827000Y-6781000D01*
X13462000Y-5130000D02*
X13512000Y-5080000D01*
X13462000Y-5030000D01*
X13412000Y-5080000D01*
X13462000Y-5130000D01*
X13462000Y-5384000D02*
X13512000Y-5334000D01*
X13462000Y-5284000D01*
X13412000Y-5334000D01*
X13462000Y-5384000D01*
X13462000Y-5638000D02*
X13512000Y-5588000D01*
X13462000Y-5538000D01*
X13412000Y-5588000D01*
X13462000Y-5638000D01*
X13462000Y-5892000D02*
X13512000Y-5842000D01*
X13462000Y-5792000D01*
X13412000Y-5842000D01*
X13462000Y-5892000D01*
X13462000Y-6400000D02*
X13512000Y-6350000D01*
X13462000Y-6300000D01*
X13412000Y-6350000D01*
X13462000Y-6400000D01*
X13462000Y-6654000D02*
X13512000Y-6604000D01*
X13462000Y-6554000D01*
X13412000Y-6604000D01*
X13462000Y-6654000D01*
X13462000Y-6908000D02*
X13512000Y-6858000D01*
X13462000Y-6808000D01*
X13412000Y-6858000D01*
X13462000Y-6908000D01*
X13462000Y-7162000D02*
X13512000Y-7112000D01*
X13462000Y-7062000D01*
X13412000Y-7112000D01*
X13462000Y-7162000D01*
X13462000Y-9956000D02*
X13512000Y-9906000D01*
X13462000Y-9856000D01*
X13412000Y-9906000D01*
X13462000Y-9956000D01*
X13462000Y-12242000D02*
X13512000Y-12192000D01*
X13462000Y-12142000D01*
X13412000Y-12192000D01*
X13462000Y-12242000D01*
X13462000Y-12496000D02*
X13512000Y-12446000D01*
X13462000Y-12396000D01*
X13412000Y-12446000D01*
X13462000Y-12496000D01*
X13462000Y-12750000D02*
X13512000Y-12700000D01*
X13462000Y-12650000D01*
X13412000Y-12700000D01*
X13462000Y-12750000D01*
X13462000Y-13004000D02*
X13512000Y-12954000D01*
X13462000Y-12904000D01*
X13412000Y-12954000D01*
X13462000Y-13004000D01*
X13462000Y-13512000D02*
X13512000Y-13462000D01*
X13462000Y-13412000D01*
X13412000Y-13462000D01*
X13462000Y-13512000D01*
X13462000Y-13766000D02*
X13512000Y-13716000D01*
X13462000Y-13666000D01*
X13412000Y-13716000D01*
X13462000Y-13766000D01*
X13462000Y-14020000D02*
X13512000Y-13970000D01*
X13462000Y-13920000D01*
X13412000Y-13970000D01*
X13462000Y-14020000D01*
X13462000Y-14274000D02*
X13512000Y-14224000D01*
X13462000Y-14174000D01*
X13412000Y-14224000D01*
X13462000Y-14274000D01*
D11*
X8126619Y-17206476D02*
X8126619Y-17006476D01*
X8174238Y-17006476D01*
X8202809Y-17016000D01*
X8221857Y-17035048D01*
X8231381Y-17054095D01*
X8240905Y-17092190D01*
X8240905Y-17120762D01*
X8231381Y-17158857D01*
X8221857Y-17177905D01*
X8202809Y-17196952D01*
X8174238Y-17206476D01*
X8126619Y-17206476D01*
X8326619Y-17206476D02*
X8326619Y-17073143D01*
X8326619Y-17111238D02*
X8336143Y-17092190D01*
X8345667Y-17082667D01*
X8364714Y-17073143D01*
X8383762Y-17073143D01*
X8450429Y-17206476D02*
X8450429Y-17073143D01*
X8450429Y-17006476D02*
X8440905Y-17016000D01*
X8450429Y-17025524D01*
X8459952Y-17016000D01*
X8450429Y-17006476D01*
X8450429Y-17025524D01*
X8574238Y-17206476D02*
X8555190Y-17196952D01*
X8545667Y-17177905D01*
X8545667Y-17006476D01*
X8679000Y-17206476D02*
X8659952Y-17196952D01*
X8650429Y-17177905D01*
X8650429Y-17006476D01*
X8907571Y-17206476D02*
X8907571Y-17006476D01*
X8974238Y-17149333D01*
X9040905Y-17006476D01*
X9040905Y-17206476D01*
X9221857Y-17206476D02*
X9221857Y-17101714D01*
X9212333Y-17082667D01*
X9193286Y-17073143D01*
X9155190Y-17073143D01*
X9136143Y-17082667D01*
X9221857Y-17196952D02*
X9202810Y-17206476D01*
X9155190Y-17206476D01*
X9136143Y-17196952D01*
X9126619Y-17177905D01*
X9126619Y-17158857D01*
X9136143Y-17139810D01*
X9155190Y-17130286D01*
X9202810Y-17130286D01*
X9221857Y-17120762D01*
X9317095Y-17073143D02*
X9317095Y-17273143D01*
X9317095Y-17082667D02*
X9336143Y-17073143D01*
X9374238Y-17073143D01*
X9393286Y-17082667D01*
X9402810Y-17092190D01*
X9412333Y-17111238D01*
X9412333Y-17168381D01*
X9402810Y-17187429D01*
X9393286Y-17196952D01*
X9374238Y-17206476D01*
X9336143Y-17206476D01*
X9317095Y-17196952D01*
X9498048Y-17187429D02*
X9507571Y-17196952D01*
X9498048Y-17206476D01*
X9488524Y-17196952D01*
X9498048Y-17187429D01*
X9498048Y-17206476D01*
X9498048Y-17082667D02*
X9507571Y-17092190D01*
X9498048Y-17101714D01*
X9488524Y-17092190D01*
X9498048Y-17082667D01*
X9498048Y-17101714D01*
D12*
X7829000Y-17516000D02*
X7869000Y-17556000D01*
X7869000Y-17516000D02*
X7829000Y-17556000D01*
D11*
X8164714Y-17426476D02*
X8183762Y-17426476D01*
X8202809Y-17436000D01*
X8212333Y-17445524D01*
X8221857Y-17464571D01*
X8231381Y-17502667D01*
X8231381Y-17550286D01*
X8221857Y-17588381D01*
X8212333Y-17607429D01*
X8202809Y-17616952D01*
X8183762Y-17626476D01*
X8164714Y-17626476D01*
X8145667Y-17616952D01*
X8136143Y-17607429D01*
X8126619Y-17588381D01*
X8117095Y-17550286D01*
X8117095Y-17502667D01*
X8126619Y-17464571D01*
X8136143Y-17445524D01*
X8145667Y-17436000D01*
X8164714Y-17426476D01*
X8317095Y-17607429D02*
X8326619Y-17616952D01*
X8317095Y-17626476D01*
X8307571Y-17616952D01*
X8317095Y-17607429D01*
X8317095Y-17626476D01*
X8498048Y-17493143D02*
X8498048Y-17626476D01*
X8450429Y-17416952D02*
X8402810Y-17559810D01*
X8526619Y-17559810D01*
X8640905Y-17426476D02*
X8659952Y-17426476D01*
X8679000Y-17436000D01*
X8688524Y-17445524D01*
X8698048Y-17464571D01*
X8707571Y-17502667D01*
X8707571Y-17550286D01*
X8698048Y-17588381D01*
X8688524Y-17607429D01*
X8679000Y-17616952D01*
X8659952Y-17626476D01*
X8640905Y-17626476D01*
X8621857Y-17616952D01*
X8612333Y-17607429D01*
X8602810Y-17588381D01*
X8593286Y-17550286D01*
X8593286Y-17502667D01*
X8602810Y-17464571D01*
X8612333Y-17445524D01*
X8621857Y-17436000D01*
X8640905Y-17426476D01*
X8831381Y-17426476D02*
X8850429Y-17426476D01*
X8869476Y-17436000D01*
X8879000Y-17445524D01*
X8888524Y-17464571D01*
X8898048Y-17502667D01*
X8898048Y-17550286D01*
X8888524Y-17588381D01*
X8879000Y-17607429D01*
X8869476Y-17616952D01*
X8850429Y-17626476D01*
X8831381Y-17626476D01*
X8812333Y-17616952D01*
X8802810Y-17607429D01*
X8793286Y-17588381D01*
X8783762Y-17550286D01*
X8783762Y-17502667D01*
X8793286Y-17464571D01*
X8802810Y-17445524D01*
X8812333Y-17436000D01*
X8831381Y-17426476D01*
X8983762Y-17626476D02*
X8983762Y-17493143D01*
X8983762Y-17512190D02*
X8993286Y-17502667D01*
X9012333Y-17493143D01*
X9040905Y-17493143D01*
X9059952Y-17502667D01*
X9069476Y-17521714D01*
X9069476Y-17626476D01*
X9069476Y-17521714D02*
X9079000Y-17502667D01*
X9098048Y-17493143D01*
X9126619Y-17493143D01*
X9145667Y-17502667D01*
X9155190Y-17521714D01*
X9155190Y-17626476D01*
X9250429Y-17626476D02*
X9250429Y-17493143D01*
X9250429Y-17512190D02*
X9259952Y-17502667D01*
X9279000Y-17493143D01*
X9307571Y-17493143D01*
X9326619Y-17502667D01*
X9336143Y-17521714D01*
X9336143Y-17626476D01*
X9336143Y-17521714D02*
X9345667Y-17502667D01*
X9364714Y-17493143D01*
X9393286Y-17493143D01*
X9412333Y-17502667D01*
X9421857Y-17521714D01*
X9421857Y-17626476D01*
X9812333Y-17416952D02*
X9640905Y-17674095D01*
X10069476Y-17426476D02*
X10088524Y-17426476D01*
X10107571Y-17436000D01*
X10117095Y-17445524D01*
X10126619Y-17464571D01*
X10136143Y-17502667D01*
X10136143Y-17550286D01*
X10126619Y-17588381D01*
X10117095Y-17607429D01*
X10107571Y-17616952D01*
X10088524Y-17626476D01*
X10069476Y-17626476D01*
X10050429Y-17616952D01*
X10040905Y-17607429D01*
X10031381Y-17588381D01*
X10021857Y-17550286D01*
X10021857Y-17502667D01*
X10031381Y-17464571D01*
X10040905Y-17445524D01*
X10050429Y-17436000D01*
X10069476Y-17426476D01*
X10221857Y-17607429D02*
X10231381Y-17616952D01*
X10221857Y-17626476D01*
X10212333Y-17616952D01*
X10221857Y-17607429D01*
X10221857Y-17626476D01*
X10355190Y-17426476D02*
X10374238Y-17426476D01*
X10393286Y-17436000D01*
X10402810Y-17445524D01*
X10412333Y-17464571D01*
X10421857Y-17502667D01*
X10421857Y-17550286D01*
X10412333Y-17588381D01*
X10402810Y-17607429D01*
X10393286Y-17616952D01*
X10374238Y-17626476D01*
X10355190Y-17626476D01*
X10336143Y-17616952D01*
X10326619Y-17607429D01*
X10317095Y-17588381D01*
X10307571Y-17550286D01*
X10307571Y-17502667D01*
X10317095Y-17464571D01*
X10326619Y-17445524D01*
X10336143Y-17436000D01*
X10355190Y-17426476D01*
X10612333Y-17626476D02*
X10498048Y-17626476D01*
X10555190Y-17626476D02*
X10555190Y-17426476D01*
X10536143Y-17455048D01*
X10517095Y-17474095D01*
X10498048Y-17483619D01*
X10793286Y-17426476D02*
X10698048Y-17426476D01*
X10688524Y-17521714D01*
X10698048Y-17512190D01*
X10717095Y-17502667D01*
X10764714Y-17502667D01*
X10783762Y-17512190D01*
X10793286Y-17521714D01*
X10802810Y-17540762D01*
X10802810Y-17588381D01*
X10793286Y-17607429D01*
X10783762Y-17616952D01*
X10764714Y-17626476D01*
X10717095Y-17626476D01*
X10698048Y-17616952D01*
X10688524Y-17607429D01*
X10869476Y-17426476D02*
X11002810Y-17426476D01*
X10917095Y-17626476D01*
X11069476Y-17426476D02*
X11069476Y-17464571D01*
X11145667Y-17426476D02*
X11145667Y-17464571D01*
X11440905Y-17702667D02*
X11431381Y-17693143D01*
X11412333Y-17664571D01*
X11402809Y-17645524D01*
X11393286Y-17616952D01*
X11383762Y-17569333D01*
X11383762Y-17531238D01*
X11393286Y-17483619D01*
X11402809Y-17455048D01*
X11412333Y-17436000D01*
X11431381Y-17407429D01*
X11440905Y-17397905D01*
X11621857Y-17626476D02*
X11507571Y-17626476D01*
X11564714Y-17626476D02*
X11564714Y-17426476D01*
X11545667Y-17455048D01*
X11526619Y-17474095D01*
X11507571Y-17483619D01*
X11717095Y-17626476D02*
X11755190Y-17626476D01*
X11774238Y-17616952D01*
X11783762Y-17607429D01*
X11802809Y-17578857D01*
X11812333Y-17540762D01*
X11812333Y-17464571D01*
X11802809Y-17445524D01*
X11793286Y-17436000D01*
X11774238Y-17426476D01*
X11736143Y-17426476D01*
X11717095Y-17436000D01*
X11707571Y-17445524D01*
X11698048Y-17464571D01*
X11698048Y-17512190D01*
X11707571Y-17531238D01*
X11717095Y-17540762D01*
X11736143Y-17550286D01*
X11774238Y-17550286D01*
X11793286Y-17540762D01*
X11802809Y-17531238D01*
X11812333Y-17512190D01*
X11888524Y-17445524D02*
X11898048Y-17436000D01*
X11917095Y-17426476D01*
X11964714Y-17426476D01*
X11983762Y-17436000D01*
X11993286Y-17445524D01*
X12002809Y-17464571D01*
X12002809Y-17483619D01*
X11993286Y-17512190D01*
X11879000Y-17626476D01*
X12002809Y-17626476D01*
X12240905Y-17626476D02*
X12240905Y-17426476D01*
X12326619Y-17626476D02*
X12326619Y-17521714D01*
X12317095Y-17502667D01*
X12298048Y-17493143D01*
X12269476Y-17493143D01*
X12250428Y-17502667D01*
X12240905Y-17512190D01*
X12450428Y-17626476D02*
X12431381Y-17616952D01*
X12421857Y-17607429D01*
X12412333Y-17588381D01*
X12412333Y-17531238D01*
X12421857Y-17512190D01*
X12431381Y-17502667D01*
X12450428Y-17493143D01*
X12479000Y-17493143D01*
X12498048Y-17502667D01*
X12507571Y-17512190D01*
X12517095Y-17531238D01*
X12517095Y-17588381D01*
X12507571Y-17607429D01*
X12498048Y-17616952D01*
X12479000Y-17626476D01*
X12450428Y-17626476D01*
X12631381Y-17626476D02*
X12612333Y-17616952D01*
X12602809Y-17597905D01*
X12602809Y-17426476D01*
X12783762Y-17616952D02*
X12764714Y-17626476D01*
X12726619Y-17626476D01*
X12707571Y-17616952D01*
X12698048Y-17597905D01*
X12698048Y-17521714D01*
X12707571Y-17502667D01*
X12726619Y-17493143D01*
X12764714Y-17493143D01*
X12783762Y-17502667D01*
X12793286Y-17521714D01*
X12793286Y-17540762D01*
X12698048Y-17559810D01*
X12869476Y-17616952D02*
X12888524Y-17626476D01*
X12926619Y-17626476D01*
X12945667Y-17616952D01*
X12955190Y-17597905D01*
X12955190Y-17588381D01*
X12945667Y-17569333D01*
X12926619Y-17559810D01*
X12898048Y-17559810D01*
X12879000Y-17550286D01*
X12869476Y-17531238D01*
X12869476Y-17521714D01*
X12879000Y-17502667D01*
X12898048Y-17493143D01*
X12926619Y-17493143D01*
X12945667Y-17502667D01*
X13021857Y-17702667D02*
X13031381Y-17693143D01*
X13050428Y-17664571D01*
X13059952Y-17645524D01*
X13069476Y-17616952D01*
X13079000Y-17569333D01*
X13079000Y-17531238D01*
X13069476Y-17483619D01*
X13059952Y-17455048D01*
X13050428Y-17436000D01*
X13031381Y-17407429D01*
X13021857Y-17397905D01*
D13*
X7869000Y-17800000D02*
G75*
G03*
X7869000Y-17800000I-35000J0D01*
G01*
D11*
X8164714Y-17690476D02*
X8183762Y-17690476D01*
X8202809Y-17700000D01*
X8212333Y-17709524D01*
X8221857Y-17728571D01*
X8231381Y-17766667D01*
X8231381Y-17814286D01*
X8221857Y-17852381D01*
X8212333Y-17871429D01*
X8202809Y-17880952D01*
X8183762Y-17890476D01*
X8164714Y-17890476D01*
X8145667Y-17880952D01*
X8136143Y-17871429D01*
X8126619Y-17852381D01*
X8117095Y-17814286D01*
X8117095Y-17766667D01*
X8126619Y-17728571D01*
X8136143Y-17709524D01*
X8145667Y-17700000D01*
X8164714Y-17690476D01*
X8317095Y-17871429D02*
X8326619Y-17880952D01*
X8317095Y-17890476D01*
X8307571Y-17880952D01*
X8317095Y-17871429D01*
X8317095Y-17890476D01*
X8393286Y-17690476D02*
X8526619Y-17690476D01*
X8440905Y-17890476D01*
X8640905Y-17690476D02*
X8659952Y-17690476D01*
X8679000Y-17700000D01*
X8688524Y-17709524D01*
X8698048Y-17728571D01*
X8707571Y-17766667D01*
X8707571Y-17814286D01*
X8698048Y-17852381D01*
X8688524Y-17871429D01*
X8679000Y-17880952D01*
X8659952Y-17890476D01*
X8640905Y-17890476D01*
X8621857Y-17880952D01*
X8612333Y-17871429D01*
X8602810Y-17852381D01*
X8593286Y-17814286D01*
X8593286Y-17766667D01*
X8602810Y-17728571D01*
X8612333Y-17709524D01*
X8621857Y-17700000D01*
X8640905Y-17690476D01*
X8831381Y-17690476D02*
X8850429Y-17690476D01*
X8869476Y-17700000D01*
X8879000Y-17709524D01*
X8888524Y-17728571D01*
X8898048Y-17766667D01*
X8898048Y-17814286D01*
X8888524Y-17852381D01*
X8879000Y-17871429D01*
X8869476Y-17880952D01*
X8850429Y-17890476D01*
X8831381Y-17890476D01*
X8812333Y-17880952D01*
X8802810Y-17871429D01*
X8793286Y-17852381D01*
X8783762Y-17814286D01*
X8783762Y-17766667D01*
X8793286Y-17728571D01*
X8802810Y-17709524D01*
X8812333Y-17700000D01*
X8831381Y-17690476D01*
X8983762Y-17890476D02*
X8983762Y-17757143D01*
X8983762Y-17776190D02*
X8993286Y-17766667D01*
X9012333Y-17757143D01*
X9040905Y-17757143D01*
X9059952Y-17766667D01*
X9069476Y-17785714D01*
X9069476Y-17890476D01*
X9069476Y-17785714D02*
X9079000Y-17766667D01*
X9098048Y-17757143D01*
X9126619Y-17757143D01*
X9145667Y-17766667D01*
X9155190Y-17785714D01*
X9155190Y-17890476D01*
X9250429Y-17890476D02*
X9250429Y-17757143D01*
X9250429Y-17776190D02*
X9259952Y-17766667D01*
X9279000Y-17757143D01*
X9307571Y-17757143D01*
X9326619Y-17766667D01*
X9336143Y-17785714D01*
X9336143Y-17890476D01*
X9336143Y-17785714D02*
X9345667Y-17766667D01*
X9364714Y-17757143D01*
X9393286Y-17757143D01*
X9412333Y-17766667D01*
X9421857Y-17785714D01*
X9421857Y-17890476D01*
X9812333Y-17680952D02*
X9640905Y-17938095D01*
X10069476Y-17690476D02*
X10088524Y-17690476D01*
X10107571Y-17700000D01*
X10117095Y-17709524D01*
X10126619Y-17728571D01*
X10136143Y-17766667D01*
X10136143Y-17814286D01*
X10126619Y-17852381D01*
X10117095Y-17871429D01*
X10107571Y-17880952D01*
X10088524Y-17890476D01*
X10069476Y-17890476D01*
X10050429Y-17880952D01*
X10040905Y-17871429D01*
X10031381Y-17852381D01*
X10021857Y-17814286D01*
X10021857Y-17766667D01*
X10031381Y-17728571D01*
X10040905Y-17709524D01*
X10050429Y-17700000D01*
X10069476Y-17690476D01*
X10221857Y-17871429D02*
X10231381Y-17880952D01*
X10221857Y-17890476D01*
X10212333Y-17880952D01*
X10221857Y-17871429D01*
X10221857Y-17890476D01*
X10355190Y-17690476D02*
X10374238Y-17690476D01*
X10393286Y-17700000D01*
X10402810Y-17709524D01*
X10412333Y-17728571D01*
X10421857Y-17766667D01*
X10421857Y-17814286D01*
X10412333Y-17852381D01*
X10402810Y-17871429D01*
X10393286Y-17880952D01*
X10374238Y-17890476D01*
X10355190Y-17890476D01*
X10336143Y-17880952D01*
X10326619Y-17871429D01*
X10317095Y-17852381D01*
X10307571Y-17814286D01*
X10307571Y-17766667D01*
X10317095Y-17728571D01*
X10326619Y-17709524D01*
X10336143Y-17700000D01*
X10355190Y-17690476D01*
X10498048Y-17709524D02*
X10507571Y-17700000D01*
X10526619Y-17690476D01*
X10574238Y-17690476D01*
X10593286Y-17700000D01*
X10602810Y-17709524D01*
X10612333Y-17728571D01*
X10612333Y-17747619D01*
X10602810Y-17776190D01*
X10488524Y-17890476D01*
X10612333Y-17890476D01*
X10679000Y-17690476D02*
X10812333Y-17690476D01*
X10726619Y-17890476D01*
X10974238Y-17690476D02*
X10936143Y-17690476D01*
X10917095Y-17700000D01*
X10907571Y-17709524D01*
X10888524Y-17738095D01*
X10879000Y-17776190D01*
X10879000Y-17852381D01*
X10888524Y-17871429D01*
X10898048Y-17880952D01*
X10917095Y-17890476D01*
X10955190Y-17890476D01*
X10974238Y-17880952D01*
X10983762Y-17871429D01*
X10993286Y-17852381D01*
X10993286Y-17804762D01*
X10983762Y-17785714D01*
X10974238Y-17776190D01*
X10955190Y-17766667D01*
X10917095Y-17766667D01*
X10898048Y-17776190D01*
X10888524Y-17785714D01*
X10879000Y-17804762D01*
X11069476Y-17690476D02*
X11069476Y-17728571D01*
X11145667Y-17690476D02*
X11145667Y-17728571D01*
X11440905Y-17966667D02*
X11431381Y-17957143D01*
X11412333Y-17928571D01*
X11402809Y-17909524D01*
X11393286Y-17880952D01*
X11383762Y-17833333D01*
X11383762Y-17795238D01*
X11393286Y-17747619D01*
X11402809Y-17719048D01*
X11412333Y-17700000D01*
X11431381Y-17671429D01*
X11440905Y-17661905D01*
X11621857Y-17890476D02*
X11507571Y-17890476D01*
X11564714Y-17890476D02*
X11564714Y-17690476D01*
X11545667Y-17719048D01*
X11526619Y-17738095D01*
X11507571Y-17747619D01*
X11698048Y-17709524D02*
X11707571Y-17700000D01*
X11726619Y-17690476D01*
X11774238Y-17690476D01*
X11793286Y-17700000D01*
X11802809Y-17709524D01*
X11812333Y-17728571D01*
X11812333Y-17747619D01*
X11802809Y-17776190D01*
X11688524Y-17890476D01*
X11812333Y-17890476D01*
X11926619Y-17776190D02*
X11907571Y-17766667D01*
X11898048Y-17757143D01*
X11888524Y-17738095D01*
X11888524Y-17728571D01*
X11898048Y-17709524D01*
X11907571Y-17700000D01*
X11926619Y-17690476D01*
X11964714Y-17690476D01*
X11983762Y-17700000D01*
X11993286Y-17709524D01*
X12002809Y-17728571D01*
X12002809Y-17738095D01*
X11993286Y-17757143D01*
X11983762Y-17766667D01*
X11964714Y-17776190D01*
X11926619Y-17776190D01*
X11907571Y-17785714D01*
X11898048Y-17795238D01*
X11888524Y-17814286D01*
X11888524Y-17852381D01*
X11898048Y-17871429D01*
X11907571Y-17880952D01*
X11926619Y-17890476D01*
X11964714Y-17890476D01*
X11983762Y-17880952D01*
X11993286Y-17871429D01*
X12002809Y-17852381D01*
X12002809Y-17814286D01*
X11993286Y-17795238D01*
X11983762Y-17785714D01*
X11964714Y-17776190D01*
X12240905Y-17890476D02*
X12240905Y-17690476D01*
X12326619Y-17890476D02*
X12326619Y-17785714D01*
X12317095Y-17766667D01*
X12298048Y-17757143D01*
X12269476Y-17757143D01*
X12250428Y-17766667D01*
X12240905Y-17776190D01*
X12450428Y-17890476D02*
X12431381Y-17880952D01*
X12421857Y-17871429D01*
X12412333Y-17852381D01*
X12412333Y-17795238D01*
X12421857Y-17776190D01*
X12431381Y-17766667D01*
X12450428Y-17757143D01*
X12479000Y-17757143D01*
X12498048Y-17766667D01*
X12507571Y-17776190D01*
X12517095Y-17795238D01*
X12517095Y-17852381D01*
X12507571Y-17871429D01*
X12498048Y-17880952D01*
X12479000Y-17890476D01*
X12450428Y-17890476D01*
X12631381Y-17890476D02*
X12612333Y-17880952D01*
X12602809Y-17861905D01*
X12602809Y-17690476D01*
X12783762Y-17880952D02*
X12764714Y-17890476D01*
X12726619Y-17890476D01*
X12707571Y-17880952D01*
X12698048Y-17861905D01*
X12698048Y-17785714D01*
X12707571Y-17766667D01*
X12726619Y-17757143D01*
X12764714Y-17757143D01*
X12783762Y-17766667D01*
X12793286Y-17785714D01*
X12793286Y-17804762D01*
X12698048Y-17823810D01*
X12869476Y-17880952D02*
X12888524Y-17890476D01*
X12926619Y-17890476D01*
X12945667Y-17880952D01*
X12955190Y-17861905D01*
X12955190Y-17852381D01*
X12945667Y-17833333D01*
X12926619Y-17823810D01*
X12898048Y-17823810D01*
X12879000Y-17814286D01*
X12869476Y-17795238D01*
X12869476Y-17785714D01*
X12879000Y-17766667D01*
X12898048Y-17757143D01*
X12926619Y-17757143D01*
X12945667Y-17766667D01*
X13021857Y-17966667D02*
X13031381Y-17957143D01*
X13050428Y-17928571D01*
X13059952Y-17909524D01*
X13069476Y-17880952D01*
X13079000Y-17833333D01*
X13079000Y-17795238D01*
X13069476Y-17747619D01*
X13059952Y-17719048D01*
X13050428Y-17700000D01*
X13031381Y-17671429D01*
X13021857Y-17661905D01*
D14*
X7829000Y-18024000D02*
X7829000Y-18104000D01*
X7789000Y-18064000D02*
X7869000Y-18064000D01*
D11*
X8164714Y-17954476D02*
X8183762Y-17954476D01*
X8202809Y-17964000D01*
X8212333Y-17973524D01*
X8221857Y-17992571D01*
X8231381Y-18030667D01*
X8231381Y-18078286D01*
X8221857Y-18116381D01*
X8212333Y-18135429D01*
X8202809Y-18144952D01*
X8183762Y-18154476D01*
X8164714Y-18154476D01*
X8145667Y-18144952D01*
X8136143Y-18135429D01*
X8126619Y-18116381D01*
X8117095Y-18078286D01*
X8117095Y-18030667D01*
X8126619Y-17992571D01*
X8136143Y-17973524D01*
X8145667Y-17964000D01*
X8164714Y-17954476D01*
X8317095Y-18135429D02*
X8326619Y-18144952D01*
X8317095Y-18154476D01*
X8307571Y-18144952D01*
X8317095Y-18135429D01*
X8317095Y-18154476D01*
X8440905Y-18040190D02*
X8421857Y-18030667D01*
X8412333Y-18021143D01*
X8402810Y-18002095D01*
X8402810Y-17992571D01*
X8412333Y-17973524D01*
X8421857Y-17964000D01*
X8440905Y-17954476D01*
X8479000Y-17954476D01*
X8498048Y-17964000D01*
X8507571Y-17973524D01*
X8517095Y-17992571D01*
X8517095Y-18002095D01*
X8507571Y-18021143D01*
X8498048Y-18030667D01*
X8479000Y-18040190D01*
X8440905Y-18040190D01*
X8421857Y-18049714D01*
X8412333Y-18059238D01*
X8402810Y-18078286D01*
X8402810Y-18116381D01*
X8412333Y-18135429D01*
X8421857Y-18144952D01*
X8440905Y-18154476D01*
X8479000Y-18154476D01*
X8498048Y-18144952D01*
X8507571Y-18135429D01*
X8517095Y-18116381D01*
X8517095Y-18078286D01*
X8507571Y-18059238D01*
X8498048Y-18049714D01*
X8479000Y-18040190D01*
X8640905Y-17954476D02*
X8659952Y-17954476D01*
X8679000Y-17964000D01*
X8688524Y-17973524D01*
X8698048Y-17992571D01*
X8707571Y-18030667D01*
X8707571Y-18078286D01*
X8698048Y-18116381D01*
X8688524Y-18135429D01*
X8679000Y-18144952D01*
X8659952Y-18154476D01*
X8640905Y-18154476D01*
X8621857Y-18144952D01*
X8612333Y-18135429D01*
X8602810Y-18116381D01*
X8593286Y-18078286D01*
X8593286Y-18030667D01*
X8602810Y-17992571D01*
X8612333Y-17973524D01*
X8621857Y-17964000D01*
X8640905Y-17954476D01*
X8831381Y-17954476D02*
X8850429Y-17954476D01*
X8869476Y-17964000D01*
X8879000Y-17973524D01*
X8888524Y-17992571D01*
X8898048Y-18030667D01*
X8898048Y-18078286D01*
X8888524Y-18116381D01*
X8879000Y-18135429D01*
X8869476Y-18144952D01*
X8850429Y-18154476D01*
X8831381Y-18154476D01*
X8812333Y-18144952D01*
X8802810Y-18135429D01*
X8793286Y-18116381D01*
X8783762Y-18078286D01*
X8783762Y-18030667D01*
X8793286Y-17992571D01*
X8802810Y-17973524D01*
X8812333Y-17964000D01*
X8831381Y-17954476D01*
X8983762Y-18154476D02*
X8983762Y-18021143D01*
X8983762Y-18040190D02*
X8993286Y-18030667D01*
X9012333Y-18021143D01*
X9040905Y-18021143D01*
X9059952Y-18030667D01*
X9069476Y-18049714D01*
X9069476Y-18154476D01*
X9069476Y-18049714D02*
X9079000Y-18030667D01*
X9098048Y-18021143D01*
X9126619Y-18021143D01*
X9145667Y-18030667D01*
X9155190Y-18049714D01*
X9155190Y-18154476D01*
X9250429Y-18154476D02*
X9250429Y-18021143D01*
X9250429Y-18040190D02*
X9259952Y-18030667D01*
X9279000Y-18021143D01*
X9307571Y-18021143D01*
X9326619Y-18030667D01*
X9336143Y-18049714D01*
X9336143Y-18154476D01*
X9336143Y-18049714D02*
X9345667Y-18030667D01*
X9364714Y-18021143D01*
X9393286Y-18021143D01*
X9412333Y-18030667D01*
X9421857Y-18049714D01*
X9421857Y-18154476D01*
X9812333Y-17944952D02*
X9640905Y-18202095D01*
X10069476Y-17954476D02*
X10088524Y-17954476D01*
X10107571Y-17964000D01*
X10117095Y-17973524D01*
X10126619Y-17992571D01*
X10136143Y-18030667D01*
X10136143Y-18078286D01*
X10126619Y-18116381D01*
X10117095Y-18135429D01*
X10107571Y-18144952D01*
X10088524Y-18154476D01*
X10069476Y-18154476D01*
X10050429Y-18144952D01*
X10040905Y-18135429D01*
X10031381Y-18116381D01*
X10021857Y-18078286D01*
X10021857Y-18030667D01*
X10031381Y-17992571D01*
X10040905Y-17973524D01*
X10050429Y-17964000D01*
X10069476Y-17954476D01*
X10221857Y-18135429D02*
X10231381Y-18144952D01*
X10221857Y-18154476D01*
X10212333Y-18144952D01*
X10221857Y-18135429D01*
X10221857Y-18154476D01*
X10355190Y-17954476D02*
X10374238Y-17954476D01*
X10393286Y-17964000D01*
X10402810Y-17973524D01*
X10412333Y-17992571D01*
X10421857Y-18030667D01*
X10421857Y-18078286D01*
X10412333Y-18116381D01*
X10402810Y-18135429D01*
X10393286Y-18144952D01*
X10374238Y-18154476D01*
X10355190Y-18154476D01*
X10336143Y-18144952D01*
X10326619Y-18135429D01*
X10317095Y-18116381D01*
X10307571Y-18078286D01*
X10307571Y-18030667D01*
X10317095Y-17992571D01*
X10326619Y-17973524D01*
X10336143Y-17964000D01*
X10355190Y-17954476D01*
X10488524Y-17954476D02*
X10612333Y-17954476D01*
X10545667Y-18030667D01*
X10574238Y-18030667D01*
X10593286Y-18040190D01*
X10602810Y-18049714D01*
X10612333Y-18068762D01*
X10612333Y-18116381D01*
X10602810Y-18135429D01*
X10593286Y-18144952D01*
X10574238Y-18154476D01*
X10517095Y-18154476D01*
X10498048Y-18144952D01*
X10488524Y-18135429D01*
X10802810Y-18154476D02*
X10688524Y-18154476D01*
X10745667Y-18154476D02*
X10745667Y-17954476D01*
X10726619Y-17983048D01*
X10707571Y-18002095D01*
X10688524Y-18011619D01*
X10983762Y-17954476D02*
X10888524Y-17954476D01*
X10879000Y-18049714D01*
X10888524Y-18040190D01*
X10907571Y-18030667D01*
X10955190Y-18030667D01*
X10974238Y-18040190D01*
X10983762Y-18049714D01*
X10993286Y-18068762D01*
X10993286Y-18116381D01*
X10983762Y-18135429D01*
X10974238Y-18144952D01*
X10955190Y-18154476D01*
X10907571Y-18154476D01*
X10888524Y-18144952D01*
X10879000Y-18135429D01*
X11069476Y-17954476D02*
X11069476Y-17992571D01*
X11145667Y-17954476D02*
X11145667Y-17992571D01*
X11440905Y-18230667D02*
X11431381Y-18221143D01*
X11412333Y-18192571D01*
X11402809Y-18173524D01*
X11393286Y-18144952D01*
X11383762Y-18097333D01*
X11383762Y-18059238D01*
X11393286Y-18011619D01*
X11402809Y-17983048D01*
X11412333Y-17964000D01*
X11431381Y-17935429D01*
X11440905Y-17925905D01*
X11507571Y-17973524D02*
X11517095Y-17964000D01*
X11536143Y-17954476D01*
X11583762Y-17954476D01*
X11602809Y-17964000D01*
X11612333Y-17973524D01*
X11621857Y-17992571D01*
X11621857Y-18011619D01*
X11612333Y-18040190D01*
X11498048Y-18154476D01*
X11621857Y-18154476D01*
X11812333Y-18154476D02*
X11698048Y-18154476D01*
X11755190Y-18154476D02*
X11755190Y-17954476D01*
X11736143Y-17983048D01*
X11717095Y-18002095D01*
X11698048Y-18011619D01*
X11926619Y-18040190D02*
X11907571Y-18030667D01*
X11898048Y-18021143D01*
X11888524Y-18002095D01*
X11888524Y-17992571D01*
X11898048Y-17973524D01*
X11907571Y-17964000D01*
X11926619Y-17954476D01*
X11964714Y-17954476D01*
X11983762Y-17964000D01*
X11993286Y-17973524D01*
X12002809Y-17992571D01*
X12002809Y-18002095D01*
X11993286Y-18021143D01*
X11983762Y-18030667D01*
X11964714Y-18040190D01*
X11926619Y-18040190D01*
X11907571Y-18049714D01*
X11898048Y-18059238D01*
X11888524Y-18078286D01*
X11888524Y-18116381D01*
X11898048Y-18135429D01*
X11907571Y-18144952D01*
X11926619Y-18154476D01*
X11964714Y-18154476D01*
X11983762Y-18144952D01*
X11993286Y-18135429D01*
X12002809Y-18116381D01*
X12002809Y-18078286D01*
X11993286Y-18059238D01*
X11983762Y-18049714D01*
X11964714Y-18040190D01*
X12240905Y-18154476D02*
X12240905Y-17954476D01*
X12326619Y-18154476D02*
X12326619Y-18049714D01*
X12317095Y-18030667D01*
X12298048Y-18021143D01*
X12269476Y-18021143D01*
X12250428Y-18030667D01*
X12240905Y-18040190D01*
X12450428Y-18154476D02*
X12431381Y-18144952D01*
X12421857Y-18135429D01*
X12412333Y-18116381D01*
X12412333Y-18059238D01*
X12421857Y-18040190D01*
X12431381Y-18030667D01*
X12450428Y-18021143D01*
X12479000Y-18021143D01*
X12498048Y-18030667D01*
X12507571Y-18040190D01*
X12517095Y-18059238D01*
X12517095Y-18116381D01*
X12507571Y-18135429D01*
X12498048Y-18144952D01*
X12479000Y-18154476D01*
X12450428Y-18154476D01*
X12631381Y-18154476D02*
X12612333Y-18144952D01*
X12602809Y-18125905D01*
X12602809Y-17954476D01*
X12783762Y-18144952D02*
X12764714Y-18154476D01*
X12726619Y-18154476D01*
X12707571Y-18144952D01*
X12698048Y-18125905D01*
X12698048Y-18049714D01*
X12707571Y-18030667D01*
X12726619Y-18021143D01*
X12764714Y-18021143D01*
X12783762Y-18030667D01*
X12793286Y-18049714D01*
X12793286Y-18068762D01*
X12698048Y-18087810D01*
X12869476Y-18144952D02*
X12888524Y-18154476D01*
X12926619Y-18154476D01*
X12945667Y-18144952D01*
X12955190Y-18125905D01*
X12955190Y-18116381D01*
X12945667Y-18097333D01*
X12926619Y-18087810D01*
X12898048Y-18087810D01*
X12879000Y-18078286D01*
X12869476Y-18059238D01*
X12869476Y-18049714D01*
X12879000Y-18030667D01*
X12898048Y-18021143D01*
X12926619Y-18021143D01*
X12945667Y-18030667D01*
X13021857Y-18230667D02*
X13031381Y-18221143D01*
X13050428Y-18192571D01*
X13059952Y-18173524D01*
X13069476Y-18144952D01*
X13079000Y-18097333D01*
X13079000Y-18059238D01*
X13069476Y-18011619D01*
X13059952Y-17983048D01*
X13050428Y-17964000D01*
X13031381Y-17935429D01*
X13021857Y-17925905D01*
D15*
X7855820Y-18359820D02*
X7855820Y-18296180D01*
X7792180Y-18296180D01*
X7792180Y-18359820D01*
X7855820Y-18359820D01*
D11*
X8164714Y-18218476D02*
X8183762Y-18218476D01*
X8202809Y-18228000D01*
X8212333Y-18237524D01*
X8221857Y-18256571D01*
X8231381Y-18294667D01*
X8231381Y-18342286D01*
X8221857Y-18380381D01*
X8212333Y-18399429D01*
X8202809Y-18408952D01*
X8183762Y-18418476D01*
X8164714Y-18418476D01*
X8145667Y-18408952D01*
X8136143Y-18399429D01*
X8126619Y-18380381D01*
X8117095Y-18342286D01*
X8117095Y-18294667D01*
X8126619Y-18256571D01*
X8136143Y-18237524D01*
X8145667Y-18228000D01*
X8164714Y-18218476D01*
X8317095Y-18399429D02*
X8326619Y-18408952D01*
X8317095Y-18418476D01*
X8307571Y-18408952D01*
X8317095Y-18399429D01*
X8317095Y-18418476D01*
X8421857Y-18418476D02*
X8459952Y-18418476D01*
X8479000Y-18408952D01*
X8488524Y-18399429D01*
X8507571Y-18370857D01*
X8517095Y-18332762D01*
X8517095Y-18256571D01*
X8507571Y-18237524D01*
X8498048Y-18228000D01*
X8479000Y-18218476D01*
X8440905Y-18218476D01*
X8421857Y-18228000D01*
X8412333Y-18237524D01*
X8402810Y-18256571D01*
X8402810Y-18304190D01*
X8412333Y-18323238D01*
X8421857Y-18332762D01*
X8440905Y-18342286D01*
X8479000Y-18342286D01*
X8498048Y-18332762D01*
X8507571Y-18323238D01*
X8517095Y-18304190D01*
X8640905Y-18218476D02*
X8659952Y-18218476D01*
X8679000Y-18228000D01*
X8688524Y-18237524D01*
X8698048Y-18256571D01*
X8707571Y-18294667D01*
X8707571Y-18342286D01*
X8698048Y-18380381D01*
X8688524Y-18399429D01*
X8679000Y-18408952D01*
X8659952Y-18418476D01*
X8640905Y-18418476D01*
X8621857Y-18408952D01*
X8612333Y-18399429D01*
X8602810Y-18380381D01*
X8593286Y-18342286D01*
X8593286Y-18294667D01*
X8602810Y-18256571D01*
X8612333Y-18237524D01*
X8621857Y-18228000D01*
X8640905Y-18218476D01*
X8831381Y-18218476D02*
X8850429Y-18218476D01*
X8869476Y-18228000D01*
X8879000Y-18237524D01*
X8888524Y-18256571D01*
X8898048Y-18294667D01*
X8898048Y-18342286D01*
X8888524Y-18380381D01*
X8879000Y-18399429D01*
X8869476Y-18408952D01*
X8850429Y-18418476D01*
X8831381Y-18418476D01*
X8812333Y-18408952D01*
X8802810Y-18399429D01*
X8793286Y-18380381D01*
X8783762Y-18342286D01*
X8783762Y-18294667D01*
X8793286Y-18256571D01*
X8802810Y-18237524D01*
X8812333Y-18228000D01*
X8831381Y-18218476D01*
X8983762Y-18418476D02*
X8983762Y-18285143D01*
X8983762Y-18304190D02*
X8993286Y-18294667D01*
X9012333Y-18285143D01*
X9040905Y-18285143D01*
X9059952Y-18294667D01*
X9069476Y-18313714D01*
X9069476Y-18418476D01*
X9069476Y-18313714D02*
X9079000Y-18294667D01*
X9098048Y-18285143D01*
X9126619Y-18285143D01*
X9145667Y-18294667D01*
X9155190Y-18313714D01*
X9155190Y-18418476D01*
X9250429Y-18418476D02*
X9250429Y-18285143D01*
X9250429Y-18304190D02*
X9259952Y-18294667D01*
X9279000Y-18285143D01*
X9307571Y-18285143D01*
X9326619Y-18294667D01*
X9336143Y-18313714D01*
X9336143Y-18418476D01*
X9336143Y-18313714D02*
X9345667Y-18294667D01*
X9364714Y-18285143D01*
X9393286Y-18285143D01*
X9412333Y-18294667D01*
X9421857Y-18313714D01*
X9421857Y-18418476D01*
X9812333Y-18208952D02*
X9640905Y-18466095D01*
X10069476Y-18218476D02*
X10088524Y-18218476D01*
X10107571Y-18228000D01*
X10117095Y-18237524D01*
X10126619Y-18256571D01*
X10136143Y-18294667D01*
X10136143Y-18342286D01*
X10126619Y-18380381D01*
X10117095Y-18399429D01*
X10107571Y-18408952D01*
X10088524Y-18418476D01*
X10069476Y-18418476D01*
X10050429Y-18408952D01*
X10040905Y-18399429D01*
X10031381Y-18380381D01*
X10021857Y-18342286D01*
X10021857Y-18294667D01*
X10031381Y-18256571D01*
X10040905Y-18237524D01*
X10050429Y-18228000D01*
X10069476Y-18218476D01*
X10221857Y-18399429D02*
X10231381Y-18408952D01*
X10221857Y-18418476D01*
X10212333Y-18408952D01*
X10221857Y-18399429D01*
X10221857Y-18418476D01*
X10355190Y-18218476D02*
X10374238Y-18218476D01*
X10393286Y-18228000D01*
X10402810Y-18237524D01*
X10412333Y-18256571D01*
X10421857Y-18294667D01*
X10421857Y-18342286D01*
X10412333Y-18380381D01*
X10402810Y-18399429D01*
X10393286Y-18408952D01*
X10374238Y-18418476D01*
X10355190Y-18418476D01*
X10336143Y-18408952D01*
X10326619Y-18399429D01*
X10317095Y-18380381D01*
X10307571Y-18342286D01*
X10307571Y-18294667D01*
X10317095Y-18256571D01*
X10326619Y-18237524D01*
X10336143Y-18228000D01*
X10355190Y-18218476D01*
X10488524Y-18218476D02*
X10612333Y-18218476D01*
X10545667Y-18294667D01*
X10574238Y-18294667D01*
X10593286Y-18304190D01*
X10602810Y-18313714D01*
X10612333Y-18332762D01*
X10612333Y-18380381D01*
X10602810Y-18399429D01*
X10593286Y-18408952D01*
X10574238Y-18418476D01*
X10517095Y-18418476D01*
X10498048Y-18408952D01*
X10488524Y-18399429D01*
X10793286Y-18218476D02*
X10698048Y-18218476D01*
X10688524Y-18313714D01*
X10698048Y-18304190D01*
X10717095Y-18294667D01*
X10764714Y-18294667D01*
X10783762Y-18304190D01*
X10793286Y-18313714D01*
X10802810Y-18332762D01*
X10802810Y-18380381D01*
X10793286Y-18399429D01*
X10783762Y-18408952D01*
X10764714Y-18418476D01*
X10717095Y-18418476D01*
X10698048Y-18408952D01*
X10688524Y-18399429D01*
X10974238Y-18285143D02*
X10974238Y-18418476D01*
X10926619Y-18208952D02*
X10879000Y-18351810D01*
X11002810Y-18351810D01*
X11069476Y-18218476D02*
X11069476Y-18256571D01*
X11145667Y-18218476D02*
X11145667Y-18256571D01*
X11440905Y-18494667D02*
X11431381Y-18485143D01*
X11412333Y-18456571D01*
X11402809Y-18437524D01*
X11393286Y-18408952D01*
X11383762Y-18361333D01*
X11383762Y-18323238D01*
X11393286Y-18275619D01*
X11402809Y-18247048D01*
X11412333Y-18228000D01*
X11431381Y-18199429D01*
X11440905Y-18189905D01*
X11602809Y-18218476D02*
X11564714Y-18218476D01*
X11545667Y-18228000D01*
X11536143Y-18237524D01*
X11517095Y-18266095D01*
X11507571Y-18304190D01*
X11507571Y-18380381D01*
X11517095Y-18399429D01*
X11526619Y-18408952D01*
X11545667Y-18418476D01*
X11583762Y-18418476D01*
X11602809Y-18408952D01*
X11612333Y-18399429D01*
X11621857Y-18380381D01*
X11621857Y-18332762D01*
X11612333Y-18313714D01*
X11602809Y-18304190D01*
X11583762Y-18294667D01*
X11545667Y-18294667D01*
X11526619Y-18304190D01*
X11517095Y-18313714D01*
X11507571Y-18332762D01*
X11859952Y-18418476D02*
X11859952Y-18218476D01*
X11945667Y-18418476D02*
X11945667Y-18313714D01*
X11936143Y-18294667D01*
X11917095Y-18285143D01*
X11888524Y-18285143D01*
X11869476Y-18294667D01*
X11859952Y-18304190D01*
X12069476Y-18418476D02*
X12050428Y-18408952D01*
X12040905Y-18399429D01*
X12031381Y-18380381D01*
X12031381Y-18323238D01*
X12040905Y-18304190D01*
X12050428Y-18294667D01*
X12069476Y-18285143D01*
X12098048Y-18285143D01*
X12117095Y-18294667D01*
X12126619Y-18304190D01*
X12136143Y-18323238D01*
X12136143Y-18380381D01*
X12126619Y-18399429D01*
X12117095Y-18408952D01*
X12098048Y-18418476D01*
X12069476Y-18418476D01*
X12250428Y-18418476D02*
X12231381Y-18408952D01*
X12221857Y-18389905D01*
X12221857Y-18218476D01*
X12402809Y-18408952D02*
X12383762Y-18418476D01*
X12345667Y-18418476D01*
X12326619Y-18408952D01*
X12317095Y-18389905D01*
X12317095Y-18313714D01*
X12326619Y-18294667D01*
X12345667Y-18285143D01*
X12383762Y-18285143D01*
X12402809Y-18294667D01*
X12412333Y-18313714D01*
X12412333Y-18332762D01*
X12317095Y-18351810D01*
X12488524Y-18408952D02*
X12507571Y-18418476D01*
X12545667Y-18418476D01*
X12564714Y-18408952D01*
X12574238Y-18389905D01*
X12574238Y-18380381D01*
X12564714Y-18361333D01*
X12545667Y-18351810D01*
X12517095Y-18351810D01*
X12498048Y-18342286D01*
X12488524Y-18323238D01*
X12488524Y-18313714D01*
X12498048Y-18294667D01*
X12517095Y-18285143D01*
X12545667Y-18285143D01*
X12564714Y-18294667D01*
X12640905Y-18494667D02*
X12650428Y-18485143D01*
X12669476Y-18456571D01*
X12679000Y-18437524D01*
X12688524Y-18408952D01*
X12698048Y-18361333D01*
X12698048Y-18323238D01*
X12688524Y-18275619D01*
X12679000Y-18247048D01*
X12669476Y-18228000D01*
X12650428Y-18199429D01*
X12640905Y-18189905D01*
D10*
X7819000Y-18642000D02*
X7869000Y-18592000D01*
X7819000Y-18542000D01*
X7769000Y-18592000D01*
X7819000Y-18642000D01*
D11*
X8231381Y-18682476D02*
X8117095Y-18682476D01*
X8174238Y-18682476D02*
X8174238Y-18482476D01*
X8155190Y-18511048D01*
X8136143Y-18530095D01*
X8117095Y-18539619D01*
X8317095Y-18663429D02*
X8326619Y-18672952D01*
X8317095Y-18682476D01*
X8307571Y-18672952D01*
X8317095Y-18663429D01*
X8317095Y-18682476D01*
X8450429Y-18482476D02*
X8469476Y-18482476D01*
X8488524Y-18492000D01*
X8498048Y-18501524D01*
X8507571Y-18520571D01*
X8517095Y-18558667D01*
X8517095Y-18606286D01*
X8507571Y-18644381D01*
X8498048Y-18663429D01*
X8488524Y-18672952D01*
X8469476Y-18682476D01*
X8450429Y-18682476D01*
X8431381Y-18672952D01*
X8421857Y-18663429D01*
X8412333Y-18644381D01*
X8402810Y-18606286D01*
X8402810Y-18558667D01*
X8412333Y-18520571D01*
X8421857Y-18501524D01*
X8431381Y-18492000D01*
X8450429Y-18482476D01*
X8640905Y-18482476D02*
X8659952Y-18482476D01*
X8679000Y-18492000D01*
X8688524Y-18501524D01*
X8698048Y-18520571D01*
X8707571Y-18558667D01*
X8707571Y-18606286D01*
X8698048Y-18644381D01*
X8688524Y-18663429D01*
X8679000Y-18672952D01*
X8659952Y-18682476D01*
X8640905Y-18682476D01*
X8621857Y-18672952D01*
X8612333Y-18663429D01*
X8602810Y-18644381D01*
X8593286Y-18606286D01*
X8593286Y-18558667D01*
X8602810Y-18520571D01*
X8612333Y-18501524D01*
X8621857Y-18492000D01*
X8640905Y-18482476D01*
X8831381Y-18482476D02*
X8850429Y-18482476D01*
X8869476Y-18492000D01*
X8879000Y-18501524D01*
X8888524Y-18520571D01*
X8898048Y-18558667D01*
X8898048Y-18606286D01*
X8888524Y-18644381D01*
X8879000Y-18663429D01*
X8869476Y-18672952D01*
X8850429Y-18682476D01*
X8831381Y-18682476D01*
X8812333Y-18672952D01*
X8802810Y-18663429D01*
X8793286Y-18644381D01*
X8783762Y-18606286D01*
X8783762Y-18558667D01*
X8793286Y-18520571D01*
X8802810Y-18501524D01*
X8812333Y-18492000D01*
X8831381Y-18482476D01*
X8983762Y-18682476D02*
X8983762Y-18549143D01*
X8983762Y-18568190D02*
X8993286Y-18558667D01*
X9012333Y-18549143D01*
X9040905Y-18549143D01*
X9059952Y-18558667D01*
X9069476Y-18577714D01*
X9069476Y-18682476D01*
X9069476Y-18577714D02*
X9079000Y-18558667D01*
X9098048Y-18549143D01*
X9126619Y-18549143D01*
X9145667Y-18558667D01*
X9155190Y-18577714D01*
X9155190Y-18682476D01*
X9250429Y-18682476D02*
X9250429Y-18549143D01*
X9250429Y-18568190D02*
X9259952Y-18558667D01*
X9279000Y-18549143D01*
X9307571Y-18549143D01*
X9326619Y-18558667D01*
X9336143Y-18577714D01*
X9336143Y-18682476D01*
X9336143Y-18577714D02*
X9345667Y-18558667D01*
X9364714Y-18549143D01*
X9393286Y-18549143D01*
X9412333Y-18558667D01*
X9421857Y-18577714D01*
X9421857Y-18682476D01*
X9812333Y-18472952D02*
X9640905Y-18730095D01*
X10069476Y-18482476D02*
X10088524Y-18482476D01*
X10107571Y-18492000D01*
X10117095Y-18501524D01*
X10126619Y-18520571D01*
X10136143Y-18558667D01*
X10136143Y-18606286D01*
X10126619Y-18644381D01*
X10117095Y-18663429D01*
X10107571Y-18672952D01*
X10088524Y-18682476D01*
X10069476Y-18682476D01*
X10050429Y-18672952D01*
X10040905Y-18663429D01*
X10031381Y-18644381D01*
X10021857Y-18606286D01*
X10021857Y-18558667D01*
X10031381Y-18520571D01*
X10040905Y-18501524D01*
X10050429Y-18492000D01*
X10069476Y-18482476D01*
X10221857Y-18663429D02*
X10231381Y-18672952D01*
X10221857Y-18682476D01*
X10212333Y-18672952D01*
X10221857Y-18663429D01*
X10221857Y-18682476D01*
X10355190Y-18482476D02*
X10374238Y-18482476D01*
X10393286Y-18492000D01*
X10402810Y-18501524D01*
X10412333Y-18520571D01*
X10421857Y-18558667D01*
X10421857Y-18606286D01*
X10412333Y-18644381D01*
X10402810Y-18663429D01*
X10393286Y-18672952D01*
X10374238Y-18682476D01*
X10355190Y-18682476D01*
X10336143Y-18672952D01*
X10326619Y-18663429D01*
X10317095Y-18644381D01*
X10307571Y-18606286D01*
X10307571Y-18558667D01*
X10317095Y-18520571D01*
X10326619Y-18501524D01*
X10336143Y-18492000D01*
X10355190Y-18482476D01*
X10488524Y-18482476D02*
X10612333Y-18482476D01*
X10545667Y-18558667D01*
X10574238Y-18558667D01*
X10593286Y-18568190D01*
X10602810Y-18577714D01*
X10612333Y-18596762D01*
X10612333Y-18644381D01*
X10602810Y-18663429D01*
X10593286Y-18672952D01*
X10574238Y-18682476D01*
X10517095Y-18682476D01*
X10498048Y-18672952D01*
X10488524Y-18663429D01*
X10707571Y-18682476D02*
X10745667Y-18682476D01*
X10764714Y-18672952D01*
X10774238Y-18663429D01*
X10793286Y-18634857D01*
X10802810Y-18596762D01*
X10802810Y-18520571D01*
X10793286Y-18501524D01*
X10783762Y-18492000D01*
X10764714Y-18482476D01*
X10726619Y-18482476D01*
X10707571Y-18492000D01*
X10698048Y-18501524D01*
X10688524Y-18520571D01*
X10688524Y-18568190D01*
X10698048Y-18587238D01*
X10707571Y-18596762D01*
X10726619Y-18606286D01*
X10764714Y-18606286D01*
X10783762Y-18596762D01*
X10793286Y-18587238D01*
X10802810Y-18568190D01*
X10974238Y-18549143D02*
X10974238Y-18682476D01*
X10926619Y-18472952D02*
X10879000Y-18615810D01*
X11002810Y-18615810D01*
X11069476Y-18482476D02*
X11069476Y-18520571D01*
X11145667Y-18482476D02*
X11145667Y-18520571D01*
X11440905Y-18758667D02*
X11431381Y-18749143D01*
X11412333Y-18720571D01*
X11402809Y-18701524D01*
X11393286Y-18672952D01*
X11383762Y-18625333D01*
X11383762Y-18587238D01*
X11393286Y-18539619D01*
X11402809Y-18511048D01*
X11412333Y-18492000D01*
X11431381Y-18463429D01*
X11440905Y-18453905D01*
X11621857Y-18682476D02*
X11507571Y-18682476D01*
X11564714Y-18682476D02*
X11564714Y-18482476D01*
X11545667Y-18511048D01*
X11526619Y-18530095D01*
X11507571Y-18539619D01*
X11717095Y-18682476D02*
X11755190Y-18682476D01*
X11774238Y-18672952D01*
X11783762Y-18663429D01*
X11802809Y-18634857D01*
X11812333Y-18596762D01*
X11812333Y-18520571D01*
X11802809Y-18501524D01*
X11793286Y-18492000D01*
X11774238Y-18482476D01*
X11736143Y-18482476D01*
X11717095Y-18492000D01*
X11707571Y-18501524D01*
X11698048Y-18520571D01*
X11698048Y-18568190D01*
X11707571Y-18587238D01*
X11717095Y-18596762D01*
X11736143Y-18606286D01*
X11774238Y-18606286D01*
X11793286Y-18596762D01*
X11802809Y-18587238D01*
X11812333Y-18568190D01*
X11993286Y-18482476D02*
X11898048Y-18482476D01*
X11888524Y-18577714D01*
X11898048Y-18568190D01*
X11917095Y-18558667D01*
X11964714Y-18558667D01*
X11983762Y-18568190D01*
X11993286Y-18577714D01*
X12002809Y-18596762D01*
X12002809Y-18644381D01*
X11993286Y-18663429D01*
X11983762Y-18672952D01*
X11964714Y-18682476D01*
X11917095Y-18682476D01*
X11898048Y-18672952D01*
X11888524Y-18663429D01*
X12240905Y-18682476D02*
X12240905Y-18482476D01*
X12326619Y-18682476D02*
X12326619Y-18577714D01*
X12317095Y-18558667D01*
X12298048Y-18549143D01*
X12269476Y-18549143D01*
X12250428Y-18558667D01*
X12240905Y-18568190D01*
X12450428Y-18682476D02*
X12431381Y-18672952D01*
X12421857Y-18663429D01*
X12412333Y-18644381D01*
X12412333Y-18587238D01*
X12421857Y-18568190D01*
X12431381Y-18558667D01*
X12450428Y-18549143D01*
X12479000Y-18549143D01*
X12498048Y-18558667D01*
X12507571Y-18568190D01*
X12517095Y-18587238D01*
X12517095Y-18644381D01*
X12507571Y-18663429D01*
X12498048Y-18672952D01*
X12479000Y-18682476D01*
X12450428Y-18682476D01*
X12631381Y-18682476D02*
X12612333Y-18672952D01*
X12602809Y-18653905D01*
X12602809Y-18482476D01*
X12783762Y-18672952D02*
X12764714Y-18682476D01*
X12726619Y-18682476D01*
X12707571Y-18672952D01*
X12698048Y-18653905D01*
X12698048Y-18577714D01*
X12707571Y-18558667D01*
X12726619Y-18549143D01*
X12764714Y-18549143D01*
X12783762Y-18558667D01*
X12793286Y-18577714D01*
X12793286Y-18596762D01*
X12698048Y-18615810D01*
X12869476Y-18672952D02*
X12888524Y-18682476D01*
X12926619Y-18682476D01*
X12945667Y-18672952D01*
X12955190Y-18653905D01*
X12955190Y-18644381D01*
X12945667Y-18625333D01*
X12926619Y-18615810D01*
X12898048Y-18615810D01*
X12879000Y-18606286D01*
X12869476Y-18587238D01*
X12869476Y-18577714D01*
X12879000Y-18558667D01*
X12898048Y-18549143D01*
X12926619Y-18549143D01*
X12945667Y-18558667D01*
X13021857Y-18758667D02*
X13031381Y-18749143D01*
X13050428Y-18720571D01*
X13059952Y-18701524D01*
X13069476Y-18672952D01*
X13079000Y-18625333D01*
X13079000Y-18587238D01*
X13069476Y-18539619D01*
X13059952Y-18511048D01*
X13050428Y-18492000D01*
X13031381Y-18463429D01*
X13021857Y-18453905D01*
M02*
