M48
; DRILL file {KiCad (6.0.11)} date Sat 25 Feb 2023 11:46:15 PM CET
; FORMAT={-:-/ absolute / inch / decimal}
; #@! TF.CreationDate,2023-02-25T23:46:15+01:00
; #@! TF.GenerationSoftware,Kicad,Pcbnew,(6.0.11)
; #@! TF.FileFunction,Plated,1,2,PTH
FMAT,2
INCH
; #@! TA.AperFunction,Plated,PTH,ViaDrill
T1C0.0157
; #@! TA.AperFunction,Plated,PTH,ComponentDrill
T2C0.0276
; #@! TA.AperFunction,Plated,PTH,ComponentDrill
T3C0.0315
; #@! TA.AperFunction,Plated,PTH,ComponentDrill
T4C0.0354
; #@! TA.AperFunction,Plated,PTH,ComponentDrill
T5C0.0394
%
G90
G05
T1
X3.2752Y-4.3348
X3.285Y-5.74
X3.31Y-4.765
X3.3152Y-6.1748
X3.331Y-1.9907
X3.3482Y-1.5526
X3.3482Y-2.9526
X3.3483Y-3.4
X3.4449Y-1.4996
X3.4449Y-2.8996
X3.4449Y-4.2996
X3.4449Y-5.6996
X3.4961Y-1.4996
X3.4961Y-2.8996
X3.4961Y-4.2996
X3.4961Y-5.6996
X3.5Y-1.4327
X3.5Y-2.8327
X3.5Y-4.2327
X3.5Y-5.6327
X3.5079Y-1.6374
X3.5079Y-3.0374
X3.5079Y-4.4374
X3.5079Y-5.8374
X3.544Y-1.3861
X3.544Y-2.7861
X3.544Y-4.1861
X3.544Y-5.5861
X3.5512Y-1.7831
X3.5512Y-3.1831
X3.5512Y-4.5831
X3.5512Y-5.9831
X3.5748Y-2.2014
X3.5748Y-3.6014
X3.5748Y-5.0014
X3.5748Y-6.4014
X3.5787Y-1.8657
X3.5787Y-3.2657
X3.5787Y-4.6657
X3.5787Y-6.0657
X3.5928Y-1.517
X3.5928Y-2.917
X3.5928Y-4.317
X3.5928Y-5.717
X3.6024Y-1.6256
X3.6024Y-3.0256
X3.6024Y-4.4256
X3.6024Y-5.8256
X3.6417Y-1.5475
X3.6417Y-2.9475
X3.6417Y-4.3475
X3.6417Y-5.7475
X3.6452Y-1.9061
X3.6452Y-3.3061
X3.6452Y-4.7061
X3.6452Y-6.1061
X3.6496Y-2.2525
X3.6496Y-3.6525
X3.6496Y-5.0525
X3.6496Y-6.4525
X3.7165Y-1.8845
X3.7165Y-3.2845
X3.7165Y-4.6845
X3.7165Y-6.0845
X3.7362Y-1.5075
X3.7362Y-2.9075
X3.7362Y-4.3075
X3.7362Y-5.7075
X3.7402Y-1.7801
X3.7402Y-3.1801
X3.7402Y-4.5801
X3.7402Y-5.9801
X3.7441Y-1.6138
X3.7441Y-3.0138
X3.7441Y-4.4138
X3.7441Y-5.8138
X3.7648Y-1.8845
X3.7648Y-3.2845
X3.7648Y-4.6845
X3.7648Y-6.0845
X3.811Y-1.6335
X3.811Y-1.9248
X3.811Y-3.0335
X3.811Y-3.3248
X3.811Y-4.4335
X3.811Y-4.7248
X3.811Y-5.8335
X3.811Y-6.1248
X3.8583Y-1.7801
X3.8583Y-3.1801
X3.8583Y-4.5801
X3.8583Y-5.9801
X3.9016Y-1.476
X3.9016Y-2.876
X3.9016Y-4.276
X3.9016Y-5.676
X3.9134Y-1.7831
X3.9134Y-3.1831
X3.9134Y-4.5831
X3.9134Y-5.9831
X3.9291Y-1.6177
X3.9291Y-3.0177
X3.9291Y-4.4177
X3.9291Y-5.8177
X3.9488Y-1.8195
X3.9488Y-3.2195
X3.9488Y-4.6195
X3.9488Y-6.0195
X3.9567Y-2.2594
X3.9567Y-3.6594
X3.9567Y-5.0594
X3.9567Y-6.4594
X3.9626Y-1.5154
X3.9626Y-2.9154
X3.9626Y-4.3154
X3.9626Y-5.7154
X4.0039Y-2.1689
X4.0039Y-3.5689
X4.0039Y-4.9689
X4.0039Y-6.3689
X4.0079Y-1.9169
X4.0079Y-3.3169
X4.0079Y-4.7169
X4.0079Y-6.1169
X4.0093Y-1.6218
X4.0093Y-3.0218
X4.0093Y-4.4218
X4.0093Y-5.8218
X4.0118Y-1.7988
X4.0118Y-3.1988
X4.0118Y-4.5988
X4.0118Y-5.9988
X4.0758Y-1.7988
X4.0758Y-3.1988
X4.0758Y-4.5988
X4.0758Y-5.9988
X4.0827Y-1.85
X4.0827Y-3.25
X4.0827Y-4.65
X4.0827Y-6.05
X4.0866Y-1.7437
X4.0866Y-3.1437
X4.0866Y-4.5437
X4.0866Y-5.9437
X4.1213Y-2.4065
X4.165Y-3.6716
X4.1752Y-3.7835
X4.1752Y-5.1835
X4.1752Y-6.5835
X4.1786Y-2.6614
X4.1929Y-2.2555
X4.1929Y-5.0555
X4.1929Y-6.4555
X4.1935Y-3.624
X4.2035Y-2.3706
X4.2159Y-2.2
X4.2441Y-5.024
X4.2441Y-6.424
X4.248Y-2.4331
X4.2598Y-2.7047
X4.2746Y-5.2715
X4.2746Y-5.5276
X4.2956Y-5.1256
X4.3Y-5.189
X4.4803Y-2.3858
X4.5118Y-5.5276
X4.5752Y-2.6565
X4.6285Y-2.05
X4.6285Y-3.45
X4.6285Y-4.85
X4.6285Y-6.25
X4.689Y-3.7441
X4.8465Y-5.1614
X4.8504Y-5.3031
X4.9252Y-2.7362
X4.9845Y-2.5279
X4.9882Y-5.2283
X4.9965Y-3.8145
X5.0157Y-4.9213
X5.0285Y-2.7647
X5.05Y-2.45
X5.1024Y-5.378
X5.1201Y-2.6634
X5.1285Y-2.1201
X5.1304Y-5.2879
X5.1467Y-2.55
X5.1601Y-3.4996
X5.1717Y-2.1314
X5.1772Y-2.248
X5.1939Y-4.1063
X5.2214Y-2.6715
X5.2214Y-3.0
T2
X3.3937Y-1.376
X3.3937Y-1.576
X3.3937Y-2.776
X3.3937Y-2.976
X3.3937Y-4.176
X3.3937Y-4.376
X3.3937Y-5.576
X3.3937Y-5.776
X3.4921Y-1.376
X3.4921Y-1.576
X3.4921Y-2.776
X3.4921Y-2.976
X3.4921Y-4.176
X3.4921Y-4.376
X3.4921Y-5.576
X3.4921Y-5.776
X3.5945Y-1.3681
X3.5945Y-1.5681
X3.5945Y-2.7681
X3.5945Y-2.9681
X3.5945Y-4.1681
X3.5945Y-4.3681
X3.5945Y-5.5681
X3.5945Y-5.7681
X3.6929Y-1.376
X3.6929Y-1.576
X3.6929Y-2.776
X3.6929Y-2.976
X3.6929Y-4.176
X3.6929Y-4.376
X3.6929Y-5.576
X3.6929Y-5.776
X3.7953Y-1.376
X3.7953Y-1.576
X3.7953Y-2.776
X3.7953Y-2.976
X3.7953Y-4.176
X3.7953Y-4.376
X3.7953Y-5.576
X3.7953Y-5.776
X3.8937Y-1.376
X3.8937Y-1.576
X3.8937Y-2.776
X3.8937Y-2.976
X3.8937Y-4.176
X3.8937Y-4.376
X3.8937Y-5.576
X3.8937Y-5.776
X3.9921Y-1.3736
X3.9921Y-1.5736
X3.9921Y-2.7736
X3.9921Y-2.9736
X3.9921Y-4.1736
X3.9921Y-4.3736
X3.9921Y-5.5736
X3.9921Y-5.7736
X4.0945Y-1.3736
X4.0945Y-1.5736
X4.0945Y-2.7736
X4.0945Y-2.9736
X4.0945Y-4.1736
X4.0945Y-4.3736
X4.0945Y-5.5736
X4.0945Y-5.7736
X4.1874Y-1.3894
X4.1874Y-1.4917
X4.1874Y-1.5941
X4.1874Y-1.6886
X4.1874Y-1.7909
X4.1874Y-1.8894
X4.1874Y-1.9917
X4.1874Y-2.0902
X4.1874Y-2.7894
X4.1874Y-2.8917
X4.1874Y-2.9941
X4.1874Y-3.0886
X4.1874Y-3.1909
X4.1874Y-3.2894
X4.1874Y-3.3917
X4.1874Y-3.4902
X4.1874Y-4.1894
X4.1874Y-4.2917
X4.1874Y-4.3941
X4.1874Y-4.4886
X4.1874Y-4.5909
X4.1874Y-4.6894
X4.1874Y-4.7917
X4.1874Y-4.8902
X4.1874Y-5.5894
X4.1874Y-5.6917
X4.1874Y-5.7941
X4.1874Y-5.8886
X4.1874Y-5.9909
X4.1874Y-6.0894
X4.1874Y-6.1917
X4.1874Y-6.2902
X4.3874Y-1.3894
X4.3874Y-1.4917
X4.3874Y-1.5941
X4.3874Y-1.6886
X4.3874Y-1.7909
X4.3874Y-1.8894
X4.3874Y-1.9917
X4.3874Y-2.0902
X4.3874Y-2.7894
X4.3874Y-2.8917
X4.3874Y-2.9941
X4.3874Y-3.0886
X4.3874Y-3.1909
X4.3874Y-3.2894
X4.3874Y-3.3917
X4.3874Y-3.4902
X4.3874Y-4.1894
X4.3874Y-4.2917
X4.3874Y-4.3941
X4.3874Y-4.4886
X4.3874Y-4.5909
X4.3874Y-4.6894
X4.3874Y-4.7917
X4.3874Y-4.8902
X4.3874Y-5.5894
X4.3874Y-5.6917
X4.3874Y-5.7941
X4.3874Y-5.8886
X4.3874Y-5.9909
X4.3874Y-6.0894
X4.3874Y-6.1917
X4.3874Y-6.2902
T3
X3.4581Y-2.0665
X3.4581Y-2.3665
X3.4581Y-3.4665
X3.4581Y-3.7665
X3.4581Y-4.8665
X3.4581Y-5.1665
X3.4581Y-6.2665
X3.4581Y-6.5665
X3.4591Y-1.6728
X3.4591Y-1.9728
X3.4591Y-3.0728
X3.4591Y-3.3728
X3.4591Y-4.4728
X3.4591Y-4.7728
X3.4591Y-5.8728
X3.4591Y-6.1728
X3.5581Y-2.0665
X3.5581Y-2.3665
X3.5581Y-3.4665
X3.5581Y-3.7665
X3.5581Y-4.8665
X3.5581Y-5.1665
X3.5581Y-6.2665
X3.5581Y-6.5665
X3.5591Y-1.6728
X3.5591Y-1.9728
X3.5591Y-3.0728
X3.5591Y-3.3728
X3.5591Y-4.4728
X3.5591Y-4.7728
X3.5591Y-5.8728
X3.5591Y-6.1728
X3.6581Y-2.0665
X3.6581Y-2.3665
X3.6581Y-3.4665
X3.6581Y-3.7665
X3.6581Y-4.8665
X3.6581Y-5.1665
X3.6581Y-6.2665
X3.6581Y-6.5665
X3.6591Y-1.6728
X3.6591Y-1.9728
X3.6591Y-3.0728
X3.6591Y-3.3728
X3.6591Y-4.4728
X3.6591Y-4.7728
X3.6591Y-5.8728
X3.6591Y-6.1728
X3.7581Y-2.0665
X3.7581Y-2.3665
X3.7581Y-3.4665
X3.7581Y-3.7665
X3.7581Y-4.8665
X3.7581Y-5.1665
X3.7581Y-6.2665
X3.7581Y-6.5665
X3.7591Y-1.6728
X3.7591Y-1.9728
X3.7591Y-3.0728
X3.7591Y-3.3728
X3.7591Y-4.4728
X3.7591Y-4.7728
X3.7591Y-5.8728
X3.7591Y-6.1728
X3.8581Y-2.0665
X3.8581Y-2.3665
X3.8581Y-3.4665
X3.8581Y-3.7665
X3.8581Y-4.8665
X3.8581Y-5.1665
X3.8581Y-6.2665
X3.8581Y-6.5665
X3.8591Y-1.6728
X3.8591Y-1.9728
X3.8591Y-3.0728
X3.8591Y-3.3728
X3.8591Y-4.4728
X3.8591Y-4.7728
X3.8591Y-5.8728
X3.8591Y-6.1728
X3.9581Y-2.0665
X3.9581Y-2.3665
X3.9581Y-3.4665
X3.9581Y-3.7665
X3.9581Y-4.8665
X3.9581Y-5.1665
X3.9581Y-6.2665
X3.9581Y-6.5665
X3.9591Y-1.6728
X3.9591Y-1.9728
X3.9591Y-3.0728
X3.9591Y-3.3728
X3.9591Y-4.4728
X3.9591Y-4.7728
X3.9591Y-5.8728
X3.9591Y-6.1728
X4.0581Y-2.0665
X4.0581Y-2.3665
X4.0581Y-3.4665
X4.0581Y-3.7665
X4.0581Y-4.8665
X4.0581Y-5.1665
X4.0581Y-6.2665
X4.0581Y-6.5665
X4.0591Y-1.6728
X4.0591Y-1.9728
X4.0591Y-3.0728
X4.0591Y-3.3728
X4.0591Y-4.4728
X4.0591Y-4.7728
X4.0591Y-5.8728
X4.0591Y-6.1728
X4.2366Y-4.06
X4.27Y-1.205
X4.3Y-2.3
X4.3Y-2.6
X4.3002Y-3.6504
X4.3002Y-3.9504
X4.3016Y-6.455
X4.4Y-2.3
X4.4Y-2.6
X4.4Y-5.1
X4.4Y-5.4
X4.4002Y-3.6504
X4.4002Y-3.9504
X4.4334Y-4.06
X4.4669Y-1.205
X4.4984Y-6.455
X4.5Y-2.3
X4.5Y-2.6
X4.5Y-5.1
X4.5Y-5.4
X4.5002Y-3.6504
X4.5002Y-3.9504
X4.6Y-2.3
X4.6Y-2.6
X4.6Y-5.1
X4.6Y-5.4
X4.6002Y-3.6504
X4.6002Y-3.9504
X4.7Y-2.3
X4.7Y-2.6
X4.7Y-5.1
X4.7Y-5.4
X4.7002Y-3.6504
X4.7002Y-3.9504
X4.7881Y-3.53
X4.8Y-1.4
X4.8Y-1.5
X4.8Y-1.6
X4.8Y-1.7
X4.8Y-1.8
X4.8Y-1.9
X4.8Y-2.0
X4.8Y-2.3
X4.8Y-2.6
X4.8Y-2.8
X4.8Y-2.9
X4.8Y-3.0
X4.8Y-3.1
X4.8Y-3.2
X4.8Y-3.3
X4.8Y-3.4
X4.8Y-4.2
X4.8Y-4.3
X4.8Y-4.4
X4.8Y-4.5
X4.8Y-4.6
X4.8Y-4.7
X4.8Y-4.8
X4.8Y-5.1
X4.8Y-5.4
X4.8Y-5.6
X4.8Y-5.7
X4.8Y-5.8
X4.8Y-5.9
X4.8Y-6.0
X4.8Y-6.1
X4.8Y-6.2
X4.8002Y-3.6504
X4.8002Y-3.9504
X4.9Y-2.3
X4.9Y-2.6
X4.9Y-5.1
X4.9Y-5.4
X4.9002Y-3.6504
X4.9002Y-3.9504
X4.985Y-3.53
X5.0Y-5.1
X5.0Y-5.4
X5.1Y-1.4
X5.1Y-1.5
X5.1Y-1.6
X5.1Y-1.7
X5.1Y-1.8
X5.1Y-1.9
X5.1Y-2.0
X5.1Y-2.8
X5.1Y-2.9
X5.1Y-3.0
X5.1Y-3.1
X5.1Y-3.2
X5.1Y-3.3
X5.1Y-3.4
X5.1Y-4.2
X5.1Y-4.3
X5.1Y-4.4
X5.1Y-4.5
X5.1Y-4.6
X5.1Y-4.7
X5.1Y-4.8
X5.1Y-5.6
X5.1Y-5.7
X5.1Y-5.8
X5.1Y-5.9
X5.1Y-6.0
X5.1Y-6.1
X5.1Y-6.2
T4
X5.0327Y-6.4
X5.05Y-1.2
X5.1327Y-6.4
X5.15Y-1.2
X5.15Y-3.65
X5.15Y-3.75
T5
X3.2Y-1.5
X3.2Y-1.6
X3.2Y-1.7
X3.2Y-1.8
X3.2Y-1.9
X3.2Y-2.0
X3.2Y-2.1
X3.2Y-2.2
X3.2Y-2.4
X3.2Y-2.5
X3.2Y-2.6
X3.2Y-2.7
X3.2Y-2.9
X3.2Y-3.0
X3.2Y-3.1
X3.2Y-3.2
X3.2Y-3.3
X3.2Y-3.4
X3.2Y-3.5
X3.2Y-3.6
X3.2Y-3.9
X3.2Y-4.0
X3.2Y-4.3
X3.2Y-4.4
X3.2Y-4.5
X3.2Y-4.6
X3.2Y-4.7
X3.2Y-4.8
X3.2Y-4.9
X3.2Y-5.0
X3.2Y-5.2
X3.2Y-5.3
X3.2Y-5.4
X3.2Y-5.5
X3.2Y-5.7
X3.2Y-5.8
X3.2Y-5.9
X3.2Y-6.0
X3.2Y-6.1
X3.2Y-6.2
X3.2Y-6.3
X3.2Y-6.4
X3.4Y-1.1
X3.4Y-1.2
X3.4Y-2.5
X3.4Y-2.6
X3.4Y-3.9
X3.4Y-4.0
X3.4Y-5.3
X3.4Y-5.4
X3.5Y-1.1
X3.5Y-1.2
X3.5Y-2.5
X3.5Y-2.6
X3.5Y-3.9
X3.5Y-4.0
X3.5Y-5.3
X3.5Y-5.4
X3.6Y-1.1
X3.6Y-1.2
X3.6Y-2.5
X3.6Y-2.6
X3.6Y-3.9
X3.6Y-4.0
X3.6Y-5.3
X3.6Y-5.4
X3.7Y-1.1
X3.7Y-1.2
X3.7Y-2.5
X3.7Y-2.6
X3.7Y-3.9
X3.7Y-4.0
X3.7Y-5.3
X3.7Y-5.4
X3.8Y-1.1
X3.8Y-1.2
X3.8Y-2.5
X3.8Y-2.6
X3.8Y-3.9
X3.8Y-4.0
X3.8Y-5.3
X3.8Y-5.4
X3.9Y-1.1
X3.9Y-1.2
X3.9Y-2.5
X3.9Y-2.6
X3.9Y-3.9
X3.9Y-4.0
X3.9Y-5.3
X3.9Y-5.4
X4.0Y-1.1
X4.0Y-1.2
X4.0Y-2.5
X4.0Y-2.6
X4.0Y-3.9
X4.0Y-4.0
X4.0Y-5.3
X4.0Y-5.4
X4.1Y-1.1
X4.1Y-1.2
X4.1Y-2.5
X4.1Y-2.6
X4.1Y-3.9
X4.1Y-4.0
X4.1Y-5.3
X4.1Y-5.4
X4.5Y-1.4
X4.5Y-1.5
X4.5Y-1.6
X4.5Y-1.7
X4.5Y-1.8
X4.5Y-1.9
X4.5Y-2.0
X4.5Y-2.1
X4.5Y-2.8
X4.5Y-2.9
X4.5Y-3.0
X4.5Y-3.1
X4.5Y-3.2
X4.5Y-3.3
X4.5Y-3.4
X4.5Y-3.5
X4.5Y-4.2
X4.5Y-4.3
X4.5Y-4.4
X4.5Y-4.5
X4.5Y-4.6
X4.5Y-4.7
X4.5Y-4.8
X4.5Y-4.9
X4.5Y-5.6
X4.5Y-5.7
X4.5Y-5.8
X4.5Y-5.9
X4.5Y-6.0
X4.5Y-6.1
X4.5Y-6.2
X4.5Y-6.3
X4.6Y-1.4
X4.6Y-1.5
X4.6Y-1.6
X4.6Y-1.7
X4.6Y-1.8
X4.6Y-1.9
X4.6Y-2.0
X4.6Y-2.1
X4.6Y-2.8
X4.6Y-2.9
X4.6Y-3.0
X4.6Y-3.1
X4.6Y-3.2
X4.6Y-3.3
X4.6Y-3.4
X4.6Y-3.5
X4.6Y-4.2
X4.6Y-4.3
X4.6Y-4.4
X4.6Y-4.5
X4.6Y-4.6
X4.6Y-4.7
X4.6Y-4.8
X4.6Y-4.9
X4.6Y-5.6
X4.6Y-5.7
X4.6Y-5.8
X4.6Y-5.9
X4.6Y-6.0
X4.6Y-6.1
X4.6Y-6.2
X4.6Y-6.3
X4.7Y-6.45
X4.8Y-4.95
X4.8Y-6.45
X4.9Y-2.15
X4.9Y-4.95
X5.0Y-2.15
X5.05Y-2.55
X5.05Y-2.65
X5.3Y-2.0
X5.3Y-2.1
X5.3Y-2.2
X5.3Y-2.3
X5.3Y-2.5
X5.3Y-2.6
X5.3Y-2.7
X5.3Y-2.8
X5.3Y-3.9
X5.3Y-4.8
X5.3Y-4.9
X5.3Y-5.0
X5.3Y-5.1
X5.3Y-5.3
X5.3Y-5.4
X5.3Y-5.5
X5.3Y-5.6
T0
M30
