%TF.GenerationSoftware,KiCad,Pcbnew,(6.0.9)*%
%TF.CreationDate,2022-11-24T19:37:09+01:00*%
%TF.ProjectId,8view-out,38766965-772d-46f7-9574-2e6b69636164,rev?*%
%TF.SameCoordinates,Original*%
%TF.FileFunction,Copper,L2,Bot*%
%TF.FilePolarity,Positive*%
%FSLAX46Y46*%
G04 Gerber Fmt 4.6, Leading zero omitted, Abs format (unit mm)*
G04 Created by KiCad (PCBNEW (6.0.9)) date 2022-11-24 19:37:09*
%MOMM*%
%LPD*%
G01*
G04 APERTURE LIST*
%TA.AperFunction,ComponentPad*%
%ADD10R,1.700000X1.700000*%
%TD*%
%TA.AperFunction,ComponentPad*%
%ADD11O,1.700000X1.700000*%
%TD*%
G04 APERTURE END LIST*
D10*
%TO.P,J3,1,Pin_1*%
%TO.N,/GND*%
X34290000Y-32771000D03*
D11*
%TO.P,J3,2,Pin_2*%
%TO.N,/VCC*%
X34290000Y-30231000D03*
%TD*%
D10*
%TO.P,J2,1,Pin_1*%
%TO.N,/GND*%
X43942000Y-34006000D03*
D11*
%TO.P,J2,2,Pin_2*%
%TO.N,/MOSI*%
X41402000Y-34006000D03*
%TO.P,J2,3,Pin_3*%
%TO.N,/VCC*%
X43942000Y-31466000D03*
%TO.P,J2,4,Pin_4*%
%TO.N,/MISO*%
X41402000Y-31466000D03*
%TO.P,J2,5,Pin_5*%
%TO.N,/SCK*%
X43942000Y-28926000D03*
%TO.P,J2,6,Pin_6*%
%TO.N,/RESET*%
X41402000Y-28926000D03*
%TD*%
%TA.AperFunction,Conductor*%
%TO.N,/GND*%
G36*
X40881957Y-27452502D02*
G01*
X40928450Y-27506158D01*
X40938554Y-27576432D01*
X40909060Y-27641012D01*
X40872017Y-27670262D01*
X40675607Y-27772507D01*
X40671474Y-27775610D01*
X40671471Y-27775612D01*
X40647247Y-27793800D01*
X40496965Y-27906635D01*
X40342629Y-28068138D01*
X40216743Y-28252680D01*
X40122688Y-28455305D01*
X40062989Y-28670570D01*
X40039251Y-28892695D01*
X40039548Y-28897848D01*
X40039548Y-28897851D01*
X40044869Y-28990137D01*
X40052110Y-29115715D01*
X40053247Y-29120761D01*
X40053248Y-29120767D01*
X40073027Y-29208530D01*
X40101222Y-29333639D01*
X40185266Y-29540616D01*
X40236019Y-29623438D01*
X40299291Y-29726688D01*
X40301987Y-29731088D01*
X40448250Y-29899938D01*
X40620126Y-30042632D01*
X40690595Y-30083811D01*
X40693445Y-30085476D01*
X40742169Y-30137114D01*
X40755240Y-30206897D01*
X40728509Y-30272669D01*
X40688055Y-30306027D01*
X40675607Y-30312507D01*
X40671474Y-30315610D01*
X40671471Y-30315612D01*
X40647247Y-30333800D01*
X40496965Y-30446635D01*
X40342629Y-30608138D01*
X40216743Y-30792680D01*
X40201003Y-30826590D01*
X40149624Y-30937277D01*
X40122688Y-30995305D01*
X40062989Y-31210570D01*
X40039251Y-31432695D01*
X40039548Y-31437848D01*
X40039548Y-31437851D01*
X40045011Y-31532590D01*
X40052110Y-31655715D01*
X40053247Y-31660761D01*
X40053248Y-31660767D01*
X40073119Y-31748939D01*
X40101222Y-31873639D01*
X40185266Y-32080616D01*
X40236019Y-32163438D01*
X40299291Y-32266688D01*
X40301987Y-32271088D01*
X40448250Y-32439938D01*
X40620126Y-32582632D01*
X40681860Y-32618706D01*
X40693445Y-32625476D01*
X40742169Y-32677114D01*
X40755240Y-32746897D01*
X40728509Y-32812669D01*
X40688055Y-32846027D01*
X40675607Y-32852507D01*
X40671474Y-32855610D01*
X40671471Y-32855612D01*
X40588450Y-32917946D01*
X40496965Y-32986635D01*
X40342629Y-33148138D01*
X40216743Y-33332680D01*
X40122688Y-33535305D01*
X40062989Y-33750570D01*
X40039251Y-33972695D01*
X40039548Y-33977848D01*
X40039548Y-33977851D01*
X40045111Y-34074324D01*
X40052110Y-34195715D01*
X40053247Y-34200761D01*
X40053248Y-34200767D01*
X40070680Y-34278115D01*
X40101222Y-34413639D01*
X40185266Y-34620616D01*
X40301987Y-34811088D01*
X40448250Y-34979938D01*
X40620126Y-35122632D01*
X40813000Y-35235338D01*
X40817825Y-35237180D01*
X40817826Y-35237181D01*
X41021692Y-35315030D01*
X41021060Y-35316685D01*
X41074347Y-35350715D01*
X41104025Y-35415211D01*
X41094122Y-35485514D01*
X41047783Y-35539303D01*
X40979359Y-35559500D01*
X33146500Y-35559500D01*
X33078379Y-35539498D01*
X33031886Y-35485842D01*
X33020500Y-35433500D01*
X33020500Y-34187617D01*
X33040502Y-34119496D01*
X33094158Y-34073003D01*
X33164432Y-34062899D01*
X33193061Y-34072444D01*
X33193538Y-34071172D01*
X33322394Y-34119478D01*
X33337649Y-34123105D01*
X33388514Y-34128631D01*
X33395328Y-34129000D01*
X34017885Y-34129000D01*
X34033124Y-34124525D01*
X34034329Y-34123135D01*
X34036000Y-34115452D01*
X34036000Y-34110884D01*
X34544000Y-34110884D01*
X34548475Y-34126123D01*
X34549865Y-34127328D01*
X34557548Y-34128999D01*
X35184669Y-34128999D01*
X35191490Y-34128629D01*
X35242352Y-34123105D01*
X35257604Y-34119479D01*
X35378054Y-34074324D01*
X35393649Y-34065786D01*
X35495724Y-33989285D01*
X35508285Y-33976724D01*
X35584786Y-33874649D01*
X35593324Y-33859054D01*
X35638478Y-33738606D01*
X35642105Y-33723351D01*
X35647631Y-33672486D01*
X35648000Y-33665672D01*
X35648000Y-33043115D01*
X35643525Y-33027876D01*
X35642135Y-33026671D01*
X35634452Y-33025000D01*
X34562115Y-33025000D01*
X34546876Y-33029475D01*
X34545671Y-33030865D01*
X34544000Y-33038548D01*
X34544000Y-34110884D01*
X34036000Y-34110884D01*
X34036000Y-32643000D01*
X34056002Y-32574879D01*
X34109658Y-32528386D01*
X34162000Y-32517000D01*
X35629884Y-32517000D01*
X35645123Y-32512525D01*
X35646328Y-32511135D01*
X35647999Y-32503452D01*
X35647999Y-31876331D01*
X35647629Y-31869510D01*
X35642105Y-31818648D01*
X35638479Y-31803396D01*
X35593324Y-31682946D01*
X35584786Y-31667351D01*
X35508285Y-31565276D01*
X35495724Y-31552715D01*
X35393649Y-31476214D01*
X35378054Y-31467676D01*
X35267813Y-31426348D01*
X35211049Y-31383706D01*
X35186349Y-31317145D01*
X35201557Y-31247796D01*
X35223104Y-31219115D01*
X35324430Y-31118144D01*
X35324440Y-31118132D01*
X35328096Y-31114489D01*
X35458453Y-30933077D01*
X35513430Y-30821840D01*
X35555136Y-30737453D01*
X35555137Y-30737451D01*
X35557430Y-30732811D01*
X35622370Y-30519069D01*
X35651529Y-30297590D01*
X35653156Y-30231000D01*
X35634852Y-30008361D01*
X35580431Y-29791702D01*
X35491354Y-29586840D01*
X35391477Y-29432453D01*
X35372822Y-29403617D01*
X35372820Y-29403614D01*
X35370014Y-29399277D01*
X35219670Y-29234051D01*
X35215619Y-29230852D01*
X35215615Y-29230848D01*
X35048414Y-29098800D01*
X35048410Y-29098798D01*
X35044359Y-29095598D01*
X34848789Y-28987638D01*
X34843920Y-28985914D01*
X34843916Y-28985912D01*
X34643087Y-28914795D01*
X34643083Y-28914794D01*
X34638212Y-28913069D01*
X34633119Y-28912162D01*
X34633116Y-28912161D01*
X34423373Y-28874800D01*
X34423367Y-28874799D01*
X34418284Y-28873894D01*
X34344452Y-28872992D01*
X34200081Y-28871228D01*
X34200079Y-28871228D01*
X34194911Y-28871165D01*
X33974091Y-28904955D01*
X33761756Y-28974357D01*
X33563607Y-29077507D01*
X33559474Y-29080610D01*
X33559471Y-29080612D01*
X33389100Y-29208530D01*
X33384965Y-29211635D01*
X33268376Y-29333639D01*
X33237594Y-29365850D01*
X33176070Y-29401280D01*
X33105157Y-29397823D01*
X33047371Y-29356577D01*
X33021057Y-29290637D01*
X33020500Y-29278799D01*
X33020500Y-27558500D01*
X33040502Y-27490379D01*
X33094158Y-27443886D01*
X33146500Y-27432500D01*
X40813836Y-27432500D01*
X40881957Y-27452502D01*
G37*
%TD.AperFunction*%
%TA.AperFunction,Conductor*%
G36*
X53027621Y-27452502D02*
G01*
X53074114Y-27506158D01*
X53085500Y-27558500D01*
X53085500Y-35433500D01*
X53065498Y-35501621D01*
X53011842Y-35548114D01*
X52959500Y-35559500D01*
X45057762Y-35559500D01*
X44989641Y-35539498D01*
X44943148Y-35485842D01*
X44933044Y-35415568D01*
X44962538Y-35350988D01*
X45013532Y-35315518D01*
X45030054Y-35309324D01*
X45045649Y-35300786D01*
X45147724Y-35224285D01*
X45160285Y-35211724D01*
X45236786Y-35109649D01*
X45245324Y-35094054D01*
X45290478Y-34973606D01*
X45294105Y-34958351D01*
X45299631Y-34907486D01*
X45300000Y-34900672D01*
X45300000Y-34278115D01*
X45295525Y-34262876D01*
X45294135Y-34261671D01*
X45286452Y-34260000D01*
X43814000Y-34260000D01*
X43745879Y-34239998D01*
X43699386Y-34186342D01*
X43688000Y-34134000D01*
X43688000Y-33878000D01*
X43708002Y-33809879D01*
X43761658Y-33763386D01*
X43814000Y-33752000D01*
X45281884Y-33752000D01*
X45297123Y-33747525D01*
X45298328Y-33746135D01*
X45299999Y-33738452D01*
X45299999Y-33111331D01*
X45299629Y-33104510D01*
X45294105Y-33053648D01*
X45290479Y-33038396D01*
X45245324Y-32917946D01*
X45236786Y-32902351D01*
X45160285Y-32800276D01*
X45147724Y-32787715D01*
X45045649Y-32711214D01*
X45030054Y-32702676D01*
X44919813Y-32661348D01*
X44863049Y-32618706D01*
X44838349Y-32552145D01*
X44853557Y-32482796D01*
X44875104Y-32454115D01*
X44976430Y-32353144D01*
X44976440Y-32353132D01*
X44980096Y-32349489D01*
X45039594Y-32266689D01*
X45107435Y-32172277D01*
X45110453Y-32168077D01*
X45131320Y-32125857D01*
X45207136Y-31972453D01*
X45207137Y-31972451D01*
X45209430Y-31967811D01*
X45274370Y-31754069D01*
X45303529Y-31532590D01*
X45304812Y-31480071D01*
X45305074Y-31469365D01*
X45305074Y-31469361D01*
X45305156Y-31466000D01*
X45286852Y-31243361D01*
X45232431Y-31026702D01*
X45143354Y-30821840D01*
X45022014Y-30634277D01*
X44871670Y-30469051D01*
X44867619Y-30465852D01*
X44867615Y-30465848D01*
X44700414Y-30333800D01*
X44700410Y-30333798D01*
X44696359Y-30330598D01*
X44655053Y-30307796D01*
X44605084Y-30257364D01*
X44590312Y-30187921D01*
X44615428Y-30121516D01*
X44642780Y-30094909D01*
X44686603Y-30063650D01*
X44821860Y-29967173D01*
X44980096Y-29809489D01*
X44989272Y-29796720D01*
X45107435Y-29632277D01*
X45110453Y-29628077D01*
X45130834Y-29586840D01*
X45207136Y-29432453D01*
X45207137Y-29432451D01*
X45209430Y-29427811D01*
X45251107Y-29290637D01*
X45272865Y-29219023D01*
X45272865Y-29219021D01*
X45274370Y-29214069D01*
X45303529Y-28992590D01*
X45303916Y-28976747D01*
X45305074Y-28929365D01*
X45305074Y-28929361D01*
X45305156Y-28926000D01*
X45286852Y-28703361D01*
X45232431Y-28486702D01*
X45143354Y-28281840D01*
X45022014Y-28094277D01*
X44871670Y-27929051D01*
X44867619Y-27925852D01*
X44867615Y-27925848D01*
X44700414Y-27793800D01*
X44700410Y-27793798D01*
X44696359Y-27790598D01*
X44500789Y-27682638D01*
X44495920Y-27680914D01*
X44495916Y-27680912D01*
X44485639Y-27677273D01*
X44428102Y-27635678D01*
X44402187Y-27569580D01*
X44416121Y-27499965D01*
X44465480Y-27448933D01*
X44527699Y-27432500D01*
X52959500Y-27432500D01*
X53027621Y-27452502D01*
G37*
%TD.AperFunction*%
%TD*%
M02*
