%TF.GenerationSoftware,KiCad,Pcbnew,(6.0.9)*%
%TF.CreationDate,2022-11-24T19:37:09+01:00*%
%TF.ProjectId,8view-out,38766965-772d-46f7-9574-2e6b69636164,rev?*%
%TF.SameCoordinates,Original*%
%TF.FileFunction,Legend,Top*%
%TF.FilePolarity,Positive*%
%FSLAX46Y46*%
G04 Gerber Fmt 4.6, Leading zero omitted, Abs format (unit mm)*
G04 Created by KiCad (PCBNEW (6.0.9)) date 2022-11-24 19:37:09*
%MOMM*%
%LPD*%
G01*
G04 APERTURE LIST*
%ADD10C,0.150000*%
%ADD11C,0.125000*%
%ADD12C,0.120000*%
%ADD13C,0.249999*%
G04 APERTURE END LIST*
D10*
X35234666Y-27646380D02*
X35568000Y-28646380D01*
X35901333Y-27646380D01*
X36806095Y-28551142D02*
X36758476Y-28598761D01*
X36615619Y-28646380D01*
X36520380Y-28646380D01*
X36377523Y-28598761D01*
X36282285Y-28503523D01*
X36234666Y-28408285D01*
X36187047Y-28217809D01*
X36187047Y-28074952D01*
X36234666Y-27884476D01*
X36282285Y-27789238D01*
X36377523Y-27694000D01*
X36520380Y-27646380D01*
X36615619Y-27646380D01*
X36758476Y-27694000D01*
X36806095Y-27741619D01*
X35806095Y-34298000D02*
X35710857Y-34250380D01*
X35568000Y-34250380D01*
X35425142Y-34298000D01*
X35329904Y-34393238D01*
X35282285Y-34488476D01*
X35234666Y-34678952D01*
X35234666Y-34821809D01*
X35282285Y-35012285D01*
X35329904Y-35107523D01*
X35425142Y-35202761D01*
X35568000Y-35250380D01*
X35663238Y-35250380D01*
X35806095Y-35202761D01*
X35853714Y-35155142D01*
X35853714Y-34821809D01*
X35663238Y-34821809D01*
X36282285Y-35250380D02*
X36282285Y-34250380D01*
X36853714Y-35250380D01*
X36853714Y-34250380D01*
X37592000Y-35560000D02*
X37592000Y-27432000D01*
X38695333Y-29408380D02*
X38362000Y-28932190D01*
X38123904Y-29408380D02*
X38123904Y-28408380D01*
X38504857Y-28408380D01*
X38600095Y-28456000D01*
X38647714Y-28503619D01*
X38695333Y-28598857D01*
X38695333Y-28741714D01*
X38647714Y-28836952D01*
X38600095Y-28884571D01*
X38504857Y-28932190D01*
X38123904Y-28932190D01*
X39076285Y-29360761D02*
X39219142Y-29408380D01*
X39457238Y-29408380D01*
X39552476Y-29360761D01*
X39600095Y-29313142D01*
X39647714Y-29217904D01*
X39647714Y-29122666D01*
X39600095Y-29027428D01*
X39552476Y-28979809D01*
X39457238Y-28932190D01*
X39266761Y-28884571D01*
X39171523Y-28836952D01*
X39123904Y-28789333D01*
X39076285Y-28694095D01*
X39076285Y-28598857D01*
X39123904Y-28503619D01*
X39171523Y-28456000D01*
X39266761Y-28408380D01*
X39504857Y-28408380D01*
X39647714Y-28456000D01*
X38036571Y-31948380D02*
X38036571Y-30948380D01*
X38369904Y-31662666D01*
X38703238Y-30948380D01*
X38703238Y-31948380D01*
X39179428Y-31948380D02*
X39179428Y-30948380D01*
X38004857Y-34488380D02*
X38004857Y-33488380D01*
X38338190Y-34202666D01*
X38671523Y-33488380D01*
X38671523Y-34488380D01*
X39338190Y-33488380D02*
X39528666Y-33488380D01*
X39623904Y-33536000D01*
X39719142Y-33631238D01*
X39766761Y-33821714D01*
X39766761Y-34155047D01*
X39719142Y-34345523D01*
X39623904Y-34440761D01*
X39528666Y-34488380D01*
X39338190Y-34488380D01*
X39242952Y-34440761D01*
X39147714Y-34345523D01*
X39100095Y-34155047D01*
X39100095Y-33821714D01*
X39147714Y-33631238D01*
X39242952Y-33536000D01*
X39338190Y-33488380D01*
X46474095Y-33536000D02*
X46378857Y-33488380D01*
X46236000Y-33488380D01*
X46093142Y-33536000D01*
X45997904Y-33631238D01*
X45950285Y-33726476D01*
X45902666Y-33916952D01*
X45902666Y-34059809D01*
X45950285Y-34250285D01*
X45997904Y-34345523D01*
X46093142Y-34440761D01*
X46236000Y-34488380D01*
X46331238Y-34488380D01*
X46474095Y-34440761D01*
X46521714Y-34393142D01*
X46521714Y-34059809D01*
X46331238Y-34059809D01*
X46950285Y-34488380D02*
X46950285Y-33488380D01*
X47521714Y-34488380D01*
X47521714Y-33488380D01*
X45902666Y-30948380D02*
X46236000Y-31948380D01*
X46569333Y-30948380D01*
X47474095Y-31853142D02*
X47426476Y-31900761D01*
X47283619Y-31948380D01*
X47188380Y-31948380D01*
X47045523Y-31900761D01*
X46950285Y-31805523D01*
X46902666Y-31710285D01*
X46855047Y-31519809D01*
X46855047Y-31376952D01*
X46902666Y-31186476D01*
X46950285Y-31091238D01*
X47045523Y-30996000D01*
X47188380Y-30948380D01*
X47283619Y-30948380D01*
X47426476Y-30996000D01*
X47474095Y-31043619D01*
X46545523Y-29313142D02*
X46497904Y-29360761D01*
X46355047Y-29408380D01*
X46259809Y-29408380D01*
X46116952Y-29360761D01*
X46021714Y-29265523D01*
X45974095Y-29170285D01*
X45926476Y-28979809D01*
X45926476Y-28836952D01*
X45974095Y-28646476D01*
X46021714Y-28551238D01*
X46116952Y-28456000D01*
X46259809Y-28408380D01*
X46355047Y-28408380D01*
X46497904Y-28456000D01*
X46545523Y-28503619D01*
X46974095Y-29408380D02*
X46974095Y-28408380D01*
X47545523Y-29408380D02*
X47116952Y-28836952D01*
X47545523Y-28408380D02*
X46974095Y-28979809D01*
D11*
%TO.C,C1*%
X36746666Y-29896571D02*
X36722857Y-29920380D01*
X36651428Y-29944190D01*
X36603809Y-29944190D01*
X36532380Y-29920380D01*
X36484761Y-29872761D01*
X36460952Y-29825142D01*
X36437142Y-29729904D01*
X36437142Y-29658476D01*
X36460952Y-29563238D01*
X36484761Y-29515619D01*
X36532380Y-29468000D01*
X36603809Y-29444190D01*
X36651428Y-29444190D01*
X36722857Y-29468000D01*
X36746666Y-29491809D01*
X37222857Y-29944190D02*
X36937142Y-29944190D01*
X37080000Y-29944190D02*
X37080000Y-29444190D01*
X37032380Y-29515619D01*
X36984761Y-29563238D01*
X36937142Y-29587047D01*
%TO.C,J1*%
X47837511Y-35032190D02*
X47837511Y-35389333D01*
X47813702Y-35460761D01*
X47766083Y-35508380D01*
X47694654Y-35532190D01*
X47647035Y-35532190D01*
X48337511Y-35532190D02*
X48051797Y-35532190D01*
X48194654Y-35532190D02*
X48194654Y-35032190D01*
X48147035Y-35103619D01*
X48099416Y-35151238D01*
X48051797Y-35175047D01*
%TO.C,J2*%
X45553333Y-35062190D02*
X45553333Y-35419333D01*
X45529523Y-35490761D01*
X45481904Y-35538380D01*
X45410476Y-35562190D01*
X45362857Y-35562190D01*
X45767619Y-35109809D02*
X45791428Y-35086000D01*
X45839047Y-35062190D01*
X45958095Y-35062190D01*
X46005714Y-35086000D01*
X46029523Y-35109809D01*
X46053333Y-35157428D01*
X46053333Y-35205047D01*
X46029523Y-35276476D01*
X45743809Y-35562190D01*
X46053333Y-35562190D01*
D12*
%TO.C,C1*%
X36320000Y-31636580D02*
X36320000Y-31355420D01*
X37340000Y-31636580D02*
X37340000Y-31355420D01*
D10*
%TO.C,J1*%
X49352000Y-27416001D02*
X48751999Y-27416001D01*
X52501976Y-27966000D02*
X51452001Y-27966000D01*
X48751999Y-29666002D02*
X48751999Y-27416001D01*
X53302000Y-35566003D02*
X53302000Y-27366002D01*
X53302015Y-35565995D02*
X52501999Y-35565995D01*
X52501976Y-27966000D02*
X52501976Y-27366002D01*
X52501999Y-34966002D02*
X51452001Y-34966002D01*
X53302015Y-27366002D02*
X52501999Y-27366002D01*
X48751999Y-35516001D02*
X48751999Y-33266002D01*
X52501999Y-35566003D02*
X52501999Y-34966002D01*
X49352000Y-35516001D02*
X48751999Y-35516001D01*
D13*
X47577000Y-32716004D02*
G75*
G03*
X47577000Y-32716004I-125001J0D01*
G01*
D12*
%TO.C,J2*%
X42672000Y-32736000D02*
X42672000Y-35336000D01*
X45272000Y-35336000D02*
X43942000Y-35336000D01*
X45272000Y-27596000D02*
X40072000Y-27596000D01*
X40072000Y-35336000D02*
X40072000Y-27596000D01*
X45272000Y-32736000D02*
X42672000Y-32736000D01*
X45272000Y-32736000D02*
X45272000Y-27596000D01*
X42672000Y-35336000D02*
X40072000Y-35336000D01*
X45272000Y-34006000D02*
X45272000Y-35336000D01*
%TD*%
M02*
