%TF.GenerationSoftware,KiCad,Pcbnew,(6.0.9)*%
%TF.CreationDate,2022-11-24T19:37:08+01:00*%
%TF.ProjectId,8view-out,38766965-772d-46f7-9574-2e6b69636164,rev?*%
%TF.SameCoordinates,Original*%
%TF.FileFunction,Copper,L1,Top*%
%TF.FilePolarity,Positive*%
%FSLAX46Y46*%
G04 Gerber Fmt 4.6, Leading zero omitted, Abs format (unit mm)*
G04 Created by KiCad (PCBNEW (6.0.9)) date 2022-11-24 19:37:08*
%MOMM*%
%LPD*%
G01*
G04 APERTURE LIST*
G04 Aperture macros list*
%AMRoundRect*
0 Rectangle with rounded corners*
0 $1 Rounding radius*
0 $2 $3 $4 $5 $6 $7 $8 $9 X,Y pos of 4 corners*
0 Add a 4 corners polygon primitive as box body*
4,1,4,$2,$3,$4,$5,$6,$7,$8,$9,$2,$3,0*
0 Add four circle primitives for the rounded corners*
1,1,$1+$1,$2,$3*
1,1,$1+$1,$4,$5*
1,1,$1+$1,$6,$7*
1,1,$1+$1,$8,$9*
0 Add four rect primitives between the rounded corners*
20,1,$1+$1,$2,$3,$4,$5,0*
20,1,$1+$1,$4,$5,$6,$7,0*
20,1,$1+$1,$6,$7,$8,$9,0*
20,1,$1+$1,$8,$9,$2,$3,0*%
G04 Aperture macros list end*
%TA.AperFunction,SMDPad,CuDef*%
%ADD10RoundRect,0.225000X0.250000X-0.225000X0.250000X0.225000X-0.250000X0.225000X-0.250000X-0.225000X0*%
%TD*%
%TA.AperFunction,ComponentPad*%
%ADD11R,1.700000X1.700000*%
%TD*%
%TA.AperFunction,ComponentPad*%
%ADD12O,1.700000X1.700000*%
%TD*%
%TA.AperFunction,SMDPad,CuDef*%
%ADD13R,1.000001X0.299999*%
%TD*%
%TA.AperFunction,SMDPad,CuDef*%
%ADD14R,1.300000X1.649999*%
%TD*%
%TA.AperFunction,Conductor*%
%ADD15C,0.300000*%
%TD*%
%TA.AperFunction,Conductor*%
%ADD16C,0.350000*%
%TD*%
%TA.AperFunction,Conductor*%
%ADD17C,0.500000*%
%TD*%
%TA.AperFunction,Conductor*%
%ADD18C,0.250000*%
%TD*%
G04 APERTURE END LIST*
D10*
%TO.P,C1,2*%
%TO.N,/VCC*%
X36830000Y-30721000D03*
%TO.P,C1,1*%
%TO.N,/GND*%
X36830000Y-32271000D03*
%TD*%
D11*
%TO.P,J3,1,Pin_1*%
%TO.N,/GND*%
X34290000Y-32771000D03*
D12*
%TO.P,J3,2,Pin_2*%
%TO.N,/VCC*%
X34290000Y-30231000D03*
%TD*%
D13*
%TO.P,J1,1,Pin_1*%
%TO.N,/GND*%
X48501999Y-32716004D03*
%TO.P,J1,2,Pin_2*%
%TO.N,/RESET*%
X48501999Y-32216002D03*
%TO.P,J1,3,Pin_3*%
%TO.N,/MOSI*%
X48501999Y-31716003D03*
%TO.P,J1,4,Pin_4*%
%TO.N,/SCK*%
X48501999Y-31216002D03*
%TO.P,J1,5,Pin_5*%
%TO.N,/VCC*%
X48501999Y-30716002D03*
%TO.P,J1,6,Pin_6*%
%TO.N,/MISO*%
X48501999Y-30216001D03*
D14*
%TO.P,J1,MP1*%
%TO.N,N/C*%
X50401998Y-34991000D03*
%TO.P,J1,MP2*%
X50401998Y-27941002D03*
%TD*%
D11*
%TO.P,J2,1,Pin_1*%
%TO.N,/GND*%
X43942000Y-34006000D03*
D12*
%TO.P,J2,2,Pin_2*%
%TO.N,/MOSI*%
X41402000Y-34006000D03*
%TO.P,J2,3,Pin_3*%
%TO.N,/VCC*%
X43942000Y-31466000D03*
%TO.P,J2,4,Pin_4*%
%TO.N,/MISO*%
X41402000Y-31466000D03*
%TO.P,J2,5,Pin_5*%
%TO.N,/SCK*%
X43942000Y-28926000D03*
%TO.P,J2,6,Pin_6*%
%TO.N,/RESET*%
X41402000Y-28926000D03*
%TD*%
D15*
%TO.N,/VCC*%
X47440999Y-30791001D02*
X47515998Y-30716002D01*
X47515998Y-30716002D02*
X48501999Y-30716002D01*
D16*
X40833522Y-32736000D02*
X41910478Y-32736000D01*
X41910478Y-32736000D02*
X41940478Y-32766000D01*
%TO.N,/GND*%
X46611997Y-34006000D02*
X47876996Y-32741001D01*
X47876996Y-32741001D02*
X48501999Y-32741001D01*
D17*
X43867000Y-35181000D02*
X43867000Y-34081000D01*
X43867000Y-34081000D02*
X43942000Y-34006000D01*
X43942000Y-34006000D02*
X46611997Y-34006000D01*
%TO.N,/VCC*%
X43942000Y-31466000D02*
X44616999Y-30791001D01*
X44616999Y-30791001D02*
X47440999Y-30791001D01*
X41940478Y-32766000D02*
X41910000Y-32766000D01*
X43240478Y-31466000D02*
X41940478Y-32766000D01*
X43942000Y-31466000D02*
X43240478Y-31466000D01*
X38845000Y-32736000D02*
X40833522Y-32736000D01*
X36830000Y-30721000D02*
X38845000Y-32736000D01*
X34290000Y-30231000D02*
X36340000Y-30231000D01*
X36340000Y-30231000D02*
X36830000Y-30721000D01*
%TO.N,/GND*%
X36830000Y-32271000D02*
X34790000Y-32271000D01*
X34790000Y-32271000D02*
X34290000Y-32771000D01*
X43867000Y-35181000D02*
X43484000Y-35564000D01*
X43484000Y-35564000D02*
X40123000Y-35564000D01*
X40123000Y-35564000D02*
X36830000Y-32271000D01*
D18*
%TO.N,/VCC*%
X43942000Y-31466000D02*
X43063701Y-31466000D01*
X43063701Y-31466000D02*
X41888701Y-32641000D01*
%TO.N,/MOSI*%
X41666000Y-34006000D02*
X42841000Y-32831000D01*
X42841000Y-32831000D02*
X44639000Y-32831000D01*
X44639000Y-32831000D02*
X45753997Y-31716003D01*
X45753997Y-31716003D02*
X48501999Y-31716003D01*
%TO.N,/VCC*%
X44206000Y-31466000D02*
X44955998Y-30716002D01*
%TO.N,/MISO*%
X41666000Y-31466000D02*
X42915999Y-30216001D01*
X42915999Y-30216001D02*
X42925998Y-30226000D01*
X42925998Y-30226000D02*
X44430000Y-30226000D01*
X44430000Y-30226000D02*
X44439999Y-30216001D01*
X44439999Y-30216001D02*
X48501999Y-30216001D01*
%TO.N,/SCK*%
X44206000Y-28926000D02*
X46960000Y-28926000D01*
X46960000Y-28926000D02*
X47498000Y-29464000D01*
X47498000Y-29464000D02*
X49022000Y-29464000D01*
X49022000Y-29464000D02*
X49530000Y-29972000D01*
X49326999Y-31191001D02*
X48527000Y-31191001D01*
X49530000Y-29972000D02*
X49530000Y-30988000D01*
X48527000Y-31191001D02*
X48501999Y-31216002D01*
X49530000Y-30988000D02*
X49326999Y-31191001D01*
%TO.N,/RESET*%
X41666000Y-28926000D02*
X42906000Y-27686000D01*
X42906000Y-27686000D02*
X47880396Y-27686000D01*
X49980000Y-31538001D02*
X49301999Y-32216002D01*
X49301999Y-32216002D02*
X48501999Y-32216002D01*
X47880396Y-27686000D02*
X49980000Y-29785604D01*
X49980000Y-29785604D02*
X49980000Y-31538001D01*
%TD*%
%TA.AperFunction,Conductor*%
%TO.N,/VCC*%
G36*
X40881957Y-27452502D02*
G01*
X40928450Y-27506158D01*
X40938554Y-27576432D01*
X40909060Y-27641012D01*
X40872017Y-27670262D01*
X40675607Y-27772507D01*
X40671474Y-27775610D01*
X40671471Y-27775612D01*
X40573718Y-27849007D01*
X40496965Y-27906635D01*
X40342629Y-28068138D01*
X40216743Y-28252680D01*
X40169715Y-28353993D01*
X40147679Y-28401467D01*
X40122688Y-28455305D01*
X40062989Y-28670570D01*
X40039251Y-28892695D01*
X40039548Y-28897848D01*
X40039548Y-28897851D01*
X40040401Y-28912646D01*
X40052110Y-29115715D01*
X40053247Y-29120761D01*
X40053248Y-29120767D01*
X40074654Y-29215748D01*
X40101222Y-29333639D01*
X40133723Y-29413680D01*
X40179001Y-29525186D01*
X40185266Y-29540616D01*
X40229750Y-29613207D01*
X40298688Y-29725704D01*
X40301987Y-29731088D01*
X40448250Y-29899938D01*
X40620126Y-30042632D01*
X40690595Y-30083811D01*
X40693445Y-30085476D01*
X40742169Y-30137114D01*
X40755240Y-30206897D01*
X40728509Y-30272669D01*
X40688055Y-30306027D01*
X40675607Y-30312507D01*
X40671474Y-30315610D01*
X40671471Y-30315612D01*
X40524981Y-30425600D01*
X40496965Y-30446635D01*
X40342629Y-30608138D01*
X40216743Y-30792680D01*
X40214564Y-30797375D01*
X40129391Y-30980865D01*
X40122688Y-30995305D01*
X40062989Y-31210570D01*
X40039251Y-31432695D01*
X40039548Y-31437848D01*
X40039548Y-31437851D01*
X40048524Y-31593515D01*
X40052110Y-31655715D01*
X40053247Y-31660761D01*
X40053248Y-31660767D01*
X40063963Y-31708311D01*
X40101222Y-31873639D01*
X40185266Y-32080616D01*
X40301987Y-32271088D01*
X40448250Y-32439938D01*
X40620126Y-32582632D01*
X40690595Y-32623811D01*
X40693445Y-32625476D01*
X40742169Y-32677114D01*
X40755240Y-32746897D01*
X40728509Y-32812669D01*
X40688055Y-32846027D01*
X40675607Y-32852507D01*
X40671474Y-32855610D01*
X40671471Y-32855612D01*
X40501100Y-32983530D01*
X40496965Y-32986635D01*
X40436915Y-33049474D01*
X40371817Y-33117595D01*
X40342629Y-33148138D01*
X40339715Y-33152410D01*
X40339714Y-33152411D01*
X40329349Y-33167606D01*
X40216743Y-33332680D01*
X40122688Y-33535305D01*
X40062989Y-33750570D01*
X40039251Y-33972695D01*
X40039548Y-33977848D01*
X40039548Y-33977851D01*
X40046816Y-34103901D01*
X40030768Y-34173060D01*
X39979878Y-34222565D01*
X39910302Y-34236697D01*
X39844131Y-34210970D01*
X39831930Y-34200249D01*
X37850405Y-32218724D01*
X37816379Y-32156412D01*
X37813500Y-32129629D01*
X37813500Y-31997268D01*
X37802887Y-31894981D01*
X37748756Y-31732732D01*
X37704279Y-31660857D01*
X37662606Y-31593515D01*
X37658752Y-31587287D01*
X37653570Y-31582114D01*
X37649023Y-31576377D01*
X37650830Y-31574945D01*
X37622098Y-31522425D01*
X37627108Y-31451605D01*
X37650499Y-31415147D01*
X37649448Y-31414317D01*
X37662998Y-31397160D01*
X37745004Y-31264120D01*
X37751151Y-31250939D01*
X37800491Y-31102186D01*
X37803358Y-31088810D01*
X37812672Y-30997903D01*
X37812929Y-30992874D01*
X37808525Y-30977876D01*
X37807135Y-30976671D01*
X37799452Y-30975000D01*
X35865115Y-30975000D01*
X35849876Y-30979475D01*
X35848671Y-30980865D01*
X35847000Y-30988548D01*
X35847000Y-30991438D01*
X35847337Y-30997953D01*
X35856894Y-31090057D01*
X35859788Y-31103456D01*
X35909381Y-31252107D01*
X35915555Y-31265285D01*
X35949535Y-31320197D01*
X35968373Y-31388649D01*
X35947212Y-31456418D01*
X35892771Y-31501990D01*
X35842391Y-31512500D01*
X35484874Y-31512500D01*
X35416753Y-31492498D01*
X35409327Y-31487339D01*
X35386705Y-31470385D01*
X35345004Y-31454752D01*
X35267687Y-31425767D01*
X35210923Y-31383125D01*
X35186223Y-31316564D01*
X35201430Y-31247215D01*
X35222977Y-31218535D01*
X35324052Y-31117812D01*
X35330730Y-31109965D01*
X35455003Y-30937020D01*
X35460313Y-30928183D01*
X35554670Y-30737267D01*
X35558469Y-30727672D01*
X35620377Y-30523911D01*
X35622785Y-30512772D01*
X35631189Y-30497335D01*
X35629643Y-30496398D01*
X35623258Y-30489205D01*
X35608617Y-30485000D01*
X34162000Y-30485000D01*
X34093879Y-30464998D01*
X34083148Y-30452614D01*
X35838191Y-30452614D01*
X35852865Y-30465329D01*
X35860548Y-30467000D01*
X36557885Y-30467000D01*
X36573124Y-30462525D01*
X36574329Y-30461135D01*
X36576000Y-30453452D01*
X36576000Y-30448885D01*
X37084000Y-30448885D01*
X37088475Y-30464124D01*
X37089865Y-30465329D01*
X37097548Y-30467000D01*
X37794885Y-30467000D01*
X37810124Y-30462525D01*
X37811329Y-30461135D01*
X37813000Y-30453452D01*
X37813000Y-30450562D01*
X37812663Y-30444047D01*
X37803106Y-30351943D01*
X37800212Y-30338544D01*
X37750619Y-30189893D01*
X37744445Y-30176714D01*
X37662212Y-30043827D01*
X37653176Y-30032426D01*
X37542571Y-29922014D01*
X37531160Y-29913002D01*
X37398120Y-29830996D01*
X37384939Y-29824849D01*
X37236186Y-29775509D01*
X37222810Y-29772642D01*
X37131903Y-29763328D01*
X37125486Y-29763000D01*
X37102115Y-29763000D01*
X37086876Y-29767475D01*
X37085671Y-29768865D01*
X37084000Y-29776548D01*
X37084000Y-30448885D01*
X36576000Y-30448885D01*
X36576000Y-29781115D01*
X36571525Y-29765876D01*
X36570135Y-29764671D01*
X36562452Y-29763000D01*
X36534562Y-29763000D01*
X36528047Y-29763337D01*
X36435943Y-29772894D01*
X36422544Y-29775788D01*
X36273893Y-29825381D01*
X36260714Y-29831555D01*
X36127827Y-29913788D01*
X36116426Y-29922824D01*
X36006014Y-30033429D01*
X35997002Y-30044840D01*
X35914996Y-30177880D01*
X35908849Y-30191061D01*
X35859509Y-30339814D01*
X35856642Y-30353190D01*
X35849223Y-30425600D01*
X35838191Y-30452614D01*
X34083148Y-30452614D01*
X34047386Y-30411342D01*
X34036000Y-30359000D01*
X34036000Y-29958885D01*
X34544000Y-29958885D01*
X34548475Y-29974124D01*
X34549865Y-29975329D01*
X34557548Y-29977000D01*
X35608344Y-29977000D01*
X35621875Y-29973027D01*
X35623180Y-29963947D01*
X35581214Y-29796875D01*
X35577894Y-29787124D01*
X35492972Y-29591814D01*
X35488105Y-29582739D01*
X35372426Y-29403926D01*
X35366136Y-29395757D01*
X35222806Y-29238240D01*
X35215273Y-29231215D01*
X35048139Y-29099222D01*
X35039552Y-29093517D01*
X34853117Y-28990599D01*
X34843705Y-28986369D01*
X34642959Y-28915280D01*
X34632988Y-28912646D01*
X34561837Y-28899972D01*
X34548540Y-28901432D01*
X34544000Y-28915989D01*
X34544000Y-29958885D01*
X34036000Y-29958885D01*
X34036000Y-28914102D01*
X34032082Y-28900758D01*
X34017806Y-28898771D01*
X33979324Y-28904660D01*
X33969288Y-28907051D01*
X33766868Y-28973212D01*
X33757359Y-28977209D01*
X33568463Y-29075542D01*
X33559738Y-29081036D01*
X33389433Y-29208905D01*
X33381726Y-29215748D01*
X33237594Y-29366574D01*
X33176070Y-29402004D01*
X33105157Y-29398547D01*
X33047371Y-29357301D01*
X33021057Y-29291361D01*
X33020500Y-29279523D01*
X33020500Y-27558500D01*
X33040502Y-27490379D01*
X33094158Y-27443886D01*
X33146500Y-27432500D01*
X40813836Y-27432500D01*
X40881957Y-27452502D01*
G37*
%TD.AperFunction*%
%TD*%
M02*
