%TF.GenerationSoftware,KiCad,Pcbnew,(6.0.5)*%
%TF.CreationDate,2022-06-12T23:50:42+02:00*%
%TF.ProjectId,power,706f7765-722e-46b6-9963-61645f706362,rev?*%
%TF.SameCoordinates,Original*%
%TF.FileFunction,Legend,Top*%
%TF.FilePolarity,Positive*%
%FSLAX46Y46*%
G04 Gerber Fmt 4.6, Leading zero omitted, Abs format (unit mm)*
G04 Created by KiCad (PCBNEW (6.0.5)) date 2022-06-12 23:50:42*
%MOMM*%
%LPD*%
G01*
G04 APERTURE LIST*
%ADD10C,0.150000*%
%ADD11C,0.127000*%
%ADD12C,0.200000*%
%ADD13C,0.120000*%
G04 APERTURE END LIST*
D10*
%TO.C,PS1*%
X82210714Y-78557380D02*
X82210714Y-77557380D01*
X82591666Y-77557380D01*
X82686904Y-77605000D01*
X82734523Y-77652619D01*
X82782142Y-77747857D01*
X82782142Y-77890714D01*
X82734523Y-77985952D01*
X82686904Y-78033571D01*
X82591666Y-78081190D01*
X82210714Y-78081190D01*
X83163095Y-78509761D02*
X83305952Y-78557380D01*
X83544047Y-78557380D01*
X83639285Y-78509761D01*
X83686904Y-78462142D01*
X83734523Y-78366904D01*
X83734523Y-78271666D01*
X83686904Y-78176428D01*
X83639285Y-78128809D01*
X83544047Y-78081190D01*
X83353571Y-78033571D01*
X83258333Y-77985952D01*
X83210714Y-77938333D01*
X83163095Y-77843095D01*
X83163095Y-77747857D01*
X83210714Y-77652619D01*
X83258333Y-77605000D01*
X83353571Y-77557380D01*
X83591666Y-77557380D01*
X83734523Y-77605000D01*
X84686904Y-78557380D02*
X84115476Y-78557380D01*
X84401190Y-78557380D02*
X84401190Y-77557380D01*
X84305952Y-77700238D01*
X84210714Y-77795476D01*
X84115476Y-77843095D01*
%TO.C,J1*%
X38592380Y-87963333D02*
X39306666Y-87963333D01*
X39449523Y-88010952D01*
X39544761Y-88106190D01*
X39592380Y-88249047D01*
X39592380Y-88344285D01*
X39592380Y-86963333D02*
X39592380Y-87534761D01*
X39592380Y-87249047D02*
X38592380Y-87249047D01*
X38735238Y-87344285D01*
X38830476Y-87439523D01*
X38878095Y-87534761D01*
D11*
%TO.C,PS1*%
X53350000Y-76220000D02*
X53350000Y-53320000D01*
X85080000Y-76220000D02*
X53350000Y-76220000D01*
X86350000Y-53320000D02*
X86350000Y-74950000D01*
X53350000Y-53320000D02*
X86350000Y-53320000D01*
X86350000Y-74950000D02*
X85080000Y-76220000D01*
D12*
X87450000Y-72420000D02*
G75*
G03*
X87450000Y-72420000I-100000J0D01*
G01*
D13*
%TO.C,J1*%
X40580000Y-86300000D02*
X41910000Y-86300000D01*
X43180000Y-88960000D02*
X101660000Y-88960000D01*
X43180000Y-88960000D02*
X43180000Y-86300000D01*
X101660000Y-88960000D02*
X101660000Y-86300000D01*
X40580000Y-87630000D02*
X40580000Y-86300000D01*
X43180000Y-86300000D02*
X101660000Y-86300000D01*
%TD*%
M02*
