%TF.GenerationSoftware,KiCad,Pcbnew,(6.0.5)*%
%TF.CreationDate,2022-06-12T23:50:42+02:00*%
%TF.ProjectId,power,706f7765-722e-46b6-9963-61645f706362,rev?*%
%TF.SameCoordinates,Original*%
%TF.FileFunction,Copper,L1,Top*%
%TF.FilePolarity,Positive*%
%FSLAX46Y46*%
G04 Gerber Fmt 4.6, Leading zero omitted, Abs format (unit mm)*
G04 Created by KiCad (PCBNEW (6.0.5)) date 2022-06-12 23:50:42*
%MOMM*%
%LPD*%
G01*
G04 APERTURE LIST*
%TA.AperFunction,ComponentPad*%
%ADD10R,2.205000X2.205000*%
%TD*%
%TA.AperFunction,ComponentPad*%
%ADD11C,2.205000*%
%TD*%
%TA.AperFunction,ComponentPad*%
%ADD12C,3.030000*%
%TD*%
%TA.AperFunction,ComponentPad*%
%ADD13R,1.700000X1.700000*%
%TD*%
%TA.AperFunction,ComponentPad*%
%ADD14O,1.700000X1.700000*%
%TD*%
%TA.AperFunction,Conductor*%
%ADD15C,0.250000*%
%TD*%
%TA.AperFunction,Conductor*%
%ADD16C,2.200000*%
%TD*%
%TA.AperFunction,Conductor*%
%ADD17C,3.000000*%
%TD*%
%TA.AperFunction,Conductor*%
%ADD18C,6.000000*%
%TD*%
%TA.AperFunction,Conductor*%
%ADD19C,4.000000*%
%TD*%
%TA.AperFunction,Conductor*%
%ADD20C,1.000000*%
%TD*%
G04 APERTURE END LIST*
D10*
%TO.P,PS1,1,VIN(+)*%
%TO.N,Net-(PS1-Pad1)*%
X83800000Y-72420000D03*
D11*
%TO.P,PS1,2,~{ON/OFF}*%
%TO.N,Net-(PS1-Pad2)*%
X83800000Y-64820000D03*
%TO.P,PS1,3,VIN(-)*%
%TO.N,Net-(J1-Pad20)*%
X83800000Y-57220000D03*
D12*
%TO.P,PS1,4,VOUT(-)*%
%TO.N,GND*%
X55900000Y-57220000D03*
D11*
%TO.P,PS1,5,PWR_GOOD*%
%TO.N,Net-(PS1-Pad5)*%
X55900000Y-61020000D03*
%TO.P,PS1,6,TRIM*%
%TO.N,Net-(PS1-Pad6)*%
X55900000Y-64820000D03*
%TO.P,PS1,7,SENSE+*%
%TO.N,Net-(PS1-Pad7)*%
X55900000Y-68620000D03*
D12*
%TO.P,PS1,8,VOUT(+)*%
%TO.N,Net-(PS1-Pad8)*%
X55900000Y-72420000D03*
D11*
%TO.P,PS1,32,SYNC*%
%TO.N,Net-(J1-Pad15)*%
X63500000Y-55820000D03*
%TO.P,PS1,33,MS*%
%TO.N,Net-(J1-Pad14)*%
X59700000Y-55820000D03*
%TO.P,PS1,34,SEQ*%
%TO.N,Net-(PS1-Pad34)*%
X83800000Y-68620000D03*
%TD*%
D13*
%TO.P,J1,1,Pin_1*%
%TO.N,GND*%
X41910000Y-87630000D03*
D14*
%TO.P,J1,2,Pin_2*%
X44450000Y-87630000D03*
%TO.P,J1,3,Pin_3*%
X46990000Y-87630000D03*
%TO.P,J1,4,Pin_4*%
X49530000Y-87630000D03*
%TO.P,J1,5,Pin_5*%
X52070000Y-87630000D03*
%TO.P,J1,6,Pin_6*%
%TO.N,Net-(PS1-Pad8)*%
X54610000Y-87630000D03*
%TO.P,J1,7,Pin_7*%
X57150000Y-87630000D03*
%TO.P,J1,8,Pin_8*%
X59690000Y-87630000D03*
%TO.P,J1,9,Pin_9*%
X62230000Y-87630000D03*
%TO.P,J1,10,Pin_10*%
X64770000Y-87630000D03*
%TO.P,J1,11,Pin_11*%
%TO.N,Net-(PS1-Pad7)*%
X67310000Y-87630000D03*
%TO.P,J1,12,Pin_12*%
%TO.N,Net-(PS1-Pad6)*%
X69850000Y-87630000D03*
%TO.P,J1,13,Pin_13*%
%TO.N,Net-(PS1-Pad5)*%
X72390000Y-87630000D03*
%TO.P,J1,14,Pin_14*%
%TO.N,Net-(J1-Pad14)*%
X74930000Y-87630000D03*
%TO.P,J1,15,Pin_15*%
%TO.N,Net-(J1-Pad15)*%
X77470000Y-87630000D03*
%TO.P,J1,16,Pin_16*%
%TO.N,Net-(PS1-Pad34)*%
X80010000Y-87630000D03*
%TO.P,J1,17,Pin_17*%
%TO.N,Net-(PS1-Pad2)*%
X82550000Y-87630000D03*
%TO.P,J1,18,Pin_18*%
%TO.N,Net-(J1-Pad20)*%
X85090000Y-87630000D03*
%TO.P,J1,19,Pin_19*%
X87630000Y-87630000D03*
%TO.P,J1,20,Pin_20*%
X90170000Y-87630000D03*
%TO.P,J1,21,Pin_21*%
X92710000Y-87630000D03*
%TO.P,J1,22,Pin_22*%
%TO.N,Net-(PS1-Pad1)*%
X95250000Y-87630000D03*
%TO.P,J1,23,Pin_23*%
X97790000Y-87630000D03*
%TO.P,J1,24,Pin_24*%
X100330000Y-87630000D03*
%TD*%
D15*
%TO.N,Net-(J1-Pad20)*%
X87630000Y-87630000D02*
X92710000Y-87630000D01*
D16*
X85090000Y-87630000D02*
X92710000Y-87630000D01*
D17*
X87630000Y-87630000D02*
X90170000Y-85090000D01*
X80010000Y-74930000D02*
X90170000Y-85090000D01*
X90170000Y-85090000D02*
X90170000Y-87630000D01*
X83800000Y-57220000D02*
X80010000Y-61010000D01*
X80010000Y-61010000D02*
X80010000Y-74930000D01*
X90170000Y-87630000D02*
X87630000Y-87630000D01*
%TO.N,Net-(PS1-Pad1)*%
X100330000Y-87630000D02*
X97790000Y-87630000D01*
D15*
X95250000Y-87630000D02*
X100330000Y-87630000D01*
D17*
X97790000Y-86410000D02*
X97790000Y-87630000D01*
D16*
X97790000Y-87630000D02*
X95250000Y-87630000D01*
D17*
X83800000Y-72420000D02*
X97790000Y-86410000D01*
D18*
%TO.N,Net-(PS1-Pad8)*%
X57150000Y-87630000D02*
X57150000Y-74930000D01*
X62230000Y-87630000D02*
X57150000Y-87630000D01*
D19*
X57150000Y-74930000D02*
X57150000Y-73670000D01*
D16*
X64770000Y-87630000D02*
X54610000Y-87630000D01*
D19*
X57150000Y-73670000D02*
X55900000Y-72420000D01*
D16*
X62230000Y-87630000D02*
X64770000Y-87630000D01*
D20*
%TO.N,Net-(PS1-Pad7)*%
X67310000Y-82550000D02*
X62230000Y-77470000D01*
X62230000Y-72390000D02*
X58460000Y-68620000D01*
X67310000Y-87630000D02*
X67310000Y-82550000D01*
X62230000Y-77470000D02*
X62230000Y-72390000D01*
X58460000Y-68620000D02*
X55900000Y-68620000D01*
%TO.N,Net-(PS1-Pad6)*%
X59740000Y-64820000D02*
X55900000Y-64820000D01*
X69850000Y-87630000D02*
X69850000Y-82550000D01*
X64770000Y-77470000D02*
X64770000Y-69850000D01*
X69850000Y-82550000D02*
X64770000Y-77470000D01*
X64770000Y-69850000D02*
X59740000Y-64820000D01*
%TO.N,Net-(PS1-Pad5)*%
X72390000Y-82550000D02*
X67310000Y-77470000D01*
X61020000Y-61020000D02*
X55900000Y-61020000D01*
X72390000Y-87630000D02*
X72390000Y-82550000D01*
X67310000Y-67310000D02*
X61020000Y-61020000D01*
X67310000Y-77470000D02*
X67310000Y-67310000D01*
%TO.N,Net-(J1-Pad14)*%
X69850000Y-65970000D02*
X59700000Y-55820000D01*
X69850000Y-77470000D02*
X69850000Y-65970000D01*
X74930000Y-82550000D02*
X69850000Y-77470000D01*
X74930000Y-87630000D02*
X74930000Y-82550000D01*
%TO.N,Net-(J1-Pad15)*%
X65980000Y-55820000D02*
X63500000Y-55820000D01*
X77470000Y-87630000D02*
X77470000Y-82550000D01*
X72390000Y-62230000D02*
X65980000Y-55820000D01*
X72390000Y-77470000D02*
X72390000Y-62230000D01*
X77470000Y-82550000D02*
X72390000Y-77470000D01*
%TO.N,Net-(PS1-Pad2)*%
X87630000Y-60990000D02*
X87630000Y-56274704D01*
X77470000Y-77470000D02*
X82550000Y-82550000D01*
X82550000Y-82550000D02*
X82550000Y-87630000D01*
X87630000Y-56274704D02*
X85965296Y-54610000D01*
X85965296Y-54610000D02*
X81280000Y-54610000D01*
X77470000Y-58420000D02*
X77470000Y-77470000D01*
X83800000Y-64820000D02*
X87630000Y-60990000D01*
X81280000Y-54610000D02*
X77470000Y-58420000D01*
%TO.N,Net-(PS1-Pad34)*%
X87630000Y-52070000D02*
X80010000Y-52070000D01*
X90170000Y-54610000D02*
X87630000Y-52070000D01*
X80010000Y-52070000D02*
X74930000Y-57150000D01*
X83800000Y-68620000D02*
X90170000Y-62250000D01*
X90170000Y-62250000D02*
X90170000Y-54610000D01*
X80010000Y-82550000D02*
X80010000Y-87630000D01*
X74930000Y-57150000D02*
X74930000Y-77470000D01*
X74930000Y-77470000D02*
X80010000Y-82550000D01*
D18*
%TO.N,GND*%
X49530000Y-59690000D02*
X49530000Y-87630000D01*
D19*
X55830000Y-57150000D02*
X54610000Y-57150000D01*
D16*
X49530000Y-87630000D02*
X52070000Y-87630000D01*
D19*
X55900000Y-57220000D02*
X55830000Y-57150000D01*
D18*
X52070000Y-57150000D02*
X49530000Y-59690000D01*
X49530000Y-87630000D02*
X41910000Y-87630000D01*
D19*
X54610000Y-57150000D02*
X52070000Y-57150000D01*
%TD*%
%TA.AperFunction,Conductor*%
%TO.N,GND*%
G36*
X102812121Y-49550002D02*
G01*
X102858614Y-49603658D01*
X102870000Y-49656000D01*
X102870000Y-90805500D01*
X102849998Y-90873621D01*
X102796342Y-90920114D01*
X102744000Y-90931500D01*
X64001296Y-90931500D01*
X63933175Y-90911498D01*
X63886682Y-90857842D01*
X63876578Y-90787568D01*
X63906072Y-90722988D01*
X63943213Y-90693686D01*
X64010256Y-90658860D01*
X64010259Y-90658858D01*
X64013226Y-90657317D01*
X64324824Y-90450683D01*
X64612700Y-90212108D01*
X64873595Y-89944292D01*
X64990708Y-89795201D01*
X65102481Y-89652907D01*
X65102482Y-89652905D01*
X65104553Y-89650269D01*
X65276527Y-89375587D01*
X65301178Y-89336214D01*
X65301180Y-89336211D01*
X65302959Y-89333369D01*
X65393645Y-89147022D01*
X65441438Y-89094523D01*
X65458722Y-89085750D01*
X65497928Y-89069511D01*
X65497932Y-89069509D01*
X65502502Y-89067616D01*
X65718376Y-88935328D01*
X65910898Y-88770898D01*
X66075328Y-88578376D01*
X66092595Y-88550199D01*
X66145241Y-88502567D01*
X66215283Y-88490960D01*
X66280481Y-88519062D01*
X66295266Y-88533536D01*
X66352866Y-88600032D01*
X66352869Y-88600035D01*
X66356250Y-88603938D01*
X66528126Y-88746632D01*
X66721000Y-88859338D01*
X66929692Y-88939030D01*
X66934760Y-88940061D01*
X66934763Y-88940062D01*
X67029862Y-88959410D01*
X67148597Y-88983567D01*
X67153772Y-88983757D01*
X67153774Y-88983757D01*
X67366673Y-88991564D01*
X67366677Y-88991564D01*
X67371837Y-88991753D01*
X67376957Y-88991097D01*
X67376959Y-88991097D01*
X67588288Y-88964025D01*
X67588289Y-88964025D01*
X67593416Y-88963368D01*
X67598366Y-88961883D01*
X67802429Y-88900661D01*
X67802434Y-88900659D01*
X67807384Y-88899174D01*
X68007994Y-88800896D01*
X68189860Y-88671173D01*
X68348096Y-88513489D01*
X68361260Y-88495170D01*
X68478453Y-88332077D01*
X68479776Y-88333028D01*
X68526645Y-88289857D01*
X68596580Y-88277625D01*
X68662026Y-88305144D01*
X68689875Y-88336994D01*
X68749987Y-88435088D01*
X68896250Y-88603938D01*
X69068126Y-88746632D01*
X69261000Y-88859338D01*
X69469692Y-88939030D01*
X69474760Y-88940061D01*
X69474763Y-88940062D01*
X69569862Y-88959410D01*
X69688597Y-88983567D01*
X69693772Y-88983757D01*
X69693774Y-88983757D01*
X69906673Y-88991564D01*
X69906677Y-88991564D01*
X69911837Y-88991753D01*
X69916957Y-88991097D01*
X69916959Y-88991097D01*
X70128288Y-88964025D01*
X70128289Y-88964025D01*
X70133416Y-88963368D01*
X70138366Y-88961883D01*
X70342429Y-88900661D01*
X70342434Y-88900659D01*
X70347384Y-88899174D01*
X70547994Y-88800896D01*
X70729860Y-88671173D01*
X70888096Y-88513489D01*
X70901260Y-88495170D01*
X71018453Y-88332077D01*
X71019776Y-88333028D01*
X71066645Y-88289857D01*
X71136580Y-88277625D01*
X71202026Y-88305144D01*
X71229875Y-88336994D01*
X71289987Y-88435088D01*
X71436250Y-88603938D01*
X71608126Y-88746632D01*
X71801000Y-88859338D01*
X72009692Y-88939030D01*
X72014760Y-88940061D01*
X72014763Y-88940062D01*
X72109862Y-88959410D01*
X72228597Y-88983567D01*
X72233772Y-88983757D01*
X72233774Y-88983757D01*
X72446673Y-88991564D01*
X72446677Y-88991564D01*
X72451837Y-88991753D01*
X72456957Y-88991097D01*
X72456959Y-88991097D01*
X72668288Y-88964025D01*
X72668289Y-88964025D01*
X72673416Y-88963368D01*
X72678366Y-88961883D01*
X72882429Y-88900661D01*
X72882434Y-88900659D01*
X72887384Y-88899174D01*
X73087994Y-88800896D01*
X73269860Y-88671173D01*
X73428096Y-88513489D01*
X73441260Y-88495170D01*
X73558453Y-88332077D01*
X73559776Y-88333028D01*
X73606645Y-88289857D01*
X73676580Y-88277625D01*
X73742026Y-88305144D01*
X73769875Y-88336994D01*
X73829987Y-88435088D01*
X73976250Y-88603938D01*
X74148126Y-88746632D01*
X74341000Y-88859338D01*
X74549692Y-88939030D01*
X74554760Y-88940061D01*
X74554763Y-88940062D01*
X74649862Y-88959410D01*
X74768597Y-88983567D01*
X74773772Y-88983757D01*
X74773774Y-88983757D01*
X74986673Y-88991564D01*
X74986677Y-88991564D01*
X74991837Y-88991753D01*
X74996957Y-88991097D01*
X74996959Y-88991097D01*
X75208288Y-88964025D01*
X75208289Y-88964025D01*
X75213416Y-88963368D01*
X75218366Y-88961883D01*
X75422429Y-88900661D01*
X75422434Y-88900659D01*
X75427384Y-88899174D01*
X75627994Y-88800896D01*
X75809860Y-88671173D01*
X75968096Y-88513489D01*
X75981260Y-88495170D01*
X76098453Y-88332077D01*
X76099776Y-88333028D01*
X76146645Y-88289857D01*
X76216580Y-88277625D01*
X76282026Y-88305144D01*
X76309875Y-88336994D01*
X76369987Y-88435088D01*
X76516250Y-88603938D01*
X76688126Y-88746632D01*
X76881000Y-88859338D01*
X77089692Y-88939030D01*
X77094760Y-88940061D01*
X77094763Y-88940062D01*
X77189862Y-88959410D01*
X77308597Y-88983567D01*
X77313772Y-88983757D01*
X77313774Y-88983757D01*
X77526673Y-88991564D01*
X77526677Y-88991564D01*
X77531837Y-88991753D01*
X77536957Y-88991097D01*
X77536959Y-88991097D01*
X77748288Y-88964025D01*
X77748289Y-88964025D01*
X77753416Y-88963368D01*
X77758366Y-88961883D01*
X77962429Y-88900661D01*
X77962434Y-88900659D01*
X77967384Y-88899174D01*
X78167994Y-88800896D01*
X78349860Y-88671173D01*
X78508096Y-88513489D01*
X78521260Y-88495170D01*
X78638453Y-88332077D01*
X78639776Y-88333028D01*
X78686645Y-88289857D01*
X78756580Y-88277625D01*
X78822026Y-88305144D01*
X78849875Y-88336994D01*
X78909987Y-88435088D01*
X79056250Y-88603938D01*
X79228126Y-88746632D01*
X79421000Y-88859338D01*
X79629692Y-88939030D01*
X79634760Y-88940061D01*
X79634763Y-88940062D01*
X79729862Y-88959410D01*
X79848597Y-88983567D01*
X79853772Y-88983757D01*
X79853774Y-88983757D01*
X80066673Y-88991564D01*
X80066677Y-88991564D01*
X80071837Y-88991753D01*
X80076957Y-88991097D01*
X80076959Y-88991097D01*
X80288288Y-88964025D01*
X80288289Y-88964025D01*
X80293416Y-88963368D01*
X80298366Y-88961883D01*
X80502429Y-88900661D01*
X80502434Y-88900659D01*
X80507384Y-88899174D01*
X80707994Y-88800896D01*
X80889860Y-88671173D01*
X81048096Y-88513489D01*
X81061260Y-88495170D01*
X81178453Y-88332077D01*
X81179776Y-88333028D01*
X81226645Y-88289857D01*
X81296580Y-88277625D01*
X81362026Y-88305144D01*
X81389875Y-88336994D01*
X81449987Y-88435088D01*
X81596250Y-88603938D01*
X81768126Y-88746632D01*
X81961000Y-88859338D01*
X82169692Y-88939030D01*
X82174760Y-88940061D01*
X82174763Y-88940062D01*
X82269862Y-88959410D01*
X82388597Y-88983567D01*
X82393772Y-88983757D01*
X82393774Y-88983757D01*
X82606673Y-88991564D01*
X82606677Y-88991564D01*
X82611837Y-88991753D01*
X82616957Y-88991097D01*
X82616959Y-88991097D01*
X82828288Y-88964025D01*
X82828289Y-88964025D01*
X82833416Y-88963368D01*
X82838366Y-88961883D01*
X83042429Y-88900661D01*
X83042434Y-88900659D01*
X83047384Y-88899174D01*
X83247994Y-88800896D01*
X83429860Y-88671173D01*
X83572445Y-88529086D01*
X83634816Y-88495170D01*
X83705623Y-88500358D01*
X83762384Y-88543004D01*
X83768813Y-88552496D01*
X83784672Y-88578376D01*
X83787883Y-88582135D01*
X83787885Y-88582138D01*
X83917288Y-88733649D01*
X83949102Y-88770898D01*
X84141624Y-88935328D01*
X84357498Y-89067616D01*
X84362068Y-89069509D01*
X84362072Y-89069511D01*
X84586836Y-89162611D01*
X84591409Y-89164505D01*
X84676032Y-89184821D01*
X84832784Y-89222454D01*
X84832790Y-89222455D01*
X84837597Y-89223609D01*
X84937416Y-89231465D01*
X85024345Y-89238307D01*
X85024352Y-89238307D01*
X85026801Y-89238500D01*
X86378083Y-89238500D01*
X86446045Y-89258455D01*
X86446550Y-89258879D01*
X86518269Y-89303694D01*
X86523745Y-89307319D01*
X86593020Y-89355825D01*
X86608676Y-89363802D01*
X86635130Y-89377282D01*
X86644693Y-89382693D01*
X86681036Y-89405402D01*
X86681040Y-89405404D01*
X86684764Y-89407731D01*
X86688773Y-89409516D01*
X86688779Y-89409519D01*
X86712008Y-89419861D01*
X86756424Y-89439636D01*
X86761996Y-89442117D01*
X86767952Y-89444958D01*
X86839370Y-89481348D01*
X86839375Y-89481350D01*
X86843300Y-89483350D01*
X86865694Y-89491061D01*
X86887986Y-89498737D01*
X86898212Y-89502765D01*
X86937360Y-89520195D01*
X86937367Y-89520198D01*
X86941375Y-89521982D01*
X86945594Y-89523192D01*
X86945603Y-89523195D01*
X87022647Y-89545286D01*
X87028928Y-89547266D01*
X87108892Y-89574800D01*
X87113216Y-89575640D01*
X87113218Y-89575641D01*
X87129727Y-89578850D01*
X87155283Y-89583817D01*
X87165964Y-89586381D01*
X87211390Y-89599407D01*
X87267557Y-89607301D01*
X87295112Y-89611174D01*
X87301616Y-89612263D01*
X87362609Y-89624118D01*
X87384628Y-89628398D01*
X87412282Y-89629847D01*
X87431819Y-89630871D01*
X87442761Y-89631924D01*
X87462149Y-89634649D01*
X87489552Y-89638500D01*
X87574105Y-89638500D01*
X87580699Y-89638673D01*
X87660741Y-89642868D01*
X87660747Y-89642868D01*
X87665138Y-89643098D01*
X87669515Y-89642715D01*
X87669519Y-89642715D01*
X87712220Y-89638979D01*
X87723201Y-89638500D01*
X90058133Y-89638500D01*
X90071303Y-89639190D01*
X90095364Y-89641719D01*
X90095367Y-89641719D01*
X90099733Y-89642178D01*
X90104121Y-89642025D01*
X90104127Y-89642025D01*
X90202854Y-89638577D01*
X90207251Y-89638500D01*
X90240146Y-89638500D01*
X90257647Y-89637276D01*
X90272961Y-89636205D01*
X90277355Y-89635975D01*
X90376061Y-89632529D01*
X90376068Y-89632528D01*
X90380458Y-89632375D01*
X90384783Y-89631612D01*
X90384787Y-89631612D01*
X90403013Y-89628398D01*
X90408606Y-89627412D01*
X90421693Y-89625805D01*
X90431558Y-89625115D01*
X90445824Y-89624118D01*
X90445826Y-89624118D01*
X90450212Y-89623811D01*
X90551167Y-89602352D01*
X90555446Y-89601520D01*
X90657087Y-89583598D01*
X90684276Y-89574764D01*
X90697007Y-89571353D01*
X90724970Y-89565409D01*
X90821934Y-89530117D01*
X90826093Y-89528685D01*
X90920046Y-89498158D01*
X90920045Y-89498158D01*
X90924235Y-89496797D01*
X90928188Y-89494869D01*
X90928193Y-89494867D01*
X90949929Y-89484265D01*
X90962070Y-89479112D01*
X90984789Y-89470843D01*
X90984792Y-89470842D01*
X90988926Y-89469337D01*
X91080068Y-89420876D01*
X91083913Y-89418917D01*
X91158182Y-89382693D01*
X91172752Y-89375587D01*
X91172757Y-89375584D01*
X91176702Y-89373660D01*
X91200409Y-89357670D01*
X91211701Y-89350885D01*
X91236942Y-89337464D01*
X91242579Y-89333369D01*
X91278411Y-89307335D01*
X91320434Y-89276804D01*
X91324023Y-89274291D01*
X91345152Y-89260040D01*
X91415608Y-89238500D01*
X92773199Y-89238500D01*
X92775648Y-89238307D01*
X92775655Y-89238307D01*
X92862584Y-89231465D01*
X92962403Y-89223609D01*
X92967210Y-89222455D01*
X92967216Y-89222454D01*
X93123968Y-89184821D01*
X93208591Y-89164505D01*
X93213164Y-89162611D01*
X93437928Y-89069511D01*
X93437932Y-89069509D01*
X93442502Y-89067616D01*
X93658376Y-88935328D01*
X93850898Y-88770898D01*
X93854106Y-88767142D01*
X93854113Y-88767135D01*
X93884190Y-88731920D01*
X93943641Y-88693111D01*
X94014635Y-88692605D01*
X94075810Y-88731920D01*
X94105887Y-88767135D01*
X94105894Y-88767142D01*
X94109102Y-88770898D01*
X94301624Y-88935328D01*
X94517498Y-89067616D01*
X94522068Y-89069509D01*
X94522072Y-89069511D01*
X94746836Y-89162611D01*
X94751409Y-89164505D01*
X94836032Y-89184821D01*
X94992784Y-89222454D01*
X94992790Y-89222455D01*
X94997597Y-89223609D01*
X95097416Y-89231465D01*
X95184345Y-89238307D01*
X95184352Y-89238307D01*
X95186801Y-89238500D01*
X96538083Y-89238500D01*
X96606045Y-89258455D01*
X96606550Y-89258879D01*
X96608930Y-89260366D01*
X96630793Y-89274028D01*
X96641592Y-89281590D01*
X96658070Y-89294463D01*
X96664118Y-89299188D01*
X96753475Y-89350778D01*
X96757234Y-89353037D01*
X96844764Y-89407731D01*
X96863413Y-89416034D01*
X96870881Y-89419359D01*
X96882622Y-89425341D01*
X96907381Y-89439636D01*
X96911454Y-89441281D01*
X96911465Y-89441287D01*
X97003045Y-89478287D01*
X97007077Y-89479998D01*
X97049166Y-89498737D01*
X97097356Y-89520193D01*
X97097361Y-89520195D01*
X97101375Y-89521982D01*
X97127124Y-89529365D01*
X97128847Y-89529859D01*
X97141316Y-89534153D01*
X97163729Y-89543209D01*
X97163749Y-89543215D01*
X97167824Y-89544862D01*
X97172097Y-89545927D01*
X97172105Y-89545930D01*
X97244202Y-89563905D01*
X97267958Y-89569828D01*
X97272158Y-89570952D01*
X97371390Y-89599407D01*
X97389102Y-89601896D01*
X97399689Y-89603384D01*
X97412635Y-89605901D01*
X97436097Y-89611751D01*
X97436110Y-89611753D01*
X97440376Y-89612817D01*
X97444754Y-89613277D01*
X97444753Y-89613277D01*
X97543008Y-89623604D01*
X97547372Y-89624140D01*
X97645197Y-89637888D01*
X97649552Y-89638500D01*
X97678133Y-89638500D01*
X97691303Y-89639190D01*
X97715364Y-89641719D01*
X97715367Y-89641719D01*
X97719733Y-89642178D01*
X97724121Y-89642025D01*
X97724127Y-89642025D01*
X97822854Y-89638577D01*
X97827251Y-89638500D01*
X100400146Y-89638500D01*
X100402332Y-89638347D01*
X100402336Y-89638347D01*
X100605827Y-89624118D01*
X100605832Y-89624117D01*
X100610212Y-89623811D01*
X100884970Y-89565409D01*
X100889099Y-89563906D01*
X100889103Y-89563905D01*
X101144781Y-89470846D01*
X101144788Y-89470843D01*
X101148926Y-89469337D01*
X101396942Y-89337464D01*
X101400503Y-89334877D01*
X101620629Y-89174947D01*
X101620632Y-89174944D01*
X101624192Y-89172358D01*
X101632129Y-89164694D01*
X101730695Y-89069509D01*
X101826252Y-88977231D01*
X101999188Y-88755882D01*
X102001384Y-88752078D01*
X102001389Y-88752071D01*
X102122580Y-88542160D01*
X102139636Y-88512619D01*
X102244862Y-88252176D01*
X102246747Y-88244616D01*
X102311753Y-87983893D01*
X102311754Y-87983888D01*
X102312817Y-87979624D01*
X102320964Y-87902115D01*
X102341719Y-87704636D01*
X102341719Y-87704633D01*
X102342178Y-87700267D01*
X102342025Y-87695873D01*
X102332529Y-87423939D01*
X102332528Y-87423933D01*
X102332375Y-87419542D01*
X102324698Y-87376000D01*
X102284360Y-87147236D01*
X102283598Y-87142913D01*
X102196797Y-86875765D01*
X102159004Y-86798277D01*
X102131258Y-86741390D01*
X102073660Y-86623298D01*
X102071205Y-86619659D01*
X102071202Y-86619653D01*
X101939418Y-86424276D01*
X101916585Y-86390424D01*
X101912034Y-86385369D01*
X101731566Y-86184940D01*
X101728629Y-86181678D01*
X101513450Y-86001121D01*
X101275236Y-85852269D01*
X101018625Y-85738018D01*
X100748610Y-85660593D01*
X100744260Y-85659982D01*
X100744257Y-85659981D01*
X100641310Y-85645513D01*
X100470448Y-85621500D01*
X99723575Y-85621500D01*
X99655454Y-85601498D01*
X99613373Y-85556587D01*
X99562493Y-85464798D01*
X99555664Y-85452479D01*
X99554652Y-85450612D01*
X99499530Y-85346942D01*
X99499524Y-85346933D01*
X99497464Y-85343058D01*
X99494879Y-85339501D01*
X99494876Y-85339495D01*
X99491645Y-85335047D01*
X99483379Y-85322073D01*
X99478583Y-85313421D01*
X99405289Y-85216156D01*
X99403991Y-85214402D01*
X99334941Y-85119363D01*
X99334940Y-85119362D01*
X99332358Y-85115808D01*
X99325475Y-85108680D01*
X99315490Y-85096988D01*
X99312188Y-85092607D01*
X99312187Y-85092606D01*
X99309536Y-85089088D01*
X99223460Y-85003012D01*
X99221918Y-85001444D01*
X99137231Y-84913748D01*
X99129422Y-84907647D01*
X99117900Y-84897452D01*
X85409525Y-71189077D01*
X85380638Y-71144212D01*
X85356267Y-71079203D01*
X85353115Y-71070795D01*
X85265761Y-70954239D01*
X85149205Y-70866885D01*
X85036481Y-70824626D01*
X85012181Y-70811278D01*
X85011697Y-70812023D01*
X84779815Y-70661437D01*
X84776118Y-70659036D01*
X84521540Y-70540324D01*
X84517340Y-70539040D01*
X84517335Y-70539038D01*
X84387228Y-70499261D01*
X84252917Y-70458199D01*
X84248579Y-70457512D01*
X84248575Y-70457511D01*
X84150374Y-70441957D01*
X84086221Y-70411544D01*
X84048695Y-70351275D01*
X84049709Y-70280286D01*
X84088943Y-70221114D01*
X84140670Y-70194990D01*
X84299366Y-70156890D01*
X84303939Y-70154996D01*
X84529066Y-70061746D01*
X84529070Y-70061744D01*
X84533640Y-70059851D01*
X84749850Y-69927357D01*
X84942672Y-69762672D01*
X85107357Y-69569850D01*
X85239851Y-69353640D01*
X85264353Y-69294488D01*
X85334996Y-69123939D01*
X85334997Y-69123936D01*
X85336890Y-69119366D01*
X85357724Y-69032586D01*
X85394932Y-68877608D01*
X85394933Y-68877602D01*
X85396087Y-68872795D01*
X85415982Y-68620000D01*
X85406695Y-68502002D01*
X85421291Y-68432523D01*
X85443212Y-68403022D01*
X90839379Y-63006855D01*
X90849522Y-62997753D01*
X90874218Y-62977897D01*
X90879025Y-62974032D01*
X90911320Y-62935544D01*
X90914478Y-62931925D01*
X90916124Y-62930110D01*
X90918309Y-62927925D01*
X90920264Y-62925545D01*
X90920273Y-62925535D01*
X90945549Y-62894764D01*
X90946391Y-62893749D01*
X91002194Y-62827245D01*
X91006154Y-62822526D01*
X91008723Y-62817852D01*
X91012102Y-62813739D01*
X91055975Y-62731915D01*
X91056584Y-62730793D01*
X91073555Y-62699924D01*
X91101433Y-62649213D01*
X91103045Y-62644131D01*
X91105562Y-62639437D01*
X91132762Y-62550469D01*
X91133108Y-62549358D01*
X91159373Y-62466563D01*
X91161235Y-62460694D01*
X91161829Y-62455398D01*
X91163387Y-62450302D01*
X91172790Y-62357743D01*
X91172911Y-62356607D01*
X91178500Y-62306773D01*
X91178500Y-62303246D01*
X91178555Y-62302261D01*
X91179002Y-62296581D01*
X91183374Y-62253538D01*
X91179059Y-62207891D01*
X91178500Y-62196033D01*
X91178500Y-54671840D01*
X91179237Y-54658232D01*
X91182659Y-54626736D01*
X91182659Y-54626732D01*
X91183324Y-54620611D01*
X91178950Y-54570609D01*
X91178621Y-54565784D01*
X91178500Y-54563313D01*
X91178500Y-54560231D01*
X91174309Y-54517489D01*
X91174187Y-54516174D01*
X91166623Y-54429719D01*
X91166087Y-54423587D01*
X91164600Y-54418468D01*
X91164080Y-54413167D01*
X91137199Y-54324133D01*
X91136864Y-54323000D01*
X91112627Y-54239578D01*
X91112625Y-54239574D01*
X91110908Y-54233663D01*
X91108457Y-54228934D01*
X91106916Y-54223831D01*
X91063230Y-54141669D01*
X91062683Y-54140627D01*
X91022728Y-54063545D01*
X91022727Y-54063544D01*
X91019892Y-54058074D01*
X91016569Y-54053911D01*
X91014066Y-54049204D01*
X90955263Y-53977105D01*
X90954500Y-53976160D01*
X90923261Y-53937027D01*
X90920770Y-53934536D01*
X90920120Y-53933809D01*
X90916408Y-53929463D01*
X90901013Y-53910588D01*
X90889065Y-53895938D01*
X90884323Y-53892015D01*
X90884321Y-53892013D01*
X90853727Y-53866703D01*
X90844947Y-53858713D01*
X88386855Y-51400621D01*
X88377753Y-51390478D01*
X88357897Y-51365782D01*
X88354032Y-51360975D01*
X88315578Y-51328708D01*
X88311931Y-51325528D01*
X88310119Y-51323885D01*
X88307925Y-51321691D01*
X88274651Y-51294358D01*
X88273853Y-51293696D01*
X88202526Y-51233846D01*
X88197856Y-51231278D01*
X88193739Y-51227897D01*
X88111914Y-51184023D01*
X88110755Y-51183394D01*
X88034619Y-51141538D01*
X88034611Y-51141535D01*
X88029213Y-51138567D01*
X88024131Y-51136955D01*
X88019437Y-51134438D01*
X87930469Y-51107238D01*
X87929441Y-51106918D01*
X87840694Y-51078765D01*
X87835398Y-51078171D01*
X87830302Y-51076613D01*
X87737743Y-51067210D01*
X87736607Y-51067089D01*
X87702992Y-51063319D01*
X87690270Y-51061892D01*
X87690266Y-51061892D01*
X87686773Y-51061500D01*
X87683246Y-51061500D01*
X87682261Y-51061445D01*
X87676581Y-51060998D01*
X87647175Y-51058011D01*
X87639663Y-51057248D01*
X87639661Y-51057248D01*
X87633538Y-51056626D01*
X87591259Y-51060623D01*
X87587891Y-51060941D01*
X87576033Y-51061500D01*
X80071843Y-51061500D01*
X80058236Y-51060763D01*
X80026738Y-51057341D01*
X80026733Y-51057341D01*
X80020612Y-51056676D01*
X79994362Y-51058973D01*
X79970612Y-51061050D01*
X79965786Y-51061379D01*
X79963314Y-51061500D01*
X79960231Y-51061500D01*
X79948262Y-51062674D01*
X79917494Y-51065690D01*
X79916181Y-51065812D01*
X79871916Y-51069685D01*
X79823587Y-51073913D01*
X79818468Y-51075400D01*
X79813167Y-51075920D01*
X79724166Y-51102791D01*
X79723033Y-51103126D01*
X79639586Y-51127370D01*
X79639582Y-51127372D01*
X79633664Y-51129091D01*
X79628932Y-51131544D01*
X79623831Y-51133084D01*
X79618388Y-51135978D01*
X79541740Y-51176731D01*
X79540574Y-51177343D01*
X79463547Y-51217271D01*
X79458074Y-51220108D01*
X79453911Y-51223431D01*
X79449204Y-51225934D01*
X79377082Y-51284755D01*
X79376226Y-51285446D01*
X79337027Y-51316738D01*
X79334523Y-51319242D01*
X79333805Y-51319884D01*
X79329472Y-51323585D01*
X79295938Y-51350935D01*
X79292011Y-51355682D01*
X79292009Y-51355684D01*
X79266713Y-51386262D01*
X79258723Y-51395042D01*
X74260621Y-56393145D01*
X74250478Y-56402247D01*
X74229974Y-56418733D01*
X74220975Y-56425968D01*
X74198670Y-56452550D01*
X74188709Y-56464421D01*
X74185528Y-56468069D01*
X74183885Y-56469881D01*
X74181691Y-56472075D01*
X74154358Y-56505349D01*
X74153696Y-56506147D01*
X74093846Y-56577474D01*
X74091278Y-56582144D01*
X74087897Y-56586261D01*
X74056860Y-56644145D01*
X74044023Y-56668086D01*
X74043394Y-56669245D01*
X74001538Y-56745381D01*
X74001535Y-56745389D01*
X73998567Y-56750787D01*
X73996955Y-56755869D01*
X73994438Y-56760563D01*
X73967238Y-56849531D01*
X73966918Y-56850559D01*
X73938765Y-56939306D01*
X73938171Y-56944602D01*
X73936613Y-56949698D01*
X73935678Y-56958910D01*
X73927218Y-57042187D01*
X73927089Y-57043393D01*
X73921500Y-57093227D01*
X73921500Y-57096754D01*
X73921445Y-57097739D01*
X73920998Y-57103419D01*
X73916626Y-57146462D01*
X73917206Y-57152593D01*
X73920941Y-57192109D01*
X73921500Y-57203967D01*
X73921500Y-77271076D01*
X73901498Y-77339197D01*
X73847842Y-77385690D01*
X73777568Y-77395794D01*
X73712988Y-77366300D01*
X73706405Y-77360171D01*
X73435405Y-77089171D01*
X73401379Y-77026859D01*
X73398500Y-77000076D01*
X73398500Y-62291843D01*
X73399237Y-62278236D01*
X73402659Y-62246738D01*
X73402659Y-62246733D01*
X73403324Y-62240612D01*
X73398950Y-62190612D01*
X73398621Y-62185786D01*
X73398500Y-62183314D01*
X73398500Y-62180231D01*
X73396410Y-62158917D01*
X73394310Y-62137494D01*
X73394188Y-62136181D01*
X73386623Y-62049718D01*
X73386087Y-62043587D01*
X73384600Y-62038468D01*
X73384080Y-62033167D01*
X73357209Y-61944166D01*
X73356874Y-61943033D01*
X73332630Y-61859586D01*
X73332628Y-61859582D01*
X73330909Y-61853664D01*
X73328456Y-61848932D01*
X73326916Y-61843831D01*
X73283269Y-61761740D01*
X73282657Y-61760574D01*
X73242729Y-61683547D01*
X73239892Y-61678074D01*
X73236569Y-61673911D01*
X73234066Y-61669204D01*
X73175245Y-61597082D01*
X73174554Y-61596226D01*
X73143262Y-61557027D01*
X73140758Y-61554523D01*
X73140116Y-61553805D01*
X73136415Y-61549472D01*
X73109065Y-61515938D01*
X73073737Y-61486712D01*
X73064958Y-61478723D01*
X66736855Y-55150621D01*
X66727753Y-55140478D01*
X66707897Y-55115782D01*
X66704032Y-55110975D01*
X66665578Y-55078708D01*
X66661931Y-55075528D01*
X66660119Y-55073885D01*
X66657925Y-55071691D01*
X66624651Y-55044358D01*
X66623853Y-55043696D01*
X66552526Y-54983846D01*
X66547856Y-54981278D01*
X66543739Y-54977897D01*
X66461914Y-54934023D01*
X66460755Y-54933394D01*
X66384619Y-54891538D01*
X66384611Y-54891535D01*
X66379213Y-54888567D01*
X66374131Y-54886955D01*
X66369437Y-54884438D01*
X66280469Y-54857238D01*
X66279441Y-54856918D01*
X66190694Y-54828765D01*
X66185398Y-54828171D01*
X66180302Y-54826613D01*
X66087743Y-54817210D01*
X66086607Y-54817089D01*
X66052992Y-54813319D01*
X66040270Y-54811892D01*
X66040266Y-54811892D01*
X66036773Y-54811500D01*
X66033246Y-54811500D01*
X66032261Y-54811445D01*
X66026581Y-54810998D01*
X65997175Y-54808011D01*
X65989663Y-54807248D01*
X65989661Y-54807248D01*
X65983538Y-54806626D01*
X65941259Y-54810623D01*
X65937891Y-54810941D01*
X65926033Y-54811500D01*
X64815351Y-54811500D01*
X64747230Y-54791498D01*
X64719545Y-54767335D01*
X64642672Y-54677328D01*
X64449850Y-54512643D01*
X64233640Y-54380149D01*
X64229070Y-54378256D01*
X64229066Y-54378254D01*
X64003939Y-54285004D01*
X64003937Y-54285003D01*
X63999366Y-54283110D01*
X63912586Y-54262276D01*
X63757608Y-54225068D01*
X63757602Y-54225067D01*
X63752795Y-54223913D01*
X63500000Y-54204018D01*
X63247205Y-54223913D01*
X63242398Y-54225067D01*
X63242392Y-54225068D01*
X63087414Y-54262276D01*
X63000634Y-54283110D01*
X62996063Y-54285003D01*
X62996061Y-54285004D01*
X62770934Y-54378254D01*
X62770930Y-54378256D01*
X62766360Y-54380149D01*
X62550150Y-54512643D01*
X62357328Y-54677328D01*
X62192643Y-54870150D01*
X62060149Y-55086360D01*
X62058256Y-55090930D01*
X62058254Y-55090934D01*
X61997437Y-55237760D01*
X61963110Y-55320634D01*
X61961955Y-55325446D01*
X61905068Y-55562392D01*
X61905067Y-55562398D01*
X61903913Y-55567205D01*
X61884018Y-55820000D01*
X61903913Y-56072795D01*
X61905067Y-56077602D01*
X61905068Y-56077608D01*
X61961954Y-56314553D01*
X61961956Y-56314559D01*
X61963110Y-56319366D01*
X61964000Y-56321514D01*
X61966009Y-56391750D01*
X61929348Y-56452550D01*
X61865637Y-56483877D01*
X61795103Y-56475786D01*
X61755052Y-56448818D01*
X61343212Y-56036978D01*
X61309186Y-55974666D01*
X61306695Y-55937997D01*
X61309808Y-55898453D01*
X61315982Y-55820000D01*
X61296087Y-55567205D01*
X61294933Y-55562398D01*
X61294932Y-55562392D01*
X61238045Y-55325446D01*
X61236890Y-55320634D01*
X61202563Y-55237760D01*
X61141746Y-55090934D01*
X61141744Y-55090930D01*
X61139851Y-55086360D01*
X61007357Y-54870150D01*
X60842672Y-54677328D01*
X60649850Y-54512643D01*
X60433640Y-54380149D01*
X60429070Y-54378256D01*
X60429066Y-54378254D01*
X60203939Y-54285004D01*
X60203937Y-54285003D01*
X60199366Y-54283110D01*
X60112586Y-54262276D01*
X59957608Y-54225068D01*
X59957602Y-54225067D01*
X59952795Y-54223913D01*
X59700000Y-54204018D01*
X59447205Y-54223913D01*
X59442398Y-54225067D01*
X59442392Y-54225068D01*
X59287414Y-54262276D01*
X59200634Y-54283110D01*
X59196063Y-54285003D01*
X59196061Y-54285004D01*
X58970934Y-54378254D01*
X58970930Y-54378256D01*
X58966360Y-54380149D01*
X58750150Y-54512643D01*
X58557328Y-54677328D01*
X58392643Y-54870150D01*
X58260149Y-55086360D01*
X58258256Y-55090930D01*
X58258254Y-55090934D01*
X58197437Y-55237760D01*
X58163110Y-55320634D01*
X58161955Y-55325446D01*
X58105068Y-55562392D01*
X58105067Y-55562398D01*
X58103913Y-55567205D01*
X58084018Y-55820000D01*
X58103913Y-56072795D01*
X58105067Y-56077602D01*
X58105068Y-56077608D01*
X58139702Y-56221867D01*
X58163110Y-56319366D01*
X58165003Y-56323937D01*
X58165004Y-56323939D01*
X58240499Y-56506200D01*
X58260149Y-56553640D01*
X58392643Y-56769850D01*
X58557328Y-56962672D01*
X58750150Y-57127357D01*
X58966360Y-57259851D01*
X58970930Y-57261744D01*
X58970934Y-57261746D01*
X59184420Y-57350174D01*
X59200634Y-57356890D01*
X59287414Y-57377724D01*
X59442392Y-57414932D01*
X59442398Y-57414933D01*
X59447205Y-57416087D01*
X59700000Y-57435982D01*
X59817997Y-57426695D01*
X59887476Y-57441291D01*
X59916977Y-57463212D01*
X68804595Y-66350829D01*
X68838621Y-66413141D01*
X68841500Y-66439924D01*
X68841500Y-77271076D01*
X68821498Y-77339197D01*
X68767842Y-77385690D01*
X68697568Y-77395794D01*
X68632988Y-77366300D01*
X68626405Y-77360171D01*
X68355405Y-77089171D01*
X68321379Y-77026859D01*
X68318500Y-77000076D01*
X68318500Y-67371842D01*
X68319237Y-67358235D01*
X68322659Y-67326737D01*
X68322659Y-67326732D01*
X68323324Y-67320611D01*
X68318950Y-67270609D01*
X68318621Y-67265784D01*
X68318500Y-67263313D01*
X68318500Y-67260231D01*
X68314309Y-67217489D01*
X68314187Y-67216174D01*
X68306623Y-67129719D01*
X68306087Y-67123587D01*
X68304600Y-67118468D01*
X68304080Y-67113167D01*
X68277218Y-67024194D01*
X68276862Y-67022994D01*
X68274047Y-67013305D01*
X68250909Y-66933663D01*
X68248455Y-66928929D01*
X68246916Y-66923831D01*
X68203316Y-66841831D01*
X68202702Y-66840663D01*
X68162726Y-66763541D01*
X68162725Y-66763540D01*
X68159892Y-66758074D01*
X68156569Y-66753911D01*
X68154066Y-66749204D01*
X68095245Y-66677082D01*
X68094554Y-66676226D01*
X68063262Y-66637027D01*
X68060758Y-66634523D01*
X68060116Y-66633805D01*
X68056415Y-66629472D01*
X68029065Y-66595938D01*
X67993737Y-66566712D01*
X67984958Y-66558723D01*
X61776855Y-60350621D01*
X61767753Y-60340478D01*
X61747897Y-60315782D01*
X61744032Y-60310975D01*
X61705578Y-60278708D01*
X61701931Y-60275528D01*
X61700119Y-60273885D01*
X61697925Y-60271691D01*
X61664651Y-60244358D01*
X61663853Y-60243696D01*
X61592526Y-60183846D01*
X61587856Y-60181278D01*
X61583739Y-60177897D01*
X61501914Y-60134023D01*
X61500755Y-60133394D01*
X61424619Y-60091538D01*
X61424611Y-60091535D01*
X61419213Y-60088567D01*
X61414131Y-60086955D01*
X61409437Y-60084438D01*
X61320469Y-60057238D01*
X61319441Y-60056918D01*
X61230694Y-60028765D01*
X61225398Y-60028171D01*
X61220302Y-60026613D01*
X61127743Y-60017210D01*
X61126607Y-60017089D01*
X61092992Y-60013319D01*
X61080270Y-60011892D01*
X61080266Y-60011892D01*
X61076773Y-60011500D01*
X61073246Y-60011500D01*
X61072261Y-60011445D01*
X61066581Y-60010998D01*
X61037175Y-60008011D01*
X61029663Y-60007248D01*
X61029661Y-60007248D01*
X61023538Y-60006626D01*
X60981259Y-60010623D01*
X60977891Y-60010941D01*
X60966033Y-60011500D01*
X57215351Y-60011500D01*
X57147230Y-59991498D01*
X57119545Y-59967335D01*
X57042672Y-59877328D01*
X56849850Y-59712643D01*
X56633640Y-59580149D01*
X56629070Y-59578256D01*
X56629066Y-59578254D01*
X56403939Y-59485004D01*
X56403937Y-59485003D01*
X56399366Y-59483110D01*
X56394552Y-59481954D01*
X56394545Y-59481952D01*
X56284801Y-59455604D01*
X56223232Y-59420252D01*
X56190550Y-59357225D01*
X56197131Y-59286534D01*
X56240885Y-59230623D01*
X56282243Y-59211210D01*
X56542611Y-59142905D01*
X56550727Y-59140174D01*
X56797639Y-59037899D01*
X56805301Y-59034096D01*
X57036054Y-58899255D01*
X57043119Y-58894454D01*
X57125341Y-58829983D01*
X57133810Y-58818126D01*
X57127293Y-58806503D01*
X55912812Y-57592022D01*
X55898868Y-57584408D01*
X55897035Y-57584539D01*
X55890420Y-57588790D01*
X54672261Y-58806949D01*
X54664969Y-58820303D01*
X54672024Y-58830276D01*
X54704836Y-58857710D01*
X54711772Y-58862750D01*
X54938156Y-59004760D01*
X54945707Y-59008809D01*
X55189279Y-59118786D01*
X55197310Y-59121772D01*
X55453552Y-59197675D01*
X55461904Y-59199542D01*
X55511010Y-59207056D01*
X55575321Y-59237132D01*
X55613163Y-59297203D01*
X55612521Y-59368196D01*
X55573599Y-59427573D01*
X55521366Y-59454125D01*
X55400634Y-59483110D01*
X55396063Y-59485003D01*
X55396061Y-59485004D01*
X55170934Y-59578254D01*
X55170930Y-59578256D01*
X55166360Y-59580149D01*
X54950150Y-59712643D01*
X54757328Y-59877328D01*
X54592643Y-60070150D01*
X54460149Y-60286360D01*
X54458256Y-60290930D01*
X54458254Y-60290934D01*
X54435532Y-60345790D01*
X54363110Y-60520634D01*
X54361955Y-60525446D01*
X54305068Y-60762392D01*
X54305067Y-60762398D01*
X54303913Y-60767205D01*
X54284018Y-61020000D01*
X54303913Y-61272795D01*
X54305067Y-61277602D01*
X54305068Y-61277608D01*
X54342276Y-61432586D01*
X54363110Y-61519366D01*
X54365003Y-61523937D01*
X54365004Y-61523939D01*
X54457339Y-61746855D01*
X54460149Y-61753640D01*
X54592643Y-61969850D01*
X54757328Y-62162672D01*
X54950150Y-62327357D01*
X55166360Y-62459851D01*
X55170930Y-62461744D01*
X55170934Y-62461746D01*
X55396061Y-62554996D01*
X55400634Y-62556890D01*
X55487414Y-62577724D01*
X55642392Y-62614932D01*
X55642398Y-62614933D01*
X55647205Y-62616087D01*
X55900000Y-62635982D01*
X56152795Y-62616087D01*
X56157602Y-62614933D01*
X56157608Y-62614932D01*
X56312586Y-62577724D01*
X56399366Y-62556890D01*
X56403939Y-62554996D01*
X56629066Y-62461746D01*
X56629070Y-62461744D01*
X56633640Y-62459851D01*
X56849850Y-62327357D01*
X57042672Y-62162672D01*
X57119542Y-62072668D01*
X57178990Y-62033861D01*
X57215351Y-62028500D01*
X60550075Y-62028500D01*
X60618196Y-62048502D01*
X60639170Y-62065405D01*
X66264595Y-67690829D01*
X66298621Y-67753141D01*
X66301500Y-67779924D01*
X66301500Y-77271076D01*
X66281498Y-77339197D01*
X66227842Y-77385690D01*
X66157568Y-77395794D01*
X66092988Y-77366300D01*
X66086405Y-77360171D01*
X65815405Y-77089171D01*
X65781379Y-77026859D01*
X65778500Y-77000076D01*
X65778500Y-69911842D01*
X65779237Y-69898235D01*
X65782659Y-69866737D01*
X65782659Y-69866732D01*
X65783324Y-69860611D01*
X65778950Y-69810609D01*
X65778621Y-69805784D01*
X65778500Y-69803313D01*
X65778500Y-69800231D01*
X65775132Y-69765885D01*
X65774309Y-69757489D01*
X65774187Y-69756174D01*
X65771364Y-69723913D01*
X65766087Y-69663587D01*
X65764600Y-69658468D01*
X65764080Y-69653167D01*
X65737218Y-69564194D01*
X65736862Y-69562994D01*
X65710909Y-69473663D01*
X65708455Y-69468929D01*
X65706916Y-69463831D01*
X65663316Y-69381831D01*
X65662702Y-69380663D01*
X65622726Y-69303541D01*
X65622725Y-69303540D01*
X65619892Y-69298074D01*
X65616569Y-69293911D01*
X65614066Y-69289204D01*
X65555245Y-69217082D01*
X65554554Y-69216226D01*
X65523262Y-69177027D01*
X65520758Y-69174523D01*
X65520116Y-69173805D01*
X65516415Y-69169472D01*
X65489065Y-69135938D01*
X65453737Y-69106712D01*
X65444958Y-69098723D01*
X60496855Y-64150621D01*
X60487753Y-64140478D01*
X60467897Y-64115782D01*
X60464032Y-64110975D01*
X60425578Y-64078708D01*
X60421931Y-64075528D01*
X60420119Y-64073885D01*
X60417925Y-64071691D01*
X60384651Y-64044358D01*
X60383853Y-64043696D01*
X60312526Y-63983846D01*
X60307856Y-63981278D01*
X60303739Y-63977897D01*
X60221914Y-63934023D01*
X60220755Y-63933394D01*
X60144619Y-63891538D01*
X60144611Y-63891535D01*
X60139213Y-63888567D01*
X60134131Y-63886955D01*
X60129437Y-63884438D01*
X60040469Y-63857238D01*
X60039441Y-63856918D01*
X59950694Y-63828765D01*
X59945398Y-63828171D01*
X59940302Y-63826613D01*
X59847743Y-63817210D01*
X59846607Y-63817089D01*
X59812992Y-63813319D01*
X59800270Y-63811892D01*
X59800266Y-63811892D01*
X59796773Y-63811500D01*
X59793246Y-63811500D01*
X59792261Y-63811445D01*
X59786581Y-63810998D01*
X59757175Y-63808011D01*
X59749663Y-63807248D01*
X59749661Y-63807248D01*
X59743538Y-63806626D01*
X59701259Y-63810623D01*
X59697891Y-63810941D01*
X59686033Y-63811500D01*
X57215351Y-63811500D01*
X57147230Y-63791498D01*
X57119545Y-63767335D01*
X57042672Y-63677328D01*
X56849850Y-63512643D01*
X56633640Y-63380149D01*
X56629070Y-63378256D01*
X56629066Y-63378254D01*
X56403939Y-63285004D01*
X56403937Y-63285003D01*
X56399366Y-63283110D01*
X56312586Y-63262276D01*
X56157608Y-63225068D01*
X56157602Y-63225067D01*
X56152795Y-63223913D01*
X55900000Y-63204018D01*
X55647205Y-63223913D01*
X55642398Y-63225067D01*
X55642392Y-63225068D01*
X55487414Y-63262276D01*
X55400634Y-63283110D01*
X55396063Y-63285003D01*
X55396061Y-63285004D01*
X55170934Y-63378254D01*
X55170930Y-63378256D01*
X55166360Y-63380149D01*
X54950150Y-63512643D01*
X54757328Y-63677328D01*
X54592643Y-63870150D01*
X54460149Y-64086360D01*
X54458256Y-64090930D01*
X54458254Y-64090934D01*
X54365004Y-64316061D01*
X54363110Y-64320634D01*
X54343007Y-64404369D01*
X54305068Y-64562392D01*
X54305067Y-64562398D01*
X54303913Y-64567205D01*
X54284018Y-64820000D01*
X54303913Y-65072795D01*
X54305067Y-65077602D01*
X54305068Y-65077608D01*
X54338945Y-65218713D01*
X54363110Y-65319366D01*
X54365003Y-65323936D01*
X54365004Y-65323939D01*
X54438416Y-65501171D01*
X54460149Y-65553640D01*
X54592643Y-65769850D01*
X54757328Y-65962672D01*
X54950150Y-66127357D01*
X55166360Y-66259851D01*
X55170930Y-66261744D01*
X55170934Y-66261746D01*
X55386001Y-66350829D01*
X55400634Y-66356890D01*
X55487414Y-66377724D01*
X55642392Y-66414932D01*
X55642398Y-66414933D01*
X55647205Y-66416087D01*
X55900000Y-66435982D01*
X56152795Y-66416087D01*
X56157602Y-66414933D01*
X56157608Y-66414932D01*
X56312586Y-66377724D01*
X56399366Y-66356890D01*
X56413999Y-66350829D01*
X56629066Y-66261746D01*
X56629070Y-66261744D01*
X56633640Y-66259851D01*
X56849850Y-66127357D01*
X57042672Y-65962672D01*
X57119542Y-65872668D01*
X57178990Y-65833861D01*
X57215351Y-65828500D01*
X59270075Y-65828500D01*
X59338196Y-65848502D01*
X59359170Y-65865405D01*
X63724595Y-70230829D01*
X63758621Y-70293141D01*
X63761500Y-70319924D01*
X63761500Y-77271076D01*
X63741498Y-77339197D01*
X63687842Y-77385690D01*
X63617568Y-77395794D01*
X63552988Y-77366300D01*
X63546405Y-77360171D01*
X63275405Y-77089171D01*
X63241379Y-77026859D01*
X63238500Y-77000076D01*
X63238500Y-72451842D01*
X63239237Y-72438235D01*
X63242659Y-72406737D01*
X63242659Y-72406732D01*
X63243324Y-72400611D01*
X63238950Y-72350609D01*
X63238621Y-72345784D01*
X63238500Y-72343313D01*
X63238500Y-72340231D01*
X63234309Y-72297489D01*
X63234187Y-72296174D01*
X63226623Y-72209719D01*
X63226087Y-72203587D01*
X63224600Y-72198468D01*
X63224080Y-72193167D01*
X63197209Y-72104166D01*
X63196874Y-72103033D01*
X63172630Y-72019586D01*
X63172628Y-72019582D01*
X63170909Y-72013664D01*
X63168456Y-72008932D01*
X63166916Y-72003831D01*
X63123269Y-71921740D01*
X63122657Y-71920574D01*
X63082729Y-71843547D01*
X63079892Y-71838074D01*
X63076569Y-71833911D01*
X63074066Y-71829204D01*
X63015245Y-71757082D01*
X63014554Y-71756226D01*
X62983262Y-71717027D01*
X62980758Y-71714523D01*
X62980116Y-71713805D01*
X62976415Y-71709472D01*
X62949065Y-71675938D01*
X62913737Y-71646712D01*
X62904958Y-71638723D01*
X59216855Y-67950621D01*
X59207753Y-67940478D01*
X59187897Y-67915782D01*
X59184032Y-67910975D01*
X59145578Y-67878708D01*
X59141931Y-67875528D01*
X59140119Y-67873885D01*
X59137925Y-67871691D01*
X59104651Y-67844358D01*
X59103853Y-67843696D01*
X59032526Y-67783846D01*
X59027856Y-67781278D01*
X59023739Y-67777897D01*
X58941914Y-67734023D01*
X58940755Y-67733394D01*
X58864619Y-67691538D01*
X58864611Y-67691535D01*
X58859213Y-67688567D01*
X58854131Y-67686955D01*
X58849437Y-67684438D01*
X58760469Y-67657238D01*
X58759441Y-67656918D01*
X58670694Y-67628765D01*
X58665398Y-67628171D01*
X58660302Y-67626613D01*
X58567743Y-67617210D01*
X58566607Y-67617089D01*
X58532992Y-67613319D01*
X58520270Y-67611892D01*
X58520266Y-67611892D01*
X58516773Y-67611500D01*
X58513246Y-67611500D01*
X58512261Y-67611445D01*
X58506581Y-67610998D01*
X58477175Y-67608011D01*
X58469663Y-67607248D01*
X58469661Y-67607248D01*
X58463538Y-67606626D01*
X58421259Y-67610623D01*
X58417891Y-67610941D01*
X58406033Y-67611500D01*
X57215351Y-67611500D01*
X57147230Y-67591498D01*
X57119545Y-67567335D01*
X57042672Y-67477328D01*
X56849850Y-67312643D01*
X56633640Y-67180149D01*
X56629070Y-67178256D01*
X56629066Y-67178254D01*
X56403939Y-67085004D01*
X56403937Y-67085003D01*
X56399366Y-67083110D01*
X56312586Y-67062276D01*
X56157608Y-67025068D01*
X56157602Y-67025067D01*
X56152795Y-67023913D01*
X55900000Y-67004018D01*
X55647205Y-67023913D01*
X55642398Y-67025067D01*
X55642392Y-67025068D01*
X55487414Y-67062276D01*
X55400634Y-67083110D01*
X55396063Y-67085003D01*
X55396061Y-67085004D01*
X55170934Y-67178254D01*
X55170930Y-67178256D01*
X55166360Y-67180149D01*
X54950150Y-67312643D01*
X54757328Y-67477328D01*
X54592643Y-67670150D01*
X54460149Y-67886360D01*
X54458256Y-67890930D01*
X54458254Y-67890934D01*
X54365004Y-68116061D01*
X54363110Y-68120634D01*
X54343007Y-68204369D01*
X54305068Y-68362392D01*
X54305067Y-68362398D01*
X54303913Y-68367205D01*
X54284018Y-68620000D01*
X54303913Y-68872795D01*
X54305067Y-68877602D01*
X54305068Y-68877608D01*
X54342276Y-69032586D01*
X54363110Y-69119366D01*
X54365003Y-69123936D01*
X54365004Y-69123939D01*
X54435648Y-69294488D01*
X54460149Y-69353640D01*
X54592643Y-69569850D01*
X54757328Y-69762672D01*
X54925019Y-69905893D01*
X54928925Y-69909229D01*
X54967734Y-69968679D01*
X54968240Y-70039674D01*
X54930284Y-70099673D01*
X54897135Y-70120676D01*
X54758913Y-70180490D01*
X54487225Y-70341166D01*
X54237819Y-70534626D01*
X54014626Y-70757819D01*
X53821166Y-71007225D01*
X53660490Y-71278913D01*
X53658917Y-71282548D01*
X53658916Y-71282550D01*
X53536706Y-71564961D01*
X53536703Y-71564969D01*
X53535134Y-71568595D01*
X53447073Y-71871706D01*
X53446455Y-71875607D01*
X53446454Y-71875612D01*
X53423651Y-72019586D01*
X53397695Y-72183463D01*
X53396870Y-72209719D01*
X53390871Y-72400611D01*
X53387780Y-72498949D01*
X53417485Y-72813192D01*
X53486340Y-73121233D01*
X53593261Y-73418216D01*
X53736559Y-73699455D01*
X53738787Y-73702734D01*
X53738788Y-73702735D01*
X53785685Y-73771743D01*
X53807431Y-73839327D01*
X53801066Y-73882232D01*
X53762101Y-73999708D01*
X53761047Y-74002887D01*
X53760339Y-74006147D01*
X53760337Y-74006155D01*
X53721664Y-74184272D01*
X53681716Y-74368261D01*
X53641661Y-74739995D01*
X53641500Y-74745945D01*
X53641500Y-86283773D01*
X53621498Y-86351894D01*
X53597330Y-86379584D01*
X53472863Y-86485889D01*
X53472858Y-86485894D01*
X53469102Y-86489102D01*
X53304672Y-86681624D01*
X53295872Y-86695985D01*
X53287127Y-86710255D01*
X53234479Y-86757886D01*
X53164438Y-86769493D01*
X53099240Y-86741390D01*
X53086500Y-86729220D01*
X53002799Y-86637234D01*
X52995273Y-86630215D01*
X52828139Y-86498222D01*
X52819552Y-86492517D01*
X52633117Y-86389599D01*
X52623705Y-86385369D01*
X52422959Y-86314280D01*
X52412988Y-86311646D01*
X52341837Y-86298972D01*
X52328540Y-86300432D01*
X52324000Y-86314989D01*
X52324000Y-88948517D01*
X52328064Y-88962359D01*
X52341478Y-88964393D01*
X52348184Y-88963534D01*
X52358262Y-88961392D01*
X52562255Y-88900191D01*
X52571842Y-88896433D01*
X52763095Y-88802739D01*
X52771945Y-88797464D01*
X52945328Y-88673792D01*
X52953200Y-88667139D01*
X53092175Y-88528647D01*
X53154546Y-88494730D01*
X53225353Y-88499918D01*
X53282115Y-88542564D01*
X53288541Y-88552053D01*
X53304672Y-88578376D01*
X53307883Y-88582135D01*
X53307885Y-88582138D01*
X53437288Y-88733649D01*
X53469102Y-88770898D01*
X53661624Y-88935328D01*
X53877498Y-89067616D01*
X53882068Y-89069509D01*
X53915730Y-89083452D01*
X53971010Y-89128001D01*
X53983622Y-89150931D01*
X53989422Y-89164694D01*
X53991041Y-89167621D01*
X53991045Y-89167629D01*
X54056878Y-89286639D01*
X54058437Y-89289546D01*
X54118619Y-89405402D01*
X54122683Y-89413226D01*
X54124535Y-89416019D01*
X54124544Y-89416034D01*
X54145327Y-89447374D01*
X54150569Y-89456012D01*
X54170400Y-89491861D01*
X54172324Y-89494604D01*
X54172333Y-89494618D01*
X54250432Y-89605948D01*
X54252291Y-89608672D01*
X54275121Y-89643098D01*
X54329317Y-89724824D01*
X54355472Y-89756385D01*
X54361584Y-89764394D01*
X54385120Y-89797943D01*
X54387326Y-89800467D01*
X54476821Y-89902877D01*
X54478959Y-89905389D01*
X54567892Y-90012700D01*
X54597243Y-90041293D01*
X54604183Y-90048618D01*
X54631149Y-90079476D01*
X54633613Y-90081753D01*
X54633623Y-90081764D01*
X54733495Y-90174085D01*
X54735887Y-90176355D01*
X54833298Y-90271249D01*
X54833315Y-90271264D01*
X54835708Y-90273595D01*
X54838345Y-90275666D01*
X54838348Y-90275669D01*
X54867923Y-90298901D01*
X54875617Y-90305461D01*
X54903229Y-90330985D01*
X54903240Y-90330994D01*
X54905702Y-90333270D01*
X55017542Y-90416481D01*
X55020109Y-90418444D01*
X55129731Y-90504553D01*
X55162834Y-90525278D01*
X55164458Y-90526295D01*
X55172809Y-90532002D01*
X55205670Y-90556452D01*
X55208557Y-90558156D01*
X55325676Y-90627283D01*
X55328494Y-90628996D01*
X55439835Y-90698704D01*
X55486959Y-90751806D01*
X55497893Y-90821956D01*
X55469166Y-90886881D01*
X55409897Y-90925968D01*
X55372972Y-90931500D01*
X38226000Y-90931500D01*
X38157879Y-90911498D01*
X38111386Y-90857842D01*
X38100000Y-90805500D01*
X38100000Y-88524669D01*
X40552001Y-88524669D01*
X40552371Y-88531490D01*
X40557895Y-88582352D01*
X40561521Y-88597604D01*
X40606676Y-88718054D01*
X40615214Y-88733649D01*
X40691715Y-88835724D01*
X40704276Y-88848285D01*
X40806351Y-88924786D01*
X40821946Y-88933324D01*
X40942394Y-88978478D01*
X40957649Y-88982105D01*
X41008514Y-88987631D01*
X41015328Y-88988000D01*
X41637885Y-88988000D01*
X41653124Y-88983525D01*
X41654329Y-88982135D01*
X41656000Y-88974452D01*
X41656000Y-88969884D01*
X42164000Y-88969884D01*
X42168475Y-88985123D01*
X42169865Y-88986328D01*
X42177548Y-88987999D01*
X42804669Y-88987999D01*
X42811490Y-88987629D01*
X42862352Y-88982105D01*
X42877604Y-88978479D01*
X42998054Y-88933324D01*
X43013649Y-88924786D01*
X43115724Y-88848285D01*
X43128285Y-88835724D01*
X43204786Y-88733649D01*
X43213325Y-88718052D01*
X43254425Y-88608418D01*
X43297066Y-88551653D01*
X43363628Y-88526953D01*
X43432977Y-88542160D01*
X43467645Y-88570150D01*
X43493219Y-88599674D01*
X43500580Y-88606883D01*
X43664434Y-88742916D01*
X43672881Y-88748831D01*
X43856756Y-88856279D01*
X43866042Y-88860729D01*
X44065001Y-88936703D01*
X44074899Y-88939579D01*
X44178250Y-88960606D01*
X44192299Y-88959410D01*
X44196000Y-88949065D01*
X44196000Y-88948517D01*
X44704000Y-88948517D01*
X44708064Y-88962359D01*
X44721478Y-88964393D01*
X44728184Y-88963534D01*
X44738262Y-88961392D01*
X44942255Y-88900191D01*
X44951842Y-88896433D01*
X45143095Y-88802739D01*
X45151945Y-88797464D01*
X45325328Y-88673792D01*
X45333200Y-88667139D01*
X45484052Y-88516812D01*
X45490730Y-88508965D01*
X45618022Y-88331819D01*
X45619147Y-88332627D01*
X45666669Y-88288876D01*
X45736607Y-88276661D01*
X45802046Y-88304197D01*
X45829870Y-88336028D01*
X45887690Y-88430383D01*
X45893777Y-88438699D01*
X46033213Y-88599667D01*
X46040580Y-88606883D01*
X46204434Y-88742916D01*
X46212881Y-88748831D01*
X46396756Y-88856279D01*
X46406042Y-88860729D01*
X46605001Y-88936703D01*
X46614899Y-88939579D01*
X46718250Y-88960606D01*
X46732299Y-88959410D01*
X46736000Y-88949065D01*
X46736000Y-88948517D01*
X47244000Y-88948517D01*
X47248064Y-88962359D01*
X47261478Y-88964393D01*
X47268184Y-88963534D01*
X47278262Y-88961392D01*
X47482255Y-88900191D01*
X47491842Y-88896433D01*
X47683095Y-88802739D01*
X47691945Y-88797464D01*
X47865328Y-88673792D01*
X47873200Y-88667139D01*
X48024052Y-88516812D01*
X48030730Y-88508965D01*
X48158022Y-88331819D01*
X48159147Y-88332627D01*
X48206669Y-88288876D01*
X48276607Y-88276661D01*
X48342046Y-88304197D01*
X48369870Y-88336028D01*
X48427690Y-88430383D01*
X48433777Y-88438699D01*
X48573213Y-88599667D01*
X48580580Y-88606883D01*
X48744434Y-88742916D01*
X48752881Y-88748831D01*
X48936756Y-88856279D01*
X48946042Y-88860729D01*
X49145001Y-88936703D01*
X49154899Y-88939579D01*
X49258250Y-88960606D01*
X49272299Y-88959410D01*
X49276000Y-88949065D01*
X49276000Y-88948517D01*
X49784000Y-88948517D01*
X49788064Y-88962359D01*
X49801478Y-88964393D01*
X49808184Y-88963534D01*
X49818262Y-88961392D01*
X50022255Y-88900191D01*
X50031842Y-88896433D01*
X50223095Y-88802739D01*
X50231945Y-88797464D01*
X50405328Y-88673792D01*
X50413200Y-88667139D01*
X50564052Y-88516812D01*
X50570730Y-88508965D01*
X50698022Y-88331819D01*
X50699147Y-88332627D01*
X50746669Y-88288876D01*
X50816607Y-88276661D01*
X50882046Y-88304197D01*
X50909870Y-88336028D01*
X50967690Y-88430383D01*
X50973777Y-88438699D01*
X51113213Y-88599667D01*
X51120580Y-88606883D01*
X51284434Y-88742916D01*
X51292881Y-88748831D01*
X51476756Y-88856279D01*
X51486042Y-88860729D01*
X51685001Y-88936703D01*
X51694899Y-88939579D01*
X51798250Y-88960606D01*
X51812299Y-88959410D01*
X51816000Y-88949065D01*
X51816000Y-87902115D01*
X51811525Y-87886876D01*
X51810135Y-87885671D01*
X51802452Y-87884000D01*
X49802115Y-87884000D01*
X49786876Y-87888475D01*
X49785671Y-87889865D01*
X49784000Y-87897548D01*
X49784000Y-88948517D01*
X49276000Y-88948517D01*
X49276000Y-87902115D01*
X49271525Y-87886876D01*
X49270135Y-87885671D01*
X49262452Y-87884000D01*
X47262115Y-87884000D01*
X47246876Y-87888475D01*
X47245671Y-87889865D01*
X47244000Y-87897548D01*
X47244000Y-88948517D01*
X46736000Y-88948517D01*
X46736000Y-87902115D01*
X46731525Y-87886876D01*
X46730135Y-87885671D01*
X46722452Y-87884000D01*
X44722115Y-87884000D01*
X44706876Y-87888475D01*
X44705671Y-87889865D01*
X44704000Y-87897548D01*
X44704000Y-88948517D01*
X44196000Y-88948517D01*
X44196000Y-87902115D01*
X44191525Y-87886876D01*
X44190135Y-87885671D01*
X44182452Y-87884000D01*
X42182115Y-87884000D01*
X42166876Y-87888475D01*
X42165671Y-87889865D01*
X42164000Y-87897548D01*
X42164000Y-88969884D01*
X41656000Y-88969884D01*
X41656000Y-87902115D01*
X41651525Y-87886876D01*
X41650135Y-87885671D01*
X41642452Y-87884000D01*
X40570116Y-87884000D01*
X40554877Y-87888475D01*
X40553672Y-87889865D01*
X40552001Y-87897548D01*
X40552001Y-88524669D01*
X38100000Y-88524669D01*
X38100000Y-87357885D01*
X40552000Y-87357885D01*
X40556475Y-87373124D01*
X40557865Y-87374329D01*
X40565548Y-87376000D01*
X41637885Y-87376000D01*
X41653124Y-87371525D01*
X41654329Y-87370135D01*
X41656000Y-87362452D01*
X41656000Y-87357885D01*
X42164000Y-87357885D01*
X42168475Y-87373124D01*
X42169865Y-87374329D01*
X42177548Y-87376000D01*
X44177885Y-87376000D01*
X44193124Y-87371525D01*
X44194329Y-87370135D01*
X44196000Y-87362452D01*
X44196000Y-87357885D01*
X44704000Y-87357885D01*
X44708475Y-87373124D01*
X44709865Y-87374329D01*
X44717548Y-87376000D01*
X46717885Y-87376000D01*
X46733124Y-87371525D01*
X46734329Y-87370135D01*
X46736000Y-87362452D01*
X46736000Y-87357885D01*
X47244000Y-87357885D01*
X47248475Y-87373124D01*
X47249865Y-87374329D01*
X47257548Y-87376000D01*
X49257885Y-87376000D01*
X49273124Y-87371525D01*
X49274329Y-87370135D01*
X49276000Y-87362452D01*
X49276000Y-87357885D01*
X49784000Y-87357885D01*
X49788475Y-87373124D01*
X49789865Y-87374329D01*
X49797548Y-87376000D01*
X51797885Y-87376000D01*
X51813124Y-87371525D01*
X51814329Y-87370135D01*
X51816000Y-87362452D01*
X51816000Y-86313102D01*
X51812082Y-86299758D01*
X51797806Y-86297771D01*
X51759324Y-86303660D01*
X51749288Y-86306051D01*
X51546868Y-86372212D01*
X51537359Y-86376209D01*
X51348463Y-86474542D01*
X51339738Y-86480036D01*
X51169433Y-86607905D01*
X51161726Y-86614748D01*
X51014590Y-86768717D01*
X51008104Y-86776727D01*
X50903193Y-86930521D01*
X50848282Y-86975524D01*
X50777757Y-86983695D01*
X50714010Y-86952441D01*
X50693313Y-86927957D01*
X50612427Y-86802926D01*
X50606136Y-86794757D01*
X50462806Y-86637240D01*
X50455273Y-86630215D01*
X50288139Y-86498222D01*
X50279552Y-86492517D01*
X50093117Y-86389599D01*
X50083705Y-86385369D01*
X49882959Y-86314280D01*
X49872988Y-86311646D01*
X49801837Y-86298972D01*
X49788540Y-86300432D01*
X49784000Y-86314989D01*
X49784000Y-87357885D01*
X49276000Y-87357885D01*
X49276000Y-86313102D01*
X49272082Y-86299758D01*
X49257806Y-86297771D01*
X49219324Y-86303660D01*
X49209288Y-86306051D01*
X49006868Y-86372212D01*
X48997359Y-86376209D01*
X48808463Y-86474542D01*
X48799738Y-86480036D01*
X48629433Y-86607905D01*
X48621726Y-86614748D01*
X48474590Y-86768717D01*
X48468104Y-86776727D01*
X48363193Y-86930521D01*
X48308282Y-86975524D01*
X48237757Y-86983695D01*
X48174010Y-86952441D01*
X48153313Y-86927957D01*
X48072427Y-86802926D01*
X48066136Y-86794757D01*
X47922806Y-86637240D01*
X47915273Y-86630215D01*
X47748139Y-86498222D01*
X47739552Y-86492517D01*
X47553117Y-86389599D01*
X47543705Y-86385369D01*
X47342959Y-86314280D01*
X47332988Y-86311646D01*
X47261837Y-86298972D01*
X47248540Y-86300432D01*
X47244000Y-86314989D01*
X47244000Y-87357885D01*
X46736000Y-87357885D01*
X46736000Y-86313102D01*
X46732082Y-86299758D01*
X46717806Y-86297771D01*
X46679324Y-86303660D01*
X46669288Y-86306051D01*
X46466868Y-86372212D01*
X46457359Y-86376209D01*
X46268463Y-86474542D01*
X46259738Y-86480036D01*
X46089433Y-86607905D01*
X46081726Y-86614748D01*
X45934590Y-86768717D01*
X45928104Y-86776727D01*
X45823193Y-86930521D01*
X45768282Y-86975524D01*
X45697757Y-86983695D01*
X45634010Y-86952441D01*
X45613313Y-86927957D01*
X45532427Y-86802926D01*
X45526136Y-86794757D01*
X45382806Y-86637240D01*
X45375273Y-86630215D01*
X45208139Y-86498222D01*
X45199552Y-86492517D01*
X45013117Y-86389599D01*
X45003705Y-86385369D01*
X44802959Y-86314280D01*
X44792988Y-86311646D01*
X44721837Y-86298972D01*
X44708540Y-86300432D01*
X44704000Y-86314989D01*
X44704000Y-87357885D01*
X44196000Y-87357885D01*
X44196000Y-86313102D01*
X44192082Y-86299758D01*
X44177806Y-86297771D01*
X44139324Y-86303660D01*
X44129288Y-86306051D01*
X43926868Y-86372212D01*
X43917359Y-86376209D01*
X43728463Y-86474542D01*
X43719738Y-86480036D01*
X43549433Y-86607905D01*
X43541726Y-86614748D01*
X43464094Y-86695985D01*
X43402570Y-86731415D01*
X43331657Y-86727958D01*
X43273871Y-86686712D01*
X43255018Y-86653164D01*
X43213324Y-86541946D01*
X43204786Y-86526351D01*
X43128285Y-86424276D01*
X43115724Y-86411715D01*
X43013649Y-86335214D01*
X42998054Y-86326676D01*
X42877606Y-86281522D01*
X42862351Y-86277895D01*
X42811486Y-86272369D01*
X42804672Y-86272000D01*
X42182115Y-86272000D01*
X42166876Y-86276475D01*
X42165671Y-86277865D01*
X42164000Y-86285548D01*
X42164000Y-87357885D01*
X41656000Y-87357885D01*
X41656000Y-86290116D01*
X41651525Y-86274877D01*
X41650135Y-86273672D01*
X41642452Y-86272001D01*
X41015331Y-86272001D01*
X41008510Y-86272371D01*
X40957648Y-86277895D01*
X40942396Y-86281521D01*
X40821946Y-86326676D01*
X40806351Y-86335214D01*
X40704276Y-86411715D01*
X40691715Y-86424276D01*
X40615214Y-86526351D01*
X40606676Y-86541946D01*
X40561522Y-86662394D01*
X40557895Y-86677649D01*
X40552369Y-86728514D01*
X40552000Y-86735328D01*
X40552000Y-87357885D01*
X38100000Y-87357885D01*
X38100000Y-57203046D01*
X53872631Y-57203046D01*
X53888015Y-57469855D01*
X53889088Y-57478354D01*
X53940542Y-57740613D01*
X53942753Y-57748865D01*
X54029324Y-58001720D01*
X54032639Y-58009605D01*
X54152723Y-58248366D01*
X54157079Y-58255732D01*
X54288560Y-58447037D01*
X54298814Y-58455381D01*
X54312555Y-58448235D01*
X55527978Y-57232812D01*
X55534356Y-57221132D01*
X56264408Y-57221132D01*
X56264539Y-57222965D01*
X56268790Y-57229580D01*
X57486460Y-58447250D01*
X57498670Y-58453917D01*
X57510169Y-58445228D01*
X57609529Y-58309965D01*
X57614113Y-58302742D01*
X57741633Y-58067880D01*
X57745201Y-58060086D01*
X57839665Y-57810096D01*
X57842142Y-57801890D01*
X57901804Y-57541390D01*
X57903144Y-57532930D01*
X57927062Y-57264931D01*
X57927308Y-57259992D01*
X57927701Y-57222484D01*
X57927558Y-57217520D01*
X57909258Y-56949083D01*
X57908097Y-56940609D01*
X57853900Y-56678901D01*
X57851601Y-56670666D01*
X57762387Y-56418733D01*
X57758990Y-56410883D01*
X57636410Y-56173390D01*
X57631982Y-56166078D01*
X57510798Y-55993650D01*
X57500276Y-55985270D01*
X57486888Y-55992322D01*
X56272022Y-57207188D01*
X56264408Y-57221132D01*
X55534356Y-57221132D01*
X55535592Y-57218868D01*
X55535461Y-57217035D01*
X55531210Y-57210420D01*
X54313066Y-55992276D01*
X54301056Y-55985717D01*
X54289317Y-55994685D01*
X54179158Y-56147988D01*
X54174636Y-56155282D01*
X54049590Y-56391452D01*
X54046104Y-56399280D01*
X53954262Y-56650251D01*
X53951873Y-56658474D01*
X53894939Y-56919597D01*
X53893690Y-56928053D01*
X53872720Y-57194496D01*
X53872631Y-57203046D01*
X38100000Y-57203046D01*
X38100000Y-55621829D01*
X54665913Y-55621829D01*
X54672309Y-55633099D01*
X55887188Y-56847978D01*
X55901132Y-56855592D01*
X55902965Y-56855461D01*
X55909580Y-56851210D01*
X57127263Y-55633527D01*
X57134455Y-55620357D01*
X57127133Y-55610122D01*
X57077941Y-55569858D01*
X57070972Y-55564905D01*
X56843088Y-55425258D01*
X56835518Y-55421300D01*
X56590797Y-55313876D01*
X56582737Y-55310974D01*
X56325716Y-55237760D01*
X56317341Y-55235980D01*
X56052759Y-55198324D01*
X56044211Y-55197696D01*
X55776964Y-55196296D01*
X55768431Y-55196833D01*
X55503462Y-55231718D01*
X55495061Y-55233412D01*
X55237293Y-55303929D01*
X55229198Y-55306748D01*
X54983373Y-55411601D01*
X54975751Y-55415485D01*
X54746433Y-55552729D01*
X54739401Y-55557616D01*
X54674382Y-55609706D01*
X54665913Y-55621829D01*
X38100000Y-55621829D01*
X38100000Y-49656000D01*
X38120002Y-49587879D01*
X38173658Y-49541386D01*
X38226000Y-49530000D01*
X102744000Y-49530000D01*
X102812121Y-49550002D01*
G37*
%TD.AperFunction*%
%TD*%
M02*
