%TF.GenerationSoftware,KiCad,Pcbnew,(6.0.6)*%
%TF.CreationDate,2022-07-29T18:16:28+02:00*%
%TF.ProjectId,csr,6373722e-6b69-4636-9164-5f7063625858,rev?*%
%TF.SameCoordinates,Original*%
%TF.FileFunction,Legend,Top*%
%TF.FilePolarity,Positive*%
%FSLAX46Y46*%
G04 Gerber Fmt 4.6, Leading zero omitted, Abs format (unit mm)*
G04 Created by KiCad (PCBNEW (6.0.6)) date 2022-07-29 18:16:28*
%MOMM*%
%LPD*%
G01*
G04 APERTURE LIST*
%ADD10C,0.150000*%
%ADD11C,0.120000*%
G04 APERTURE END LIST*
D10*
%TO.C,U22*%
X127678380Y-301720095D02*
X128487904Y-301720095D01*
X128583142Y-301672476D01*
X128630761Y-301624857D01*
X128678380Y-301529619D01*
X128678380Y-301339142D01*
X128630761Y-301243904D01*
X128583142Y-301196285D01*
X128487904Y-301148666D01*
X127678380Y-301148666D01*
X127773619Y-300720095D02*
X127726000Y-300672476D01*
X127678380Y-300577238D01*
X127678380Y-300339142D01*
X127726000Y-300243904D01*
X127773619Y-300196285D01*
X127868857Y-300148666D01*
X127964095Y-300148666D01*
X128106952Y-300196285D01*
X128678380Y-300767714D01*
X128678380Y-300148666D01*
X127773619Y-299767714D02*
X127726000Y-299720095D01*
X127678380Y-299624857D01*
X127678380Y-299386761D01*
X127726000Y-299291523D01*
X127773619Y-299243904D01*
X127868857Y-299196285D01*
X127964095Y-299196285D01*
X128106952Y-299243904D01*
X128678380Y-299815333D01*
X128678380Y-299196285D01*
%TO.C,U21*%
X100246380Y-301720095D02*
X101055904Y-301720095D01*
X101151142Y-301672476D01*
X101198761Y-301624857D01*
X101246380Y-301529619D01*
X101246380Y-301339142D01*
X101198761Y-301243904D01*
X101151142Y-301196285D01*
X101055904Y-301148666D01*
X100246380Y-301148666D01*
X100341619Y-300720095D02*
X100294000Y-300672476D01*
X100246380Y-300577238D01*
X100246380Y-300339142D01*
X100294000Y-300243904D01*
X100341619Y-300196285D01*
X100436857Y-300148666D01*
X100532095Y-300148666D01*
X100674952Y-300196285D01*
X101246380Y-300767714D01*
X101246380Y-300148666D01*
X101246380Y-299196285D02*
X101246380Y-299767714D01*
X101246380Y-299482000D02*
X100246380Y-299482000D01*
X100389238Y-299577238D01*
X100484476Y-299672476D01*
X100532095Y-299767714D01*
%TO.C,U20*%
X72814380Y-301720095D02*
X73623904Y-301720095D01*
X73719142Y-301672476D01*
X73766761Y-301624857D01*
X73814380Y-301529619D01*
X73814380Y-301339142D01*
X73766761Y-301243904D01*
X73719142Y-301196285D01*
X73623904Y-301148666D01*
X72814380Y-301148666D01*
X72909619Y-300720095D02*
X72862000Y-300672476D01*
X72814380Y-300577238D01*
X72814380Y-300339142D01*
X72862000Y-300243904D01*
X72909619Y-300196285D01*
X73004857Y-300148666D01*
X73100095Y-300148666D01*
X73242952Y-300196285D01*
X73814380Y-300767714D01*
X73814380Y-300148666D01*
X72814380Y-299529619D02*
X72814380Y-299434380D01*
X72862000Y-299339142D01*
X72909619Y-299291523D01*
X73004857Y-299243904D01*
X73195333Y-299196285D01*
X73433428Y-299196285D01*
X73623904Y-299243904D01*
X73719142Y-299291523D01*
X73766761Y-299339142D01*
X73814380Y-299434380D01*
X73814380Y-299529619D01*
X73766761Y-299624857D01*
X73719142Y-299672476D01*
X73623904Y-299720095D01*
X73433428Y-299767714D01*
X73195333Y-299767714D01*
X73004857Y-299720095D01*
X72909619Y-299672476D01*
X72862000Y-299624857D01*
X72814380Y-299529619D01*
%TO.C,U19*%
X45382380Y-301847095D02*
X46191904Y-301847095D01*
X46287142Y-301799476D01*
X46334761Y-301751857D01*
X46382380Y-301656619D01*
X46382380Y-301466142D01*
X46334761Y-301370904D01*
X46287142Y-301323285D01*
X46191904Y-301275666D01*
X45382380Y-301275666D01*
X46382380Y-300275666D02*
X46382380Y-300847095D01*
X46382380Y-300561380D02*
X45382380Y-300561380D01*
X45525238Y-300656619D01*
X45620476Y-300751857D01*
X45668095Y-300847095D01*
X46382380Y-299799476D02*
X46382380Y-299609000D01*
X46334761Y-299513761D01*
X46287142Y-299466142D01*
X46144285Y-299370904D01*
X45953809Y-299323285D01*
X45572857Y-299323285D01*
X45477619Y-299370904D01*
X45430000Y-299418523D01*
X45382380Y-299513761D01*
X45382380Y-299704238D01*
X45430000Y-299799476D01*
X45477619Y-299847095D01*
X45572857Y-299894714D01*
X45810952Y-299894714D01*
X45906190Y-299847095D01*
X45953809Y-299799476D01*
X46001428Y-299704238D01*
X46001428Y-299513761D01*
X45953809Y-299418523D01*
X45906190Y-299370904D01*
X45810952Y-299323285D01*
%TO.C,U18*%
X155198380Y-318230095D02*
X156007904Y-318230095D01*
X156103142Y-318182476D01*
X156150761Y-318134857D01*
X156198380Y-318039619D01*
X156198380Y-317849142D01*
X156150761Y-317753904D01*
X156103142Y-317706285D01*
X156007904Y-317658666D01*
X155198380Y-317658666D01*
X156198380Y-316658666D02*
X156198380Y-317230095D01*
X156198380Y-316944380D02*
X155198380Y-316944380D01*
X155341238Y-317039619D01*
X155436476Y-317134857D01*
X155484095Y-317230095D01*
X155626952Y-316087238D02*
X155579333Y-316182476D01*
X155531714Y-316230095D01*
X155436476Y-316277714D01*
X155388857Y-316277714D01*
X155293619Y-316230095D01*
X155246000Y-316182476D01*
X155198380Y-316087238D01*
X155198380Y-315896761D01*
X155246000Y-315801523D01*
X155293619Y-315753904D01*
X155388857Y-315706285D01*
X155436476Y-315706285D01*
X155531714Y-315753904D01*
X155579333Y-315801523D01*
X155626952Y-315896761D01*
X155626952Y-316087238D01*
X155674571Y-316182476D01*
X155722190Y-316230095D01*
X155817428Y-316277714D01*
X156007904Y-316277714D01*
X156103142Y-316230095D01*
X156150761Y-316182476D01*
X156198380Y-316087238D01*
X156198380Y-315896761D01*
X156150761Y-315801523D01*
X156103142Y-315753904D01*
X156007904Y-315706285D01*
X155817428Y-315706285D01*
X155722190Y-315753904D01*
X155674571Y-315801523D01*
X155626952Y-315896761D01*
%TO.C,U17*%
X127766380Y-318230095D02*
X128575904Y-318230095D01*
X128671142Y-318182476D01*
X128718761Y-318134857D01*
X128766380Y-318039619D01*
X128766380Y-317849142D01*
X128718761Y-317753904D01*
X128671142Y-317706285D01*
X128575904Y-317658666D01*
X127766380Y-317658666D01*
X128766380Y-316658666D02*
X128766380Y-317230095D01*
X128766380Y-316944380D02*
X127766380Y-316944380D01*
X127909238Y-317039619D01*
X128004476Y-317134857D01*
X128052095Y-317230095D01*
X127766380Y-316325333D02*
X127766380Y-315658666D01*
X128766380Y-316087238D01*
%TO.C,U16*%
X100334380Y-318230095D02*
X101143904Y-318230095D01*
X101239142Y-318182476D01*
X101286761Y-318134857D01*
X101334380Y-318039619D01*
X101334380Y-317849142D01*
X101286761Y-317753904D01*
X101239142Y-317706285D01*
X101143904Y-317658666D01*
X100334380Y-317658666D01*
X101334380Y-316658666D02*
X101334380Y-317230095D01*
X101334380Y-316944380D02*
X100334380Y-316944380D01*
X100477238Y-317039619D01*
X100572476Y-317134857D01*
X100620095Y-317230095D01*
X100334380Y-315801523D02*
X100334380Y-315992000D01*
X100382000Y-316087238D01*
X100429619Y-316134857D01*
X100572476Y-316230095D01*
X100762952Y-316277714D01*
X101143904Y-316277714D01*
X101239142Y-316230095D01*
X101286761Y-316182476D01*
X101334380Y-316087238D01*
X101334380Y-315896761D01*
X101286761Y-315801523D01*
X101239142Y-315753904D01*
X101143904Y-315706285D01*
X100905809Y-315706285D01*
X100810571Y-315753904D01*
X100762952Y-315801523D01*
X100715333Y-315896761D01*
X100715333Y-316087238D01*
X100762952Y-316182476D01*
X100810571Y-316230095D01*
X100905809Y-316277714D01*
%TO.C,U15*%
X155198380Y-330930095D02*
X156007904Y-330930095D01*
X156103142Y-330882476D01*
X156150761Y-330834857D01*
X156198380Y-330739619D01*
X156198380Y-330549142D01*
X156150761Y-330453904D01*
X156103142Y-330406285D01*
X156007904Y-330358666D01*
X155198380Y-330358666D01*
X156198380Y-329358666D02*
X156198380Y-329930095D01*
X156198380Y-329644380D02*
X155198380Y-329644380D01*
X155341238Y-329739619D01*
X155436476Y-329834857D01*
X155484095Y-329930095D01*
X155198380Y-328453904D02*
X155198380Y-328930095D01*
X155674571Y-328977714D01*
X155626952Y-328930095D01*
X155579333Y-328834857D01*
X155579333Y-328596761D01*
X155626952Y-328501523D01*
X155674571Y-328453904D01*
X155769809Y-328406285D01*
X156007904Y-328406285D01*
X156103142Y-328453904D01*
X156150761Y-328501523D01*
X156198380Y-328596761D01*
X156198380Y-328834857D01*
X156150761Y-328930095D01*
X156103142Y-328977714D01*
%TO.C,U14*%
X127766380Y-330930095D02*
X128575904Y-330930095D01*
X128671142Y-330882476D01*
X128718761Y-330834857D01*
X128766380Y-330739619D01*
X128766380Y-330549142D01*
X128718761Y-330453904D01*
X128671142Y-330406285D01*
X128575904Y-330358666D01*
X127766380Y-330358666D01*
X128766380Y-329358666D02*
X128766380Y-329930095D01*
X128766380Y-329644380D02*
X127766380Y-329644380D01*
X127909238Y-329739619D01*
X128004476Y-329834857D01*
X128052095Y-329930095D01*
X128099714Y-328501523D02*
X128766380Y-328501523D01*
X127718761Y-328739619D02*
X128433047Y-328977714D01*
X128433047Y-328358666D01*
%TO.C,U13*%
X100334380Y-330930095D02*
X101143904Y-330930095D01*
X101239142Y-330882476D01*
X101286761Y-330834857D01*
X101334380Y-330739619D01*
X101334380Y-330549142D01*
X101286761Y-330453904D01*
X101239142Y-330406285D01*
X101143904Y-330358666D01*
X100334380Y-330358666D01*
X101334380Y-329358666D02*
X101334380Y-329930095D01*
X101334380Y-329644380D02*
X100334380Y-329644380D01*
X100477238Y-329739619D01*
X100572476Y-329834857D01*
X100620095Y-329930095D01*
X100334380Y-329025333D02*
X100334380Y-328406285D01*
X100715333Y-328739619D01*
X100715333Y-328596761D01*
X100762952Y-328501523D01*
X100810571Y-328453904D01*
X100905809Y-328406285D01*
X101143904Y-328406285D01*
X101239142Y-328453904D01*
X101286761Y-328501523D01*
X101334380Y-328596761D01*
X101334380Y-328882476D01*
X101286761Y-328977714D01*
X101239142Y-329025333D01*
%TO.C,U12*%
X127678380Y-343630095D02*
X128487904Y-343630095D01*
X128583142Y-343582476D01*
X128630761Y-343534857D01*
X128678380Y-343439619D01*
X128678380Y-343249142D01*
X128630761Y-343153904D01*
X128583142Y-343106285D01*
X128487904Y-343058666D01*
X127678380Y-343058666D01*
X128678380Y-342058666D02*
X128678380Y-342630095D01*
X128678380Y-342344380D02*
X127678380Y-342344380D01*
X127821238Y-342439619D01*
X127916476Y-342534857D01*
X127964095Y-342630095D01*
X127773619Y-341677714D02*
X127726000Y-341630095D01*
X127678380Y-341534857D01*
X127678380Y-341296761D01*
X127726000Y-341201523D01*
X127773619Y-341153904D01*
X127868857Y-341106285D01*
X127964095Y-341106285D01*
X128106952Y-341153904D01*
X128678380Y-341725333D01*
X128678380Y-341106285D01*
%TO.C,U11*%
X100246380Y-343630095D02*
X101055904Y-343630095D01*
X101151142Y-343582476D01*
X101198761Y-343534857D01*
X101246380Y-343439619D01*
X101246380Y-343249142D01*
X101198761Y-343153904D01*
X101151142Y-343106285D01*
X101055904Y-343058666D01*
X100246380Y-343058666D01*
X101246380Y-342058666D02*
X101246380Y-342630095D01*
X101246380Y-342344380D02*
X100246380Y-342344380D01*
X100389238Y-342439619D01*
X100484476Y-342534857D01*
X100532095Y-342630095D01*
X101246380Y-341106285D02*
X101246380Y-341677714D01*
X101246380Y-341392000D02*
X100246380Y-341392000D01*
X100389238Y-341487238D01*
X100484476Y-341582476D01*
X100532095Y-341677714D01*
%TO.C,U10*%
X72814380Y-343630095D02*
X73623904Y-343630095D01*
X73719142Y-343582476D01*
X73766761Y-343534857D01*
X73814380Y-343439619D01*
X73814380Y-343249142D01*
X73766761Y-343153904D01*
X73719142Y-343106285D01*
X73623904Y-343058666D01*
X72814380Y-343058666D01*
X73814380Y-342058666D02*
X73814380Y-342630095D01*
X73814380Y-342344380D02*
X72814380Y-342344380D01*
X72957238Y-342439619D01*
X73052476Y-342534857D01*
X73100095Y-342630095D01*
X72814380Y-341439619D02*
X72814380Y-341344380D01*
X72862000Y-341249142D01*
X72909619Y-341201523D01*
X73004857Y-341153904D01*
X73195333Y-341106285D01*
X73433428Y-341106285D01*
X73623904Y-341153904D01*
X73719142Y-341201523D01*
X73766761Y-341249142D01*
X73814380Y-341344380D01*
X73814380Y-341439619D01*
X73766761Y-341534857D01*
X73719142Y-341582476D01*
X73623904Y-341630095D01*
X73433428Y-341677714D01*
X73195333Y-341677714D01*
X73004857Y-341630095D01*
X72909619Y-341582476D01*
X72862000Y-341534857D01*
X72814380Y-341439619D01*
%TO.C,U9*%
X45382380Y-343026904D02*
X46191904Y-343026904D01*
X46287142Y-342979285D01*
X46334761Y-342931666D01*
X46382380Y-342836428D01*
X46382380Y-342645952D01*
X46334761Y-342550714D01*
X46287142Y-342503095D01*
X46191904Y-342455476D01*
X45382380Y-342455476D01*
X46382380Y-341931666D02*
X46382380Y-341741190D01*
X46334761Y-341645952D01*
X46287142Y-341598333D01*
X46144285Y-341503095D01*
X45953809Y-341455476D01*
X45572857Y-341455476D01*
X45477619Y-341503095D01*
X45430000Y-341550714D01*
X45382380Y-341645952D01*
X45382380Y-341836428D01*
X45430000Y-341931666D01*
X45477619Y-341979285D01*
X45572857Y-342026904D01*
X45810952Y-342026904D01*
X45906190Y-341979285D01*
X45953809Y-341931666D01*
X46001428Y-341836428D01*
X46001428Y-341645952D01*
X45953809Y-341550714D01*
X45906190Y-341503095D01*
X45810952Y-341455476D01*
%TO.C,U8*%
X127678380Y-355853904D02*
X128487904Y-355853904D01*
X128583142Y-355806285D01*
X128630761Y-355758666D01*
X128678380Y-355663428D01*
X128678380Y-355472952D01*
X128630761Y-355377714D01*
X128583142Y-355330095D01*
X128487904Y-355282476D01*
X127678380Y-355282476D01*
X128106952Y-354663428D02*
X128059333Y-354758666D01*
X128011714Y-354806285D01*
X127916476Y-354853904D01*
X127868857Y-354853904D01*
X127773619Y-354806285D01*
X127726000Y-354758666D01*
X127678380Y-354663428D01*
X127678380Y-354472952D01*
X127726000Y-354377714D01*
X127773619Y-354330095D01*
X127868857Y-354282476D01*
X127916476Y-354282476D01*
X128011714Y-354330095D01*
X128059333Y-354377714D01*
X128106952Y-354472952D01*
X128106952Y-354663428D01*
X128154571Y-354758666D01*
X128202190Y-354806285D01*
X128297428Y-354853904D01*
X128487904Y-354853904D01*
X128583142Y-354806285D01*
X128630761Y-354758666D01*
X128678380Y-354663428D01*
X128678380Y-354472952D01*
X128630761Y-354377714D01*
X128583142Y-354330095D01*
X128487904Y-354282476D01*
X128297428Y-354282476D01*
X128202190Y-354330095D01*
X128154571Y-354377714D01*
X128106952Y-354472952D01*
%TO.C,U7*%
X100246380Y-355853904D02*
X101055904Y-355853904D01*
X101151142Y-355806285D01*
X101198761Y-355758666D01*
X101246380Y-355663428D01*
X101246380Y-355472952D01*
X101198761Y-355377714D01*
X101151142Y-355330095D01*
X101055904Y-355282476D01*
X100246380Y-355282476D01*
X100246380Y-354901523D02*
X100246380Y-354234857D01*
X101246380Y-354663428D01*
%TO.C,U6*%
X72814380Y-355853904D02*
X73623904Y-355853904D01*
X73719142Y-355806285D01*
X73766761Y-355758666D01*
X73814380Y-355663428D01*
X73814380Y-355472952D01*
X73766761Y-355377714D01*
X73719142Y-355330095D01*
X73623904Y-355282476D01*
X72814380Y-355282476D01*
X72814380Y-354377714D02*
X72814380Y-354568190D01*
X72862000Y-354663428D01*
X72909619Y-354711047D01*
X73052476Y-354806285D01*
X73242952Y-354853904D01*
X73623904Y-354853904D01*
X73719142Y-354806285D01*
X73766761Y-354758666D01*
X73814380Y-354663428D01*
X73814380Y-354472952D01*
X73766761Y-354377714D01*
X73719142Y-354330095D01*
X73623904Y-354282476D01*
X73385809Y-354282476D01*
X73290571Y-354330095D01*
X73242952Y-354377714D01*
X73195333Y-354472952D01*
X73195333Y-354663428D01*
X73242952Y-354758666D01*
X73290571Y-354806285D01*
X73385809Y-354853904D01*
%TO.C,U5*%
X45382380Y-355726904D02*
X46191904Y-355726904D01*
X46287142Y-355679285D01*
X46334761Y-355631666D01*
X46382380Y-355536428D01*
X46382380Y-355345952D01*
X46334761Y-355250714D01*
X46287142Y-355203095D01*
X46191904Y-355155476D01*
X45382380Y-355155476D01*
X45382380Y-354203095D02*
X45382380Y-354679285D01*
X45858571Y-354726904D01*
X45810952Y-354679285D01*
X45763333Y-354584047D01*
X45763333Y-354345952D01*
X45810952Y-354250714D01*
X45858571Y-354203095D01*
X45953809Y-354155476D01*
X46191904Y-354155476D01*
X46287142Y-354203095D01*
X46334761Y-354250714D01*
X46382380Y-354345952D01*
X46382380Y-354584047D01*
X46334761Y-354679285D01*
X46287142Y-354726904D01*
%TO.C,J8*%
X51732380Y-364569333D02*
X52446666Y-364569333D01*
X52589523Y-364616952D01*
X52684761Y-364712190D01*
X52732380Y-364855047D01*
X52732380Y-364950285D01*
X52160952Y-363950285D02*
X52113333Y-364045523D01*
X52065714Y-364093142D01*
X51970476Y-364140761D01*
X51922857Y-364140761D01*
X51827619Y-364093142D01*
X51780000Y-364045523D01*
X51732380Y-363950285D01*
X51732380Y-363759809D01*
X51780000Y-363664571D01*
X51827619Y-363616952D01*
X51922857Y-363569333D01*
X51970476Y-363569333D01*
X52065714Y-363616952D01*
X52113333Y-363664571D01*
X52160952Y-363759809D01*
X52160952Y-363950285D01*
X52208571Y-364045523D01*
X52256190Y-364093142D01*
X52351428Y-364140761D01*
X52541904Y-364140761D01*
X52637142Y-364093142D01*
X52684761Y-364045523D01*
X52732380Y-363950285D01*
X52732380Y-363759809D01*
X52684761Y-363664571D01*
X52637142Y-363616952D01*
X52541904Y-363569333D01*
X52351428Y-363569333D01*
X52256190Y-363616952D01*
X52208571Y-363664571D01*
X52160952Y-363759809D01*
%TO.C,J7*%
X51732380Y-369649333D02*
X52446666Y-369649333D01*
X52589523Y-369696952D01*
X52684761Y-369792190D01*
X52732380Y-369935047D01*
X52732380Y-370030285D01*
X51732380Y-369268380D02*
X51732380Y-368601714D01*
X52732380Y-369030285D01*
%TO.C,J6*%
X125392380Y-308943333D02*
X126106666Y-308943333D01*
X126249523Y-308990952D01*
X126344761Y-309086190D01*
X126392380Y-309229047D01*
X126392380Y-309324285D01*
X125392380Y-308038571D02*
X125392380Y-308229047D01*
X125440000Y-308324285D01*
X125487619Y-308371904D01*
X125630476Y-308467142D01*
X125820952Y-308514761D01*
X126201904Y-308514761D01*
X126297142Y-308467142D01*
X126344761Y-308419523D01*
X126392380Y-308324285D01*
X126392380Y-308133809D01*
X126344761Y-308038571D01*
X126297142Y-307990952D01*
X126201904Y-307943333D01*
X125963809Y-307943333D01*
X125868571Y-307990952D01*
X125820952Y-308038571D01*
X125773333Y-308133809D01*
X125773333Y-308324285D01*
X125820952Y-308419523D01*
X125868571Y-308467142D01*
X125963809Y-308514761D01*
%TO.C,J5*%
X97452380Y-308943333D02*
X98166666Y-308943333D01*
X98309523Y-308990952D01*
X98404761Y-309086190D01*
X98452380Y-309229047D01*
X98452380Y-309324285D01*
X97452380Y-307990952D02*
X97452380Y-308467142D01*
X97928571Y-308514761D01*
X97880952Y-308467142D01*
X97833333Y-308371904D01*
X97833333Y-308133809D01*
X97880952Y-308038571D01*
X97928571Y-307990952D01*
X98023809Y-307943333D01*
X98261904Y-307943333D01*
X98357142Y-307990952D01*
X98404761Y-308038571D01*
X98452380Y-308133809D01*
X98452380Y-308371904D01*
X98404761Y-308467142D01*
X98357142Y-308514761D01*
%TO.C,J4*%
X69512380Y-308943333D02*
X70226666Y-308943333D01*
X70369523Y-308990952D01*
X70464761Y-309086190D01*
X70512380Y-309229047D01*
X70512380Y-309324285D01*
X69845714Y-308038571D02*
X70512380Y-308038571D01*
X69464761Y-308276666D02*
X70179047Y-308514761D01*
X70179047Y-307895714D01*
%TO.C,J3*%
X41572380Y-308943333D02*
X42286666Y-308943333D01*
X42429523Y-308990952D01*
X42524761Y-309086190D01*
X42572380Y-309229047D01*
X42572380Y-309324285D01*
X41572380Y-308562380D02*
X41572380Y-307943333D01*
X41953333Y-308276666D01*
X41953333Y-308133809D01*
X42000952Y-308038571D01*
X42048571Y-307990952D01*
X42143809Y-307943333D01*
X42381904Y-307943333D01*
X42477142Y-307990952D01*
X42524761Y-308038571D01*
X42572380Y-308133809D01*
X42572380Y-308419523D01*
X42524761Y-308514761D01*
X42477142Y-308562380D01*
%TO.C,U4*%
X176601380Y-339597904D02*
X177410904Y-339597904D01*
X177506142Y-339550285D01*
X177553761Y-339502666D01*
X177601380Y-339407428D01*
X177601380Y-339216952D01*
X177553761Y-339121714D01*
X177506142Y-339074095D01*
X177410904Y-339026476D01*
X176601380Y-339026476D01*
X176934714Y-338121714D02*
X177601380Y-338121714D01*
X176553761Y-338359809D02*
X177268047Y-338597904D01*
X177268047Y-337978857D01*
%TO.C,RN1*%
X162491380Y-322747476D02*
X162015190Y-323080809D01*
X162491380Y-323318904D02*
X161491380Y-323318904D01*
X161491380Y-322937952D01*
X161539000Y-322842714D01*
X161586619Y-322795095D01*
X161681857Y-322747476D01*
X161824714Y-322747476D01*
X161919952Y-322795095D01*
X161967571Y-322842714D01*
X162015190Y-322937952D01*
X162015190Y-323318904D01*
X162491380Y-322318904D02*
X161491380Y-322318904D01*
X162491380Y-321747476D01*
X161491380Y-321747476D01*
X162491380Y-320747476D02*
X162491380Y-321318904D01*
X162491380Y-321033190D02*
X161491380Y-321033190D01*
X161634238Y-321128428D01*
X161729476Y-321223666D01*
X161777095Y-321318904D01*
%TO.C,SW1*%
X186406761Y-320865333D02*
X186454380Y-320722476D01*
X186454380Y-320484380D01*
X186406761Y-320389142D01*
X186359142Y-320341523D01*
X186263904Y-320293904D01*
X186168666Y-320293904D01*
X186073428Y-320341523D01*
X186025809Y-320389142D01*
X185978190Y-320484380D01*
X185930571Y-320674857D01*
X185882952Y-320770095D01*
X185835333Y-320817714D01*
X185740095Y-320865333D01*
X185644857Y-320865333D01*
X185549619Y-320817714D01*
X185502000Y-320770095D01*
X185454380Y-320674857D01*
X185454380Y-320436761D01*
X185502000Y-320293904D01*
X185454380Y-319960571D02*
X186454380Y-319722476D01*
X185740095Y-319532000D01*
X186454380Y-319341523D01*
X185454380Y-319103428D01*
X186454380Y-318198666D02*
X186454380Y-318770095D01*
X186454380Y-318484380D02*
X185454380Y-318484380D01*
X185597238Y-318579619D01*
X185692476Y-318674857D01*
X185740095Y-318770095D01*
%TO.C,U2*%
X72902380Y-317626904D02*
X73711904Y-317626904D01*
X73807142Y-317579285D01*
X73854761Y-317531666D01*
X73902380Y-317436428D01*
X73902380Y-317245952D01*
X73854761Y-317150714D01*
X73807142Y-317103095D01*
X73711904Y-317055476D01*
X72902380Y-317055476D01*
X72997619Y-316626904D02*
X72950000Y-316579285D01*
X72902380Y-316484047D01*
X72902380Y-316245952D01*
X72950000Y-316150714D01*
X72997619Y-316103095D01*
X73092857Y-316055476D01*
X73188095Y-316055476D01*
X73330952Y-316103095D01*
X73902380Y-316674523D01*
X73902380Y-316055476D01*
%TO.C,SW3*%
X186406761Y-341312333D02*
X186454380Y-341169476D01*
X186454380Y-340931380D01*
X186406761Y-340836142D01*
X186359142Y-340788523D01*
X186263904Y-340740904D01*
X186168666Y-340740904D01*
X186073428Y-340788523D01*
X186025809Y-340836142D01*
X185978190Y-340931380D01*
X185930571Y-341121857D01*
X185882952Y-341217095D01*
X185835333Y-341264714D01*
X185740095Y-341312333D01*
X185644857Y-341312333D01*
X185549619Y-341264714D01*
X185502000Y-341217095D01*
X185454380Y-341121857D01*
X185454380Y-340883761D01*
X185502000Y-340740904D01*
X185454380Y-340407571D02*
X186454380Y-340169476D01*
X185740095Y-339979000D01*
X186454380Y-339788523D01*
X185454380Y-339550428D01*
X185454380Y-339264714D02*
X185454380Y-338645666D01*
X185835333Y-338979000D01*
X185835333Y-338836142D01*
X185882952Y-338740904D01*
X185930571Y-338693285D01*
X186025809Y-338645666D01*
X186263904Y-338645666D01*
X186359142Y-338693285D01*
X186406761Y-338740904D01*
X186454380Y-338836142D01*
X186454380Y-339121857D01*
X186406761Y-339217095D01*
X186359142Y-339264714D01*
%TO.C,U1*%
X72902380Y-330326904D02*
X73711904Y-330326904D01*
X73807142Y-330279285D01*
X73854761Y-330231666D01*
X73902380Y-330136428D01*
X73902380Y-329945952D01*
X73854761Y-329850714D01*
X73807142Y-329803095D01*
X73711904Y-329755476D01*
X72902380Y-329755476D01*
X73902380Y-328755476D02*
X73902380Y-329326904D01*
X73902380Y-329041190D02*
X72902380Y-329041190D01*
X73045238Y-329136428D01*
X73140476Y-329231666D01*
X73188095Y-329326904D01*
%TO.C,U3*%
X176474380Y-321690904D02*
X177283904Y-321690904D01*
X177379142Y-321643285D01*
X177426761Y-321595666D01*
X177474380Y-321500428D01*
X177474380Y-321309952D01*
X177426761Y-321214714D01*
X177379142Y-321167095D01*
X177283904Y-321119476D01*
X176474380Y-321119476D01*
X176474380Y-320738523D02*
X176474380Y-320119476D01*
X176855333Y-320452809D01*
X176855333Y-320309952D01*
X176902952Y-320214714D01*
X176950571Y-320167095D01*
X177045809Y-320119476D01*
X177283904Y-320119476D01*
X177379142Y-320167095D01*
X177426761Y-320214714D01*
X177474380Y-320309952D01*
X177474380Y-320595666D01*
X177426761Y-320690904D01*
X177379142Y-320738523D01*
%TO.C,RN2*%
X162491380Y-346623476D02*
X162015190Y-346956809D01*
X162491380Y-347194904D02*
X161491380Y-347194904D01*
X161491380Y-346813952D01*
X161539000Y-346718714D01*
X161586619Y-346671095D01*
X161681857Y-346623476D01*
X161824714Y-346623476D01*
X161919952Y-346671095D01*
X161967571Y-346718714D01*
X162015190Y-346813952D01*
X162015190Y-347194904D01*
X162491380Y-346194904D02*
X161491380Y-346194904D01*
X162491380Y-345623476D01*
X161491380Y-345623476D01*
X161586619Y-345194904D02*
X161539000Y-345147285D01*
X161491380Y-345052047D01*
X161491380Y-344813952D01*
X161539000Y-344718714D01*
X161586619Y-344671095D01*
X161681857Y-344623476D01*
X161777095Y-344623476D01*
X161919952Y-344671095D01*
X162491380Y-345242523D01*
X162491380Y-344623476D01*
%TO.C,SW2*%
X186406761Y-331279333D02*
X186454380Y-331136476D01*
X186454380Y-330898380D01*
X186406761Y-330803142D01*
X186359142Y-330755523D01*
X186263904Y-330707904D01*
X186168666Y-330707904D01*
X186073428Y-330755523D01*
X186025809Y-330803142D01*
X185978190Y-330898380D01*
X185930571Y-331088857D01*
X185882952Y-331184095D01*
X185835333Y-331231714D01*
X185740095Y-331279333D01*
X185644857Y-331279333D01*
X185549619Y-331231714D01*
X185502000Y-331184095D01*
X185454380Y-331088857D01*
X185454380Y-330850761D01*
X185502000Y-330707904D01*
X185454380Y-330374571D02*
X186454380Y-330136476D01*
X185740095Y-329946000D01*
X186454380Y-329755523D01*
X185454380Y-329517428D01*
X185549619Y-329184095D02*
X185502000Y-329136476D01*
X185454380Y-329041238D01*
X185454380Y-328803142D01*
X185502000Y-328707904D01*
X185549619Y-328660285D01*
X185644857Y-328612666D01*
X185740095Y-328612666D01*
X185882952Y-328660285D01*
X186454380Y-329231714D01*
X186454380Y-328612666D01*
D11*
%TO.C,U22*%
X129226000Y-301482000D02*
X129226000Y-303017000D01*
X154806000Y-306717000D02*
X154806000Y-294247000D01*
X154746000Y-297947000D02*
X129226000Y-297947000D01*
X154806000Y-294247000D02*
X129166000Y-294247000D01*
X129226000Y-297947000D02*
X129226000Y-299482000D01*
X129226000Y-303017000D02*
X154746000Y-303017000D01*
X129166000Y-294247000D02*
X129166000Y-306717000D01*
X154746000Y-303017000D02*
X154746000Y-297947000D01*
X129166000Y-306717000D02*
X154806000Y-306717000D01*
X129226000Y-301482000D02*
G75*
G03*
X129226000Y-299482000I0J1000000D01*
G01*
%TO.C,U21*%
X101794000Y-301482000D02*
X101794000Y-303017000D01*
X127374000Y-306717000D02*
X127374000Y-294247000D01*
X127314000Y-297947000D02*
X101794000Y-297947000D01*
X127374000Y-294247000D02*
X101734000Y-294247000D01*
X101794000Y-297947000D02*
X101794000Y-299482000D01*
X101794000Y-303017000D02*
X127314000Y-303017000D01*
X101734000Y-294247000D02*
X101734000Y-306717000D01*
X127314000Y-303017000D02*
X127314000Y-297947000D01*
X101734000Y-306717000D02*
X127374000Y-306717000D01*
X101794000Y-301482000D02*
G75*
G03*
X101794000Y-299482000I0J1000000D01*
G01*
%TO.C,U20*%
X74362000Y-301482000D02*
G75*
G03*
X74362000Y-299482000I0J1000000D01*
G01*
X74302000Y-306717000D02*
X99942000Y-306717000D01*
X99882000Y-303017000D02*
X99882000Y-297947000D01*
X74302000Y-294247000D02*
X74302000Y-306717000D01*
X74362000Y-303017000D02*
X99882000Y-303017000D01*
X74362000Y-297947000D02*
X74362000Y-299482000D01*
X99942000Y-294247000D02*
X74302000Y-294247000D01*
X99882000Y-297947000D02*
X74362000Y-297947000D01*
X99942000Y-306717000D02*
X99942000Y-294247000D01*
X74362000Y-301482000D02*
X74362000Y-303017000D01*
%TO.C,U19*%
X46930000Y-301609000D02*
X46930000Y-303144000D01*
X72510000Y-306844000D02*
X72510000Y-294374000D01*
X72450000Y-298074000D02*
X46930000Y-298074000D01*
X72510000Y-294374000D02*
X46870000Y-294374000D01*
X46930000Y-298074000D02*
X46930000Y-299609000D01*
X46930000Y-303144000D02*
X72450000Y-303144000D01*
X46870000Y-294374000D02*
X46870000Y-306844000D01*
X72450000Y-303144000D02*
X72450000Y-298074000D01*
X46870000Y-306844000D02*
X72510000Y-306844000D01*
X46930000Y-301609000D02*
G75*
G03*
X46930000Y-299609000I0J1000000D01*
G01*
%TO.C,U18*%
X154746000Y-315992000D02*
X154746000Y-314457000D01*
X129166000Y-310757000D02*
X129166000Y-323227000D01*
X129226000Y-319527000D02*
X154746000Y-319527000D01*
X129166000Y-323227000D02*
X154806000Y-323227000D01*
X154746000Y-319527000D02*
X154746000Y-317992000D01*
X154746000Y-314457000D02*
X129226000Y-314457000D01*
X154806000Y-323227000D02*
X154806000Y-310757000D01*
X129226000Y-314457000D02*
X129226000Y-319527000D01*
X154806000Y-310757000D02*
X129166000Y-310757000D01*
X154746000Y-315992000D02*
G75*
G03*
X154746000Y-317992000I0J-1000000D01*
G01*
%TO.C,U17*%
X127314000Y-315992000D02*
X127314000Y-314457000D01*
X101734000Y-310757000D02*
X101734000Y-323227000D01*
X101794000Y-319527000D02*
X127314000Y-319527000D01*
X101734000Y-323227000D02*
X127374000Y-323227000D01*
X127314000Y-319527000D02*
X127314000Y-317992000D01*
X127314000Y-314457000D02*
X101794000Y-314457000D01*
X127374000Y-323227000D02*
X127374000Y-310757000D01*
X101794000Y-314457000D02*
X101794000Y-319527000D01*
X127374000Y-310757000D02*
X101734000Y-310757000D01*
X127314000Y-315992000D02*
G75*
G03*
X127314000Y-317992000I0J-1000000D01*
G01*
%TO.C,U16*%
X99882000Y-315992000D02*
X99882000Y-314457000D01*
X74302000Y-310757000D02*
X74302000Y-323227000D01*
X74362000Y-319527000D02*
X99882000Y-319527000D01*
X74302000Y-323227000D02*
X99942000Y-323227000D01*
X99882000Y-319527000D02*
X99882000Y-317992000D01*
X99882000Y-314457000D02*
X74362000Y-314457000D01*
X99942000Y-323227000D02*
X99942000Y-310757000D01*
X74362000Y-314457000D02*
X74362000Y-319527000D01*
X99942000Y-310757000D02*
X74302000Y-310757000D01*
X99882000Y-315992000D02*
G75*
G03*
X99882000Y-317992000I0J-1000000D01*
G01*
%TO.C,U15*%
X154746000Y-328692000D02*
X154746000Y-327157000D01*
X129166000Y-323457000D02*
X129166000Y-335927000D01*
X129226000Y-332227000D02*
X154746000Y-332227000D01*
X129166000Y-335927000D02*
X154806000Y-335927000D01*
X154746000Y-332227000D02*
X154746000Y-330692000D01*
X154746000Y-327157000D02*
X129226000Y-327157000D01*
X154806000Y-335927000D02*
X154806000Y-323457000D01*
X129226000Y-327157000D02*
X129226000Y-332227000D01*
X154806000Y-323457000D02*
X129166000Y-323457000D01*
X154746000Y-328692000D02*
G75*
G03*
X154746000Y-330692000I0J-1000000D01*
G01*
%TO.C,U14*%
X127314000Y-328692000D02*
X127314000Y-327157000D01*
X101734000Y-323457000D02*
X101734000Y-335927000D01*
X101794000Y-332227000D02*
X127314000Y-332227000D01*
X101734000Y-335927000D02*
X127374000Y-335927000D01*
X127314000Y-332227000D02*
X127314000Y-330692000D01*
X127314000Y-327157000D02*
X101794000Y-327157000D01*
X127374000Y-335927000D02*
X127374000Y-323457000D01*
X101794000Y-327157000D02*
X101794000Y-332227000D01*
X127374000Y-323457000D02*
X101734000Y-323457000D01*
X127314000Y-328692000D02*
G75*
G03*
X127314000Y-330692000I0J-1000000D01*
G01*
%TO.C,U13*%
X99882000Y-328692000D02*
X99882000Y-327157000D01*
X74302000Y-323457000D02*
X74302000Y-335927000D01*
X74362000Y-332227000D02*
X99882000Y-332227000D01*
X74302000Y-335927000D02*
X99942000Y-335927000D01*
X99882000Y-332227000D02*
X99882000Y-330692000D01*
X99882000Y-327157000D02*
X74362000Y-327157000D01*
X99942000Y-335927000D02*
X99942000Y-323457000D01*
X74362000Y-327157000D02*
X74362000Y-332227000D01*
X99942000Y-323457000D02*
X74302000Y-323457000D01*
X99882000Y-328692000D02*
G75*
G03*
X99882000Y-330692000I0J-1000000D01*
G01*
%TO.C,U12*%
X129226000Y-343392000D02*
X129226000Y-344927000D01*
X154806000Y-348627000D02*
X154806000Y-336157000D01*
X154746000Y-339857000D02*
X129226000Y-339857000D01*
X154806000Y-336157000D02*
X129166000Y-336157000D01*
X129226000Y-339857000D02*
X129226000Y-341392000D01*
X129226000Y-344927000D02*
X154746000Y-344927000D01*
X129166000Y-336157000D02*
X129166000Y-348627000D01*
X154746000Y-344927000D02*
X154746000Y-339857000D01*
X129166000Y-348627000D02*
X154806000Y-348627000D01*
X129226000Y-343392000D02*
G75*
G03*
X129226000Y-341392000I0J1000000D01*
G01*
%TO.C,U11*%
X101794000Y-343392000D02*
X101794000Y-344927000D01*
X127374000Y-348627000D02*
X127374000Y-336157000D01*
X127314000Y-339857000D02*
X101794000Y-339857000D01*
X127374000Y-336157000D02*
X101734000Y-336157000D01*
X101794000Y-339857000D02*
X101794000Y-341392000D01*
X101794000Y-344927000D02*
X127314000Y-344927000D01*
X101734000Y-336157000D02*
X101734000Y-348627000D01*
X127314000Y-344927000D02*
X127314000Y-339857000D01*
X101734000Y-348627000D02*
X127374000Y-348627000D01*
X101794000Y-343392000D02*
G75*
G03*
X101794000Y-341392000I0J1000000D01*
G01*
%TO.C,U10*%
X74362000Y-343392000D02*
X74362000Y-344927000D01*
X99942000Y-348627000D02*
X99942000Y-336157000D01*
X99882000Y-339857000D02*
X74362000Y-339857000D01*
X99942000Y-336157000D02*
X74302000Y-336157000D01*
X74362000Y-339857000D02*
X74362000Y-341392000D01*
X74362000Y-344927000D02*
X99882000Y-344927000D01*
X74302000Y-336157000D02*
X74302000Y-348627000D01*
X99882000Y-344927000D02*
X99882000Y-339857000D01*
X74302000Y-348627000D02*
X99942000Y-348627000D01*
X74362000Y-343392000D02*
G75*
G03*
X74362000Y-341392000I0J1000000D01*
G01*
%TO.C,U9*%
X46930000Y-343265000D02*
X46930000Y-344800000D01*
X72510000Y-348500000D02*
X72510000Y-336030000D01*
X72450000Y-339730000D02*
X46930000Y-339730000D01*
X72510000Y-336030000D02*
X46870000Y-336030000D01*
X46930000Y-339730000D02*
X46930000Y-341265000D01*
X46930000Y-344800000D02*
X72450000Y-344800000D01*
X46870000Y-336030000D02*
X46870000Y-348500000D01*
X72450000Y-344800000D02*
X72450000Y-339730000D01*
X46870000Y-348500000D02*
X72510000Y-348500000D01*
X46930000Y-343265000D02*
G75*
G03*
X46930000Y-341265000I0J1000000D01*
G01*
%TO.C,U8*%
X129226000Y-356092000D02*
X129226000Y-357627000D01*
X154806000Y-361327000D02*
X154806000Y-348857000D01*
X154746000Y-352557000D02*
X129226000Y-352557000D01*
X154806000Y-348857000D02*
X129166000Y-348857000D01*
X129226000Y-352557000D02*
X129226000Y-354092000D01*
X129226000Y-357627000D02*
X154746000Y-357627000D01*
X129166000Y-348857000D02*
X129166000Y-361327000D01*
X154746000Y-357627000D02*
X154746000Y-352557000D01*
X129166000Y-361327000D02*
X154806000Y-361327000D01*
X129226000Y-356092000D02*
G75*
G03*
X129226000Y-354092000I0J1000000D01*
G01*
%TO.C,U7*%
X101794000Y-356092000D02*
X101794000Y-357627000D01*
X127374000Y-361327000D02*
X127374000Y-348857000D01*
X127314000Y-352557000D02*
X101794000Y-352557000D01*
X127374000Y-348857000D02*
X101734000Y-348857000D01*
X101794000Y-352557000D02*
X101794000Y-354092000D01*
X101794000Y-357627000D02*
X127314000Y-357627000D01*
X101734000Y-348857000D02*
X101734000Y-361327000D01*
X127314000Y-357627000D02*
X127314000Y-352557000D01*
X101734000Y-361327000D02*
X127374000Y-361327000D01*
X101794000Y-356092000D02*
G75*
G03*
X101794000Y-354092000I0J1000000D01*
G01*
%TO.C,U6*%
X74362000Y-356092000D02*
X74362000Y-357627000D01*
X99942000Y-361327000D02*
X99942000Y-348857000D01*
X99882000Y-352557000D02*
X74362000Y-352557000D01*
X99942000Y-348857000D02*
X74302000Y-348857000D01*
X74362000Y-352557000D02*
X74362000Y-354092000D01*
X74362000Y-357627000D02*
X99882000Y-357627000D01*
X74302000Y-348857000D02*
X74302000Y-361327000D01*
X99882000Y-357627000D02*
X99882000Y-352557000D01*
X74302000Y-361327000D02*
X99942000Y-361327000D01*
X74362000Y-356092000D02*
G75*
G03*
X74362000Y-354092000I0J1000000D01*
G01*
%TO.C,U5*%
X46930000Y-355965000D02*
X46930000Y-357500000D01*
X72510000Y-361200000D02*
X72510000Y-348730000D01*
X72450000Y-352430000D02*
X46930000Y-352430000D01*
X72510000Y-348730000D02*
X46870000Y-348730000D01*
X46930000Y-352430000D02*
X46930000Y-353965000D01*
X46930000Y-357500000D02*
X72450000Y-357500000D01*
X46870000Y-348730000D02*
X46870000Y-361200000D01*
X72450000Y-357500000D02*
X72450000Y-352430000D01*
X46870000Y-361200000D02*
X72510000Y-361200000D01*
X46930000Y-355965000D02*
G75*
G03*
X46930000Y-353965000I0J1000000D01*
G01*
%TO.C,J8*%
X53280000Y-365566000D02*
X53280000Y-364236000D01*
X55880000Y-365566000D02*
X55880000Y-362906000D01*
X55880000Y-365566000D02*
X155000000Y-365566000D01*
X55880000Y-362906000D02*
X155000000Y-362906000D01*
X155000000Y-365566000D02*
X155000000Y-362906000D01*
X54610000Y-365566000D02*
X53280000Y-365566000D01*
%TO.C,J7*%
X53280000Y-370646000D02*
X53280000Y-369316000D01*
X55880000Y-370646000D02*
X55880000Y-367986000D01*
X55880000Y-370646000D02*
X155000000Y-370646000D01*
X55880000Y-367986000D02*
X155000000Y-367986000D01*
X155000000Y-370646000D02*
X155000000Y-367986000D01*
X54610000Y-370646000D02*
X53280000Y-370646000D01*
%TO.C,J6*%
X152460000Y-309940000D02*
X152460000Y-307280000D01*
X129540000Y-309940000D02*
X129540000Y-307280000D01*
X126940000Y-309940000D02*
X126940000Y-308610000D01*
X129540000Y-309940000D02*
X152460000Y-309940000D01*
X129540000Y-307280000D02*
X152460000Y-307280000D01*
X128270000Y-309940000D02*
X126940000Y-309940000D01*
%TO.C,J5*%
X124520000Y-309940000D02*
X124520000Y-307280000D01*
X101600000Y-309940000D02*
X101600000Y-307280000D01*
X99000000Y-309940000D02*
X99000000Y-308610000D01*
X101600000Y-309940000D02*
X124520000Y-309940000D01*
X101600000Y-307280000D02*
X124520000Y-307280000D01*
X100330000Y-309940000D02*
X99000000Y-309940000D01*
%TO.C,J4*%
X96580000Y-309940000D02*
X96580000Y-307280000D01*
X73660000Y-309940000D02*
X73660000Y-307280000D01*
X71060000Y-309940000D02*
X71060000Y-308610000D01*
X73660000Y-309940000D02*
X96580000Y-309940000D01*
X73660000Y-307280000D02*
X96580000Y-307280000D01*
X72390000Y-309940000D02*
X71060000Y-309940000D01*
%TO.C,J3*%
X68640000Y-309940000D02*
X68640000Y-307280000D01*
X45720000Y-309940000D02*
X45720000Y-307280000D01*
X43120000Y-309940000D02*
X43120000Y-308610000D01*
X45720000Y-309940000D02*
X68640000Y-309940000D01*
X45720000Y-307280000D02*
X68640000Y-307280000D01*
X44450000Y-309940000D02*
X43120000Y-309940000D01*
%TO.C,U4*%
X176309000Y-338836000D02*
X176309000Y-342696000D01*
X163289000Y-338836000D02*
X163289000Y-334976000D01*
X176309000Y-338836000D02*
X176309000Y-334976000D01*
X176309000Y-342696000D02*
X176074000Y-342696000D01*
X163289000Y-338836000D02*
X163289000Y-342696000D01*
X176309000Y-334976000D02*
X176074000Y-334976000D01*
X163289000Y-334976000D02*
X163524000Y-334976000D01*
X176074000Y-334976000D02*
X176074000Y-333161000D01*
X163289000Y-342696000D02*
X163524000Y-342696000D01*
%TO.C,RN1*%
X161039000Y-309187000D02*
X158239000Y-309187000D01*
X161039000Y-311897000D02*
X158239000Y-311897000D01*
X158239000Y-332387000D02*
X161039000Y-332387000D01*
X161039000Y-332387000D02*
X161039000Y-309187000D01*
X158239000Y-309187000D02*
X158239000Y-332387000D01*
%TO.C,SW1*%
X182942000Y-315862000D02*
X181802000Y-315862000D01*
X180402000Y-315862000D02*
X179262000Y-315862000D01*
X180402000Y-323202000D02*
X179262000Y-323202000D01*
X182942000Y-323202000D02*
X181802000Y-323202000D01*
X184872000Y-323202000D02*
X184342000Y-323202000D01*
X177332000Y-323202000D02*
X177862000Y-323202000D01*
X184872000Y-315862000D02*
X184872000Y-323202000D01*
X183752000Y-314662000D02*
X185122000Y-314662000D01*
X184342000Y-315862000D02*
X184872000Y-315862000D01*
X185122000Y-314662000D02*
X185122000Y-316032000D01*
X177332000Y-315862000D02*
X177332000Y-323202000D01*
X177862000Y-315862000D02*
X177332000Y-315862000D01*
%TO.C,U2*%
X72510000Y-310630000D02*
X46870000Y-310630000D01*
X72450000Y-315865000D02*
X72450000Y-314330000D01*
X72450000Y-314330000D02*
X46930000Y-314330000D01*
X72510000Y-323100000D02*
X72510000Y-310630000D01*
X46870000Y-310630000D02*
X46870000Y-323100000D01*
X72450000Y-319400000D02*
X72450000Y-317865000D01*
X46870000Y-323100000D02*
X72510000Y-323100000D01*
X46930000Y-319400000D02*
X72450000Y-319400000D01*
X46930000Y-314330000D02*
X46930000Y-319400000D01*
X72450000Y-315865000D02*
G75*
G03*
X72450000Y-317865000I0J-1000000D01*
G01*
%TO.C,SW3*%
X177862000Y-336309000D02*
X177332000Y-336309000D01*
X184872000Y-336309000D02*
X184872000Y-343649000D01*
X182942000Y-343649000D02*
X181802000Y-343649000D01*
X184872000Y-343649000D02*
X184342000Y-343649000D01*
X182942000Y-336309000D02*
X181802000Y-336309000D01*
X183752000Y-335109000D02*
X185122000Y-335109000D01*
X180402000Y-336309000D02*
X179262000Y-336309000D01*
X177332000Y-336309000D02*
X177332000Y-343649000D01*
X184342000Y-336309000D02*
X184872000Y-336309000D01*
X185122000Y-335109000D02*
X185122000Y-336479000D01*
X180402000Y-343649000D02*
X179262000Y-343649000D01*
X177332000Y-343649000D02*
X177862000Y-343649000D01*
%TO.C,U1*%
X72450000Y-332100000D02*
X72450000Y-330565000D01*
X72510000Y-335800000D02*
X72510000Y-323330000D01*
X72450000Y-328565000D02*
X72450000Y-327030000D01*
X72510000Y-323330000D02*
X46870000Y-323330000D01*
X72450000Y-327030000D02*
X46930000Y-327030000D01*
X46870000Y-323330000D02*
X46870000Y-335800000D01*
X46930000Y-332100000D02*
X72450000Y-332100000D01*
X46930000Y-327030000D02*
X46930000Y-332100000D01*
X46870000Y-335800000D02*
X72510000Y-335800000D01*
X72450000Y-328565000D02*
G75*
G03*
X72450000Y-330565000I0J-1000000D01*
G01*
%TO.C,U3*%
X175947000Y-317069000D02*
X175947000Y-315254000D01*
X176182000Y-324789000D02*
X175947000Y-324789000D01*
X176182000Y-317069000D02*
X175947000Y-317069000D01*
X176182000Y-320929000D02*
X176182000Y-317069000D01*
X163162000Y-324789000D02*
X163397000Y-324789000D01*
X163162000Y-320929000D02*
X163162000Y-324789000D01*
X176182000Y-320929000D02*
X176182000Y-324789000D01*
X163162000Y-317069000D02*
X163397000Y-317069000D01*
X163162000Y-320929000D02*
X163162000Y-317069000D01*
%TO.C,RN2*%
X158239000Y-356263000D02*
X161039000Y-356263000D01*
X161039000Y-356263000D02*
X161039000Y-333063000D01*
X161039000Y-333063000D02*
X158239000Y-333063000D01*
X161039000Y-335773000D02*
X158239000Y-335773000D01*
X158239000Y-333063000D02*
X158239000Y-356263000D01*
%TO.C,SW2*%
X184872000Y-326276000D02*
X184872000Y-333616000D01*
X184342000Y-326276000D02*
X184872000Y-326276000D01*
X177862000Y-326276000D02*
X177332000Y-326276000D01*
X180402000Y-326276000D02*
X179262000Y-326276000D01*
X182942000Y-326276000D02*
X181802000Y-326276000D01*
X182942000Y-333616000D02*
X181802000Y-333616000D01*
X177332000Y-326276000D02*
X177332000Y-333616000D01*
X183752000Y-325076000D02*
X185122000Y-325076000D01*
X177332000Y-333616000D02*
X177862000Y-333616000D01*
X180402000Y-333616000D02*
X179262000Y-333616000D01*
X184872000Y-333616000D02*
X184342000Y-333616000D01*
X185122000Y-325076000D02*
X185122000Y-326446000D01*
%TD*%
M02*
