%TF.GenerationSoftware,KiCad,Pcbnew,(6.0.6)*%
%TF.CreationDate,2022-07-29T18:16:28+02:00*%
%TF.ProjectId,csr,6373722e-6b69-4636-9164-5f7063625858,rev?*%
%TF.SameCoordinates,Original*%
%TF.FileFunction,Legend,Bot*%
%TF.FilePolarity,Positive*%
%FSLAX46Y46*%
G04 Gerber Fmt 4.6, Leading zero omitted, Abs format (unit mm)*
G04 Created by KiCad (PCBNEW (6.0.6)) date 2022-07-29 18:16:28*
%MOMM*%
%LPD*%
G01*
G04 APERTURE LIST*
%ADD10C,0.150000*%
%ADD11C,0.120000*%
G04 APERTURE END LIST*
D10*
%TO.C,J2*%
X49192380Y-293036666D02*
X49906666Y-293036666D01*
X50049523Y-292989047D01*
X50144761Y-292893809D01*
X50192380Y-292750952D01*
X50192380Y-292655714D01*
X49287619Y-293465238D02*
X49240000Y-293512857D01*
X49192380Y-293608095D01*
X49192380Y-293846190D01*
X49240000Y-293941428D01*
X49287619Y-293989047D01*
X49382857Y-294036666D01*
X49478095Y-294036666D01*
X49620952Y-293989047D01*
X50192380Y-293417619D01*
X50192380Y-294036666D01*
%TO.C,J1*%
X51732380Y-374062666D02*
X52446666Y-374062666D01*
X52589523Y-374015047D01*
X52684761Y-373919809D01*
X52732380Y-373776952D01*
X52732380Y-373681714D01*
X52732380Y-375062666D02*
X52732380Y-374491238D01*
X52732380Y-374776952D02*
X51732380Y-374776952D01*
X51875238Y-374681714D01*
X51970476Y-374586476D01*
X52018095Y-374491238D01*
D11*
%TO.C,J2*%
X50740000Y-292040000D02*
X50740000Y-293370000D01*
X53340000Y-292040000D02*
X53340000Y-294700000D01*
X53340000Y-292040000D02*
X152460000Y-292040000D01*
X53340000Y-294700000D02*
X152460000Y-294700000D01*
X152460000Y-292040000D02*
X152460000Y-294700000D01*
X52070000Y-292040000D02*
X50740000Y-292040000D01*
%TO.C,J1*%
X53280000Y-373066000D02*
X53280000Y-374396000D01*
X55880000Y-373066000D02*
X55880000Y-375726000D01*
X55880000Y-373066000D02*
X155000000Y-373066000D01*
X55880000Y-375726000D02*
X155000000Y-375726000D01*
X155000000Y-373066000D02*
X155000000Y-375726000D01*
X54610000Y-373066000D02*
X53280000Y-373066000D01*
%TD*%
M02*
