%TF.GenerationSoftware,KiCad,Pcbnew,(6.0.6)*%
%TF.CreationDate,2022-07-29T18:16:28+02:00*%
%TF.ProjectId,csr,6373722e-6b69-4636-9164-5f7063625858,rev?*%
%TF.SameCoordinates,Original*%
%TF.FileFunction,Copper,L2,Bot*%
%TF.FilePolarity,Positive*%
%FSLAX46Y46*%
G04 Gerber Fmt 4.6, Leading zero omitted, Abs format (unit mm)*
G04 Created by KiCad (PCBNEW (6.0.6)) date 2022-07-29 18:16:28*
%MOMM*%
%LPD*%
G01*
G04 APERTURE LIST*
%TA.AperFunction,ComponentPad*%
%ADD10R,1.700000X1.700000*%
%TD*%
%TA.AperFunction,ComponentPad*%
%ADD11O,1.700000X1.700000*%
%TD*%
%TA.AperFunction,ComponentPad*%
%ADD12R,1.600000X1.600000*%
%TD*%
%TA.AperFunction,ComponentPad*%
%ADD13O,1.600000X1.600000*%
%TD*%
%TA.AperFunction,ViaPad*%
%ADD14C,0.800000*%
%TD*%
%TA.AperFunction,Conductor*%
%ADD15C,0.250000*%
%TD*%
G04 APERTURE END LIST*
D10*
%TO.P,J8,1,Pin_1*%
%TO.N,in0*%
X54610000Y-364236000D03*
D11*
%TO.P,J8,2,Pin_2*%
%TO.N,in1*%
X57150000Y-364236000D03*
%TO.P,J8,3,Pin_3*%
%TO.N,in2*%
X59690000Y-364236000D03*
%TO.P,J8,4,Pin_4*%
%TO.N,in3*%
X62230000Y-364236000D03*
%TO.P,J8,5,Pin_5*%
%TO.N,in4*%
X64770000Y-364236000D03*
%TO.P,J8,6,Pin_6*%
%TO.N,in5*%
X67310000Y-364236000D03*
%TO.P,J8,7,Pin_7*%
%TO.N,in6*%
X69850000Y-364236000D03*
%TO.P,J8,8,Pin_8*%
%TO.N,in7*%
X72390000Y-364236000D03*
%TO.P,J8,9,Pin_9*%
%TO.N,in8*%
X74930000Y-364236000D03*
%TO.P,J8,10,Pin_10*%
%TO.N,in9*%
X77470000Y-364236000D03*
%TO.P,J8,11,Pin_11*%
%TO.N,in10*%
X80010000Y-364236000D03*
%TO.P,J8,12,Pin_12*%
%TO.N,in11*%
X82550000Y-364236000D03*
%TO.P,J8,13,Pin_13*%
%TO.N,in12*%
X85090000Y-364236000D03*
%TO.P,J8,14,Pin_14*%
%TO.N,in13*%
X87630000Y-364236000D03*
%TO.P,J8,15,Pin_15*%
%TO.N,in14*%
X90170000Y-364236000D03*
%TO.P,J8,16,Pin_16*%
%TO.N,in15*%
X92710000Y-364236000D03*
%TO.P,J8,17,Pin_17*%
%TO.N,in16*%
X95250000Y-364236000D03*
%TO.P,J8,18,Pin_18*%
%TO.N,in17*%
X97790000Y-364236000D03*
%TO.P,J8,19,Pin_19*%
%TO.N,in18*%
X100330000Y-364236000D03*
%TO.P,J8,20,Pin_20*%
%TO.N,in19*%
X102870000Y-364236000D03*
%TO.P,J8,21,Pin_21*%
%TO.N,in20*%
X105410000Y-364236000D03*
%TO.P,J8,22,Pin_22*%
%TO.N,in21*%
X107950000Y-364236000D03*
%TO.P,J8,23,Pin_23*%
%TO.N,in22*%
X110490000Y-364236000D03*
%TO.P,J8,24,Pin_24*%
%TO.N,in23*%
X113030000Y-364236000D03*
%TO.P,J8,25,Pin_25*%
%TO.N,in24*%
X115570000Y-364236000D03*
%TO.P,J8,26,Pin_26*%
%TO.N,in25*%
X118110000Y-364236000D03*
%TO.P,J8,27,Pin_27*%
%TO.N,in26*%
X120650000Y-364236000D03*
%TO.P,J8,28,Pin_28*%
%TO.N,in27*%
X123190000Y-364236000D03*
%TO.P,J8,29,Pin_29*%
%TO.N,in28*%
X125730000Y-364236000D03*
%TO.P,J8,30,Pin_30*%
%TO.N,in29*%
X128270000Y-364236000D03*
%TO.P,J8,31,Pin_31*%
%TO.N,in30*%
X130810000Y-364236000D03*
%TO.P,J8,32,Pin_32*%
%TO.N,in31*%
X133350000Y-364236000D03*
%TO.P,J8,33,Pin_33*%
%TO.N,unconnected-(J8-Pad33)*%
X135890000Y-364236000D03*
%TO.P,J8,34,Pin_34*%
%TO.N,~{write}*%
X138430000Y-364236000D03*
%TO.P,J8,35,Pin_35*%
%TO.N,unconnected-(J8-Pad35)*%
X140970000Y-364236000D03*
%TO.P,J8,36,Pin_36*%
%TO.N,unconnected-(J8-Pad36)*%
X143510000Y-364236000D03*
%TO.P,J8,37,Pin_37*%
%TO.N,unconnected-(J8-Pad37)*%
X146050000Y-364236000D03*
%TO.P,J8,38,Pin_38*%
%TO.N,unconnected-(J8-Pad38)*%
X148590000Y-364236000D03*
%TO.P,J8,39,Pin_39*%
%TO.N,unconnected-(J8-Pad39)*%
X151130000Y-364236000D03*
%TO.P,J8,40,Pin_40*%
%TO.N,unconnected-(J8-Pad40)*%
X153670000Y-364236000D03*
%TD*%
D10*
%TO.P,J7,1,Pin_1*%
%TO.N,cin0*%
X54610000Y-369316000D03*
D11*
%TO.P,J7,2,Pin_2*%
%TO.N,cin1*%
X57150000Y-369316000D03*
%TO.P,J7,3,Pin_3*%
%TO.N,cin2*%
X59690000Y-369316000D03*
%TO.P,J7,4,Pin_4*%
%TO.N,cin3*%
X62230000Y-369316000D03*
%TO.P,J7,5,Pin_5*%
%TO.N,cin4*%
X64770000Y-369316000D03*
%TO.P,J7,6,Pin_6*%
%TO.N,cin5*%
X67310000Y-369316000D03*
%TO.P,J7,7,Pin_7*%
%TO.N,cin6*%
X69850000Y-369316000D03*
%TO.P,J7,8,Pin_8*%
%TO.N,cin7*%
X72390000Y-369316000D03*
%TO.P,J7,9,Pin_9*%
%TO.N,cin8*%
X74930000Y-369316000D03*
%TO.P,J7,10,Pin_10*%
%TO.N,cin9*%
X77470000Y-369316000D03*
%TO.P,J7,11,Pin_11*%
%TO.N,cin10*%
X80010000Y-369316000D03*
%TO.P,J7,12,Pin_12*%
%TO.N,cin11*%
X82550000Y-369316000D03*
%TO.P,J7,13,Pin_13*%
%TO.N,cin12*%
X85090000Y-369316000D03*
%TO.P,J7,14,Pin_14*%
%TO.N,cin13*%
X87630000Y-369316000D03*
%TO.P,J7,15,Pin_15*%
%TO.N,cin14*%
X90170000Y-369316000D03*
%TO.P,J7,16,Pin_16*%
%TO.N,cin15*%
X92710000Y-369316000D03*
%TO.P,J7,17,Pin_17*%
%TO.N,cin16*%
X95250000Y-369316000D03*
%TO.P,J7,18,Pin_18*%
%TO.N,cin17*%
X97790000Y-369316000D03*
%TO.P,J7,19,Pin_19*%
%TO.N,cin18*%
X100330000Y-369316000D03*
%TO.P,J7,20,Pin_20*%
%TO.N,cin19*%
X102870000Y-369316000D03*
%TO.P,J7,21,Pin_21*%
%TO.N,cin20*%
X105410000Y-369316000D03*
%TO.P,J7,22,Pin_22*%
%TO.N,cin21*%
X107950000Y-369316000D03*
%TO.P,J7,23,Pin_23*%
%TO.N,cin22*%
X110490000Y-369316000D03*
%TO.P,J7,24,Pin_24*%
%TO.N,cin23*%
X113030000Y-369316000D03*
%TO.P,J7,25,Pin_25*%
%TO.N,cin24*%
X115570000Y-369316000D03*
%TO.P,J7,26,Pin_26*%
%TO.N,cin25*%
X118110000Y-369316000D03*
%TO.P,J7,27,Pin_27*%
%TO.N,cin26*%
X120650000Y-369316000D03*
%TO.P,J7,28,Pin_28*%
%TO.N,cin27*%
X123190000Y-369316000D03*
%TO.P,J7,29,Pin_29*%
%TO.N,cin28*%
X125730000Y-369316000D03*
%TO.P,J7,30,Pin_30*%
%TO.N,cin29*%
X128270000Y-369316000D03*
%TO.P,J7,31,Pin_31*%
%TO.N,cin30*%
X130810000Y-369316000D03*
%TO.P,J7,32,Pin_32*%
%TO.N,cin31*%
X133350000Y-369316000D03*
%TO.P,J7,33,Pin_33*%
%TO.N,unconnected-(J7-Pad33)*%
X135890000Y-369316000D03*
%TO.P,J7,34,Pin_34*%
%TO.N,~{cwrite}*%
X138430000Y-369316000D03*
%TO.P,J7,35,Pin_35*%
%TO.N,unconnected-(J7-Pad35)*%
X140970000Y-369316000D03*
%TO.P,J7,36,Pin_36*%
%TO.N,unconnected-(J7-Pad36)*%
X143510000Y-369316000D03*
%TO.P,J7,37,Pin_37*%
%TO.N,unconnected-(J7-Pad37)*%
X146050000Y-369316000D03*
%TO.P,J7,38,Pin_38*%
%TO.N,unconnected-(J7-Pad38)*%
X148590000Y-369316000D03*
%TO.P,J7,39,Pin_39*%
%TO.N,+5V*%
X151130000Y-369316000D03*
%TO.P,J7,40,Pin_40*%
%TO.N,GND*%
X153670000Y-369316000D03*
%TD*%
D10*
%TO.P,J6,1,Pin_1*%
%TO.N,GND*%
X128270000Y-308610000D03*
D11*
%TO.P,J6,2,Pin_2*%
%TO.N,+5V*%
X130810000Y-308610000D03*
%TO.P,J6,3,Pin_3*%
%TO.N,cur24*%
X133350000Y-308610000D03*
%TO.P,J6,4,Pin_4*%
%TO.N,cur25*%
X135890000Y-308610000D03*
%TO.P,J6,5,Pin_5*%
%TO.N,cur26*%
X138430000Y-308610000D03*
%TO.P,J6,6,Pin_6*%
%TO.N,cur27*%
X140970000Y-308610000D03*
%TO.P,J6,7,Pin_7*%
%TO.N,cur28*%
X143510000Y-308610000D03*
%TO.P,J6,8,Pin_8*%
%TO.N,cur29*%
X146050000Y-308610000D03*
%TO.P,J6,9,Pin_9*%
%TO.N,cur30*%
X148590000Y-308610000D03*
%TO.P,J6,10,Pin_10*%
%TO.N,cur31*%
X151130000Y-308610000D03*
%TD*%
D10*
%TO.P,J5,1,Pin_1*%
%TO.N,GND*%
X100330000Y-308610000D03*
D11*
%TO.P,J5,2,Pin_2*%
%TO.N,+5V*%
X102870000Y-308610000D03*
%TO.P,J5,3,Pin_3*%
%TO.N,cur16*%
X105410000Y-308610000D03*
%TO.P,J5,4,Pin_4*%
%TO.N,cur17*%
X107950000Y-308610000D03*
%TO.P,J5,5,Pin_5*%
%TO.N,cur18*%
X110490000Y-308610000D03*
%TO.P,J5,6,Pin_6*%
%TO.N,cur19*%
X113030000Y-308610000D03*
%TO.P,J5,7,Pin_7*%
%TO.N,cur20*%
X115570000Y-308610000D03*
%TO.P,J5,8,Pin_8*%
%TO.N,cur21*%
X118110000Y-308610000D03*
%TO.P,J5,9,Pin_9*%
%TO.N,cur22*%
X120650000Y-308610000D03*
%TO.P,J5,10,Pin_10*%
%TO.N,cur23*%
X123190000Y-308610000D03*
%TD*%
D10*
%TO.P,J4,1,Pin_1*%
%TO.N,GND*%
X72390000Y-308610000D03*
D11*
%TO.P,J4,2,Pin_2*%
%TO.N,+5V*%
X74930000Y-308610000D03*
%TO.P,J4,3,Pin_3*%
%TO.N,cur8*%
X77470000Y-308610000D03*
%TO.P,J4,4,Pin_4*%
%TO.N,cur9*%
X80010000Y-308610000D03*
%TO.P,J4,5,Pin_5*%
%TO.N,cur10*%
X82550000Y-308610000D03*
%TO.P,J4,6,Pin_6*%
%TO.N,cur11*%
X85090000Y-308610000D03*
%TO.P,J4,7,Pin_7*%
%TO.N,cur12*%
X87630000Y-308610000D03*
%TO.P,J4,8,Pin_8*%
%TO.N,cur13*%
X90170000Y-308610000D03*
%TO.P,J4,9,Pin_9*%
%TO.N,cur14*%
X92710000Y-308610000D03*
%TO.P,J4,10,Pin_10*%
%TO.N,cur15*%
X95250000Y-308610000D03*
%TD*%
D10*
%TO.P,J3,1,Pin_1*%
%TO.N,GND*%
X44450000Y-308610000D03*
D11*
%TO.P,J3,2,Pin_2*%
%TO.N,+5V*%
X46990000Y-308610000D03*
%TO.P,J3,3,Pin_3*%
%TO.N,cur0*%
X49530000Y-308610000D03*
%TO.P,J3,4,Pin_4*%
%TO.N,cur1*%
X52070000Y-308610000D03*
%TO.P,J3,5,Pin_5*%
%TO.N,cur2*%
X54610000Y-308610000D03*
%TO.P,J3,6,Pin_6*%
%TO.N,cur3*%
X57150000Y-308610000D03*
%TO.P,J3,7,Pin_7*%
%TO.N,cur4*%
X59690000Y-308610000D03*
%TO.P,J3,8,Pin_8*%
%TO.N,cur5*%
X62230000Y-308610000D03*
%TO.P,J3,9,Pin_9*%
%TO.N,cur6*%
X64770000Y-308610000D03*
%TO.P,J3,10,Pin_10*%
%TO.N,cur7*%
X67310000Y-308610000D03*
%TD*%
D10*
%TO.P,J2,1,Pin_1*%
%TO.N,out0*%
X52070000Y-293370000D03*
D11*
%TO.P,J2,2,Pin_2*%
%TO.N,out1*%
X54610000Y-293370000D03*
%TO.P,J2,3,Pin_3*%
%TO.N,out2*%
X57150000Y-293370000D03*
%TO.P,J2,4,Pin_4*%
%TO.N,out3*%
X59690000Y-293370000D03*
%TO.P,J2,5,Pin_5*%
%TO.N,out4*%
X62230000Y-293370000D03*
%TO.P,J2,6,Pin_6*%
%TO.N,out5*%
X64770000Y-293370000D03*
%TO.P,J2,7,Pin_7*%
%TO.N,out6*%
X67310000Y-293370000D03*
%TO.P,J2,8,Pin_8*%
%TO.N,out7*%
X69850000Y-293370000D03*
%TO.P,J2,9,Pin_9*%
%TO.N,out8*%
X72390000Y-293370000D03*
%TO.P,J2,10,Pin_10*%
%TO.N,out9*%
X74930000Y-293370000D03*
%TO.P,J2,11,Pin_11*%
%TO.N,out10*%
X77470000Y-293370000D03*
%TO.P,J2,12,Pin_12*%
%TO.N,out11*%
X80010000Y-293370000D03*
%TO.P,J2,13,Pin_13*%
%TO.N,out12*%
X82550000Y-293370000D03*
%TO.P,J2,14,Pin_14*%
%TO.N,out13*%
X85090000Y-293370000D03*
%TO.P,J2,15,Pin_15*%
%TO.N,out14*%
X87630000Y-293370000D03*
%TO.P,J2,16,Pin_16*%
%TO.N,out15*%
X90170000Y-293370000D03*
%TO.P,J2,17,Pin_17*%
%TO.N,out16*%
X92710000Y-293370000D03*
%TO.P,J2,18,Pin_18*%
%TO.N,out17*%
X95250000Y-293370000D03*
%TO.P,J2,19,Pin_19*%
%TO.N,out18*%
X97790000Y-293370000D03*
%TO.P,J2,20,Pin_20*%
%TO.N,out19*%
X100330000Y-293370000D03*
%TO.P,J2,21,Pin_21*%
%TO.N,out20*%
X102870000Y-293370000D03*
%TO.P,J2,22,Pin_22*%
%TO.N,out21*%
X105410000Y-293370000D03*
%TO.P,J2,23,Pin_23*%
%TO.N,out22*%
X107950000Y-293370000D03*
%TO.P,J2,24,Pin_24*%
%TO.N,out23*%
X110490000Y-293370000D03*
%TO.P,J2,25,Pin_25*%
%TO.N,out24*%
X113030000Y-293370000D03*
%TO.P,J2,26,Pin_26*%
%TO.N,out25*%
X115570000Y-293370000D03*
%TO.P,J2,27,Pin_27*%
%TO.N,out26*%
X118110000Y-293370000D03*
%TO.P,J2,28,Pin_28*%
%TO.N,out27*%
X120650000Y-293370000D03*
%TO.P,J2,29,Pin_29*%
%TO.N,out28*%
X123190000Y-293370000D03*
%TO.P,J2,30,Pin_30*%
%TO.N,out29*%
X125730000Y-293370000D03*
%TO.P,J2,31,Pin_31*%
%TO.N,out30*%
X128270000Y-293370000D03*
%TO.P,J2,32,Pin_32*%
%TO.N,out31*%
X130810000Y-293370000D03*
%TO.P,J2,33,Pin_33*%
%TO.N,unconnected-(J2-Pad33)*%
X133350000Y-293370000D03*
%TO.P,J2,34,Pin_34*%
%TO.N,unconnected-(J2-Pad34)*%
X135890000Y-293370000D03*
%TO.P,J2,35,Pin_35*%
%TO.N,unconnected-(J2-Pad35)*%
X138430000Y-293370000D03*
%TO.P,J2,36,Pin_36*%
%TO.N,unconnected-(J2-Pad36)*%
X140970000Y-293370000D03*
%TO.P,J2,37,Pin_37*%
%TO.N,unconnected-(J2-Pad37)*%
X143510000Y-293370000D03*
%TO.P,J2,38,Pin_38*%
%TO.N,unconnected-(J2-Pad38)*%
X146050000Y-293370000D03*
%TO.P,J2,39,Pin_39*%
%TO.N,unconnected-(J2-Pad39)*%
X148590000Y-293370000D03*
%TO.P,J2,40,Pin_40*%
%TO.N,unconnected-(J2-Pad40)*%
X151130000Y-293370000D03*
%TD*%
D10*
%TO.P,J1,1,Pin_1*%
%TO.N,cin0*%
X54610000Y-374396000D03*
D11*
%TO.P,J1,2,Pin_2*%
%TO.N,cin1*%
X57150000Y-374396000D03*
%TO.P,J1,3,Pin_3*%
%TO.N,cin2*%
X59690000Y-374396000D03*
%TO.P,J1,4,Pin_4*%
%TO.N,cin3*%
X62230000Y-374396000D03*
%TO.P,J1,5,Pin_5*%
%TO.N,cin4*%
X64770000Y-374396000D03*
%TO.P,J1,6,Pin_6*%
%TO.N,cin5*%
X67310000Y-374396000D03*
%TO.P,J1,7,Pin_7*%
%TO.N,cin6*%
X69850000Y-374396000D03*
%TO.P,J1,8,Pin_8*%
%TO.N,cin7*%
X72390000Y-374396000D03*
%TO.P,J1,9,Pin_9*%
%TO.N,cin8*%
X74930000Y-374396000D03*
%TO.P,J1,10,Pin_10*%
%TO.N,cin9*%
X77470000Y-374396000D03*
%TO.P,J1,11,Pin_11*%
%TO.N,cin10*%
X80010000Y-374396000D03*
%TO.P,J1,12,Pin_12*%
%TO.N,cin11*%
X82550000Y-374396000D03*
%TO.P,J1,13,Pin_13*%
%TO.N,cin12*%
X85090000Y-374396000D03*
%TO.P,J1,14,Pin_14*%
%TO.N,cin13*%
X87630000Y-374396000D03*
%TO.P,J1,15,Pin_15*%
%TO.N,cin14*%
X90170000Y-374396000D03*
%TO.P,J1,16,Pin_16*%
%TO.N,cin15*%
X92710000Y-374396000D03*
%TO.P,J1,17,Pin_17*%
%TO.N,cin16*%
X95250000Y-374396000D03*
%TO.P,J1,18,Pin_18*%
%TO.N,cin17*%
X97790000Y-374396000D03*
%TO.P,J1,19,Pin_19*%
%TO.N,cin18*%
X100330000Y-374396000D03*
%TO.P,J1,20,Pin_20*%
%TO.N,cin19*%
X102870000Y-374396000D03*
%TO.P,J1,21,Pin_21*%
%TO.N,cin20*%
X105410000Y-374396000D03*
%TO.P,J1,22,Pin_22*%
%TO.N,cin21*%
X107950000Y-374396000D03*
%TO.P,J1,23,Pin_23*%
%TO.N,cin22*%
X110490000Y-374396000D03*
%TO.P,J1,24,Pin_24*%
%TO.N,cin23*%
X113030000Y-374396000D03*
%TO.P,J1,25,Pin_25*%
%TO.N,cin24*%
X115570000Y-374396000D03*
%TO.P,J1,26,Pin_26*%
%TO.N,cin25*%
X118110000Y-374396000D03*
%TO.P,J1,27,Pin_27*%
%TO.N,cin26*%
X120650000Y-374396000D03*
%TO.P,J1,28,Pin_28*%
%TO.N,cin27*%
X123190000Y-374396000D03*
%TO.P,J1,29,Pin_29*%
%TO.N,cin28*%
X125730000Y-374396000D03*
%TO.P,J1,30,Pin_30*%
%TO.N,cin29*%
X128270000Y-374396000D03*
%TO.P,J1,31,Pin_31*%
%TO.N,cin30*%
X130810000Y-374396000D03*
%TO.P,J1,32,Pin_32*%
%TO.N,cin31*%
X133350000Y-374396000D03*
%TO.P,J1,33,Pin_33*%
%TO.N,~{read}*%
X135890000Y-374396000D03*
%TO.P,J1,34,Pin_34*%
%TO.N,~{cwrite}*%
X138430000Y-374396000D03*
%TO.P,J1,35,Pin_35*%
%TO.N,unconnected-(J1-Pad35)*%
X140970000Y-374396000D03*
%TO.P,J1,36,Pin_36*%
%TO.N,unconnected-(J1-Pad36)*%
X143510000Y-374396000D03*
%TO.P,J1,37,Pin_37*%
%TO.N,unconnected-(J1-Pad37)*%
X146050000Y-374396000D03*
%TO.P,J1,38,Pin_38*%
%TO.N,unconnected-(J1-Pad38)*%
X148590000Y-374396000D03*
%TO.P,J1,39,Pin_39*%
%TO.N,unconnected-(J1-Pad39)*%
X151130000Y-374396000D03*
%TO.P,J1,40,Pin_40*%
%TO.N,unconnected-(J1-Pad40)*%
X153670000Y-374396000D03*
%TD*%
D12*
%TO.P,RN1,1,common*%
%TO.N,GND*%
X159639000Y-310627000D03*
D13*
%TO.P,RN1,2,R1*%
%TO.N,ca0*%
X159639000Y-313167000D03*
%TO.P,RN1,3,R2*%
%TO.N,ca1*%
X159639000Y-315707000D03*
%TO.P,RN1,4,R3*%
%TO.N,ca2*%
X159639000Y-318247000D03*
%TO.P,RN1,5,R4*%
%TO.N,ca3*%
X159639000Y-320787000D03*
%TO.P,RN1,6,R5*%
%TO.N,ca4*%
X159639000Y-323327000D03*
%TO.P,RN1,7,R6*%
%TO.N,ca5*%
X159639000Y-325867000D03*
%TO.P,RN1,8,R7*%
%TO.N,ca6*%
X159639000Y-328407000D03*
%TO.P,RN1,9,R8*%
%TO.N,ca7*%
X159639000Y-330947000D03*
%TD*%
D12*
%TO.P,RN2,1,common*%
%TO.N,GND*%
X159639000Y-334503000D03*
D13*
%TO.P,RN2,2,R1*%
%TO.N,ca8*%
X159639000Y-337043000D03*
%TO.P,RN2,3,R2*%
%TO.N,ca9*%
X159639000Y-339583000D03*
%TO.P,RN2,4,R3*%
%TO.N,ca10*%
X159639000Y-342123000D03*
%TO.P,RN2,5,R4*%
%TO.N,ca11*%
X159639000Y-344663000D03*
%TO.P,RN2,6,R5*%
%TO.N,unconnected-(RN2-Pad6)*%
X159639000Y-347203000D03*
%TO.P,RN2,7,R6*%
%TO.N,unconnected-(RN2-Pad7)*%
X159639000Y-349743000D03*
%TO.P,RN2,8,R7*%
%TO.N,unconnected-(RN2-Pad8)*%
X159639000Y-352283000D03*
%TO.P,RN2,9,R8*%
%TO.N,unconnected-(RN2-Pad9)*%
X159639000Y-354823000D03*
%TD*%
D14*
%TO.N,Net-(U1-Pad2)*%
X66040000Y-312674000D03*
X68580000Y-325120000D03*
%TO.N,Net-(U1-Pad5)*%
X63500000Y-312674000D03*
X60960000Y-325120000D03*
%TO.N,Net-(U1-Pad6)*%
X56011299Y-313313299D03*
X57658000Y-324104000D03*
%TO.N,Net-(U1-Pad9)*%
X53340000Y-313436000D03*
X50800000Y-325120000D03*
%TO.N,+5V*%
X71120000Y-321310000D03*
%TO.N,cur7*%
X68580000Y-321310000D03*
%TO.N,cur6*%
X60960000Y-321310000D03*
%TO.N,cur5*%
X58420000Y-321310000D03*
%TO.N,cur4*%
X50800000Y-321310000D03*
%TO.N,cur3*%
X50800000Y-312420000D03*
%TO.N,out17*%
X101414971Y-297873975D03*
%TO.N,out18*%
X100401500Y-297429701D03*
%TO.N,out21*%
X105918000Y-301634500D03*
%TO.N,out20*%
X103632000Y-301244000D03*
%TO.N,out23*%
X112522000Y-302534500D03*
%TO.N,out22*%
X111506000Y-302514000D03*
%TO.N,out16*%
X108204000Y-298298000D03*
X108204000Y-302514000D03*
%TO.N,out15*%
X98552000Y-297688000D03*
%TO.N,out14*%
X96012000Y-296037000D03*
%TO.N,out13*%
X93472000Y-296037000D03*
%TO.N,out11*%
X88392000Y-296037000D03*
%TO.N,out10*%
X85852000Y-296037000D03*
%TO.N,out9*%
X83312000Y-296037000D03*
%TO.N,GND*%
X164084000Y-335788000D03*
X161671000Y-311785000D03*
X163576000Y-313563000D03*
X164084000Y-341884000D03*
X175514000Y-332105000D03*
X175514000Y-330327000D03*
%TO.N,ca0*%
X174117000Y-313690000D03*
%TO.N,ca1*%
X171577000Y-316279000D03*
%TO.N,ca2*%
X169037000Y-316279000D03*
%TO.N,ca3*%
X166497000Y-316279000D03*
%TO.N,ca4*%
X183642000Y-328676000D03*
X163957000Y-328676000D03*
%TO.N,ca5*%
X166497000Y-325579000D03*
%TO.N,ca6*%
X169227500Y-326961500D03*
%TO.N,ca7*%
X171577000Y-325579000D03*
%TO.N,ca8*%
X167386000Y-336423000D03*
X183642000Y-338582000D03*
X174244000Y-335915000D03*
%TO.N,ca9*%
X170942000Y-336042000D03*
X167513000Y-338963000D03*
%TO.N,ca10*%
X169164000Y-335915000D03*
X168402000Y-337566000D03*
%TO.N,ca11*%
X176784000Y-338836000D03*
X183515000Y-341122000D03*
%TO.N,Net-(U3-Pad1)*%
X174244000Y-345186000D03*
X175387000Y-314452000D03*
%TD*%
D15*
%TO.N,Net-(U1-Pad2)*%
X66040000Y-312674000D02*
X66040000Y-322580000D01*
X66040000Y-322580000D02*
X68580000Y-325120000D01*
%TO.N,Net-(U1-Pad5)*%
X63500000Y-312674000D02*
X60235000Y-315939000D01*
X60235000Y-315939000D02*
X60235000Y-324395000D01*
X60235000Y-324395000D02*
X60960000Y-325120000D01*
%TO.N,Net-(U1-Pad6)*%
X56011299Y-313313299D02*
X57658000Y-314960000D01*
X57658000Y-314960000D02*
X57658000Y-324104000D01*
%TO.N,Net-(U1-Pad9)*%
X53340000Y-313436000D02*
X50075000Y-316701000D01*
X50075000Y-316701000D02*
X50075000Y-324395000D01*
X50075000Y-324395000D02*
X50800000Y-325120000D01*
%TO.N,+5V*%
X72390000Y-311150000D02*
X72390000Y-317754000D01*
X74930000Y-308610000D02*
X72390000Y-311150000D01*
X71120000Y-319024000D02*
X71120000Y-321310000D01*
X72390000Y-317754000D02*
X71120000Y-319024000D01*
%TO.N,cur7*%
X67310000Y-308610000D02*
X67310000Y-320040000D01*
X67310000Y-320040000D02*
X68580000Y-321310000D01*
%TO.N,cur6*%
X64770000Y-308610000D02*
X64770000Y-317500000D01*
X64770000Y-317500000D02*
X60960000Y-321310000D01*
%TO.N,cur5*%
X62230000Y-308610000D02*
X58420000Y-312420000D01*
X58420000Y-312420000D02*
X58420000Y-321310000D01*
%TO.N,cur4*%
X59690000Y-308610000D02*
X50800000Y-317500000D01*
X50800000Y-317500000D02*
X50800000Y-321310000D01*
%TO.N,cur3*%
X57150000Y-308610000D02*
X53340000Y-312420000D01*
X53340000Y-312420000D02*
X50800000Y-312420000D01*
%TO.N,out17*%
X101414971Y-297873975D02*
X101134245Y-298154701D01*
X101134245Y-298154701D02*
X100044006Y-298154701D01*
X100044006Y-298154701D02*
X95259305Y-293370000D01*
X95259305Y-293370000D02*
X95250000Y-293370000D01*
%TO.N,out18*%
X100401500Y-297429701D02*
X97790000Y-294818201D01*
X97790000Y-294818201D02*
X97790000Y-293370000D01*
%TO.N,out22*%
X109474000Y-298835500D02*
X109474000Y-294894000D01*
X109474000Y-294894000D02*
X107950000Y-293370000D01*
%TO.N,out20*%
X102108000Y-298196000D02*
X102870000Y-297434000D01*
X102870000Y-297434000D02*
X102870000Y-293370000D01*
%TO.N,out21*%
X105918000Y-301634500D02*
X104394000Y-300110500D01*
X104394000Y-300110500D02*
X104394000Y-294386000D01*
X104394000Y-294386000D02*
X105410000Y-293370000D01*
%TO.N,out20*%
X103632000Y-301244000D02*
X102108000Y-299720000D01*
X102108000Y-299720000D02*
X102108000Y-298196000D01*
%TO.N,out23*%
X112522000Y-302534500D02*
X112522000Y-295402000D01*
X112522000Y-295402000D02*
X110490000Y-293370000D01*
%TO.N,out22*%
X111506000Y-300867500D02*
X111506000Y-302514000D01*
X109474000Y-298835500D02*
X111506000Y-300867500D01*
%TO.N,out16*%
X108204000Y-298704000D02*
X108204000Y-302514000D01*
%TO.N,out15*%
X90170000Y-293370000D02*
X91662000Y-294862000D01*
X91662000Y-294862000D02*
X95862305Y-294862000D01*
X95862305Y-294862000D02*
X98552000Y-297551695D01*
X98552000Y-297551695D02*
X98552000Y-297688000D01*
%TO.N,out14*%
X89028396Y-294640000D02*
X89700396Y-295312000D01*
X87630000Y-293370000D02*
X87630000Y-294572081D01*
X87630000Y-294572081D02*
X87697919Y-294640000D01*
X95287000Y-295312000D02*
X96012000Y-296037000D01*
X87697919Y-294640000D02*
X89028396Y-294640000D01*
X89700396Y-295312000D02*
X95287000Y-295312000D01*
%TO.N,out13*%
X88900000Y-295148000D02*
X89789000Y-296037000D01*
X89789000Y-296037000D02*
X93472000Y-296037000D01*
X86868000Y-295148000D02*
X88900000Y-295148000D01*
X85090000Y-293370000D02*
X86868000Y-295148000D01*
%TO.N,out11*%
X71120000Y-294134792D02*
X76335208Y-299350000D01*
X80010000Y-293370000D02*
X78373557Y-291733557D01*
X78373557Y-291733557D02*
X71619444Y-291733557D01*
X76335208Y-299350000D02*
X85079000Y-299350000D01*
X71619444Y-291733557D02*
X71120000Y-292233001D01*
X71120000Y-292233001D02*
X71120000Y-294134792D01*
X85079000Y-299350000D02*
X88392000Y-296037000D01*
%TO.N,out10*%
X77470000Y-293370000D02*
X76295000Y-292195000D01*
X76295000Y-292195000D02*
X74072999Y-292195000D01*
X73755000Y-292512999D02*
X73755000Y-296133396D01*
X74072999Y-292195000D02*
X73755000Y-292512999D01*
X73755000Y-296133396D02*
X76521604Y-298900000D01*
X76521604Y-298900000D02*
X82989000Y-298900000D01*
X82989000Y-298900000D02*
X85852000Y-296037000D01*
%TO.N,out9*%
X74930000Y-296672000D02*
X76708000Y-298450000D01*
X74930000Y-293370000D02*
X74930000Y-296672000D01*
X76708000Y-298450000D02*
X80899000Y-298450000D01*
X80899000Y-298450000D02*
X83312000Y-296037000D01*
%TO.N,GND*%
X163576000Y-313563000D02*
X161798000Y-311785000D01*
X175514000Y-332105000D02*
X175514000Y-330327000D01*
X161798000Y-311785000D02*
X161671000Y-311785000D01*
X164084000Y-335788000D02*
X164084000Y-341884000D01*
%TO.N,ca0*%
X160760000Y-314288000D02*
X173519000Y-314288000D01*
X173519000Y-314288000D02*
X174117000Y-313690000D01*
X159639000Y-313167000D02*
X160760000Y-314288000D01*
%TO.N,ca1*%
X159639000Y-315707000D02*
X160438999Y-314907001D01*
X160438999Y-314907001D02*
X170205001Y-314907001D01*
X170205001Y-314907001D02*
X171577000Y-316279000D01*
%TO.N,ca2*%
X159639000Y-318247000D02*
X162332000Y-315554000D01*
X168312000Y-315554000D02*
X169037000Y-316279000D01*
X162332000Y-315554000D02*
X168312000Y-315554000D01*
%TO.N,ca3*%
X161989000Y-320787000D02*
X166497000Y-316279000D01*
X159639000Y-320787000D02*
X161989000Y-320787000D01*
%TO.N,ca4*%
X183642000Y-328676000D02*
X163957000Y-328676000D01*
%TO.N,ca5*%
X166209000Y-325867000D02*
X166497000Y-325579000D01*
X159639000Y-325867000D02*
X166209000Y-325867000D01*
%TO.N,ca6*%
X160438999Y-327607001D02*
X168581999Y-327607001D01*
X168581999Y-327607001D02*
X169227500Y-326961500D01*
X159639000Y-328407000D02*
X160438999Y-327607001D01*
%TO.N,ca7*%
X167767698Y-327151302D02*
X169340000Y-325579000D01*
X158514000Y-327863000D02*
X159225698Y-327151302D01*
X169340000Y-325579000D02*
X171577000Y-325579000D01*
X158514000Y-329822000D02*
X158514000Y-327863000D01*
X159639000Y-330947000D02*
X158514000Y-329822000D01*
X159225698Y-327151302D02*
X167767698Y-327151302D01*
%TO.N,ca8*%
X175075000Y-335915000D02*
X177546000Y-338386000D01*
X169037000Y-334772000D02*
X173101000Y-334772000D01*
X174244000Y-335915000D02*
X175075000Y-335915000D01*
X177546000Y-338386000D02*
X183446000Y-338386000D01*
X167386000Y-336423000D02*
X169037000Y-334772000D01*
X173101000Y-334772000D02*
X174244000Y-335915000D01*
X183446000Y-338386000D02*
X183642000Y-338582000D01*
%TO.N,ca9*%
X170942000Y-336051305D02*
X170942000Y-336042000D01*
X168030305Y-338963000D02*
X170942000Y-336051305D01*
X167513000Y-338963000D02*
X168030305Y-338963000D01*
%TO.N,ca10*%
X168402000Y-337566000D02*
X168402000Y-336677000D01*
X168402000Y-336677000D02*
X169164000Y-335915000D01*
%TO.N,ca11*%
X183515000Y-341122000D02*
X181229000Y-338836000D01*
X176911000Y-338836000D02*
X176784000Y-338836000D01*
X181229000Y-338836000D02*
X176911000Y-338836000D01*
%TO.N,Net-(U3-Pad1)*%
X184531000Y-310261000D02*
X188849000Y-314579000D01*
X175387000Y-314452000D02*
X179578000Y-310261000D01*
X174752000Y-345694000D02*
X174244000Y-345186000D01*
X179578000Y-310261000D02*
X184531000Y-310261000D01*
X188849000Y-341884000D02*
X185039000Y-345694000D01*
X188849000Y-314579000D02*
X188849000Y-341884000D01*
X185039000Y-345694000D02*
X174752000Y-345694000D01*
%TD*%
M02*
