%TF.GenerationSoftware,KiCad,Pcbnew,(6.0.6)*%
%TF.CreationDate,2022-07-29T18:16:28+02:00*%
%TF.ProjectId,csr,6373722e-6b69-4636-9164-5f7063625858,rev?*%
%TF.SameCoordinates,Original*%
%TF.FileFunction,Soldermask,Top*%
%TF.FilePolarity,Negative*%
%FSLAX46Y46*%
G04 Gerber Fmt 4.6, Leading zero omitted, Abs format (unit mm)*
G04 Created by KiCad (PCBNEW (6.0.6)) date 2022-07-29 18:16:28*
%MOMM*%
%LPD*%
G01*
G04 APERTURE LIST*
G04 Aperture macros list*
%AMRoundRect*
0 Rectangle with rounded corners*
0 $1 Rounding radius*
0 $2 $3 $4 $5 $6 $7 $8 $9 X,Y pos of 4 corners*
0 Add a 4 corners polygon primitive as box body*
4,1,4,$2,$3,$4,$5,$6,$7,$8,$9,$2,$3,0*
0 Add four circle primitives for the rounded corners*
1,1,$1+$1,$2,$3*
1,1,$1+$1,$4,$5*
1,1,$1+$1,$6,$7*
1,1,$1+$1,$8,$9*
0 Add four rect primitives between the rounded corners*
20,1,$1+$1,$2,$3,$4,$5,0*
20,1,$1+$1,$4,$5,$6,$7,0*
20,1,$1+$1,$6,$7,$8,$9,0*
20,1,$1+$1,$8,$9,$2,$3,0*%
G04 Aperture macros list end*
%ADD10R,1.600000X3.100000*%
%ADD11R,1.700000X1.700000*%
%ADD12O,1.700000X1.700000*%
%ADD13RoundRect,0.150000X-0.150000X0.875000X-0.150000X-0.875000X0.150000X-0.875000X0.150000X0.875000X0*%
%ADD14R,1.600000X1.600000*%
%ADD15O,1.600000X1.600000*%
%ADD16R,1.000000X2.500000*%
G04 APERTURE END LIST*
D10*
%TO.C,U22*%
X130556000Y-304927000D03*
X133096000Y-304927000D03*
X135636000Y-304927000D03*
X138176000Y-304927000D03*
X140716000Y-304927000D03*
X143256000Y-304927000D03*
X145796000Y-304927000D03*
X148336000Y-304927000D03*
X150876000Y-304927000D03*
X153416000Y-304927000D03*
X153416000Y-296037000D03*
X150876000Y-296037000D03*
X148336000Y-296037000D03*
X145796000Y-296037000D03*
X143256000Y-296037000D03*
X140716000Y-296037000D03*
X138176000Y-296037000D03*
X135636000Y-296037000D03*
X133096000Y-296037000D03*
X130556000Y-296037000D03*
%TD*%
%TO.C,U21*%
X103124000Y-304927000D03*
X105664000Y-304927000D03*
X108204000Y-304927000D03*
X110744000Y-304927000D03*
X113284000Y-304927000D03*
X115824000Y-304927000D03*
X118364000Y-304927000D03*
X120904000Y-304927000D03*
X123444000Y-304927000D03*
X125984000Y-304927000D03*
X125984000Y-296037000D03*
X123444000Y-296037000D03*
X120904000Y-296037000D03*
X118364000Y-296037000D03*
X115824000Y-296037000D03*
X113284000Y-296037000D03*
X110744000Y-296037000D03*
X108204000Y-296037000D03*
X105664000Y-296037000D03*
X103124000Y-296037000D03*
%TD*%
%TO.C,U20*%
X75692000Y-296037000D03*
X78232000Y-296037000D03*
X80772000Y-296037000D03*
X83312000Y-296037000D03*
X85852000Y-296037000D03*
X88392000Y-296037000D03*
X90932000Y-296037000D03*
X93472000Y-296037000D03*
X96012000Y-296037000D03*
X98552000Y-296037000D03*
X98552000Y-304927000D03*
X96012000Y-304927000D03*
X93472000Y-304927000D03*
X90932000Y-304927000D03*
X88392000Y-304927000D03*
X85852000Y-304927000D03*
X83312000Y-304927000D03*
X80772000Y-304927000D03*
X78232000Y-304927000D03*
X75692000Y-304927000D03*
%TD*%
%TO.C,U19*%
X48260000Y-305054000D03*
X50800000Y-305054000D03*
X53340000Y-305054000D03*
X55880000Y-305054000D03*
X58420000Y-305054000D03*
X60960000Y-305054000D03*
X63500000Y-305054000D03*
X66040000Y-305054000D03*
X68580000Y-305054000D03*
X71120000Y-305054000D03*
X71120000Y-296164000D03*
X68580000Y-296164000D03*
X66040000Y-296164000D03*
X63500000Y-296164000D03*
X60960000Y-296164000D03*
X58420000Y-296164000D03*
X55880000Y-296164000D03*
X53340000Y-296164000D03*
X50800000Y-296164000D03*
X48260000Y-296164000D03*
%TD*%
%TO.C,U18*%
X153416000Y-312547000D03*
X150876000Y-312547000D03*
X148336000Y-312547000D03*
X145796000Y-312547000D03*
X143256000Y-312547000D03*
X140716000Y-312547000D03*
X138176000Y-312547000D03*
X135636000Y-312547000D03*
X133096000Y-312547000D03*
X130556000Y-312547000D03*
X130556000Y-321437000D03*
X133096000Y-321437000D03*
X135636000Y-321437000D03*
X138176000Y-321437000D03*
X140716000Y-321437000D03*
X143256000Y-321437000D03*
X145796000Y-321437000D03*
X148336000Y-321437000D03*
X150876000Y-321437000D03*
X153416000Y-321437000D03*
%TD*%
%TO.C,U17*%
X125984000Y-312547000D03*
X123444000Y-312547000D03*
X120904000Y-312547000D03*
X118364000Y-312547000D03*
X115824000Y-312547000D03*
X113284000Y-312547000D03*
X110744000Y-312547000D03*
X108204000Y-312547000D03*
X105664000Y-312547000D03*
X103124000Y-312547000D03*
X103124000Y-321437000D03*
X105664000Y-321437000D03*
X108204000Y-321437000D03*
X110744000Y-321437000D03*
X113284000Y-321437000D03*
X115824000Y-321437000D03*
X118364000Y-321437000D03*
X120904000Y-321437000D03*
X123444000Y-321437000D03*
X125984000Y-321437000D03*
%TD*%
%TO.C,U16*%
X98552000Y-312547000D03*
X96012000Y-312547000D03*
X93472000Y-312547000D03*
X90932000Y-312547000D03*
X88392000Y-312547000D03*
X85852000Y-312547000D03*
X83312000Y-312547000D03*
X80772000Y-312547000D03*
X78232000Y-312547000D03*
X75692000Y-312547000D03*
X75692000Y-321437000D03*
X78232000Y-321437000D03*
X80772000Y-321437000D03*
X83312000Y-321437000D03*
X85852000Y-321437000D03*
X88392000Y-321437000D03*
X90932000Y-321437000D03*
X93472000Y-321437000D03*
X96012000Y-321437000D03*
X98552000Y-321437000D03*
%TD*%
%TO.C,U15*%
X153416000Y-325247000D03*
X150876000Y-325247000D03*
X148336000Y-325247000D03*
X145796000Y-325247000D03*
X143256000Y-325247000D03*
X140716000Y-325247000D03*
X138176000Y-325247000D03*
X135636000Y-325247000D03*
X133096000Y-325247000D03*
X130556000Y-325247000D03*
X130556000Y-334137000D03*
X133096000Y-334137000D03*
X135636000Y-334137000D03*
X138176000Y-334137000D03*
X140716000Y-334137000D03*
X143256000Y-334137000D03*
X145796000Y-334137000D03*
X148336000Y-334137000D03*
X150876000Y-334137000D03*
X153416000Y-334137000D03*
%TD*%
%TO.C,U14*%
X125984000Y-325247000D03*
X123444000Y-325247000D03*
X120904000Y-325247000D03*
X118364000Y-325247000D03*
X115824000Y-325247000D03*
X113284000Y-325247000D03*
X110744000Y-325247000D03*
X108204000Y-325247000D03*
X105664000Y-325247000D03*
X103124000Y-325247000D03*
X103124000Y-334137000D03*
X105664000Y-334137000D03*
X108204000Y-334137000D03*
X110744000Y-334137000D03*
X113284000Y-334137000D03*
X115824000Y-334137000D03*
X118364000Y-334137000D03*
X120904000Y-334137000D03*
X123444000Y-334137000D03*
X125984000Y-334137000D03*
%TD*%
%TO.C,U13*%
X98552000Y-325247000D03*
X96012000Y-325247000D03*
X93472000Y-325247000D03*
X90932000Y-325247000D03*
X88392000Y-325247000D03*
X85852000Y-325247000D03*
X83312000Y-325247000D03*
X80772000Y-325247000D03*
X78232000Y-325247000D03*
X75692000Y-325247000D03*
X75692000Y-334137000D03*
X78232000Y-334137000D03*
X80772000Y-334137000D03*
X83312000Y-334137000D03*
X85852000Y-334137000D03*
X88392000Y-334137000D03*
X90932000Y-334137000D03*
X93472000Y-334137000D03*
X96012000Y-334137000D03*
X98552000Y-334137000D03*
%TD*%
%TO.C,U12*%
X130556000Y-346837000D03*
X133096000Y-346837000D03*
X135636000Y-346837000D03*
X138176000Y-346837000D03*
X140716000Y-346837000D03*
X143256000Y-346837000D03*
X145796000Y-346837000D03*
X148336000Y-346837000D03*
X150876000Y-346837000D03*
X153416000Y-346837000D03*
X153416000Y-337947000D03*
X150876000Y-337947000D03*
X148336000Y-337947000D03*
X145796000Y-337947000D03*
X143256000Y-337947000D03*
X140716000Y-337947000D03*
X138176000Y-337947000D03*
X135636000Y-337947000D03*
X133096000Y-337947000D03*
X130556000Y-337947000D03*
%TD*%
%TO.C,U11*%
X103124000Y-346837000D03*
X105664000Y-346837000D03*
X108204000Y-346837000D03*
X110744000Y-346837000D03*
X113284000Y-346837000D03*
X115824000Y-346837000D03*
X118364000Y-346837000D03*
X120904000Y-346837000D03*
X123444000Y-346837000D03*
X125984000Y-346837000D03*
X125984000Y-337947000D03*
X123444000Y-337947000D03*
X120904000Y-337947000D03*
X118364000Y-337947000D03*
X115824000Y-337947000D03*
X113284000Y-337947000D03*
X110744000Y-337947000D03*
X108204000Y-337947000D03*
X105664000Y-337947000D03*
X103124000Y-337947000D03*
%TD*%
%TO.C,U10*%
X75692000Y-346837000D03*
X78232000Y-346837000D03*
X80772000Y-346837000D03*
X83312000Y-346837000D03*
X85852000Y-346837000D03*
X88392000Y-346837000D03*
X90932000Y-346837000D03*
X93472000Y-346837000D03*
X96012000Y-346837000D03*
X98552000Y-346837000D03*
X98552000Y-337947000D03*
X96012000Y-337947000D03*
X93472000Y-337947000D03*
X90932000Y-337947000D03*
X88392000Y-337947000D03*
X85852000Y-337947000D03*
X83312000Y-337947000D03*
X80772000Y-337947000D03*
X78232000Y-337947000D03*
X75692000Y-337947000D03*
%TD*%
%TO.C,U9*%
X48260000Y-346710000D03*
X50800000Y-346710000D03*
X53340000Y-346710000D03*
X55880000Y-346710000D03*
X58420000Y-346710000D03*
X60960000Y-346710000D03*
X63500000Y-346710000D03*
X66040000Y-346710000D03*
X68580000Y-346710000D03*
X71120000Y-346710000D03*
X71120000Y-337820000D03*
X68580000Y-337820000D03*
X66040000Y-337820000D03*
X63500000Y-337820000D03*
X60960000Y-337820000D03*
X58420000Y-337820000D03*
X55880000Y-337820000D03*
X53340000Y-337820000D03*
X50800000Y-337820000D03*
X48260000Y-337820000D03*
%TD*%
%TO.C,U8*%
X130556000Y-359537000D03*
X133096000Y-359537000D03*
X135636000Y-359537000D03*
X138176000Y-359537000D03*
X140716000Y-359537000D03*
X143256000Y-359537000D03*
X145796000Y-359537000D03*
X148336000Y-359537000D03*
X150876000Y-359537000D03*
X153416000Y-359537000D03*
X153416000Y-350647000D03*
X150876000Y-350647000D03*
X148336000Y-350647000D03*
X145796000Y-350647000D03*
X143256000Y-350647000D03*
X140716000Y-350647000D03*
X138176000Y-350647000D03*
X135636000Y-350647000D03*
X133096000Y-350647000D03*
X130556000Y-350647000D03*
%TD*%
%TO.C,U7*%
X103124000Y-359537000D03*
X105664000Y-359537000D03*
X108204000Y-359537000D03*
X110744000Y-359537000D03*
X113284000Y-359537000D03*
X115824000Y-359537000D03*
X118364000Y-359537000D03*
X120904000Y-359537000D03*
X123444000Y-359537000D03*
X125984000Y-359537000D03*
X125984000Y-350647000D03*
X123444000Y-350647000D03*
X120904000Y-350647000D03*
X118364000Y-350647000D03*
X115824000Y-350647000D03*
X113284000Y-350647000D03*
X110744000Y-350647000D03*
X108204000Y-350647000D03*
X105664000Y-350647000D03*
X103124000Y-350647000D03*
%TD*%
%TO.C,U6*%
X75692000Y-359537000D03*
X78232000Y-359537000D03*
X80772000Y-359537000D03*
X83312000Y-359537000D03*
X85852000Y-359537000D03*
X88392000Y-359537000D03*
X90932000Y-359537000D03*
X93472000Y-359537000D03*
X96012000Y-359537000D03*
X98552000Y-359537000D03*
X98552000Y-350647000D03*
X96012000Y-350647000D03*
X93472000Y-350647000D03*
X90932000Y-350647000D03*
X88392000Y-350647000D03*
X85852000Y-350647000D03*
X83312000Y-350647000D03*
X80772000Y-350647000D03*
X78232000Y-350647000D03*
X75692000Y-350647000D03*
%TD*%
%TO.C,U5*%
X48260000Y-359410000D03*
X50800000Y-359410000D03*
X53340000Y-359410000D03*
X55880000Y-359410000D03*
X58420000Y-359410000D03*
X60960000Y-359410000D03*
X63500000Y-359410000D03*
X66040000Y-359410000D03*
X68580000Y-359410000D03*
X71120000Y-359410000D03*
X71120000Y-350520000D03*
X68580000Y-350520000D03*
X66040000Y-350520000D03*
X63500000Y-350520000D03*
X60960000Y-350520000D03*
X58420000Y-350520000D03*
X55880000Y-350520000D03*
X53340000Y-350520000D03*
X50800000Y-350520000D03*
X48260000Y-350520000D03*
%TD*%
D11*
%TO.C,J8*%
X54610000Y-364236000D03*
D12*
X57150000Y-364236000D03*
X59690000Y-364236000D03*
X62230000Y-364236000D03*
X64770000Y-364236000D03*
X67310000Y-364236000D03*
X69850000Y-364236000D03*
X72390000Y-364236000D03*
X74930000Y-364236000D03*
X77470000Y-364236000D03*
X80010000Y-364236000D03*
X82550000Y-364236000D03*
X85090000Y-364236000D03*
X87630000Y-364236000D03*
X90170000Y-364236000D03*
X92710000Y-364236000D03*
X95250000Y-364236000D03*
X97790000Y-364236000D03*
X100330000Y-364236000D03*
X102870000Y-364236000D03*
X105410000Y-364236000D03*
X107950000Y-364236000D03*
X110490000Y-364236000D03*
X113030000Y-364236000D03*
X115570000Y-364236000D03*
X118110000Y-364236000D03*
X120650000Y-364236000D03*
X123190000Y-364236000D03*
X125730000Y-364236000D03*
X128270000Y-364236000D03*
X130810000Y-364236000D03*
X133350000Y-364236000D03*
X135890000Y-364236000D03*
X138430000Y-364236000D03*
X140970000Y-364236000D03*
X143510000Y-364236000D03*
X146050000Y-364236000D03*
X148590000Y-364236000D03*
X151130000Y-364236000D03*
X153670000Y-364236000D03*
%TD*%
D11*
%TO.C,J7*%
X54610000Y-369316000D03*
D12*
X57150000Y-369316000D03*
X59690000Y-369316000D03*
X62230000Y-369316000D03*
X64770000Y-369316000D03*
X67310000Y-369316000D03*
X69850000Y-369316000D03*
X72390000Y-369316000D03*
X74930000Y-369316000D03*
X77470000Y-369316000D03*
X80010000Y-369316000D03*
X82550000Y-369316000D03*
X85090000Y-369316000D03*
X87630000Y-369316000D03*
X90170000Y-369316000D03*
X92710000Y-369316000D03*
X95250000Y-369316000D03*
X97790000Y-369316000D03*
X100330000Y-369316000D03*
X102870000Y-369316000D03*
X105410000Y-369316000D03*
X107950000Y-369316000D03*
X110490000Y-369316000D03*
X113030000Y-369316000D03*
X115570000Y-369316000D03*
X118110000Y-369316000D03*
X120650000Y-369316000D03*
X123190000Y-369316000D03*
X125730000Y-369316000D03*
X128270000Y-369316000D03*
X130810000Y-369316000D03*
X133350000Y-369316000D03*
X135890000Y-369316000D03*
X138430000Y-369316000D03*
X140970000Y-369316000D03*
X143510000Y-369316000D03*
X146050000Y-369316000D03*
X148590000Y-369316000D03*
X151130000Y-369316000D03*
X153670000Y-369316000D03*
%TD*%
D11*
%TO.C,J6*%
X128270000Y-308610000D03*
D12*
X130810000Y-308610000D03*
X133350000Y-308610000D03*
X135890000Y-308610000D03*
X138430000Y-308610000D03*
X140970000Y-308610000D03*
X143510000Y-308610000D03*
X146050000Y-308610000D03*
X148590000Y-308610000D03*
X151130000Y-308610000D03*
%TD*%
D11*
%TO.C,J5*%
X100330000Y-308610000D03*
D12*
X102870000Y-308610000D03*
X105410000Y-308610000D03*
X107950000Y-308610000D03*
X110490000Y-308610000D03*
X113030000Y-308610000D03*
X115570000Y-308610000D03*
X118110000Y-308610000D03*
X120650000Y-308610000D03*
X123190000Y-308610000D03*
%TD*%
D11*
%TO.C,J4*%
X72390000Y-308610000D03*
D12*
X74930000Y-308610000D03*
X77470000Y-308610000D03*
X80010000Y-308610000D03*
X82550000Y-308610000D03*
X85090000Y-308610000D03*
X87630000Y-308610000D03*
X90170000Y-308610000D03*
X92710000Y-308610000D03*
X95250000Y-308610000D03*
%TD*%
D11*
%TO.C,J3*%
X44450000Y-308610000D03*
D12*
X46990000Y-308610000D03*
X49530000Y-308610000D03*
X52070000Y-308610000D03*
X54610000Y-308610000D03*
X57150000Y-308610000D03*
X59690000Y-308610000D03*
X62230000Y-308610000D03*
X64770000Y-308610000D03*
X67310000Y-308610000D03*
%TD*%
D11*
%TO.C,J2*%
X52070000Y-293370000D03*
D12*
X54610000Y-293370000D03*
X57150000Y-293370000D03*
X59690000Y-293370000D03*
X62230000Y-293370000D03*
X64770000Y-293370000D03*
X67310000Y-293370000D03*
X69850000Y-293370000D03*
X72390000Y-293370000D03*
X74930000Y-293370000D03*
X77470000Y-293370000D03*
X80010000Y-293370000D03*
X82550000Y-293370000D03*
X85090000Y-293370000D03*
X87630000Y-293370000D03*
X90170000Y-293370000D03*
X92710000Y-293370000D03*
X95250000Y-293370000D03*
X97790000Y-293370000D03*
X100330000Y-293370000D03*
X102870000Y-293370000D03*
X105410000Y-293370000D03*
X107950000Y-293370000D03*
X110490000Y-293370000D03*
X113030000Y-293370000D03*
X115570000Y-293370000D03*
X118110000Y-293370000D03*
X120650000Y-293370000D03*
X123190000Y-293370000D03*
X125730000Y-293370000D03*
X128270000Y-293370000D03*
X130810000Y-293370000D03*
X133350000Y-293370000D03*
X135890000Y-293370000D03*
X138430000Y-293370000D03*
X140970000Y-293370000D03*
X143510000Y-293370000D03*
X146050000Y-293370000D03*
X148590000Y-293370000D03*
X151130000Y-293370000D03*
%TD*%
D11*
%TO.C,J1*%
X54610000Y-374396000D03*
D12*
X57150000Y-374396000D03*
X59690000Y-374396000D03*
X62230000Y-374396000D03*
X64770000Y-374396000D03*
X67310000Y-374396000D03*
X69850000Y-374396000D03*
X72390000Y-374396000D03*
X74930000Y-374396000D03*
X77470000Y-374396000D03*
X80010000Y-374396000D03*
X82550000Y-374396000D03*
X85090000Y-374396000D03*
X87630000Y-374396000D03*
X90170000Y-374396000D03*
X92710000Y-374396000D03*
X95250000Y-374396000D03*
X97790000Y-374396000D03*
X100330000Y-374396000D03*
X102870000Y-374396000D03*
X105410000Y-374396000D03*
X107950000Y-374396000D03*
X110490000Y-374396000D03*
X113030000Y-374396000D03*
X115570000Y-374396000D03*
X118110000Y-374396000D03*
X120650000Y-374396000D03*
X123190000Y-374396000D03*
X125730000Y-374396000D03*
X128270000Y-374396000D03*
X130810000Y-374396000D03*
X133350000Y-374396000D03*
X135890000Y-374396000D03*
X138430000Y-374396000D03*
X140970000Y-374396000D03*
X143510000Y-374396000D03*
X146050000Y-374396000D03*
X148590000Y-374396000D03*
X151130000Y-374396000D03*
X153670000Y-374396000D03*
%TD*%
D13*
%TO.C,U4*%
X175514000Y-334186000D03*
X174244000Y-334186000D03*
X172974000Y-334186000D03*
X171704000Y-334186000D03*
X170434000Y-334186000D03*
X169164000Y-334186000D03*
X167894000Y-334186000D03*
X166624000Y-334186000D03*
X165354000Y-334186000D03*
X164084000Y-334186000D03*
X164084000Y-343486000D03*
X165354000Y-343486000D03*
X166624000Y-343486000D03*
X167894000Y-343486000D03*
X169164000Y-343486000D03*
X170434000Y-343486000D03*
X171704000Y-343486000D03*
X172974000Y-343486000D03*
X174244000Y-343486000D03*
X175514000Y-343486000D03*
%TD*%
D14*
%TO.C,RN1*%
X159639000Y-310627000D03*
D15*
X159639000Y-313167000D03*
X159639000Y-315707000D03*
X159639000Y-318247000D03*
X159639000Y-320787000D03*
X159639000Y-323327000D03*
X159639000Y-325867000D03*
X159639000Y-328407000D03*
X159639000Y-330947000D03*
%TD*%
D16*
%TO.C,SW1*%
X183642000Y-316282000D03*
X178562000Y-322782000D03*
X178562000Y-316282000D03*
X183642000Y-322782000D03*
X181102000Y-316282000D03*
X181102000Y-322782000D03*
%TD*%
D10*
%TO.C,U2*%
X71120000Y-312420000D03*
X68580000Y-312420000D03*
X66040000Y-312420000D03*
X63500000Y-312420000D03*
X60960000Y-312420000D03*
X58420000Y-312420000D03*
X55880000Y-312420000D03*
X53340000Y-312420000D03*
X50800000Y-312420000D03*
X48260000Y-312420000D03*
X48260000Y-321310000D03*
X50800000Y-321310000D03*
X53340000Y-321310000D03*
X55880000Y-321310000D03*
X58420000Y-321310000D03*
X60960000Y-321310000D03*
X63500000Y-321310000D03*
X66040000Y-321310000D03*
X68580000Y-321310000D03*
X71120000Y-321310000D03*
%TD*%
D16*
%TO.C,SW3*%
X183642000Y-336729000D03*
X178562000Y-343229000D03*
X178562000Y-336729000D03*
X183642000Y-343229000D03*
X181102000Y-336729000D03*
X181102000Y-343229000D03*
%TD*%
D10*
%TO.C,U1*%
X71120000Y-325120000D03*
X68580000Y-325120000D03*
X66040000Y-325120000D03*
X63500000Y-325120000D03*
X60960000Y-325120000D03*
X58420000Y-325120000D03*
X55880000Y-325120000D03*
X53340000Y-325120000D03*
X50800000Y-325120000D03*
X48260000Y-325120000D03*
X48260000Y-334010000D03*
X50800000Y-334010000D03*
X53340000Y-334010000D03*
X55880000Y-334010000D03*
X58420000Y-334010000D03*
X60960000Y-334010000D03*
X63500000Y-334010000D03*
X66040000Y-334010000D03*
X68580000Y-334010000D03*
X71120000Y-334010000D03*
%TD*%
D13*
%TO.C,U3*%
X175387000Y-316279000D03*
X174117000Y-316279000D03*
X172847000Y-316279000D03*
X171577000Y-316279000D03*
X170307000Y-316279000D03*
X169037000Y-316279000D03*
X167767000Y-316279000D03*
X166497000Y-316279000D03*
X165227000Y-316279000D03*
X163957000Y-316279000D03*
X163957000Y-325579000D03*
X165227000Y-325579000D03*
X166497000Y-325579000D03*
X167767000Y-325579000D03*
X169037000Y-325579000D03*
X170307000Y-325579000D03*
X171577000Y-325579000D03*
X172847000Y-325579000D03*
X174117000Y-325579000D03*
X175387000Y-325579000D03*
%TD*%
D14*
%TO.C,RN2*%
X159639000Y-334503000D03*
D15*
X159639000Y-337043000D03*
X159639000Y-339583000D03*
X159639000Y-342123000D03*
X159639000Y-344663000D03*
X159639000Y-347203000D03*
X159639000Y-349743000D03*
X159639000Y-352283000D03*
X159639000Y-354823000D03*
%TD*%
D16*
%TO.C,SW2*%
X183642000Y-326696000D03*
X178562000Y-333196000D03*
X178562000Y-326696000D03*
X183642000Y-333196000D03*
X181102000Y-333196000D03*
X181102000Y-326696000D03*
%TD*%
M02*
