%TF.GenerationSoftware,KiCad,Pcbnew,(6.0.6)*%
%TF.CreationDate,2022-07-29T18:16:28+02:00*%
%TF.ProjectId,csr,6373722e-6b69-4636-9164-5f7063625858,rev?*%
%TF.SameCoordinates,Original*%
%TF.FileFunction,Soldermask,Bot*%
%TF.FilePolarity,Negative*%
%FSLAX46Y46*%
G04 Gerber Fmt 4.6, Leading zero omitted, Abs format (unit mm)*
G04 Created by KiCad (PCBNEW (6.0.6)) date 2022-07-29 18:16:28*
%MOMM*%
%LPD*%
G01*
G04 APERTURE LIST*
%ADD10R,1.700000X1.700000*%
%ADD11O,1.700000X1.700000*%
%ADD12R,1.600000X1.600000*%
%ADD13O,1.600000X1.600000*%
G04 APERTURE END LIST*
D10*
%TO.C,J8*%
X54610000Y-364236000D03*
D11*
X57150000Y-364236000D03*
X59690000Y-364236000D03*
X62230000Y-364236000D03*
X64770000Y-364236000D03*
X67310000Y-364236000D03*
X69850000Y-364236000D03*
X72390000Y-364236000D03*
X74930000Y-364236000D03*
X77470000Y-364236000D03*
X80010000Y-364236000D03*
X82550000Y-364236000D03*
X85090000Y-364236000D03*
X87630000Y-364236000D03*
X90170000Y-364236000D03*
X92710000Y-364236000D03*
X95250000Y-364236000D03*
X97790000Y-364236000D03*
X100330000Y-364236000D03*
X102870000Y-364236000D03*
X105410000Y-364236000D03*
X107950000Y-364236000D03*
X110490000Y-364236000D03*
X113030000Y-364236000D03*
X115570000Y-364236000D03*
X118110000Y-364236000D03*
X120650000Y-364236000D03*
X123190000Y-364236000D03*
X125730000Y-364236000D03*
X128270000Y-364236000D03*
X130810000Y-364236000D03*
X133350000Y-364236000D03*
X135890000Y-364236000D03*
X138430000Y-364236000D03*
X140970000Y-364236000D03*
X143510000Y-364236000D03*
X146050000Y-364236000D03*
X148590000Y-364236000D03*
X151130000Y-364236000D03*
X153670000Y-364236000D03*
%TD*%
D10*
%TO.C,J7*%
X54610000Y-369316000D03*
D11*
X57150000Y-369316000D03*
X59690000Y-369316000D03*
X62230000Y-369316000D03*
X64770000Y-369316000D03*
X67310000Y-369316000D03*
X69850000Y-369316000D03*
X72390000Y-369316000D03*
X74930000Y-369316000D03*
X77470000Y-369316000D03*
X80010000Y-369316000D03*
X82550000Y-369316000D03*
X85090000Y-369316000D03*
X87630000Y-369316000D03*
X90170000Y-369316000D03*
X92710000Y-369316000D03*
X95250000Y-369316000D03*
X97790000Y-369316000D03*
X100330000Y-369316000D03*
X102870000Y-369316000D03*
X105410000Y-369316000D03*
X107950000Y-369316000D03*
X110490000Y-369316000D03*
X113030000Y-369316000D03*
X115570000Y-369316000D03*
X118110000Y-369316000D03*
X120650000Y-369316000D03*
X123190000Y-369316000D03*
X125730000Y-369316000D03*
X128270000Y-369316000D03*
X130810000Y-369316000D03*
X133350000Y-369316000D03*
X135890000Y-369316000D03*
X138430000Y-369316000D03*
X140970000Y-369316000D03*
X143510000Y-369316000D03*
X146050000Y-369316000D03*
X148590000Y-369316000D03*
X151130000Y-369316000D03*
X153670000Y-369316000D03*
%TD*%
D10*
%TO.C,J6*%
X128270000Y-308610000D03*
D11*
X130810000Y-308610000D03*
X133350000Y-308610000D03*
X135890000Y-308610000D03*
X138430000Y-308610000D03*
X140970000Y-308610000D03*
X143510000Y-308610000D03*
X146050000Y-308610000D03*
X148590000Y-308610000D03*
X151130000Y-308610000D03*
%TD*%
D10*
%TO.C,J5*%
X100330000Y-308610000D03*
D11*
X102870000Y-308610000D03*
X105410000Y-308610000D03*
X107950000Y-308610000D03*
X110490000Y-308610000D03*
X113030000Y-308610000D03*
X115570000Y-308610000D03*
X118110000Y-308610000D03*
X120650000Y-308610000D03*
X123190000Y-308610000D03*
%TD*%
D10*
%TO.C,J4*%
X72390000Y-308610000D03*
D11*
X74930000Y-308610000D03*
X77470000Y-308610000D03*
X80010000Y-308610000D03*
X82550000Y-308610000D03*
X85090000Y-308610000D03*
X87630000Y-308610000D03*
X90170000Y-308610000D03*
X92710000Y-308610000D03*
X95250000Y-308610000D03*
%TD*%
D10*
%TO.C,J3*%
X44450000Y-308610000D03*
D11*
X46990000Y-308610000D03*
X49530000Y-308610000D03*
X52070000Y-308610000D03*
X54610000Y-308610000D03*
X57150000Y-308610000D03*
X59690000Y-308610000D03*
X62230000Y-308610000D03*
X64770000Y-308610000D03*
X67310000Y-308610000D03*
%TD*%
D10*
%TO.C,J2*%
X52070000Y-293370000D03*
D11*
X54610000Y-293370000D03*
X57150000Y-293370000D03*
X59690000Y-293370000D03*
X62230000Y-293370000D03*
X64770000Y-293370000D03*
X67310000Y-293370000D03*
X69850000Y-293370000D03*
X72390000Y-293370000D03*
X74930000Y-293370000D03*
X77470000Y-293370000D03*
X80010000Y-293370000D03*
X82550000Y-293370000D03*
X85090000Y-293370000D03*
X87630000Y-293370000D03*
X90170000Y-293370000D03*
X92710000Y-293370000D03*
X95250000Y-293370000D03*
X97790000Y-293370000D03*
X100330000Y-293370000D03*
X102870000Y-293370000D03*
X105410000Y-293370000D03*
X107950000Y-293370000D03*
X110490000Y-293370000D03*
X113030000Y-293370000D03*
X115570000Y-293370000D03*
X118110000Y-293370000D03*
X120650000Y-293370000D03*
X123190000Y-293370000D03*
X125730000Y-293370000D03*
X128270000Y-293370000D03*
X130810000Y-293370000D03*
X133350000Y-293370000D03*
X135890000Y-293370000D03*
X138430000Y-293370000D03*
X140970000Y-293370000D03*
X143510000Y-293370000D03*
X146050000Y-293370000D03*
X148590000Y-293370000D03*
X151130000Y-293370000D03*
%TD*%
D10*
%TO.C,J1*%
X54610000Y-374396000D03*
D11*
X57150000Y-374396000D03*
X59690000Y-374396000D03*
X62230000Y-374396000D03*
X64770000Y-374396000D03*
X67310000Y-374396000D03*
X69850000Y-374396000D03*
X72390000Y-374396000D03*
X74930000Y-374396000D03*
X77470000Y-374396000D03*
X80010000Y-374396000D03*
X82550000Y-374396000D03*
X85090000Y-374396000D03*
X87630000Y-374396000D03*
X90170000Y-374396000D03*
X92710000Y-374396000D03*
X95250000Y-374396000D03*
X97790000Y-374396000D03*
X100330000Y-374396000D03*
X102870000Y-374396000D03*
X105410000Y-374396000D03*
X107950000Y-374396000D03*
X110490000Y-374396000D03*
X113030000Y-374396000D03*
X115570000Y-374396000D03*
X118110000Y-374396000D03*
X120650000Y-374396000D03*
X123190000Y-374396000D03*
X125730000Y-374396000D03*
X128270000Y-374396000D03*
X130810000Y-374396000D03*
X133350000Y-374396000D03*
X135890000Y-374396000D03*
X138430000Y-374396000D03*
X140970000Y-374396000D03*
X143510000Y-374396000D03*
X146050000Y-374396000D03*
X148590000Y-374396000D03*
X151130000Y-374396000D03*
X153670000Y-374396000D03*
%TD*%
D12*
%TO.C,RN1*%
X159639000Y-310627000D03*
D13*
X159639000Y-313167000D03*
X159639000Y-315707000D03*
X159639000Y-318247000D03*
X159639000Y-320787000D03*
X159639000Y-323327000D03*
X159639000Y-325867000D03*
X159639000Y-328407000D03*
X159639000Y-330947000D03*
%TD*%
D12*
%TO.C,RN2*%
X159639000Y-334503000D03*
D13*
X159639000Y-337043000D03*
X159639000Y-339583000D03*
X159639000Y-342123000D03*
X159639000Y-344663000D03*
X159639000Y-347203000D03*
X159639000Y-349743000D03*
X159639000Y-352283000D03*
X159639000Y-354823000D03*
%TD*%
M02*
