%TF.GenerationSoftware,KiCad,Pcbnew,(6.0.9)*%
%TF.CreationDate,2022-12-15T13:56:24+01:00*%
%TF.ProjectId,8view,38766965-772e-46b6-9963-61645f706362,rev?*%
%TF.SameCoordinates,Original*%
%TF.FileFunction,Copper,L1,Top*%
%TF.FilePolarity,Positive*%
%FSLAX46Y46*%
G04 Gerber Fmt 4.6, Leading zero omitted, Abs format (unit mm)*
G04 Created by KiCad (PCBNEW (6.0.9)) date 2022-12-15 13:56:24*
%MOMM*%
%LPD*%
G01*
G04 APERTURE LIST*
G04 Aperture macros list*
%AMRoundRect*
0 Rectangle with rounded corners*
0 $1 Rounding radius*
0 $2 $3 $4 $5 $6 $7 $8 $9 X,Y pos of 4 corners*
0 Add a 4 corners polygon primitive as box body*
4,1,4,$2,$3,$4,$5,$6,$7,$8,$9,$2,$3,0*
0 Add four circle primitives for the rounded corners*
1,1,$1+$1,$2,$3*
1,1,$1+$1,$4,$5*
1,1,$1+$1,$6,$7*
1,1,$1+$1,$8,$9*
0 Add four rect primitives between the rounded corners*
20,1,$1+$1,$2,$3,$4,$5,0*
20,1,$1+$1,$4,$5,$6,$7,0*
20,1,$1+$1,$6,$7,$8,$9,0*
20,1,$1+$1,$8,$9,$2,$3,0*%
G04 Aperture macros list end*
%TA.AperFunction,SMDPad,CuDef*%
%ADD10RoundRect,0.225000X-0.225000X-0.250000X0.225000X-0.250000X0.225000X0.250000X-0.225000X0.250000X0*%
%TD*%
%TA.AperFunction,SMDPad,CuDef*%
%ADD11RoundRect,0.135000X-0.185000X0.135000X-0.185000X-0.135000X0.185000X-0.135000X0.185000X0.135000X0*%
%TD*%
%TA.AperFunction,SMDPad,CuDef*%
%ADD12RoundRect,0.135000X0.185000X-0.135000X0.185000X0.135000X-0.185000X0.135000X-0.185000X-0.135000X0*%
%TD*%
%TA.AperFunction,ComponentPad*%
%ADD13R,1.700000X1.700000*%
%TD*%
%TA.AperFunction,ComponentPad*%
%ADD14O,1.700000X1.700000*%
%TD*%
%TA.AperFunction,SMDPad,CuDef*%
%ADD15RoundRect,0.218750X0.256250X-0.218750X0.256250X0.218750X-0.256250X0.218750X-0.256250X-0.218750X0*%
%TD*%
%TA.AperFunction,ComponentPad*%
%ADD16R,1.600000X1.600000*%
%TD*%
%TA.AperFunction,ComponentPad*%
%ADD17C,1.600000*%
%TD*%
%TA.AperFunction,SMDPad,CuDef*%
%ADD18R,0.550000X1.600000*%
%TD*%
%TA.AperFunction,SMDPad,CuDef*%
%ADD19R,1.600000X0.550000*%
%TD*%
%TA.AperFunction,SMDPad,CuDef*%
%ADD20R,1.000001X0.299999*%
%TD*%
%TA.AperFunction,SMDPad,CuDef*%
%ADD21R,1.300000X1.649999*%
%TD*%
%TA.AperFunction,ViaPad*%
%ADD22C,0.800000*%
%TD*%
%TA.AperFunction,Conductor*%
%ADD23C,0.250000*%
%TD*%
%TA.AperFunction,Conductor*%
%ADD24C,0.400000*%
%TD*%
%TA.AperFunction,Conductor*%
%ADD25C,0.300000*%
%TD*%
%TA.AperFunction,Conductor*%
%ADD26C,0.200000*%
%TD*%
G04 APERTURE END LIST*
D10*
%TO.P,C2,1*%
%TO.N,+5V*%
X139925000Y-134900000D03*
%TO.P,C2,2*%
%TO.N,GND*%
X141475000Y-134900000D03*
%TD*%
%TO.P,C1,1*%
%TO.N,+5V*%
X153675000Y-134900000D03*
%TO.P,C1,2*%
%TO.N,GND*%
X155225000Y-134900000D03*
%TD*%
D11*
%TO.P,R10,1*%
%TO.N,Net-(R9-Pad2)*%
X136800000Y-134290000D03*
%TO.P,R10,2*%
%TO.N,/ISP_RST*%
X136800000Y-135310000D03*
%TD*%
D12*
%TO.P,R12,1*%
%TO.N,/D1_I2*%
X137668000Y-128018000D03*
%TO.P,R12,2*%
%TO.N,Net-(R12-Pad2)*%
X137668000Y-126998000D03*
%TD*%
%TO.P,R13,1*%
%TO.N,/D1_I3*%
X137668000Y-130558000D03*
%TO.P,R13,2*%
%TO.N,Net-(R13-Pad2)*%
X137668000Y-129538000D03*
%TD*%
D13*
%TO.P,J1,1,Pin_1*%
%TO.N,/in0*%
X138430000Y-118364000D03*
D14*
%TO.P,J1,2,Pin_2*%
%TO.N,/in1*%
X140970000Y-118364000D03*
%TO.P,J1,3,Pin_3*%
%TO.N,/in2*%
X143510000Y-118364000D03*
%TO.P,J1,4,Pin_4*%
%TO.N,/in3*%
X146050000Y-118364000D03*
%TO.P,J1,5,Pin_5*%
%TO.N,/in4*%
X148590000Y-118364000D03*
%TO.P,J1,6,Pin_6*%
%TO.N,/in5*%
X151130000Y-118364000D03*
%TO.P,J1,7,Pin_7*%
%TO.N,/in6*%
X153670000Y-118364000D03*
%TO.P,J1,8,Pin_8*%
%TO.N,/in7*%
X156210000Y-118364000D03*
%TD*%
D15*
%TO.P,D4,1,K*%
%TO.N,GND*%
X146050000Y-147345500D03*
%TO.P,D4,2,A*%
%TO.N,Net-(D4-Pad2)*%
X146050000Y-145770500D03*
%TD*%
D12*
%TO.P,R6,1*%
%TO.N,Net-(D6-Pad2)*%
X149800000Y-147550000D03*
%TO.P,R6,2*%
%TO.N,/in5*%
X149800000Y-146530000D03*
%TD*%
D16*
%TO.P,U2,1,CA*%
%TO.N,+5V*%
X140788500Y-122174000D03*
D17*
%TO.P,U2,2,F*%
%TO.N,Net-(R16-Pad2)*%
X140788500Y-124714000D03*
%TO.P,U2,3,G*%
%TO.N,Net-(R17-Pad2)*%
X140788500Y-127254000D03*
%TO.P,U2,4,E*%
%TO.N,Net-(R15-Pad2)*%
X140788500Y-129794000D03*
%TO.P,U2,5,D*%
%TO.N,Net-(R14-Pad2)*%
X140788500Y-132334000D03*
%TO.P,U2,6,CA*%
%TO.N,+5V*%
X145868500Y-132334000D03*
%TO.P,U2,7,DP*%
%TO.N,Net-(R18-Pad2)*%
X145868500Y-129794000D03*
%TO.P,U2,8,C*%
%TO.N,Net-(R13-Pad2)*%
X145868500Y-127254000D03*
%TO.P,U2,9,B*%
%TO.N,Net-(R12-Pad2)*%
X145868500Y-124714000D03*
%TO.P,U2,10,A*%
%TO.N,Net-(R11-Pad2)*%
X145868500Y-122174000D03*
%TD*%
D18*
%TO.P,U1,1,PC2*%
%TO.N,/in2*%
X144774000Y-143696000D03*
%TO.P,U1,2,PC3*%
%TO.N,/in3*%
X145574000Y-143696000D03*
%TO.P,U1,3,PC4*%
%TO.N,/in4*%
X146374000Y-143696000D03*
%TO.P,U1,4,VCC*%
%TO.N,+5V*%
X147174000Y-143696000D03*
%TO.P,U1,5,GND*%
%TO.N,GND*%
X147974000Y-143696000D03*
%TO.P,U1,6,PC5*%
%TO.N,/in5*%
X148774000Y-143696000D03*
%TO.P,U1,7,PC6*%
%TO.N,/in6*%
X149574000Y-143696000D03*
%TO.P,U1,8,PC7*%
%TO.N,/in7*%
X150374000Y-143696000D03*
D19*
%TO.P,U1,9,PA0*%
%TO.N,/D1_I1*%
X151824000Y-142246000D03*
%TO.P,U1,10,PA1*%
%TO.N,/D1_I6*%
X151824000Y-141446000D03*
%TO.P,U1,11,PA2*%
%TO.N,/D1_I2*%
X151824000Y-140646000D03*
%TO.P,U1,12,PA3*%
%TO.N,/D1_I7*%
X151824000Y-139846000D03*
%TO.P,U1,13,PA4*%
%TO.N,/D1_I3*%
X151824000Y-139046000D03*
%TO.P,U1,14,PA5*%
%TO.N,/D1_I5*%
X151824000Y-138246000D03*
%TO.P,U1,15,PA6*%
%TO.N,/D1_I8*%
X151824000Y-137446000D03*
%TO.P,U1,16,PA7*%
%TO.N,/D1_I4*%
X151824000Y-136646000D03*
D18*
%TO.P,U1,17,PB0*%
%TO.N,/D2_I7*%
X150374000Y-135196000D03*
%TO.P,U1,18,AVCC*%
%TO.N,+5V*%
X149574000Y-135196000D03*
%TO.P,U1,19,PB1*%
%TO.N,/D2_I8*%
X148774000Y-135196000D03*
%TO.P,U1,20,PB2*%
%TO.N,/D2_I5*%
X147974000Y-135196000D03*
%TO.P,U1,21,GND*%
%TO.N,GND*%
X147174000Y-135196000D03*
%TO.P,U1,22,PB3*%
%TO.N,/D2_I4*%
X146374000Y-135196000D03*
%TO.P,U1,23,PB4*%
%TO.N,/D2_I6*%
X145574000Y-135196000D03*
%TO.P,U1,24,PB5*%
%TO.N,/D2_I3*%
X144774000Y-135196000D03*
D19*
%TO.P,U1,25,PB6*%
%TO.N,/D2_I1*%
X143324000Y-136646000D03*
%TO.P,U1,26,PB7*%
%TO.N,/D2_I2*%
X143324000Y-137446000D03*
%TO.P,U1,27,PD0*%
%TO.N,/ISP_MOSI*%
X143324000Y-138246000D03*
%TO.P,U1,28,PD1*%
%TO.N,/ISP_MISO*%
X143324000Y-139046000D03*
%TO.P,U1,29,PD2/~{RESET}*%
%TO.N,/ISP_RST*%
X143324000Y-139846000D03*
%TO.P,U1,30,PD3*%
%TO.N,/ISP_SCK*%
X143324000Y-140646000D03*
%TO.P,U1,31,PC0*%
%TO.N,/in0*%
X143324000Y-141446000D03*
%TO.P,U1,32,PC1*%
%TO.N,/in1*%
X143324000Y-142246000D03*
%TD*%
D12*
%TO.P,R25,1*%
%TO.N,/D2_I7*%
X157480000Y-130304000D03*
%TO.P,R25,2*%
%TO.N,Net-(R25-Pad2)*%
X157480000Y-129284000D03*
%TD*%
%TO.P,R23,1*%
%TO.N,/D2_I5*%
X157480000Y-132844000D03*
%TO.P,R23,2*%
%TO.N,Net-(R23-Pad2)*%
X157480000Y-131824000D03*
%TD*%
%TO.P,R21,1*%
%TO.N,/D2_I3*%
X156464000Y-127764000D03*
%TO.P,R21,2*%
%TO.N,Net-(R21-Pad2)*%
X156464000Y-126744000D03*
%TD*%
%TO.P,R24,1*%
%TO.N,/D2_I6*%
X157480000Y-127764000D03*
%TO.P,R24,2*%
%TO.N,Net-(R24-Pad2)*%
X157480000Y-126744000D03*
%TD*%
%TO.P,R7,1*%
%TO.N,Net-(D7-Pad2)*%
X152340000Y-147548000D03*
%TO.P,R7,2*%
%TO.N,/in6*%
X152340000Y-146528000D03*
%TD*%
%TO.P,R8,1*%
%TO.N,Net-(D8-Pad2)*%
X154880000Y-147550000D03*
%TO.P,R8,2*%
%TO.N,/in7*%
X154880000Y-146530000D03*
%TD*%
D20*
%TO.P,J4,1,Pin_1*%
%TO.N,GND*%
X140583999Y-138957997D03*
%TO.P,J4,2,Pin_2*%
%TO.N,/ISP_RST*%
X140583999Y-139457999D03*
%TO.P,J4,3,Pin_3*%
%TO.N,/ISP_MOSI*%
X140583999Y-139957998D03*
%TO.P,J4,4,Pin_4*%
%TO.N,/ISP_SCK*%
X140583999Y-140457999D03*
%TO.P,J4,5,Pin_5*%
%TO.N,+5V*%
X140583999Y-140957999D03*
%TO.P,J4,6,Pin_6*%
%TO.N,/ISP_MISO*%
X140583999Y-141458000D03*
D21*
%TO.P,J4,MP1*%
%TO.N,N/C*%
X138684000Y-136683001D03*
%TO.P,J4,MP2*%
X138684000Y-143732999D03*
%TD*%
D12*
%TO.P,R26,1*%
%TO.N,/D2_I8*%
X156464000Y-130304000D03*
%TO.P,R26,2*%
%TO.N,Net-(R26-Pad2)*%
X156464000Y-129284000D03*
%TD*%
%TO.P,R11,1*%
%TO.N,/D1_I1*%
X137668000Y-125478000D03*
%TO.P,R11,2*%
%TO.N,Net-(R11-Pad2)*%
X137668000Y-124458000D03*
%TD*%
D15*
%TO.P,D1,1,K*%
%TO.N,GND*%
X138430000Y-147345500D03*
%TO.P,D1,2,A*%
%TO.N,Net-(D1-Pad2)*%
X138430000Y-145770500D03*
%TD*%
D12*
%TO.P,R1,1*%
%TO.N,Net-(D1-Pad2)*%
X137100000Y-147550000D03*
%TO.P,R1,2*%
%TO.N,/in0*%
X137100000Y-146530000D03*
%TD*%
%TO.P,R19,1*%
%TO.N,/D2_I1*%
X157480000Y-125224000D03*
%TO.P,R19,2*%
%TO.N,Net-(R19-Pad2)*%
X157480000Y-124204000D03*
%TD*%
D20*
%TO.P,J3,1,Pin_1*%
%TO.N,/ISP_MISO*%
X154310001Y-141427002D03*
%TO.P,J3,2,Pin_2*%
%TO.N,+5V*%
X154310001Y-140927000D03*
%TO.P,J3,3,Pin_3*%
%TO.N,/ISP_SCK*%
X154310001Y-140427001D03*
%TO.P,J3,4,Pin_4*%
%TO.N,/ISP_MOSI*%
X154310001Y-139927000D03*
%TO.P,J3,5,Pin_5*%
%TO.N,/ISP_RST*%
X154310001Y-139427000D03*
%TO.P,J3,6,Pin_6*%
%TO.N,GND*%
X154310001Y-138926999D03*
D21*
%TO.P,J3,MP1*%
%TO.N,N/C*%
X156210000Y-143701998D03*
%TO.P,J3,MP2*%
X156210000Y-136652000D03*
%TD*%
D12*
%TO.P,R2,1*%
%TO.N,Net-(D2-Pad2)*%
X139640000Y-147548000D03*
%TO.P,R2,2*%
%TO.N,/in1*%
X139640000Y-146528000D03*
%TD*%
%TO.P,R20,1*%
%TO.N,/D2_I2*%
X156464000Y-125224000D03*
%TO.P,R20,2*%
%TO.N,Net-(R20-Pad2)*%
X156464000Y-124204000D03*
%TD*%
D15*
%TO.P,D5,1,K*%
%TO.N,GND*%
X148590000Y-147345500D03*
%TO.P,D5,2,A*%
%TO.N,Net-(D5-Pad2)*%
X148590000Y-145770500D03*
%TD*%
D12*
%TO.P,R4,1*%
%TO.N,Net-(D4-Pad2)*%
X144720000Y-147550000D03*
%TO.P,R4,2*%
%TO.N,/in3*%
X144720000Y-146530000D03*
%TD*%
D16*
%TO.P,U3,1,CA*%
%TO.N,+5V*%
X149098000Y-122174000D03*
D17*
%TO.P,U3,2,F*%
%TO.N,Net-(R24-Pad2)*%
X149098000Y-124714000D03*
%TO.P,U3,3,G*%
%TO.N,Net-(R25-Pad2)*%
X149098000Y-127254000D03*
%TO.P,U3,4,E*%
%TO.N,Net-(R23-Pad2)*%
X149098000Y-129794000D03*
%TO.P,U3,5,D*%
%TO.N,Net-(R22-Pad2)*%
X149098000Y-132334000D03*
%TO.P,U3,6,CA*%
%TO.N,+5V*%
X154178000Y-132334000D03*
%TO.P,U3,7,DP*%
%TO.N,Net-(R26-Pad2)*%
X154178000Y-129794000D03*
%TO.P,U3,8,C*%
%TO.N,Net-(R21-Pad2)*%
X154178000Y-127254000D03*
%TO.P,U3,9,B*%
%TO.N,Net-(R20-Pad2)*%
X154178000Y-124714000D03*
%TO.P,U3,10,A*%
%TO.N,Net-(R19-Pad2)*%
X154178000Y-122174000D03*
%TD*%
D12*
%TO.P,R17,1*%
%TO.N,/D1_I7*%
X138684000Y-128018000D03*
%TO.P,R17,2*%
%TO.N,Net-(R17-Pad2)*%
X138684000Y-126998000D03*
%TD*%
%TO.P,R14,1*%
%TO.N,/D1_I4*%
X138684000Y-133352000D03*
%TO.P,R14,2*%
%TO.N,Net-(R14-Pad2)*%
X138684000Y-132332000D03*
%TD*%
%TO.P,R16,1*%
%TO.N,/D1_I6*%
X138684000Y-125478000D03*
%TO.P,R16,2*%
%TO.N,Net-(R16-Pad2)*%
X138684000Y-124458000D03*
%TD*%
%TO.P,R5,1*%
%TO.N,Net-(D5-Pad2)*%
X147260000Y-147550000D03*
%TO.P,R5,2*%
%TO.N,/in4*%
X147260000Y-146530000D03*
%TD*%
D15*
%TO.P,D6,1,K*%
%TO.N,GND*%
X151130000Y-147345500D03*
%TO.P,D6,2,A*%
%TO.N,Net-(D6-Pad2)*%
X151130000Y-145770500D03*
%TD*%
D12*
%TO.P,R3,1*%
%TO.N,Net-(D3-Pad2)*%
X142180000Y-147550000D03*
%TO.P,R3,2*%
%TO.N,/in2*%
X142180000Y-146530000D03*
%TD*%
%TO.P,R22,1*%
%TO.N,/D2_I4*%
X156464000Y-132844000D03*
%TO.P,R22,2*%
%TO.N,Net-(R22-Pad2)*%
X156464000Y-131824000D03*
%TD*%
D15*
%TO.P,D8,1,K*%
%TO.N,GND*%
X156210000Y-147345500D03*
%TO.P,D8,2,A*%
%TO.N,Net-(D8-Pad2)*%
X156210000Y-145770500D03*
%TD*%
%TO.P,D2,1,K*%
%TO.N,GND*%
X140970000Y-147345500D03*
%TO.P,D2,2,A*%
%TO.N,Net-(D2-Pad2)*%
X140970000Y-145770500D03*
%TD*%
D12*
%TO.P,R18,1*%
%TO.N,/D1_I8*%
X137668000Y-133352000D03*
%TO.P,R18,2*%
%TO.N,Net-(R18-Pad2)*%
X137668000Y-132332000D03*
%TD*%
D15*
%TO.P,D3,1,K*%
%TO.N,GND*%
X143510000Y-147345500D03*
%TO.P,D3,2,A*%
%TO.N,Net-(D3-Pad2)*%
X143510000Y-145770500D03*
%TD*%
D12*
%TO.P,R9,1*%
%TO.N,+5V*%
X137850000Y-135310000D03*
%TO.P,R9,2*%
%TO.N,Net-(R9-Pad2)*%
X137850000Y-134290000D03*
%TD*%
D15*
%TO.P,D7,1,K*%
%TO.N,GND*%
X153670000Y-147345500D03*
%TO.P,D7,2,A*%
%TO.N,Net-(D7-Pad2)*%
X153670000Y-145770500D03*
%TD*%
D12*
%TO.P,R15,1*%
%TO.N,/D1_I5*%
X138684000Y-130558000D03*
%TO.P,R15,2*%
%TO.N,Net-(R15-Pad2)*%
X138684000Y-129538000D03*
%TD*%
D13*
%TO.P,J2,1,Pin_1*%
%TO.N,GND*%
X158750000Y-150876000D03*
D14*
%TO.P,J2,2,Pin_2*%
%TO.N,/in7*%
X156210000Y-150876000D03*
%TO.P,J2,3,Pin_3*%
%TO.N,/in6*%
X153670000Y-150876000D03*
%TO.P,J2,4,Pin_4*%
%TO.N,/in5*%
X151130000Y-150876000D03*
%TO.P,J2,5,Pin_5*%
%TO.N,/in4*%
X148590000Y-150876000D03*
%TO.P,J2,6,Pin_6*%
%TO.N,/in3*%
X146050000Y-150876000D03*
%TO.P,J2,7,Pin_7*%
%TO.N,/in2*%
X143510000Y-150876000D03*
%TO.P,J2,8,Pin_8*%
%TO.N,/in1*%
X140970000Y-150876000D03*
%TO.P,J2,9,Pin_9*%
%TO.N,/in0*%
X138430000Y-150876000D03*
%TO.P,J2,10,Pin_10*%
%TO.N,+5V*%
X135890000Y-150876000D03*
%TD*%
D22*
%TO.N,/D1_I8*%
X136633140Y-125671722D03*
X138796106Y-134498107D03*
%TO.N,GND*%
X141154002Y-135950498D03*
%TO.N,/in0*%
X146147700Y-138758772D03*
X137356128Y-146021329D03*
%TO.N,/in1*%
X139640000Y-146030000D03*
%TO.N,/in2*%
X142230000Y-146051201D03*
%TO.N,/in3*%
X144730000Y-146080000D03*
%TO.N,/in4*%
X147300000Y-146020000D03*
%TO.N,/in5*%
X149881701Y-146021701D03*
%TO.N,/in6*%
X152420000Y-146020000D03*
%TO.N,/in7*%
X154951701Y-146031701D03*
%TO.N,+5V*%
X137160000Y-122682000D03*
X142240000Y-143764000D03*
X136894310Y-140199936D03*
X137720500Y-149300000D03*
X141515500Y-133825500D03*
X153924000Y-142240000D03*
X147691299Y-137296701D03*
X137160000Y-148590000D03*
X157988000Y-119380000D03*
X145110000Y-138758772D03*
%TO.N,GND*%
X138176000Y-120650000D03*
X156464000Y-138176000D03*
X151130000Y-149098000D03*
X140970000Y-149098000D03*
X146050000Y-149098000D03*
X156718000Y-148082000D03*
%TO.N,/ISP_MISO*%
X136899888Y-141230112D03*
X141923974Y-138749702D03*
X156040000Y-141320000D03*
%TO.N,/ISP_SCK*%
X136906064Y-142351446D03*
X156206399Y-140288199D03*
X136888925Y-139200448D03*
%TO.N,/ISP_MOSI*%
X141154502Y-136950000D03*
X136885962Y-143350746D03*
X136899898Y-138156328D03*
X157056175Y-139762002D03*
%TO.N,/ISP_RST*%
X136906019Y-137156844D03*
X155512692Y-138934951D03*
X136893452Y-144362999D03*
%TO.N,Net-(R22-Pad2)*%
X155448000Y-131643500D03*
%TO.N,/D1_I1*%
X137531450Y-126109950D03*
X151299635Y-143002000D03*
X143250000Y-143205500D03*
%TO.N,/D1_I2*%
X140959667Y-142221068D03*
X137363731Y-128678247D03*
X150144500Y-140570501D03*
%TO.N,/D1_I3*%
X150368000Y-139045999D03*
X137690526Y-131284874D03*
%TO.N,/D1_I4*%
X139634668Y-133534668D03*
X152989002Y-136572498D03*
%TO.N,/D1_I5*%
X139678455Y-130825500D03*
X152989002Y-138245999D03*
%TO.N,/D1_I6*%
X139541098Y-125348500D03*
X150144500Y-141570004D03*
%TO.N,/D1_I7*%
X152989002Y-139846001D03*
X139446000Y-127762000D03*
%TO.N,/D1_I8*%
X150368000Y-137442467D03*
%TO.N,/D2_I1*%
X157799302Y-125886882D03*
X142760597Y-136039491D03*
%TO.N,/D2_I2*%
X144526000Y-137414597D03*
X155702000Y-125114500D03*
%TO.N,/D2_I3*%
X144460290Y-133932308D03*
X155463900Y-127806330D03*
%TO.N,/D2_I4*%
X146371573Y-133858000D03*
X155448000Y-133503500D03*
%TO.N,/D2_I5*%
X147965483Y-134091619D03*
X157079898Y-133641500D03*
%TO.N,/D2_I6*%
X157799302Y-128426882D03*
X145573999Y-136398000D03*
%TO.N,/D2_I7*%
X150913500Y-134940299D03*
X157754641Y-130959990D03*
%TO.N,/D2_I8*%
X155518972Y-130194500D03*
X148449354Y-136586048D03*
%TD*%
D23*
%TO.N,/D1_I5*%
X139410955Y-130558000D02*
X138684000Y-130558000D01*
X139678455Y-130825500D02*
X139410955Y-130558000D01*
%TO.N,Net-(R18-Pad2)*%
X137668000Y-132332000D02*
X138450000Y-131550000D01*
X138450000Y-131550000D02*
X139981509Y-131550000D01*
X139981509Y-131550000D02*
X140322509Y-131209000D01*
X144453500Y-131209000D02*
X145868500Y-129794000D01*
X140322509Y-131209000D02*
X144453500Y-131209000D01*
%TO.N,/D1_I3*%
X137690526Y-131284874D02*
X137690526Y-130580526D01*
X137690526Y-130580526D02*
X137668000Y-130558000D01*
%TO.N,/D1_I8*%
X136633140Y-132317140D02*
X136633140Y-125671722D01*
X137668000Y-133352000D02*
X136633140Y-132317140D01*
%TO.N,/D1_I1*%
X137531450Y-126109950D02*
X137531450Y-125614550D01*
X137531450Y-125614550D02*
X137668000Y-125478000D01*
D24*
%TO.N,+5V*%
X141515500Y-133825500D02*
X141190617Y-133825500D01*
X140116117Y-134900000D02*
X139925000Y-134900000D01*
X141190617Y-133825500D02*
X140116117Y-134900000D01*
D23*
%TO.N,/D1_I4*%
X139634668Y-133534668D02*
X139452000Y-133352000D01*
X139452000Y-133352000D02*
X138684000Y-133352000D01*
%TO.N,+5V*%
X139925000Y-134900000D02*
X139419518Y-134900000D01*
X139419518Y-134900000D02*
X139009518Y-135310000D01*
X139009518Y-135310000D02*
X137850000Y-135310000D01*
%TO.N,/ISP_RST*%
X136906019Y-135353981D02*
X136906019Y-137156844D01*
%TO.N,Net-(R9-Pad2)*%
X137600000Y-134290000D02*
X136950000Y-134290000D01*
%TO.N,/in1*%
X139640000Y-146030000D02*
X139656000Y-146046000D01*
X139656000Y-146046000D02*
X139700000Y-146046000D01*
X139700000Y-146046000D02*
X139700000Y-145796521D01*
X139700000Y-145796521D02*
X140646521Y-144850000D01*
X140646521Y-144850000D02*
X142181802Y-144850000D01*
X144021802Y-142943802D02*
X143324000Y-142246000D01*
X142181802Y-144850000D02*
X142931802Y-144100000D01*
X142931802Y-144100000D02*
X143550305Y-144100000D01*
X143550305Y-144100000D02*
X144021802Y-143628503D01*
X144021802Y-143628503D02*
X144021802Y-142943802D01*
%TO.N,/in5*%
X149881701Y-146021701D02*
X149881701Y-145531701D01*
X148974000Y-144821000D02*
X148774000Y-144621000D01*
X149881701Y-145531701D02*
X149171000Y-144821000D01*
X149171000Y-144821000D02*
X148974000Y-144821000D01*
X148774000Y-144621000D02*
X148774000Y-143696000D01*
%TO.N,/in6*%
X152420000Y-146020000D02*
X152420000Y-145220000D01*
X152420000Y-145220000D02*
X152021000Y-144821000D01*
X152021000Y-144821000D02*
X149945000Y-144821000D01*
X149945000Y-144821000D02*
X149574000Y-144450000D01*
X149574000Y-144450000D02*
X149574000Y-143696000D01*
%TO.N,/in7*%
X154951701Y-146031701D02*
X154951701Y-144851701D01*
X154951701Y-144851701D02*
X154250000Y-144150000D01*
X154250000Y-144150000D02*
X150828000Y-144150000D01*
X150828000Y-144150000D02*
X150374000Y-143696000D01*
D24*
%TO.N,GND*%
X153000000Y-133500000D02*
X153350000Y-133850000D01*
X153350000Y-133850000D02*
X154300000Y-133850000D01*
X154300000Y-133850000D02*
X155225000Y-134775000D01*
X155225000Y-134775000D02*
X155225000Y-134900000D01*
D25*
X151005000Y-132300000D02*
X151800000Y-132300000D01*
X151800000Y-132300000D02*
X153000000Y-133500000D01*
X154310001Y-138139999D02*
X154350000Y-138100000D01*
X154310001Y-138926999D02*
X154310001Y-138139999D01*
X154350000Y-138100000D02*
X156388000Y-138100000D01*
X156388000Y-138100000D02*
X156464000Y-138176000D01*
D23*
%TO.N,/D1_I8*%
X150371533Y-137446000D02*
X151824000Y-137446000D01*
D25*
%TO.N,+5V*%
X149574000Y-135196000D02*
X149574000Y-134221000D01*
X149574000Y-134221000D02*
X149749000Y-134046000D01*
X149749000Y-134046000D02*
X149754000Y-134046000D01*
X149754000Y-134046000D02*
X150000000Y-133800000D01*
X150000000Y-133800000D02*
X150050000Y-133800000D01*
D24*
X150450000Y-133800000D02*
X150050000Y-133800000D01*
X152550000Y-134900000D02*
X151450000Y-133800000D01*
X151450000Y-133800000D02*
X150450000Y-133800000D01*
D25*
X147200000Y-142550000D02*
X147174000Y-142576000D01*
X147174000Y-142576000D02*
X147174000Y-143696000D01*
D24*
X147200000Y-138679701D02*
X147200000Y-142550000D01*
X146479071Y-137958772D02*
X147200000Y-138679701D01*
X145791228Y-137958772D02*
X146479071Y-137958772D01*
X145650000Y-138100000D02*
X145791228Y-137958772D01*
X145110000Y-138758772D02*
X145110000Y-138640000D01*
X145110000Y-138640000D02*
X145650000Y-138100000D01*
X147691299Y-137296701D02*
X147780646Y-137386048D01*
X147780646Y-137386048D02*
X148813952Y-137386048D01*
X148813952Y-137386048D02*
X149600000Y-136600000D01*
X153675000Y-134900000D02*
X152550000Y-134900000D01*
%TO.N,GND*%
X154800000Y-135700000D02*
X154650000Y-135850000D01*
X155225000Y-135275000D02*
X154800000Y-135700000D01*
X155225000Y-134900000D02*
X155225000Y-135275000D01*
D25*
%TO.N,+5V*%
X142240000Y-143764000D02*
X140761385Y-143764000D01*
X137334112Y-144983000D02*
X137204113Y-145112999D01*
X140761385Y-143764000D02*
X139542385Y-144983000D01*
X139542385Y-144983000D02*
X137334112Y-144983000D01*
X137204113Y-145112999D02*
X136827001Y-145112999D01*
X136827001Y-145112999D02*
X136398000Y-145542000D01*
D24*
X137720500Y-149300000D02*
X137720500Y-149279500D01*
D25*
%TO.N,GND*%
X147171573Y-133754158D02*
X147174000Y-133756585D01*
X147174000Y-133756585D02*
X147174000Y-135196000D01*
D24*
X147400000Y-131500000D02*
X147500000Y-131500000D01*
X147500000Y-131500000D02*
X147900000Y-131100000D01*
X147900000Y-131100000D02*
X149661538Y-131100000D01*
X149661538Y-131100000D02*
X150861538Y-132300000D01*
X150861538Y-132300000D02*
X151005000Y-132300000D01*
X147200000Y-133300000D02*
X147171573Y-133328427D01*
X147400000Y-131500000D02*
X147400000Y-133000000D01*
X147000000Y-131100000D02*
X147400000Y-131500000D01*
X144100000Y-132000000D02*
X144404962Y-132000000D01*
X147171573Y-133328427D02*
X147171573Y-133754158D01*
X144404962Y-132000000D02*
X145304962Y-131100000D01*
X145304962Y-131100000D02*
X147000000Y-131100000D01*
X147400000Y-133000000D02*
X147400000Y-133100000D01*
X147400000Y-133100000D02*
X147200000Y-133300000D01*
D25*
X141154002Y-135950498D02*
X141449502Y-135950498D01*
X141449502Y-135950498D02*
X141700000Y-135700000D01*
X141700000Y-135700000D02*
X141700000Y-135500000D01*
X141700000Y-135500000D02*
X141900000Y-135300000D01*
X141900000Y-135300000D02*
X141900000Y-134900000D01*
X141900000Y-134900000D02*
X142600000Y-134200000D01*
X142600000Y-134200000D02*
X142700000Y-134200000D01*
X142700000Y-134200000D02*
X143300000Y-133600000D01*
X143300000Y-133600000D02*
X143300000Y-132800000D01*
X143300000Y-132800000D02*
X144100000Y-132000000D01*
X141154002Y-135950498D02*
X140449502Y-135950498D01*
X140583999Y-138083999D02*
X140583999Y-138957997D01*
X140449502Y-135950498D02*
X140100000Y-136300000D01*
X140100000Y-136300000D02*
X140100000Y-137600000D01*
X140100000Y-137600000D02*
X140583999Y-138083999D01*
D24*
%TO.N,+5V*%
X135890000Y-150876000D02*
X135890000Y-148550000D01*
X135890000Y-148550000D02*
X136100000Y-148340000D01*
X136100000Y-148340000D02*
X136100000Y-145840000D01*
X136100000Y-145840000D02*
X136398000Y-145542000D01*
D23*
%TO.N,/in0*%
X146147700Y-138758772D02*
X146147700Y-139547300D01*
X137100000Y-146277457D02*
X137100000Y-146530000D01*
X144249000Y-141446000D02*
X143324000Y-141446000D01*
X146147700Y-139547300D02*
X144249000Y-141446000D01*
X137356128Y-146021329D02*
X137100000Y-146277457D01*
X137186671Y-146021329D02*
X137160000Y-146048000D01*
X137356128Y-146021329D02*
X137186671Y-146021329D01*
%TO.N,/in1*%
X139640000Y-146528000D02*
X139640000Y-146030000D01*
%TO.N,/in2*%
X143210000Y-144790000D02*
X143680000Y-144790000D01*
X143680000Y-144790000D02*
X144774000Y-143696000D01*
X142230000Y-146051201D02*
X142180000Y-146101201D01*
X142230000Y-146051201D02*
X142230000Y-145770000D01*
X142230000Y-145770000D02*
X143210000Y-144790000D01*
X142180000Y-146101201D02*
X142180000Y-146530000D01*
%TO.N,/in3*%
X144762000Y-146048000D02*
X144730000Y-146080000D01*
X145574000Y-144456000D02*
X144780000Y-145250000D01*
X144780000Y-145250000D02*
X144780000Y-146048000D01*
X144780000Y-146048000D02*
X144762000Y-146048000D01*
X144720000Y-146090000D02*
X144730000Y-146080000D01*
X145574000Y-143696000D02*
X145574000Y-144456000D01*
X144720000Y-146530000D02*
X144720000Y-146090000D01*
%TO.N,/in4*%
X147260000Y-146530000D02*
X147260000Y-146060000D01*
X147300000Y-145610000D02*
X146374000Y-144684000D01*
X146374000Y-144684000D02*
X146374000Y-143696000D01*
X147300000Y-146020000D02*
X147300000Y-145610000D01*
%TO.N,/in6*%
X152340000Y-146528000D02*
X152340000Y-146100000D01*
X152400000Y-146046000D02*
X152400000Y-146040000D01*
X152340000Y-146100000D02*
X152420000Y-146020000D01*
%TO.N,/in7*%
X154880000Y-146530000D02*
X154880000Y-146103402D01*
X154880000Y-146103402D02*
X154951701Y-146031701D01*
%TO.N,+5V*%
X149606000Y-135228000D02*
X149574000Y-135196000D01*
X136894310Y-140199936D02*
X137652374Y-140958000D01*
X153436000Y-140950000D02*
X153453000Y-140933000D01*
X141211999Y-140957999D02*
X140583999Y-140957999D01*
X142240000Y-142960996D02*
X141879502Y-142600498D01*
X153436000Y-141752000D02*
X153436000Y-140950000D01*
X142240000Y-143764000D02*
X142240000Y-142960996D01*
X141879502Y-141625502D02*
X141211999Y-140957999D01*
X149606000Y-136454707D02*
X149606000Y-135228000D01*
X153453000Y-140933000D02*
X154310001Y-140933000D01*
X137652374Y-140958000D02*
X140705000Y-140958000D01*
X153924000Y-142240000D02*
X153436000Y-141752000D01*
X141879502Y-142600498D02*
X141879502Y-141625502D01*
%TO.N,GND*%
X147174000Y-135196000D02*
X147174000Y-135959000D01*
X156718000Y-148082000D02*
X156536000Y-147900000D01*
X156718000Y-147853500D02*
X156210000Y-147345500D01*
X146812000Y-137442000D02*
X147974000Y-138604000D01*
X147974000Y-138604000D02*
X147974000Y-143696000D01*
X146050000Y-147345500D02*
X146367500Y-147663000D01*
X148590000Y-147345500D02*
X148825500Y-147345500D01*
X153905500Y-147345500D02*
X153670000Y-147345500D01*
X156718000Y-148082000D02*
X156718000Y-147853500D01*
X147174000Y-135959000D02*
X146812000Y-136321000D01*
X143510000Y-147345500D02*
X143827500Y-147663000D01*
X146812000Y-136321000D02*
X146812000Y-137442000D01*
%TO.N,Net-(R11-Pad2)*%
X138827000Y-123299000D02*
X144743500Y-123299000D01*
X144743500Y-123299000D02*
X145868500Y-122174000D01*
X137668000Y-124458000D02*
X138827000Y-123299000D01*
%TO.N,/ISP_MISO*%
X154310001Y-141427002D02*
X155932998Y-141427002D01*
X155932998Y-141427002D02*
X156040000Y-141320000D01*
X140510000Y-141653000D02*
X140705000Y-141458000D01*
X142220272Y-139046000D02*
X143324000Y-139046000D01*
X141923974Y-138749702D02*
X142220272Y-139046000D01*
X137322776Y-141653000D02*
X140510000Y-141653000D01*
X136899888Y-141230112D02*
X137322776Y-141653000D01*
%TO.N,/ISP_SCK*%
X136920127Y-139200448D02*
X138177679Y-140458000D01*
X138177679Y-140458000D02*
X143136000Y-140458000D01*
X156067597Y-140427001D02*
X156206399Y-140288199D01*
X154310001Y-140427001D02*
X156067597Y-140427001D01*
X143136000Y-140458000D02*
X143324000Y-140646000D01*
X136888925Y-139200448D02*
X136920127Y-139200448D01*
%TO.N,/ISP_MOSI*%
X139450000Y-139958000D02*
X140705000Y-139958000D01*
X136899898Y-138156328D02*
X138443570Y-139700000D01*
X142444870Y-138246000D02*
X143324000Y-138246000D01*
X154316001Y-139933000D02*
X155537000Y-139933000D01*
X156620000Y-139480000D02*
X156902002Y-139762002D01*
X139192000Y-139700000D02*
X139450000Y-139958000D01*
X155990000Y-139480000D02*
X156620000Y-139480000D01*
X142232142Y-138027640D02*
X142232142Y-138033272D01*
X142232142Y-138033272D02*
X142444870Y-138246000D01*
X156902002Y-139762002D02*
X157056175Y-139762002D01*
X155537000Y-139933000D02*
X155990000Y-139480000D01*
X138443570Y-139700000D02*
X139192000Y-139700000D01*
X154310001Y-139927000D02*
X154316001Y-139933000D01*
X141154502Y-136950000D02*
X142232142Y-138027640D01*
%TO.N,/ISP_RST*%
X137200203Y-137431328D02*
X137624898Y-137856023D01*
X137925175Y-138176000D02*
X138558396Y-138176000D01*
X137180503Y-137431328D02*
X137200203Y-137431328D01*
X136906019Y-137156844D02*
X137180503Y-137431328D01*
X137624898Y-137875723D02*
X137925175Y-138176000D01*
X139840396Y-139458000D02*
X141744000Y-139458000D01*
X155512692Y-138934951D02*
X155020643Y-139427000D01*
X137624898Y-137856023D02*
X137624898Y-137875723D01*
X141744000Y-139458000D02*
X142132000Y-139846000D01*
X138558396Y-138176000D02*
X139840396Y-139458000D01*
X155020643Y-139427000D02*
X154310001Y-139427000D01*
X142132000Y-139846000D02*
X143324000Y-139846000D01*
D26*
%TO.N,Net-(D1-Pad2)*%
X138430000Y-146135183D02*
X138430000Y-145770500D01*
X137100000Y-147465183D02*
X138430000Y-146135183D01*
D23*
X138430000Y-145770500D02*
X138430000Y-146101521D01*
D26*
%TO.N,Net-(D2-Pad2)*%
X139640000Y-147463183D02*
X140970000Y-146133183D01*
X139640000Y-147548000D02*
X139640000Y-147463183D01*
%TO.N,Net-(D3-Pad2)*%
X142180000Y-147465183D02*
X143510000Y-146135183D01*
X142180000Y-147550000D02*
X142180000Y-147465183D01*
%TO.N,Net-(D4-Pad2)*%
X144720000Y-147465183D02*
X146050000Y-146135183D01*
X144720000Y-147550000D02*
X144720000Y-147465183D01*
%TO.N,Net-(D5-Pad2)*%
X147260000Y-147550000D02*
X147260000Y-147465183D01*
X147260000Y-147465183D02*
X148590000Y-146135183D01*
X148590000Y-146135183D02*
X148590000Y-145770500D01*
%TO.N,Net-(D6-Pad2)*%
X149800000Y-147465183D02*
X151130000Y-146135183D01*
X149800000Y-147550000D02*
X149800000Y-147465183D01*
%TO.N,Net-(D7-Pad2)*%
X152340000Y-147463183D02*
X153670000Y-146133183D01*
X152340000Y-147548000D02*
X152340000Y-147463183D01*
%TO.N,Net-(D8-Pad2)*%
X154880000Y-147550000D02*
X154880000Y-147465183D01*
X154880000Y-147465183D02*
X156210000Y-146135183D01*
D23*
%TO.N,Net-(R12-Pad2)*%
X138593000Y-126073000D02*
X144509500Y-126073000D01*
X144509500Y-126073000D02*
X145868500Y-124714000D01*
X137668000Y-126998000D02*
X138593000Y-126073000D01*
%TO.N,Net-(R13-Pad2)*%
X144582807Y-128539693D02*
X145868500Y-127254000D01*
X137713462Y-129538000D02*
X138308462Y-128943000D01*
X138308462Y-128943000D02*
X138773000Y-128943000D01*
X137668000Y-129538000D02*
X137713462Y-129538000D01*
X139176307Y-128539693D02*
X144582807Y-128539693D01*
X138773000Y-128943000D02*
X139176307Y-128539693D01*
%TO.N,Net-(R14-Pad2)*%
X140786500Y-132332000D02*
X140788500Y-132334000D01*
X138684000Y-132332000D02*
X140786500Y-132332000D01*
%TO.N,Net-(R15-Pad2)*%
X140532500Y-129538000D02*
X140788500Y-129794000D01*
X138684000Y-129538000D02*
X140532500Y-129538000D01*
%TO.N,Net-(R16-Pad2)*%
X139297812Y-124458000D02*
X139479554Y-124276258D01*
X140350758Y-124276258D02*
X140788500Y-124714000D01*
X138684000Y-124458000D02*
X139297812Y-124458000D01*
X139479554Y-124276258D02*
X140350758Y-124276258D01*
%TO.N,Net-(R17-Pad2)*%
X138948735Y-126733265D02*
X140267765Y-126733265D01*
X138684000Y-126998000D02*
X138948735Y-126733265D01*
X140267765Y-126733265D02*
X140788500Y-127254000D01*
%TO.N,Net-(R19-Pad2)*%
X155448000Y-122174000D02*
X154178000Y-122174000D01*
X157478000Y-124204000D02*
X155448000Y-122174000D01*
X157480000Y-124204000D02*
X157478000Y-124204000D01*
%TO.N,Net-(R20-Pad2)*%
X154688000Y-124204000D02*
X154178000Y-124714000D01*
X156464000Y-124204000D02*
X154688000Y-124204000D01*
%TO.N,Net-(R21-Pad2)*%
X154688000Y-126744000D02*
X154178000Y-127254000D01*
X156464000Y-126744000D02*
X154688000Y-126744000D01*
%TO.N,Net-(R22-Pad2)*%
X155448000Y-131643500D02*
X156283500Y-131643500D01*
X156283500Y-131643500D02*
X156464000Y-131824000D01*
%TO.N,Net-(R23-Pad2)*%
X150223000Y-130919000D02*
X149098000Y-129794000D01*
X156582305Y-130919000D02*
X150223000Y-130919000D01*
X157480000Y-131824000D02*
X157480000Y-131816695D01*
X157480000Y-131816695D02*
X156582305Y-130919000D01*
%TO.N,Net-(R24-Pad2)*%
X157480000Y-126744000D02*
X157478000Y-126744000D01*
X153162000Y-125984000D02*
X151892000Y-124714000D01*
X154432000Y-125984000D02*
X153162000Y-125984000D01*
X151892000Y-124714000D02*
X149098000Y-124714000D01*
X157478000Y-126744000D02*
X156883000Y-126149000D01*
X154597000Y-126149000D02*
X154432000Y-125984000D01*
X156883000Y-126149000D02*
X154597000Y-126149000D01*
%TO.N,Net-(R25-Pad2)*%
X154609999Y-128524000D02*
X150368000Y-128524000D01*
X154774999Y-128689000D02*
X154609999Y-128524000D01*
X156885000Y-128689000D02*
X154774999Y-128689000D01*
X150368000Y-128524000D02*
X149098000Y-127254000D01*
X157480000Y-129284000D02*
X156885000Y-128689000D01*
%TO.N,Net-(R26-Pad2)*%
X154178000Y-129794000D02*
X154688000Y-129284000D01*
X154688000Y-129284000D02*
X156464000Y-129284000D01*
%TO.N,/D1_I1*%
X151299635Y-142770365D02*
X151824000Y-142246000D01*
X151299635Y-143002000D02*
X151299635Y-142770365D01*
%TO.N,/D1_I2*%
X150144500Y-140570501D02*
X150219999Y-140646000D01*
X137363731Y-128322269D02*
X137668000Y-128018000D01*
X150219999Y-140646000D02*
X151824000Y-140646000D01*
X137363731Y-128678247D02*
X137363731Y-128322269D01*
%TO.N,/D1_I3*%
X151824000Y-139046000D02*
X150368000Y-139045999D01*
%TO.N,/D1_I4*%
X152915500Y-136646000D02*
X151824000Y-136646000D01*
X152989002Y-136572498D02*
X152915500Y-136646000D01*
%TO.N,/D1_I5*%
X151824000Y-138246000D02*
X152989002Y-138245999D01*
%TO.N,/D1_I6*%
X139541098Y-125348500D02*
X139411598Y-125478000D01*
X139411598Y-125478000D02*
X138684000Y-125478000D01*
X150268504Y-141446000D02*
X151824000Y-141446000D01*
X150144500Y-141570004D02*
X150268504Y-141446000D01*
%TO.N,/D1_I7*%
X139446000Y-127762000D02*
X139190000Y-128018000D01*
X139190000Y-128018000D02*
X138684000Y-128018000D01*
X151824000Y-139846000D02*
X152989002Y-139846001D01*
%TO.N,/D1_I8*%
X150368000Y-137442467D02*
X150371533Y-137446000D01*
%TO.N,/D2_I1*%
X142760597Y-136082597D02*
X143324000Y-136646000D01*
X142760597Y-136039491D02*
X142760597Y-136082597D01*
X157799302Y-125543302D02*
X157480000Y-125224000D01*
X157799302Y-125886882D02*
X157799302Y-125543302D01*
%TO.N,/D2_I2*%
X155702000Y-125114500D02*
X156354500Y-125114500D01*
X144526000Y-137414597D02*
X144494597Y-137446000D01*
X144494597Y-137446000D02*
X143324000Y-137446000D01*
X156354500Y-125114500D02*
X156464000Y-125224000D01*
%TO.N,/D2_I3*%
X155463900Y-127806330D02*
X155506230Y-127764000D01*
X144460290Y-133932308D02*
X144774000Y-134246018D01*
X144774000Y-134246018D02*
X144774000Y-135196000D01*
X155506230Y-127764000D02*
X156464000Y-127764000D01*
%TO.N,/D2_I4*%
X146374000Y-133860427D02*
X146374000Y-135196000D01*
X155448000Y-133503500D02*
X155804500Y-133503500D01*
X146371573Y-133858000D02*
X146374000Y-133860427D01*
X155804500Y-133503500D02*
X156464000Y-132844000D01*
%TO.N,/D2_I5*%
X157079898Y-133244102D02*
X157480000Y-132844000D01*
X147965483Y-134091619D02*
X147974000Y-134100136D01*
X157079898Y-133641500D02*
X157079898Y-133244102D01*
X147974000Y-134100136D02*
X147974000Y-135196000D01*
%TO.N,/D2_I6*%
X157799302Y-128426882D02*
X157799302Y-128083302D01*
X157799302Y-128083302D02*
X157480000Y-127764000D01*
X145574000Y-135196000D02*
X145573999Y-136398000D01*
%TO.N,/D2_I7*%
X150629701Y-134940299D02*
X150913500Y-134940299D01*
X157754641Y-130959990D02*
X157754641Y-130578641D01*
X157754641Y-130578641D02*
X157480000Y-130304000D01*
X150374000Y-135196000D02*
X150629701Y-134940299D01*
%TO.N,/D2_I8*%
X156354500Y-130194500D02*
X156464000Y-130304000D01*
X148774000Y-136261402D02*
X148449354Y-136586048D01*
X148774000Y-135196000D02*
X148774000Y-136261402D01*
X155518972Y-130194500D02*
X156354500Y-130194500D01*
%TD*%
%TA.AperFunction,Conductor*%
%TO.N,GND*%
G36*
X158701389Y-131425039D02*
G01*
X158742570Y-131482871D01*
X158749500Y-131524081D01*
X158749500Y-147016633D01*
X158748000Y-147036018D01*
X158745690Y-147050851D01*
X158745690Y-147050855D01*
X158744309Y-147059724D01*
X158745473Y-147068626D01*
X158745473Y-147068629D01*
X158745701Y-147070369D01*
X158746444Y-147077717D01*
X158761163Y-147283513D01*
X158762121Y-147287917D01*
X158793667Y-147432929D01*
X158807517Y-147496598D01*
X158809090Y-147500815D01*
X158809091Y-147500819D01*
X158835445Y-147571477D01*
X158883724Y-147700918D01*
X158885877Y-147704862D01*
X158885878Y-147704863D01*
X158925400Y-147777242D01*
X158988233Y-147892312D01*
X159118917Y-148066885D01*
X159221095Y-148169063D01*
X159255121Y-148231375D01*
X159258000Y-148258158D01*
X159258000Y-149392000D01*
X159237998Y-149460121D01*
X159184342Y-149506614D01*
X159132000Y-149518000D01*
X159022115Y-149518000D01*
X159006876Y-149522475D01*
X159005671Y-149523865D01*
X159004000Y-149531548D01*
X159004000Y-151004000D01*
X158983998Y-151072121D01*
X158930342Y-151118614D01*
X158878000Y-151130000D01*
X158622000Y-151130000D01*
X158553879Y-151109998D01*
X158507386Y-151056342D01*
X158496000Y-151004000D01*
X158496000Y-149536116D01*
X158491525Y-149520877D01*
X158490135Y-149519672D01*
X158482452Y-149518001D01*
X157855331Y-149518001D01*
X157848510Y-149518371D01*
X157797648Y-149523895D01*
X157782396Y-149527521D01*
X157661946Y-149572676D01*
X157646351Y-149581214D01*
X157544276Y-149657715D01*
X157531715Y-149670276D01*
X157455214Y-149772351D01*
X157446676Y-149787946D01*
X157405297Y-149898322D01*
X157362655Y-149955087D01*
X157296093Y-149979786D01*
X157226744Y-149964578D01*
X157194121Y-149938891D01*
X157143151Y-149882876D01*
X157143145Y-149882870D01*
X157139670Y-149879051D01*
X157135619Y-149875852D01*
X157135615Y-149875848D01*
X156968414Y-149743800D01*
X156968410Y-149743798D01*
X156964359Y-149740598D01*
X156768789Y-149632638D01*
X156763920Y-149630914D01*
X156763916Y-149630912D01*
X156563087Y-149559795D01*
X156563083Y-149559794D01*
X156558212Y-149558069D01*
X156553119Y-149557162D01*
X156553116Y-149557161D01*
X156343373Y-149519800D01*
X156343367Y-149519799D01*
X156338284Y-149518894D01*
X156264452Y-149517992D01*
X156120081Y-149516228D01*
X156120079Y-149516228D01*
X156114911Y-149516165D01*
X155894091Y-149549955D01*
X155681756Y-149619357D01*
X155483607Y-149722507D01*
X155479474Y-149725610D01*
X155479471Y-149725612D01*
X155396450Y-149787946D01*
X155304965Y-149856635D01*
X155150629Y-150018138D01*
X155043201Y-150175621D01*
X154988293Y-150220621D01*
X154917768Y-150228792D01*
X154854021Y-150197538D01*
X154833324Y-150173054D01*
X154752822Y-150048617D01*
X154752820Y-150048614D01*
X154750014Y-150044277D01*
X154599670Y-149879051D01*
X154595619Y-149875852D01*
X154595615Y-149875848D01*
X154428414Y-149743800D01*
X154428410Y-149743798D01*
X154424359Y-149740598D01*
X154228789Y-149632638D01*
X154223920Y-149630914D01*
X154223916Y-149630912D01*
X154023087Y-149559795D01*
X154023083Y-149559794D01*
X154018212Y-149558069D01*
X154013119Y-149557162D01*
X154013116Y-149557161D01*
X153803373Y-149519800D01*
X153803367Y-149519799D01*
X153798284Y-149518894D01*
X153724452Y-149517992D01*
X153580081Y-149516228D01*
X153580079Y-149516228D01*
X153574911Y-149516165D01*
X153354091Y-149549955D01*
X153141756Y-149619357D01*
X152943607Y-149722507D01*
X152939474Y-149725610D01*
X152939471Y-149725612D01*
X152856450Y-149787946D01*
X152764965Y-149856635D01*
X152610629Y-150018138D01*
X152503201Y-150175621D01*
X152448293Y-150220621D01*
X152377768Y-150228792D01*
X152314021Y-150197538D01*
X152293324Y-150173054D01*
X152212822Y-150048617D01*
X152212820Y-150048614D01*
X152210014Y-150044277D01*
X152059670Y-149879051D01*
X152055619Y-149875852D01*
X152055615Y-149875848D01*
X151888414Y-149743800D01*
X151888410Y-149743798D01*
X151884359Y-149740598D01*
X151688789Y-149632638D01*
X151683920Y-149630914D01*
X151683916Y-149630912D01*
X151483087Y-149559795D01*
X151483083Y-149559794D01*
X151478212Y-149558069D01*
X151473119Y-149557162D01*
X151473116Y-149557161D01*
X151263373Y-149519800D01*
X151263367Y-149519799D01*
X151258284Y-149518894D01*
X151184452Y-149517992D01*
X151040081Y-149516228D01*
X151040079Y-149516228D01*
X151034911Y-149516165D01*
X150814091Y-149549955D01*
X150601756Y-149619357D01*
X150403607Y-149722507D01*
X150399474Y-149725610D01*
X150399471Y-149725612D01*
X150316450Y-149787946D01*
X150224965Y-149856635D01*
X150070629Y-150018138D01*
X149963201Y-150175621D01*
X149908293Y-150220621D01*
X149837768Y-150228792D01*
X149774021Y-150197538D01*
X149753324Y-150173054D01*
X149672822Y-150048617D01*
X149672820Y-150048614D01*
X149670014Y-150044277D01*
X149519670Y-149879051D01*
X149515619Y-149875852D01*
X149515615Y-149875848D01*
X149348414Y-149743800D01*
X149348410Y-149743798D01*
X149344359Y-149740598D01*
X149148789Y-149632638D01*
X149143920Y-149630914D01*
X149143916Y-149630912D01*
X148943087Y-149559795D01*
X148943083Y-149559794D01*
X148938212Y-149558069D01*
X148933119Y-149557162D01*
X148933116Y-149557161D01*
X148723373Y-149519800D01*
X148723367Y-149519799D01*
X148718284Y-149518894D01*
X148644452Y-149517992D01*
X148500081Y-149516228D01*
X148500079Y-149516228D01*
X148494911Y-149516165D01*
X148274091Y-149549955D01*
X148061756Y-149619357D01*
X147863607Y-149722507D01*
X147859474Y-149725610D01*
X147859471Y-149725612D01*
X147776450Y-149787946D01*
X147684965Y-149856635D01*
X147530629Y-150018138D01*
X147423201Y-150175621D01*
X147368293Y-150220621D01*
X147297768Y-150228792D01*
X147234021Y-150197538D01*
X147213324Y-150173054D01*
X147132822Y-150048617D01*
X147132820Y-150048614D01*
X147130014Y-150044277D01*
X146979670Y-149879051D01*
X146975619Y-149875852D01*
X146975615Y-149875848D01*
X146808414Y-149743800D01*
X146808410Y-149743798D01*
X146804359Y-149740598D01*
X146608789Y-149632638D01*
X146603920Y-149630914D01*
X146603916Y-149630912D01*
X146403087Y-149559795D01*
X146403083Y-149559794D01*
X146398212Y-149558069D01*
X146393119Y-149557162D01*
X146393116Y-149557161D01*
X146183373Y-149519800D01*
X146183367Y-149519799D01*
X146178284Y-149518894D01*
X146104452Y-149517992D01*
X145960081Y-149516228D01*
X145960079Y-149516228D01*
X145954911Y-149516165D01*
X145734091Y-149549955D01*
X145521756Y-149619357D01*
X145323607Y-149722507D01*
X145319474Y-149725610D01*
X145319471Y-149725612D01*
X145236450Y-149787946D01*
X145144965Y-149856635D01*
X144990629Y-150018138D01*
X144883201Y-150175621D01*
X144828293Y-150220621D01*
X144757768Y-150228792D01*
X144694021Y-150197538D01*
X144673324Y-150173054D01*
X144592822Y-150048617D01*
X144592820Y-150048614D01*
X144590014Y-150044277D01*
X144439670Y-149879051D01*
X144435619Y-149875852D01*
X144435615Y-149875848D01*
X144268414Y-149743800D01*
X144268410Y-149743798D01*
X144264359Y-149740598D01*
X144068789Y-149632638D01*
X144063920Y-149630914D01*
X144063916Y-149630912D01*
X143863087Y-149559795D01*
X143863083Y-149559794D01*
X143858212Y-149558069D01*
X143853119Y-149557162D01*
X143853116Y-149557161D01*
X143643373Y-149519800D01*
X143643367Y-149519799D01*
X143638284Y-149518894D01*
X143564452Y-149517992D01*
X143420081Y-149516228D01*
X143420079Y-149516228D01*
X143414911Y-149516165D01*
X143194091Y-149549955D01*
X142981756Y-149619357D01*
X142783607Y-149722507D01*
X142779474Y-149725610D01*
X142779471Y-149725612D01*
X142696450Y-149787946D01*
X142604965Y-149856635D01*
X142450629Y-150018138D01*
X142343201Y-150175621D01*
X142288293Y-150220621D01*
X142217768Y-150228792D01*
X142154021Y-150197538D01*
X142133324Y-150173054D01*
X142052822Y-150048617D01*
X142052820Y-150048614D01*
X142050014Y-150044277D01*
X141899670Y-149879051D01*
X141895619Y-149875852D01*
X141895615Y-149875848D01*
X141728414Y-149743800D01*
X141728410Y-149743798D01*
X141724359Y-149740598D01*
X141528789Y-149632638D01*
X141523920Y-149630914D01*
X141523916Y-149630912D01*
X141323087Y-149559795D01*
X141323083Y-149559794D01*
X141318212Y-149558069D01*
X141313119Y-149557162D01*
X141313116Y-149557161D01*
X141103373Y-149519800D01*
X141103367Y-149519799D01*
X141098284Y-149518894D01*
X141024452Y-149517992D01*
X140880081Y-149516228D01*
X140880079Y-149516228D01*
X140874911Y-149516165D01*
X140654091Y-149549955D01*
X140441756Y-149619357D01*
X140243607Y-149722507D01*
X140239474Y-149725610D01*
X140239471Y-149725612D01*
X140156450Y-149787946D01*
X140064965Y-149856635D01*
X139910629Y-150018138D01*
X139803201Y-150175621D01*
X139748293Y-150220621D01*
X139677768Y-150228792D01*
X139614021Y-150197538D01*
X139593324Y-150173054D01*
X139512822Y-150048617D01*
X139512820Y-150048614D01*
X139510014Y-150044277D01*
X139359670Y-149879051D01*
X139355619Y-149875852D01*
X139355615Y-149875848D01*
X139188414Y-149743800D01*
X139188410Y-149743798D01*
X139184359Y-149740598D01*
X138988789Y-149632638D01*
X138983920Y-149630914D01*
X138983916Y-149630912D01*
X138783087Y-149559795D01*
X138783083Y-149559794D01*
X138778212Y-149558069D01*
X138773119Y-149557162D01*
X138773116Y-149557161D01*
X138725503Y-149548680D01*
X138661945Y-149517042D01*
X138625582Y-149456065D01*
X138622289Y-149411463D01*
X138633314Y-149306565D01*
X138634004Y-149300000D01*
X138614042Y-149110072D01*
X138555027Y-148928444D01*
X138459540Y-148763056D01*
X138345864Y-148636806D01*
X138315147Y-148572799D01*
X138313500Y-148552496D01*
X138313500Y-148348943D01*
X138303705Y-148249127D01*
X138294183Y-148201076D01*
X138265172Y-148105065D01*
X138251852Y-148082541D01*
X138193546Y-147983952D01*
X138176000Y-147919813D01*
X138176000Y-147301922D01*
X138196002Y-147233801D01*
X138212905Y-147212827D01*
X138297327Y-147128405D01*
X138359639Y-147094379D01*
X138386422Y-147091500D01*
X138558000Y-147091500D01*
X138626121Y-147111502D01*
X138672614Y-147165158D01*
X138684000Y-147217500D01*
X138684000Y-148272885D01*
X138688475Y-148288124D01*
X138689865Y-148289329D01*
X138697548Y-148291000D01*
X138731266Y-148291000D01*
X138737782Y-148290663D01*
X138829021Y-148281196D01*
X138842417Y-148278303D01*
X138989694Y-148229168D01*
X138998979Y-148224818D01*
X139069151Y-148214032D01*
X139116570Y-148230464D01*
X139197404Y-148278269D01*
X139205015Y-148280480D01*
X139205017Y-148280481D01*
X139240064Y-148290663D01*
X139353534Y-148323629D01*
X139359941Y-148324133D01*
X139359945Y-148324134D01*
X139387556Y-148326307D01*
X139387562Y-148326307D01*
X139390011Y-148326500D01*
X139639848Y-148326500D01*
X139889988Y-148326499D01*
X139926466Y-148323629D01*
X140039936Y-148290663D01*
X140074983Y-148280481D01*
X140074985Y-148280480D01*
X140082596Y-148278269D01*
X140165622Y-148229168D01*
X140222541Y-148195506D01*
X140224185Y-148198286D01*
X140276413Y-148177789D01*
X140346033Y-148191700D01*
X140353650Y-148196036D01*
X140398293Y-148223554D01*
X140411468Y-148229697D01*
X140558843Y-148278579D01*
X140572210Y-148281445D01*
X140662270Y-148290672D01*
X140668685Y-148291000D01*
X140697885Y-148291000D01*
X140713124Y-148286525D01*
X140714329Y-148285135D01*
X140716000Y-148277452D01*
X140716000Y-147299922D01*
X140736002Y-147231801D01*
X140752905Y-147210827D01*
X140835327Y-147128405D01*
X140897639Y-147094379D01*
X140924422Y-147091500D01*
X141098000Y-147091500D01*
X141166121Y-147111502D01*
X141212614Y-147165158D01*
X141224000Y-147217500D01*
X141224000Y-148272885D01*
X141228475Y-148288124D01*
X141229865Y-148289329D01*
X141237548Y-148291000D01*
X141271266Y-148291000D01*
X141277782Y-148290663D01*
X141369021Y-148281196D01*
X141382417Y-148278303D01*
X141529694Y-148229168D01*
X141537092Y-148225702D01*
X141607264Y-148214916D01*
X141654683Y-148231348D01*
X141737404Y-148280269D01*
X141745015Y-148282480D01*
X141745017Y-148282481D01*
X141835750Y-148308841D01*
X141893534Y-148325629D01*
X141899941Y-148326133D01*
X141899945Y-148326134D01*
X141927556Y-148328307D01*
X141927562Y-148328307D01*
X141930011Y-148328500D01*
X142179848Y-148328500D01*
X142429988Y-148328499D01*
X142466466Y-148325629D01*
X142586820Y-148290663D01*
X142614983Y-148282481D01*
X142614985Y-148282480D01*
X142622596Y-148280269D01*
X142675255Y-148249127D01*
X142762541Y-148197506D01*
X142763923Y-148199842D01*
X142817826Y-148178676D01*
X142887449Y-148192574D01*
X142895088Y-148196922D01*
X142938291Y-148223553D01*
X142951468Y-148229697D01*
X143098843Y-148278579D01*
X143112210Y-148281445D01*
X143202270Y-148290672D01*
X143208685Y-148291000D01*
X143237885Y-148291000D01*
X143253124Y-148286525D01*
X143254329Y-148285135D01*
X143256000Y-148277452D01*
X143256000Y-147301922D01*
X143276002Y-147233801D01*
X143292905Y-147212827D01*
X143377327Y-147128405D01*
X143439639Y-147094379D01*
X143466422Y-147091500D01*
X143638000Y-147091500D01*
X143706121Y-147111502D01*
X143752614Y-147165158D01*
X143764000Y-147217500D01*
X143764000Y-148272885D01*
X143768475Y-148288124D01*
X143769865Y-148289329D01*
X143777548Y-148291000D01*
X143811266Y-148291000D01*
X143817782Y-148290663D01*
X143909021Y-148281196D01*
X143922417Y-148278303D01*
X144069694Y-148229168D01*
X144077092Y-148225702D01*
X144147264Y-148214916D01*
X144194683Y-148231348D01*
X144277404Y-148280269D01*
X144285015Y-148282480D01*
X144285017Y-148282481D01*
X144375750Y-148308841D01*
X144433534Y-148325629D01*
X144439941Y-148326133D01*
X144439945Y-148326134D01*
X144467556Y-148328307D01*
X144467562Y-148328307D01*
X144470011Y-148328500D01*
X144719848Y-148328500D01*
X144969988Y-148328499D01*
X145006466Y-148325629D01*
X145126820Y-148290663D01*
X145154983Y-148282481D01*
X145154985Y-148282480D01*
X145162596Y-148280269D01*
X145215255Y-148249127D01*
X145302541Y-148197506D01*
X145303923Y-148199842D01*
X145357826Y-148178676D01*
X145427449Y-148192574D01*
X145435088Y-148196922D01*
X145478291Y-148223553D01*
X145491468Y-148229697D01*
X145638843Y-148278579D01*
X145652210Y-148281445D01*
X145742270Y-148290672D01*
X145748685Y-148291000D01*
X145777885Y-148291000D01*
X145793124Y-148286525D01*
X145794329Y-148285135D01*
X145796000Y-148277452D01*
X145796000Y-147301922D01*
X145816002Y-147233801D01*
X145832905Y-147212827D01*
X145917327Y-147128405D01*
X145979639Y-147094379D01*
X146006422Y-147091500D01*
X146178000Y-147091500D01*
X146246121Y-147111502D01*
X146292614Y-147165158D01*
X146304000Y-147217500D01*
X146304000Y-148272885D01*
X146308475Y-148288124D01*
X146309865Y-148289329D01*
X146317548Y-148291000D01*
X146351266Y-148291000D01*
X146357782Y-148290663D01*
X146449021Y-148281196D01*
X146462417Y-148278303D01*
X146609694Y-148229168D01*
X146617092Y-148225702D01*
X146687264Y-148214916D01*
X146734683Y-148231348D01*
X146817404Y-148280269D01*
X146825015Y-148282480D01*
X146825017Y-148282481D01*
X146915750Y-148308841D01*
X146973534Y-148325629D01*
X146979941Y-148326133D01*
X146979945Y-148326134D01*
X147007556Y-148328307D01*
X147007562Y-148328307D01*
X147010011Y-148328500D01*
X147259848Y-148328500D01*
X147509988Y-148328499D01*
X147546466Y-148325629D01*
X147666820Y-148290663D01*
X147694983Y-148282481D01*
X147694985Y-148282480D01*
X147702596Y-148280269D01*
X147755255Y-148249127D01*
X147842541Y-148197506D01*
X147843923Y-148199842D01*
X147897826Y-148178676D01*
X147967449Y-148192574D01*
X147975088Y-148196922D01*
X148018291Y-148223553D01*
X148031468Y-148229697D01*
X148178843Y-148278579D01*
X148192210Y-148281445D01*
X148282270Y-148290672D01*
X148288685Y-148291000D01*
X148317885Y-148291000D01*
X148333124Y-148286525D01*
X148334329Y-148285135D01*
X148336000Y-148277452D01*
X148336000Y-147301922D01*
X148356002Y-147233801D01*
X148372905Y-147212827D01*
X148457327Y-147128405D01*
X148519639Y-147094379D01*
X148546422Y-147091500D01*
X148718000Y-147091500D01*
X148786121Y-147111502D01*
X148832614Y-147165158D01*
X148844000Y-147217500D01*
X148844000Y-148272885D01*
X148848475Y-148288124D01*
X148849865Y-148289329D01*
X148857548Y-148291000D01*
X148891266Y-148291000D01*
X148897782Y-148290663D01*
X148989021Y-148281196D01*
X149002417Y-148278303D01*
X149149694Y-148229168D01*
X149157092Y-148225702D01*
X149227264Y-148214916D01*
X149274683Y-148231348D01*
X149357404Y-148280269D01*
X149365015Y-148282480D01*
X149365017Y-148282481D01*
X149455750Y-148308841D01*
X149513534Y-148325629D01*
X149519941Y-148326133D01*
X149519945Y-148326134D01*
X149547556Y-148328307D01*
X149547562Y-148328307D01*
X149550011Y-148328500D01*
X149799848Y-148328500D01*
X150049988Y-148328499D01*
X150086466Y-148325629D01*
X150206820Y-148290663D01*
X150234983Y-148282481D01*
X150234985Y-148282480D01*
X150242596Y-148280269D01*
X150295255Y-148249127D01*
X150382541Y-148197506D01*
X150383923Y-148199842D01*
X150437826Y-148178676D01*
X150507449Y-148192574D01*
X150515088Y-148196922D01*
X150558291Y-148223553D01*
X150571468Y-148229697D01*
X150718843Y-148278579D01*
X150732210Y-148281445D01*
X150822270Y-148290672D01*
X150828685Y-148291000D01*
X150857885Y-148291000D01*
X150873124Y-148286525D01*
X150874329Y-148285135D01*
X150876000Y-148277452D01*
X150876000Y-147301922D01*
X150896002Y-147233801D01*
X150912905Y-147212827D01*
X150997327Y-147128405D01*
X151059639Y-147094379D01*
X151086422Y-147091500D01*
X151258000Y-147091500D01*
X151326121Y-147111502D01*
X151372614Y-147165158D01*
X151384000Y-147217500D01*
X151384000Y-148272885D01*
X151388475Y-148288124D01*
X151389865Y-148289329D01*
X151397548Y-148291000D01*
X151431266Y-148291000D01*
X151437782Y-148290663D01*
X151529021Y-148281196D01*
X151542417Y-148278303D01*
X151689694Y-148229168D01*
X151698979Y-148224818D01*
X151769151Y-148214032D01*
X151816570Y-148230464D01*
X151897404Y-148278269D01*
X151905015Y-148280480D01*
X151905017Y-148280481D01*
X151940064Y-148290663D01*
X152053534Y-148323629D01*
X152059941Y-148324133D01*
X152059945Y-148324134D01*
X152087556Y-148326307D01*
X152087562Y-148326307D01*
X152090011Y-148326500D01*
X152339848Y-148326500D01*
X152589988Y-148326499D01*
X152626466Y-148323629D01*
X152739936Y-148290663D01*
X152774983Y-148280481D01*
X152774985Y-148280480D01*
X152782596Y-148278269D01*
X152865622Y-148229168D01*
X152922541Y-148195506D01*
X152924185Y-148198286D01*
X152976413Y-148177789D01*
X153046033Y-148191700D01*
X153053650Y-148196036D01*
X153098293Y-148223554D01*
X153111468Y-148229697D01*
X153258843Y-148278579D01*
X153272210Y-148281445D01*
X153362270Y-148290672D01*
X153368685Y-148291000D01*
X153397885Y-148291000D01*
X153413124Y-148286525D01*
X153414329Y-148285135D01*
X153416000Y-148277452D01*
X153416000Y-147299922D01*
X153436002Y-147231801D01*
X153452905Y-147210827D01*
X153535327Y-147128405D01*
X153597639Y-147094379D01*
X153624422Y-147091500D01*
X153798000Y-147091500D01*
X153866121Y-147111502D01*
X153912614Y-147165158D01*
X153924000Y-147217500D01*
X153924000Y-148272885D01*
X153928475Y-148288124D01*
X153929865Y-148289329D01*
X153937548Y-148291000D01*
X153971266Y-148291000D01*
X153977782Y-148290663D01*
X154069021Y-148281196D01*
X154082417Y-148278303D01*
X154229694Y-148229168D01*
X154237092Y-148225702D01*
X154307264Y-148214916D01*
X154354683Y-148231348D01*
X154437404Y-148280269D01*
X154445015Y-148282480D01*
X154445017Y-148282481D01*
X154535750Y-148308841D01*
X154593534Y-148325629D01*
X154599941Y-148326133D01*
X154599945Y-148326134D01*
X154627556Y-148328307D01*
X154627562Y-148328307D01*
X154630011Y-148328500D01*
X154879848Y-148328500D01*
X155129988Y-148328499D01*
X155166466Y-148325629D01*
X155286820Y-148290663D01*
X155314983Y-148282481D01*
X155314985Y-148282480D01*
X155322596Y-148280269D01*
X155375255Y-148249127D01*
X155462541Y-148197506D01*
X155463923Y-148199842D01*
X155517826Y-148178676D01*
X155587449Y-148192574D01*
X155595088Y-148196922D01*
X155638291Y-148223553D01*
X155651468Y-148229697D01*
X155798843Y-148278579D01*
X155812210Y-148281445D01*
X155902270Y-148290672D01*
X155908685Y-148291000D01*
X155937885Y-148291000D01*
X155953124Y-148286525D01*
X155954329Y-148285135D01*
X155956000Y-148277452D01*
X155956000Y-148272885D01*
X156464000Y-148272885D01*
X156468475Y-148288124D01*
X156469865Y-148289329D01*
X156477548Y-148291000D01*
X156511266Y-148291000D01*
X156517782Y-148290663D01*
X156609021Y-148281196D01*
X156622417Y-148278303D01*
X156769687Y-148229170D01*
X156782866Y-148222996D01*
X156914514Y-148141530D01*
X156925915Y-148132494D01*
X157035298Y-148022920D01*
X157044310Y-148011509D01*
X157125553Y-147879709D01*
X157131697Y-147866532D01*
X157180579Y-147719157D01*
X157183445Y-147705790D01*
X157192614Y-147616300D01*
X157188525Y-147602376D01*
X157187135Y-147601171D01*
X157179452Y-147599500D01*
X156482115Y-147599500D01*
X156466876Y-147603975D01*
X156465671Y-147605365D01*
X156464000Y-147613048D01*
X156464000Y-148272885D01*
X155956000Y-148272885D01*
X155956000Y-147301922D01*
X155976002Y-147233801D01*
X155992905Y-147212827D01*
X156077327Y-147128405D01*
X156139639Y-147094379D01*
X156166422Y-147091500D01*
X157174885Y-147091500D01*
X157190124Y-147087025D01*
X157191329Y-147085635D01*
X157192842Y-147078679D01*
X157192663Y-147075218D01*
X157183196Y-146983979D01*
X157180303Y-146970583D01*
X157131170Y-146823313D01*
X157124996Y-146810134D01*
X157043530Y-146678486D01*
X157034494Y-146667085D01*
X157014842Y-146647467D01*
X156980763Y-146585184D01*
X156985766Y-146514364D01*
X157014686Y-146469277D01*
X157035692Y-146448234D01*
X157040864Y-146443053D01*
X157129849Y-146298692D01*
X157183238Y-146137731D01*
X157193500Y-146037572D01*
X157193500Y-145503428D01*
X157182978Y-145402018D01*
X157129308Y-145241151D01*
X157125458Y-145234930D01*
X157125455Y-145234923D01*
X157071035Y-145146981D01*
X157052197Y-145078529D01*
X157073358Y-145010759D01*
X157107856Y-144979148D01*
X157106705Y-144977612D01*
X157216081Y-144895639D01*
X157223261Y-144890258D01*
X157310615Y-144773702D01*
X157361745Y-144637313D01*
X157368500Y-144575131D01*
X157368500Y-142828865D01*
X157361745Y-142766683D01*
X157310615Y-142630294D01*
X157223261Y-142513738D01*
X157106705Y-142426384D01*
X156970316Y-142375254D01*
X156908134Y-142368499D01*
X156511449Y-142368499D01*
X156443328Y-142348497D01*
X156396835Y-142294841D01*
X156386731Y-142224567D01*
X156416225Y-142159987D01*
X156460200Y-142127392D01*
X156490722Y-142113803D01*
X156490724Y-142113802D01*
X156496752Y-142111118D01*
X156502492Y-142106948D01*
X156566419Y-142060502D01*
X156651253Y-141998866D01*
X156694764Y-141950542D01*
X156774621Y-141861852D01*
X156774622Y-141861851D01*
X156779040Y-141856944D01*
X156874527Y-141691556D01*
X156933542Y-141509928D01*
X156942990Y-141420040D01*
X156952814Y-141326565D01*
X156953504Y-141320000D01*
X156933542Y-141130072D01*
X156886371Y-140984896D01*
X156884343Y-140913929D01*
X156912568Y-140861650D01*
X156941020Y-140830051D01*
X156941021Y-140830050D01*
X156945439Y-140825143D01*
X156998348Y-140733502D01*
X157049730Y-140684509D01*
X157107467Y-140670502D01*
X157151662Y-140670502D01*
X157158114Y-140669130D01*
X157158119Y-140669130D01*
X157245063Y-140650649D01*
X157338463Y-140630796D01*
X157344494Y-140628111D01*
X157506897Y-140555805D01*
X157506899Y-140555804D01*
X157512927Y-140553120D01*
X157667428Y-140440868D01*
X157713352Y-140389864D01*
X157790796Y-140303854D01*
X157790797Y-140303853D01*
X157795215Y-140298946D01*
X157890702Y-140133558D01*
X157949717Y-139951930D01*
X157960228Y-139851929D01*
X157968989Y-139768567D01*
X157969679Y-139762002D01*
X157955694Y-139628939D01*
X157950407Y-139578637D01*
X157950407Y-139578635D01*
X157949717Y-139572074D01*
X157890702Y-139390446D01*
X157795215Y-139225058D01*
X157667428Y-139083136D01*
X157512927Y-138970884D01*
X157506899Y-138968200D01*
X157506897Y-138968199D01*
X157344494Y-138895893D01*
X157344493Y-138895893D01*
X157338463Y-138893208D01*
X157232511Y-138870687D01*
X157158119Y-138854874D01*
X157158114Y-138854874D01*
X157151662Y-138853502D01*
X156960688Y-138853502D01*
X156954236Y-138854874D01*
X156954231Y-138854874D01*
X156889581Y-138868616D01*
X156869249Y-138872938D01*
X156807896Y-138870687D01*
X156805423Y-138869968D01*
X156798145Y-138866819D01*
X156790315Y-138865579D01*
X156790309Y-138865577D01*
X156754476Y-138859901D01*
X156742856Y-138857495D01*
X156707711Y-138848472D01*
X156707710Y-138848472D01*
X156700030Y-138846500D01*
X156679776Y-138846500D01*
X156660065Y-138844949D01*
X156647886Y-138843020D01*
X156640057Y-138841780D01*
X156632165Y-138842526D01*
X156596039Y-138845941D01*
X156584181Y-138846500D01*
X156529131Y-138846500D01*
X156461010Y-138826498D01*
X156414517Y-138772842D01*
X156406656Y-138749034D01*
X156406234Y-138745023D01*
X156347219Y-138563395D01*
X156251732Y-138398007D01*
X156234254Y-138378595D01*
X156128367Y-138260996D01*
X156128366Y-138260995D01*
X156123945Y-138256085D01*
X156065241Y-138213434D01*
X156021889Y-138157212D01*
X156015814Y-138086476D01*
X156048946Y-138023684D01*
X156110766Y-137988773D01*
X156139304Y-137985499D01*
X156908134Y-137985499D01*
X156970316Y-137978744D01*
X157106705Y-137927614D01*
X157223261Y-137840260D01*
X157310615Y-137723704D01*
X157361745Y-137587315D01*
X157368500Y-137525133D01*
X157368500Y-135778867D01*
X157361745Y-135716685D01*
X157310615Y-135580296D01*
X157223261Y-135463740D01*
X157106705Y-135376386D01*
X156970316Y-135325256D01*
X156908134Y-135318501D01*
X156309000Y-135318501D01*
X156240879Y-135298499D01*
X156194386Y-135244843D01*
X156183000Y-135192501D01*
X156183000Y-135172115D01*
X156178525Y-135156876D01*
X156177135Y-135155671D01*
X156169452Y-135154000D01*
X155097000Y-135154000D01*
X155028879Y-135133998D01*
X154982386Y-135080342D01*
X154971000Y-135028000D01*
X154971000Y-134772000D01*
X154991002Y-134703879D01*
X155044658Y-134657386D01*
X155097000Y-134646000D01*
X156164885Y-134646000D01*
X156180124Y-134641525D01*
X156181329Y-134640135D01*
X156183000Y-134632452D01*
X156183000Y-134604562D01*
X156182663Y-134598047D01*
X156173106Y-134505943D01*
X156170212Y-134492544D01*
X156120619Y-134343893D01*
X156114446Y-134330717D01*
X156087292Y-134286835D01*
X156068455Y-134218383D01*
X156089617Y-134150614D01*
X156100799Y-134136224D01*
X156116173Y-134119150D01*
X156176616Y-134081911D01*
X156247600Y-134083261D01*
X156306586Y-134122774D01*
X156318927Y-134140459D01*
X156340858Y-134178444D01*
X156345276Y-134183351D01*
X156345277Y-134183352D01*
X156464223Y-134315455D01*
X156468645Y-134320366D01*
X156623146Y-134432618D01*
X156629174Y-134435302D01*
X156629176Y-134435303D01*
X156772200Y-134498981D01*
X156797610Y-134510294D01*
X156873693Y-134526466D01*
X156977954Y-134548628D01*
X156977959Y-134548628D01*
X156984411Y-134550000D01*
X157175385Y-134550000D01*
X157181837Y-134548628D01*
X157181842Y-134548628D01*
X157286103Y-134526466D01*
X157362186Y-134510294D01*
X157387596Y-134498981D01*
X157530620Y-134435303D01*
X157530622Y-134435302D01*
X157536650Y-134432618D01*
X157691151Y-134320366D01*
X157695573Y-134315455D01*
X157814519Y-134183352D01*
X157814520Y-134183351D01*
X157818938Y-134178444D01*
X157892268Y-134051433D01*
X157911121Y-134018779D01*
X157911122Y-134018778D01*
X157914425Y-134013056D01*
X157973440Y-133831428D01*
X157978497Y-133783319D01*
X157992712Y-133648065D01*
X157993402Y-133641500D01*
X157991061Y-133619227D01*
X158003833Y-133549389D01*
X158049525Y-133500499D01*
X158049451Y-133500403D01*
X158050047Y-133499940D01*
X158052230Y-133497605D01*
X158055715Y-133495544D01*
X158055721Y-133495539D01*
X158062541Y-133491506D01*
X158177506Y-133376541D01*
X158181540Y-133369720D01*
X158256234Y-133243419D01*
X158256234Y-133243418D01*
X158260269Y-133236596D01*
X158264669Y-133221453D01*
X158295082Y-133116770D01*
X158305629Y-133080466D01*
X158306964Y-133063514D01*
X158308307Y-133046444D01*
X158308307Y-133046438D01*
X158308500Y-133043989D01*
X158308499Y-132644012D01*
X158305629Y-132607534D01*
X158260269Y-132451404D01*
X158256233Y-132444579D01*
X158256231Y-132444575D01*
X158228769Y-132398139D01*
X158211309Y-132329323D01*
X158228769Y-132269861D01*
X158256231Y-132223425D01*
X158256233Y-132223421D01*
X158260269Y-132216596D01*
X158305629Y-132060466D01*
X158308500Y-132023989D01*
X158308499Y-131744755D01*
X158328501Y-131676636D01*
X158355984Y-131647536D01*
X158355643Y-131647157D01*
X158360315Y-131642950D01*
X158360438Y-131642820D01*
X158360550Y-131642739D01*
X158360552Y-131642737D01*
X158365894Y-131638856D01*
X158493681Y-131496934D01*
X158514382Y-131461079D01*
X158565764Y-131412087D01*
X158635478Y-131398652D01*
X158701389Y-131425039D01*
G37*
%TD.AperFunction*%
%TA.AperFunction,Conductor*%
G36*
X149497223Y-137808913D02*
G01*
X149554059Y-137851460D01*
X149562305Y-137863962D01*
X149628960Y-137979411D01*
X149633378Y-137984318D01*
X149633379Y-137984319D01*
X149735259Y-138097468D01*
X149756747Y-138121333D01*
X149785603Y-138142298D01*
X149828955Y-138198520D01*
X149835030Y-138269256D01*
X149801898Y-138332048D01*
X149785605Y-138346166D01*
X149756747Y-138367133D01*
X149752326Y-138372043D01*
X149752325Y-138372044D01*
X149661048Y-138473418D01*
X149628960Y-138509055D01*
X149625659Y-138514773D01*
X149552003Y-138642349D01*
X149533473Y-138674443D01*
X149474458Y-138856071D01*
X149473768Y-138862632D01*
X149473768Y-138862634D01*
X149462673Y-138968199D01*
X149454496Y-139045999D01*
X149455186Y-139052564D01*
X149473316Y-139225058D01*
X149474458Y-139235927D01*
X149533473Y-139417555D01*
X149628960Y-139582943D01*
X149665501Y-139623526D01*
X149696217Y-139687532D01*
X149687452Y-139757985D01*
X149645924Y-139809770D01*
X149533247Y-139891635D01*
X149528826Y-139896545D01*
X149528825Y-139896546D01*
X149426664Y-140010008D01*
X149405460Y-140033557D01*
X149309973Y-140198945D01*
X149250958Y-140380573D01*
X149230996Y-140570501D01*
X149231686Y-140577066D01*
X149246694Y-140719855D01*
X149250958Y-140760429D01*
X149309973Y-140942057D01*
X149313276Y-140947779D01*
X149313277Y-140947780D01*
X149347614Y-141007253D01*
X149364352Y-141076248D01*
X149347615Y-141133251D01*
X149309973Y-141198448D01*
X149250958Y-141380076D01*
X149250268Y-141386637D01*
X149250268Y-141386639D01*
X149238000Y-141503365D01*
X149230996Y-141570004D01*
X149250958Y-141759932D01*
X149309973Y-141941560D01*
X149405460Y-142106948D01*
X149409878Y-142111855D01*
X149409879Y-142111856D01*
X149468706Y-142177190D01*
X149499424Y-142241197D01*
X149490659Y-142311651D01*
X149445196Y-142366182D01*
X149375070Y-142387500D01*
X149250866Y-142387500D01*
X149247469Y-142387869D01*
X149211044Y-142391826D01*
X149188684Y-142394255D01*
X149188420Y-142391826D01*
X149159580Y-142391826D01*
X149159316Y-142394255D01*
X149100531Y-142387869D01*
X149097134Y-142387500D01*
X148450866Y-142387500D01*
X148447469Y-142387869D01*
X148411044Y-142391826D01*
X148388684Y-142394255D01*
X148388452Y-142392116D01*
X148359488Y-142392166D01*
X148359207Y-142394748D01*
X148300486Y-142388369D01*
X148293672Y-142388000D01*
X148246115Y-142388000D01*
X148230876Y-142392475D01*
X148229671Y-142393865D01*
X148225121Y-142414783D01*
X148223903Y-142414518D01*
X148207998Y-142468687D01*
X148177565Y-142501392D01*
X148135739Y-142532739D01*
X148130358Y-142539919D01*
X148124008Y-142546269D01*
X148121425Y-142543686D01*
X148078460Y-142575808D01*
X148007641Y-142580829D01*
X147945350Y-142546766D01*
X147911363Y-142484433D01*
X147908500Y-142457725D01*
X147908500Y-138708628D01*
X147908792Y-138700059D01*
X147912210Y-138649926D01*
X147912210Y-138649922D01*
X147912726Y-138642349D01*
X147901736Y-138579382D01*
X147900775Y-138572866D01*
X147893102Y-138509459D01*
X147890419Y-138502358D01*
X147889778Y-138499749D01*
X147885313Y-138483429D01*
X147884548Y-138480896D01*
X147883243Y-138473418D01*
X147857552Y-138414891D01*
X147855067Y-138408803D01*
X147832487Y-138349045D01*
X147834273Y-138348370D01*
X147822384Y-138288507D01*
X147848398Y-138222448D01*
X147905996Y-138180940D01*
X147921682Y-138176529D01*
X147967121Y-138166870D01*
X147967126Y-138166868D01*
X147973587Y-138165495D01*
X147994177Y-138156328D01*
X148108471Y-138105441D01*
X148159720Y-138094548D01*
X148785040Y-138094548D01*
X148793610Y-138094840D01*
X148843728Y-138098257D01*
X148843732Y-138098257D01*
X148851304Y-138098773D01*
X148858781Y-138097468D01*
X148858782Y-138097468D01*
X148885260Y-138092847D01*
X148914255Y-138087786D01*
X148920773Y-138086825D01*
X148984194Y-138079150D01*
X148991295Y-138076467D01*
X148993904Y-138075826D01*
X149010214Y-138071363D01*
X149012750Y-138070598D01*
X149020236Y-138069291D01*
X149078752Y-138043604D01*
X149084856Y-138041113D01*
X149137500Y-138021221D01*
X149137501Y-138021220D01*
X149144608Y-138018535D01*
X149150871Y-138014231D01*
X149153237Y-138012994D01*
X149168049Y-138004749D01*
X149170303Y-138003416D01*
X149177257Y-138000363D01*
X149227954Y-137961461D01*
X149233284Y-137957589D01*
X149279672Y-137925709D01*
X149279677Y-137925704D01*
X149285933Y-137921405D01*
X149327388Y-137874877D01*
X149332368Y-137869602D01*
X149364096Y-137837874D01*
X149426408Y-137803848D01*
X149497223Y-137808913D01*
G37*
%TD.AperFunction*%
%TA.AperFunction,Conductor*%
G36*
X140744395Y-135697108D02*
G01*
X140780853Y-135720499D01*
X140781683Y-135719448D01*
X140798840Y-135732998D01*
X140931880Y-135815004D01*
X140945064Y-135821152D01*
X140953504Y-135823952D01*
X141011863Y-135864384D01*
X141039098Y-135929949D01*
X141026563Y-135999830D01*
X140978238Y-136051841D01*
X140940031Y-136066791D01*
X140872214Y-136081206D01*
X140866184Y-136083891D01*
X140866183Y-136083891D01*
X140703780Y-136156197D01*
X140703778Y-136156198D01*
X140697750Y-136158882D01*
X140543249Y-136271134D01*
X140415462Y-136413056D01*
X140319975Y-136578444D01*
X140260960Y-136760072D01*
X140260270Y-136766633D01*
X140260270Y-136766635D01*
X140258310Y-136785288D01*
X140240998Y-136950000D01*
X140241688Y-136956565D01*
X140258272Y-137114350D01*
X140260960Y-137139928D01*
X140319975Y-137321556D01*
X140415462Y-137486944D01*
X140419880Y-137491851D01*
X140419881Y-137491852D01*
X140484168Y-137563250D01*
X140543249Y-137628866D01*
X140697750Y-137741118D01*
X140703778Y-137743802D01*
X140703780Y-137743803D01*
X140861498Y-137814023D01*
X140872214Y-137818794D01*
X140961978Y-137837874D01*
X141052558Y-137857128D01*
X141052563Y-137857128D01*
X141059015Y-137858500D01*
X141114907Y-137858500D01*
X141183028Y-137878502D01*
X141204002Y-137895405D01*
X141259781Y-137951184D01*
X141293807Y-138013496D01*
X141288742Y-138084311D01*
X141264325Y-138124586D01*
X141184934Y-138212758D01*
X141172910Y-138233585D01*
X141170939Y-138236998D01*
X141119556Y-138285991D01*
X141061820Y-138299998D01*
X140752113Y-138299998D01*
X140736874Y-138304473D01*
X140735669Y-138305863D01*
X140733998Y-138313546D01*
X140733998Y-138673500D01*
X140713996Y-138741621D01*
X140660340Y-138788114D01*
X140607998Y-138799500D01*
X140560000Y-138799500D01*
X140491879Y-138779498D01*
X140445386Y-138725842D01*
X140434000Y-138673500D01*
X140434000Y-138318114D01*
X140429525Y-138302875D01*
X140428135Y-138301670D01*
X140420452Y-138299999D01*
X140039330Y-138299999D01*
X140032509Y-138300369D01*
X139981647Y-138305893D01*
X139966395Y-138309519D01*
X139845945Y-138354674D01*
X139830351Y-138363212D01*
X139809825Y-138378595D01*
X139743319Y-138403443D01*
X139673936Y-138388390D01*
X139645166Y-138366866D01*
X139469036Y-138190735D01*
X139435011Y-138128423D01*
X139440076Y-138057607D01*
X139482623Y-138000772D01*
X139513903Y-137983658D01*
X139572295Y-137961768D01*
X139572296Y-137961767D01*
X139580705Y-137958615D01*
X139697261Y-137871261D01*
X139784615Y-137754705D01*
X139835745Y-137618316D01*
X139842500Y-137556134D01*
X139842500Y-136009500D01*
X139862502Y-135941379D01*
X139916158Y-135894886D01*
X139968500Y-135883500D01*
X140198732Y-135883500D01*
X140201978Y-135883163D01*
X140201982Y-135883163D01*
X140236083Y-135879625D01*
X140301019Y-135872887D01*
X140382682Y-135845642D01*
X140456324Y-135821073D01*
X140456326Y-135821072D01*
X140463268Y-135818756D01*
X140533218Y-135775470D01*
X140602485Y-135732606D01*
X140608713Y-135728752D01*
X140613886Y-135723570D01*
X140619623Y-135719023D01*
X140621055Y-135720830D01*
X140673575Y-135692098D01*
X140744395Y-135697108D01*
G37*
%TD.AperFunction*%
%TA.AperFunction,Conductor*%
G36*
X154494395Y-135697108D02*
G01*
X154530853Y-135720499D01*
X154531683Y-135719448D01*
X154548840Y-135732998D01*
X154681880Y-135815004D01*
X154695061Y-135821151D01*
X154843814Y-135870491D01*
X154857190Y-135873358D01*
X154938342Y-135881673D01*
X155004070Y-135908514D01*
X155044852Y-135966629D01*
X155051500Y-136007017D01*
X155051500Y-137525133D01*
X155058255Y-137587315D01*
X155109385Y-137723704D01*
X155196739Y-137840260D01*
X155226689Y-137862706D01*
X155269202Y-137919565D01*
X155274227Y-137990383D01*
X155240167Y-138052676D01*
X155202371Y-138078638D01*
X155061970Y-138141148D01*
X155061968Y-138141149D01*
X155055940Y-138143833D01*
X155050599Y-138147713D01*
X155050598Y-138147714D01*
X154916784Y-138244936D01*
X154849916Y-138268794D01*
X154842723Y-138269000D01*
X154478115Y-138269000D01*
X154462876Y-138273475D01*
X154461671Y-138274865D01*
X154460000Y-138282548D01*
X154460000Y-138642501D01*
X154439998Y-138710622D01*
X154386342Y-138757115D01*
X154334000Y-138768501D01*
X154286002Y-138768501D01*
X154217881Y-138748499D01*
X154171388Y-138694843D01*
X154160002Y-138642501D01*
X154160002Y-138287116D01*
X154155527Y-138271877D01*
X154154137Y-138270672D01*
X154146454Y-138269001D01*
X154018375Y-138269001D01*
X153950254Y-138248999D01*
X153903761Y-138195343D01*
X153893065Y-138156172D01*
X153883234Y-138062633D01*
X153883233Y-138062630D01*
X153882544Y-138056071D01*
X153823529Y-137874443D01*
X153817547Y-137864081D01*
X153748104Y-137743803D01*
X153728042Y-137709055D01*
X153653003Y-137625715D01*
X153604677Y-137572044D01*
X153604676Y-137572043D01*
X153600255Y-137567133D01*
X153585117Y-137556134D01*
X153523249Y-137511185D01*
X153479895Y-137454963D01*
X153473820Y-137384227D01*
X153506951Y-137321435D01*
X153523248Y-137307313D01*
X153539440Y-137295549D01*
X153600255Y-137251364D01*
X153627907Y-137220653D01*
X153723623Y-137114350D01*
X153723624Y-137114349D01*
X153728042Y-137109442D01*
X153823529Y-136944054D01*
X153882544Y-136762426D01*
X153884846Y-136740530D01*
X153901816Y-136579063D01*
X153902506Y-136572498D01*
X153899618Y-136545023D01*
X153883234Y-136389133D01*
X153883234Y-136389131D01*
X153882544Y-136382570D01*
X153823529Y-136200942D01*
X153816013Y-136187923D01*
X153749373Y-136072500D01*
X153732635Y-136003505D01*
X153755855Y-135936413D01*
X153811663Y-135892526D01*
X153858492Y-135883500D01*
X153948732Y-135883500D01*
X153951978Y-135883163D01*
X153951982Y-135883163D01*
X153986083Y-135879625D01*
X154051019Y-135872887D01*
X154132682Y-135845642D01*
X154206324Y-135821073D01*
X154206326Y-135821072D01*
X154213268Y-135818756D01*
X154283218Y-135775470D01*
X154352485Y-135732606D01*
X154358713Y-135728752D01*
X154363886Y-135723570D01*
X154369623Y-135719023D01*
X154371055Y-135720830D01*
X154423575Y-135692098D01*
X154494395Y-135697108D01*
G37*
%TD.AperFunction*%
%TA.AperFunction,Conductor*%
G36*
X144385916Y-131843027D02*
G01*
X144393409Y-131844702D01*
X144401335Y-131844453D01*
X144401336Y-131844453D01*
X144461486Y-131842562D01*
X144465445Y-131842500D01*
X144481332Y-131842500D01*
X144549453Y-131862502D01*
X144595946Y-131916158D01*
X144606050Y-131986432D01*
X144603040Y-132001105D01*
X144574957Y-132105913D01*
X144555002Y-132334000D01*
X144574957Y-132562087D01*
X144576381Y-132567400D01*
X144576381Y-132567402D01*
X144615693Y-132714113D01*
X144634216Y-132783243D01*
X144636539Y-132788225D01*
X144636541Y-132788230D01*
X144662807Y-132844559D01*
X144673468Y-132914751D01*
X144644487Y-132979563D01*
X144585067Y-133018419D01*
X144548612Y-133023808D01*
X144364803Y-133023808D01*
X144358351Y-133025180D01*
X144358346Y-133025180D01*
X144281475Y-133041520D01*
X144178002Y-133063514D01*
X144171972Y-133066199D01*
X144171971Y-133066199D01*
X144009568Y-133138505D01*
X144009566Y-133138506D01*
X144003538Y-133141190D01*
X143998197Y-133145070D01*
X143998196Y-133145071D01*
X143956050Y-133175692D01*
X143849037Y-133253442D01*
X143844616Y-133258352D01*
X143844615Y-133258353D01*
X143733151Y-133382147D01*
X143721250Y-133395364D01*
X143625763Y-133560752D01*
X143566748Y-133742380D01*
X143566058Y-133748941D01*
X143566058Y-133748943D01*
X143548447Y-133916500D01*
X143546786Y-133932308D01*
X143547476Y-133938873D01*
X143565242Y-134107903D01*
X143566748Y-134122236D01*
X143625763Y-134303864D01*
X143721250Y-134469252D01*
X143725668Y-134474159D01*
X143725669Y-134474160D01*
X143844615Y-134606263D01*
X143849037Y-134611174D01*
X143854379Y-134615055D01*
X143854381Y-134615057D01*
X143938561Y-134676217D01*
X143981915Y-134732439D01*
X143990500Y-134778153D01*
X143990500Y-135736500D01*
X143970498Y-135804621D01*
X143916842Y-135851114D01*
X143864500Y-135862500D01*
X143749886Y-135862500D01*
X143681765Y-135842498D01*
X143635272Y-135788842D01*
X143630053Y-135775436D01*
X143615751Y-135731417D01*
X143595124Y-135667935D01*
X143499637Y-135502547D01*
X143481273Y-135482151D01*
X143376272Y-135365536D01*
X143376271Y-135365535D01*
X143371850Y-135360625D01*
X143265982Y-135283707D01*
X143222691Y-135252254D01*
X143222690Y-135252253D01*
X143217349Y-135248373D01*
X143211321Y-135245689D01*
X143211319Y-135245688D01*
X143048916Y-135173382D01*
X143048915Y-135173382D01*
X143042885Y-135170697D01*
X142949485Y-135150844D01*
X142862541Y-135132363D01*
X142862536Y-135132363D01*
X142856084Y-135130991D01*
X142665110Y-135130991D01*
X142658658Y-135132363D01*
X142658653Y-135132363D01*
X142572163Y-135150748D01*
X142512465Y-135163437D01*
X142459240Y-135159375D01*
X142458559Y-135162507D01*
X142419452Y-135154000D01*
X141747115Y-135154000D01*
X141731876Y-135158475D01*
X141730671Y-135159865D01*
X141729000Y-135167548D01*
X141729000Y-135864885D01*
X141733475Y-135880124D01*
X141734865Y-135881329D01*
X141750506Y-135884731D01*
X141812818Y-135918755D01*
X141846844Y-135981067D01*
X141849034Y-136021022D01*
X141847093Y-136039491D01*
X141850596Y-136072816D01*
X141837825Y-136142652D01*
X141789323Y-136194500D01*
X141720491Y-136211895D01*
X141651226Y-136187923D01*
X141616595Y-136162762D01*
X141616592Y-136162760D01*
X141611254Y-136158882D01*
X141605226Y-136156198D01*
X141605224Y-136156197D01*
X141442821Y-136083891D01*
X141442820Y-136083891D01*
X141436790Y-136081206D01*
X141310344Y-136054329D01*
X141247871Y-136020600D01*
X141213549Y-135958451D01*
X141213420Y-135904300D01*
X141221000Y-135869453D01*
X141221000Y-134849278D01*
X141241002Y-134781157D01*
X141257905Y-134760183D01*
X141259540Y-134758548D01*
X141321852Y-134724522D01*
X141374833Y-134724397D01*
X141413549Y-134732627D01*
X141413558Y-134732628D01*
X141420013Y-134734000D01*
X141610987Y-134734000D01*
X141617439Y-134732628D01*
X141617444Y-134732628D01*
X141756160Y-134703142D01*
X141797788Y-134694294D01*
X141803821Y-134691608D01*
X141803824Y-134691607D01*
X141881793Y-134656893D01*
X141933041Y-134646000D01*
X142414885Y-134646000D01*
X142430124Y-134641525D01*
X142431329Y-134640135D01*
X142433000Y-134632452D01*
X142433000Y-134604562D01*
X142432663Y-134598047D01*
X142423106Y-134505943D01*
X142420212Y-134492544D01*
X142370616Y-134343884D01*
X142364450Y-134330721D01*
X142356082Y-134317199D01*
X142337243Y-134248748D01*
X142347861Y-134200807D01*
X142350027Y-134197056D01*
X142356075Y-134178444D01*
X142392413Y-134066607D01*
X142409042Y-134015428D01*
X142412879Y-133978927D01*
X142428314Y-133832065D01*
X142429004Y-133825500D01*
X142415123Y-133693428D01*
X142409732Y-133642135D01*
X142409732Y-133642133D01*
X142409042Y-133635572D01*
X142350027Y-133453944D01*
X142254540Y-133288556D01*
X142242639Y-133275338D01*
X142131175Y-133151545D01*
X142131174Y-133151544D01*
X142126753Y-133146634D01*
X142006554Y-133059304D01*
X141963200Y-133003082D01*
X141957125Y-132932345D01*
X141966420Y-132904119D01*
X142020459Y-132788230D01*
X142020461Y-132788225D01*
X142022784Y-132783243D01*
X142041308Y-132714113D01*
X142080619Y-132567402D01*
X142080619Y-132567400D01*
X142082043Y-132562087D01*
X142101998Y-132334000D01*
X142082043Y-132105913D01*
X142053961Y-132001110D01*
X142055651Y-131930135D01*
X142095445Y-131871339D01*
X142160709Y-131843391D01*
X142175668Y-131842500D01*
X144374733Y-131842500D01*
X144385916Y-131843027D01*
G37*
%TD.AperFunction*%
%TA.AperFunction,Conductor*%
G36*
X152968990Y-131572502D02*
G01*
X153015483Y-131626158D01*
X153025587Y-131696432D01*
X153015064Y-131731749D01*
X152943716Y-131884757D01*
X152942294Y-131890065D01*
X152942293Y-131890067D01*
X152894979Y-132066644D01*
X152884457Y-132105913D01*
X152864502Y-132334000D01*
X152884457Y-132562087D01*
X152885881Y-132567400D01*
X152885881Y-132567402D01*
X152925193Y-132714113D01*
X152943716Y-132783243D01*
X152946039Y-132788224D01*
X152946039Y-132788225D01*
X153038151Y-132985762D01*
X153038154Y-132985767D01*
X153040477Y-132990749D01*
X153077756Y-133043989D01*
X153132438Y-133122082D01*
X153171802Y-133178300D01*
X153333700Y-133340198D01*
X153338208Y-133343355D01*
X153338211Y-133343357D01*
X153385603Y-133376541D01*
X153521251Y-133471523D01*
X153526233Y-133473846D01*
X153526238Y-133473849D01*
X153700331Y-133555029D01*
X153728757Y-133568284D01*
X153734065Y-133569706D01*
X153734067Y-133569707D01*
X153944598Y-133626119D01*
X153944600Y-133626119D01*
X153949913Y-133627543D01*
X154178000Y-133647498D01*
X154406087Y-133627543D01*
X154411399Y-133626120D01*
X154416819Y-133625164D01*
X154417218Y-133627428D01*
X154478369Y-133628887D01*
X154537163Y-133668684D01*
X154559831Y-133709965D01*
X154575263Y-133757459D01*
X154613473Y-133875056D01*
X154616776Y-133880777D01*
X154617069Y-133881284D01*
X154617149Y-133881615D01*
X154619461Y-133886807D01*
X154618512Y-133887230D01*
X154633811Y-133950279D01*
X154610593Y-134017372D01*
X154574257Y-134051433D01*
X154547824Y-134067791D01*
X154530689Y-134081371D01*
X154529159Y-134079441D01*
X154477120Y-134107903D01*
X154406301Y-134102887D01*
X154369383Y-134079201D01*
X154368628Y-134080157D01*
X154362882Y-134075619D01*
X154357702Y-134070448D01*
X154351471Y-134066607D01*
X154218331Y-133984538D01*
X154218329Y-133984537D01*
X154212101Y-133980698D01*
X154049757Y-133926851D01*
X154042920Y-133926151D01*
X154042918Y-133926150D01*
X154001599Y-133921917D01*
X153948732Y-133916500D01*
X153401268Y-133916500D01*
X153398022Y-133916837D01*
X153398018Y-133916837D01*
X153363917Y-133920375D01*
X153298981Y-133927113D01*
X153292440Y-133929295D01*
X153292441Y-133929295D01*
X153143676Y-133978927D01*
X153143674Y-133978928D01*
X153136732Y-133981244D01*
X153130508Y-133985096D01*
X153130507Y-133985096D01*
X152998787Y-134066607D01*
X152991287Y-134071248D01*
X152986114Y-134076430D01*
X152946464Y-134116149D01*
X152884181Y-134150228D01*
X152813361Y-134145225D01*
X152768196Y-134116226D01*
X151971450Y-133319480D01*
X151965596Y-133313215D01*
X151950932Y-133296406D01*
X151927561Y-133269615D01*
X151875280Y-133232871D01*
X151869986Y-133228939D01*
X151865613Y-133225510D01*
X151819718Y-133189524D01*
X151812802Y-133186401D01*
X151810516Y-133185017D01*
X151795835Y-133176643D01*
X151793475Y-133175378D01*
X151787261Y-133171010D01*
X151780182Y-133168250D01*
X151780180Y-133168249D01*
X151727725Y-133147798D01*
X151721656Y-133145247D01*
X151663427Y-133118955D01*
X151655960Y-133117571D01*
X151653405Y-133116770D01*
X151637152Y-133112141D01*
X151634572Y-133111478D01*
X151627491Y-133108718D01*
X151619960Y-133107727D01*
X151619958Y-133107726D01*
X151590339Y-133103827D01*
X151564139Y-133100378D01*
X151557641Y-133099348D01*
X151494814Y-133087704D01*
X151487234Y-133088141D01*
X151487233Y-133088141D01*
X151432608Y-133091291D01*
X151425354Y-133091500D01*
X150386322Y-133091500D01*
X150318201Y-133071498D01*
X150271708Y-133017842D01*
X150261604Y-132947568D01*
X150272127Y-132912250D01*
X150329961Y-132788225D01*
X150329961Y-132788224D01*
X150332284Y-132783243D01*
X150350808Y-132714113D01*
X150390119Y-132567402D01*
X150390119Y-132567400D01*
X150391543Y-132562087D01*
X150411498Y-132334000D01*
X150391543Y-132105913D01*
X150381021Y-132066644D01*
X150333707Y-131890067D01*
X150333706Y-131890065D01*
X150332284Y-131884757D01*
X150260936Y-131731750D01*
X150250275Y-131661558D01*
X150279255Y-131596745D01*
X150338675Y-131557889D01*
X150375131Y-131552500D01*
X152900869Y-131552500D01*
X152968990Y-131572502D01*
G37*
%TD.AperFunction*%
%TA.AperFunction,Conductor*%
G36*
X137013621Y-117368502D02*
G01*
X137060114Y-117422158D01*
X137071500Y-117474500D01*
X137071500Y-119262134D01*
X137078255Y-119324316D01*
X137129385Y-119460705D01*
X137216739Y-119577261D01*
X137333295Y-119664615D01*
X137469684Y-119715745D01*
X137531866Y-119722500D01*
X139328134Y-119722500D01*
X139390316Y-119715745D01*
X139526705Y-119664615D01*
X139643261Y-119577261D01*
X139730615Y-119460705D01*
X139735346Y-119448086D01*
X139774598Y-119343382D01*
X139817240Y-119286618D01*
X139883802Y-119261918D01*
X139953150Y-119277126D01*
X139987817Y-119305114D01*
X140016250Y-119337938D01*
X140188126Y-119480632D01*
X140381000Y-119593338D01*
X140385825Y-119595180D01*
X140385826Y-119595181D01*
X140458612Y-119622975D01*
X140589692Y-119673030D01*
X140594760Y-119674061D01*
X140594763Y-119674062D01*
X140702017Y-119695883D01*
X140808597Y-119717567D01*
X140813772Y-119717757D01*
X140813774Y-119717757D01*
X141026673Y-119725564D01*
X141026677Y-119725564D01*
X141031837Y-119725753D01*
X141036957Y-119725097D01*
X141036959Y-119725097D01*
X141248288Y-119698025D01*
X141248289Y-119698025D01*
X141253416Y-119697368D01*
X141258366Y-119695883D01*
X141462429Y-119634661D01*
X141462434Y-119634659D01*
X141467384Y-119633174D01*
X141667994Y-119534896D01*
X141849860Y-119405173D01*
X142008096Y-119247489D01*
X142138453Y-119066077D01*
X142139776Y-119067028D01*
X142186645Y-119023857D01*
X142256580Y-119011625D01*
X142322026Y-119039144D01*
X142349875Y-119070994D01*
X142409987Y-119169088D01*
X142556250Y-119337938D01*
X142728126Y-119480632D01*
X142921000Y-119593338D01*
X142925825Y-119595180D01*
X142925826Y-119595181D01*
X142998612Y-119622975D01*
X143129692Y-119673030D01*
X143134760Y-119674061D01*
X143134763Y-119674062D01*
X143242017Y-119695883D01*
X143348597Y-119717567D01*
X143353772Y-119717757D01*
X143353774Y-119717757D01*
X143566673Y-119725564D01*
X143566677Y-119725564D01*
X143571837Y-119725753D01*
X143576957Y-119725097D01*
X143576959Y-119725097D01*
X143788288Y-119698025D01*
X143788289Y-119698025D01*
X143793416Y-119697368D01*
X143798366Y-119695883D01*
X144002429Y-119634661D01*
X144002434Y-119634659D01*
X144007384Y-119633174D01*
X144207994Y-119534896D01*
X144389860Y-119405173D01*
X144548096Y-119247489D01*
X144678453Y-119066077D01*
X144679776Y-119067028D01*
X144726645Y-119023857D01*
X144796580Y-119011625D01*
X144862026Y-119039144D01*
X144889875Y-119070994D01*
X144949987Y-119169088D01*
X145096250Y-119337938D01*
X145268126Y-119480632D01*
X145461000Y-119593338D01*
X145465825Y-119595180D01*
X145465826Y-119595181D01*
X145538612Y-119622975D01*
X145669692Y-119673030D01*
X145674760Y-119674061D01*
X145674763Y-119674062D01*
X145782017Y-119695883D01*
X145888597Y-119717567D01*
X145893772Y-119717757D01*
X145893774Y-119717757D01*
X146106673Y-119725564D01*
X146106677Y-119725564D01*
X146111837Y-119725753D01*
X146116957Y-119725097D01*
X146116959Y-119725097D01*
X146328288Y-119698025D01*
X146328289Y-119698025D01*
X146333416Y-119697368D01*
X146338366Y-119695883D01*
X146542429Y-119634661D01*
X146542434Y-119634659D01*
X146547384Y-119633174D01*
X146747994Y-119534896D01*
X146929860Y-119405173D01*
X147088096Y-119247489D01*
X147218453Y-119066077D01*
X147219776Y-119067028D01*
X147266645Y-119023857D01*
X147336580Y-119011625D01*
X147402026Y-119039144D01*
X147429875Y-119070994D01*
X147489987Y-119169088D01*
X147636250Y-119337938D01*
X147808126Y-119480632D01*
X148001000Y-119593338D01*
X148005825Y-119595180D01*
X148005826Y-119595181D01*
X148078612Y-119622975D01*
X148209692Y-119673030D01*
X148214760Y-119674061D01*
X148214763Y-119674062D01*
X148322017Y-119695883D01*
X148428597Y-119717567D01*
X148433772Y-119717757D01*
X148433774Y-119717757D01*
X148646673Y-119725564D01*
X148646677Y-119725564D01*
X148651837Y-119725753D01*
X148656957Y-119725097D01*
X148656959Y-119725097D01*
X148868288Y-119698025D01*
X148868289Y-119698025D01*
X148873416Y-119697368D01*
X148878366Y-119695883D01*
X149082429Y-119634661D01*
X149082434Y-119634659D01*
X149087384Y-119633174D01*
X149287994Y-119534896D01*
X149469860Y-119405173D01*
X149628096Y-119247489D01*
X149758453Y-119066077D01*
X149759776Y-119067028D01*
X149806645Y-119023857D01*
X149876580Y-119011625D01*
X149942026Y-119039144D01*
X149969875Y-119070994D01*
X150029987Y-119169088D01*
X150176250Y-119337938D01*
X150348126Y-119480632D01*
X150541000Y-119593338D01*
X150545825Y-119595180D01*
X150545826Y-119595181D01*
X150618612Y-119622975D01*
X150749692Y-119673030D01*
X150754760Y-119674061D01*
X150754763Y-119674062D01*
X150862017Y-119695883D01*
X150968597Y-119717567D01*
X150973772Y-119717757D01*
X150973774Y-119717757D01*
X151186673Y-119725564D01*
X151186677Y-119725564D01*
X151191837Y-119725753D01*
X151196957Y-119725097D01*
X151196959Y-119725097D01*
X151408288Y-119698025D01*
X151408289Y-119698025D01*
X151413416Y-119697368D01*
X151418366Y-119695883D01*
X151622429Y-119634661D01*
X151622434Y-119634659D01*
X151627384Y-119633174D01*
X151827994Y-119534896D01*
X152009860Y-119405173D01*
X152168096Y-119247489D01*
X152298453Y-119066077D01*
X152299776Y-119067028D01*
X152346645Y-119023857D01*
X152416580Y-119011625D01*
X152482026Y-119039144D01*
X152509875Y-119070994D01*
X152569987Y-119169088D01*
X152716250Y-119337938D01*
X152888126Y-119480632D01*
X153081000Y-119593338D01*
X153085825Y-119595180D01*
X153085826Y-119595181D01*
X153158612Y-119622975D01*
X153289692Y-119673030D01*
X153294760Y-119674061D01*
X153294763Y-119674062D01*
X153402017Y-119695883D01*
X153508597Y-119717567D01*
X153513772Y-119717757D01*
X153513774Y-119717757D01*
X153726673Y-119725564D01*
X153726677Y-119725564D01*
X153731837Y-119725753D01*
X153736957Y-119725097D01*
X153736959Y-119725097D01*
X153948288Y-119698025D01*
X153948289Y-119698025D01*
X153953416Y-119697368D01*
X153958366Y-119695883D01*
X154162429Y-119634661D01*
X154162434Y-119634659D01*
X154167384Y-119633174D01*
X154367994Y-119534896D01*
X154549860Y-119405173D01*
X154708096Y-119247489D01*
X154838453Y-119066077D01*
X154839776Y-119067028D01*
X154886645Y-119023857D01*
X154956580Y-119011625D01*
X155022026Y-119039144D01*
X155049875Y-119070994D01*
X155109987Y-119169088D01*
X155256250Y-119337938D01*
X155428126Y-119480632D01*
X155621000Y-119593338D01*
X155625825Y-119595180D01*
X155625826Y-119595181D01*
X155698612Y-119622975D01*
X155829692Y-119673030D01*
X155834760Y-119674061D01*
X155834763Y-119674062D01*
X155942017Y-119695883D01*
X156048597Y-119717567D01*
X156053772Y-119717757D01*
X156053774Y-119717757D01*
X156266673Y-119725564D01*
X156266677Y-119725564D01*
X156271837Y-119725753D01*
X156276957Y-119725097D01*
X156276959Y-119725097D01*
X156488288Y-119698025D01*
X156488289Y-119698025D01*
X156493416Y-119697368D01*
X156498366Y-119695883D01*
X156702429Y-119634661D01*
X156702434Y-119634659D01*
X156707384Y-119633174D01*
X156907994Y-119534896D01*
X156912205Y-119531892D01*
X156916648Y-119529244D01*
X156917552Y-119530761D01*
X156977299Y-119510025D01*
X157046308Y-119526704D01*
X157095346Y-119578044D01*
X157103234Y-119596938D01*
X157153473Y-119751556D01*
X157248960Y-119916944D01*
X157376747Y-120058866D01*
X157531248Y-120171118D01*
X157537276Y-120173802D01*
X157537278Y-120173803D01*
X157699681Y-120246109D01*
X157705712Y-120248794D01*
X157799112Y-120268647D01*
X157886056Y-120287128D01*
X157886061Y-120287128D01*
X157892513Y-120288500D01*
X158083487Y-120288500D01*
X158089939Y-120287128D01*
X158089944Y-120287128D01*
X158176888Y-120268647D01*
X158270288Y-120248794D01*
X158276319Y-120246109D01*
X158438722Y-120173803D01*
X158438724Y-120173802D01*
X158444752Y-120171118D01*
X158549439Y-120095058D01*
X158616306Y-120071200D01*
X158685458Y-120087280D01*
X158734938Y-120138194D01*
X158749500Y-120196994D01*
X158749500Y-125256212D01*
X158729498Y-125324333D01*
X158675842Y-125370826D01*
X158605568Y-125380930D01*
X158540988Y-125351436D01*
X158529864Y-125340522D01*
X158414977Y-125212927D01*
X158414976Y-125212926D01*
X158410555Y-125208016D01*
X158360438Y-125171604D01*
X158317084Y-125115382D01*
X158308499Y-125069668D01*
X158308499Y-125024012D01*
X158305629Y-124987534D01*
X158260269Y-124831404D01*
X158256233Y-124824579D01*
X158256231Y-124824575D01*
X158228769Y-124778139D01*
X158211309Y-124709323D01*
X158228769Y-124649861D01*
X158256231Y-124603425D01*
X158256233Y-124603421D01*
X158260269Y-124596596D01*
X158305629Y-124440466D01*
X158308500Y-124403989D01*
X158308499Y-124004012D01*
X158305629Y-123967534D01*
X158260269Y-123811404D01*
X158191127Y-123694490D01*
X158181540Y-123678280D01*
X158177506Y-123671459D01*
X158062541Y-123556494D01*
X157932716Y-123479716D01*
X157929419Y-123477766D01*
X157929418Y-123477766D01*
X157922596Y-123473731D01*
X157914985Y-123471520D01*
X157914983Y-123471519D01*
X157816781Y-123442989D01*
X157766466Y-123428371D01*
X157760059Y-123427867D01*
X157760055Y-123427866D01*
X157732444Y-123425693D01*
X157732438Y-123425693D01*
X157729989Y-123425500D01*
X157647594Y-123425500D01*
X157579473Y-123405498D01*
X157558499Y-123388595D01*
X156761747Y-122591842D01*
X155951652Y-121781747D01*
X155944112Y-121773461D01*
X155940000Y-121766982D01*
X155890348Y-121720356D01*
X155887507Y-121717602D01*
X155867770Y-121697865D01*
X155864573Y-121695385D01*
X155855551Y-121687680D01*
X155829100Y-121662841D01*
X155823321Y-121657414D01*
X155816375Y-121653595D01*
X155816372Y-121653593D01*
X155805566Y-121647652D01*
X155789047Y-121636801D01*
X155788583Y-121636441D01*
X155773041Y-121624386D01*
X155765772Y-121621241D01*
X155765768Y-121621238D01*
X155732463Y-121606826D01*
X155721813Y-121601609D01*
X155683060Y-121580305D01*
X155663437Y-121575267D01*
X155644734Y-121568863D01*
X155633420Y-121563967D01*
X155633419Y-121563967D01*
X155626145Y-121560819D01*
X155618322Y-121559580D01*
X155618312Y-121559577D01*
X155582476Y-121553901D01*
X155570856Y-121551495D01*
X155535711Y-121542472D01*
X155535710Y-121542472D01*
X155528030Y-121540500D01*
X155507776Y-121540500D01*
X155488065Y-121538949D01*
X155475886Y-121537020D01*
X155468057Y-121535780D01*
X155460165Y-121536526D01*
X155424039Y-121539941D01*
X155412181Y-121540500D01*
X155397394Y-121540500D01*
X155329273Y-121520498D01*
X155294181Y-121486771D01*
X155187357Y-121334211D01*
X155187355Y-121334208D01*
X155184198Y-121329700D01*
X155022300Y-121167802D01*
X155017792Y-121164645D01*
X155017789Y-121164643D01*
X154939611Y-121109902D01*
X154834749Y-121036477D01*
X154829767Y-121034154D01*
X154829762Y-121034151D01*
X154632225Y-120942039D01*
X154632224Y-120942039D01*
X154627243Y-120939716D01*
X154621935Y-120938294D01*
X154621933Y-120938293D01*
X154411402Y-120881881D01*
X154411400Y-120881881D01*
X154406087Y-120880457D01*
X154178000Y-120860502D01*
X153949913Y-120880457D01*
X153944600Y-120881881D01*
X153944598Y-120881881D01*
X153734067Y-120938293D01*
X153734065Y-120938294D01*
X153728757Y-120939716D01*
X153723776Y-120942039D01*
X153723775Y-120942039D01*
X153526238Y-121034151D01*
X153526233Y-121034154D01*
X153521251Y-121036477D01*
X153416389Y-121109902D01*
X153338211Y-121164643D01*
X153338208Y-121164645D01*
X153333700Y-121167802D01*
X153171802Y-121329700D01*
X153040477Y-121517251D01*
X153038154Y-121522233D01*
X153038151Y-121522238D01*
X152957409Y-121695392D01*
X152943716Y-121724757D01*
X152942294Y-121730065D01*
X152942293Y-121730067D01*
X152898163Y-121894763D01*
X152884457Y-121945913D01*
X152864502Y-122174000D01*
X152884457Y-122402087D01*
X152885880Y-122407398D01*
X152885881Y-122407402D01*
X152908569Y-122492072D01*
X152943716Y-122623243D01*
X152946039Y-122628224D01*
X152946039Y-122628225D01*
X153038151Y-122825762D01*
X153038154Y-122825767D01*
X153040477Y-122830749D01*
X153072431Y-122876384D01*
X153151773Y-122989695D01*
X153171802Y-123018300D01*
X153333700Y-123180198D01*
X153338208Y-123183355D01*
X153338211Y-123183357D01*
X153379542Y-123212297D01*
X153521251Y-123311523D01*
X153526233Y-123313846D01*
X153526238Y-123313849D01*
X153560457Y-123329805D01*
X153613742Y-123376722D01*
X153633203Y-123444999D01*
X153612661Y-123512959D01*
X153560457Y-123558195D01*
X153526238Y-123574151D01*
X153526233Y-123574154D01*
X153521251Y-123576477D01*
X153416389Y-123649902D01*
X153338211Y-123704643D01*
X153338208Y-123704645D01*
X153333700Y-123707802D01*
X153171802Y-123869700D01*
X153040477Y-124057251D01*
X153038154Y-124062233D01*
X153038151Y-124062238D01*
X152957409Y-124235392D01*
X152943716Y-124264757D01*
X152942294Y-124270065D01*
X152942293Y-124270067D01*
X152894979Y-124446644D01*
X152884457Y-124485913D01*
X152883978Y-124491389D01*
X152883977Y-124491394D01*
X152881890Y-124515255D01*
X152856027Y-124581373D01*
X152798524Y-124623013D01*
X152727636Y-124626954D01*
X152667274Y-124593369D01*
X152395652Y-124321747D01*
X152388112Y-124313461D01*
X152384000Y-124306982D01*
X152334348Y-124260356D01*
X152331507Y-124257602D01*
X152311770Y-124237865D01*
X152308573Y-124235385D01*
X152299551Y-124227680D01*
X152273100Y-124202841D01*
X152267321Y-124197414D01*
X152260375Y-124193595D01*
X152260372Y-124193593D01*
X152249566Y-124187652D01*
X152233047Y-124176801D01*
X152232583Y-124176441D01*
X152217041Y-124164386D01*
X152209772Y-124161241D01*
X152209768Y-124161238D01*
X152176463Y-124146826D01*
X152165813Y-124141609D01*
X152127060Y-124120305D01*
X152107437Y-124115267D01*
X152088734Y-124108863D01*
X152077420Y-124103967D01*
X152077419Y-124103967D01*
X152070145Y-124100819D01*
X152062322Y-124099580D01*
X152062312Y-124099577D01*
X152026476Y-124093901D01*
X152014856Y-124091495D01*
X151979711Y-124082472D01*
X151979710Y-124082472D01*
X151972030Y-124080500D01*
X151951776Y-124080500D01*
X151932065Y-124078949D01*
X151919886Y-124077020D01*
X151912057Y-124075780D01*
X151904165Y-124076526D01*
X151868039Y-124079941D01*
X151856181Y-124080500D01*
X150317394Y-124080500D01*
X150249273Y-124060498D01*
X150214181Y-124026771D01*
X150107357Y-123874211D01*
X150107355Y-123874208D01*
X150104198Y-123869700D01*
X149942300Y-123707802D01*
X149937789Y-123704643D01*
X149933576Y-123701108D01*
X149934527Y-123699974D01*
X149894529Y-123649929D01*
X149887224Y-123579310D01*
X149919258Y-123515951D01*
X149980462Y-123479970D01*
X149997517Y-123476918D01*
X150008316Y-123475745D01*
X150144705Y-123424615D01*
X150261261Y-123337261D01*
X150348615Y-123220705D01*
X150399745Y-123084316D01*
X150406500Y-123022134D01*
X150406500Y-121325866D01*
X150399745Y-121263684D01*
X150348615Y-121127295D01*
X150261261Y-121010739D01*
X150144705Y-120923385D01*
X150008316Y-120872255D01*
X149946134Y-120865500D01*
X148249866Y-120865500D01*
X148187684Y-120872255D01*
X148051295Y-120923385D01*
X147934739Y-121010739D01*
X147847385Y-121127295D01*
X147796255Y-121263684D01*
X147789500Y-121325866D01*
X147789500Y-123022134D01*
X147796255Y-123084316D01*
X147847385Y-123220705D01*
X147934739Y-123337261D01*
X148051295Y-123424615D01*
X148187684Y-123475745D01*
X148198474Y-123476917D01*
X148200606Y-123477803D01*
X148203222Y-123478425D01*
X148203121Y-123478848D01*
X148264035Y-123504155D01*
X148304463Y-123562517D01*
X148306922Y-123633471D01*
X148270629Y-123694490D01*
X148261969Y-123701489D01*
X148258207Y-123704646D01*
X148253700Y-123707802D01*
X148091802Y-123869700D01*
X147960477Y-124057251D01*
X147958154Y-124062233D01*
X147958151Y-124062238D01*
X147877409Y-124235392D01*
X147863716Y-124264757D01*
X147862294Y-124270065D01*
X147862293Y-124270067D01*
X147814979Y-124446644D01*
X147804457Y-124485913D01*
X147784502Y-124714000D01*
X147804457Y-124942087D01*
X147805880Y-124947398D01*
X147805881Y-124947402D01*
X147850892Y-125115382D01*
X147863716Y-125163243D01*
X147866039Y-125168224D01*
X147866039Y-125168225D01*
X147958151Y-125365762D01*
X147958154Y-125365767D01*
X147960477Y-125370749D01*
X148091802Y-125558300D01*
X148253700Y-125720198D01*
X148258208Y-125723355D01*
X148258211Y-125723357D01*
X148336389Y-125778098D01*
X148441251Y-125851523D01*
X148446233Y-125853846D01*
X148446238Y-125853849D01*
X148480457Y-125869805D01*
X148533742Y-125916722D01*
X148553203Y-125984999D01*
X148532661Y-126052959D01*
X148480457Y-126098195D01*
X148446238Y-126114151D01*
X148446233Y-126114154D01*
X148441251Y-126116477D01*
X148336389Y-126189902D01*
X148258211Y-126244643D01*
X148258208Y-126244645D01*
X148253700Y-126247802D01*
X148091802Y-126409700D01*
X148088645Y-126414208D01*
X148088643Y-126414211D01*
X148054792Y-126462556D01*
X147960477Y-126597251D01*
X147958154Y-126602233D01*
X147958151Y-126602238D01*
X147909118Y-126707391D01*
X147863716Y-126804757D01*
X147862294Y-126810065D01*
X147862293Y-126810067D01*
X147814979Y-126986644D01*
X147804457Y-127025913D01*
X147784502Y-127254000D01*
X147804457Y-127482087D01*
X147805880Y-127487398D01*
X147805881Y-127487402D01*
X147850892Y-127655382D01*
X147863716Y-127703243D01*
X147866039Y-127708224D01*
X147866039Y-127708225D01*
X147958151Y-127905762D01*
X147958154Y-127905767D01*
X147960477Y-127910749D01*
X148091802Y-128098300D01*
X148253700Y-128260198D01*
X148258208Y-128263355D01*
X148258211Y-128263357D01*
X148336389Y-128318098D01*
X148441251Y-128391523D01*
X148446233Y-128393846D01*
X148446238Y-128393849D01*
X148480457Y-128409805D01*
X148533742Y-128456722D01*
X148553203Y-128524999D01*
X148532661Y-128592959D01*
X148480457Y-128638195D01*
X148446238Y-128654151D01*
X148446233Y-128654154D01*
X148441251Y-128656477D01*
X148336389Y-128729902D01*
X148258211Y-128784643D01*
X148258208Y-128784645D01*
X148253700Y-128787802D01*
X148091802Y-128949700D01*
X148088645Y-128954208D01*
X148088643Y-128954211D01*
X148072779Y-128976867D01*
X147960477Y-129137251D01*
X147958154Y-129142233D01*
X147958151Y-129142238D01*
X147867448Y-129336753D01*
X147863716Y-129344757D01*
X147862294Y-129350065D01*
X147862293Y-129350067D01*
X147814979Y-129526644D01*
X147804457Y-129565913D01*
X147784502Y-129794000D01*
X147804457Y-130022087D01*
X147805880Y-130027398D01*
X147805881Y-130027402D01*
X147832539Y-130126888D01*
X147863716Y-130243243D01*
X147866039Y-130248224D01*
X147866039Y-130248225D01*
X147958151Y-130445762D01*
X147958154Y-130445767D01*
X147960477Y-130450749D01*
X148091802Y-130638300D01*
X148253700Y-130800198D01*
X148258208Y-130803355D01*
X148258211Y-130803357D01*
X148336389Y-130858098D01*
X148441251Y-130931523D01*
X148446233Y-130933846D01*
X148446238Y-130933849D01*
X148480457Y-130949805D01*
X148533742Y-130996722D01*
X148553203Y-131064999D01*
X148532661Y-131132959D01*
X148480457Y-131178195D01*
X148446238Y-131194151D01*
X148446233Y-131194154D01*
X148441251Y-131196477D01*
X148336389Y-131269902D01*
X148258211Y-131324643D01*
X148258208Y-131324645D01*
X148253700Y-131327802D01*
X148091802Y-131489700D01*
X148088645Y-131494208D01*
X148088643Y-131494211D01*
X148083300Y-131501842D01*
X147960477Y-131677251D01*
X147958154Y-131682233D01*
X147958151Y-131682238D01*
X147869973Y-131871339D01*
X147863716Y-131884757D01*
X147862294Y-131890065D01*
X147862293Y-131890067D01*
X147814979Y-132066644D01*
X147804457Y-132105913D01*
X147784502Y-132334000D01*
X147804457Y-132562087D01*
X147805881Y-132567400D01*
X147805881Y-132567402D01*
X147845193Y-132714113D01*
X147863716Y-132783243D01*
X147866039Y-132788224D01*
X147866039Y-132788225D01*
X147958152Y-132985762D01*
X147960477Y-132990749D01*
X147963629Y-132995251D01*
X147963899Y-132995718D01*
X147980637Y-133064713D01*
X147957417Y-133131805D01*
X147901609Y-133175692D01*
X147871619Y-133183119D01*
X147869996Y-133183119D01*
X147863544Y-133184491D01*
X147863539Y-133184491D01*
X147776595Y-133202972D01*
X147683195Y-133222825D01*
X147677165Y-133225510D01*
X147677164Y-133225510D01*
X147514761Y-133297816D01*
X147514759Y-133297817D01*
X147508731Y-133300501D01*
X147503390Y-133304381D01*
X147503389Y-133304382D01*
X147472569Y-133326774D01*
X147354230Y-133412753D01*
X147349815Y-133417656D01*
X147344903Y-133422079D01*
X147342877Y-133419828D01*
X147293586Y-133450161D01*
X147222603Y-133448773D01*
X147163638Y-133409230D01*
X147151338Y-133391594D01*
X147132357Y-133358718D01*
X147110613Y-133321056D01*
X146988734Y-133185695D01*
X146958018Y-133121690D01*
X146966782Y-133051236D01*
X146979158Y-133029116D01*
X146997387Y-133003082D01*
X147006023Y-132990749D01*
X147008346Y-132985767D01*
X147008349Y-132985762D01*
X147100461Y-132788225D01*
X147100461Y-132788224D01*
X147102784Y-132783243D01*
X147121308Y-132714113D01*
X147160619Y-132567402D01*
X147160619Y-132567400D01*
X147162043Y-132562087D01*
X147181998Y-132334000D01*
X147162043Y-132105913D01*
X147151521Y-132066644D01*
X147104207Y-131890067D01*
X147104206Y-131890065D01*
X147102784Y-131884757D01*
X147096527Y-131871339D01*
X147008349Y-131682238D01*
X147008346Y-131682233D01*
X147006023Y-131677251D01*
X146883200Y-131501842D01*
X146877857Y-131494211D01*
X146877855Y-131494208D01*
X146874698Y-131489700D01*
X146712800Y-131327802D01*
X146708292Y-131324645D01*
X146708289Y-131324643D01*
X146630111Y-131269902D01*
X146525249Y-131196477D01*
X146520267Y-131194154D01*
X146520262Y-131194151D01*
X146486043Y-131178195D01*
X146432758Y-131131278D01*
X146413297Y-131063001D01*
X146433839Y-130995041D01*
X146486043Y-130949805D01*
X146520262Y-130933849D01*
X146520267Y-130933846D01*
X146525249Y-130931523D01*
X146630111Y-130858098D01*
X146708289Y-130803357D01*
X146708292Y-130803355D01*
X146712800Y-130800198D01*
X146874698Y-130638300D01*
X147006023Y-130450749D01*
X147008346Y-130445767D01*
X147008349Y-130445762D01*
X147100461Y-130248225D01*
X147100461Y-130248224D01*
X147102784Y-130243243D01*
X147133962Y-130126888D01*
X147160619Y-130027402D01*
X147160620Y-130027398D01*
X147162043Y-130022087D01*
X147181998Y-129794000D01*
X147162043Y-129565913D01*
X147151521Y-129526644D01*
X147104207Y-129350067D01*
X147104206Y-129350065D01*
X147102784Y-129344757D01*
X147099052Y-129336753D01*
X147008349Y-129142238D01*
X147008346Y-129142233D01*
X147006023Y-129137251D01*
X146893721Y-128976867D01*
X146877857Y-128954211D01*
X146877855Y-128954208D01*
X146874698Y-128949700D01*
X146712800Y-128787802D01*
X146708292Y-128784645D01*
X146708289Y-128784643D01*
X146630111Y-128729902D01*
X146525249Y-128656477D01*
X146520267Y-128654154D01*
X146520262Y-128654151D01*
X146486043Y-128638195D01*
X146432758Y-128591278D01*
X146413297Y-128523001D01*
X146433839Y-128455041D01*
X146486043Y-128409805D01*
X146520262Y-128393849D01*
X146520267Y-128393846D01*
X146525249Y-128391523D01*
X146630111Y-128318098D01*
X146708289Y-128263357D01*
X146708292Y-128263355D01*
X146712800Y-128260198D01*
X146874698Y-128098300D01*
X147006023Y-127910749D01*
X147008346Y-127905767D01*
X147008349Y-127905762D01*
X147100461Y-127708225D01*
X147100461Y-127708224D01*
X147102784Y-127703243D01*
X147115609Y-127655382D01*
X147160619Y-127487402D01*
X147160620Y-127487398D01*
X147162043Y-127482087D01*
X147181998Y-127254000D01*
X147162043Y-127025913D01*
X147151521Y-126986644D01*
X147104207Y-126810067D01*
X147104206Y-126810065D01*
X147102784Y-126804757D01*
X147057382Y-126707391D01*
X147008349Y-126602238D01*
X147008346Y-126602233D01*
X147006023Y-126597251D01*
X146911708Y-126462556D01*
X146877857Y-126414211D01*
X146877855Y-126414208D01*
X146874698Y-126409700D01*
X146712800Y-126247802D01*
X146708292Y-126244645D01*
X146708289Y-126244643D01*
X146630111Y-126189902D01*
X146525249Y-126116477D01*
X146520267Y-126114154D01*
X146520262Y-126114151D01*
X146486043Y-126098195D01*
X146432758Y-126051278D01*
X146413297Y-125983001D01*
X146433839Y-125915041D01*
X146486043Y-125869805D01*
X146520262Y-125853849D01*
X146520267Y-125853846D01*
X146525249Y-125851523D01*
X146630111Y-125778098D01*
X146708289Y-125723357D01*
X146708292Y-125723355D01*
X146712800Y-125720198D01*
X146874698Y-125558300D01*
X147006023Y-125370749D01*
X147008346Y-125365767D01*
X147008349Y-125365762D01*
X147100461Y-125168225D01*
X147100461Y-125168224D01*
X147102784Y-125163243D01*
X147115609Y-125115382D01*
X147160619Y-124947402D01*
X147160620Y-124947398D01*
X147162043Y-124942087D01*
X147181998Y-124714000D01*
X147162043Y-124485913D01*
X147151521Y-124446644D01*
X147104207Y-124270067D01*
X147104206Y-124270065D01*
X147102784Y-124264757D01*
X147089091Y-124235392D01*
X147008349Y-124062238D01*
X147008346Y-124062233D01*
X147006023Y-124057251D01*
X146874698Y-123869700D01*
X146712800Y-123707802D01*
X146708292Y-123704645D01*
X146708289Y-123704643D01*
X146630111Y-123649902D01*
X146525249Y-123576477D01*
X146520267Y-123574154D01*
X146520262Y-123574151D01*
X146486043Y-123558195D01*
X146432758Y-123511278D01*
X146413297Y-123443001D01*
X146433839Y-123375041D01*
X146486043Y-123329805D01*
X146520262Y-123313849D01*
X146520267Y-123313846D01*
X146525249Y-123311523D01*
X146666958Y-123212297D01*
X146708289Y-123183357D01*
X146708292Y-123183355D01*
X146712800Y-123180198D01*
X146874698Y-123018300D01*
X146894728Y-122989695D01*
X146974069Y-122876384D01*
X147006023Y-122830749D01*
X147008346Y-122825767D01*
X147008349Y-122825762D01*
X147100461Y-122628225D01*
X147100461Y-122628224D01*
X147102784Y-122623243D01*
X147137932Y-122492072D01*
X147160619Y-122407402D01*
X147160620Y-122407398D01*
X147162043Y-122402087D01*
X147181998Y-122174000D01*
X147162043Y-121945913D01*
X147148337Y-121894763D01*
X147104207Y-121730067D01*
X147104206Y-121730065D01*
X147102784Y-121724757D01*
X147089091Y-121695392D01*
X147008349Y-121522238D01*
X147008346Y-121522233D01*
X147006023Y-121517251D01*
X146874698Y-121329700D01*
X146712800Y-121167802D01*
X146708292Y-121164645D01*
X146708289Y-121164643D01*
X146630111Y-121109902D01*
X146525249Y-121036477D01*
X146520267Y-121034154D01*
X146520262Y-121034151D01*
X146322725Y-120942039D01*
X146322724Y-120942039D01*
X146317743Y-120939716D01*
X146312435Y-120938294D01*
X146312433Y-120938293D01*
X146101902Y-120881881D01*
X146101900Y-120881881D01*
X146096587Y-120880457D01*
X145868500Y-120860502D01*
X145640413Y-120880457D01*
X145635100Y-120881881D01*
X145635098Y-120881881D01*
X145424567Y-120938293D01*
X145424565Y-120938294D01*
X145419257Y-120939716D01*
X145414276Y-120942039D01*
X145414275Y-120942039D01*
X145216738Y-121034151D01*
X145216733Y-121034154D01*
X145211751Y-121036477D01*
X145106889Y-121109902D01*
X145028711Y-121164643D01*
X145028708Y-121164645D01*
X145024200Y-121167802D01*
X144862302Y-121329700D01*
X144730977Y-121517251D01*
X144728654Y-121522233D01*
X144728651Y-121522238D01*
X144647909Y-121695392D01*
X144634216Y-121724757D01*
X144632794Y-121730065D01*
X144632793Y-121730067D01*
X144588663Y-121894763D01*
X144574957Y-121945913D01*
X144555002Y-122174000D01*
X144574957Y-122402087D01*
X144591960Y-122465541D01*
X144590270Y-122536518D01*
X144559348Y-122587247D01*
X144518000Y-122628595D01*
X144455688Y-122662621D01*
X144428905Y-122665500D01*
X142223000Y-122665500D01*
X142154879Y-122645498D01*
X142108386Y-122591842D01*
X142097000Y-122539500D01*
X142097000Y-121325866D01*
X142090245Y-121263684D01*
X142039115Y-121127295D01*
X141951761Y-121010739D01*
X141835205Y-120923385D01*
X141698816Y-120872255D01*
X141636634Y-120865500D01*
X139940366Y-120865500D01*
X139878184Y-120872255D01*
X139741795Y-120923385D01*
X139625239Y-121010739D01*
X139537885Y-121127295D01*
X139486755Y-121263684D01*
X139480000Y-121325866D01*
X139480000Y-122539500D01*
X139459998Y-122607621D01*
X139406342Y-122654114D01*
X139354000Y-122665500D01*
X138905768Y-122665500D01*
X138894585Y-122664973D01*
X138887092Y-122663298D01*
X138879166Y-122663547D01*
X138879165Y-122663547D01*
X138819002Y-122665438D01*
X138815044Y-122665500D01*
X138787144Y-122665500D01*
X138783154Y-122666004D01*
X138771320Y-122666936D01*
X138727111Y-122668326D01*
X138719495Y-122670539D01*
X138719493Y-122670539D01*
X138707652Y-122673979D01*
X138688293Y-122677988D01*
X138686983Y-122678154D01*
X138668203Y-122680526D01*
X138660837Y-122683442D01*
X138660831Y-122683444D01*
X138627098Y-122696800D01*
X138615868Y-122700645D01*
X138581017Y-122710770D01*
X138573407Y-122712981D01*
X138566584Y-122717016D01*
X138555966Y-122723295D01*
X138538213Y-122731992D01*
X138530568Y-122735019D01*
X138519383Y-122739448D01*
X138512968Y-122744109D01*
X138483612Y-122765437D01*
X138473695Y-122771951D01*
X138435638Y-122794458D01*
X138421317Y-122808779D01*
X138406284Y-122821619D01*
X138389893Y-122833528D01*
X138384842Y-122839634D01*
X138361702Y-122867605D01*
X138353712Y-122876384D01*
X138269362Y-122960734D01*
X138207050Y-122994760D01*
X138136235Y-122989695D01*
X138079399Y-122947148D01*
X138054588Y-122880628D01*
X138054957Y-122858469D01*
X138072814Y-122688565D01*
X138073504Y-122682000D01*
X138067852Y-122628225D01*
X138054232Y-122498635D01*
X138054232Y-122498633D01*
X138053542Y-122492072D01*
X137994527Y-122310444D01*
X137899040Y-122145056D01*
X137771253Y-122003134D01*
X137616752Y-121890882D01*
X137610724Y-121888198D01*
X137610722Y-121888197D01*
X137448319Y-121815891D01*
X137448318Y-121815891D01*
X137442288Y-121813206D01*
X137348888Y-121793353D01*
X137261944Y-121774872D01*
X137261939Y-121774872D01*
X137255487Y-121773500D01*
X137064513Y-121773500D01*
X137058061Y-121774872D01*
X137058056Y-121774872D01*
X136971112Y-121793353D01*
X136877712Y-121813206D01*
X136871682Y-121815891D01*
X136871681Y-121815891D01*
X136709278Y-121888197D01*
X136709276Y-121888198D01*
X136703248Y-121890882D01*
X136548747Y-122003134D01*
X136420960Y-122145056D01*
X136325473Y-122310444D01*
X136266458Y-122492072D01*
X136265768Y-122498633D01*
X136265768Y-122498635D01*
X136252148Y-122628225D01*
X136246496Y-122682000D01*
X136266458Y-122871928D01*
X136325473Y-123053556D01*
X136420960Y-123218944D01*
X136425378Y-123223851D01*
X136425379Y-123223852D01*
X136521028Y-123330081D01*
X136548747Y-123360866D01*
X136703248Y-123473118D01*
X136709276Y-123475802D01*
X136709278Y-123475803D01*
X136846166Y-123536749D01*
X136877712Y-123550794D01*
X137039329Y-123585147D01*
X137101800Y-123618874D01*
X137136122Y-123681024D01*
X137131394Y-123751863D01*
X137090817Y-123807325D01*
X137085459Y-123810494D01*
X136970494Y-123925459D01*
X136887731Y-124065404D01*
X136885520Y-124073015D01*
X136885519Y-124073017D01*
X136883345Y-124080500D01*
X136842371Y-124221534D01*
X136841867Y-124227941D01*
X136841866Y-124227945D01*
X136840865Y-124240669D01*
X136839500Y-124258011D01*
X136839500Y-124260480D01*
X136839501Y-124637222D01*
X136819499Y-124705342D01*
X136765844Y-124751835D01*
X136713501Y-124763222D01*
X136537653Y-124763222D01*
X136531201Y-124764594D01*
X136531196Y-124764594D01*
X136467474Y-124778139D01*
X136350852Y-124802928D01*
X136344822Y-124805613D01*
X136344821Y-124805613D01*
X136182418Y-124877919D01*
X136182416Y-124877920D01*
X136176388Y-124880604D01*
X136171047Y-124884484D01*
X136171046Y-124884485D01*
X136090561Y-124942961D01*
X136023693Y-124966820D01*
X135954542Y-124950739D01*
X135905061Y-124899825D01*
X135890500Y-124841025D01*
X135890500Y-117474500D01*
X135910502Y-117406379D01*
X135964158Y-117359886D01*
X136016500Y-117348500D01*
X136945500Y-117348500D01*
X137013621Y-117368502D01*
G37*
%TD.AperFunction*%
%TD*%
%TA.AperFunction,Conductor*%
%TO.N,+5V*%
G36*
X136099012Y-144817848D02*
G01*
X136125619Y-144850072D01*
X136154412Y-144899943D01*
X136282199Y-145041865D01*
X136436700Y-145154117D01*
X136442728Y-145156801D01*
X136442730Y-145156802D01*
X136605135Y-145229109D01*
X136605137Y-145229110D01*
X136608971Y-145230817D01*
X136608973Y-145230818D01*
X136611164Y-145231793D01*
X136610986Y-145232194D01*
X136666291Y-145270014D01*
X136693926Y-145335411D01*
X136681817Y-145405367D01*
X136662386Y-145434076D01*
X136617088Y-145484385D01*
X136521601Y-145649773D01*
X136462586Y-145831401D01*
X136461896Y-145837962D01*
X136461896Y-145837964D01*
X136454805Y-145905438D01*
X136427792Y-145971095D01*
X136418590Y-145981363D01*
X136402494Y-145997459D01*
X136319731Y-146137404D01*
X136274371Y-146293534D01*
X136271500Y-146330011D01*
X136271501Y-146729988D01*
X136274371Y-146766466D01*
X136319731Y-146922596D01*
X136323767Y-146929421D01*
X136323769Y-146929425D01*
X136351231Y-146975861D01*
X136368691Y-147044677D01*
X136351231Y-147104139D01*
X136323769Y-147150575D01*
X136323767Y-147150579D01*
X136319731Y-147157404D01*
X136274371Y-147313534D01*
X136273867Y-147319941D01*
X136273866Y-147319945D01*
X136272449Y-147337953D01*
X136271500Y-147350011D01*
X136271501Y-147749988D01*
X136274371Y-147786466D01*
X136319731Y-147942596D01*
X136323766Y-147949418D01*
X136323766Y-147949419D01*
X136398460Y-148075720D01*
X136402494Y-148082541D01*
X136517459Y-148197506D01*
X136524280Y-148201540D01*
X136567852Y-148227308D01*
X136657404Y-148280269D01*
X136665015Y-148282480D01*
X136665017Y-148282481D01*
X136696061Y-148291500D01*
X136813534Y-148325629D01*
X136819941Y-148326133D01*
X136819945Y-148326134D01*
X136847556Y-148328307D01*
X136847562Y-148328307D01*
X136850011Y-148328500D01*
X137099848Y-148328500D01*
X137349988Y-148328499D01*
X137386466Y-148325629D01*
X137503939Y-148291500D01*
X137534983Y-148282481D01*
X137534985Y-148282480D01*
X137542596Y-148280269D01*
X137609860Y-148240489D01*
X137678678Y-148223030D01*
X137746009Y-148245547D01*
X137790478Y-148300892D01*
X137800000Y-148348943D01*
X137800000Y-149595870D01*
X137779998Y-149663991D01*
X137732183Y-149707631D01*
X137703607Y-149722507D01*
X137699474Y-149725610D01*
X137699471Y-149725612D01*
X137679512Y-149740598D01*
X137524965Y-149856635D01*
X137522732Y-149858972D01*
X137459020Y-149889000D01*
X137422832Y-149889388D01*
X136745235Y-149798463D01*
X136683900Y-149772464D01*
X136648139Y-149744222D01*
X136639552Y-149738517D01*
X136453117Y-149635599D01*
X136443705Y-149631369D01*
X136242959Y-149560280D01*
X136232989Y-149557646D01*
X136023327Y-149520301D01*
X136013073Y-149519331D01*
X135993834Y-149519096D01*
X135925962Y-149498263D01*
X135880128Y-149444044D01*
X135869372Y-149392754D01*
X135874446Y-147570896D01*
X135877324Y-147544469D01*
X135877880Y-147541911D01*
X135878837Y-147537513D01*
X135891530Y-147360041D01*
X135892953Y-147348143D01*
X135895576Y-147332552D01*
X135895729Y-147320000D01*
X135891773Y-147292376D01*
X135890500Y-147274514D01*
X135890500Y-144913072D01*
X135910502Y-144844951D01*
X135964158Y-144798458D01*
X136034432Y-144788354D01*
X136099012Y-144817848D01*
G37*
%TD.AperFunction*%
%TA.AperFunction,Conductor*%
G36*
X140007710Y-142306502D02*
G01*
X140054203Y-142360158D01*
X140064899Y-142399332D01*
X140066125Y-142410996D01*
X140125140Y-142592624D01*
X140220627Y-142758012D01*
X140225045Y-142762919D01*
X140225046Y-142762920D01*
X140235825Y-142774891D01*
X140348414Y-142899934D01*
X140502915Y-143012186D01*
X140508943Y-143014870D01*
X140508945Y-143014871D01*
X140671348Y-143087177D01*
X140677379Y-143089862D01*
X140770780Y-143109715D01*
X140857723Y-143128196D01*
X140857728Y-143128196D01*
X140864180Y-143129568D01*
X141055154Y-143129568D01*
X141061606Y-143128196D01*
X141061611Y-143128196D01*
X141148554Y-143109715D01*
X141241955Y-143089862D01*
X141247986Y-143087177D01*
X141410389Y-143014871D01*
X141410391Y-143014870D01*
X141416419Y-143012186D01*
X141570920Y-142899934D01*
X141683509Y-142774891D01*
X141694288Y-142762920D01*
X141694289Y-142762919D01*
X141698707Y-142758012D01*
X141791519Y-142597257D01*
X141842901Y-142548264D01*
X141912615Y-142534828D01*
X141978526Y-142561214D01*
X142019708Y-142619046D01*
X142021645Y-142625699D01*
X142022255Y-142631316D01*
X142073385Y-142767705D01*
X142160739Y-142884261D01*
X142277295Y-142971615D01*
X142283813Y-142974058D01*
X142333242Y-143023598D01*
X142347897Y-143097029D01*
X142336496Y-143205500D01*
X142356458Y-143395428D01*
X142415473Y-143577056D01*
X142418776Y-143582778D01*
X142418777Y-143582779D01*
X142419608Y-143584218D01*
X142419836Y-143585156D01*
X142421461Y-143588807D01*
X142420793Y-143589104D01*
X142436346Y-143653213D01*
X142413126Y-143720305D01*
X142399584Y-143736313D01*
X141956302Y-144179595D01*
X141893990Y-144213621D01*
X141867207Y-144216500D01*
X140725288Y-144216500D01*
X140714105Y-144215973D01*
X140706612Y-144214298D01*
X140698686Y-144214547D01*
X140698685Y-144214547D01*
X140638522Y-144216438D01*
X140634564Y-144216500D01*
X140606665Y-144216500D01*
X140602675Y-144217004D01*
X140590841Y-144217936D01*
X140546632Y-144219326D01*
X140539018Y-144221538D01*
X140539013Y-144221539D01*
X140527180Y-144224977D01*
X140507817Y-144228988D01*
X140487724Y-144231526D01*
X140480357Y-144234443D01*
X140480352Y-144234444D01*
X140446613Y-144247802D01*
X140435386Y-144251646D01*
X140392928Y-144263982D01*
X140386102Y-144268019D01*
X140375493Y-144274293D01*
X140357745Y-144282988D01*
X140338904Y-144290448D01*
X140332488Y-144295110D01*
X140332487Y-144295110D01*
X140303134Y-144316436D01*
X140293214Y-144322952D01*
X140261986Y-144341420D01*
X140261983Y-144341422D01*
X140255159Y-144345458D01*
X140240838Y-144359779D01*
X140225805Y-144372619D01*
X140209414Y-144384528D01*
X140204363Y-144390633D01*
X140204358Y-144390638D01*
X140181227Y-144418598D01*
X140173239Y-144427376D01*
X140057595Y-144543020D01*
X139995283Y-144577046D01*
X139924468Y-144571981D01*
X139867632Y-144529434D01*
X139842821Y-144462914D01*
X139842500Y-144453925D01*
X139842500Y-142859866D01*
X139835745Y-142797684D01*
X139784615Y-142661295D01*
X139697261Y-142544739D01*
X139655347Y-142513326D01*
X139612832Y-142456466D01*
X139607806Y-142385648D01*
X139641866Y-142323355D01*
X139704198Y-142289365D01*
X139730912Y-142286500D01*
X139939589Y-142286500D01*
X140007710Y-142306502D01*
G37*
%TD.AperFunction*%
%TA.AperFunction,Conductor*%
G36*
X141957621Y-141111502D02*
G01*
X142004114Y-141165158D01*
X142015500Y-141217500D01*
X142015500Y-141762587D01*
X141995498Y-141830708D01*
X141941842Y-141877201D01*
X141871568Y-141887305D01*
X141806988Y-141857811D01*
X141780381Y-141825587D01*
X141702008Y-141689842D01*
X141698707Y-141684124D01*
X141624863Y-141602112D01*
X141594146Y-141538105D01*
X141592499Y-141517802D01*
X141592499Y-141259867D01*
X141589375Y-141231107D01*
X141601903Y-141161225D01*
X141650225Y-141109209D01*
X141714638Y-141091500D01*
X141889500Y-141091500D01*
X141957621Y-141111502D01*
G37*
%TD.AperFunction*%
%TD*%
M02*
