%TF.GenerationSoftware,KiCad,Pcbnew,(6.0.9)*%
%TF.CreationDate,2022-12-15T20:33:27+01:00*%
%TF.ProjectId,8view,38766965-772e-46b6-9963-61645f706362,rev?*%
%TF.SameCoordinates,Original*%
%TF.FileFunction,Paste,Top*%
%TF.FilePolarity,Positive*%
%FSLAX46Y46*%
G04 Gerber Fmt 4.6, Leading zero omitted, Abs format (unit mm)*
G04 Created by KiCad (PCBNEW (6.0.9)) date 2022-12-15 20:33:27*
%MOMM*%
%LPD*%
G01*
G04 APERTURE LIST*
G04 Aperture macros list*
%AMRoundRect*
0 Rectangle with rounded corners*
0 $1 Rounding radius*
0 $2 $3 $4 $5 $6 $7 $8 $9 X,Y pos of 4 corners*
0 Add a 4 corners polygon primitive as box body*
4,1,4,$2,$3,$4,$5,$6,$7,$8,$9,$2,$3,0*
0 Add four circle primitives for the rounded corners*
1,1,$1+$1,$2,$3*
1,1,$1+$1,$4,$5*
1,1,$1+$1,$6,$7*
1,1,$1+$1,$8,$9*
0 Add four rect primitives between the rounded corners*
20,1,$1+$1,$2,$3,$4,$5,0*
20,1,$1+$1,$4,$5,$6,$7,0*
20,1,$1+$1,$6,$7,$8,$9,0*
20,1,$1+$1,$8,$9,$2,$3,0*%
G04 Aperture macros list end*
%ADD10RoundRect,0.225000X-0.225000X-0.250000X0.225000X-0.250000X0.225000X0.250000X-0.225000X0.250000X0*%
%ADD11RoundRect,0.135000X-0.185000X0.135000X-0.185000X-0.135000X0.185000X-0.135000X0.185000X0.135000X0*%
%ADD12RoundRect,0.135000X0.185000X-0.135000X0.185000X0.135000X-0.185000X0.135000X-0.185000X-0.135000X0*%
%ADD13RoundRect,0.218750X0.256250X-0.218750X0.256250X0.218750X-0.256250X0.218750X-0.256250X-0.218750X0*%
%ADD14R,0.550000X1.600000*%
%ADD15R,1.600000X0.550000*%
%ADD16R,1.000001X0.299999*%
%ADD17R,1.300000X1.649999*%
G04 APERTURE END LIST*
D10*
%TO.C,C2*%
X139925000Y-134900000D03*
X141475000Y-134900000D03*
%TD*%
%TO.C,C1*%
X153675000Y-134900000D03*
X155225000Y-134900000D03*
%TD*%
D11*
%TO.C,R10*%
X136800000Y-134290000D03*
X136800000Y-135310000D03*
%TD*%
D12*
%TO.C,R12*%
X137668000Y-128018000D03*
X137668000Y-126998000D03*
%TD*%
%TO.C,R13*%
X137668000Y-130558000D03*
X137668000Y-129538000D03*
%TD*%
D13*
%TO.C,D4*%
X146050000Y-147345500D03*
X146050000Y-145770500D03*
%TD*%
D12*
%TO.C,R6*%
X149800000Y-147550000D03*
X149800000Y-146530000D03*
%TD*%
D14*
%TO.C,U1*%
X144774000Y-143696000D03*
X145574000Y-143696000D03*
X146374000Y-143696000D03*
X147174000Y-143696000D03*
X147974000Y-143696000D03*
X148774000Y-143696000D03*
X149574000Y-143696000D03*
X150374000Y-143696000D03*
D15*
X151824000Y-142246000D03*
X151824000Y-141446000D03*
X151824000Y-140646000D03*
X151824000Y-139846000D03*
X151824000Y-139046000D03*
X151824000Y-138246000D03*
X151824000Y-137446000D03*
X151824000Y-136646000D03*
D14*
X150374000Y-135196000D03*
X149574000Y-135196000D03*
X148774000Y-135196000D03*
X147974000Y-135196000D03*
X147174000Y-135196000D03*
X146374000Y-135196000D03*
X145574000Y-135196000D03*
X144774000Y-135196000D03*
D15*
X143324000Y-136646000D03*
X143324000Y-137446000D03*
X143324000Y-138246000D03*
X143324000Y-139046000D03*
X143324000Y-139846000D03*
X143324000Y-140646000D03*
X143324000Y-141446000D03*
X143324000Y-142246000D03*
%TD*%
D12*
%TO.C,R25*%
X157480000Y-130304000D03*
X157480000Y-129284000D03*
%TD*%
%TO.C,R23*%
X157480000Y-132844000D03*
X157480000Y-131824000D03*
%TD*%
%TO.C,R21*%
X156464000Y-127764000D03*
X156464000Y-126744000D03*
%TD*%
%TO.C,R24*%
X157480000Y-127764000D03*
X157480000Y-126744000D03*
%TD*%
%TO.C,R7*%
X152340000Y-147548000D03*
X152340000Y-146528000D03*
%TD*%
%TO.C,R8*%
X154880000Y-147550000D03*
X154880000Y-146530000D03*
%TD*%
D16*
%TO.C,J4*%
X140583999Y-138957997D03*
X140583999Y-139457999D03*
X140583999Y-139957998D03*
X140583999Y-140457999D03*
X140583999Y-140957999D03*
X140583999Y-141458000D03*
D17*
X138684000Y-136683001D03*
X138684000Y-143732999D03*
%TD*%
D12*
%TO.C,R26*%
X156464000Y-130304000D03*
X156464000Y-129284000D03*
%TD*%
%TO.C,R11*%
X137668000Y-125478000D03*
X137668000Y-124458000D03*
%TD*%
D13*
%TO.C,D1*%
X138430000Y-147345500D03*
X138430000Y-145770500D03*
%TD*%
D12*
%TO.C,R1*%
X137100000Y-147550000D03*
X137100000Y-146530000D03*
%TD*%
%TO.C,R19*%
X157480000Y-125224000D03*
X157480000Y-124204000D03*
%TD*%
D16*
%TO.C,J3*%
X154310001Y-141427002D03*
X154310001Y-140927000D03*
X154310001Y-140427001D03*
X154310001Y-139927000D03*
X154310001Y-139427000D03*
X154310001Y-138926999D03*
D17*
X156210000Y-143701998D03*
X156210000Y-136652000D03*
%TD*%
D12*
%TO.C,R2*%
X139640000Y-147548000D03*
X139640000Y-146528000D03*
%TD*%
%TO.C,R20*%
X156464000Y-125224000D03*
X156464000Y-124204000D03*
%TD*%
D13*
%TO.C,D5*%
X148590000Y-147345500D03*
X148590000Y-145770500D03*
%TD*%
D12*
%TO.C,R4*%
X144720000Y-147550000D03*
X144720000Y-146530000D03*
%TD*%
%TO.C,R17*%
X138684000Y-128018000D03*
X138684000Y-126998000D03*
%TD*%
%TO.C,R14*%
X138684000Y-133352000D03*
X138684000Y-132332000D03*
%TD*%
%TO.C,R16*%
X138684000Y-125478000D03*
X138684000Y-124458000D03*
%TD*%
%TO.C,R5*%
X147260000Y-147550000D03*
X147260000Y-146530000D03*
%TD*%
D13*
%TO.C,D6*%
X151130000Y-147345500D03*
X151130000Y-145770500D03*
%TD*%
D12*
%TO.C,R3*%
X142180000Y-147550000D03*
X142180000Y-146530000D03*
%TD*%
%TO.C,R22*%
X156464000Y-132844000D03*
X156464000Y-131824000D03*
%TD*%
D13*
%TO.C,D8*%
X156210000Y-147345500D03*
X156210000Y-145770500D03*
%TD*%
%TO.C,D2*%
X140970000Y-147345500D03*
X140970000Y-145770500D03*
%TD*%
D12*
%TO.C,R18*%
X137668000Y-133352000D03*
X137668000Y-132332000D03*
%TD*%
D13*
%TO.C,D3*%
X143510000Y-147345500D03*
X143510000Y-145770500D03*
%TD*%
D12*
%TO.C,R9*%
X137850000Y-135310000D03*
X137850000Y-134290000D03*
%TD*%
D13*
%TO.C,D7*%
X153670000Y-147345500D03*
X153670000Y-145770500D03*
%TD*%
D12*
%TO.C,R15*%
X138684000Y-130558000D03*
X138684000Y-129538000D03*
%TD*%
M02*
