%TF.GenerationSoftware,KiCad,Pcbnew,(6.0.9)*%
%TF.CreationDate,2022-11-24T13:48:04+01:00*%
%TF.ProjectId,8view,38766965-772e-46b6-9963-61645f706362,rev?*%
%TF.SameCoordinates,Original*%
%TF.FileFunction,Soldermask,Top*%
%TF.FilePolarity,Negative*%
%FSLAX46Y46*%
G04 Gerber Fmt 4.6, Leading zero omitted, Abs format (unit mm)*
G04 Created by KiCad (PCBNEW (6.0.9)) date 2022-11-24 13:48:04*
%MOMM*%
%LPD*%
G01*
G04 APERTURE LIST*
G04 Aperture macros list*
%AMRoundRect*
0 Rectangle with rounded corners*
0 $1 Rounding radius*
0 $2 $3 $4 $5 $6 $7 $8 $9 X,Y pos of 4 corners*
0 Add a 4 corners polygon primitive as box body*
4,1,4,$2,$3,$4,$5,$6,$7,$8,$9,$2,$3,0*
0 Add four circle primitives for the rounded corners*
1,1,$1+$1,$2,$3*
1,1,$1+$1,$4,$5*
1,1,$1+$1,$6,$7*
1,1,$1+$1,$8,$9*
0 Add four rect primitives between the rounded corners*
20,1,$1+$1,$2,$3,$4,$5,0*
20,1,$1+$1,$4,$5,$6,$7,0*
20,1,$1+$1,$6,$7,$8,$9,0*
20,1,$1+$1,$8,$9,$2,$3,0*%
G04 Aperture macros list end*
%ADD10R,1.700000X1.700000*%
%ADD11O,1.700000X1.700000*%
%ADD12RoundRect,0.135000X0.185000X-0.135000X0.185000X0.135000X-0.185000X0.135000X-0.185000X-0.135000X0*%
%ADD13RoundRect,0.218750X0.256250X-0.218750X0.256250X0.218750X-0.256250X0.218750X-0.256250X-0.218750X0*%
%ADD14R,1.600000X1.600000*%
%ADD15C,1.600000*%
%ADD16R,0.550000X1.600000*%
%ADD17R,1.600000X0.550000*%
%ADD18R,1.100000X0.300000*%
%ADD19R,3.100000X2.300000*%
%ADD20RoundRect,0.135000X0.135000X0.185000X-0.135000X0.185000X-0.135000X-0.185000X0.135000X-0.185000X0*%
G04 APERTURE END LIST*
D10*
%TO.C,J2*%
X156195000Y-150819000D03*
D11*
X153655000Y-150819000D03*
X151115000Y-150819000D03*
X148575000Y-150819000D03*
X146035000Y-150819000D03*
X143495000Y-150819000D03*
X140955000Y-150819000D03*
X138415000Y-150819000D03*
%TD*%
D10*
%TO.C,J1*%
X138430000Y-118364000D03*
D11*
X140970000Y-118364000D03*
X143510000Y-118364000D03*
X146050000Y-118364000D03*
X148590000Y-118364000D03*
X151130000Y-118364000D03*
X153670000Y-118364000D03*
X156210000Y-118364000D03*
%TD*%
D12*
%TO.C,R11*%
X137668000Y-128018000D03*
X137668000Y-126998000D03*
%TD*%
%TO.C,R12*%
X137668000Y-130558000D03*
X137668000Y-129538000D03*
%TD*%
D13*
%TO.C,D4*%
X146050000Y-147345500D03*
X146050000Y-145770500D03*
%TD*%
D12*
%TO.C,R6*%
X149860000Y-147068000D03*
X149860000Y-146048000D03*
%TD*%
D14*
%TO.C,U2*%
X140788500Y-122174000D03*
D15*
X140788500Y-124714000D03*
X140788500Y-127254000D03*
X140788500Y-129794000D03*
X140788500Y-132334000D03*
X145868500Y-132334000D03*
X145868500Y-129794000D03*
X145868500Y-127254000D03*
X145868500Y-124714000D03*
X145868500Y-122174000D03*
%TD*%
D16*
%TO.C,U1*%
X144774000Y-143696000D03*
X145574000Y-143696000D03*
X146374000Y-143696000D03*
X147174000Y-143696000D03*
X147974000Y-143696000D03*
X148774000Y-143696000D03*
X149574000Y-143696000D03*
X150374000Y-143696000D03*
D17*
X151824000Y-142246000D03*
X151824000Y-141446000D03*
X151824000Y-140646000D03*
X151824000Y-139846000D03*
X151824000Y-139046000D03*
X151824000Y-138246000D03*
X151824000Y-137446000D03*
X151824000Y-136646000D03*
D16*
X150374000Y-135196000D03*
X149574000Y-135196000D03*
X148774000Y-135196000D03*
X147974000Y-135196000D03*
X147174000Y-135196000D03*
X146374000Y-135196000D03*
X145574000Y-135196000D03*
X144774000Y-135196000D03*
D17*
X143324000Y-136646000D03*
X143324000Y-137446000D03*
X143324000Y-138246000D03*
X143324000Y-139046000D03*
X143324000Y-139846000D03*
X143324000Y-140646000D03*
X143324000Y-141446000D03*
X143324000Y-142246000D03*
%TD*%
D12*
%TO.C,R24*%
X157480000Y-130304000D03*
X157480000Y-129284000D03*
%TD*%
%TO.C,R22*%
X157480000Y-132844000D03*
X157480000Y-131824000D03*
%TD*%
%TO.C,R20*%
X156464000Y-127764000D03*
X156464000Y-126744000D03*
%TD*%
%TO.C,R23*%
X157480000Y-127764000D03*
X157480000Y-126744000D03*
%TD*%
%TO.C,R7*%
X152400000Y-147066000D03*
X152400000Y-146046000D03*
%TD*%
%TO.C,R8*%
X154940000Y-147068000D03*
X154940000Y-146048000D03*
%TD*%
D18*
%TO.C,J4*%
X140705000Y-138958000D03*
X140705000Y-139458000D03*
X140705000Y-139958000D03*
X140705000Y-140458000D03*
X140705000Y-140958000D03*
X140705000Y-141458000D03*
D19*
X139005000Y-137288000D03*
X139005000Y-143128000D03*
%TD*%
D12*
%TO.C,R25*%
X156464000Y-130304000D03*
X156464000Y-129284000D03*
%TD*%
%TO.C,R10*%
X137668000Y-125478000D03*
X137668000Y-124458000D03*
%TD*%
D13*
%TO.C,D1*%
X138430000Y-147345500D03*
X138430000Y-145770500D03*
%TD*%
D12*
%TO.C,R1*%
X137160000Y-147068000D03*
X137160000Y-146048000D03*
%TD*%
%TO.C,R18*%
X157480000Y-125224000D03*
X157480000Y-124204000D03*
%TD*%
D18*
%TO.C,J3*%
X154189000Y-141458000D03*
X154189000Y-140958000D03*
X154189000Y-140458000D03*
X154189000Y-139958000D03*
X154189000Y-139458000D03*
X154189000Y-138958000D03*
D19*
X155889000Y-137288000D03*
X155889000Y-143128000D03*
%TD*%
D12*
%TO.C,R2*%
X139700000Y-147066000D03*
X139700000Y-146046000D03*
%TD*%
%TO.C,R19*%
X156464000Y-125224000D03*
X156464000Y-124204000D03*
%TD*%
D13*
%TO.C,D5*%
X148590000Y-147345500D03*
X148590000Y-145770500D03*
%TD*%
D12*
%TO.C,R4*%
X144780000Y-147068000D03*
X144780000Y-146048000D03*
%TD*%
D14*
%TO.C,U3*%
X149098000Y-122174000D03*
D15*
X149098000Y-124714000D03*
X149098000Y-127254000D03*
X149098000Y-129794000D03*
X149098000Y-132334000D03*
X154178000Y-132334000D03*
X154178000Y-129794000D03*
X154178000Y-127254000D03*
X154178000Y-124714000D03*
X154178000Y-122174000D03*
%TD*%
D12*
%TO.C,R16*%
X138684000Y-128018000D03*
X138684000Y-126998000D03*
%TD*%
%TO.C,R13*%
X138684000Y-133352000D03*
X138684000Y-132332000D03*
%TD*%
%TO.C,R15*%
X138684000Y-125478000D03*
X138684000Y-124458000D03*
%TD*%
%TO.C,R5*%
X147320000Y-147068000D03*
X147320000Y-146048000D03*
%TD*%
D13*
%TO.C,D6*%
X151130000Y-147345500D03*
X151130000Y-145770500D03*
%TD*%
D12*
%TO.C,R3*%
X142240000Y-147068000D03*
X142240000Y-146048000D03*
%TD*%
%TO.C,R21*%
X156464000Y-132844000D03*
X156464000Y-131824000D03*
%TD*%
D13*
%TO.C,D8*%
X156210000Y-147345500D03*
X156210000Y-145770500D03*
%TD*%
%TO.C,D2*%
X140970000Y-147345500D03*
X140970000Y-145770500D03*
%TD*%
D12*
%TO.C,R17*%
X137668000Y-133352000D03*
X137668000Y-132332000D03*
%TD*%
D13*
%TO.C,D3*%
X143510000Y-147345500D03*
X143510000Y-145770500D03*
%TD*%
D20*
%TO.C,R9*%
X141478000Y-134874000D03*
X140458000Y-134874000D03*
%TD*%
D13*
%TO.C,D7*%
X153670000Y-147345500D03*
X153670000Y-145770500D03*
%TD*%
D12*
%TO.C,R14*%
X138684000Y-130558000D03*
X138684000Y-129538000D03*
%TD*%
M02*
