%TF.GenerationSoftware,KiCad,Pcbnew,(6.0.9)*%
%TF.CreationDate,2022-12-14T19:44:01+01:00*%
%TF.ProjectId,8view,38766965-772e-46b6-9963-61645f706362,rev?*%
%TF.SameCoordinates,Original*%
%TF.FileFunction,Copper,L4,Bot*%
%TF.FilePolarity,Positive*%
%FSLAX46Y46*%
G04 Gerber Fmt 4.6, Leading zero omitted, Abs format (unit mm)*
G04 Created by KiCad (PCBNEW (6.0.9)) date 2022-12-14 19:44:01*
%MOMM*%
%LPD*%
G01*
G04 APERTURE LIST*
%TA.AperFunction,ComponentPad*%
%ADD10R,1.700000X1.700000*%
%TD*%
%TA.AperFunction,ComponentPad*%
%ADD11O,1.700000X1.700000*%
%TD*%
%TA.AperFunction,ComponentPad*%
%ADD12R,1.600000X1.600000*%
%TD*%
%TA.AperFunction,ComponentPad*%
%ADD13C,1.600000*%
%TD*%
%TA.AperFunction,ViaPad*%
%ADD14C,0.800000*%
%TD*%
%TA.AperFunction,Conductor*%
%ADD15C,0.250000*%
%TD*%
G04 APERTURE END LIST*
D10*
%TO.P,J2,1,Pin_1*%
%TO.N,GND*%
X158750000Y-150876000D03*
D11*
%TO.P,J2,2,Pin_2*%
%TO.N,/in7*%
X156210000Y-150876000D03*
%TO.P,J2,3,Pin_3*%
%TO.N,/in6*%
X153670000Y-150876000D03*
%TO.P,J2,4,Pin_4*%
%TO.N,/in5*%
X151130000Y-150876000D03*
%TO.P,J2,5,Pin_5*%
%TO.N,/in4*%
X148590000Y-150876000D03*
%TO.P,J2,6,Pin_6*%
%TO.N,/in3*%
X146050000Y-150876000D03*
%TO.P,J2,7,Pin_7*%
%TO.N,/in2*%
X143510000Y-150876000D03*
%TO.P,J2,8,Pin_8*%
%TO.N,/in1*%
X140970000Y-150876000D03*
%TO.P,J2,9,Pin_9*%
%TO.N,/in0*%
X138430000Y-150876000D03*
%TO.P,J2,10,Pin_10*%
%TO.N,+5V*%
X135890000Y-150876000D03*
%TD*%
D10*
%TO.P,J1,1,Pin_1*%
%TO.N,/in0*%
X138430000Y-118364000D03*
D11*
%TO.P,J1,2,Pin_2*%
%TO.N,/in1*%
X140970000Y-118364000D03*
%TO.P,J1,3,Pin_3*%
%TO.N,/in2*%
X143510000Y-118364000D03*
%TO.P,J1,4,Pin_4*%
%TO.N,/in3*%
X146050000Y-118364000D03*
%TO.P,J1,5,Pin_5*%
%TO.N,/in4*%
X148590000Y-118364000D03*
%TO.P,J1,6,Pin_6*%
%TO.N,/in5*%
X151130000Y-118364000D03*
%TO.P,J1,7,Pin_7*%
%TO.N,/in6*%
X153670000Y-118364000D03*
%TO.P,J1,8,Pin_8*%
%TO.N,/in7*%
X156210000Y-118364000D03*
%TD*%
D12*
%TO.P,U2,1,CA*%
%TO.N,+5V*%
X140788500Y-122174000D03*
D13*
%TO.P,U2,2,F*%
%TO.N,Net-(R15-Pad2)*%
X140788500Y-124714000D03*
%TO.P,U2,3,G*%
%TO.N,Net-(R16-Pad2)*%
X140788500Y-127254000D03*
%TO.P,U2,4,E*%
%TO.N,Net-(R14-Pad2)*%
X140788500Y-129794000D03*
%TO.P,U2,5,D*%
%TO.N,Net-(R13-Pad2)*%
X140788500Y-132334000D03*
%TO.P,U2,6,CA*%
%TO.N,+5V*%
X145868500Y-132334000D03*
%TO.P,U2,7,DP*%
%TO.N,Net-(R17-Pad2)*%
X145868500Y-129794000D03*
%TO.P,U2,8,C*%
%TO.N,Net-(R12-Pad2)*%
X145868500Y-127254000D03*
%TO.P,U2,9,B*%
%TO.N,Net-(R11-Pad2)*%
X145868500Y-124714000D03*
%TO.P,U2,10,A*%
%TO.N,Net-(R10-Pad2)*%
X145868500Y-122174000D03*
%TD*%
D12*
%TO.P,U3,1,CA*%
%TO.N,+5V*%
X149098000Y-122174000D03*
D13*
%TO.P,U3,2,F*%
%TO.N,Net-(R23-Pad2)*%
X149098000Y-124714000D03*
%TO.P,U3,3,G*%
%TO.N,Net-(R24-Pad2)*%
X149098000Y-127254000D03*
%TO.P,U3,4,E*%
%TO.N,Net-(R22-Pad2)*%
X149098000Y-129794000D03*
%TO.P,U3,5,D*%
%TO.N,Net-(R21-Pad2)*%
X149098000Y-132334000D03*
%TO.P,U3,6,CA*%
%TO.N,+5V*%
X154178000Y-132334000D03*
%TO.P,U3,7,DP*%
%TO.N,Net-(R25-Pad2)*%
X154178000Y-129794000D03*
%TO.P,U3,8,C*%
%TO.N,Net-(R20-Pad2)*%
X154178000Y-127254000D03*
%TO.P,U3,9,B*%
%TO.N,Net-(R19-Pad2)*%
X154178000Y-124714000D03*
%TO.P,U3,10,A*%
%TO.N,Net-(R18-Pad2)*%
X154178000Y-122174000D03*
%TD*%
D14*
%TO.N,GND*%
X157480000Y-148844000D03*
%TO.N,+5V*%
X142240000Y-143764000D03*
X157988000Y-119380000D03*
X137160000Y-148590000D03*
X137160000Y-149860000D03*
%TO.N,GND*%
X156464000Y-138176000D03*
X151130000Y-149098000D03*
X146050000Y-149098000D03*
X140970000Y-149098000D03*
%TO.N,+5V*%
X137160000Y-122682000D03*
%TO.N,/in0*%
X146147700Y-138758772D03*
X137356128Y-146021329D03*
%TO.N,/in1*%
X139640000Y-146030000D03*
%TO.N,/in2*%
X142230000Y-146051201D03*
%TO.N,/in3*%
X144730000Y-146080000D03*
%TO.N,/in4*%
X147300000Y-146020000D03*
%TO.N,/in5*%
X149881701Y-146021701D03*
%TO.N,/in6*%
X152420000Y-146020000D03*
%TO.N,/in7*%
X154951701Y-146031701D03*
%TO.N,+5V*%
X136894310Y-140199936D03*
X141249137Y-134056502D03*
X153924000Y-142240000D03*
X147691299Y-137296701D03*
X145110000Y-138758772D03*
%TO.N,GND*%
X138176000Y-120650000D03*
X141154002Y-135950498D03*
%TO.N,/ISP_MISO*%
X136899888Y-141230112D03*
X141923974Y-138749702D03*
X156040000Y-141320000D03*
%TO.N,/ISP_SCK*%
X136906064Y-142351446D03*
X156206399Y-140288199D03*
X136888925Y-139200448D03*
%TO.N,/ISP_MOSI*%
X141154502Y-136950000D03*
X136885962Y-143350746D03*
X136899898Y-138156328D03*
X157056175Y-139762002D03*
%TO.N,/ISP_RST*%
X136906019Y-137156844D03*
X155512692Y-138934951D03*
X136893452Y-144362999D03*
X140243375Y-133851420D03*
%TO.N,Net-(R21-Pad2)*%
X155448000Y-131643500D03*
%TO.N,/D1_I1*%
X136766091Y-125533225D03*
X151299635Y-143002000D03*
X143250000Y-143205500D03*
%TO.N,/D1_I2*%
X140959667Y-142221068D03*
X137363731Y-128678247D03*
X150144500Y-140570501D03*
%TO.N,/D1_I3*%
X150368000Y-139045999D03*
X137690526Y-131284874D03*
%TO.N,/D1_I4*%
X139260726Y-134034194D03*
X152989002Y-136572498D03*
%TO.N,/D1_I5*%
X139559553Y-130463545D03*
X152989002Y-138245999D03*
%TO.N,/D1_I6*%
X139541098Y-125348500D03*
X150144500Y-141570004D03*
%TO.N,/D1_I7*%
X152989002Y-139846001D03*
X139446000Y-127762000D03*
%TO.N,/D1_I8*%
X150368000Y-137442467D03*
X138902193Y-134967178D03*
%TO.N,/D2_I1*%
X157799302Y-125886882D03*
X142760597Y-136039491D03*
%TO.N,/D2_I2*%
X144526000Y-137414597D03*
X155702000Y-125114500D03*
%TO.N,/D2_I3*%
X144460290Y-133932308D03*
X155463900Y-127806330D03*
%TO.N,/D2_I4*%
X146371573Y-133858000D03*
X155448000Y-133503500D03*
%TO.N,/D2_I5*%
X147965483Y-134091619D03*
X157079898Y-133641500D03*
%TO.N,/D2_I6*%
X157799302Y-128426882D03*
X145573999Y-136398000D03*
%TO.N,/D2_I7*%
X150913500Y-134940299D03*
X157754641Y-130959990D03*
%TO.N,/D2_I8*%
X155518972Y-130194500D03*
X148449354Y-136586048D03*
%TD*%
D15*
%TO.N,/ISP_MISO*%
X154395000Y-142965000D02*
X156040000Y-141320000D01*
X152935695Y-142277000D02*
X153623695Y-142965000D01*
X150462809Y-142277000D02*
X152935695Y-142277000D01*
X149844195Y-142295004D02*
X150444805Y-142295004D01*
X150444805Y-142295004D02*
X150462809Y-142277000D01*
X146784782Y-142277000D02*
X149826191Y-142277000D01*
X143257484Y-138749702D02*
X146784782Y-142277000D01*
X149826191Y-142277000D02*
X149844195Y-142295004D01*
X141923974Y-138749702D02*
X143257484Y-138749702D01*
X141923974Y-138749702D02*
X141666298Y-138749702D01*
X153623695Y-142965000D02*
X154395000Y-142965000D01*
X141666298Y-138749702D02*
X139185888Y-141230112D01*
X139185888Y-141230112D02*
X136899888Y-141230112D01*
%TO.N,/ISP_RST*%
X136893452Y-144362999D02*
X137564453Y-145034000D01*
X137564453Y-145034000D02*
X145542000Y-145034000D01*
X145542000Y-145034000D02*
X145788000Y-145280000D01*
X145788000Y-145280000D02*
X157300000Y-145280000D01*
X157300000Y-145280000D02*
X157920000Y-144660000D01*
X157920000Y-144660000D02*
X157920000Y-139440000D01*
X157920000Y-139440000D02*
X157414951Y-138934951D01*
X157414951Y-138934951D02*
X155512692Y-138934951D01*
%TO.N,/ISP_MOSI*%
X136885962Y-143350746D02*
X141129254Y-143350746D01*
X141129254Y-143350746D02*
X142240000Y-142240000D01*
X157470000Y-139760000D02*
X157467998Y-139762002D01*
X157467998Y-139762002D02*
X157056175Y-139762002D01*
X142240000Y-142240000D02*
X144018000Y-142240000D01*
X149606000Y-143764000D02*
X150368000Y-144526000D01*
X144018000Y-142240000D02*
X145542000Y-143764000D01*
X145542000Y-143764000D02*
X149606000Y-143764000D01*
X150368000Y-144526000D02*
X155194000Y-144526000D01*
X155194000Y-144526000D02*
X157470000Y-142250000D01*
X157470000Y-142250000D02*
X157470000Y-139760000D01*
%TO.N,+5V*%
X147507009Y-132334000D02*
X149031009Y-133858000D01*
X149031009Y-133858000D02*
X149098000Y-133858000D01*
X149098000Y-133858000D02*
X149497000Y-133459000D01*
X149497000Y-133459000D02*
X151171000Y-133459000D01*
%TO.N,/ISP_RST*%
X136906019Y-137156844D02*
X136909175Y-137160000D01*
X136909175Y-137160000D02*
X139192000Y-137160000D01*
X139192000Y-137160000D02*
X140429502Y-135922498D01*
X140429502Y-134037547D02*
X140243375Y-133851420D01*
X140429502Y-135922498D02*
X140429502Y-134037547D01*
%TO.N,/ISP_SCK*%
X136906064Y-142351446D02*
X139461554Y-142351446D01*
X139461554Y-142351446D02*
X141097000Y-140716000D01*
X141097000Y-140716000D02*
X143764000Y-140716000D01*
X143764000Y-140716000D02*
X146050000Y-143002000D01*
X146050000Y-143002000D02*
X150274330Y-143002000D01*
X150274330Y-143002000D02*
X151036330Y-143764000D01*
X151036330Y-143764000D02*
X154621305Y-143764000D01*
X154621305Y-143764000D02*
X156803100Y-141582205D01*
X156803100Y-141582205D02*
X156803100Y-140884900D01*
X156803100Y-140884900D02*
X156206399Y-140288199D01*
%TO.N,+5V*%
X151638000Y-138924136D02*
X151638000Y-136906000D01*
X153924000Y-142240000D02*
X152582442Y-140898442D01*
X152060000Y-139346136D02*
X151638000Y-138924136D01*
X152582442Y-140898442D02*
X152188442Y-140898442D01*
X151638000Y-133926000D02*
X151171000Y-133459000D01*
X151384000Y-136652000D02*
X151384000Y-136144000D01*
X152060000Y-140770000D02*
X152060000Y-139346136D01*
X152188442Y-140898442D02*
X152060000Y-140770000D01*
X151638000Y-136906000D02*
X151384000Y-136652000D01*
X151384000Y-136144000D02*
X151638000Y-135890000D01*
X151638000Y-135890000D02*
X151638000Y-133926000D01*
%TO.N,/in7*%
X154951701Y-146031701D02*
X154951701Y-149617701D01*
X154951701Y-149617701D02*
X156210000Y-150876000D01*
%TO.N,/in5*%
X149881701Y-146021701D02*
X149881701Y-149627701D01*
X149881701Y-149627701D02*
X151130000Y-150876000D01*
%TO.N,/in4*%
X147300000Y-146020000D02*
X147300000Y-149586000D01*
X147300000Y-149586000D02*
X148590000Y-150876000D01*
%TO.N,/in3*%
X144730000Y-146080000D02*
X144730000Y-149556000D01*
X144730000Y-149556000D02*
X146050000Y-150876000D01*
%TO.N,/in1*%
X139640000Y-146030000D02*
X139640000Y-149546000D01*
X139640000Y-149546000D02*
X140970000Y-150876000D01*
%TO.N,/in2*%
X142230000Y-146051201D02*
X142230000Y-149596000D01*
X142230000Y-149596000D02*
X143510000Y-150876000D01*
%TO.N,/in0*%
X138445000Y-147110201D02*
X138445000Y-150032000D01*
X137356128Y-146021329D02*
X138445000Y-147110201D01*
%TO.N,/in6*%
X152420000Y-146020000D02*
X152420000Y-148767000D01*
X152420000Y-148767000D02*
X153685000Y-150032000D01*
%TO.N,+5V*%
X136894310Y-140199936D02*
X139200064Y-140199936D01*
X158496000Y-128098275D02*
X158524302Y-128126577D01*
X153162000Y-120396000D02*
X155448000Y-120396000D01*
X147973000Y-121049000D02*
X141913500Y-121049000D01*
X151384000Y-122174000D02*
X153162000Y-120396000D01*
X155448000Y-120396000D02*
X157226000Y-122174000D01*
X142971639Y-132334000D02*
X145868500Y-132334000D01*
X157226000Y-122682000D02*
X158524302Y-123980302D01*
X141950000Y-137450000D02*
X141950000Y-134757365D01*
X153053000Y-133459000D02*
X154178000Y-132334000D01*
X141249137Y-134056502D02*
X142971639Y-132334000D01*
X153960000Y-134366000D02*
X153053000Y-133459000D01*
X158524302Y-126187187D02*
X158496000Y-126215489D01*
X149098000Y-122174000D02*
X147973000Y-121049000D01*
X158524302Y-123980302D02*
X158524302Y-126187187D01*
X157734000Y-134366000D02*
X153960000Y-134366000D01*
X141913500Y-121049000D02*
X140788500Y-122174000D01*
X151171000Y-133459000D02*
X153053000Y-133459000D01*
X158524302Y-128126577D02*
X158524302Y-133575698D01*
X158524302Y-133575698D02*
X157734000Y-134366000D01*
X145868500Y-132334000D02*
X147507009Y-132334000D01*
X147507009Y-123764991D02*
X147507009Y-132334000D01*
X139200064Y-140199936D02*
X141950000Y-137450000D01*
X149098000Y-122174000D02*
X147507009Y-123764991D01*
X141950000Y-134757365D02*
X141249137Y-134056502D01*
X149098000Y-122174000D02*
X151384000Y-122174000D01*
X158496000Y-126215489D02*
X158496000Y-128098275D01*
X157226000Y-122174000D02*
X157226000Y-122682000D01*
%TO.N,/ISP_MOSI*%
X136976273Y-138079953D02*
X139716443Y-138079953D01*
X139716443Y-138079953D02*
X140846396Y-136950000D01*
X140846396Y-136950000D02*
X141154502Y-136950000D01*
X136899898Y-138156328D02*
X136976273Y-138079953D01*
%TO.N,Net-(R21-Pad2)*%
X155013500Y-131209000D02*
X150223000Y-131209000D01*
X155448000Y-131643500D02*
X155013500Y-131209000D01*
X150223000Y-131209000D02*
X149098000Y-132334000D01*
%TD*%
%TA.AperFunction,Conductor*%
%TO.N,+5V*%
G36*
X136099012Y-144817848D02*
G01*
X136125619Y-144850072D01*
X136154412Y-144899943D01*
X136158830Y-144904850D01*
X136158831Y-144904851D01*
X136252497Y-145008878D01*
X136282199Y-145041865D01*
X136436700Y-145154117D01*
X136442728Y-145156801D01*
X136442730Y-145156802D01*
X136605135Y-145229109D01*
X136605137Y-145229110D01*
X136608971Y-145230817D01*
X136608973Y-145230818D01*
X136611164Y-145231793D01*
X136610986Y-145232194D01*
X136666291Y-145270014D01*
X136693926Y-145335411D01*
X136681817Y-145405367D01*
X136662386Y-145434076D01*
X136617088Y-145484385D01*
X136521601Y-145649773D01*
X136462586Y-145831401D01*
X136461896Y-145837962D01*
X136461896Y-145837964D01*
X136455268Y-145901027D01*
X136442624Y-146021329D01*
X136443314Y-146027894D01*
X136461757Y-146203366D01*
X136462586Y-146211257D01*
X136521601Y-146392885D01*
X136617088Y-146558273D01*
X136621506Y-146563180D01*
X136621507Y-146563181D01*
X136674330Y-146621847D01*
X136744875Y-146700195D01*
X136829957Y-146762011D01*
X136892573Y-146807504D01*
X136899376Y-146812447D01*
X136905404Y-146815131D01*
X136905406Y-146815132D01*
X137067809Y-146887438D01*
X137073840Y-146890123D01*
X137167241Y-146909976D01*
X137254184Y-146928457D01*
X137254189Y-146928457D01*
X137260641Y-146929829D01*
X137316534Y-146929829D01*
X137384655Y-146949831D01*
X137405629Y-146966734D01*
X137774595Y-147335700D01*
X137808621Y-147398012D01*
X137811500Y-147424795D01*
X137811500Y-149589883D01*
X137791498Y-149658004D01*
X137743682Y-149701645D01*
X137703607Y-149722507D01*
X137699465Y-149725617D01*
X137537445Y-149847265D01*
X137524965Y-149856635D01*
X137370629Y-150018138D01*
X137263204Y-150175618D01*
X137262898Y-150176066D01*
X137207987Y-150221069D01*
X137137462Y-150229240D01*
X137073715Y-150197986D01*
X137053018Y-150173502D01*
X136972426Y-150048926D01*
X136966136Y-150040757D01*
X136822806Y-149883240D01*
X136815273Y-149876215D01*
X136648139Y-149744222D01*
X136639552Y-149738517D01*
X136453117Y-149635599D01*
X136443705Y-149631369D01*
X136242959Y-149560280D01*
X136232988Y-149557646D01*
X136161837Y-149544972D01*
X136148540Y-149546432D01*
X136144000Y-149560989D01*
X136144000Y-151004000D01*
X136123998Y-151072121D01*
X136070342Y-151118614D01*
X136018000Y-151130000D01*
X135762000Y-151130000D01*
X135693879Y-151109998D01*
X135647386Y-151056342D01*
X135636000Y-151004000D01*
X135636000Y-148207249D01*
X135653608Y-148147317D01*
X135651767Y-148146312D01*
X135754122Y-147958863D01*
X135754123Y-147958862D01*
X135756276Y-147954918D01*
X135763007Y-147936872D01*
X135830909Y-147754819D01*
X135830910Y-147754815D01*
X135832483Y-147750598D01*
X135843291Y-147700918D01*
X135877879Y-147541917D01*
X135878837Y-147537513D01*
X135891530Y-147360041D01*
X135892953Y-147348143D01*
X135895576Y-147332552D01*
X135895729Y-147320000D01*
X135891773Y-147292376D01*
X135890500Y-147274514D01*
X135890500Y-144913072D01*
X135910502Y-144844951D01*
X135964158Y-144798458D01*
X136034432Y-144788354D01*
X136099012Y-144817848D01*
G37*
%TD.AperFunction*%
%TA.AperFunction,Conductor*%
G36*
X142267035Y-143213038D02*
G01*
X142323870Y-143255585D01*
X142348312Y-143317923D01*
X142356458Y-143395428D01*
X142415473Y-143577056D01*
X142510960Y-143742444D01*
X142515378Y-143747351D01*
X142515379Y-143747352D01*
X142634325Y-143879455D01*
X142638747Y-143884366D01*
X142713910Y-143938975D01*
X142778908Y-143986199D01*
X142793248Y-143996618D01*
X142799276Y-143999302D01*
X142799278Y-143999303D01*
X142961681Y-144071609D01*
X142967712Y-144074294D01*
X143061113Y-144094147D01*
X143148056Y-144112628D01*
X143148061Y-144112628D01*
X143154513Y-144114000D01*
X143345487Y-144114000D01*
X143351939Y-144112628D01*
X143351944Y-144112628D01*
X143438887Y-144094147D01*
X143532288Y-144074294D01*
X143538319Y-144071609D01*
X143700722Y-143999303D01*
X143700724Y-143999302D01*
X143706752Y-143996618D01*
X143721093Y-143986199D01*
X143786090Y-143938975D01*
X143861253Y-143884366D01*
X143865675Y-143879455D01*
X143984621Y-143747352D01*
X143984622Y-143747351D01*
X143989040Y-143742444D01*
X144084527Y-143577056D01*
X144112862Y-143489851D01*
X144152934Y-143431246D01*
X144218331Y-143403609D01*
X144288288Y-143415716D01*
X144321789Y-143439693D01*
X145038343Y-144156247D01*
X145045887Y-144164537D01*
X145050000Y-144171018D01*
X145055777Y-144176443D01*
X145062386Y-144182649D01*
X145098352Y-144243862D01*
X145095515Y-144314802D01*
X145054775Y-144372946D01*
X144989067Y-144399835D01*
X144976134Y-144400500D01*
X137924349Y-144400500D01*
X137856228Y-144380498D01*
X137809735Y-144326842D01*
X137799039Y-144287671D01*
X137787684Y-144179634D01*
X137787684Y-144179632D01*
X137786994Y-144173071D01*
X137779232Y-144149182D01*
X137777205Y-144078214D01*
X137813867Y-144017417D01*
X137877579Y-143986091D01*
X137899065Y-143984246D01*
X141050487Y-143984246D01*
X141061670Y-143984773D01*
X141069163Y-143986448D01*
X141077089Y-143986199D01*
X141077090Y-143986199D01*
X141137240Y-143984308D01*
X141141199Y-143984246D01*
X141169110Y-143984246D01*
X141173045Y-143983749D01*
X141173110Y-143983741D01*
X141184947Y-143982808D01*
X141217205Y-143981794D01*
X141221224Y-143981668D01*
X141229143Y-143981419D01*
X141248597Y-143975767D01*
X141267954Y-143971759D01*
X141280184Y-143970214D01*
X141280185Y-143970214D01*
X141288051Y-143969220D01*
X141295422Y-143966301D01*
X141295424Y-143966301D01*
X141329166Y-143952942D01*
X141340396Y-143949097D01*
X141375237Y-143938975D01*
X141375238Y-143938975D01*
X141382847Y-143936764D01*
X141389666Y-143932731D01*
X141389671Y-143932729D01*
X141400282Y-143926453D01*
X141418030Y-143917758D01*
X141436871Y-143910298D01*
X141472641Y-143884310D01*
X141482561Y-143877794D01*
X141513789Y-143859326D01*
X141513792Y-143859324D01*
X141520616Y-143855288D01*
X141534937Y-143840967D01*
X141549971Y-143828126D01*
X141559948Y-143820877D01*
X141566361Y-143816218D01*
X141571411Y-143810114D01*
X141571416Y-143810109D01*
X141594547Y-143782148D01*
X141602537Y-143773367D01*
X142133907Y-143241998D01*
X142196219Y-143207973D01*
X142267035Y-143213038D01*
G37*
%TD.AperFunction*%
%TA.AperFunction,Conductor*%
G36*
X137013621Y-117368502D02*
G01*
X137060114Y-117422158D01*
X137071500Y-117474500D01*
X137071500Y-119262134D01*
X137078255Y-119324316D01*
X137129385Y-119460705D01*
X137216739Y-119577261D01*
X137333295Y-119664615D01*
X137469684Y-119715745D01*
X137531866Y-119722500D01*
X137531728Y-119723767D01*
X137593790Y-119745688D01*
X137637323Y-119801772D01*
X137643625Y-119872488D01*
X137610694Y-119935385D01*
X137594116Y-119949796D01*
X137564747Y-119971134D01*
X137436960Y-120113056D01*
X137341473Y-120278444D01*
X137282458Y-120460072D01*
X137262496Y-120650000D01*
X137282458Y-120839928D01*
X137341473Y-121021556D01*
X137436960Y-121186944D01*
X137441378Y-121191851D01*
X137441379Y-121191852D01*
X137559024Y-121322510D01*
X137564747Y-121328866D01*
X137719248Y-121441118D01*
X137725276Y-121443802D01*
X137725278Y-121443803D01*
X137880121Y-121512743D01*
X137893712Y-121518794D01*
X137987113Y-121538647D01*
X138074056Y-121557128D01*
X138074061Y-121557128D01*
X138080513Y-121558500D01*
X138271487Y-121558500D01*
X138277939Y-121557128D01*
X138277944Y-121557128D01*
X138364887Y-121538647D01*
X138458288Y-121518794D01*
X138471879Y-121512743D01*
X138626722Y-121443803D01*
X138626724Y-121443802D01*
X138632752Y-121441118D01*
X138787253Y-121328866D01*
X138792976Y-121322510D01*
X138910621Y-121191852D01*
X138910622Y-121191851D01*
X138915040Y-121186944D01*
X139010527Y-121021556D01*
X139069542Y-120839928D01*
X139089504Y-120650000D01*
X139069542Y-120460072D01*
X139010527Y-120278444D01*
X138915040Y-120113056D01*
X138787253Y-119971134D01*
X138758763Y-119950435D01*
X138715411Y-119894213D01*
X138709336Y-119823477D01*
X138742468Y-119760685D01*
X138804288Y-119725774D01*
X138832826Y-119722500D01*
X139328134Y-119722500D01*
X139390316Y-119715745D01*
X139526705Y-119664615D01*
X139643261Y-119577261D01*
X139730615Y-119460705D01*
X139752799Y-119401529D01*
X139774598Y-119343382D01*
X139817240Y-119286618D01*
X139883802Y-119261918D01*
X139953150Y-119277126D01*
X139987817Y-119305114D01*
X140016250Y-119337938D01*
X140188126Y-119480632D01*
X140381000Y-119593338D01*
X140589692Y-119673030D01*
X140594760Y-119674061D01*
X140594763Y-119674062D01*
X140702017Y-119695883D01*
X140808597Y-119717567D01*
X140813772Y-119717757D01*
X140813774Y-119717757D01*
X141026673Y-119725564D01*
X141026677Y-119725564D01*
X141031837Y-119725753D01*
X141036957Y-119725097D01*
X141036959Y-119725097D01*
X141248288Y-119698025D01*
X141248289Y-119698025D01*
X141253416Y-119697368D01*
X141258366Y-119695883D01*
X141462429Y-119634661D01*
X141462434Y-119634659D01*
X141467384Y-119633174D01*
X141667994Y-119534896D01*
X141849860Y-119405173D01*
X142008096Y-119247489D01*
X142138453Y-119066077D01*
X142139776Y-119067028D01*
X142186645Y-119023857D01*
X142256580Y-119011625D01*
X142322026Y-119039144D01*
X142349875Y-119070994D01*
X142409987Y-119169088D01*
X142556250Y-119337938D01*
X142728126Y-119480632D01*
X142921000Y-119593338D01*
X143129692Y-119673030D01*
X143134760Y-119674061D01*
X143134763Y-119674062D01*
X143242017Y-119695883D01*
X143348597Y-119717567D01*
X143353772Y-119717757D01*
X143353774Y-119717757D01*
X143566673Y-119725564D01*
X143566677Y-119725564D01*
X143571837Y-119725753D01*
X143576957Y-119725097D01*
X143576959Y-119725097D01*
X143788288Y-119698025D01*
X143788289Y-119698025D01*
X143793416Y-119697368D01*
X143798366Y-119695883D01*
X144002429Y-119634661D01*
X144002434Y-119634659D01*
X144007384Y-119633174D01*
X144207994Y-119534896D01*
X144389860Y-119405173D01*
X144548096Y-119247489D01*
X144678453Y-119066077D01*
X144679776Y-119067028D01*
X144726645Y-119023857D01*
X144796580Y-119011625D01*
X144862026Y-119039144D01*
X144889875Y-119070994D01*
X144949987Y-119169088D01*
X145096250Y-119337938D01*
X145268126Y-119480632D01*
X145461000Y-119593338D01*
X145669692Y-119673030D01*
X145674760Y-119674061D01*
X145674763Y-119674062D01*
X145782017Y-119695883D01*
X145888597Y-119717567D01*
X145893772Y-119717757D01*
X145893774Y-119717757D01*
X146106673Y-119725564D01*
X146106677Y-119725564D01*
X146111837Y-119725753D01*
X146116957Y-119725097D01*
X146116959Y-119725097D01*
X146328288Y-119698025D01*
X146328289Y-119698025D01*
X146333416Y-119697368D01*
X146338366Y-119695883D01*
X146542429Y-119634661D01*
X146542434Y-119634659D01*
X146547384Y-119633174D01*
X146747994Y-119534896D01*
X146929860Y-119405173D01*
X147088096Y-119247489D01*
X147218453Y-119066077D01*
X147219776Y-119067028D01*
X147266645Y-119023857D01*
X147336580Y-119011625D01*
X147402026Y-119039144D01*
X147429875Y-119070994D01*
X147489987Y-119169088D01*
X147636250Y-119337938D01*
X147808126Y-119480632D01*
X148001000Y-119593338D01*
X148209692Y-119673030D01*
X148214760Y-119674061D01*
X148214763Y-119674062D01*
X148322017Y-119695883D01*
X148428597Y-119717567D01*
X148433772Y-119717757D01*
X148433774Y-119717757D01*
X148646673Y-119725564D01*
X148646677Y-119725564D01*
X148651837Y-119725753D01*
X148656957Y-119725097D01*
X148656959Y-119725097D01*
X148868288Y-119698025D01*
X148868289Y-119698025D01*
X148873416Y-119697368D01*
X148878366Y-119695883D01*
X149082429Y-119634661D01*
X149082434Y-119634659D01*
X149087384Y-119633174D01*
X149287994Y-119534896D01*
X149469860Y-119405173D01*
X149628096Y-119247489D01*
X149758453Y-119066077D01*
X149759776Y-119067028D01*
X149806645Y-119023857D01*
X149876580Y-119011625D01*
X149942026Y-119039144D01*
X149969875Y-119070994D01*
X150029987Y-119169088D01*
X150176250Y-119337938D01*
X150348126Y-119480632D01*
X150541000Y-119593338D01*
X150749692Y-119673030D01*
X150754760Y-119674061D01*
X150754763Y-119674062D01*
X150862017Y-119695883D01*
X150968597Y-119717567D01*
X150973772Y-119717757D01*
X150973774Y-119717757D01*
X151186673Y-119725564D01*
X151186677Y-119725564D01*
X151191837Y-119725753D01*
X151196957Y-119725097D01*
X151196959Y-119725097D01*
X151408288Y-119698025D01*
X151408289Y-119698025D01*
X151413416Y-119697368D01*
X151418366Y-119695883D01*
X151622429Y-119634661D01*
X151622434Y-119634659D01*
X151627384Y-119633174D01*
X151827994Y-119534896D01*
X152009860Y-119405173D01*
X152168096Y-119247489D01*
X152298453Y-119066077D01*
X152299776Y-119067028D01*
X152346645Y-119023857D01*
X152416580Y-119011625D01*
X152482026Y-119039144D01*
X152509875Y-119070994D01*
X152569987Y-119169088D01*
X152716250Y-119337938D01*
X152888126Y-119480632D01*
X153081000Y-119593338D01*
X153289692Y-119673030D01*
X153294760Y-119674061D01*
X153294763Y-119674062D01*
X153402017Y-119695883D01*
X153508597Y-119717567D01*
X153513772Y-119717757D01*
X153513774Y-119717757D01*
X153726673Y-119725564D01*
X153726677Y-119725564D01*
X153731837Y-119725753D01*
X153736957Y-119725097D01*
X153736959Y-119725097D01*
X153948288Y-119698025D01*
X153948289Y-119698025D01*
X153953416Y-119697368D01*
X153958366Y-119695883D01*
X154162429Y-119634661D01*
X154162434Y-119634659D01*
X154167384Y-119633174D01*
X154367994Y-119534896D01*
X154549860Y-119405173D01*
X154708096Y-119247489D01*
X154838453Y-119066077D01*
X154839776Y-119067028D01*
X154886645Y-119023857D01*
X154956580Y-119011625D01*
X155022026Y-119039144D01*
X155049875Y-119070994D01*
X155109987Y-119169088D01*
X155256250Y-119337938D01*
X155428126Y-119480632D01*
X155621000Y-119593338D01*
X155829692Y-119673030D01*
X155834760Y-119674061D01*
X155834763Y-119674062D01*
X155942017Y-119695883D01*
X156048597Y-119717567D01*
X156053772Y-119717757D01*
X156053774Y-119717757D01*
X156266673Y-119725564D01*
X156266677Y-119725564D01*
X156271837Y-119725753D01*
X156276957Y-119725097D01*
X156276959Y-119725097D01*
X156488288Y-119698025D01*
X156488289Y-119698025D01*
X156493416Y-119697368D01*
X156498366Y-119695883D01*
X156702429Y-119634661D01*
X156702434Y-119634659D01*
X156707384Y-119633174D01*
X156907994Y-119534896D01*
X157089860Y-119405173D01*
X157248096Y-119247489D01*
X157378453Y-119066077D01*
X157399320Y-119023857D01*
X157475136Y-118870453D01*
X157475137Y-118870451D01*
X157477430Y-118865811D01*
X157542370Y-118652069D01*
X157571529Y-118430590D01*
X157573156Y-118364000D01*
X157554852Y-118141361D01*
X157500431Y-117924702D01*
X157411354Y-117719840D01*
X157296912Y-117542939D01*
X157276705Y-117474880D01*
X157296501Y-117406699D01*
X157350016Y-117360045D01*
X157402704Y-117348500D01*
X158623500Y-117348500D01*
X158691621Y-117368502D01*
X158738114Y-117422158D01*
X158749500Y-117474500D01*
X158749500Y-125256212D01*
X158729498Y-125324333D01*
X158675842Y-125370826D01*
X158605568Y-125380930D01*
X158540988Y-125351436D01*
X158529864Y-125340522D01*
X158414977Y-125212927D01*
X158414976Y-125212926D01*
X158410555Y-125208016D01*
X158256054Y-125095764D01*
X158250026Y-125093080D01*
X158250024Y-125093079D01*
X158087621Y-125020773D01*
X158087620Y-125020773D01*
X158081590Y-125018088D01*
X157955907Y-124991373D01*
X157901246Y-124979754D01*
X157901241Y-124979754D01*
X157894789Y-124978382D01*
X157703815Y-124978382D01*
X157697363Y-124979754D01*
X157697358Y-124979754D01*
X157642697Y-124991373D01*
X157517014Y-125018088D01*
X157510984Y-125020773D01*
X157510983Y-125020773D01*
X157348580Y-125093079D01*
X157348578Y-125093080D01*
X157342550Y-125095764D01*
X157188049Y-125208016D01*
X157183628Y-125212926D01*
X157183627Y-125212927D01*
X157066242Y-125343297D01*
X157060262Y-125349938D01*
X156964775Y-125515326D01*
X156905760Y-125696954D01*
X156905070Y-125703515D01*
X156905070Y-125703517D01*
X156899172Y-125759638D01*
X156885798Y-125886882D01*
X156886488Y-125893447D01*
X156903077Y-126051278D01*
X156905760Y-126076810D01*
X156964775Y-126258438D01*
X157060262Y-126423826D01*
X157188049Y-126565748D01*
X157342550Y-126678000D01*
X157348578Y-126680684D01*
X157348580Y-126680685D01*
X157510983Y-126752991D01*
X157517014Y-126755676D01*
X157610414Y-126775529D01*
X157697358Y-126794010D01*
X157697363Y-126794010D01*
X157703815Y-126795382D01*
X157894789Y-126795382D01*
X157901241Y-126794010D01*
X157901246Y-126794010D01*
X157988190Y-126775529D01*
X158081590Y-126755676D01*
X158087621Y-126752991D01*
X158250024Y-126680685D01*
X158250026Y-126680684D01*
X158256054Y-126678000D01*
X158410555Y-126565748D01*
X158529864Y-126433242D01*
X158590310Y-126396002D01*
X158661294Y-126397354D01*
X158720278Y-126436867D01*
X158748536Y-126501998D01*
X158749500Y-126517552D01*
X158749500Y-127796212D01*
X158729498Y-127864333D01*
X158675842Y-127910826D01*
X158605568Y-127920930D01*
X158540988Y-127891436D01*
X158529864Y-127880522D01*
X158414977Y-127752927D01*
X158414976Y-127752926D01*
X158410555Y-127748016D01*
X158256054Y-127635764D01*
X158250026Y-127633080D01*
X158250024Y-127633079D01*
X158087621Y-127560773D01*
X158087620Y-127560773D01*
X158081590Y-127558088D01*
X157988189Y-127538235D01*
X157901246Y-127519754D01*
X157901241Y-127519754D01*
X157894789Y-127518382D01*
X157703815Y-127518382D01*
X157697363Y-127519754D01*
X157697358Y-127519754D01*
X157610415Y-127538235D01*
X157517014Y-127558088D01*
X157510984Y-127560773D01*
X157510983Y-127560773D01*
X157348580Y-127633079D01*
X157348578Y-127633080D01*
X157342550Y-127635764D01*
X157188049Y-127748016D01*
X157183628Y-127752926D01*
X157183627Y-127752927D01*
X157169547Y-127768565D01*
X157060262Y-127889938D01*
X156964775Y-128055326D01*
X156905760Y-128236954D01*
X156905070Y-128243515D01*
X156905070Y-128243517D01*
X156889846Y-128388366D01*
X156885798Y-128426882D01*
X156886488Y-128433447D01*
X156903077Y-128591278D01*
X156905760Y-128616810D01*
X156964775Y-128798438D01*
X157060262Y-128963826D01*
X157188049Y-129105748D01*
X157225210Y-129132747D01*
X157330814Y-129209473D01*
X157342550Y-129218000D01*
X157348578Y-129220684D01*
X157348580Y-129220685D01*
X157510983Y-129292991D01*
X157517014Y-129295676D01*
X157610415Y-129315529D01*
X157697358Y-129334010D01*
X157697363Y-129334010D01*
X157703815Y-129335382D01*
X157894789Y-129335382D01*
X157901241Y-129334010D01*
X157901246Y-129334010D01*
X157988189Y-129315529D01*
X158081590Y-129295676D01*
X158087621Y-129292991D01*
X158250024Y-129220685D01*
X158250026Y-129220684D01*
X158256054Y-129218000D01*
X158267791Y-129209473D01*
X158373394Y-129132747D01*
X158410555Y-129105748D01*
X158529864Y-128973242D01*
X158590310Y-128936002D01*
X158661294Y-128937354D01*
X158720278Y-128976867D01*
X158748536Y-129041998D01*
X158749500Y-129057552D01*
X158749500Y-130395899D01*
X158729498Y-130464020D01*
X158675842Y-130510513D01*
X158605568Y-130520617D01*
X158540988Y-130491123D01*
X158514381Y-130458900D01*
X158493681Y-130423046D01*
X158486174Y-130414708D01*
X158370316Y-130286035D01*
X158370315Y-130286034D01*
X158365894Y-130281124D01*
X158211393Y-130168872D01*
X158205365Y-130166188D01*
X158205363Y-130166187D01*
X158042960Y-130093881D01*
X158042959Y-130093881D01*
X158036929Y-130091196D01*
X157943529Y-130071343D01*
X157856585Y-130052862D01*
X157856580Y-130052862D01*
X157850128Y-130051490D01*
X157659154Y-130051490D01*
X157652702Y-130052862D01*
X157652697Y-130052862D01*
X157565753Y-130071343D01*
X157472353Y-130091196D01*
X157466323Y-130093881D01*
X157466322Y-130093881D01*
X157303919Y-130166187D01*
X157303917Y-130166188D01*
X157297889Y-130168872D01*
X157143388Y-130281124D01*
X157138967Y-130286034D01*
X157138966Y-130286035D01*
X157023109Y-130414708D01*
X157015601Y-130423046D01*
X156920114Y-130588434D01*
X156861099Y-130770062D01*
X156860409Y-130776623D01*
X156860409Y-130776625D01*
X156854263Y-130835101D01*
X156841137Y-130959990D01*
X156841827Y-130966555D01*
X156859346Y-131133235D01*
X156861099Y-131149918D01*
X156920114Y-131331546D01*
X157015601Y-131496934D01*
X157143388Y-131638856D01*
X157297889Y-131751108D01*
X157303917Y-131753792D01*
X157303919Y-131753793D01*
X157443864Y-131816100D01*
X157472353Y-131828784D01*
X157550426Y-131845379D01*
X157652697Y-131867118D01*
X157652702Y-131867118D01*
X157659154Y-131868490D01*
X157850128Y-131868490D01*
X157856580Y-131867118D01*
X157856585Y-131867118D01*
X157958856Y-131845379D01*
X158036929Y-131828784D01*
X158065418Y-131816100D01*
X158205363Y-131753793D01*
X158205365Y-131753792D01*
X158211393Y-131751108D01*
X158365894Y-131638856D01*
X158493681Y-131496934D01*
X158514382Y-131461079D01*
X158565764Y-131412087D01*
X158635478Y-131398652D01*
X158701389Y-131425039D01*
X158742570Y-131482871D01*
X158749500Y-131524081D01*
X158749500Y-139143131D01*
X158729498Y-139211252D01*
X158675842Y-139257745D01*
X158605568Y-139267849D01*
X158540988Y-139238355D01*
X158508062Y-139193444D01*
X158506018Y-139186407D01*
X158501986Y-139179589D01*
X158501984Y-139179585D01*
X158495707Y-139168972D01*
X158487012Y-139151224D01*
X158479552Y-139132383D01*
X158453564Y-139096613D01*
X158447048Y-139086693D01*
X158428580Y-139055465D01*
X158428578Y-139055462D01*
X158424542Y-139048638D01*
X158410221Y-139034317D01*
X158397380Y-139019283D01*
X158390132Y-139009307D01*
X158385472Y-139002893D01*
X158351407Y-138974712D01*
X158342626Y-138966722D01*
X157918598Y-138542693D01*
X157911064Y-138534414D01*
X157906951Y-138527933D01*
X157857299Y-138481307D01*
X157854458Y-138478553D01*
X157834721Y-138458816D01*
X157831524Y-138456336D01*
X157822502Y-138448631D01*
X157796051Y-138423792D01*
X157790272Y-138418365D01*
X157783326Y-138414546D01*
X157783323Y-138414544D01*
X157772517Y-138408603D01*
X157755998Y-138397752D01*
X157749999Y-138393099D01*
X157739992Y-138385337D01*
X157732723Y-138382192D01*
X157732719Y-138382189D01*
X157699414Y-138367777D01*
X157688764Y-138362560D01*
X157650011Y-138341256D01*
X157630388Y-138336218D01*
X157611685Y-138329814D01*
X157600371Y-138324918D01*
X157600370Y-138324918D01*
X157593096Y-138321770D01*
X157585273Y-138320531D01*
X157585263Y-138320528D01*
X157549427Y-138314852D01*
X157537807Y-138312446D01*
X157502656Y-138303421D01*
X157502652Y-138303420D01*
X157494981Y-138301451D01*
X157487061Y-138301451D01*
X157487021Y-138301446D01*
X157421945Y-138273064D01*
X157382544Y-138214004D01*
X157377195Y-138178939D01*
X157377504Y-138176000D01*
X157361700Y-138025630D01*
X157358232Y-137992635D01*
X157358232Y-137992633D01*
X157357542Y-137986072D01*
X157298527Y-137804444D01*
X157203040Y-137639056D01*
X157197043Y-137632395D01*
X157079675Y-137502045D01*
X157079674Y-137502044D01*
X157075253Y-137497134D01*
X156920752Y-137384882D01*
X156914724Y-137382198D01*
X156914722Y-137382197D01*
X156752319Y-137309891D01*
X156752318Y-137309891D01*
X156746288Y-137307206D01*
X156652888Y-137287353D01*
X156565944Y-137268872D01*
X156565939Y-137268872D01*
X156559487Y-137267500D01*
X156368513Y-137267500D01*
X156362061Y-137268872D01*
X156362056Y-137268872D01*
X156275112Y-137287353D01*
X156181712Y-137307206D01*
X156175682Y-137309891D01*
X156175681Y-137309891D01*
X156013278Y-137382197D01*
X156013276Y-137382198D01*
X156007248Y-137384882D01*
X155852747Y-137497134D01*
X155848326Y-137502044D01*
X155848325Y-137502045D01*
X155730958Y-137632395D01*
X155724960Y-137639056D01*
X155629473Y-137804444D01*
X155608588Y-137868720D01*
X155585627Y-137939387D01*
X155545553Y-137997993D01*
X155480157Y-138025630D01*
X155465794Y-138026451D01*
X155417205Y-138026451D01*
X155410753Y-138027823D01*
X155410748Y-138027823D01*
X155323804Y-138046304D01*
X155230404Y-138066157D01*
X155224374Y-138068842D01*
X155224373Y-138068842D01*
X155061970Y-138141148D01*
X155061968Y-138141149D01*
X155055940Y-138143833D01*
X154901439Y-138256085D01*
X154897018Y-138260995D01*
X154897017Y-138260996D01*
X154787895Y-138382189D01*
X154773652Y-138398007D01*
X154678165Y-138563395D01*
X154619150Y-138745023D01*
X154618460Y-138751584D01*
X154618460Y-138751586D01*
X154606789Y-138862634D01*
X154599188Y-138934951D01*
X154599878Y-138941516D01*
X154615137Y-139086693D01*
X154619150Y-139124879D01*
X154678165Y-139306507D01*
X154681468Y-139312229D01*
X154681469Y-139312230D01*
X154697566Y-139340110D01*
X154773652Y-139471895D01*
X154778070Y-139476802D01*
X154778071Y-139476803D01*
X154858131Y-139565719D01*
X154901439Y-139613817D01*
X155055940Y-139726069D01*
X155061968Y-139728753D01*
X155061970Y-139728754D01*
X155224373Y-139801060D01*
X155230404Y-139803745D01*
X155236859Y-139805117D01*
X155236862Y-139805118D01*
X155244447Y-139806730D01*
X155260167Y-139810071D01*
X155322639Y-139843799D01*
X155356961Y-139905948D01*
X155353803Y-139972253D01*
X155312857Y-140098271D01*
X155292895Y-140288199D01*
X155293585Y-140294764D01*
X155303294Y-140387136D01*
X155312857Y-140478127D01*
X155360028Y-140623303D01*
X155362056Y-140694270D01*
X155333831Y-140746549D01*
X155300960Y-140783056D01*
X155289342Y-140803179D01*
X155209161Y-140942057D01*
X155205473Y-140948444D01*
X155146458Y-141130072D01*
X155145768Y-141136633D01*
X155145768Y-141136635D01*
X155129093Y-141295292D01*
X155102080Y-141360949D01*
X155092878Y-141371217D01*
X154169500Y-142294595D01*
X154107188Y-142328621D01*
X154080405Y-142331500D01*
X153938290Y-142331500D01*
X153870169Y-142311498D01*
X153849194Y-142294595D01*
X153439342Y-141884742D01*
X153431808Y-141876463D01*
X153427695Y-141869982D01*
X153378043Y-141823356D01*
X153375202Y-141820602D01*
X153355465Y-141800865D01*
X153352268Y-141798385D01*
X153343246Y-141790680D01*
X153316795Y-141765841D01*
X153311016Y-141760414D01*
X153304070Y-141756595D01*
X153304067Y-141756593D01*
X153293261Y-141750652D01*
X153276742Y-141739801D01*
X153276278Y-141739441D01*
X153260736Y-141727386D01*
X153253467Y-141724241D01*
X153253463Y-141724238D01*
X153220158Y-141709826D01*
X153209508Y-141704609D01*
X153170755Y-141683305D01*
X153151132Y-141678267D01*
X153132429Y-141671863D01*
X153121115Y-141666967D01*
X153121114Y-141666967D01*
X153113840Y-141663819D01*
X153106017Y-141662580D01*
X153106007Y-141662577D01*
X153070171Y-141656901D01*
X153058551Y-141654495D01*
X153023406Y-141645472D01*
X153023405Y-141645472D01*
X153015725Y-141643500D01*
X152995471Y-141643500D01*
X152975760Y-141641949D01*
X152963581Y-141640020D01*
X152955752Y-141638780D01*
X152925402Y-141641649D01*
X152911734Y-141642941D01*
X152899876Y-141643500D01*
X151179180Y-141643500D01*
X151111059Y-141623498D01*
X151064566Y-141569842D01*
X151053870Y-141530671D01*
X151038732Y-141386638D01*
X151038731Y-141386635D01*
X151038042Y-141380076D01*
X150979027Y-141198448D01*
X150941385Y-141133251D01*
X150924648Y-141064259D01*
X150941386Y-141007253D01*
X150975723Y-140947780D01*
X150975724Y-140947779D01*
X150979027Y-140942057D01*
X151038042Y-140760429D01*
X151040989Y-140732396D01*
X151057314Y-140577066D01*
X151058004Y-140570501D01*
X151048295Y-140478127D01*
X151038732Y-140387136D01*
X151038732Y-140387134D01*
X151038042Y-140380573D01*
X150979027Y-140198945D01*
X150883540Y-140033557D01*
X150846999Y-139992974D01*
X150816283Y-139928968D01*
X150825048Y-139858515D01*
X150835083Y-139846001D01*
X152075498Y-139846001D01*
X152076188Y-139852566D01*
X152091740Y-140000532D01*
X152095460Y-140035929D01*
X152154475Y-140217557D01*
X152249962Y-140382945D01*
X152377749Y-140524867D01*
X152532250Y-140637119D01*
X152538278Y-140639803D01*
X152538280Y-140639804D01*
X152700683Y-140712110D01*
X152706714Y-140714795D01*
X152789520Y-140732396D01*
X152887058Y-140753129D01*
X152887063Y-140753129D01*
X152893515Y-140754501D01*
X153084489Y-140754501D01*
X153090941Y-140753129D01*
X153090946Y-140753129D01*
X153188484Y-140732396D01*
X153271290Y-140714795D01*
X153277321Y-140712110D01*
X153439724Y-140639804D01*
X153439726Y-140639803D01*
X153445754Y-140637119D01*
X153600255Y-140524867D01*
X153728042Y-140382945D01*
X153823529Y-140217557D01*
X153882544Y-140035929D01*
X153886265Y-140000532D01*
X153901816Y-139852566D01*
X153902506Y-139846001D01*
X153889258Y-139719954D01*
X153883234Y-139662636D01*
X153883234Y-139662634D01*
X153882544Y-139656073D01*
X153823529Y-139474445D01*
X153818756Y-139466177D01*
X153731343Y-139314775D01*
X153728042Y-139309057D01*
X153600255Y-139167135D01*
X153573830Y-139147936D01*
X153530476Y-139091713D01*
X153524401Y-139020977D01*
X153557533Y-138958186D01*
X153573830Y-138944064D01*
X153586373Y-138934951D01*
X153600255Y-138924865D01*
X153667850Y-138849793D01*
X153723623Y-138787851D01*
X153723624Y-138787850D01*
X153728042Y-138782943D01*
X153801529Y-138655660D01*
X153820225Y-138623278D01*
X153820226Y-138623277D01*
X153823529Y-138617555D01*
X153882544Y-138435927D01*
X153883467Y-138427151D01*
X153901816Y-138252564D01*
X153902506Y-138245999D01*
X153899012Y-138212758D01*
X153883234Y-138062634D01*
X153883234Y-138062632D01*
X153882544Y-138056071D01*
X153823529Y-137874443D01*
X153819461Y-137867396D01*
X153761811Y-137767544D01*
X153728042Y-137709055D01*
X153654874Y-137627793D01*
X153604677Y-137572044D01*
X153604676Y-137572043D01*
X153600255Y-137567133D01*
X153523248Y-137511184D01*
X153479895Y-137454963D01*
X153473820Y-137384227D01*
X153506951Y-137321435D01*
X153523248Y-137307313D01*
X153525284Y-137305834D01*
X153600255Y-137251364D01*
X153653884Y-137191803D01*
X153723623Y-137114350D01*
X153723624Y-137114349D01*
X153728042Y-137109442D01*
X153823529Y-136944054D01*
X153882544Y-136762426D01*
X153884846Y-136740530D01*
X153901816Y-136579063D01*
X153902506Y-136572498D01*
X153899556Y-136544431D01*
X153883234Y-136389133D01*
X153883234Y-136389131D01*
X153882544Y-136382570D01*
X153823529Y-136200942D01*
X153728042Y-136035554D01*
X153719840Y-136026444D01*
X153604677Y-135898543D01*
X153604676Y-135898542D01*
X153600255Y-135893632D01*
X153464404Y-135794930D01*
X153451096Y-135785261D01*
X153451095Y-135785260D01*
X153445754Y-135781380D01*
X153439726Y-135778696D01*
X153439724Y-135778695D01*
X153277321Y-135706389D01*
X153277320Y-135706389D01*
X153271290Y-135703704D01*
X153177889Y-135683851D01*
X153090946Y-135665370D01*
X153090941Y-135665370D01*
X153084489Y-135663998D01*
X152893515Y-135663998D01*
X152887063Y-135665370D01*
X152887058Y-135665370D01*
X152800115Y-135683851D01*
X152706714Y-135703704D01*
X152700684Y-135706389D01*
X152700683Y-135706389D01*
X152538280Y-135778695D01*
X152538278Y-135778696D01*
X152532250Y-135781380D01*
X152526909Y-135785260D01*
X152526908Y-135785261D01*
X152513600Y-135794930D01*
X152377749Y-135893632D01*
X152373328Y-135898542D01*
X152373327Y-135898543D01*
X152258165Y-136026444D01*
X152249962Y-136035554D01*
X152154475Y-136200942D01*
X152095460Y-136382570D01*
X152094770Y-136389131D01*
X152094770Y-136389133D01*
X152078448Y-136544431D01*
X152075498Y-136572498D01*
X152076188Y-136579063D01*
X152093159Y-136740530D01*
X152095460Y-136762426D01*
X152154475Y-136944054D01*
X152249962Y-137109442D01*
X152254380Y-137114349D01*
X152254381Y-137114350D01*
X152324120Y-137191803D01*
X152377749Y-137251364D01*
X152452720Y-137305834D01*
X152454756Y-137307313D01*
X152498109Y-137363536D01*
X152504184Y-137434272D01*
X152471052Y-137497064D01*
X152454758Y-137511183D01*
X152377749Y-137567133D01*
X152373328Y-137572043D01*
X152373327Y-137572044D01*
X152323131Y-137627793D01*
X152249962Y-137709055D01*
X152216193Y-137767544D01*
X152158544Y-137867396D01*
X152154475Y-137874443D01*
X152095460Y-138056071D01*
X152094770Y-138062632D01*
X152094770Y-138062634D01*
X152078992Y-138212758D01*
X152075498Y-138245999D01*
X152076188Y-138252564D01*
X152094538Y-138427151D01*
X152095460Y-138435927D01*
X152154475Y-138617555D01*
X152157778Y-138623277D01*
X152157779Y-138623278D01*
X152176475Y-138655660D01*
X152249962Y-138782943D01*
X152254380Y-138787850D01*
X152254381Y-138787851D01*
X152310154Y-138849793D01*
X152377749Y-138924865D01*
X152391631Y-138934951D01*
X152404174Y-138944064D01*
X152447528Y-139000287D01*
X152453603Y-139071023D01*
X152420471Y-139133814D01*
X152404174Y-139147936D01*
X152377749Y-139167135D01*
X152249962Y-139309057D01*
X152246661Y-139314775D01*
X152159249Y-139466177D01*
X152154475Y-139474445D01*
X152095460Y-139656073D01*
X152094770Y-139662634D01*
X152094770Y-139662636D01*
X152088746Y-139719954D01*
X152075498Y-139846001D01*
X150835083Y-139846001D01*
X150866576Y-139806730D01*
X150904216Y-139779383D01*
X150979253Y-139724865D01*
X151107040Y-139582943D01*
X151168320Y-139476803D01*
X151199223Y-139423278D01*
X151199224Y-139423277D01*
X151202527Y-139417555D01*
X151261542Y-139235927D01*
X151264136Y-139211252D01*
X151280814Y-139052564D01*
X151281504Y-139045999D01*
X151272275Y-138958186D01*
X151262232Y-138862634D01*
X151262232Y-138862632D01*
X151261542Y-138856071D01*
X151202527Y-138674443D01*
X151182356Y-138639505D01*
X151138413Y-138563395D01*
X151107040Y-138509055D01*
X151101205Y-138502574D01*
X150983675Y-138372044D01*
X150983674Y-138372043D01*
X150979253Y-138367133D01*
X150950397Y-138346168D01*
X150907045Y-138289946D01*
X150900970Y-138219210D01*
X150934102Y-138156418D01*
X150950395Y-138142300D01*
X150979253Y-138121333D01*
X150984376Y-138115643D01*
X151102621Y-137984319D01*
X151102622Y-137984318D01*
X151107040Y-137979411D01*
X151177641Y-137857127D01*
X151199223Y-137819746D01*
X151199224Y-137819745D01*
X151202527Y-137814023D01*
X151261542Y-137632395D01*
X151263812Y-137610803D01*
X151280814Y-137449032D01*
X151281504Y-137442467D01*
X151275383Y-137384227D01*
X151262232Y-137259102D01*
X151262232Y-137259100D01*
X151261542Y-137252539D01*
X151202527Y-137070911D01*
X151107040Y-136905523D01*
X150990396Y-136775976D01*
X150983675Y-136768512D01*
X150983674Y-136768511D01*
X150979253Y-136763601D01*
X150824752Y-136651349D01*
X150818724Y-136648665D01*
X150818722Y-136648664D01*
X150656319Y-136576358D01*
X150656318Y-136576358D01*
X150650288Y-136573673D01*
X150531803Y-136548488D01*
X150469944Y-136535339D01*
X150469939Y-136535339D01*
X150463487Y-136533967D01*
X150272513Y-136533967D01*
X150266061Y-136535339D01*
X150266056Y-136535339D01*
X150204197Y-136548488D01*
X150085712Y-136573673D01*
X150079682Y-136576358D01*
X150079681Y-136576358D01*
X149917278Y-136648664D01*
X149917276Y-136648665D01*
X149911248Y-136651349D01*
X149756747Y-136763601D01*
X149752326Y-136768511D01*
X149752325Y-136768512D01*
X149745605Y-136775976D01*
X149628960Y-136905523D01*
X149533473Y-137070911D01*
X149474458Y-137252539D01*
X149473768Y-137259100D01*
X149473768Y-137259102D01*
X149460617Y-137384227D01*
X149454496Y-137442467D01*
X149455186Y-137449032D01*
X149472189Y-137610803D01*
X149474458Y-137632395D01*
X149533473Y-137814023D01*
X149536776Y-137819745D01*
X149536777Y-137819746D01*
X149558359Y-137857127D01*
X149628960Y-137979411D01*
X149633378Y-137984318D01*
X149633379Y-137984319D01*
X149751624Y-138115643D01*
X149756747Y-138121333D01*
X149785603Y-138142298D01*
X149828955Y-138198520D01*
X149835030Y-138269256D01*
X149801898Y-138332048D01*
X149785605Y-138346166D01*
X149756747Y-138367133D01*
X149752326Y-138372043D01*
X149752325Y-138372044D01*
X149634796Y-138502574D01*
X149628960Y-138509055D01*
X149597587Y-138563395D01*
X149553645Y-138639505D01*
X149533473Y-138674443D01*
X149474458Y-138856071D01*
X149473768Y-138862632D01*
X149473768Y-138862634D01*
X149463725Y-138958186D01*
X149454496Y-139045999D01*
X149455186Y-139052564D01*
X149471865Y-139211252D01*
X149474458Y-139235927D01*
X149533473Y-139417555D01*
X149536776Y-139423277D01*
X149536777Y-139423278D01*
X149567680Y-139476803D01*
X149628960Y-139582943D01*
X149665501Y-139623526D01*
X149696217Y-139687532D01*
X149687452Y-139757985D01*
X149645924Y-139809770D01*
X149533247Y-139891635D01*
X149528826Y-139896545D01*
X149528825Y-139896546D01*
X149460657Y-139972255D01*
X149405460Y-140033557D01*
X149309973Y-140198945D01*
X149250958Y-140380573D01*
X149250268Y-140387134D01*
X149250268Y-140387136D01*
X149240705Y-140478127D01*
X149230996Y-140570501D01*
X149231686Y-140577066D01*
X149248012Y-140732396D01*
X149250958Y-140760429D01*
X149309973Y-140942057D01*
X149313276Y-140947779D01*
X149313277Y-140947780D01*
X149347614Y-141007253D01*
X149364352Y-141076248D01*
X149347615Y-141133251D01*
X149309973Y-141198448D01*
X149250958Y-141380076D01*
X149250269Y-141386635D01*
X149250268Y-141386638D01*
X149235130Y-141530671D01*
X149208117Y-141596327D01*
X149149895Y-141636957D01*
X149109820Y-141643500D01*
X147099376Y-141643500D01*
X147031255Y-141623498D01*
X147010281Y-141606595D01*
X145397938Y-139994251D01*
X144162459Y-138758772D01*
X145234196Y-138758772D01*
X145234886Y-138765337D01*
X145243763Y-138849793D01*
X145254158Y-138948700D01*
X145313173Y-139130328D01*
X145316476Y-139136050D01*
X145316477Y-139136051D01*
X145335484Y-139168972D01*
X145408660Y-139295716D01*
X145413078Y-139300623D01*
X145413079Y-139300624D01*
X145531773Y-139432447D01*
X145536447Y-139437638D01*
X145590353Y-139476803D01*
X145673123Y-139536939D01*
X145690948Y-139549890D01*
X145696976Y-139552574D01*
X145696978Y-139552575D01*
X145843252Y-139617700D01*
X145865412Y-139627566D01*
X145941542Y-139643748D01*
X146045756Y-139665900D01*
X146045761Y-139665900D01*
X146052213Y-139667272D01*
X146243187Y-139667272D01*
X146249639Y-139665900D01*
X146249644Y-139665900D01*
X146353858Y-139643748D01*
X146429988Y-139627566D01*
X146452148Y-139617700D01*
X146598422Y-139552575D01*
X146598424Y-139552574D01*
X146604452Y-139549890D01*
X146622278Y-139536939D01*
X146705047Y-139476803D01*
X146758953Y-139437638D01*
X146763627Y-139432447D01*
X146882321Y-139300624D01*
X146882322Y-139300623D01*
X146886740Y-139295716D01*
X146959916Y-139168972D01*
X146978923Y-139136051D01*
X146978924Y-139136050D01*
X146982227Y-139130328D01*
X147041242Y-138948700D01*
X147051638Y-138849793D01*
X147060514Y-138765337D01*
X147061204Y-138758772D01*
X147045701Y-138611270D01*
X147041932Y-138575407D01*
X147041932Y-138575405D01*
X147041242Y-138568844D01*
X146982227Y-138387216D01*
X146976991Y-138378146D01*
X146926068Y-138289946D01*
X146886740Y-138221828D01*
X146878574Y-138212758D01*
X146763375Y-138084817D01*
X146763374Y-138084816D01*
X146758953Y-138079906D01*
X146604452Y-137967654D01*
X146598424Y-137964970D01*
X146598422Y-137964969D01*
X146436019Y-137892663D01*
X146436018Y-137892663D01*
X146429988Y-137889978D01*
X146323749Y-137867396D01*
X146249644Y-137851644D01*
X146249639Y-137851644D01*
X146243187Y-137850272D01*
X146052213Y-137850272D01*
X146045761Y-137851644D01*
X146045756Y-137851644D01*
X145971651Y-137867396D01*
X145865412Y-137889978D01*
X145859382Y-137892663D01*
X145859381Y-137892663D01*
X145696978Y-137964969D01*
X145696976Y-137964970D01*
X145690948Y-137967654D01*
X145536447Y-138079906D01*
X145532026Y-138084816D01*
X145532025Y-138084817D01*
X145416827Y-138212758D01*
X145408660Y-138221828D01*
X145369332Y-138289946D01*
X145318410Y-138378146D01*
X145313173Y-138387216D01*
X145254158Y-138568844D01*
X145253468Y-138575405D01*
X145253468Y-138575407D01*
X145249699Y-138611270D01*
X145234196Y-138758772D01*
X144162459Y-138758772D01*
X143761136Y-138357449D01*
X143753596Y-138349163D01*
X143749484Y-138342684D01*
X143699832Y-138296058D01*
X143696991Y-138293304D01*
X143677254Y-138273567D01*
X143674057Y-138271087D01*
X143665035Y-138263382D01*
X143662494Y-138260996D01*
X143632805Y-138233116D01*
X143625859Y-138229297D01*
X143625856Y-138229295D01*
X143615050Y-138223354D01*
X143598531Y-138212503D01*
X143592532Y-138207850D01*
X143582525Y-138200088D01*
X143575256Y-138196943D01*
X143575252Y-138196940D01*
X143541947Y-138182528D01*
X143531297Y-138177311D01*
X143492544Y-138156007D01*
X143472921Y-138150969D01*
X143454218Y-138144565D01*
X143442904Y-138139669D01*
X143442903Y-138139669D01*
X143435629Y-138136521D01*
X143427806Y-138135282D01*
X143427796Y-138135279D01*
X143391960Y-138129603D01*
X143380340Y-138127197D01*
X143345195Y-138118174D01*
X143345194Y-138118174D01*
X143337514Y-138116202D01*
X143317260Y-138116202D01*
X143297549Y-138114651D01*
X143285370Y-138112722D01*
X143277541Y-138111482D01*
X143269649Y-138112228D01*
X143233523Y-138115643D01*
X143221665Y-138116202D01*
X142632174Y-138116202D01*
X142564053Y-138096200D01*
X142544827Y-138079859D01*
X142544554Y-138080162D01*
X142539642Y-138075739D01*
X142535227Y-138070836D01*
X142473007Y-138025630D01*
X142386068Y-137962465D01*
X142386067Y-137962464D01*
X142380726Y-137958584D01*
X142374698Y-137955900D01*
X142374696Y-137955899D01*
X142212293Y-137883593D01*
X142212292Y-137883593D01*
X142206262Y-137880908D01*
X142112861Y-137861055D01*
X142025918Y-137842574D01*
X142025913Y-137842574D01*
X142019461Y-137841202D01*
X141857141Y-137841202D01*
X141789020Y-137821200D01*
X141742527Y-137767544D01*
X141732423Y-137697270D01*
X141761917Y-137632690D01*
X141765456Y-137629083D01*
X141765755Y-137628866D01*
X141766711Y-137627804D01*
X141766722Y-137627793D01*
X141889123Y-137491852D01*
X141889124Y-137491851D01*
X141893542Y-137486944D01*
X141935311Y-137414597D01*
X143612496Y-137414597D01*
X143613186Y-137421162D01*
X143621164Y-137497064D01*
X143632458Y-137604525D01*
X143691473Y-137786153D01*
X143786960Y-137951541D01*
X143791378Y-137956448D01*
X143791379Y-137956449D01*
X143895340Y-138071909D01*
X143914747Y-138093463D01*
X143972302Y-138135279D01*
X144030147Y-138177306D01*
X144069248Y-138205715D01*
X144075276Y-138208399D01*
X144075278Y-138208400D01*
X144237681Y-138280706D01*
X144243712Y-138283391D01*
X144328654Y-138301446D01*
X144424056Y-138321725D01*
X144424061Y-138321725D01*
X144430513Y-138323097D01*
X144621487Y-138323097D01*
X144627939Y-138321725D01*
X144627944Y-138321725D01*
X144723346Y-138301446D01*
X144808288Y-138283391D01*
X144814319Y-138280706D01*
X144976722Y-138208400D01*
X144976724Y-138208399D01*
X144982752Y-138205715D01*
X145021854Y-138177306D01*
X145079698Y-138135279D01*
X145137253Y-138093463D01*
X145156660Y-138071909D01*
X145260621Y-137956449D01*
X145260622Y-137956448D01*
X145265040Y-137951541D01*
X145360527Y-137786153D01*
X145419542Y-137604525D01*
X145427543Y-137528400D01*
X145439007Y-137419329D01*
X145466020Y-137353673D01*
X145524242Y-137313043D01*
X145564317Y-137306500D01*
X145669486Y-137306500D01*
X145675938Y-137305128D01*
X145675943Y-137305128D01*
X145762887Y-137286647D01*
X145856287Y-137266794D01*
X145882229Y-137255244D01*
X146024721Y-137191803D01*
X146024723Y-137191802D01*
X146030751Y-137189118D01*
X146185252Y-137076866D01*
X146292636Y-136957604D01*
X146308620Y-136939852D01*
X146308621Y-136939851D01*
X146313039Y-136934944D01*
X146403884Y-136777596D01*
X146405222Y-136775279D01*
X146405223Y-136775278D01*
X146408526Y-136769556D01*
X146467541Y-136587928D01*
X146467739Y-136586048D01*
X147535850Y-136586048D01*
X147536540Y-136592613D01*
X147555048Y-136768704D01*
X147555812Y-136775976D01*
X147614827Y-136957604D01*
X147710314Y-137122992D01*
X147714732Y-137127899D01*
X147714733Y-137127900D01*
X147829394Y-137255244D01*
X147838101Y-137264914D01*
X147992602Y-137377166D01*
X147998630Y-137379850D01*
X147998632Y-137379851D01*
X148139271Y-137442467D01*
X148167066Y-137454842D01*
X148260467Y-137474695D01*
X148347410Y-137493176D01*
X148347415Y-137493176D01*
X148353867Y-137494548D01*
X148544841Y-137494548D01*
X148551293Y-137493176D01*
X148551298Y-137493176D01*
X148638241Y-137474695D01*
X148731642Y-137454842D01*
X148759437Y-137442467D01*
X148900076Y-137379851D01*
X148900078Y-137379850D01*
X148906106Y-137377166D01*
X149060607Y-137264914D01*
X149069314Y-137255244D01*
X149183975Y-137127900D01*
X149183976Y-137127899D01*
X149188394Y-137122992D01*
X149283881Y-136957604D01*
X149342896Y-136775976D01*
X149343661Y-136768704D01*
X149362168Y-136592613D01*
X149362858Y-136586048D01*
X149351500Y-136477978D01*
X149343586Y-136402683D01*
X149343586Y-136402681D01*
X149342896Y-136396120D01*
X149283881Y-136214492D01*
X149280175Y-136208072D01*
X149191695Y-136054822D01*
X149188394Y-136049104D01*
X149179739Y-136039491D01*
X149065029Y-135912093D01*
X149065028Y-135912092D01*
X149060607Y-135907182D01*
X148906106Y-135794930D01*
X148900078Y-135792246D01*
X148900076Y-135792245D01*
X148737673Y-135719939D01*
X148737672Y-135719939D01*
X148731642Y-135717254D01*
X148638242Y-135697401D01*
X148551298Y-135678920D01*
X148551293Y-135678920D01*
X148544841Y-135677548D01*
X148353867Y-135677548D01*
X148347415Y-135678920D01*
X148347410Y-135678920D01*
X148260466Y-135697401D01*
X148167066Y-135717254D01*
X148161036Y-135719939D01*
X148161035Y-135719939D01*
X147998632Y-135792245D01*
X147998630Y-135792246D01*
X147992602Y-135794930D01*
X147838101Y-135907182D01*
X147833680Y-135912092D01*
X147833679Y-135912093D01*
X147718970Y-136039491D01*
X147710314Y-136049104D01*
X147707013Y-136054822D01*
X147618534Y-136208072D01*
X147614827Y-136214492D01*
X147555812Y-136396120D01*
X147555122Y-136402681D01*
X147555122Y-136402683D01*
X147547208Y-136477978D01*
X147535850Y-136586048D01*
X146467739Y-136586048D01*
X146469184Y-136572301D01*
X146486813Y-136404565D01*
X146487503Y-136398000D01*
X146471774Y-136248344D01*
X146468231Y-136214635D01*
X146468231Y-136214633D01*
X146467541Y-136208072D01*
X146408526Y-136026444D01*
X146313039Y-135861056D01*
X146300768Y-135847427D01*
X146189674Y-135724045D01*
X146189673Y-135724044D01*
X146185252Y-135719134D01*
X146030751Y-135606882D01*
X146024723Y-135604198D01*
X146024721Y-135604197D01*
X145862318Y-135531891D01*
X145862317Y-135531891D01*
X145856287Y-135529206D01*
X145738277Y-135504122D01*
X145675943Y-135490872D01*
X145675938Y-135490872D01*
X145669486Y-135489500D01*
X145478512Y-135489500D01*
X145472060Y-135490872D01*
X145472055Y-135490872D01*
X145409721Y-135504122D01*
X145291711Y-135529206D01*
X145285681Y-135531891D01*
X145285680Y-135531891D01*
X145123277Y-135604197D01*
X145123275Y-135604198D01*
X145117247Y-135606882D01*
X144962746Y-135719134D01*
X144958325Y-135724044D01*
X144958324Y-135724045D01*
X144847231Y-135847427D01*
X144834959Y-135861056D01*
X144739472Y-136026444D01*
X144680457Y-136208072D01*
X144679767Y-136214633D01*
X144679767Y-136214635D01*
X144660992Y-136393268D01*
X144633979Y-136458924D01*
X144575757Y-136499554D01*
X144535682Y-136506097D01*
X144430513Y-136506097D01*
X144424061Y-136507469D01*
X144424056Y-136507469D01*
X144337112Y-136525950D01*
X144243712Y-136545803D01*
X144237682Y-136548488D01*
X144237681Y-136548488D01*
X144075278Y-136620794D01*
X144075276Y-136620795D01*
X144069248Y-136623479D01*
X143914747Y-136735731D01*
X143910326Y-136740641D01*
X143910325Y-136740642D01*
X143829319Y-136830609D01*
X143786960Y-136877653D01*
X143691473Y-137043041D01*
X143632458Y-137224669D01*
X143631768Y-137231230D01*
X143631768Y-137231232D01*
X143623927Y-137305834D01*
X143612496Y-137414597D01*
X141935311Y-137414597D01*
X141955372Y-137379851D01*
X141985725Y-137327279D01*
X141985726Y-137327278D01*
X141989029Y-137321556D01*
X142048044Y-137139928D01*
X142050733Y-137114350D01*
X142067316Y-136956565D01*
X142068006Y-136950000D01*
X142064503Y-136916675D01*
X142077274Y-136846839D01*
X142125776Y-136794991D01*
X142194608Y-136777596D01*
X142263873Y-136801568D01*
X142298504Y-136826729D01*
X142298507Y-136826731D01*
X142303845Y-136830609D01*
X142309873Y-136833293D01*
X142309875Y-136833294D01*
X142472105Y-136905523D01*
X142478309Y-136908285D01*
X142571710Y-136928138D01*
X142658653Y-136946619D01*
X142658658Y-136946619D01*
X142665110Y-136947991D01*
X142856084Y-136947991D01*
X142862536Y-136946619D01*
X142862541Y-136946619D01*
X142949484Y-136928138D01*
X143042885Y-136908285D01*
X143049089Y-136905523D01*
X143211319Y-136833294D01*
X143211321Y-136833293D01*
X143217349Y-136830609D01*
X143371850Y-136718357D01*
X143453784Y-136627360D01*
X143495218Y-136581343D01*
X143495219Y-136581342D01*
X143499637Y-136576435D01*
X143595124Y-136411047D01*
X143654139Y-136229419D01*
X143655048Y-136220777D01*
X143673411Y-136046056D01*
X143674101Y-136039491D01*
X143654139Y-135849563D01*
X143595124Y-135667935D01*
X143499637Y-135502547D01*
X143487890Y-135489500D01*
X143376272Y-135365536D01*
X143376268Y-135365532D01*
X143371850Y-135360625D01*
X143217349Y-135248373D01*
X143211321Y-135245689D01*
X143211319Y-135245688D01*
X143048916Y-135173382D01*
X143048915Y-135173382D01*
X143042885Y-135170697D01*
X142948068Y-135150543D01*
X142862541Y-135132363D01*
X142862536Y-135132363D01*
X142856084Y-135130991D01*
X142665110Y-135130991D01*
X142658658Y-135132363D01*
X142658653Y-135132363D01*
X142573126Y-135150543D01*
X142478309Y-135170697D01*
X142472279Y-135173382D01*
X142472278Y-135173382D01*
X142309875Y-135245688D01*
X142309873Y-135245689D01*
X142303845Y-135248373D01*
X142149344Y-135360625D01*
X142101687Y-135413554D01*
X142089858Y-135426691D01*
X142029411Y-135463930D01*
X141958428Y-135462578D01*
X141899443Y-135423064D01*
X141895923Y-135418544D01*
X141893042Y-135413554D01*
X141765255Y-135271632D01*
X141630026Y-135173382D01*
X141616096Y-135163261D01*
X141616095Y-135163260D01*
X141610754Y-135159380D01*
X141604726Y-135156696D01*
X141604724Y-135156695D01*
X141442321Y-135084389D01*
X141442320Y-135084389D01*
X141436290Y-135081704D01*
X141342889Y-135061851D01*
X141255946Y-135043370D01*
X141255941Y-135043370D01*
X141249489Y-135041998D01*
X141189002Y-135041998D01*
X141120881Y-135021996D01*
X141074388Y-134968340D01*
X141063002Y-134915998D01*
X141063002Y-134281528D01*
X141073894Y-134230282D01*
X141074602Y-134228692D01*
X141077902Y-134222976D01*
X141089836Y-134186249D01*
X141134877Y-134047626D01*
X141136917Y-134041348D01*
X141137777Y-134033171D01*
X141148378Y-133932308D01*
X143546786Y-133932308D01*
X143547476Y-133938873D01*
X143562510Y-134081910D01*
X143566748Y-134122236D01*
X143625763Y-134303864D01*
X143721250Y-134469252D01*
X143725668Y-134474159D01*
X143725669Y-134474160D01*
X143785626Y-134540749D01*
X143849037Y-134611174D01*
X144003538Y-134723426D01*
X144009566Y-134726110D01*
X144009568Y-134726111D01*
X144117956Y-134774368D01*
X144178002Y-134801102D01*
X144271403Y-134820955D01*
X144358346Y-134839436D01*
X144358351Y-134839436D01*
X144364803Y-134840808D01*
X144555777Y-134840808D01*
X144562229Y-134839436D01*
X144562234Y-134839436D01*
X144649177Y-134820955D01*
X144742578Y-134801102D01*
X144802624Y-134774368D01*
X144911012Y-134726111D01*
X144911014Y-134726110D01*
X144917042Y-134723426D01*
X145071543Y-134611174D01*
X145134954Y-134540749D01*
X145194911Y-134474160D01*
X145194912Y-134474159D01*
X145199330Y-134469252D01*
X145294817Y-134303864D01*
X145310045Y-134256997D01*
X145350120Y-134198392D01*
X145415517Y-134170756D01*
X145485473Y-134182863D01*
X145538997Y-134232935D01*
X145632533Y-134394944D01*
X145636951Y-134399851D01*
X145636952Y-134399852D01*
X145699121Y-134468898D01*
X145760320Y-134536866D01*
X145841190Y-134595622D01*
X145886530Y-134628563D01*
X145914821Y-134649118D01*
X145920849Y-134651802D01*
X145920851Y-134651803D01*
X146073003Y-134719545D01*
X146089285Y-134726794D01*
X146170670Y-134744093D01*
X146269629Y-134765128D01*
X146269634Y-134765128D01*
X146276086Y-134766500D01*
X146467060Y-134766500D01*
X146473512Y-134765128D01*
X146473517Y-134765128D01*
X146572476Y-134744093D01*
X146653861Y-134726794D01*
X146670143Y-134719545D01*
X146822295Y-134651803D01*
X146822297Y-134651802D01*
X146828325Y-134649118D01*
X146856617Y-134628563D01*
X146966637Y-134548628D01*
X146982826Y-134536866D01*
X146987241Y-134531963D01*
X146992153Y-134527540D01*
X146994179Y-134529791D01*
X147043470Y-134499458D01*
X147114453Y-134500846D01*
X147173418Y-134540389D01*
X147185717Y-134558023D01*
X147226443Y-134628563D01*
X147230861Y-134633470D01*
X147230862Y-134633471D01*
X147349808Y-134765574D01*
X147354230Y-134770485D01*
X147508731Y-134882737D01*
X147514759Y-134885421D01*
X147514761Y-134885422D01*
X147638018Y-134940299D01*
X147683195Y-134960413D01*
X147776595Y-134980266D01*
X147863539Y-134998747D01*
X147863544Y-134998747D01*
X147869996Y-135000119D01*
X148060970Y-135000119D01*
X148067422Y-134998747D01*
X148067427Y-134998747D01*
X148154371Y-134980266D01*
X148247771Y-134960413D01*
X148292948Y-134940299D01*
X149999996Y-134940299D01*
X150019958Y-135130227D01*
X150078973Y-135311855D01*
X150174460Y-135477243D01*
X150178878Y-135482150D01*
X150178879Y-135482151D01*
X150288770Y-135604197D01*
X150302247Y-135619165D01*
X150456748Y-135731417D01*
X150462776Y-135734101D01*
X150462778Y-135734102D01*
X150599401Y-135794930D01*
X150631212Y-135809093D01*
X150724612Y-135828946D01*
X150811556Y-135847427D01*
X150811561Y-135847427D01*
X150818013Y-135848799D01*
X151008987Y-135848799D01*
X151015439Y-135847427D01*
X151015444Y-135847427D01*
X151102388Y-135828946D01*
X151195788Y-135809093D01*
X151227599Y-135794930D01*
X151364222Y-135734102D01*
X151364224Y-135734101D01*
X151370252Y-135731417D01*
X151524753Y-135619165D01*
X151538230Y-135604197D01*
X151648121Y-135482151D01*
X151648122Y-135482150D01*
X151652540Y-135477243D01*
X151748027Y-135311855D01*
X151807042Y-135130227D01*
X151827004Y-134940299D01*
X151807042Y-134750371D01*
X151748027Y-134568743D01*
X151652540Y-134403355D01*
X151577817Y-134320366D01*
X151529175Y-134266344D01*
X151529174Y-134266343D01*
X151524753Y-134261433D01*
X151370252Y-134149181D01*
X151364224Y-134146497D01*
X151364222Y-134146496D01*
X151201819Y-134074190D01*
X151201818Y-134074190D01*
X151195788Y-134071505D01*
X151083447Y-134047626D01*
X151015444Y-134033171D01*
X151015439Y-134033171D01*
X151008987Y-134031799D01*
X150818013Y-134031799D01*
X150811561Y-134033171D01*
X150811556Y-134033171D01*
X150743553Y-134047626D01*
X150631212Y-134071505D01*
X150625182Y-134074190D01*
X150625181Y-134074190D01*
X150462778Y-134146496D01*
X150462776Y-134146497D01*
X150456748Y-134149181D01*
X150302247Y-134261433D01*
X150297826Y-134266343D01*
X150297825Y-134266344D01*
X150249184Y-134320366D01*
X150174460Y-134403355D01*
X150078973Y-134568743D01*
X150019958Y-134750371D01*
X149999996Y-134940299D01*
X148292948Y-134940299D01*
X148416205Y-134885422D01*
X148416207Y-134885421D01*
X148422235Y-134882737D01*
X148576736Y-134770485D01*
X148581158Y-134765574D01*
X148700104Y-134633471D01*
X148700105Y-134633470D01*
X148704523Y-134628563D01*
X148793668Y-134474160D01*
X148796706Y-134468898D01*
X148796707Y-134468897D01*
X148800010Y-134463175D01*
X148859025Y-134281547D01*
X148862469Y-134248784D01*
X148878297Y-134098184D01*
X148878987Y-134091619D01*
X148873703Y-134041348D01*
X148859715Y-133908254D01*
X148859715Y-133908252D01*
X148859025Y-133901691D01*
X148825850Y-133799590D01*
X148823822Y-133728623D01*
X148860485Y-133667825D01*
X148924197Y-133636499D01*
X148956664Y-133635133D01*
X149092524Y-133647019D01*
X149092525Y-133647019D01*
X149098000Y-133647498D01*
X149326087Y-133627543D01*
X149331400Y-133626119D01*
X149331402Y-133626119D01*
X149541933Y-133569707D01*
X149541935Y-133569706D01*
X149547243Y-133568284D01*
X149575669Y-133555029D01*
X149749762Y-133473849D01*
X149749767Y-133473846D01*
X149754749Y-133471523D01*
X149913679Y-133360239D01*
X149937789Y-133343357D01*
X149937792Y-133343355D01*
X149942300Y-133340198D01*
X150104198Y-133178300D01*
X150108222Y-133172554D01*
X150190237Y-133055424D01*
X150235523Y-132990749D01*
X150237846Y-132985767D01*
X150237849Y-132985762D01*
X150329961Y-132788225D01*
X150329961Y-132788224D01*
X150332284Y-132783243D01*
X150335108Y-132772706D01*
X150390119Y-132567402D01*
X150390119Y-132567400D01*
X150391543Y-132562087D01*
X150411498Y-132334000D01*
X150391543Y-132105913D01*
X150390119Y-132100598D01*
X150390118Y-132100591D01*
X150374541Y-132042459D01*
X150376230Y-131971483D01*
X150407152Y-131920752D01*
X150448499Y-131879405D01*
X150510811Y-131845379D01*
X150537594Y-131842500D01*
X152791349Y-131842500D01*
X152859470Y-131862502D01*
X152905963Y-131916158D01*
X152916067Y-131986432D01*
X152913056Y-132001111D01*
X152886375Y-132100688D01*
X152884472Y-132111481D01*
X152865483Y-132328525D01*
X152865483Y-132339475D01*
X152884472Y-132556519D01*
X152886375Y-132567312D01*
X152942764Y-132777761D01*
X152946510Y-132788053D01*
X153038586Y-132985511D01*
X153044069Y-132995006D01*
X153080509Y-133047048D01*
X153090988Y-133055424D01*
X153104434Y-133048356D01*
X154088905Y-132063885D01*
X154151217Y-132029859D01*
X154222032Y-132034924D01*
X154267095Y-132063885D01*
X154448115Y-132244905D01*
X154482141Y-132307217D01*
X154477076Y-132378032D01*
X154448115Y-132423095D01*
X153462923Y-133408287D01*
X153456493Y-133420062D01*
X153465789Y-133432077D01*
X153516994Y-133467931D01*
X153526489Y-133473414D01*
X153723947Y-133565490D01*
X153734239Y-133569236D01*
X153944688Y-133625625D01*
X153955481Y-133627528D01*
X154172525Y-133646517D01*
X154183475Y-133646517D01*
X154400519Y-133627528D01*
X154416730Y-133624670D01*
X154417134Y-133626961D01*
X154478177Y-133628398D01*
X154536984Y-133668176D01*
X154559676Y-133709487D01*
X154613473Y-133875056D01*
X154708960Y-134040444D01*
X154713378Y-134045351D01*
X154713379Y-134045352D01*
X154816561Y-134159947D01*
X154836747Y-134182366D01*
X154904013Y-134231238D01*
X154982569Y-134288312D01*
X154991248Y-134294618D01*
X154997276Y-134297302D01*
X154997278Y-134297303D01*
X155159681Y-134369609D01*
X155165712Y-134372294D01*
X155259112Y-134392147D01*
X155346056Y-134410628D01*
X155346061Y-134410628D01*
X155352513Y-134412000D01*
X155543487Y-134412000D01*
X155549939Y-134410628D01*
X155549944Y-134410628D01*
X155636888Y-134392147D01*
X155730288Y-134372294D01*
X155736319Y-134369609D01*
X155898722Y-134297303D01*
X155898724Y-134297302D01*
X155904752Y-134294618D01*
X155913432Y-134288312D01*
X155991987Y-134231238D01*
X156059253Y-134182366D01*
X156116175Y-134119148D01*
X156176619Y-134081910D01*
X156247603Y-134083262D01*
X156306587Y-134122776D01*
X156318927Y-134140459D01*
X156340858Y-134178444D01*
X156345276Y-134183351D01*
X156345277Y-134183352D01*
X156464223Y-134315455D01*
X156468645Y-134320366D01*
X156623146Y-134432618D01*
X156629174Y-134435302D01*
X156629176Y-134435303D01*
X156776389Y-134500846D01*
X156797610Y-134510294D01*
X156878746Y-134527540D01*
X156977954Y-134548628D01*
X156977959Y-134548628D01*
X156984411Y-134550000D01*
X157175385Y-134550000D01*
X157181837Y-134548628D01*
X157181842Y-134548628D01*
X157281050Y-134527540D01*
X157362186Y-134510294D01*
X157383407Y-134500846D01*
X157530620Y-134435303D01*
X157530622Y-134435302D01*
X157536650Y-134432618D01*
X157691151Y-134320366D01*
X157695573Y-134315455D01*
X157814519Y-134183352D01*
X157814520Y-134183351D01*
X157818938Y-134178444D01*
X157898431Y-134040759D01*
X157911121Y-134018779D01*
X157911122Y-134018778D01*
X157914425Y-134013056D01*
X157973440Y-133831428D01*
X157982110Y-133748943D01*
X157992712Y-133648065D01*
X157993402Y-133641500D01*
X157991785Y-133626119D01*
X157974130Y-133458135D01*
X157974130Y-133458133D01*
X157973440Y-133451572D01*
X157914425Y-133269944D01*
X157901154Y-133246957D01*
X157858197Y-133172554D01*
X157818938Y-133104556D01*
X157774700Y-133055424D01*
X157695573Y-132967545D01*
X157695569Y-132967541D01*
X157691151Y-132962634D01*
X157536650Y-132850382D01*
X157530622Y-132847698D01*
X157530620Y-132847697D01*
X157368217Y-132775391D01*
X157368216Y-132775391D01*
X157362186Y-132772706D01*
X157268786Y-132752853D01*
X157181842Y-132734372D01*
X157181837Y-132734372D01*
X157175385Y-132733000D01*
X156984411Y-132733000D01*
X156977959Y-132734372D01*
X156977954Y-132734372D01*
X156891010Y-132752853D01*
X156797610Y-132772706D01*
X156791580Y-132775391D01*
X156791579Y-132775391D01*
X156629176Y-132847697D01*
X156629174Y-132847698D01*
X156623146Y-132850382D01*
X156468645Y-132962634D01*
X156411723Y-133025852D01*
X156351279Y-133063090D01*
X156280295Y-133061738D01*
X156221311Y-133022224D01*
X156208970Y-133004540D01*
X156203877Y-132995718D01*
X156187040Y-132966556D01*
X156180013Y-132958751D01*
X156063675Y-132829545D01*
X156063674Y-132829544D01*
X156059253Y-132824634D01*
X155904752Y-132712382D01*
X155898726Y-132709699D01*
X155898719Y-132709695D01*
X155851353Y-132688607D01*
X155797257Y-132642627D01*
X155776607Y-132574700D01*
X155795959Y-132506392D01*
X155851353Y-132458393D01*
X155898719Y-132437305D01*
X155898726Y-132437301D01*
X155904752Y-132434618D01*
X156059253Y-132322366D01*
X156187040Y-132180444D01*
X156271056Y-132034924D01*
X156279223Y-132020779D01*
X156279224Y-132020778D01*
X156282527Y-132015056D01*
X156341542Y-131833428D01*
X156342247Y-131826726D01*
X156360814Y-131650065D01*
X156361504Y-131643500D01*
X156346615Y-131501842D01*
X156342232Y-131460135D01*
X156342232Y-131460133D01*
X156341542Y-131453572D01*
X156282527Y-131271944D01*
X156275466Y-131259713D01*
X156207741Y-131142411D01*
X156187040Y-131106556D01*
X156129492Y-131042643D01*
X156098776Y-130978636D01*
X156107541Y-130908183D01*
X156131659Y-130874657D01*
X156130225Y-130873366D01*
X156253593Y-130736352D01*
X156253594Y-130736351D01*
X156258012Y-130731444D01*
X156347324Y-130576751D01*
X156350195Y-130571779D01*
X156350196Y-130571778D01*
X156353499Y-130566056D01*
X156412514Y-130384428D01*
X156413217Y-130377746D01*
X156431786Y-130201065D01*
X156432476Y-130194500D01*
X156421702Y-130091989D01*
X156413204Y-130011135D01*
X156413204Y-130011133D01*
X156412514Y-130004572D01*
X156353499Y-129822944D01*
X156258012Y-129657556D01*
X156194256Y-129586747D01*
X156134647Y-129520545D01*
X156134646Y-129520544D01*
X156130225Y-129515634D01*
X155975724Y-129403382D01*
X155969696Y-129400698D01*
X155969694Y-129400697D01*
X155807291Y-129328391D01*
X155807290Y-129328391D01*
X155801260Y-129325706D01*
X155707860Y-129305853D01*
X155620916Y-129287372D01*
X155620911Y-129287372D01*
X155614459Y-129286000D01*
X155465156Y-129286000D01*
X155397035Y-129265998D01*
X155350961Y-129213249D01*
X155317847Y-129142235D01*
X155315523Y-129137251D01*
X155203221Y-128976867D01*
X155187357Y-128954211D01*
X155187355Y-128954208D01*
X155184198Y-128949700D01*
X155136984Y-128902486D01*
X155102958Y-128840174D01*
X155108023Y-128769359D01*
X155150570Y-128712523D01*
X155217090Y-128687712D01*
X155252275Y-128690144D01*
X155282037Y-128696470D01*
X155361956Y-128713458D01*
X155361961Y-128713458D01*
X155368413Y-128714830D01*
X155559387Y-128714830D01*
X155565839Y-128713458D01*
X155565844Y-128713458D01*
X155652787Y-128694977D01*
X155746188Y-128675124D01*
X155756574Y-128670500D01*
X155914622Y-128600133D01*
X155914624Y-128600132D01*
X155920652Y-128597448D01*
X155929145Y-128591278D01*
X156061821Y-128494882D01*
X156075153Y-128485196D01*
X156157402Y-128393849D01*
X156198521Y-128348182D01*
X156198522Y-128348181D01*
X156202940Y-128343274D01*
X156298427Y-128177886D01*
X156357442Y-127996258D01*
X156361442Y-127958206D01*
X156376714Y-127812895D01*
X156377404Y-127806330D01*
X156357442Y-127616402D01*
X156298427Y-127434774D01*
X156202940Y-127269386D01*
X156189087Y-127254000D01*
X156079575Y-127132375D01*
X156079574Y-127132374D01*
X156075153Y-127127464D01*
X155920652Y-127015212D01*
X155914624Y-127012528D01*
X155914622Y-127012527D01*
X155752219Y-126940221D01*
X155752218Y-126940221D01*
X155746188Y-126937536D01*
X155652787Y-126917683D01*
X155565844Y-126899202D01*
X155565839Y-126899202D01*
X155559387Y-126897830D01*
X155533876Y-126897830D01*
X155465755Y-126877828D01*
X155419262Y-126824172D01*
X155415475Y-126814925D01*
X155413707Y-126810066D01*
X155412284Y-126804757D01*
X155409961Y-126799775D01*
X155317849Y-126602238D01*
X155317846Y-126602233D01*
X155315523Y-126597251D01*
X155203221Y-126436867D01*
X155187357Y-126414211D01*
X155187355Y-126414208D01*
X155184198Y-126409700D01*
X155022300Y-126247802D01*
X155017792Y-126244645D01*
X155017789Y-126244643D01*
X154900396Y-126162444D01*
X154834749Y-126116477D01*
X154829767Y-126114154D01*
X154829762Y-126114151D01*
X154795543Y-126098195D01*
X154742258Y-126051278D01*
X154722797Y-125983001D01*
X154743339Y-125915041D01*
X154795543Y-125869805D01*
X154829762Y-125853849D01*
X154829767Y-125853846D01*
X154834749Y-125851523D01*
X154933573Y-125782326D01*
X155000846Y-125759638D01*
X155069706Y-125776923D01*
X155088025Y-125790343D01*
X155090747Y-125793366D01*
X155245248Y-125905618D01*
X155251276Y-125908302D01*
X155251278Y-125908303D01*
X155413681Y-125980609D01*
X155419712Y-125983294D01*
X155513113Y-126003147D01*
X155600056Y-126021628D01*
X155600061Y-126021628D01*
X155606513Y-126023000D01*
X155797487Y-126023000D01*
X155803939Y-126021628D01*
X155803944Y-126021628D01*
X155890887Y-126003147D01*
X155984288Y-125983294D01*
X155990319Y-125980609D01*
X156152722Y-125908303D01*
X156152724Y-125908302D01*
X156158752Y-125905618D01*
X156313253Y-125793366D01*
X156317675Y-125788455D01*
X156436621Y-125656352D01*
X156436622Y-125656351D01*
X156441040Y-125651444D01*
X156536527Y-125486056D01*
X156595542Y-125304428D01*
X156597264Y-125288050D01*
X156614814Y-125121065D01*
X156615504Y-125114500D01*
X156601198Y-124978382D01*
X156596232Y-124931135D01*
X156596232Y-124931133D01*
X156595542Y-124924572D01*
X156536527Y-124742944D01*
X156441040Y-124577556D01*
X156358525Y-124485913D01*
X156317675Y-124440545D01*
X156317674Y-124440544D01*
X156313253Y-124435634D01*
X156158752Y-124323382D01*
X156152724Y-124320698D01*
X156152722Y-124320697D01*
X155990319Y-124248391D01*
X155990318Y-124248391D01*
X155984288Y-124245706D01*
X155875678Y-124222620D01*
X155803944Y-124207372D01*
X155803939Y-124207372D01*
X155797487Y-124206000D01*
X155606513Y-124206000D01*
X155600061Y-124207372D01*
X155600056Y-124207372D01*
X155502907Y-124228022D01*
X155432116Y-124222620D01*
X155375483Y-124179803D01*
X155362515Y-124158025D01*
X155317849Y-124062238D01*
X155317846Y-124062233D01*
X155315523Y-124057251D01*
X155184198Y-123869700D01*
X155022300Y-123707802D01*
X155017792Y-123704645D01*
X155017789Y-123704643D01*
X154939045Y-123649506D01*
X154834749Y-123576477D01*
X154829767Y-123574154D01*
X154829762Y-123574151D01*
X154795543Y-123558195D01*
X154742258Y-123511278D01*
X154722797Y-123443001D01*
X154743339Y-123375041D01*
X154795543Y-123329805D01*
X154829762Y-123313849D01*
X154829767Y-123313846D01*
X154834749Y-123311523D01*
X154976805Y-123212054D01*
X155017789Y-123183357D01*
X155017792Y-123183355D01*
X155022300Y-123180198D01*
X155184198Y-123018300D01*
X155315523Y-122830749D01*
X155317846Y-122825767D01*
X155317849Y-122825762D01*
X155409961Y-122628225D01*
X155409961Y-122628224D01*
X155412284Y-122623243D01*
X155460970Y-122441548D01*
X155470119Y-122407402D01*
X155470119Y-122407400D01*
X155471543Y-122402087D01*
X155491498Y-122174000D01*
X155471543Y-121945913D01*
X155463028Y-121914135D01*
X155413707Y-121730067D01*
X155413706Y-121730065D01*
X155412284Y-121724757D01*
X155334118Y-121557128D01*
X155317849Y-121522238D01*
X155317846Y-121522233D01*
X155315523Y-121517251D01*
X155184198Y-121329700D01*
X155022300Y-121167802D01*
X155017792Y-121164645D01*
X155017789Y-121164643D01*
X154939611Y-121109902D01*
X154834749Y-121036477D01*
X154829767Y-121034154D01*
X154829762Y-121034151D01*
X154632225Y-120942039D01*
X154632224Y-120942039D01*
X154627243Y-120939716D01*
X154621935Y-120938294D01*
X154621933Y-120938293D01*
X154411402Y-120881881D01*
X154411400Y-120881881D01*
X154406087Y-120880457D01*
X154178000Y-120860502D01*
X153949913Y-120880457D01*
X153944600Y-120881881D01*
X153944598Y-120881881D01*
X153734067Y-120938293D01*
X153734065Y-120938294D01*
X153728757Y-120939716D01*
X153723776Y-120942039D01*
X153723775Y-120942039D01*
X153526238Y-121034151D01*
X153526233Y-121034154D01*
X153521251Y-121036477D01*
X153416389Y-121109902D01*
X153338211Y-121164643D01*
X153338208Y-121164645D01*
X153333700Y-121167802D01*
X153171802Y-121329700D01*
X153040477Y-121517251D01*
X153038154Y-121522233D01*
X153038151Y-121522238D01*
X153021882Y-121557128D01*
X152943716Y-121724757D01*
X152942294Y-121730065D01*
X152942293Y-121730067D01*
X152892972Y-121914135D01*
X152884457Y-121945913D01*
X152864502Y-122174000D01*
X152884457Y-122402087D01*
X152885881Y-122407400D01*
X152885881Y-122407402D01*
X152895031Y-122441548D01*
X152943716Y-122623243D01*
X152946039Y-122628224D01*
X152946039Y-122628225D01*
X153038151Y-122825762D01*
X153038154Y-122825767D01*
X153040477Y-122830749D01*
X153171802Y-123018300D01*
X153333700Y-123180198D01*
X153338208Y-123183355D01*
X153338211Y-123183357D01*
X153379195Y-123212054D01*
X153521251Y-123311523D01*
X153526233Y-123313846D01*
X153526238Y-123313849D01*
X153560457Y-123329805D01*
X153613742Y-123376722D01*
X153633203Y-123444999D01*
X153612661Y-123512959D01*
X153560457Y-123558195D01*
X153526238Y-123574151D01*
X153526233Y-123574154D01*
X153521251Y-123576477D01*
X153416955Y-123649506D01*
X153338211Y-123704643D01*
X153338208Y-123704645D01*
X153333700Y-123707802D01*
X153171802Y-123869700D01*
X153040477Y-124057251D01*
X153038154Y-124062233D01*
X153038151Y-124062238D01*
X152946039Y-124259775D01*
X152943716Y-124264757D01*
X152884457Y-124485913D01*
X152864502Y-124714000D01*
X152884457Y-124942087D01*
X152885881Y-124947400D01*
X152885881Y-124947402D01*
X152904822Y-125018088D01*
X152943716Y-125163243D01*
X152946039Y-125168224D01*
X152946039Y-125168225D01*
X153038151Y-125365762D01*
X153038154Y-125365767D01*
X153040477Y-125370749D01*
X153171802Y-125558300D01*
X153333700Y-125720198D01*
X153338208Y-125723355D01*
X153338211Y-125723357D01*
X153341670Y-125725779D01*
X153521251Y-125851523D01*
X153526233Y-125853846D01*
X153526238Y-125853849D01*
X153560457Y-125869805D01*
X153613742Y-125916722D01*
X153633203Y-125984999D01*
X153612661Y-126052959D01*
X153560457Y-126098195D01*
X153526238Y-126114151D01*
X153526233Y-126114154D01*
X153521251Y-126116477D01*
X153455604Y-126162444D01*
X153338211Y-126244643D01*
X153338208Y-126244645D01*
X153333700Y-126247802D01*
X153171802Y-126409700D01*
X153168645Y-126414208D01*
X153168643Y-126414211D01*
X153152779Y-126436867D01*
X153040477Y-126597251D01*
X153038154Y-126602233D01*
X153038151Y-126602238D01*
X152946039Y-126799775D01*
X152943716Y-126804757D01*
X152942294Y-126810065D01*
X152942293Y-126810067D01*
X152898163Y-126974763D01*
X152884457Y-127025913D01*
X152864502Y-127254000D01*
X152884457Y-127482087D01*
X152885881Y-127487400D01*
X152885881Y-127487402D01*
X152918765Y-127610124D01*
X152943716Y-127703243D01*
X152946039Y-127708224D01*
X152946039Y-127708225D01*
X153038151Y-127905762D01*
X153038154Y-127905767D01*
X153040477Y-127910749D01*
X153171802Y-128098300D01*
X153333700Y-128260198D01*
X153338208Y-128263355D01*
X153338211Y-128263357D01*
X153380869Y-128293226D01*
X153521251Y-128391523D01*
X153526233Y-128393846D01*
X153526238Y-128393849D01*
X153560457Y-128409805D01*
X153613742Y-128456722D01*
X153633203Y-128524999D01*
X153612661Y-128592959D01*
X153560457Y-128638195D01*
X153526238Y-128654151D01*
X153526233Y-128654154D01*
X153521251Y-128656477D01*
X153480785Y-128684812D01*
X153338211Y-128784643D01*
X153338208Y-128784645D01*
X153333700Y-128787802D01*
X153171802Y-128949700D01*
X153168645Y-128954208D01*
X153168643Y-128954211D01*
X153152779Y-128976867D01*
X153040477Y-129137251D01*
X153038154Y-129142233D01*
X153038151Y-129142238D01*
X152946039Y-129339775D01*
X152943716Y-129344757D01*
X152884457Y-129565913D01*
X152864502Y-129794000D01*
X152884457Y-130022087D01*
X152885881Y-130027400D01*
X152885881Y-130027402D01*
X152892336Y-130051490D01*
X152943716Y-130243243D01*
X152946039Y-130248224D01*
X152946039Y-130248225D01*
X153015064Y-130396250D01*
X153025725Y-130466442D01*
X152996745Y-130531255D01*
X152937325Y-130570111D01*
X152900869Y-130575500D01*
X150375131Y-130575500D01*
X150307010Y-130555498D01*
X150260517Y-130501842D01*
X150250413Y-130431568D01*
X150260936Y-130396250D01*
X150329961Y-130248225D01*
X150329961Y-130248224D01*
X150332284Y-130243243D01*
X150383665Y-130051490D01*
X150390119Y-130027402D01*
X150390119Y-130027400D01*
X150391543Y-130022087D01*
X150411498Y-129794000D01*
X150391543Y-129565913D01*
X150332284Y-129344757D01*
X150329961Y-129339775D01*
X150237849Y-129142238D01*
X150237846Y-129142233D01*
X150235523Y-129137251D01*
X150123221Y-128976867D01*
X150107357Y-128954211D01*
X150107355Y-128954208D01*
X150104198Y-128949700D01*
X149942300Y-128787802D01*
X149937792Y-128784645D01*
X149937789Y-128784643D01*
X149795215Y-128684812D01*
X149754749Y-128656477D01*
X149749767Y-128654154D01*
X149749762Y-128654151D01*
X149715543Y-128638195D01*
X149662258Y-128591278D01*
X149642797Y-128523001D01*
X149663339Y-128455041D01*
X149715543Y-128409805D01*
X149749762Y-128393849D01*
X149749767Y-128393846D01*
X149754749Y-128391523D01*
X149895131Y-128293226D01*
X149937789Y-128263357D01*
X149937792Y-128263355D01*
X149942300Y-128260198D01*
X150104198Y-128098300D01*
X150235523Y-127910749D01*
X150237846Y-127905767D01*
X150237849Y-127905762D01*
X150329961Y-127708225D01*
X150329961Y-127708224D01*
X150332284Y-127703243D01*
X150357236Y-127610124D01*
X150390119Y-127487402D01*
X150390119Y-127487400D01*
X150391543Y-127482087D01*
X150411498Y-127254000D01*
X150391543Y-127025913D01*
X150377837Y-126974763D01*
X150333707Y-126810067D01*
X150333706Y-126810065D01*
X150332284Y-126804757D01*
X150329961Y-126799775D01*
X150237849Y-126602238D01*
X150237846Y-126602233D01*
X150235523Y-126597251D01*
X150123221Y-126436867D01*
X150107357Y-126414211D01*
X150107355Y-126414208D01*
X150104198Y-126409700D01*
X149942300Y-126247802D01*
X149937792Y-126244645D01*
X149937789Y-126244643D01*
X149820396Y-126162444D01*
X149754749Y-126116477D01*
X149749767Y-126114154D01*
X149749762Y-126114151D01*
X149715543Y-126098195D01*
X149662258Y-126051278D01*
X149642797Y-125983001D01*
X149663339Y-125915041D01*
X149715543Y-125869805D01*
X149749762Y-125853849D01*
X149749767Y-125853846D01*
X149754749Y-125851523D01*
X149934330Y-125725779D01*
X149937789Y-125723357D01*
X149937792Y-125723355D01*
X149942300Y-125720198D01*
X150104198Y-125558300D01*
X150235523Y-125370749D01*
X150237846Y-125365767D01*
X150237849Y-125365762D01*
X150329961Y-125168225D01*
X150329961Y-125168224D01*
X150332284Y-125163243D01*
X150371179Y-125018088D01*
X150390119Y-124947402D01*
X150390119Y-124947400D01*
X150391543Y-124942087D01*
X150411498Y-124714000D01*
X150391543Y-124485913D01*
X150332284Y-124264757D01*
X150329961Y-124259775D01*
X150237849Y-124062238D01*
X150237846Y-124062233D01*
X150235523Y-124057251D01*
X150104198Y-123869700D01*
X149942300Y-123707802D01*
X149937789Y-123704643D01*
X149933576Y-123701108D01*
X149934388Y-123700140D01*
X149893910Y-123649506D01*
X149886596Y-123578887D01*
X149918624Y-123515524D01*
X149979823Y-123479536D01*
X149996901Y-123476480D01*
X150000352Y-123476105D01*
X150015604Y-123472479D01*
X150136054Y-123427324D01*
X150151649Y-123418786D01*
X150253724Y-123342285D01*
X150266285Y-123329724D01*
X150342786Y-123227649D01*
X150351324Y-123212054D01*
X150396478Y-123091606D01*
X150400105Y-123076351D01*
X150405631Y-123025486D01*
X150406000Y-123018672D01*
X150406000Y-122446115D01*
X150401525Y-122430876D01*
X150400135Y-122429671D01*
X150392452Y-122428000D01*
X147808116Y-122428000D01*
X147792877Y-122432475D01*
X147791672Y-122433865D01*
X147790001Y-122441548D01*
X147790001Y-123018669D01*
X147790371Y-123025490D01*
X147795895Y-123076352D01*
X147799521Y-123091604D01*
X147844676Y-123212054D01*
X147853214Y-123227649D01*
X147929715Y-123329724D01*
X147942276Y-123342285D01*
X148044351Y-123418786D01*
X148059946Y-123427324D01*
X148180394Y-123472478D01*
X148195643Y-123476104D01*
X148199096Y-123476479D01*
X148201606Y-123477522D01*
X148203331Y-123477932D01*
X148203265Y-123478211D01*
X148264659Y-123503719D01*
X148305088Y-123562080D01*
X148307546Y-123633034D01*
X148271253Y-123694054D01*
X148259760Y-123703344D01*
X148258214Y-123704641D01*
X148253700Y-123707802D01*
X148091802Y-123869700D01*
X147960477Y-124057251D01*
X147958154Y-124062233D01*
X147958151Y-124062238D01*
X147866039Y-124259775D01*
X147863716Y-124264757D01*
X147804457Y-124485913D01*
X147784502Y-124714000D01*
X147804457Y-124942087D01*
X147805881Y-124947400D01*
X147805881Y-124947402D01*
X147824822Y-125018088D01*
X147863716Y-125163243D01*
X147866039Y-125168224D01*
X147866039Y-125168225D01*
X147958151Y-125365762D01*
X147958154Y-125365767D01*
X147960477Y-125370749D01*
X148091802Y-125558300D01*
X148253700Y-125720198D01*
X148258208Y-125723355D01*
X148258211Y-125723357D01*
X148261670Y-125725779D01*
X148441251Y-125851523D01*
X148446233Y-125853846D01*
X148446238Y-125853849D01*
X148480457Y-125869805D01*
X148533742Y-125916722D01*
X148553203Y-125984999D01*
X148532661Y-126052959D01*
X148480457Y-126098195D01*
X148446238Y-126114151D01*
X148446233Y-126114154D01*
X148441251Y-126116477D01*
X148375604Y-126162444D01*
X148258211Y-126244643D01*
X148258208Y-126244645D01*
X148253700Y-126247802D01*
X148091802Y-126409700D01*
X148088645Y-126414208D01*
X148088643Y-126414211D01*
X148072779Y-126436867D01*
X147960477Y-126597251D01*
X147958154Y-126602233D01*
X147958151Y-126602238D01*
X147866039Y-126799775D01*
X147863716Y-126804757D01*
X147862294Y-126810065D01*
X147862293Y-126810067D01*
X147818163Y-126974763D01*
X147804457Y-127025913D01*
X147784502Y-127254000D01*
X147804457Y-127482087D01*
X147805881Y-127487400D01*
X147805881Y-127487402D01*
X147838765Y-127610124D01*
X147863716Y-127703243D01*
X147866039Y-127708224D01*
X147866039Y-127708225D01*
X147958151Y-127905762D01*
X147958154Y-127905767D01*
X147960477Y-127910749D01*
X148091802Y-128098300D01*
X148253700Y-128260198D01*
X148258208Y-128263355D01*
X148258211Y-128263357D01*
X148300869Y-128293226D01*
X148441251Y-128391523D01*
X148446233Y-128393846D01*
X148446238Y-128393849D01*
X148480457Y-128409805D01*
X148533742Y-128456722D01*
X148553203Y-128524999D01*
X148532661Y-128592959D01*
X148480457Y-128638195D01*
X148446238Y-128654151D01*
X148446233Y-128654154D01*
X148441251Y-128656477D01*
X148400785Y-128684812D01*
X148258211Y-128784643D01*
X148258208Y-128784645D01*
X148253700Y-128787802D01*
X148091802Y-128949700D01*
X148088645Y-128954208D01*
X148088643Y-128954211D01*
X148072779Y-128976867D01*
X147960477Y-129137251D01*
X147958154Y-129142233D01*
X147958151Y-129142238D01*
X147866039Y-129339775D01*
X147863716Y-129344757D01*
X147804457Y-129565913D01*
X147784502Y-129794000D01*
X147804457Y-130022087D01*
X147805881Y-130027400D01*
X147805881Y-130027402D01*
X147812336Y-130051490D01*
X147863716Y-130243243D01*
X147866039Y-130248224D01*
X147866039Y-130248225D01*
X147958151Y-130445762D01*
X147958154Y-130445767D01*
X147960477Y-130450749D01*
X148009399Y-130520617D01*
X148072630Y-130610919D01*
X148091802Y-130638300D01*
X148253700Y-130800198D01*
X148258208Y-130803355D01*
X148258211Y-130803357D01*
X148336389Y-130858098D01*
X148441251Y-130931523D01*
X148446233Y-130933846D01*
X148446238Y-130933849D01*
X148480457Y-130949805D01*
X148533742Y-130996722D01*
X148553203Y-131064999D01*
X148532661Y-131132959D01*
X148480457Y-131178195D01*
X148446238Y-131194151D01*
X148446233Y-131194154D01*
X148441251Y-131196477D01*
X148350941Y-131259713D01*
X148258211Y-131324643D01*
X148258208Y-131324645D01*
X148253700Y-131327802D01*
X148091802Y-131489700D01*
X148088645Y-131494208D01*
X148088643Y-131494211D01*
X148067728Y-131524081D01*
X147960477Y-131677251D01*
X147958154Y-131682233D01*
X147958151Y-131682238D01*
X147871941Y-131867118D01*
X147863716Y-131884757D01*
X147862294Y-131890065D01*
X147862293Y-131890067D01*
X147815718Y-132063885D01*
X147804457Y-132105913D01*
X147784502Y-132334000D01*
X147804457Y-132562087D01*
X147805881Y-132567400D01*
X147805881Y-132567402D01*
X147860893Y-132772706D01*
X147863716Y-132783243D01*
X147866039Y-132788224D01*
X147866039Y-132788225D01*
X147958152Y-132985762D01*
X147960477Y-132990749D01*
X147963629Y-132995251D01*
X147963899Y-132995718D01*
X147980637Y-133064713D01*
X147957417Y-133131805D01*
X147901609Y-133175692D01*
X147871619Y-133183119D01*
X147869996Y-133183119D01*
X147863544Y-133184491D01*
X147863539Y-133184491D01*
X147776595Y-133202972D01*
X147683195Y-133222825D01*
X147677165Y-133225510D01*
X147677164Y-133225510D01*
X147514761Y-133297816D01*
X147514759Y-133297817D01*
X147508731Y-133300501D01*
X147503390Y-133304381D01*
X147503389Y-133304382D01*
X147472569Y-133326774D01*
X147354230Y-133412753D01*
X147349815Y-133417656D01*
X147344903Y-133422079D01*
X147342877Y-133419828D01*
X147293586Y-133450161D01*
X147222603Y-133448773D01*
X147163638Y-133409230D01*
X147151338Y-133391594D01*
X147128158Y-133351445D01*
X147110613Y-133321056D01*
X146988391Y-133185314D01*
X146957674Y-133121308D01*
X146966439Y-133050854D01*
X146978815Y-133028735D01*
X147002428Y-132995012D01*
X147007914Y-132985511D01*
X147099990Y-132788053D01*
X147103736Y-132777761D01*
X147160125Y-132567312D01*
X147162028Y-132556519D01*
X147181017Y-132339475D01*
X147181017Y-132328525D01*
X147162028Y-132111481D01*
X147160125Y-132100688D01*
X147103736Y-131890239D01*
X147099990Y-131879947D01*
X147007914Y-131682489D01*
X147002431Y-131672994D01*
X146965991Y-131620952D01*
X146955512Y-131612576D01*
X146942066Y-131619644D01*
X145957595Y-132604115D01*
X145895283Y-132638141D01*
X145824468Y-132633076D01*
X145779405Y-132604115D01*
X144794213Y-131618923D01*
X144782438Y-131612493D01*
X144770423Y-131621789D01*
X144734569Y-131672994D01*
X144729086Y-131682489D01*
X144637010Y-131879947D01*
X144633264Y-131890239D01*
X144576875Y-132100688D01*
X144574972Y-132111481D01*
X144555983Y-132328525D01*
X144555983Y-132339475D01*
X144574972Y-132556519D01*
X144576875Y-132567312D01*
X144633264Y-132777761D01*
X144637010Y-132788053D01*
X144663359Y-132844558D01*
X144674020Y-132914749D01*
X144645040Y-132979562D01*
X144585621Y-133018419D01*
X144549164Y-133023808D01*
X144364803Y-133023808D01*
X144358351Y-133025180D01*
X144358346Y-133025180D01*
X144271403Y-133043661D01*
X144178002Y-133063514D01*
X144171972Y-133066199D01*
X144171971Y-133066199D01*
X144009568Y-133138505D01*
X144009566Y-133138506D01*
X144003538Y-133141190D01*
X143998197Y-133145070D01*
X143998196Y-133145071D01*
X143956050Y-133175692D01*
X143849037Y-133253442D01*
X143844616Y-133258352D01*
X143844615Y-133258353D01*
X143752877Y-133360239D01*
X143721250Y-133395364D01*
X143625763Y-133560752D01*
X143566748Y-133742380D01*
X143566058Y-133748941D01*
X143566058Y-133748943D01*
X143554596Y-133858000D01*
X143546786Y-133932308D01*
X141148378Y-133932308D01*
X141156189Y-133857985D01*
X141156879Y-133851420D01*
X141141399Y-133704138D01*
X141154171Y-133634300D01*
X141202673Y-133582454D01*
X141227430Y-133572060D01*
X141227259Y-133571590D01*
X141232432Y-133569707D01*
X141237743Y-133568284D01*
X141377815Y-133502968D01*
X141440262Y-133473849D01*
X141440267Y-133473846D01*
X141445249Y-133471523D01*
X141604179Y-133360239D01*
X141628289Y-133343357D01*
X141628292Y-133343355D01*
X141632800Y-133340198D01*
X141794698Y-133178300D01*
X141798722Y-133172554D01*
X141880737Y-133055424D01*
X141926023Y-132990749D01*
X141928346Y-132985767D01*
X141928349Y-132985762D01*
X142020461Y-132788225D01*
X142020461Y-132788224D01*
X142022784Y-132783243D01*
X142025608Y-132772706D01*
X142080619Y-132567402D01*
X142080619Y-132567400D01*
X142082043Y-132562087D01*
X142101998Y-132334000D01*
X142082043Y-132105913D01*
X142070782Y-132063885D01*
X142024207Y-131890067D01*
X142024206Y-131890065D01*
X142022784Y-131884757D01*
X142014559Y-131867118D01*
X141928349Y-131682238D01*
X141928346Y-131682233D01*
X141926023Y-131677251D01*
X141818772Y-131524081D01*
X141797857Y-131494211D01*
X141797855Y-131494208D01*
X141794698Y-131489700D01*
X141632800Y-131327802D01*
X141628292Y-131324645D01*
X141628289Y-131324643D01*
X141535559Y-131259713D01*
X141445249Y-131196477D01*
X141440267Y-131194154D01*
X141440262Y-131194151D01*
X141406043Y-131178195D01*
X141352758Y-131131278D01*
X141333297Y-131063001D01*
X141353839Y-130995041D01*
X141406043Y-130949805D01*
X141440262Y-130933849D01*
X141440267Y-130933846D01*
X141445249Y-130931523D01*
X141550111Y-130858098D01*
X141628289Y-130803357D01*
X141628292Y-130803355D01*
X141632800Y-130800198D01*
X141794698Y-130638300D01*
X141813871Y-130610919D01*
X141877101Y-130520617D01*
X141926023Y-130450749D01*
X141928346Y-130445767D01*
X141928349Y-130445762D01*
X142020461Y-130248225D01*
X142020461Y-130248224D01*
X142022784Y-130243243D01*
X142074165Y-130051490D01*
X142080619Y-130027402D01*
X142080619Y-130027400D01*
X142082043Y-130022087D01*
X142101998Y-129794000D01*
X144555002Y-129794000D01*
X144574957Y-130022087D01*
X144576381Y-130027400D01*
X144576381Y-130027402D01*
X144582836Y-130051490D01*
X144634216Y-130243243D01*
X144636539Y-130248224D01*
X144636539Y-130248225D01*
X144728651Y-130445762D01*
X144728654Y-130445767D01*
X144730977Y-130450749D01*
X144779899Y-130520617D01*
X144843130Y-130610919D01*
X144862302Y-130638300D01*
X145024200Y-130800198D01*
X145028708Y-130803355D01*
X145028711Y-130803357D01*
X145106889Y-130858098D01*
X145211751Y-130931523D01*
X145216733Y-130933846D01*
X145216738Y-130933849D01*
X145251549Y-130950081D01*
X145304834Y-130996998D01*
X145324295Y-131065275D01*
X145303753Y-131133235D01*
X145251549Y-131178471D01*
X145216989Y-131194586D01*
X145207494Y-131200069D01*
X145155452Y-131236509D01*
X145147076Y-131246988D01*
X145154144Y-131260434D01*
X145855688Y-131961978D01*
X145869632Y-131969592D01*
X145871465Y-131969461D01*
X145878080Y-131965210D01*
X146583577Y-131259713D01*
X146590007Y-131247938D01*
X146580711Y-131235923D01*
X146529506Y-131200069D01*
X146520011Y-131194586D01*
X146485451Y-131178471D01*
X146432166Y-131131554D01*
X146412705Y-131063277D01*
X146433247Y-130995317D01*
X146485451Y-130950081D01*
X146520262Y-130933849D01*
X146520267Y-130933846D01*
X146525249Y-130931523D01*
X146630111Y-130858098D01*
X146708289Y-130803357D01*
X146708292Y-130803355D01*
X146712800Y-130800198D01*
X146874698Y-130638300D01*
X146893871Y-130610919D01*
X146957101Y-130520617D01*
X147006023Y-130450749D01*
X147008346Y-130445767D01*
X147008349Y-130445762D01*
X147100461Y-130248225D01*
X147100461Y-130248224D01*
X147102784Y-130243243D01*
X147154165Y-130051490D01*
X147160619Y-130027402D01*
X147160619Y-130027400D01*
X147162043Y-130022087D01*
X147181998Y-129794000D01*
X147162043Y-129565913D01*
X147102784Y-129344757D01*
X147100461Y-129339775D01*
X147008349Y-129142238D01*
X147008346Y-129142233D01*
X147006023Y-129137251D01*
X146893721Y-128976867D01*
X146877857Y-128954211D01*
X146877855Y-128954208D01*
X146874698Y-128949700D01*
X146712800Y-128787802D01*
X146708292Y-128784645D01*
X146708289Y-128784643D01*
X146565715Y-128684812D01*
X146525249Y-128656477D01*
X146520267Y-128654154D01*
X146520262Y-128654151D01*
X146486043Y-128638195D01*
X146432758Y-128591278D01*
X146413297Y-128523001D01*
X146433839Y-128455041D01*
X146486043Y-128409805D01*
X146520262Y-128393849D01*
X146520267Y-128393846D01*
X146525249Y-128391523D01*
X146665631Y-128293226D01*
X146708289Y-128263357D01*
X146708292Y-128263355D01*
X146712800Y-128260198D01*
X146874698Y-128098300D01*
X147006023Y-127910749D01*
X147008346Y-127905767D01*
X147008349Y-127905762D01*
X147100461Y-127708225D01*
X147100461Y-127708224D01*
X147102784Y-127703243D01*
X147127736Y-127610124D01*
X147160619Y-127487402D01*
X147160619Y-127487400D01*
X147162043Y-127482087D01*
X147181998Y-127254000D01*
X147162043Y-127025913D01*
X147148337Y-126974763D01*
X147104207Y-126810067D01*
X147104206Y-126810065D01*
X147102784Y-126804757D01*
X147100461Y-126799775D01*
X147008349Y-126602238D01*
X147008346Y-126602233D01*
X147006023Y-126597251D01*
X146893721Y-126436867D01*
X146877857Y-126414211D01*
X146877855Y-126414208D01*
X146874698Y-126409700D01*
X146712800Y-126247802D01*
X146708292Y-126244645D01*
X146708289Y-126244643D01*
X146590896Y-126162444D01*
X146525249Y-126116477D01*
X146520267Y-126114154D01*
X146520262Y-126114151D01*
X146486043Y-126098195D01*
X146432758Y-126051278D01*
X146413297Y-125983001D01*
X146433839Y-125915041D01*
X146486043Y-125869805D01*
X146520262Y-125853849D01*
X146520267Y-125853846D01*
X146525249Y-125851523D01*
X146704830Y-125725779D01*
X146708289Y-125723357D01*
X146708292Y-125723355D01*
X146712800Y-125720198D01*
X146874698Y-125558300D01*
X147006023Y-125370749D01*
X147008346Y-125365767D01*
X147008349Y-125365762D01*
X147100461Y-125168225D01*
X147100461Y-125168224D01*
X147102784Y-125163243D01*
X147141679Y-125018088D01*
X147160619Y-124947402D01*
X147160619Y-124947400D01*
X147162043Y-124942087D01*
X147181998Y-124714000D01*
X147162043Y-124485913D01*
X147102784Y-124264757D01*
X147100461Y-124259775D01*
X147008349Y-124062238D01*
X147008346Y-124062233D01*
X147006023Y-124057251D01*
X146874698Y-123869700D01*
X146712800Y-123707802D01*
X146708292Y-123704645D01*
X146708289Y-123704643D01*
X146629545Y-123649506D01*
X146525249Y-123576477D01*
X146520267Y-123574154D01*
X146520262Y-123574151D01*
X146486043Y-123558195D01*
X146432758Y-123511278D01*
X146413297Y-123443001D01*
X146433839Y-123375041D01*
X146486043Y-123329805D01*
X146520262Y-123313849D01*
X146520267Y-123313846D01*
X146525249Y-123311523D01*
X146667305Y-123212054D01*
X146708289Y-123183357D01*
X146708292Y-123183355D01*
X146712800Y-123180198D01*
X146874698Y-123018300D01*
X147006023Y-122830749D01*
X147008346Y-122825767D01*
X147008349Y-122825762D01*
X147100461Y-122628225D01*
X147100461Y-122628224D01*
X147102784Y-122623243D01*
X147151470Y-122441548D01*
X147160619Y-122407402D01*
X147160619Y-122407400D01*
X147162043Y-122402087D01*
X147181998Y-122174000D01*
X147162043Y-121945913D01*
X147153528Y-121914135D01*
X147150246Y-121901885D01*
X147790000Y-121901885D01*
X147794475Y-121917124D01*
X147795865Y-121918329D01*
X147803548Y-121920000D01*
X148825885Y-121920000D01*
X148841124Y-121915525D01*
X148842329Y-121914135D01*
X148844000Y-121906452D01*
X148844000Y-121901885D01*
X149352000Y-121901885D01*
X149356475Y-121917124D01*
X149357865Y-121918329D01*
X149365548Y-121920000D01*
X150387884Y-121920000D01*
X150403123Y-121915525D01*
X150404328Y-121914135D01*
X150405999Y-121906452D01*
X150405999Y-121329331D01*
X150405629Y-121322510D01*
X150400105Y-121271648D01*
X150396479Y-121256396D01*
X150351324Y-121135946D01*
X150342786Y-121120351D01*
X150266285Y-121018276D01*
X150253724Y-121005715D01*
X150151649Y-120929214D01*
X150136054Y-120920676D01*
X150015606Y-120875522D01*
X150000351Y-120871895D01*
X149949486Y-120866369D01*
X149942672Y-120866000D01*
X149370115Y-120866000D01*
X149354876Y-120870475D01*
X149353671Y-120871865D01*
X149352000Y-120879548D01*
X149352000Y-121901885D01*
X148844000Y-121901885D01*
X148844000Y-120884116D01*
X148839525Y-120868877D01*
X148838135Y-120867672D01*
X148830452Y-120866001D01*
X148253331Y-120866001D01*
X148246510Y-120866371D01*
X148195648Y-120871895D01*
X148180396Y-120875521D01*
X148059946Y-120920676D01*
X148044351Y-120929214D01*
X147942276Y-121005715D01*
X147929715Y-121018276D01*
X147853214Y-121120351D01*
X147844676Y-121135946D01*
X147799522Y-121256394D01*
X147795895Y-121271649D01*
X147790369Y-121322514D01*
X147790000Y-121329328D01*
X147790000Y-121901885D01*
X147150246Y-121901885D01*
X147104207Y-121730067D01*
X147104206Y-121730065D01*
X147102784Y-121724757D01*
X147024618Y-121557128D01*
X147008349Y-121522238D01*
X147008346Y-121522233D01*
X147006023Y-121517251D01*
X146874698Y-121329700D01*
X146712800Y-121167802D01*
X146708292Y-121164645D01*
X146708289Y-121164643D01*
X146630111Y-121109902D01*
X146525249Y-121036477D01*
X146520267Y-121034154D01*
X146520262Y-121034151D01*
X146322725Y-120942039D01*
X146322724Y-120942039D01*
X146317743Y-120939716D01*
X146312435Y-120938294D01*
X146312433Y-120938293D01*
X146101902Y-120881881D01*
X146101900Y-120881881D01*
X146096587Y-120880457D01*
X145868500Y-120860502D01*
X145640413Y-120880457D01*
X145635100Y-120881881D01*
X145635098Y-120881881D01*
X145424567Y-120938293D01*
X145424565Y-120938294D01*
X145419257Y-120939716D01*
X145414276Y-120942039D01*
X145414275Y-120942039D01*
X145216738Y-121034151D01*
X145216733Y-121034154D01*
X145211751Y-121036477D01*
X145106889Y-121109902D01*
X145028711Y-121164643D01*
X145028708Y-121164645D01*
X145024200Y-121167802D01*
X144862302Y-121329700D01*
X144730977Y-121517251D01*
X144728654Y-121522233D01*
X144728651Y-121522238D01*
X144712382Y-121557128D01*
X144634216Y-121724757D01*
X144632794Y-121730065D01*
X144632793Y-121730067D01*
X144583472Y-121914135D01*
X144574957Y-121945913D01*
X144555002Y-122174000D01*
X144574957Y-122402087D01*
X144576381Y-122407400D01*
X144576381Y-122407402D01*
X144585531Y-122441548D01*
X144634216Y-122623243D01*
X144636539Y-122628224D01*
X144636539Y-122628225D01*
X144728651Y-122825762D01*
X144728654Y-122825767D01*
X144730977Y-122830749D01*
X144862302Y-123018300D01*
X145024200Y-123180198D01*
X145028708Y-123183355D01*
X145028711Y-123183357D01*
X145069695Y-123212054D01*
X145211751Y-123311523D01*
X145216733Y-123313846D01*
X145216738Y-123313849D01*
X145250957Y-123329805D01*
X145304242Y-123376722D01*
X145323703Y-123444999D01*
X145303161Y-123512959D01*
X145250957Y-123558195D01*
X145216738Y-123574151D01*
X145216733Y-123574154D01*
X145211751Y-123576477D01*
X145107455Y-123649506D01*
X145028711Y-123704643D01*
X145028708Y-123704645D01*
X145024200Y-123707802D01*
X144862302Y-123869700D01*
X144730977Y-124057251D01*
X144728654Y-124062233D01*
X144728651Y-124062238D01*
X144636539Y-124259775D01*
X144634216Y-124264757D01*
X144574957Y-124485913D01*
X144555002Y-124714000D01*
X144574957Y-124942087D01*
X144576381Y-124947400D01*
X144576381Y-124947402D01*
X144595322Y-125018088D01*
X144634216Y-125163243D01*
X144636539Y-125168224D01*
X144636539Y-125168225D01*
X144728651Y-125365762D01*
X144728654Y-125365767D01*
X144730977Y-125370749D01*
X144862302Y-125558300D01*
X145024200Y-125720198D01*
X145028708Y-125723355D01*
X145028711Y-125723357D01*
X145032170Y-125725779D01*
X145211751Y-125851523D01*
X145216733Y-125853846D01*
X145216738Y-125853849D01*
X145250957Y-125869805D01*
X145304242Y-125916722D01*
X145323703Y-125984999D01*
X145303161Y-126052959D01*
X145250957Y-126098195D01*
X145216738Y-126114151D01*
X145216733Y-126114154D01*
X145211751Y-126116477D01*
X145146104Y-126162444D01*
X145028711Y-126244643D01*
X145028708Y-126244645D01*
X145024200Y-126247802D01*
X144862302Y-126409700D01*
X144859145Y-126414208D01*
X144859143Y-126414211D01*
X144843279Y-126436867D01*
X144730977Y-126597251D01*
X144728654Y-126602233D01*
X144728651Y-126602238D01*
X144636539Y-126799775D01*
X144634216Y-126804757D01*
X144632794Y-126810065D01*
X144632793Y-126810067D01*
X144588663Y-126974763D01*
X144574957Y-127025913D01*
X144555002Y-127254000D01*
X144574957Y-127482087D01*
X144576381Y-127487400D01*
X144576381Y-127487402D01*
X144609265Y-127610124D01*
X144634216Y-127703243D01*
X144636539Y-127708224D01*
X144636539Y-127708225D01*
X144728651Y-127905762D01*
X144728654Y-127905767D01*
X144730977Y-127910749D01*
X144862302Y-128098300D01*
X145024200Y-128260198D01*
X145028708Y-128263355D01*
X145028711Y-128263357D01*
X145071369Y-128293226D01*
X145211751Y-128391523D01*
X145216733Y-128393846D01*
X145216738Y-128393849D01*
X145250957Y-128409805D01*
X145304242Y-128456722D01*
X145323703Y-128524999D01*
X145303161Y-128592959D01*
X145250957Y-128638195D01*
X145216738Y-128654151D01*
X145216733Y-128654154D01*
X145211751Y-128656477D01*
X145171285Y-128684812D01*
X145028711Y-128784643D01*
X145028708Y-128784645D01*
X145024200Y-128787802D01*
X144862302Y-128949700D01*
X144859145Y-128954208D01*
X144859143Y-128954211D01*
X144843279Y-128976867D01*
X144730977Y-129137251D01*
X144728654Y-129142233D01*
X144728651Y-129142238D01*
X144636539Y-129339775D01*
X144634216Y-129344757D01*
X144574957Y-129565913D01*
X144555002Y-129794000D01*
X142101998Y-129794000D01*
X142082043Y-129565913D01*
X142022784Y-129344757D01*
X142020461Y-129339775D01*
X141928349Y-129142238D01*
X141928346Y-129142233D01*
X141926023Y-129137251D01*
X141813721Y-128976867D01*
X141797857Y-128954211D01*
X141797855Y-128954208D01*
X141794698Y-128949700D01*
X141632800Y-128787802D01*
X141628292Y-128784645D01*
X141628289Y-128784643D01*
X141485715Y-128684812D01*
X141445249Y-128656477D01*
X141440267Y-128654154D01*
X141440262Y-128654151D01*
X141406043Y-128638195D01*
X141352758Y-128591278D01*
X141333297Y-128523001D01*
X141353839Y-128455041D01*
X141406043Y-128409805D01*
X141440262Y-128393849D01*
X141440267Y-128393846D01*
X141445249Y-128391523D01*
X141585631Y-128293226D01*
X141628289Y-128263357D01*
X141628292Y-128263355D01*
X141632800Y-128260198D01*
X141794698Y-128098300D01*
X141926023Y-127910749D01*
X141928346Y-127905767D01*
X141928349Y-127905762D01*
X142020461Y-127708225D01*
X142020461Y-127708224D01*
X142022784Y-127703243D01*
X142047736Y-127610124D01*
X142080619Y-127487402D01*
X142080619Y-127487400D01*
X142082043Y-127482087D01*
X142101998Y-127254000D01*
X142082043Y-127025913D01*
X142068337Y-126974763D01*
X142024207Y-126810067D01*
X142024206Y-126810065D01*
X142022784Y-126804757D01*
X142020461Y-126799775D01*
X141928349Y-126602238D01*
X141928346Y-126602233D01*
X141926023Y-126597251D01*
X141813721Y-126436867D01*
X141797857Y-126414211D01*
X141797855Y-126414208D01*
X141794698Y-126409700D01*
X141632800Y-126247802D01*
X141628292Y-126244645D01*
X141628289Y-126244643D01*
X141510896Y-126162444D01*
X141445249Y-126116477D01*
X141440267Y-126114154D01*
X141440262Y-126114151D01*
X141406043Y-126098195D01*
X141352758Y-126051278D01*
X141333297Y-125983001D01*
X141353839Y-125915041D01*
X141406043Y-125869805D01*
X141440262Y-125853849D01*
X141440267Y-125853846D01*
X141445249Y-125851523D01*
X141624830Y-125725779D01*
X141628289Y-125723357D01*
X141628292Y-125723355D01*
X141632800Y-125720198D01*
X141794698Y-125558300D01*
X141926023Y-125370749D01*
X141928346Y-125365767D01*
X141928349Y-125365762D01*
X142020461Y-125168225D01*
X142020461Y-125168224D01*
X142022784Y-125163243D01*
X142061679Y-125018088D01*
X142080619Y-124947402D01*
X142080619Y-124947400D01*
X142082043Y-124942087D01*
X142101998Y-124714000D01*
X142082043Y-124485913D01*
X142022784Y-124264757D01*
X142020461Y-124259775D01*
X141928349Y-124062238D01*
X141928346Y-124062233D01*
X141926023Y-124057251D01*
X141794698Y-123869700D01*
X141632800Y-123707802D01*
X141628289Y-123704643D01*
X141624076Y-123701108D01*
X141624888Y-123700140D01*
X141584410Y-123649506D01*
X141577096Y-123578887D01*
X141609124Y-123515524D01*
X141670323Y-123479536D01*
X141687401Y-123476480D01*
X141690852Y-123476105D01*
X141706104Y-123472479D01*
X141826554Y-123427324D01*
X141842149Y-123418786D01*
X141944224Y-123342285D01*
X141956785Y-123329724D01*
X142033286Y-123227649D01*
X142041824Y-123212054D01*
X142086978Y-123091606D01*
X142090605Y-123076351D01*
X142096131Y-123025486D01*
X142096500Y-123018672D01*
X142096500Y-122446115D01*
X142092025Y-122430876D01*
X142090635Y-122429671D01*
X142082952Y-122428000D01*
X139498616Y-122428000D01*
X139483377Y-122432475D01*
X139482172Y-122433865D01*
X139480501Y-122441548D01*
X139480501Y-123018669D01*
X139480871Y-123025490D01*
X139486395Y-123076352D01*
X139490021Y-123091604D01*
X139535176Y-123212054D01*
X139543714Y-123227649D01*
X139620215Y-123329724D01*
X139632776Y-123342285D01*
X139734851Y-123418786D01*
X139750446Y-123427324D01*
X139870894Y-123472478D01*
X139886143Y-123476104D01*
X139889596Y-123476479D01*
X139892106Y-123477522D01*
X139893831Y-123477932D01*
X139893765Y-123478211D01*
X139955159Y-123503719D01*
X139995588Y-123562080D01*
X139998046Y-123633034D01*
X139961753Y-123694054D01*
X139950260Y-123703344D01*
X139948714Y-123704641D01*
X139944200Y-123707802D01*
X139782302Y-123869700D01*
X139650977Y-124057251D01*
X139648654Y-124062233D01*
X139648651Y-124062238D01*
X139603986Y-124158025D01*
X139554216Y-124264757D01*
X139552793Y-124270067D01*
X139552792Y-124270071D01*
X139530967Y-124351522D01*
X139494015Y-124412145D01*
X139435457Y-124442158D01*
X139368946Y-124456296D01*
X139258810Y-124479706D01*
X139252780Y-124482391D01*
X139252779Y-124482391D01*
X139090376Y-124554697D01*
X139090374Y-124554698D01*
X139084346Y-124557382D01*
X138929845Y-124669634D01*
X138925424Y-124674544D01*
X138925423Y-124674545D01*
X138861096Y-124745988D01*
X138802058Y-124811556D01*
X138706571Y-124976944D01*
X138647556Y-125158572D01*
X138627594Y-125348500D01*
X138628284Y-125355065D01*
X138642052Y-125486056D01*
X138647556Y-125538428D01*
X138706571Y-125720056D01*
X138709874Y-125725778D01*
X138709875Y-125725779D01*
X138729424Y-125759638D01*
X138802058Y-125885444D01*
X138806476Y-125890351D01*
X138806477Y-125890352D01*
X138922957Y-126019716D01*
X138929845Y-126027366D01*
X139027332Y-126098195D01*
X139060147Y-126122036D01*
X139084346Y-126139618D01*
X139090374Y-126142302D01*
X139090376Y-126142303D01*
X139252779Y-126214609D01*
X139258810Y-126217294D01*
X139352210Y-126237147D01*
X139439154Y-126255628D01*
X139439159Y-126255628D01*
X139445611Y-126257000D01*
X139636585Y-126257000D01*
X139637077Y-126256895D01*
X139704688Y-126269260D01*
X139756535Y-126317762D01*
X139773930Y-126386595D01*
X139751234Y-126454069D01*
X139654134Y-126592742D01*
X139654133Y-126592744D01*
X139650977Y-126597251D01*
X139648653Y-126602236D01*
X139648649Y-126602242D01*
X139565411Y-126780749D01*
X139518494Y-126834035D01*
X139451216Y-126853500D01*
X139350513Y-126853500D01*
X139344061Y-126854872D01*
X139344056Y-126854872D01*
X139257112Y-126873353D01*
X139163712Y-126893206D01*
X139157682Y-126895891D01*
X139157681Y-126895891D01*
X138995278Y-126968197D01*
X138995276Y-126968198D01*
X138989248Y-126970882D01*
X138834747Y-127083134D01*
X138706960Y-127225056D01*
X138611473Y-127390444D01*
X138552458Y-127572072D01*
X138551768Y-127578633D01*
X138551768Y-127578635D01*
X138538148Y-127708225D01*
X138532496Y-127762000D01*
X138533186Y-127768565D01*
X138546544Y-127895656D01*
X138552458Y-127951928D01*
X138611473Y-128133556D01*
X138706960Y-128298944D01*
X138711378Y-128303851D01*
X138711379Y-128303852D01*
X138822156Y-128426882D01*
X138834747Y-128440866D01*
X138989248Y-128553118D01*
X138995276Y-128555802D01*
X138995278Y-128555803D01*
X139112567Y-128608023D01*
X139163712Y-128630794D01*
X139257113Y-128650647D01*
X139344056Y-128669128D01*
X139344061Y-128669128D01*
X139350513Y-128670500D01*
X139541487Y-128670500D01*
X139547939Y-128669128D01*
X139547944Y-128669128D01*
X139634887Y-128650647D01*
X139728288Y-128630794D01*
X139734315Y-128628111D01*
X139734323Y-128628108D01*
X139779434Y-128608023D01*
X139849801Y-128598589D01*
X139914098Y-128628696D01*
X139951911Y-128688785D01*
X139951235Y-128759778D01*
X139919777Y-128812225D01*
X139782302Y-128949700D01*
X139779145Y-128954208D01*
X139779143Y-128954211D01*
X139763279Y-128976867D01*
X139650977Y-129137251D01*
X139648654Y-129142233D01*
X139648651Y-129142238D01*
X139556539Y-129339775D01*
X139554216Y-129344757D01*
X139552794Y-129350064D01*
X139519895Y-129472844D01*
X139482943Y-129533466D01*
X139424385Y-129563478D01*
X139283731Y-129593376D01*
X139283726Y-129593378D01*
X139277265Y-129594751D01*
X139271235Y-129597436D01*
X139271234Y-129597436D01*
X139108831Y-129669742D01*
X139108829Y-129669743D01*
X139102801Y-129672427D01*
X138948300Y-129784679D01*
X138820513Y-129926601D01*
X138725026Y-130091989D01*
X138666011Y-130273617D01*
X138665321Y-130280178D01*
X138665321Y-130280180D01*
X138650306Y-130423046D01*
X138646049Y-130463545D01*
X138646739Y-130470110D01*
X138655714Y-130555498D01*
X138666011Y-130653473D01*
X138670098Y-130666052D01*
X138672126Y-130737017D01*
X138635464Y-130797815D01*
X138571752Y-130829141D01*
X138501218Y-130821049D01*
X138446256Y-130776108D01*
X138441146Y-130767987D01*
X138432868Y-130753648D01*
X138432865Y-130753643D01*
X138429566Y-130747930D01*
X138409574Y-130725726D01*
X138306201Y-130610919D01*
X138306200Y-130610918D01*
X138301779Y-130606008D01*
X138170342Y-130510513D01*
X138152620Y-130497637D01*
X138152619Y-130497636D01*
X138147278Y-130493756D01*
X138141250Y-130491072D01*
X138141248Y-130491071D01*
X137978845Y-130418765D01*
X137978844Y-130418765D01*
X137972814Y-130416080D01*
X137877870Y-130395899D01*
X137792470Y-130377746D01*
X137792465Y-130377746D01*
X137786013Y-130376374D01*
X137595039Y-130376374D01*
X137588587Y-130377746D01*
X137588582Y-130377746D01*
X137503182Y-130395899D01*
X137408238Y-130416080D01*
X137402208Y-130418765D01*
X137402207Y-130418765D01*
X137239804Y-130491071D01*
X137239802Y-130491072D01*
X137233774Y-130493756D01*
X137228433Y-130497636D01*
X137228432Y-130497637D01*
X137210710Y-130510513D01*
X137079273Y-130606008D01*
X137074852Y-130610918D01*
X137074851Y-130610919D01*
X136971479Y-130725726D01*
X136951486Y-130747930D01*
X136855999Y-130913318D01*
X136796984Y-131094946D01*
X136796294Y-131101507D01*
X136796294Y-131101509D01*
X136786313Y-131196477D01*
X136777022Y-131284874D01*
X136777712Y-131291439D01*
X136794753Y-131453572D01*
X136796984Y-131474802D01*
X136855999Y-131656430D01*
X136951486Y-131821818D01*
X136955904Y-131826725D01*
X136955905Y-131826726D01*
X137013092Y-131890239D01*
X137079273Y-131963740D01*
X137233774Y-132075992D01*
X137239802Y-132078676D01*
X137239804Y-132078677D01*
X137402207Y-132150983D01*
X137408238Y-132153668D01*
X137501639Y-132173521D01*
X137588582Y-132192002D01*
X137588587Y-132192002D01*
X137595039Y-132193374D01*
X137786013Y-132193374D01*
X137792465Y-132192002D01*
X137792470Y-132192002D01*
X137879413Y-132173521D01*
X137972814Y-132153668D01*
X137978845Y-132150983D01*
X138141248Y-132078677D01*
X138141250Y-132078676D01*
X138147278Y-132075992D01*
X138301779Y-131963740D01*
X138367960Y-131890239D01*
X138425147Y-131826726D01*
X138425148Y-131826725D01*
X138429566Y-131821818D01*
X138525053Y-131656430D01*
X138584068Y-131474802D01*
X138586300Y-131453572D01*
X138603340Y-131291439D01*
X138604030Y-131284874D01*
X138594739Y-131196477D01*
X138584758Y-131101509D01*
X138584758Y-131101507D01*
X138584068Y-131094946D01*
X138579981Y-131082367D01*
X138577953Y-131011402D01*
X138614615Y-130950604D01*
X138678327Y-130919278D01*
X138748861Y-130927370D01*
X138803823Y-130972311D01*
X138808933Y-130980432D01*
X138817211Y-130994771D01*
X138817214Y-130994776D01*
X138820513Y-131000489D01*
X138824931Y-131005396D01*
X138824932Y-131005397D01*
X138938276Y-131131278D01*
X138948300Y-131142411D01*
X139102801Y-131254663D01*
X139108829Y-131257347D01*
X139108831Y-131257348D01*
X139271234Y-131329654D01*
X139277265Y-131332339D01*
X139370665Y-131352192D01*
X139457609Y-131370673D01*
X139457614Y-131370673D01*
X139464066Y-131372045D01*
X139622641Y-131372045D01*
X139690762Y-131392047D01*
X139737255Y-131445703D01*
X139747359Y-131515977D01*
X139725854Y-131570316D01*
X139650977Y-131677251D01*
X139648654Y-131682233D01*
X139648651Y-131682238D01*
X139562441Y-131867118D01*
X139554216Y-131884757D01*
X139552794Y-131890065D01*
X139552793Y-131890067D01*
X139506218Y-132063885D01*
X139494957Y-132105913D01*
X139475002Y-132334000D01*
X139494957Y-132562087D01*
X139496381Y-132567400D01*
X139496381Y-132567402D01*
X139551393Y-132772706D01*
X139554216Y-132783243D01*
X139646454Y-132981050D01*
X139657115Y-133051240D01*
X139628135Y-133116052D01*
X139568715Y-133154909D01*
X139506062Y-133157545D01*
X139362670Y-133127066D01*
X139362665Y-133127066D01*
X139356213Y-133125694D01*
X139165239Y-133125694D01*
X139158787Y-133127066D01*
X139158782Y-133127066D01*
X139092336Y-133141190D01*
X138978438Y-133165400D01*
X138972408Y-133168085D01*
X138972407Y-133168085D01*
X138810004Y-133240391D01*
X138810002Y-133240392D01*
X138803974Y-133243076D01*
X138798633Y-133246956D01*
X138798632Y-133246957D01*
X138758343Y-133276229D01*
X138649473Y-133355328D01*
X138645052Y-133360238D01*
X138645051Y-133360239D01*
X138544851Y-133471523D01*
X138521686Y-133497250D01*
X138480125Y-133569236D01*
X138445968Y-133628398D01*
X138426199Y-133662638D01*
X138367184Y-133844266D01*
X138366494Y-133850827D01*
X138366494Y-133850829D01*
X138350104Y-134006771D01*
X138347222Y-134034194D01*
X138347912Y-134040759D01*
X138360439Y-134159947D01*
X138347667Y-134229785D01*
X138309188Y-134275054D01*
X138296286Y-134284427D01*
X138296281Y-134284432D01*
X138290940Y-134288312D01*
X138163153Y-134430234D01*
X138067666Y-134595622D01*
X138008651Y-134777250D01*
X137988689Y-134967178D01*
X137989379Y-134973743D01*
X137994451Y-135021996D01*
X138008651Y-135157106D01*
X138067666Y-135338734D01*
X138163153Y-135504122D01*
X138290940Y-135646044D01*
X138386195Y-135715251D01*
X138438744Y-135753430D01*
X138445441Y-135758296D01*
X138451469Y-135760980D01*
X138451471Y-135760981D01*
X138559533Y-135809093D01*
X138619905Y-135835972D01*
X138713305Y-135855825D01*
X138800249Y-135874306D01*
X138800254Y-135874306D01*
X138806706Y-135875678D01*
X138997680Y-135875678D01*
X139004132Y-135874306D01*
X139004137Y-135874306D01*
X139091081Y-135855825D01*
X139184481Y-135835972D01*
X139348686Y-135762864D01*
X139419051Y-135753430D01*
X139483348Y-135783536D01*
X139521162Y-135843625D01*
X139520486Y-135914619D01*
X139489028Y-135967066D01*
X138966499Y-136489595D01*
X138904187Y-136523621D01*
X138877404Y-136526500D01*
X137617061Y-136526500D01*
X137548940Y-136506498D01*
X137523428Y-136484814D01*
X137521695Y-136482890D01*
X137521694Y-136482889D01*
X137517272Y-136477978D01*
X137478511Y-136449816D01*
X137368113Y-136369607D01*
X137368112Y-136369606D01*
X137362771Y-136365726D01*
X137356743Y-136363042D01*
X137356741Y-136363041D01*
X137194338Y-136290735D01*
X137194337Y-136290735D01*
X137188307Y-136288050D01*
X137094907Y-136268197D01*
X137007963Y-136249716D01*
X137007958Y-136249716D01*
X137001506Y-136248344D01*
X136810532Y-136248344D01*
X136804080Y-136249716D01*
X136804075Y-136249716D01*
X136717131Y-136268197D01*
X136623731Y-136288050D01*
X136617701Y-136290735D01*
X136617700Y-136290735D01*
X136455297Y-136363041D01*
X136455295Y-136363042D01*
X136449267Y-136365726D01*
X136294766Y-136477978D01*
X136290345Y-136482888D01*
X136290344Y-136482889D01*
X136203371Y-136579483D01*
X136166979Y-136619900D01*
X136163680Y-136625613D01*
X136163677Y-136625618D01*
X136125619Y-136691537D01*
X136074236Y-136740530D01*
X136004522Y-136753966D01*
X135938612Y-136727579D01*
X135897430Y-136669747D01*
X135890500Y-136628537D01*
X135890500Y-128678247D01*
X136450227Y-128678247D01*
X136450917Y-128684812D01*
X136461742Y-128787802D01*
X136470189Y-128868175D01*
X136529204Y-129049803D01*
X136624691Y-129215191D01*
X136629109Y-129220098D01*
X136629110Y-129220099D01*
X136746131Y-129350064D01*
X136752478Y-129357113D01*
X136906979Y-129469365D01*
X136913007Y-129472049D01*
X136913009Y-129472050D01*
X137075412Y-129544356D01*
X137081443Y-129547041D01*
X137158773Y-129563478D01*
X137261787Y-129585375D01*
X137261792Y-129585375D01*
X137268244Y-129586747D01*
X137459218Y-129586747D01*
X137465670Y-129585375D01*
X137465675Y-129585375D01*
X137568689Y-129563478D01*
X137646019Y-129547041D01*
X137652050Y-129544356D01*
X137814453Y-129472050D01*
X137814455Y-129472049D01*
X137820483Y-129469365D01*
X137974984Y-129357113D01*
X137981331Y-129350064D01*
X138098352Y-129220099D01*
X138098353Y-129220098D01*
X138102771Y-129215191D01*
X138198258Y-129049803D01*
X138257273Y-128868175D01*
X138265721Y-128787802D01*
X138276545Y-128684812D01*
X138277235Y-128678247D01*
X138257273Y-128488319D01*
X138198258Y-128306691D01*
X138102771Y-128141303D01*
X137974984Y-127999381D01*
X137846129Y-127905762D01*
X137825825Y-127891010D01*
X137825824Y-127891009D01*
X137820483Y-127887129D01*
X137814455Y-127884445D01*
X137814453Y-127884444D01*
X137652050Y-127812138D01*
X137652049Y-127812138D01*
X137646019Y-127809453D01*
X137552619Y-127789600D01*
X137465675Y-127771119D01*
X137465670Y-127771119D01*
X137459218Y-127769747D01*
X137268244Y-127769747D01*
X137261792Y-127771119D01*
X137261787Y-127771119D01*
X137174843Y-127789600D01*
X137081443Y-127809453D01*
X137075413Y-127812138D01*
X137075412Y-127812138D01*
X136913009Y-127884444D01*
X136913007Y-127884445D01*
X136906979Y-127887129D01*
X136901638Y-127891009D01*
X136901637Y-127891010D01*
X136881333Y-127905762D01*
X136752478Y-127999381D01*
X136624691Y-128141303D01*
X136529204Y-128306691D01*
X136470189Y-128488319D01*
X136450227Y-128678247D01*
X135890500Y-128678247D01*
X135890500Y-126246754D01*
X135910502Y-126178633D01*
X135964158Y-126132140D01*
X136034432Y-126122036D01*
X136099012Y-126151530D01*
X136110126Y-126162433D01*
X136154838Y-126212091D01*
X136309339Y-126324343D01*
X136315367Y-126327027D01*
X136315369Y-126327028D01*
X136473325Y-126397354D01*
X136483803Y-126402019D01*
X136577204Y-126421872D01*
X136664147Y-126440353D01*
X136664152Y-126440353D01*
X136670604Y-126441725D01*
X136861578Y-126441725D01*
X136868030Y-126440353D01*
X136868035Y-126440353D01*
X136954978Y-126421872D01*
X137048379Y-126402019D01*
X137058857Y-126397354D01*
X137216813Y-126327028D01*
X137216815Y-126327027D01*
X137222843Y-126324343D01*
X137377344Y-126212091D01*
X137442599Y-126139618D01*
X137500712Y-126075077D01*
X137500713Y-126075076D01*
X137505131Y-126070169D01*
X137563405Y-125969235D01*
X137597314Y-125910504D01*
X137597315Y-125910503D01*
X137600618Y-125904781D01*
X137659633Y-125723153D01*
X137663047Y-125690676D01*
X137678905Y-125539790D01*
X137679595Y-125533225D01*
X137673977Y-125479771D01*
X137660323Y-125349860D01*
X137660323Y-125349858D01*
X137659633Y-125343297D01*
X137600618Y-125161669D01*
X137595206Y-125152294D01*
X137508432Y-125001999D01*
X137505131Y-124996281D01*
X137451401Y-124936607D01*
X137381766Y-124859270D01*
X137381765Y-124859269D01*
X137377344Y-124854359D01*
X137222843Y-124742107D01*
X137216815Y-124739423D01*
X137216813Y-124739422D01*
X137054410Y-124667116D01*
X137054409Y-124667116D01*
X137048379Y-124664431D01*
X136954978Y-124644578D01*
X136868035Y-124626097D01*
X136868030Y-124626097D01*
X136861578Y-124624725D01*
X136670604Y-124624725D01*
X136664152Y-124626097D01*
X136664147Y-124626097D01*
X136577204Y-124644578D01*
X136483803Y-124664431D01*
X136477773Y-124667116D01*
X136477772Y-124667116D01*
X136315369Y-124739422D01*
X136315367Y-124739423D01*
X136309339Y-124742107D01*
X136154838Y-124854359D01*
X136110134Y-124904008D01*
X136049691Y-124941246D01*
X135978707Y-124939895D01*
X135919722Y-124900381D01*
X135891464Y-124835250D01*
X135890500Y-124819696D01*
X135890500Y-121901885D01*
X139480500Y-121901885D01*
X139484975Y-121917124D01*
X139486365Y-121918329D01*
X139494048Y-121920000D01*
X140516385Y-121920000D01*
X140531624Y-121915525D01*
X140532829Y-121914135D01*
X140534500Y-121906452D01*
X140534500Y-121901885D01*
X141042500Y-121901885D01*
X141046975Y-121917124D01*
X141048365Y-121918329D01*
X141056048Y-121920000D01*
X142078384Y-121920000D01*
X142093623Y-121915525D01*
X142094828Y-121914135D01*
X142096499Y-121906452D01*
X142096499Y-121329331D01*
X142096129Y-121322510D01*
X142090605Y-121271648D01*
X142086979Y-121256396D01*
X142041824Y-121135946D01*
X142033286Y-121120351D01*
X141956785Y-121018276D01*
X141944224Y-121005715D01*
X141842149Y-120929214D01*
X141826554Y-120920676D01*
X141706106Y-120875522D01*
X141690851Y-120871895D01*
X141639986Y-120866369D01*
X141633172Y-120866000D01*
X141060615Y-120866000D01*
X141045376Y-120870475D01*
X141044171Y-120871865D01*
X141042500Y-120879548D01*
X141042500Y-121901885D01*
X140534500Y-121901885D01*
X140534500Y-120884116D01*
X140530025Y-120868877D01*
X140528635Y-120867672D01*
X140520952Y-120866001D01*
X139943831Y-120866001D01*
X139937010Y-120866371D01*
X139886148Y-120871895D01*
X139870896Y-120875521D01*
X139750446Y-120920676D01*
X139734851Y-120929214D01*
X139632776Y-121005715D01*
X139620215Y-121018276D01*
X139543714Y-121120351D01*
X139535176Y-121135946D01*
X139490022Y-121256394D01*
X139486395Y-121271649D01*
X139480869Y-121322514D01*
X139480500Y-121329328D01*
X139480500Y-121901885D01*
X135890500Y-121901885D01*
X135890500Y-117474500D01*
X135910502Y-117406379D01*
X135964158Y-117359886D01*
X136016500Y-117348500D01*
X136945500Y-117348500D01*
X137013621Y-117368502D01*
G37*
%TD.AperFunction*%
%TA.AperFunction,Conductor*%
G36*
X136099012Y-139663138D02*
G01*
X136125619Y-139695362D01*
X136149885Y-139737392D01*
X136154303Y-139742299D01*
X136154304Y-139742300D01*
X136266949Y-139867405D01*
X136277672Y-139879314D01*
X136432173Y-139991566D01*
X136438201Y-139994250D01*
X136438203Y-139994251D01*
X136600606Y-140066557D01*
X136606637Y-140069242D01*
X136719341Y-140093198D01*
X136781814Y-140126926D01*
X136816136Y-140189076D01*
X136811408Y-140259915D01*
X136769132Y-140316953D01*
X136719341Y-140339692D01*
X136695487Y-140344763D01*
X136617600Y-140361318D01*
X136611570Y-140364003D01*
X136611569Y-140364003D01*
X136449166Y-140436309D01*
X136449164Y-140436310D01*
X136443136Y-140438994D01*
X136288635Y-140551246D01*
X136284214Y-140556156D01*
X136284213Y-140556157D01*
X136250380Y-140593733D01*
X136160848Y-140693168D01*
X136157549Y-140698881D01*
X136157546Y-140698886D01*
X136125619Y-140754186D01*
X136074236Y-140803179D01*
X136004523Y-140816615D01*
X135938612Y-140790228D01*
X135897430Y-140732396D01*
X135890500Y-140691186D01*
X135890500Y-139758362D01*
X135910502Y-139690241D01*
X135964158Y-139643748D01*
X136034432Y-139633644D01*
X136099012Y-139663138D01*
G37*
%TD.AperFunction*%
%TA.AperFunction,Conductor*%
G36*
X141020305Y-137850272D02*
G01*
X141059015Y-137858500D01*
X141221335Y-137858500D01*
X141289456Y-137878502D01*
X141335949Y-137932158D01*
X141346053Y-138002432D01*
X141316559Y-138067012D01*
X141313020Y-138070619D01*
X141312721Y-138070836D01*
X141311765Y-138071898D01*
X141311754Y-138071909D01*
X141189353Y-138207850D01*
X141184934Y-138212758D01*
X141089447Y-138378146D01*
X141087407Y-138384426D01*
X141087406Y-138384427D01*
X141073524Y-138427151D01*
X141042786Y-138477309D01*
X138960388Y-140559707D01*
X138898076Y-140593733D01*
X138871293Y-140596612D01*
X137608088Y-140596612D01*
X137539967Y-140576610D01*
X137520741Y-140560269D01*
X137520468Y-140560572D01*
X137515556Y-140556149D01*
X137511141Y-140551246D01*
X137356640Y-140438994D01*
X137350612Y-140436310D01*
X137350610Y-140436309D01*
X137188207Y-140364003D01*
X137188206Y-140364003D01*
X137182176Y-140361318D01*
X137069472Y-140337362D01*
X137006999Y-140303634D01*
X136972677Y-140241484D01*
X136977405Y-140170645D01*
X137019681Y-140113607D01*
X137069472Y-140090868D01*
X137108839Y-140082500D01*
X137171213Y-140069242D01*
X137177244Y-140066557D01*
X137339647Y-139994251D01*
X137339649Y-139994250D01*
X137345677Y-139991566D01*
X137500178Y-139879314D01*
X137510901Y-139867405D01*
X137623546Y-139742300D01*
X137623547Y-139742299D01*
X137627965Y-139737392D01*
X137714306Y-139587845D01*
X137720148Y-139577727D01*
X137720149Y-139577726D01*
X137723452Y-139572004D01*
X137782467Y-139390376D01*
X137790681Y-139312230D01*
X137801739Y-139207013D01*
X137802429Y-139200448D01*
X137794601Y-139125966D01*
X137783157Y-139017083D01*
X137783157Y-139017081D01*
X137782467Y-139010520D01*
X137757913Y-138934951D01*
X137739535Y-138878389D01*
X137737507Y-138807422D01*
X137774170Y-138746624D01*
X137837882Y-138715298D01*
X137859368Y-138713453D01*
X139637676Y-138713453D01*
X139648859Y-138713980D01*
X139656352Y-138715655D01*
X139664278Y-138715406D01*
X139664279Y-138715406D01*
X139724429Y-138713515D01*
X139728388Y-138713453D01*
X139756299Y-138713453D01*
X139760234Y-138712956D01*
X139760299Y-138712948D01*
X139772136Y-138712015D01*
X139804394Y-138711001D01*
X139808413Y-138710875D01*
X139816332Y-138710626D01*
X139835786Y-138704974D01*
X139855143Y-138700966D01*
X139867373Y-138699421D01*
X139867374Y-138699421D01*
X139875240Y-138698427D01*
X139882611Y-138695508D01*
X139882613Y-138695508D01*
X139916355Y-138682149D01*
X139927585Y-138678304D01*
X139962426Y-138668182D01*
X139962427Y-138668182D01*
X139970036Y-138665971D01*
X139976855Y-138661938D01*
X139976860Y-138661936D01*
X139987471Y-138655660D01*
X140005219Y-138646965D01*
X140024060Y-138639505D01*
X140059830Y-138613517D01*
X140069750Y-138607001D01*
X140100978Y-138588533D01*
X140100981Y-138588531D01*
X140107805Y-138584495D01*
X140122126Y-138570174D01*
X140137160Y-138557333D01*
X140147137Y-138550084D01*
X140153550Y-138545425D01*
X140158600Y-138539321D01*
X140158605Y-138539316D01*
X140181736Y-138511355D01*
X140189726Y-138502574D01*
X140824905Y-137867396D01*
X140887217Y-137833371D01*
X140940196Y-137833245D01*
X141020305Y-137850272D01*
G37*
%TD.AperFunction*%
%TD*%
M02*
