%TF.GenerationSoftware,KiCad,Pcbnew,(6.0.9)*%
%TF.CreationDate,2022-12-15T20:33:27+01:00*%
%TF.ProjectId,8view,38766965-772e-46b6-9963-61645f706362,rev?*%
%TF.SameCoordinates,Original*%
%TF.FileFunction,Soldermask,Bot*%
%TF.FilePolarity,Negative*%
%FSLAX46Y46*%
G04 Gerber Fmt 4.6, Leading zero omitted, Abs format (unit mm)*
G04 Created by KiCad (PCBNEW (6.0.9)) date 2022-12-15 20:33:27*
%MOMM*%
%LPD*%
G01*
G04 APERTURE LIST*
%ADD10C,1.500000*%
%ADD11R,1.700000X1.700000*%
%ADD12O,1.700000X1.700000*%
%ADD13R,1.600000X1.600000*%
%ADD14C,1.600000*%
G04 APERTURE END LIST*
D10*
%TO.C,TP6*%
X154750000Y-137600000D03*
%TD*%
%TO.C,TP5*%
X140900000Y-144800000D03*
%TD*%
%TO.C,TP4*%
X146900000Y-143900000D03*
%TD*%
%TO.C,TP3*%
X142400000Y-141000000D03*
%TD*%
%TO.C,TP2*%
X154750000Y-135050000D03*
%TD*%
%TO.C,TP1*%
X146900000Y-141000000D03*
%TD*%
D11*
%TO.C,J1*%
X138430000Y-118364000D03*
D12*
X140970000Y-118364000D03*
X143510000Y-118364000D03*
X146050000Y-118364000D03*
X148590000Y-118364000D03*
X151130000Y-118364000D03*
X153670000Y-118364000D03*
X156210000Y-118364000D03*
%TD*%
D13*
%TO.C,U2*%
X140788500Y-122174000D03*
D14*
X140788500Y-124714000D03*
X140788500Y-127254000D03*
X140788500Y-129794000D03*
X140788500Y-132334000D03*
X145868500Y-132334000D03*
X145868500Y-129794000D03*
X145868500Y-127254000D03*
X145868500Y-124714000D03*
X145868500Y-122174000D03*
%TD*%
D13*
%TO.C,U3*%
X149098000Y-122174000D03*
D14*
X149098000Y-124714000D03*
X149098000Y-127254000D03*
X149098000Y-129794000D03*
X149098000Y-132334000D03*
X154178000Y-132334000D03*
X154178000Y-129794000D03*
X154178000Y-127254000D03*
X154178000Y-124714000D03*
X154178000Y-122174000D03*
%TD*%
D11*
%TO.C,J2*%
X158750000Y-150876000D03*
D12*
X156210000Y-150876000D03*
X153670000Y-150876000D03*
X151130000Y-150876000D03*
X148590000Y-150876000D03*
X146050000Y-150876000D03*
X143510000Y-150876000D03*
X140970000Y-150876000D03*
X138430000Y-150876000D03*
X135890000Y-150876000D03*
%TD*%
M02*
