%TF.GenerationSoftware,KiCad,Pcbnew,(6.0.9)*%
%TF.CreationDate,2022-12-15T20:33:27+01:00*%
%TF.ProjectId,8view,38766965-772e-46b6-9963-61645f706362,rev?*%
%TF.SameCoordinates,Original*%
%TF.FileFunction,Legend,Top*%
%TF.FilePolarity,Positive*%
%FSLAX46Y46*%
G04 Gerber Fmt 4.6, Leading zero omitted, Abs format (unit mm)*
G04 Created by KiCad (PCBNEW (6.0.9)) date 2022-12-15 20:33:27*
%MOMM*%
%LPD*%
G01*
G04 APERTURE LIST*
%ADD10C,0.150000*%
%ADD11C,0.120000*%
%ADD12C,0.249999*%
G04 APERTURE END LIST*
D10*
X156945000Y-148043000D02*
X137668000Y-148043000D01*
X137668000Y-148043000D02*
X137668000Y-149606000D01*
X137668000Y-149606000D02*
X156945000Y-149606000D01*
X156945000Y-149606000D02*
X156945000Y-148043000D01*
X147306500Y-148043000D02*
X147306500Y-148043000D01*
X147306500Y-148043000D02*
X147306500Y-149606000D01*
X147306500Y-149606000D02*
X147306500Y-149606000D01*
X147306500Y-149606000D02*
X147306500Y-148043000D01*
%TO.C,J1*%
X135612380Y-114312333D02*
X136326666Y-114312333D01*
X136469523Y-114359952D01*
X136564761Y-114455190D01*
X136612380Y-114598047D01*
X136612380Y-114693285D01*
X136612380Y-113312333D02*
X136612380Y-113883761D01*
X136612380Y-113598047D02*
X135612380Y-113598047D01*
X135755238Y-113693285D01*
X135850476Y-113788523D01*
X135898095Y-113883761D01*
%TO.C,U2*%
X142566595Y-119467380D02*
X142566595Y-120276904D01*
X142614214Y-120372142D01*
X142661833Y-120419761D01*
X142757071Y-120467380D01*
X142947547Y-120467380D01*
X143042785Y-120419761D01*
X143090404Y-120372142D01*
X143138023Y-120276904D01*
X143138023Y-119467380D01*
X143566595Y-119562619D02*
X143614214Y-119515000D01*
X143709452Y-119467380D01*
X143947547Y-119467380D01*
X144042785Y-119515000D01*
X144090404Y-119562619D01*
X144138023Y-119657857D01*
X144138023Y-119753095D01*
X144090404Y-119895952D01*
X143518976Y-120467380D01*
X144138023Y-120467380D01*
%TO.C,U3*%
X150876095Y-119467380D02*
X150876095Y-120276904D01*
X150923714Y-120372142D01*
X150971333Y-120419761D01*
X151066571Y-120467380D01*
X151257047Y-120467380D01*
X151352285Y-120419761D01*
X151399904Y-120372142D01*
X151447523Y-120276904D01*
X151447523Y-119467380D01*
X151828476Y-119467380D02*
X152447523Y-119467380D01*
X152114190Y-119848333D01*
X152257047Y-119848333D01*
X152352285Y-119895952D01*
X152399904Y-119943571D01*
X152447523Y-120038809D01*
X152447523Y-120276904D01*
X152399904Y-120372142D01*
X152352285Y-120419761D01*
X152257047Y-120467380D01*
X151971333Y-120467380D01*
X151876095Y-120419761D01*
X151828476Y-120372142D01*
%TO.C,J2*%
X160472380Y-155594333D02*
X161186666Y-155594333D01*
X161329523Y-155641952D01*
X161424761Y-155737190D01*
X161472380Y-155880047D01*
X161472380Y-155975285D01*
X160567619Y-155165761D02*
X160520000Y-155118142D01*
X160472380Y-155022904D01*
X160472380Y-154784809D01*
X160520000Y-154689571D01*
X160567619Y-154641952D01*
X160662857Y-154594333D01*
X160758095Y-154594333D01*
X160900952Y-154641952D01*
X161472380Y-155213380D01*
X161472380Y-154594333D01*
D11*
%TO.C,C2*%
X140559420Y-135410000D02*
X140840580Y-135410000D01*
X140559420Y-134390000D02*
X140840580Y-134390000D01*
%TO.C,C1*%
X154309420Y-135410000D02*
X154590580Y-135410000D01*
X154309420Y-134390000D02*
X154590580Y-134390000D01*
%TO.C,R10*%
X137180000Y-134646359D02*
X137180000Y-134953641D01*
X136420000Y-134646359D02*
X136420000Y-134953641D01*
%TO.C,R12*%
X137288000Y-127661641D02*
X137288000Y-127354359D01*
X138048000Y-127661641D02*
X138048000Y-127354359D01*
%TO.C,R13*%
X138048000Y-130201641D02*
X138048000Y-129894359D01*
X137288000Y-130201641D02*
X137288000Y-129894359D01*
%TO.C,J1*%
X138050000Y-117254000D02*
X138050000Y-116924000D01*
X153290000Y-114264000D02*
X153290000Y-108264000D01*
X153290000Y-117321071D02*
X153290000Y-116924000D01*
X157540000Y-116924000D02*
X157540000Y-114264000D01*
X138430000Y-119634000D02*
X137160000Y-119634000D01*
X141350000Y-108264000D02*
X141350000Y-114264000D01*
X145670000Y-108264000D02*
X146430000Y-108264000D01*
X155830000Y-117321071D02*
X155830000Y-116924000D01*
X146430000Y-108264000D02*
X146430000Y-114264000D01*
X138470000Y-114264000D02*
X138470000Y-108264000D01*
X138350000Y-114264000D02*
X138350000Y-108264000D01*
X138050000Y-108264000D02*
X138810000Y-108264000D01*
X152400000Y-116924000D02*
X152400000Y-114264000D01*
X143890000Y-117321071D02*
X143890000Y-116924000D01*
X148210000Y-114264000D02*
X148210000Y-108264000D01*
X154940000Y-116924000D02*
X154940000Y-114264000D01*
X139700000Y-116924000D02*
X139700000Y-114264000D01*
X138110000Y-114264000D02*
X138110000Y-108264000D01*
X138590000Y-114264000D02*
X138590000Y-108264000D01*
X151510000Y-108264000D02*
X151510000Y-114264000D01*
X137100000Y-114264000D02*
X137100000Y-116924000D01*
X157540000Y-114264000D02*
X137100000Y-114264000D01*
X146430000Y-117321071D02*
X146430000Y-116924000D01*
X155830000Y-114264000D02*
X155830000Y-108264000D01*
X142240000Y-116924000D02*
X142240000Y-114264000D01*
X150750000Y-114264000D02*
X150750000Y-108264000D01*
X145670000Y-114264000D02*
X145670000Y-108264000D01*
X149860000Y-116924000D02*
X149860000Y-114264000D01*
X151510000Y-117321071D02*
X151510000Y-116924000D01*
X141350000Y-117321071D02*
X141350000Y-116924000D01*
X140590000Y-117321071D02*
X140590000Y-116924000D01*
X138810000Y-108264000D02*
X138810000Y-114264000D01*
X144780000Y-116924000D02*
X144780000Y-114264000D01*
X138230000Y-114264000D02*
X138230000Y-108264000D01*
X137100000Y-116924000D02*
X157540000Y-116924000D01*
X138710000Y-114264000D02*
X138710000Y-108264000D01*
X148210000Y-108264000D02*
X148970000Y-108264000D01*
X148970000Y-108264000D02*
X148970000Y-114264000D01*
X138810000Y-117254000D02*
X138810000Y-116924000D01*
X150750000Y-108264000D02*
X151510000Y-108264000D01*
X154050000Y-108264000D02*
X154050000Y-114264000D01*
X150750000Y-117321071D02*
X150750000Y-116924000D01*
X143130000Y-108264000D02*
X143890000Y-108264000D01*
X155830000Y-108264000D02*
X156590000Y-108264000D01*
X153290000Y-108264000D02*
X154050000Y-108264000D01*
X145670000Y-117321071D02*
X145670000Y-116924000D01*
X156590000Y-117321071D02*
X156590000Y-116924000D01*
X140590000Y-108264000D02*
X141350000Y-108264000D01*
X154050000Y-117321071D02*
X154050000Y-116924000D01*
X148970000Y-117321071D02*
X148970000Y-116924000D01*
X138050000Y-114264000D02*
X138050000Y-108264000D01*
X147320000Y-116924000D02*
X147320000Y-114264000D01*
X148210000Y-117321071D02*
X148210000Y-116924000D01*
X143130000Y-117321071D02*
X143130000Y-116924000D01*
X143130000Y-114264000D02*
X143130000Y-108264000D01*
X137160000Y-119634000D02*
X137160000Y-118364000D01*
X156590000Y-108264000D02*
X156590000Y-114264000D01*
X140590000Y-114264000D02*
X140590000Y-108264000D01*
X143890000Y-108264000D02*
X143890000Y-114264000D01*
%TO.C,D4*%
X146785000Y-148043000D02*
X146785000Y-145758000D01*
X145315000Y-145758000D02*
X145315000Y-148043000D01*
X145315000Y-148043000D02*
X146785000Y-148043000D01*
%TO.C,R6*%
X149420000Y-147193641D02*
X149420000Y-146886359D01*
X150180000Y-147193641D02*
X150180000Y-146886359D01*
D10*
%TO.C,U2*%
X139518500Y-120904000D02*
X139518500Y-133604000D01*
D11*
X139158500Y-120544000D02*
X140788500Y-120544000D01*
D10*
X147138500Y-133604000D02*
X147138500Y-120904000D01*
X147138500Y-120904000D02*
X139518500Y-120904000D01*
X139518500Y-133604000D02*
X147138500Y-133604000D01*
D11*
X139158500Y-122174000D02*
X139158500Y-120544000D01*
D10*
%TO.C,U1*%
X151199000Y-135821000D02*
X150874000Y-135821000D01*
X143949000Y-143071000D02*
X144174000Y-143071000D01*
X143949000Y-135821000D02*
X143949000Y-136146000D01*
X151199000Y-135821000D02*
X151199000Y-136146000D01*
X144174000Y-143071000D02*
X144174000Y-144496000D01*
X151199000Y-143071000D02*
X151199000Y-142746000D01*
X151199000Y-143071000D02*
X150874000Y-143071000D01*
X143949000Y-135821000D02*
X144274000Y-135821000D01*
X143949000Y-143071000D02*
X143949000Y-142746000D01*
D11*
%TO.C,R25*%
X157100000Y-129947641D02*
X157100000Y-129640359D01*
X157860000Y-129947641D02*
X157860000Y-129640359D01*
%TO.C,R23*%
X157860000Y-132487641D02*
X157860000Y-132180359D01*
X157100000Y-132487641D02*
X157100000Y-132180359D01*
%TO.C,R21*%
X156844000Y-127407641D02*
X156844000Y-127100359D01*
X156084000Y-127407641D02*
X156084000Y-127100359D01*
%TO.C,R24*%
X157100000Y-127407641D02*
X157100000Y-127100359D01*
X157860000Y-127407641D02*
X157860000Y-127100359D01*
%TO.C,R7*%
X152720000Y-147191641D02*
X152720000Y-146884359D01*
X151960000Y-147191641D02*
X151960000Y-146884359D01*
%TO.C,R8*%
X155260000Y-147193641D02*
X155260000Y-146886359D01*
X154500000Y-147193641D02*
X154500000Y-146886359D01*
D10*
%TO.C,J4*%
X136584022Y-143708001D02*
X137633997Y-143708001D01*
X139733998Y-144258000D02*
X140333999Y-144258000D01*
X140333999Y-142007999D02*
X140333999Y-144258000D01*
X136583999Y-136707999D02*
X137633997Y-136707999D01*
X135783983Y-144307999D02*
X136583999Y-144307999D01*
X136584022Y-143708001D02*
X136584022Y-144307999D01*
X136583999Y-136107998D02*
X136583999Y-136707999D01*
X135783998Y-136107998D02*
X135783998Y-144307999D01*
X139733998Y-136158000D02*
X140333999Y-136158000D01*
X135783983Y-136108006D02*
X136583999Y-136108006D01*
X140333999Y-136158000D02*
X140333999Y-138407999D01*
D12*
X141759000Y-138957997D02*
G75*
G03*
X141759000Y-138957997I-125001J0D01*
G01*
D11*
%TO.C,R26*%
X156084000Y-129947641D02*
X156084000Y-129640359D01*
X156844000Y-129947641D02*
X156844000Y-129640359D01*
%TO.C,R11*%
X138048000Y-125121641D02*
X138048000Y-124814359D01*
X137288000Y-125121641D02*
X137288000Y-124814359D01*
%TO.C,D1*%
X137695000Y-148043000D02*
X139165000Y-148043000D01*
X137695000Y-145758000D02*
X137695000Y-148043000D01*
X139165000Y-148043000D02*
X139165000Y-145758000D01*
%TO.C,R1*%
X136720000Y-147193641D02*
X136720000Y-146886359D01*
X137480000Y-147193641D02*
X137480000Y-146886359D01*
%TO.C,R19*%
X157860000Y-124867641D02*
X157860000Y-124560359D01*
X157100000Y-124867641D02*
X157100000Y-124560359D01*
D10*
%TO.C,J3*%
X155160002Y-136126999D02*
X154560001Y-136126999D01*
X159110017Y-136077000D02*
X158310001Y-136077000D01*
X154560001Y-138377000D02*
X154560001Y-136126999D01*
X158309978Y-136676998D02*
X158309978Y-136077000D01*
X158310001Y-143677000D02*
X157260003Y-143677000D01*
X159110017Y-144276993D02*
X158310001Y-144276993D01*
X159110002Y-144277001D02*
X159110002Y-136077000D01*
X155160002Y-144226999D02*
X154560001Y-144226999D01*
X158309978Y-136676998D02*
X157260003Y-136676998D01*
X154560001Y-144226999D02*
X154560001Y-141977000D01*
X158310001Y-144277001D02*
X158310001Y-143677000D01*
D12*
X153385002Y-141427002D02*
G75*
G03*
X153385002Y-141427002I-125001J0D01*
G01*
D11*
%TO.C,R2*%
X140020000Y-147191641D02*
X140020000Y-146884359D01*
X139260000Y-147191641D02*
X139260000Y-146884359D01*
%TO.C,R20*%
X156084000Y-124867641D02*
X156084000Y-124560359D01*
X156844000Y-124867641D02*
X156844000Y-124560359D01*
%TO.C,D5*%
X147855000Y-145758000D02*
X147855000Y-148043000D01*
X149325000Y-148043000D02*
X149325000Y-145758000D01*
X147855000Y-148043000D02*
X149325000Y-148043000D01*
%TO.C,R4*%
X145100000Y-147193641D02*
X145100000Y-146886359D01*
X144340000Y-147193641D02*
X144340000Y-146886359D01*
D10*
%TO.C,U3*%
X147828000Y-120904000D02*
X147828000Y-133604000D01*
X155448000Y-120904000D02*
X147828000Y-120904000D01*
X155448000Y-133604000D02*
X155448000Y-120904000D01*
X147828000Y-133604000D02*
X155448000Y-133604000D01*
D11*
X147468000Y-122174000D02*
X147468000Y-120544000D01*
X147468000Y-120544000D02*
X149098000Y-120544000D01*
%TO.C,R17*%
X138304000Y-127661641D02*
X138304000Y-127354359D01*
X139064000Y-127661641D02*
X139064000Y-127354359D01*
%TO.C,R14*%
X138304000Y-132995641D02*
X138304000Y-132688359D01*
X139064000Y-132995641D02*
X139064000Y-132688359D01*
%TO.C,R16*%
X138304000Y-125121641D02*
X138304000Y-124814359D01*
X139064000Y-125121641D02*
X139064000Y-124814359D01*
%TO.C,R5*%
X147640000Y-147193641D02*
X147640000Y-146886359D01*
X146880000Y-147193641D02*
X146880000Y-146886359D01*
%TO.C,D6*%
X151865000Y-148043000D02*
X151865000Y-145758000D01*
X150395000Y-145758000D02*
X150395000Y-148043000D01*
X150395000Y-148043000D02*
X151865000Y-148043000D01*
%TO.C,R3*%
X141800000Y-147193641D02*
X141800000Y-146886359D01*
X142560000Y-147193641D02*
X142560000Y-146886359D01*
%TO.C,R22*%
X156084000Y-132487641D02*
X156084000Y-132180359D01*
X156844000Y-132487641D02*
X156844000Y-132180359D01*
%TO.C,D8*%
X155475000Y-148043000D02*
X156945000Y-148043000D01*
X155475000Y-145758000D02*
X155475000Y-148043000D01*
X156945000Y-148043000D02*
X156945000Y-145758000D01*
%TO.C,D2*%
X140235000Y-148043000D02*
X141705000Y-148043000D01*
X140235000Y-145758000D02*
X140235000Y-148043000D01*
X141705000Y-148043000D02*
X141705000Y-145758000D01*
%TO.C,R18*%
X138048000Y-132995641D02*
X138048000Y-132688359D01*
X137288000Y-132995641D02*
X137288000Y-132688359D01*
%TO.C,D3*%
X142775000Y-145758000D02*
X142775000Y-148043000D01*
X142775000Y-148043000D02*
X144245000Y-148043000D01*
X144245000Y-148043000D02*
X144245000Y-145758000D01*
%TO.C,R9*%
X138230000Y-134953641D02*
X138230000Y-134646359D01*
X137470000Y-134953641D02*
X137470000Y-134646359D01*
%TO.C,D7*%
X152935000Y-145758000D02*
X152935000Y-148043000D01*
X152935000Y-148043000D02*
X154405000Y-148043000D01*
X154405000Y-148043000D02*
X154405000Y-145758000D01*
%TO.C,R15*%
X138304000Y-130201641D02*
X138304000Y-129894359D01*
X139064000Y-130201641D02*
X139064000Y-129894359D01*
%TO.C,J2*%
X157480000Y-152316000D02*
X157480000Y-154976000D01*
X140590000Y-160976000D02*
X140590000Y-154976000D01*
X143130000Y-160976000D02*
X143130000Y-154976000D01*
X154050000Y-151918929D02*
X154050000Y-152316000D01*
X156590000Y-151918929D02*
X156590000Y-152316000D01*
X143130000Y-151918929D02*
X143130000Y-152316000D01*
X154940000Y-152316000D02*
X154940000Y-154976000D01*
X144780000Y-152316000D02*
X144780000Y-154976000D01*
X158470000Y-154976000D02*
X158470000Y-160976000D01*
X156590000Y-160976000D02*
X155830000Y-160976000D01*
X136270000Y-151918929D02*
X136270000Y-152316000D01*
X138810000Y-154976000D02*
X138810000Y-160976000D01*
X145670000Y-160976000D02*
X145670000Y-154976000D01*
X148970000Y-154976000D02*
X148970000Y-160976000D01*
X143890000Y-151918929D02*
X143890000Y-152316000D01*
X138050000Y-160976000D02*
X138050000Y-154976000D01*
X148210000Y-151918929D02*
X148210000Y-152316000D01*
X153290000Y-151918929D02*
X153290000Y-152316000D01*
X134560000Y-152316000D02*
X134560000Y-154976000D01*
X150750000Y-160976000D02*
X150750000Y-154976000D01*
X151510000Y-154976000D02*
X151510000Y-160976000D01*
X151510000Y-151918929D02*
X151510000Y-152316000D01*
X158830000Y-154976000D02*
X158830000Y-160976000D01*
X159130000Y-151986000D02*
X159130000Y-152316000D01*
X142240000Y-152316000D02*
X142240000Y-154976000D01*
X138050000Y-151918929D02*
X138050000Y-152316000D01*
X150750000Y-151918929D02*
X150750000Y-152316000D01*
X138810000Y-151918929D02*
X138810000Y-152316000D01*
X160080000Y-152316000D02*
X134560000Y-152316000D01*
X155830000Y-151918929D02*
X155830000Y-152316000D01*
X149860000Y-152316000D02*
X149860000Y-154976000D01*
X137160000Y-152316000D02*
X137160000Y-154976000D01*
X141350000Y-160976000D02*
X140590000Y-160976000D01*
X151510000Y-160976000D02*
X150750000Y-160976000D01*
X145670000Y-151918929D02*
X145670000Y-152316000D01*
X139700000Y-152316000D02*
X139700000Y-154976000D01*
X140590000Y-151918929D02*
X140590000Y-152316000D01*
X136270000Y-154976000D02*
X136270000Y-160976000D01*
X146430000Y-151918929D02*
X146430000Y-152316000D01*
X148970000Y-151918929D02*
X148970000Y-152316000D01*
X160080000Y-154976000D02*
X160080000Y-152316000D01*
X158370000Y-151986000D02*
X158370000Y-152316000D01*
X135510000Y-160976000D02*
X135510000Y-154976000D01*
X148970000Y-160976000D02*
X148210000Y-160976000D01*
X148210000Y-160976000D02*
X148210000Y-154976000D01*
X143890000Y-160976000D02*
X143130000Y-160976000D01*
X141350000Y-154976000D02*
X141350000Y-160976000D01*
X159130000Y-160976000D02*
X158370000Y-160976000D01*
X135510000Y-151918929D02*
X135510000Y-152316000D01*
X153290000Y-160976000D02*
X153290000Y-154976000D01*
X136270000Y-160976000D02*
X135510000Y-160976000D01*
X154050000Y-154976000D02*
X154050000Y-160976000D01*
X158590000Y-154976000D02*
X158590000Y-160976000D01*
X143890000Y-154976000D02*
X143890000Y-160976000D01*
X138810000Y-160976000D02*
X138050000Y-160976000D01*
X158950000Y-154976000D02*
X158950000Y-160976000D01*
X152400000Y-152316000D02*
X152400000Y-154976000D01*
X134560000Y-154976000D02*
X160080000Y-154976000D01*
X158750000Y-149606000D02*
X160020000Y-149606000D01*
X146430000Y-160976000D02*
X145670000Y-160976000D01*
X156590000Y-154976000D02*
X156590000Y-160976000D01*
X155830000Y-160976000D02*
X155830000Y-154976000D01*
X158370000Y-160976000D02*
X158370000Y-154976000D01*
X141350000Y-151918929D02*
X141350000Y-152316000D01*
X159070000Y-154976000D02*
X159070000Y-160976000D01*
X146430000Y-154976000D02*
X146430000Y-160976000D01*
X160020000Y-149606000D02*
X160020000Y-150876000D01*
X147320000Y-152316000D02*
X147320000Y-154976000D01*
X158710000Y-154976000D02*
X158710000Y-160976000D01*
X154050000Y-160976000D02*
X153290000Y-160976000D01*
X159130000Y-154976000D02*
X159130000Y-160976000D01*
%TD*%
M02*
