%TF.GenerationSoftware,KiCad,Pcbnew,(6.0.9)*%
%TF.CreationDate,2022-12-15T20:33:26+01:00*%
%TF.ProjectId,8view,38766965-772e-46b6-9963-61645f706362,rev?*%
%TF.SameCoordinates,Original*%
%TF.FileFunction,Copper,L3,Inr*%
%TF.FilePolarity,Positive*%
%FSLAX46Y46*%
G04 Gerber Fmt 4.6, Leading zero omitted, Abs format (unit mm)*
G04 Created by KiCad (PCBNEW (6.0.9)) date 2022-12-15 20:33:26*
%MOMM*%
%LPD*%
G01*
G04 APERTURE LIST*
%TA.AperFunction,ComponentPad*%
%ADD10R,1.700000X1.700000*%
%TD*%
%TA.AperFunction,ComponentPad*%
%ADD11O,1.700000X1.700000*%
%TD*%
%TA.AperFunction,ComponentPad*%
%ADD12R,1.600000X1.600000*%
%TD*%
%TA.AperFunction,ComponentPad*%
%ADD13C,1.600000*%
%TD*%
%TA.AperFunction,ViaPad*%
%ADD14C,0.800000*%
%TD*%
%TA.AperFunction,Conductor*%
%ADD15C,0.250000*%
%TD*%
G04 APERTURE END LIST*
D10*
%TO.N,/in0*%
%TO.C,J1*%
X138430000Y-118364000D03*
D11*
%TO.N,/in1*%
X140970000Y-118364000D03*
%TO.N,/in2*%
X143510000Y-118364000D03*
%TO.N,/in3*%
X146050000Y-118364000D03*
%TO.N,/in4*%
X148590000Y-118364000D03*
%TO.N,/in5*%
X151130000Y-118364000D03*
%TO.N,/in6*%
X153670000Y-118364000D03*
%TO.N,/in7*%
X156210000Y-118364000D03*
%TD*%
D12*
%TO.N,+5V*%
%TO.C,U2*%
X140788500Y-122174000D03*
D13*
%TO.N,Net-(R16-Pad2)*%
X140788500Y-124714000D03*
%TO.N,Net-(R17-Pad2)*%
X140788500Y-127254000D03*
%TO.N,Net-(R15-Pad2)*%
X140788500Y-129794000D03*
%TO.N,Net-(R14-Pad2)*%
X140788500Y-132334000D03*
%TO.N,+5V*%
X145868500Y-132334000D03*
%TO.N,Net-(R18-Pad2)*%
X145868500Y-129794000D03*
%TO.N,Net-(R13-Pad2)*%
X145868500Y-127254000D03*
%TO.N,Net-(R12-Pad2)*%
X145868500Y-124714000D03*
%TO.N,Net-(R11-Pad2)*%
X145868500Y-122174000D03*
%TD*%
D12*
%TO.N,+5V*%
%TO.C,U3*%
X149098000Y-122174000D03*
D13*
%TO.N,Net-(R24-Pad2)*%
X149098000Y-124714000D03*
%TO.N,Net-(R25-Pad2)*%
X149098000Y-127254000D03*
%TO.N,Net-(R23-Pad2)*%
X149098000Y-129794000D03*
%TO.N,Net-(R22-Pad2)*%
X149098000Y-132334000D03*
%TO.N,+5V*%
X154178000Y-132334000D03*
%TO.N,Net-(R26-Pad2)*%
X154178000Y-129794000D03*
%TO.N,Net-(R21-Pad2)*%
X154178000Y-127254000D03*
%TO.N,Net-(R20-Pad2)*%
X154178000Y-124714000D03*
%TO.N,Net-(R19-Pad2)*%
X154178000Y-122174000D03*
%TD*%
D10*
%TO.N,GND*%
%TO.C,J2*%
X158750000Y-150876000D03*
D11*
%TO.N,/in7*%
X156210000Y-150876000D03*
%TO.N,/in6*%
X153670000Y-150876000D03*
%TO.N,/in5*%
X151130000Y-150876000D03*
%TO.N,/in4*%
X148590000Y-150876000D03*
%TO.N,/in3*%
X146050000Y-150876000D03*
%TO.N,/in2*%
X143510000Y-150876000D03*
%TO.N,/in1*%
X140970000Y-150876000D03*
%TO.N,/in0*%
X138430000Y-150876000D03*
%TO.N,+5V*%
X135890000Y-150876000D03*
%TD*%
D14*
%TO.N,/D1_I8*%
X136633140Y-125671722D03*
X138796106Y-134498107D03*
%TO.N,GND*%
X141154002Y-135950498D03*
%TO.N,/in0*%
X146147700Y-138758772D03*
X137356128Y-146021329D03*
%TO.N,/in1*%
X139640000Y-146030000D03*
%TO.N,/in2*%
X142230000Y-146051201D03*
%TO.N,/in3*%
X144730000Y-146080000D03*
%TO.N,/in4*%
X147300000Y-146020000D03*
%TO.N,/in5*%
X149881701Y-146021701D03*
%TO.N,/in6*%
X152420000Y-146020000D03*
%TO.N,/in7*%
X154951701Y-146031701D03*
%TO.N,+5V*%
X137160000Y-122682000D03*
X142240000Y-143764000D03*
X136894310Y-140199936D03*
X137720500Y-149300000D03*
X141515500Y-133825500D03*
X153924000Y-142240000D03*
X147691299Y-137296701D03*
X137160000Y-148590000D03*
X157988000Y-119380000D03*
X145110000Y-138758772D03*
%TO.N,GND*%
X138176000Y-120650000D03*
X156464000Y-138176000D03*
X151130000Y-149098000D03*
X140970000Y-149098000D03*
X146050000Y-149098000D03*
X157450000Y-149050000D03*
%TO.N,/ISP_MISO*%
X136899888Y-141230112D03*
X141923974Y-138749702D03*
X156040000Y-141320000D03*
%TO.N,/ISP_SCK*%
X136906064Y-142351446D03*
X156206399Y-140288199D03*
X136888925Y-139200448D03*
%TO.N,/ISP_MOSI*%
X141154502Y-136950000D03*
X136885962Y-143350746D03*
X136899898Y-138156328D03*
X157056175Y-139762002D03*
%TO.N,/ISP_RST*%
X136906019Y-137156844D03*
X155512692Y-138934951D03*
X136893452Y-144362999D03*
%TO.N,Net-(R22-Pad2)*%
X155448000Y-131643500D03*
%TO.N,/D1_I1*%
X137531450Y-126109950D03*
X151299635Y-143002000D03*
X143250000Y-143205500D03*
%TO.N,/D1_I2*%
X140959667Y-142221068D03*
X137363731Y-128678247D03*
X150144500Y-140570501D03*
%TO.N,/D1_I3*%
X150368000Y-139045999D03*
X137690526Y-131284874D03*
%TO.N,/D1_I4*%
X139634668Y-133534668D03*
X152989002Y-136572498D03*
%TO.N,/D1_I5*%
X139678455Y-130825500D03*
X152989002Y-138245999D03*
%TO.N,/D1_I6*%
X139541098Y-125348500D03*
X150144500Y-141570004D03*
%TO.N,/D1_I7*%
X152989002Y-139846001D03*
X139446000Y-127762000D03*
%TO.N,/D1_I8*%
X150368000Y-137442467D03*
%TO.N,/D2_I1*%
X157799302Y-125886882D03*
X142760597Y-136039491D03*
%TO.N,/D2_I2*%
X144526000Y-137414597D03*
X155702000Y-125114500D03*
%TO.N,/D2_I3*%
X144460290Y-133932308D03*
X155463900Y-127806330D03*
%TO.N,/D2_I4*%
X146371573Y-133858000D03*
X155448000Y-133503500D03*
%TO.N,/D2_I5*%
X147965483Y-134091619D03*
X157079898Y-133641500D03*
%TO.N,/D2_I6*%
X157799302Y-128426882D03*
X145573999Y-136398000D03*
%TO.N,/D2_I7*%
X150913500Y-134940299D03*
X157754641Y-130959990D03*
%TO.N,/D2_I8*%
X155518972Y-130194500D03*
X148449354Y-136586048D03*
%TD*%
D15*
%TO.N,/D1_I5*%
X141129677Y-140383272D02*
X146949520Y-140383272D01*
X139816000Y-139069595D02*
X141129677Y-140383272D01*
X139816000Y-137909595D02*
X139816000Y-139069595D01*
X139678455Y-130825500D02*
X138140526Y-132363429D01*
X139054000Y-137147595D02*
X139816000Y-137909595D01*
X139054000Y-136144290D02*
X139054000Y-137147595D01*
X138140526Y-132363429D02*
X138140526Y-134159474D01*
X138000000Y-134300000D02*
X138000000Y-135090290D01*
X138140526Y-134159474D02*
X138000000Y-134300000D01*
X138000000Y-135090290D02*
X139054000Y-136144290D01*
X146949520Y-140383272D02*
X149086793Y-138245999D01*
X149086793Y-138245999D02*
X152989002Y-138245999D01*
%TO.N,/D1_I3*%
X137500000Y-135226686D02*
X138604000Y-136330686D01*
X138604000Y-136330686D02*
X138604000Y-137333991D01*
X138604000Y-137333991D02*
X139366000Y-138095991D01*
X137690526Y-131284874D02*
X137500000Y-131475400D01*
X137500000Y-131475400D02*
X137500000Y-135226686D01*
X147146728Y-140833272D02*
X148934001Y-139045999D01*
X139366000Y-138095991D02*
X139366000Y-139255991D01*
X139366000Y-139255991D02*
X140943281Y-140833272D01*
X140943281Y-140833272D02*
X147146728Y-140833272D01*
X148934001Y-139045999D02*
X150368000Y-139045999D01*
%TO.N,/D1_I6*%
X137704000Y-137706783D02*
X137704000Y-136703478D01*
X138466000Y-138468783D02*
X137704000Y-137706783D01*
X138466000Y-139652396D02*
X138466000Y-138468783D01*
X139954000Y-141140396D02*
X138466000Y-139652396D01*
X139954000Y-142494000D02*
X139954000Y-141140396D01*
X140483664Y-143023664D02*
X139954000Y-142494000D01*
X136515526Y-128484474D02*
X139541098Y-125458902D01*
X141456336Y-143023664D02*
X140483664Y-143023664D01*
X142296728Y-142183272D02*
X141456336Y-143023664D01*
X147705916Y-142183272D02*
X142296728Y-142183272D01*
X148443187Y-141446001D02*
X147705916Y-142183272D01*
X139541098Y-125458902D02*
X139541098Y-125348500D01*
X149606001Y-141446001D02*
X148443187Y-141446001D01*
X149730004Y-141570004D02*
X149606001Y-141446001D01*
X150144500Y-141570004D02*
X149730004Y-141570004D01*
X136515526Y-135515004D02*
X136515526Y-128484474D01*
X137704000Y-136703478D02*
X136515526Y-135515004D01*
%TO.N,/D1_I4*%
X139634668Y-133534668D02*
X139991081Y-133891081D01*
X149777502Y-136572498D02*
X152989002Y-136572498D01*
X139991081Y-133891081D02*
X139991081Y-136811884D01*
X139991081Y-136811884D02*
X140716000Y-137536803D01*
X140716000Y-137536803D02*
X140716000Y-138696803D01*
X140716000Y-138696803D02*
X141502469Y-139483272D01*
X141502469Y-139483272D02*
X146576728Y-139483272D01*
X146576728Y-139483272D02*
X149067533Y-136992467D01*
X149067533Y-136992467D02*
X149357533Y-136992467D01*
X149357533Y-136992467D02*
X149777502Y-136572498D01*
%TO.N,/D1_I7*%
X152989002Y-139846001D02*
X148770395Y-139846001D01*
X148770395Y-139846001D02*
X147333124Y-141283272D01*
X147333124Y-141283272D02*
X140756885Y-141283272D01*
X140756885Y-141283272D02*
X138916000Y-139442387D01*
X138916000Y-139442387D02*
X138916000Y-138282387D01*
X138916000Y-138282387D02*
X138154000Y-137520387D01*
X138154000Y-137520387D02*
X138154000Y-136517082D01*
X138154000Y-136517082D02*
X136965526Y-135328608D01*
X136965526Y-135328608D02*
X136965526Y-130242474D01*
X136965526Y-130242474D02*
X139446000Y-127762000D01*
%TO.N,/D1_I8*%
X150368000Y-137442467D02*
X149253929Y-137442467D01*
X149253929Y-137442467D02*
X146763124Y-139933272D01*
X146763124Y-139933272D02*
X141316073Y-139933272D01*
X139504000Y-136961199D02*
X139504000Y-135804000D01*
X141316073Y-139933272D02*
X140266000Y-138883199D01*
X140266000Y-138883199D02*
X140266000Y-137723199D01*
X139504000Y-135804000D02*
X138796106Y-135096106D01*
X140266000Y-137723199D02*
X139504000Y-136961199D01*
X138796106Y-135096106D02*
X138796106Y-134498107D01*
%TO.N,/D1_I1*%
X150667635Y-142370000D02*
X148250000Y-142370000D01*
X147986728Y-142633272D02*
X143822228Y-142633272D01*
X143822228Y-142633272D02*
X143250000Y-143205500D01*
X151299635Y-143002000D02*
X150667635Y-142370000D01*
X148250000Y-142370000D02*
X147986728Y-142633272D01*
%TO.N,/D1_I2*%
X147519520Y-141733272D02*
X148682291Y-140570501D01*
X140959667Y-142221068D02*
X140959667Y-142170333D01*
X141396728Y-141733272D02*
X147519520Y-141733272D01*
X148682291Y-140570501D02*
X150144500Y-140570501D01*
X140959667Y-142170333D02*
X141396728Y-141733272D01*
%TO.N,/D2_I1*%
X157799302Y-123449302D02*
X155360000Y-121010000D01*
X142240000Y-124211509D02*
X142240000Y-135518894D01*
X157799302Y-125886882D02*
X157799302Y-123449302D01*
X145441509Y-121010000D02*
X142240000Y-124211509D01*
X155360000Y-121010000D02*
X145441509Y-121010000D01*
X142240000Y-135518894D02*
X142760597Y-136039491D01*
%TO.N,/D2_I2*%
X144526000Y-136780396D02*
X143280000Y-135534396D01*
X143002000Y-134366000D02*
X143002000Y-125351755D01*
X143280000Y-134644000D02*
X143002000Y-134366000D01*
X143002000Y-125351755D02*
X144913755Y-123440000D01*
X154494991Y-123440000D02*
X155702000Y-124647009D01*
X144526000Y-137414597D02*
X144526000Y-136780396D01*
X143280000Y-135534396D02*
X143280000Y-134644000D01*
X155702000Y-124647009D02*
X155702000Y-125114500D01*
X144913755Y-123440000D02*
X154494991Y-123440000D01*
%TO.N,/D2_I3*%
X145402509Y-128379000D02*
X154891230Y-128379000D01*
X144180000Y-129601509D02*
X145402509Y-128379000D01*
X144460290Y-133932308D02*
X144180000Y-133652018D01*
X154891230Y-128379000D02*
X155463900Y-127806330D01*
X144180000Y-133652018D02*
X144180000Y-129601509D01*
%TO.N,/D2_I4*%
X150876000Y-131064000D02*
X153590000Y-133778000D01*
X145266000Y-131064000D02*
X150876000Y-131064000D01*
X144690000Y-133006000D02*
X144690000Y-131640000D01*
X145542000Y-133858000D02*
X144690000Y-133006000D01*
X155173500Y-133778000D02*
X155448000Y-133503500D01*
X144690000Y-131640000D02*
X145266000Y-131064000D01*
X153590000Y-133778000D02*
X155173500Y-133778000D01*
X146371573Y-133858000D02*
X145542000Y-133858000D01*
%TO.N,/D2_I5*%
X147965483Y-134091619D02*
X147968381Y-134091619D01*
X156814000Y-134366000D02*
X157079898Y-134100102D01*
X157079898Y-134100102D02*
X157079898Y-133641500D01*
X152256000Y-133460000D02*
X153162000Y-134366000D01*
X153162000Y-134366000D02*
X156814000Y-134366000D01*
X148600000Y-133460000D02*
X152256000Y-133460000D01*
X147968381Y-134091619D02*
X148600000Y-133460000D01*
%TO.N,/D2_I6*%
X150499000Y-125839000D02*
X150354000Y-125984000D01*
X156065000Y-125839000D02*
X150499000Y-125839000D01*
X157799302Y-128426882D02*
X157799302Y-127573302D01*
X145257509Y-125984000D02*
X143510000Y-127731509D01*
X143730000Y-134457604D02*
X143730000Y-135348000D01*
X157799302Y-127573302D02*
X156065000Y-125839000D01*
X143510000Y-127731509D02*
X143510000Y-134237604D01*
X150354000Y-125984000D02*
X145257509Y-125984000D01*
X143510000Y-134237604D02*
X143730000Y-134457604D01*
X144780000Y-136398000D02*
X145573999Y-136398000D01*
X143730000Y-135348000D02*
X144780000Y-136398000D01*
%TO.N,/D2_I7*%
X158254898Y-134735498D02*
X157354396Y-135636000D01*
X157754641Y-132100641D02*
X158254898Y-132600898D01*
X157354396Y-135636000D02*
X151609201Y-135636000D01*
X157754641Y-130959990D02*
X157754641Y-132100641D01*
X151609201Y-135636000D02*
X150913500Y-134940299D01*
X158254898Y-132600898D02*
X158254898Y-134735498D01*
%TO.N,/D2_I8*%
X157226000Y-135128000D02*
X157804898Y-134549102D01*
X157804898Y-134549102D02*
X157804898Y-132912898D01*
X148818000Y-134112000D02*
X151638000Y-134112000D01*
X151638000Y-134112000D02*
X152654000Y-135128000D01*
X148690483Y-136344919D02*
X148690483Y-134239517D01*
X155518972Y-130626972D02*
X155518972Y-130194500D01*
X148449354Y-136586048D02*
X148690483Y-136344919D01*
X157804898Y-132912898D02*
X155518972Y-130626972D01*
X148690483Y-134239517D02*
X148818000Y-134112000D01*
X152654000Y-135128000D02*
X157226000Y-135128000D01*
%TD*%
%TA.AperFunction,Conductor*%
%TO.N,+5V*%
G36*
X158667532Y-135322934D02*
G01*
X158724368Y-135365481D01*
X158749179Y-135432001D01*
X158749500Y-135440990D01*
X158749500Y-147016633D01*
X158748000Y-147036018D01*
X158745690Y-147050851D01*
X158745690Y-147050855D01*
X158744309Y-147059724D01*
X158745473Y-147068626D01*
X158745473Y-147068629D01*
X158745701Y-147070369D01*
X158746444Y-147077717D01*
X158761163Y-147283513D01*
X158762121Y-147287917D01*
X158793667Y-147432929D01*
X158807517Y-147496598D01*
X158809090Y-147500815D01*
X158809091Y-147500819D01*
X158835445Y-147571477D01*
X158883724Y-147700918D01*
X158988233Y-147892312D01*
X159118917Y-148066885D01*
X159221095Y-148169063D01*
X159255121Y-148231375D01*
X159258000Y-148258158D01*
X159258000Y-149391500D01*
X159237998Y-149459621D01*
X159184342Y-149506114D01*
X159132000Y-149517500D01*
X158426777Y-149517500D01*
X158358656Y-149497498D01*
X158312163Y-149443842D01*
X158302059Y-149373568D01*
X158306944Y-149352564D01*
X158341502Y-149246206D01*
X158341503Y-149246203D01*
X158343542Y-149239928D01*
X158363504Y-149050000D01*
X158343542Y-148860072D01*
X158284527Y-148678444D01*
X158189040Y-148513056D01*
X158061253Y-148371134D01*
X157906752Y-148258882D01*
X157900724Y-148256198D01*
X157900722Y-148256197D01*
X157738319Y-148183891D01*
X157738318Y-148183891D01*
X157732288Y-148181206D01*
X157638887Y-148161353D01*
X157551944Y-148142872D01*
X157551939Y-148142872D01*
X157545487Y-148141500D01*
X157354513Y-148141500D01*
X157348061Y-148142872D01*
X157348056Y-148142872D01*
X157261113Y-148161353D01*
X157167712Y-148181206D01*
X157161682Y-148183891D01*
X157161681Y-148183891D01*
X156999278Y-148256197D01*
X156999276Y-148256198D01*
X156993248Y-148258882D01*
X156838747Y-148371134D01*
X156710960Y-148513056D01*
X156615473Y-148678444D01*
X156556458Y-148860072D01*
X156536496Y-149050000D01*
X156556458Y-149239928D01*
X156601143Y-149377453D01*
X156603171Y-149448419D01*
X156566508Y-149509217D01*
X156502796Y-149540542D01*
X156459215Y-149540435D01*
X156429831Y-149535201D01*
X156343373Y-149519800D01*
X156343367Y-149519799D01*
X156338284Y-149518894D01*
X156264452Y-149517992D01*
X156120081Y-149516228D01*
X156120079Y-149516228D01*
X156114911Y-149516165D01*
X155894091Y-149549955D01*
X155681756Y-149619357D01*
X155646160Y-149637887D01*
X155509919Y-149708810D01*
X155483607Y-149722507D01*
X155479474Y-149725610D01*
X155479471Y-149725612D01*
X155457606Y-149742029D01*
X155304965Y-149856635D01*
X155150629Y-150018138D01*
X155043201Y-150175621D01*
X154988293Y-150220621D01*
X154917768Y-150228792D01*
X154854021Y-150197538D01*
X154833324Y-150173054D01*
X154752822Y-150048617D01*
X154752820Y-150048614D01*
X154750014Y-150044277D01*
X154599670Y-149879051D01*
X154595619Y-149875852D01*
X154595615Y-149875848D01*
X154428414Y-149743800D01*
X154428410Y-149743798D01*
X154424359Y-149740598D01*
X154228789Y-149632638D01*
X154223920Y-149630914D01*
X154223916Y-149630912D01*
X154023087Y-149559795D01*
X154023083Y-149559794D01*
X154018212Y-149558069D01*
X154013119Y-149557162D01*
X154013116Y-149557161D01*
X153803373Y-149519800D01*
X153803367Y-149519799D01*
X153798284Y-149518894D01*
X153724452Y-149517992D01*
X153580081Y-149516228D01*
X153580079Y-149516228D01*
X153574911Y-149516165D01*
X153354091Y-149549955D01*
X153141756Y-149619357D01*
X153106160Y-149637887D01*
X152969919Y-149708810D01*
X152943607Y-149722507D01*
X152939474Y-149725610D01*
X152939471Y-149725612D01*
X152917606Y-149742029D01*
X152764965Y-149856635D01*
X152610629Y-150018138D01*
X152503201Y-150175621D01*
X152448293Y-150220621D01*
X152377768Y-150228792D01*
X152314021Y-150197538D01*
X152293324Y-150173054D01*
X152212822Y-150048617D01*
X152212820Y-150048614D01*
X152210014Y-150044277D01*
X152059670Y-149879051D01*
X152055619Y-149875852D01*
X152055615Y-149875848D01*
X151917444Y-149766727D01*
X151876381Y-149708810D01*
X151873149Y-149637887D01*
X151886414Y-149604851D01*
X151964527Y-149469556D01*
X152023542Y-149287928D01*
X152027928Y-149246203D01*
X152042814Y-149104565D01*
X152043504Y-149098000D01*
X152023542Y-148908072D01*
X151964527Y-148726444D01*
X151955193Y-148710276D01*
X151894854Y-148605767D01*
X151869040Y-148561056D01*
X151821402Y-148508148D01*
X151745675Y-148424045D01*
X151745674Y-148424044D01*
X151741253Y-148419134D01*
X151610409Y-148324070D01*
X151592094Y-148310763D01*
X151592093Y-148310762D01*
X151586752Y-148306882D01*
X151580724Y-148304198D01*
X151580722Y-148304197D01*
X151418319Y-148231891D01*
X151418318Y-148231891D01*
X151412288Y-148229206D01*
X151318887Y-148209353D01*
X151231944Y-148190872D01*
X151231939Y-148190872D01*
X151225487Y-148189500D01*
X151034513Y-148189500D01*
X151028061Y-148190872D01*
X151028056Y-148190872D01*
X150941113Y-148209353D01*
X150847712Y-148229206D01*
X150841682Y-148231891D01*
X150841681Y-148231891D01*
X150679278Y-148304197D01*
X150679276Y-148304198D01*
X150673248Y-148306882D01*
X150667907Y-148310762D01*
X150667906Y-148310763D01*
X150649591Y-148324070D01*
X150518747Y-148419134D01*
X150514326Y-148424044D01*
X150514325Y-148424045D01*
X150438599Y-148508148D01*
X150390960Y-148561056D01*
X150365146Y-148605767D01*
X150304808Y-148710276D01*
X150295473Y-148726444D01*
X150236458Y-148908072D01*
X150216496Y-149098000D01*
X150217186Y-149104565D01*
X150232073Y-149246203D01*
X150236458Y-149287928D01*
X150295473Y-149469556D01*
X150298776Y-149475278D01*
X150298777Y-149475279D01*
X150374215Y-149605942D01*
X150390953Y-149674938D01*
X150367732Y-149742029D01*
X150340749Y-149769702D01*
X150224965Y-149856635D01*
X150070629Y-150018138D01*
X149963201Y-150175621D01*
X149908293Y-150220621D01*
X149837768Y-150228792D01*
X149774021Y-150197538D01*
X149753324Y-150173054D01*
X149672822Y-150048617D01*
X149672820Y-150048614D01*
X149670014Y-150044277D01*
X149519670Y-149879051D01*
X149515619Y-149875852D01*
X149515615Y-149875848D01*
X149348414Y-149743800D01*
X149348410Y-149743798D01*
X149344359Y-149740598D01*
X149148789Y-149632638D01*
X149143920Y-149630914D01*
X149143916Y-149630912D01*
X148943087Y-149559795D01*
X148943083Y-149559794D01*
X148938212Y-149558069D01*
X148933119Y-149557162D01*
X148933116Y-149557161D01*
X148723373Y-149519800D01*
X148723367Y-149519799D01*
X148718284Y-149518894D01*
X148644452Y-149517992D01*
X148500081Y-149516228D01*
X148500079Y-149516228D01*
X148494911Y-149516165D01*
X148274091Y-149549955D01*
X148061756Y-149619357D01*
X148026160Y-149637887D01*
X147889919Y-149708810D01*
X147863607Y-149722507D01*
X147859474Y-149725610D01*
X147859471Y-149725612D01*
X147837606Y-149742029D01*
X147684965Y-149856635D01*
X147530629Y-150018138D01*
X147423201Y-150175621D01*
X147368293Y-150220621D01*
X147297768Y-150228792D01*
X147234021Y-150197538D01*
X147213324Y-150173054D01*
X147132822Y-150048617D01*
X147132820Y-150048614D01*
X147130014Y-150044277D01*
X146979670Y-149879051D01*
X146975619Y-149875852D01*
X146975615Y-149875848D01*
X146837444Y-149766727D01*
X146796381Y-149708810D01*
X146793149Y-149637887D01*
X146806414Y-149604851D01*
X146884527Y-149469556D01*
X146943542Y-149287928D01*
X146947928Y-149246203D01*
X146962814Y-149104565D01*
X146963504Y-149098000D01*
X146943542Y-148908072D01*
X146884527Y-148726444D01*
X146875193Y-148710276D01*
X146814854Y-148605767D01*
X146789040Y-148561056D01*
X146741402Y-148508148D01*
X146665675Y-148424045D01*
X146665674Y-148424044D01*
X146661253Y-148419134D01*
X146530409Y-148324070D01*
X146512094Y-148310763D01*
X146512093Y-148310762D01*
X146506752Y-148306882D01*
X146500724Y-148304198D01*
X146500722Y-148304197D01*
X146338319Y-148231891D01*
X146338318Y-148231891D01*
X146332288Y-148229206D01*
X146238887Y-148209353D01*
X146151944Y-148190872D01*
X146151939Y-148190872D01*
X146145487Y-148189500D01*
X145954513Y-148189500D01*
X145948061Y-148190872D01*
X145948056Y-148190872D01*
X145861113Y-148209353D01*
X145767712Y-148229206D01*
X145761682Y-148231891D01*
X145761681Y-148231891D01*
X145599278Y-148304197D01*
X145599276Y-148304198D01*
X145593248Y-148306882D01*
X145587907Y-148310762D01*
X145587906Y-148310763D01*
X145569591Y-148324070D01*
X145438747Y-148419134D01*
X145434326Y-148424044D01*
X145434325Y-148424045D01*
X145358599Y-148508148D01*
X145310960Y-148561056D01*
X145285146Y-148605767D01*
X145224808Y-148710276D01*
X145215473Y-148726444D01*
X145156458Y-148908072D01*
X145136496Y-149098000D01*
X145137186Y-149104565D01*
X145152073Y-149246203D01*
X145156458Y-149287928D01*
X145215473Y-149469556D01*
X145218776Y-149475278D01*
X145218777Y-149475279D01*
X145294215Y-149605942D01*
X145310953Y-149674938D01*
X145287732Y-149742029D01*
X145260749Y-149769702D01*
X145144965Y-149856635D01*
X144990629Y-150018138D01*
X144883201Y-150175621D01*
X144828293Y-150220621D01*
X144757768Y-150228792D01*
X144694021Y-150197538D01*
X144673324Y-150173054D01*
X144592822Y-150048617D01*
X144592820Y-150048614D01*
X144590014Y-150044277D01*
X144439670Y-149879051D01*
X144435619Y-149875852D01*
X144435615Y-149875848D01*
X144268414Y-149743800D01*
X144268410Y-149743798D01*
X144264359Y-149740598D01*
X144068789Y-149632638D01*
X144063920Y-149630914D01*
X144063916Y-149630912D01*
X143863087Y-149559795D01*
X143863083Y-149559794D01*
X143858212Y-149558069D01*
X143853119Y-149557162D01*
X143853116Y-149557161D01*
X143643373Y-149519800D01*
X143643367Y-149519799D01*
X143638284Y-149518894D01*
X143564452Y-149517992D01*
X143420081Y-149516228D01*
X143420079Y-149516228D01*
X143414911Y-149516165D01*
X143194091Y-149549955D01*
X142981756Y-149619357D01*
X142946160Y-149637887D01*
X142809919Y-149708810D01*
X142783607Y-149722507D01*
X142779474Y-149725610D01*
X142779471Y-149725612D01*
X142757606Y-149742029D01*
X142604965Y-149856635D01*
X142450629Y-150018138D01*
X142343201Y-150175621D01*
X142288293Y-150220621D01*
X142217768Y-150228792D01*
X142154021Y-150197538D01*
X142133324Y-150173054D01*
X142052822Y-150048617D01*
X142052820Y-150048614D01*
X142050014Y-150044277D01*
X141899670Y-149879051D01*
X141895619Y-149875852D01*
X141895615Y-149875848D01*
X141757444Y-149766727D01*
X141716381Y-149708810D01*
X141713149Y-149637887D01*
X141726414Y-149604851D01*
X141804527Y-149469556D01*
X141863542Y-149287928D01*
X141867928Y-149246203D01*
X141882814Y-149104565D01*
X141883504Y-149098000D01*
X141863542Y-148908072D01*
X141804527Y-148726444D01*
X141795193Y-148710276D01*
X141734854Y-148605767D01*
X141709040Y-148561056D01*
X141661402Y-148508148D01*
X141585675Y-148424045D01*
X141585674Y-148424044D01*
X141581253Y-148419134D01*
X141450409Y-148324070D01*
X141432094Y-148310763D01*
X141432093Y-148310762D01*
X141426752Y-148306882D01*
X141420724Y-148304198D01*
X141420722Y-148304197D01*
X141258319Y-148231891D01*
X141258318Y-148231891D01*
X141252288Y-148229206D01*
X141158887Y-148209353D01*
X141071944Y-148190872D01*
X141071939Y-148190872D01*
X141065487Y-148189500D01*
X140874513Y-148189500D01*
X140868061Y-148190872D01*
X140868056Y-148190872D01*
X140781113Y-148209353D01*
X140687712Y-148229206D01*
X140681682Y-148231891D01*
X140681681Y-148231891D01*
X140519278Y-148304197D01*
X140519276Y-148304198D01*
X140513248Y-148306882D01*
X140507907Y-148310762D01*
X140507906Y-148310763D01*
X140489591Y-148324070D01*
X140358747Y-148419134D01*
X140354326Y-148424044D01*
X140354325Y-148424045D01*
X140278599Y-148508148D01*
X140230960Y-148561056D01*
X140205146Y-148605767D01*
X140144808Y-148710276D01*
X140135473Y-148726444D01*
X140076458Y-148908072D01*
X140056496Y-149098000D01*
X140057186Y-149104565D01*
X140072073Y-149246203D01*
X140076458Y-149287928D01*
X140135473Y-149469556D01*
X140138776Y-149475278D01*
X140138777Y-149475279D01*
X140214215Y-149605942D01*
X140230953Y-149674938D01*
X140207732Y-149742029D01*
X140180749Y-149769702D01*
X140064965Y-149856635D01*
X139910629Y-150018138D01*
X139803201Y-150175621D01*
X139748293Y-150220621D01*
X139677768Y-150228792D01*
X139614021Y-150197538D01*
X139593324Y-150173054D01*
X139512822Y-150048617D01*
X139512820Y-150048614D01*
X139510014Y-150044277D01*
X139359670Y-149879051D01*
X139355619Y-149875852D01*
X139355615Y-149875848D01*
X139188414Y-149743800D01*
X139188410Y-149743798D01*
X139184359Y-149740598D01*
X138988789Y-149632638D01*
X138983920Y-149630914D01*
X138983916Y-149630912D01*
X138783087Y-149559795D01*
X138783083Y-149559794D01*
X138778212Y-149558069D01*
X138773119Y-149557162D01*
X138773116Y-149557161D01*
X138563373Y-149519800D01*
X138563367Y-149519799D01*
X138558284Y-149518894D01*
X138484452Y-149517992D01*
X138340081Y-149516228D01*
X138340079Y-149516228D01*
X138334911Y-149516165D01*
X138114091Y-149549955D01*
X137901756Y-149619357D01*
X137866160Y-149637887D01*
X137729919Y-149708810D01*
X137703607Y-149722507D01*
X137699474Y-149725610D01*
X137699471Y-149725612D01*
X137677606Y-149742029D01*
X137524965Y-149856635D01*
X137370629Y-150018138D01*
X137263204Y-150175618D01*
X137262898Y-150176066D01*
X137207987Y-150221069D01*
X137137462Y-150229240D01*
X137073715Y-150197986D01*
X137053018Y-150173502D01*
X136972426Y-150048926D01*
X136966136Y-150040757D01*
X136822806Y-149883240D01*
X136815273Y-149876215D01*
X136648139Y-149744222D01*
X136639552Y-149738517D01*
X136453117Y-149635599D01*
X136443705Y-149631369D01*
X136242959Y-149560280D01*
X136232988Y-149557646D01*
X136161837Y-149544972D01*
X136148540Y-149546432D01*
X136144000Y-149560989D01*
X136144000Y-151004000D01*
X136123998Y-151072121D01*
X136070342Y-151118614D01*
X136018000Y-151130000D01*
X135762000Y-151130000D01*
X135693879Y-151109998D01*
X135647386Y-151056342D01*
X135636000Y-151004000D01*
X135636000Y-149559102D01*
X135632082Y-149545758D01*
X135617805Y-149543771D01*
X135581059Y-149549394D01*
X135510696Y-149539926D01*
X135456622Y-149493921D01*
X135436000Y-149424844D01*
X135436000Y-148458158D01*
X135456002Y-148390037D01*
X135472905Y-148369063D01*
X135521083Y-148320885D01*
X135651767Y-148146312D01*
X135756276Y-147954918D01*
X135779627Y-147892312D01*
X135830909Y-147754819D01*
X135830910Y-147754815D01*
X135832483Y-147750598D01*
X135843291Y-147700918D01*
X135877879Y-147541917D01*
X135878837Y-147537513D01*
X135891530Y-147360041D01*
X135892953Y-147348143D01*
X135895576Y-147332552D01*
X135895729Y-147320000D01*
X135891773Y-147292376D01*
X135890500Y-147274514D01*
X135890500Y-144913072D01*
X135910502Y-144844951D01*
X135964158Y-144798458D01*
X136034432Y-144788354D01*
X136099012Y-144817848D01*
X136125619Y-144850072D01*
X136154412Y-144899943D01*
X136282199Y-145041865D01*
X136378043Y-145111500D01*
X136422876Y-145144073D01*
X136436700Y-145154117D01*
X136442728Y-145156801D01*
X136442730Y-145156802D01*
X136605135Y-145229109D01*
X136605137Y-145229110D01*
X136608971Y-145230817D01*
X136608973Y-145230818D01*
X136611164Y-145231793D01*
X136610986Y-145232194D01*
X136666291Y-145270014D01*
X136693926Y-145335411D01*
X136681817Y-145405367D01*
X136662386Y-145434076D01*
X136617088Y-145484385D01*
X136521601Y-145649773D01*
X136462586Y-145831401D01*
X136461896Y-145837962D01*
X136461896Y-145837964D01*
X136455730Y-145896635D01*
X136442624Y-146021329D01*
X136443314Y-146027894D01*
X136461757Y-146203365D01*
X136462586Y-146211257D01*
X136521601Y-146392885D01*
X136617088Y-146558273D01*
X136621506Y-146563180D01*
X136621507Y-146563181D01*
X136674335Y-146621852D01*
X136744875Y-146700195D01*
X136899376Y-146812447D01*
X136905404Y-146815131D01*
X136905406Y-146815132D01*
X137064824Y-146886109D01*
X137073840Y-146890123D01*
X137167241Y-146909976D01*
X137254184Y-146928457D01*
X137254189Y-146928457D01*
X137260641Y-146929829D01*
X137451615Y-146929829D01*
X137458067Y-146928457D01*
X137458072Y-146928457D01*
X137545015Y-146909976D01*
X137638416Y-146890123D01*
X137647432Y-146886109D01*
X137806850Y-146815132D01*
X137806852Y-146815131D01*
X137812880Y-146812447D01*
X137967381Y-146700195D01*
X138037921Y-146621852D01*
X138090749Y-146563181D01*
X138090750Y-146563180D01*
X138095168Y-146558273D01*
X138190655Y-146392885D01*
X138249670Y-146211257D01*
X138250500Y-146203365D01*
X138268721Y-146030000D01*
X138726496Y-146030000D01*
X138727186Y-146036565D01*
X138745547Y-146211257D01*
X138746458Y-146219928D01*
X138805473Y-146401556D01*
X138808776Y-146407278D01*
X138808777Y-146407279D01*
X138830712Y-146445271D01*
X138900960Y-146566944D01*
X138905378Y-146571851D01*
X138905379Y-146571852D01*
X139023239Y-146702749D01*
X139028747Y-146708866D01*
X139097566Y-146758866D01*
X139164143Y-146807237D01*
X139183248Y-146821118D01*
X139189276Y-146823802D01*
X139189278Y-146823803D01*
X139351681Y-146896109D01*
X139357712Y-146898794D01*
X139451112Y-146918647D01*
X139538056Y-146937128D01*
X139538061Y-146937128D01*
X139544513Y-146938500D01*
X139735487Y-146938500D01*
X139741939Y-146937128D01*
X139741944Y-146937128D01*
X139828888Y-146918647D01*
X139922288Y-146898794D01*
X139928319Y-146896109D01*
X140090722Y-146823803D01*
X140090724Y-146823802D01*
X140096752Y-146821118D01*
X140115858Y-146807237D01*
X140182434Y-146758866D01*
X140251253Y-146708866D01*
X140256761Y-146702749D01*
X140374621Y-146571852D01*
X140374622Y-146571851D01*
X140379040Y-146566944D01*
X140449288Y-146445271D01*
X140471223Y-146407279D01*
X140471224Y-146407278D01*
X140474527Y-146401556D01*
X140533542Y-146219928D01*
X140534454Y-146211257D01*
X140551276Y-146051201D01*
X141316496Y-146051201D01*
X141317186Y-146057766D01*
X141334890Y-146226206D01*
X141336458Y-146241129D01*
X141395473Y-146422757D01*
X141490960Y-146588145D01*
X141495378Y-146593052D01*
X141495379Y-146593053D01*
X141601189Y-146710567D01*
X141618747Y-146730067D01*
X141663730Y-146762749D01*
X141746409Y-146822819D01*
X141773248Y-146842319D01*
X141779276Y-146845003D01*
X141779278Y-146845004D01*
X141941681Y-146917310D01*
X141947712Y-146919995D01*
X142028316Y-146937128D01*
X142128056Y-146958329D01*
X142128061Y-146958329D01*
X142134513Y-146959701D01*
X142325487Y-146959701D01*
X142331939Y-146958329D01*
X142331944Y-146958329D01*
X142431684Y-146937128D01*
X142512288Y-146919995D01*
X142518319Y-146917310D01*
X142680722Y-146845004D01*
X142680724Y-146845003D01*
X142686752Y-146842319D01*
X142713592Y-146822819D01*
X142796270Y-146762749D01*
X142841253Y-146730067D01*
X142858811Y-146710567D01*
X142964621Y-146593053D01*
X142964622Y-146593052D01*
X142969040Y-146588145D01*
X143064527Y-146422757D01*
X143123542Y-146241129D01*
X143125111Y-146226206D01*
X143140477Y-146080000D01*
X143816496Y-146080000D01*
X143817186Y-146086565D01*
X143831382Y-146221629D01*
X143836458Y-146269928D01*
X143895473Y-146451556D01*
X143990960Y-146616944D01*
X143995378Y-146621851D01*
X143995379Y-146621852D01*
X144114325Y-146753955D01*
X144118747Y-146758866D01*
X144273248Y-146871118D01*
X144279276Y-146873802D01*
X144279278Y-146873803D01*
X144441681Y-146946109D01*
X144447712Y-146948794D01*
X144541113Y-146968647D01*
X144628056Y-146987128D01*
X144628061Y-146987128D01*
X144634513Y-146988500D01*
X144825487Y-146988500D01*
X144831939Y-146987128D01*
X144831944Y-146987128D01*
X144918887Y-146968647D01*
X145012288Y-146948794D01*
X145018319Y-146946109D01*
X145180722Y-146873803D01*
X145180724Y-146873802D01*
X145186752Y-146871118D01*
X145341253Y-146758866D01*
X145345675Y-146753955D01*
X145464621Y-146621852D01*
X145464622Y-146621851D01*
X145469040Y-146616944D01*
X145564527Y-146451556D01*
X145623542Y-146269928D01*
X145628619Y-146221629D01*
X145642814Y-146086565D01*
X145643504Y-146080000D01*
X145637198Y-146020000D01*
X146386496Y-146020000D01*
X146406458Y-146209928D01*
X146465473Y-146391556D01*
X146468776Y-146397278D01*
X146468777Y-146397279D01*
X146474551Y-146407279D01*
X146560960Y-146556944D01*
X146565378Y-146561851D01*
X146565379Y-146561852D01*
X146609836Y-146611226D01*
X146688747Y-146698866D01*
X146843248Y-146811118D01*
X146849276Y-146813802D01*
X146849278Y-146813803D01*
X146984041Y-146873803D01*
X147017712Y-146888794D01*
X147111113Y-146908647D01*
X147198056Y-146927128D01*
X147198061Y-146927128D01*
X147204513Y-146928500D01*
X147395487Y-146928500D01*
X147401939Y-146927128D01*
X147401944Y-146927128D01*
X147488887Y-146908647D01*
X147582288Y-146888794D01*
X147615959Y-146873803D01*
X147750722Y-146813803D01*
X147750724Y-146813802D01*
X147756752Y-146811118D01*
X147911253Y-146698866D01*
X147990164Y-146611226D01*
X148034621Y-146561852D01*
X148034622Y-146561851D01*
X148039040Y-146556944D01*
X148125449Y-146407279D01*
X148131223Y-146397279D01*
X148131224Y-146397278D01*
X148134527Y-146391556D01*
X148193542Y-146209928D01*
X148213325Y-146021701D01*
X148968197Y-146021701D01*
X148988159Y-146211629D01*
X149047174Y-146393257D01*
X149050477Y-146398979D01*
X149050478Y-146398980D01*
X149056252Y-146408980D01*
X149142661Y-146558645D01*
X149147079Y-146563552D01*
X149147080Y-146563553D01*
X149265691Y-146695284D01*
X149270448Y-146700567D01*
X149424949Y-146812819D01*
X149430977Y-146815503D01*
X149430979Y-146815504D01*
X149593382Y-146887810D01*
X149599413Y-146890495D01*
X149692814Y-146910348D01*
X149779757Y-146928829D01*
X149779762Y-146928829D01*
X149786214Y-146930201D01*
X149977188Y-146930201D01*
X149983640Y-146928829D01*
X149983645Y-146928829D01*
X150070588Y-146910348D01*
X150163989Y-146890495D01*
X150170020Y-146887810D01*
X150332423Y-146815504D01*
X150332425Y-146815503D01*
X150338453Y-146812819D01*
X150492954Y-146700567D01*
X150497711Y-146695284D01*
X150616322Y-146563553D01*
X150616323Y-146563552D01*
X150620741Y-146558645D01*
X150707150Y-146408980D01*
X150712924Y-146398980D01*
X150712925Y-146398979D01*
X150716228Y-146393257D01*
X150775243Y-146211629D01*
X150795205Y-146021701D01*
X150795026Y-146020000D01*
X151506496Y-146020000D01*
X151526458Y-146209928D01*
X151585473Y-146391556D01*
X151588776Y-146397278D01*
X151588777Y-146397279D01*
X151594551Y-146407279D01*
X151680960Y-146556944D01*
X151685378Y-146561851D01*
X151685379Y-146561852D01*
X151729836Y-146611226D01*
X151808747Y-146698866D01*
X151963248Y-146811118D01*
X151969276Y-146813802D01*
X151969278Y-146813803D01*
X152104041Y-146873803D01*
X152137712Y-146888794D01*
X152231113Y-146908647D01*
X152318056Y-146927128D01*
X152318061Y-146927128D01*
X152324513Y-146928500D01*
X152515487Y-146928500D01*
X152521939Y-146927128D01*
X152521944Y-146927128D01*
X152608887Y-146908647D01*
X152702288Y-146888794D01*
X152735959Y-146873803D01*
X152870722Y-146813803D01*
X152870724Y-146813802D01*
X152876752Y-146811118D01*
X153031253Y-146698866D01*
X153110164Y-146611226D01*
X153154621Y-146561852D01*
X153154622Y-146561851D01*
X153159040Y-146556944D01*
X153245449Y-146407279D01*
X153251223Y-146397279D01*
X153251224Y-146397278D01*
X153254527Y-146391556D01*
X153313542Y-146209928D01*
X153332274Y-146031701D01*
X154038197Y-146031701D01*
X154038887Y-146038266D01*
X154040937Y-146057766D01*
X154058159Y-146221629D01*
X154117174Y-146403257D01*
X154120477Y-146408979D01*
X154120478Y-146408980D01*
X154141431Y-146445271D01*
X154212661Y-146568645D01*
X154217079Y-146573552D01*
X154217080Y-146573553D01*
X154334605Y-146704078D01*
X154340448Y-146710567D01*
X154372632Y-146733950D01*
X154482540Y-146813803D01*
X154494949Y-146822819D01*
X154500977Y-146825503D01*
X154500979Y-146825504D01*
X154663382Y-146897810D01*
X154669413Y-146900495D01*
X154748521Y-146917310D01*
X154849757Y-146938829D01*
X154849762Y-146938829D01*
X154856214Y-146940201D01*
X155047188Y-146940201D01*
X155053640Y-146938829D01*
X155053645Y-146938829D01*
X155154881Y-146917310D01*
X155233989Y-146900495D01*
X155240020Y-146897810D01*
X155402423Y-146825504D01*
X155402425Y-146825503D01*
X155408453Y-146822819D01*
X155420863Y-146813803D01*
X155530770Y-146733950D01*
X155562954Y-146710567D01*
X155568797Y-146704078D01*
X155686322Y-146573553D01*
X155686323Y-146573552D01*
X155690741Y-146568645D01*
X155761971Y-146445271D01*
X155782924Y-146408980D01*
X155782925Y-146408979D01*
X155786228Y-146403257D01*
X155845243Y-146221629D01*
X155862466Y-146057766D01*
X155864515Y-146038266D01*
X155865205Y-146031701D01*
X155851009Y-145896635D01*
X155845933Y-145848336D01*
X155845933Y-145848334D01*
X155845243Y-145841773D01*
X155786228Y-145660145D01*
X155780455Y-145650145D01*
X155715793Y-145538148D01*
X155690741Y-145494757D01*
X155680206Y-145483056D01*
X155567376Y-145357746D01*
X155567375Y-145357745D01*
X155562954Y-145352835D01*
X155440634Y-145263964D01*
X155413795Y-145244464D01*
X155413794Y-145244463D01*
X155408453Y-145240583D01*
X155402425Y-145237899D01*
X155402423Y-145237898D01*
X155240020Y-145165592D01*
X155240019Y-145165592D01*
X155233989Y-145162907D01*
X155138928Y-145142701D01*
X155053645Y-145124573D01*
X155053640Y-145124573D01*
X155047188Y-145123201D01*
X154856214Y-145123201D01*
X154849762Y-145124573D01*
X154849757Y-145124573D01*
X154764474Y-145142701D01*
X154669413Y-145162907D01*
X154663383Y-145165592D01*
X154663382Y-145165592D01*
X154500979Y-145237898D01*
X154500977Y-145237899D01*
X154494949Y-145240583D01*
X154489608Y-145244463D01*
X154489607Y-145244464D01*
X154462768Y-145263964D01*
X154340448Y-145352835D01*
X154336027Y-145357745D01*
X154336026Y-145357746D01*
X154223197Y-145483056D01*
X154212661Y-145494757D01*
X154187609Y-145538148D01*
X154122948Y-145650145D01*
X154117174Y-145660145D01*
X154058159Y-145841773D01*
X154057469Y-145848334D01*
X154057469Y-145848336D01*
X154052393Y-145896635D01*
X154038197Y-146031701D01*
X153332274Y-146031701D01*
X153333504Y-146020000D01*
X153316821Y-145861273D01*
X153314232Y-145836635D01*
X153314232Y-145836633D01*
X153313542Y-145830072D01*
X153254527Y-145648444D01*
X153159040Y-145483056D01*
X153059347Y-145372335D01*
X153035675Y-145346045D01*
X153035674Y-145346044D01*
X153031253Y-145341134D01*
X152898199Y-145244464D01*
X152882094Y-145232763D01*
X152882093Y-145232762D01*
X152876752Y-145228882D01*
X152870724Y-145226198D01*
X152870722Y-145226197D01*
X152708319Y-145153891D01*
X152708318Y-145153891D01*
X152702288Y-145151206D01*
X152608887Y-145131353D01*
X152521944Y-145112872D01*
X152521939Y-145112872D01*
X152515487Y-145111500D01*
X152324513Y-145111500D01*
X152318061Y-145112872D01*
X152318056Y-145112872D01*
X152231113Y-145131353D01*
X152137712Y-145151206D01*
X152131682Y-145153891D01*
X152131681Y-145153891D01*
X151969278Y-145226197D01*
X151969276Y-145226198D01*
X151963248Y-145228882D01*
X151957907Y-145232762D01*
X151957906Y-145232763D01*
X151941801Y-145244464D01*
X151808747Y-145341134D01*
X151804326Y-145346044D01*
X151804325Y-145346045D01*
X151780654Y-145372335D01*
X151680960Y-145483056D01*
X151585473Y-145648444D01*
X151526458Y-145830072D01*
X151525768Y-145836633D01*
X151525768Y-145836635D01*
X151523179Y-145861273D01*
X151506496Y-146020000D01*
X150795026Y-146020000D01*
X150782060Y-145896635D01*
X150775933Y-145838336D01*
X150775933Y-145838334D01*
X150775243Y-145831773D01*
X150716228Y-145650145D01*
X150620741Y-145484757D01*
X150615992Y-145479482D01*
X150497376Y-145347746D01*
X150497375Y-145347745D01*
X150492954Y-145342835D01*
X150375361Y-145257398D01*
X150343795Y-145234464D01*
X150343794Y-145234463D01*
X150338453Y-145230583D01*
X150332425Y-145227899D01*
X150332423Y-145227898D01*
X150170020Y-145155592D01*
X150170019Y-145155592D01*
X150163989Y-145152907D01*
X150070588Y-145133054D01*
X149983645Y-145114573D01*
X149983640Y-145114573D01*
X149977188Y-145113201D01*
X149786214Y-145113201D01*
X149779762Y-145114573D01*
X149779757Y-145114573D01*
X149692814Y-145133054D01*
X149599413Y-145152907D01*
X149593383Y-145155592D01*
X149593382Y-145155592D01*
X149430979Y-145227898D01*
X149430977Y-145227899D01*
X149424949Y-145230583D01*
X149419608Y-145234463D01*
X149419607Y-145234464D01*
X149388041Y-145257398D01*
X149270448Y-145342835D01*
X149266027Y-145347745D01*
X149266026Y-145347746D01*
X149147411Y-145479482D01*
X149142661Y-145484757D01*
X149047174Y-145650145D01*
X148988159Y-145831773D01*
X148987469Y-145838334D01*
X148987469Y-145838336D01*
X148981342Y-145896635D01*
X148968197Y-146021701D01*
X148213325Y-146021701D01*
X148213504Y-146020000D01*
X148196821Y-145861273D01*
X148194232Y-145836635D01*
X148194232Y-145836633D01*
X148193542Y-145830072D01*
X148134527Y-145648444D01*
X148039040Y-145483056D01*
X147939347Y-145372335D01*
X147915675Y-145346045D01*
X147915674Y-145346044D01*
X147911253Y-145341134D01*
X147778199Y-145244464D01*
X147762094Y-145232763D01*
X147762093Y-145232762D01*
X147756752Y-145228882D01*
X147750724Y-145226198D01*
X147750722Y-145226197D01*
X147588319Y-145153891D01*
X147588318Y-145153891D01*
X147582288Y-145151206D01*
X147488887Y-145131353D01*
X147401944Y-145112872D01*
X147401939Y-145112872D01*
X147395487Y-145111500D01*
X147204513Y-145111500D01*
X147198061Y-145112872D01*
X147198056Y-145112872D01*
X147111113Y-145131353D01*
X147017712Y-145151206D01*
X147011682Y-145153891D01*
X147011681Y-145153891D01*
X146849278Y-145226197D01*
X146849276Y-145226198D01*
X146843248Y-145228882D01*
X146837907Y-145232762D01*
X146837906Y-145232763D01*
X146821801Y-145244464D01*
X146688747Y-145341134D01*
X146684326Y-145346044D01*
X146684325Y-145346045D01*
X146660654Y-145372335D01*
X146560960Y-145483056D01*
X146465473Y-145648444D01*
X146406458Y-145830072D01*
X146405768Y-145836633D01*
X146405768Y-145836635D01*
X146403179Y-145861273D01*
X146386496Y-146020000D01*
X145637198Y-146020000D01*
X145623542Y-145890072D01*
X145564527Y-145708444D01*
X145469040Y-145543056D01*
X145429169Y-145498774D01*
X145345675Y-145406045D01*
X145345674Y-145406044D01*
X145341253Y-145401134D01*
X145186752Y-145288882D01*
X145180724Y-145286198D01*
X145180722Y-145286197D01*
X145018319Y-145213891D01*
X145018318Y-145213891D01*
X145012288Y-145211206D01*
X144918887Y-145191353D01*
X144831944Y-145172872D01*
X144831939Y-145172872D01*
X144825487Y-145171500D01*
X144634513Y-145171500D01*
X144628061Y-145172872D01*
X144628056Y-145172872D01*
X144541113Y-145191353D01*
X144447712Y-145211206D01*
X144441682Y-145213891D01*
X144441681Y-145213891D01*
X144279278Y-145286197D01*
X144279276Y-145286198D01*
X144273248Y-145288882D01*
X144118747Y-145401134D01*
X144114326Y-145406044D01*
X144114325Y-145406045D01*
X144030832Y-145498774D01*
X143990960Y-145543056D01*
X143895473Y-145708444D01*
X143836458Y-145890072D01*
X143816496Y-146080000D01*
X143140477Y-146080000D01*
X143142814Y-146057766D01*
X143143504Y-146051201D01*
X143142814Y-146044636D01*
X143124232Y-145867836D01*
X143124232Y-145867834D01*
X143123542Y-145861273D01*
X143064527Y-145679645D01*
X143049965Y-145654422D01*
X142985667Y-145543056D01*
X142969040Y-145514257D01*
X142945532Y-145488148D01*
X142845675Y-145377246D01*
X142845674Y-145377245D01*
X142841253Y-145372335D01*
X142686752Y-145260083D01*
X142680724Y-145257399D01*
X142680722Y-145257398D01*
X142518319Y-145185092D01*
X142518318Y-145185092D01*
X142512288Y-145182407D01*
X142391827Y-145156802D01*
X142331944Y-145144073D01*
X142331939Y-145144073D01*
X142325487Y-145142701D01*
X142134513Y-145142701D01*
X142128061Y-145144073D01*
X142128056Y-145144073D01*
X142068173Y-145156802D01*
X141947712Y-145182407D01*
X141941682Y-145185092D01*
X141941681Y-145185092D01*
X141779278Y-145257398D01*
X141779276Y-145257399D01*
X141773248Y-145260083D01*
X141618747Y-145372335D01*
X141614326Y-145377245D01*
X141614325Y-145377246D01*
X141514469Y-145488148D01*
X141490960Y-145514257D01*
X141474333Y-145543056D01*
X141410036Y-145654422D01*
X141395473Y-145679645D01*
X141336458Y-145861273D01*
X141335768Y-145867834D01*
X141335768Y-145867836D01*
X141317186Y-146044636D01*
X141316496Y-146051201D01*
X140551276Y-146051201D01*
X140552814Y-146036565D01*
X140553504Y-146030000D01*
X140535770Y-145861273D01*
X140534232Y-145846635D01*
X140534232Y-145846633D01*
X140533542Y-145840072D01*
X140474527Y-145658444D01*
X140468754Y-145648444D01*
X140411209Y-145548774D01*
X140379040Y-145493056D01*
X140367149Y-145479849D01*
X140255675Y-145356045D01*
X140255674Y-145356044D01*
X140251253Y-145351134D01*
X140096752Y-145238882D01*
X140090724Y-145236198D01*
X140090722Y-145236197D01*
X139928319Y-145163891D01*
X139928318Y-145163891D01*
X139922288Y-145161206D01*
X139828887Y-145141353D01*
X139741944Y-145122872D01*
X139741939Y-145122872D01*
X139735487Y-145121500D01*
X139544513Y-145121500D01*
X139538061Y-145122872D01*
X139538056Y-145122872D01*
X139451113Y-145141353D01*
X139357712Y-145161206D01*
X139351682Y-145163891D01*
X139351681Y-145163891D01*
X139189278Y-145236197D01*
X139189276Y-145236198D01*
X139183248Y-145238882D01*
X139028747Y-145351134D01*
X139024326Y-145356044D01*
X139024325Y-145356045D01*
X138912852Y-145479849D01*
X138900960Y-145493056D01*
X138868791Y-145548774D01*
X138811247Y-145648444D01*
X138805473Y-145658444D01*
X138746458Y-145840072D01*
X138745768Y-145846633D01*
X138745768Y-145846635D01*
X138744230Y-145861273D01*
X138726496Y-146030000D01*
X138268721Y-146030000D01*
X138268942Y-146027894D01*
X138269632Y-146021329D01*
X138256526Y-145896635D01*
X138250360Y-145837964D01*
X138250360Y-145837962D01*
X138249670Y-145831401D01*
X138190655Y-145649773D01*
X138095168Y-145484385D01*
X138024631Y-145406045D01*
X137971803Y-145347374D01*
X137971802Y-145347373D01*
X137967381Y-145342463D01*
X137850300Y-145257398D01*
X137818222Y-145234092D01*
X137818221Y-145234091D01*
X137812880Y-145230211D01*
X137806852Y-145227527D01*
X137806850Y-145227526D01*
X137644445Y-145155219D01*
X137644443Y-145155218D01*
X137640609Y-145153511D01*
X137640607Y-145153510D01*
X137638416Y-145152535D01*
X137638594Y-145152134D01*
X137583289Y-145114314D01*
X137555654Y-145048917D01*
X137567763Y-144978961D01*
X137587194Y-144950252D01*
X137632492Y-144899943D01*
X137727979Y-144734555D01*
X137786994Y-144552927D01*
X137806956Y-144362999D01*
X137786994Y-144173071D01*
X137727979Y-143991443D01*
X137682913Y-143913386D01*
X137666175Y-143844390D01*
X137682913Y-143787386D01*
X137717185Y-143728025D01*
X137717186Y-143728024D01*
X137720489Y-143722302D01*
X137779504Y-143540674D01*
X137780815Y-143528206D01*
X137798776Y-143357311D01*
X137799466Y-143350746D01*
X137785650Y-143219290D01*
X137780194Y-143167381D01*
X137780194Y-143167379D01*
X137779504Y-143160818D01*
X137720489Y-142979190D01*
X137692958Y-142931505D01*
X137676220Y-142862510D01*
X137692958Y-142805505D01*
X137737287Y-142728725D01*
X137737288Y-142728724D01*
X137740591Y-142723002D01*
X137799606Y-142541374D01*
X137819568Y-142351446D01*
X137818878Y-142344881D01*
X137800296Y-142168081D01*
X137800296Y-142168079D01*
X137799606Y-142161518D01*
X137740591Y-141979890D01*
X137727697Y-141957557D01*
X137664693Y-141848430D01*
X137647955Y-141779434D01*
X137664693Y-141722430D01*
X137731111Y-141607391D01*
X137731112Y-141607390D01*
X137734415Y-141601668D01*
X137793430Y-141420040D01*
X137797631Y-141380076D01*
X137812702Y-141236677D01*
X137813392Y-141230112D01*
X137803212Y-141133254D01*
X137794120Y-141046747D01*
X137794120Y-141046745D01*
X137793430Y-141040184D01*
X137734415Y-140858556D01*
X137638928Y-140693168D01*
X137631132Y-140684509D01*
X137515563Y-140556157D01*
X137515562Y-140556156D01*
X137511141Y-140551246D01*
X137356640Y-140438994D01*
X137350612Y-140436310D01*
X137350610Y-140436309D01*
X137188207Y-140364003D01*
X137188206Y-140364003D01*
X137182176Y-140361318D01*
X137069472Y-140337362D01*
X137006999Y-140303634D01*
X136972677Y-140241484D01*
X136977405Y-140170645D01*
X137019681Y-140113607D01*
X137069472Y-140090868D01*
X137093326Y-140085797D01*
X137171213Y-140069242D01*
X137215849Y-140049369D01*
X137339647Y-139994251D01*
X137339649Y-139994250D01*
X137345677Y-139991566D01*
X137500178Y-139879314D01*
X137627965Y-139737392D01*
X137630202Y-139739407D01*
X137676015Y-139704026D01*
X137746747Y-139697898D01*
X137809563Y-139730984D01*
X137844520Y-139792778D01*
X137846132Y-139801769D01*
X137846532Y-139803328D01*
X137847526Y-139811193D01*
X137850445Y-139818564D01*
X137850445Y-139818566D01*
X137863804Y-139852308D01*
X137867649Y-139863538D01*
X137872232Y-139879314D01*
X137879982Y-139905989D01*
X137884015Y-139912808D01*
X137884017Y-139912813D01*
X137890293Y-139923424D01*
X137898988Y-139941172D01*
X137906448Y-139960013D01*
X137911110Y-139966429D01*
X137911110Y-139966430D01*
X137932436Y-139995783D01*
X137938952Y-140005703D01*
X137956828Y-140035929D01*
X137961458Y-140043758D01*
X137975779Y-140058079D01*
X137988619Y-140073112D01*
X138000528Y-140089503D01*
X138006634Y-140094554D01*
X138034605Y-140117694D01*
X138043384Y-140125684D01*
X139283595Y-141365896D01*
X139317621Y-141428208D01*
X139320500Y-141454991D01*
X139320500Y-142415233D01*
X139319973Y-142426416D01*
X139318298Y-142433909D01*
X139318547Y-142441835D01*
X139318547Y-142441836D01*
X139320438Y-142501986D01*
X139320500Y-142505945D01*
X139320500Y-142533856D01*
X139320997Y-142537790D01*
X139320997Y-142537791D01*
X139321005Y-142537856D01*
X139321938Y-142549693D01*
X139323327Y-142593889D01*
X139328978Y-142613339D01*
X139332987Y-142632700D01*
X139335526Y-142652797D01*
X139338445Y-142660168D01*
X139338445Y-142660170D01*
X139351804Y-142693912D01*
X139355649Y-142705142D01*
X139367982Y-142747593D01*
X139372015Y-142754412D01*
X139372017Y-142754417D01*
X139378293Y-142765028D01*
X139386988Y-142782776D01*
X139394448Y-142801617D01*
X139399110Y-142808033D01*
X139399110Y-142808034D01*
X139420436Y-142837387D01*
X139426952Y-142847307D01*
X139439489Y-142868505D01*
X139449458Y-142885362D01*
X139463779Y-142899683D01*
X139476619Y-142914716D01*
X139488528Y-142931107D01*
X139520413Y-142957484D01*
X139522593Y-142959288D01*
X139531374Y-142967278D01*
X139980017Y-143415922D01*
X139987551Y-143424201D01*
X139991664Y-143430682D01*
X140041315Y-143477307D01*
X140044157Y-143480062D01*
X140063894Y-143499799D01*
X140067091Y-143502279D01*
X140076111Y-143509982D01*
X140108343Y-143540250D01*
X140115289Y-143544069D01*
X140115292Y-143544071D01*
X140126098Y-143550012D01*
X140142617Y-143560863D01*
X140158623Y-143573278D01*
X140165892Y-143576423D01*
X140165896Y-143576426D01*
X140199201Y-143590838D01*
X140209851Y-143596055D01*
X140248604Y-143617359D01*
X140256279Y-143619330D01*
X140256280Y-143619330D01*
X140268226Y-143622397D01*
X140286931Y-143628801D01*
X140305519Y-143636845D01*
X140313342Y-143638084D01*
X140313352Y-143638087D01*
X140349188Y-143643763D01*
X140360808Y-143646169D01*
X140392623Y-143654337D01*
X140403634Y-143657164D01*
X140423888Y-143657164D01*
X140443598Y-143658715D01*
X140463607Y-143661884D01*
X140471499Y-143661138D01*
X140490244Y-143659366D01*
X140507626Y-143657723D01*
X140519483Y-143657164D01*
X141377569Y-143657164D01*
X141388752Y-143657691D01*
X141396245Y-143659366D01*
X141404171Y-143659117D01*
X141404172Y-143659117D01*
X141464322Y-143657226D01*
X141468281Y-143657164D01*
X141496192Y-143657164D01*
X141500127Y-143656667D01*
X141500192Y-143656659D01*
X141512029Y-143655726D01*
X141544287Y-143654712D01*
X141548306Y-143654586D01*
X141556225Y-143654337D01*
X141575679Y-143648685D01*
X141595036Y-143644677D01*
X141607266Y-143643132D01*
X141607267Y-143643132D01*
X141615133Y-143642138D01*
X141622504Y-143639219D01*
X141622506Y-143639219D01*
X141656248Y-143625860D01*
X141667478Y-143622015D01*
X141702319Y-143611893D01*
X141702320Y-143611893D01*
X141709929Y-143609682D01*
X141716748Y-143605649D01*
X141716753Y-143605647D01*
X141727364Y-143599371D01*
X141745112Y-143590676D01*
X141763953Y-143583216D01*
X141799723Y-143557228D01*
X141809643Y-143550712D01*
X141840871Y-143532244D01*
X141840874Y-143532242D01*
X141847698Y-143528206D01*
X141862019Y-143513885D01*
X141877053Y-143501044D01*
X141887030Y-143493795D01*
X141893443Y-143489136D01*
X141898494Y-143483031D01*
X141898499Y-143483026D01*
X141921635Y-143455060D01*
X141929623Y-143446282D01*
X142133907Y-143241998D01*
X142196219Y-143207972D01*
X142267034Y-143213037D01*
X142323870Y-143255584D01*
X142348312Y-143317923D01*
X142353499Y-143367271D01*
X142356458Y-143395428D01*
X142415473Y-143577056D01*
X142418776Y-143582778D01*
X142418777Y-143582779D01*
X142431980Y-143605647D01*
X142510960Y-143742444D01*
X142515378Y-143747351D01*
X142515379Y-143747352D01*
X142602752Y-143844390D01*
X142638747Y-143884366D01*
X142793248Y-143996618D01*
X142799276Y-143999302D01*
X142799278Y-143999303D01*
X142961681Y-144071609D01*
X142967712Y-144074294D01*
X143061113Y-144094147D01*
X143148056Y-144112628D01*
X143148061Y-144112628D01*
X143154513Y-144114000D01*
X143345487Y-144114000D01*
X143351939Y-144112628D01*
X143351944Y-144112628D01*
X143438887Y-144094147D01*
X143532288Y-144074294D01*
X143538319Y-144071609D01*
X143700722Y-143999303D01*
X143700724Y-143999302D01*
X143706752Y-143996618D01*
X143861253Y-143884366D01*
X143897248Y-143844390D01*
X143984621Y-143747352D01*
X143984622Y-143747351D01*
X143989040Y-143742444D01*
X144068020Y-143605647D01*
X144081223Y-143582779D01*
X144081224Y-143582778D01*
X144084527Y-143577056D01*
X144143542Y-143395428D01*
X144145205Y-143379604D01*
X144172216Y-143313947D01*
X144230437Y-143273316D01*
X144270515Y-143266772D01*
X147907961Y-143266772D01*
X147919144Y-143267299D01*
X147926637Y-143268974D01*
X147934563Y-143268725D01*
X147934564Y-143268725D01*
X147994714Y-143266834D01*
X147998673Y-143266772D01*
X148026584Y-143266772D01*
X148030519Y-143266275D01*
X148030584Y-143266267D01*
X148042421Y-143265334D01*
X148074679Y-143264320D01*
X148078698Y-143264194D01*
X148086617Y-143263945D01*
X148106071Y-143258293D01*
X148125428Y-143254285D01*
X148137658Y-143252740D01*
X148137659Y-143252740D01*
X148145525Y-143251746D01*
X148152896Y-143248827D01*
X148152898Y-143248827D01*
X148186640Y-143235468D01*
X148197870Y-143231623D01*
X148232711Y-143221501D01*
X148232712Y-143221501D01*
X148240321Y-143219290D01*
X148247140Y-143215257D01*
X148247145Y-143215255D01*
X148257756Y-143208979D01*
X148275504Y-143200284D01*
X148294345Y-143192824D01*
X148330115Y-143166836D01*
X148340035Y-143160320D01*
X148371263Y-143141852D01*
X148371266Y-143141850D01*
X148378090Y-143137814D01*
X148392414Y-143123490D01*
X148407441Y-143110655D01*
X148423835Y-143098744D01*
X148441693Y-143077158D01*
X148452020Y-143064674D01*
X148460010Y-143055894D01*
X148475499Y-143040405D01*
X148537811Y-143006379D01*
X148564594Y-143003500D01*
X150272838Y-143003500D01*
X150340959Y-143023502D01*
X150387452Y-143077158D01*
X150398147Y-143116329D01*
X150406093Y-143191928D01*
X150465108Y-143373556D01*
X150560595Y-143538944D01*
X150565013Y-143543851D01*
X150565014Y-143543852D01*
X150683960Y-143675955D01*
X150688382Y-143680866D01*
X150773137Y-143742444D01*
X150834994Y-143787386D01*
X150842883Y-143793118D01*
X150848911Y-143795802D01*
X150848913Y-143795803D01*
X151011316Y-143868109D01*
X151017347Y-143870794D01*
X151099466Y-143888249D01*
X151197691Y-143909128D01*
X151197696Y-143909128D01*
X151204148Y-143910500D01*
X151395122Y-143910500D01*
X151401574Y-143909128D01*
X151401579Y-143909128D01*
X151499804Y-143888249D01*
X151581923Y-143870794D01*
X151587954Y-143868109D01*
X151750357Y-143795803D01*
X151750359Y-143795802D01*
X151756387Y-143793118D01*
X151764277Y-143787386D01*
X151826133Y-143742444D01*
X151910888Y-143680866D01*
X151915310Y-143675955D01*
X152034256Y-143543852D01*
X152034257Y-143543851D01*
X152038675Y-143538944D01*
X152134162Y-143373556D01*
X152193177Y-143191928D01*
X152201123Y-143116331D01*
X152212449Y-143008565D01*
X152213139Y-143002000D01*
X152200880Y-142885362D01*
X152193867Y-142818635D01*
X152193867Y-142818633D01*
X152193177Y-142812072D01*
X152134162Y-142630444D01*
X152124287Y-142613339D01*
X152061135Y-142503958D01*
X152038675Y-142465056D01*
X151910888Y-142323134D01*
X151756387Y-142210882D01*
X151750359Y-142208198D01*
X151750357Y-142208197D01*
X151587954Y-142135891D01*
X151587953Y-142135891D01*
X151581923Y-142133206D01*
X151478008Y-142111118D01*
X151401579Y-142094872D01*
X151401574Y-142094872D01*
X151395122Y-142093500D01*
X151339230Y-142093500D01*
X151271109Y-142073498D01*
X151250135Y-142056595D01*
X151171287Y-141977747D01*
X151163747Y-141969461D01*
X151159635Y-141962982D01*
X151109983Y-141916356D01*
X151107142Y-141913602D01*
X151087405Y-141893865D01*
X151084208Y-141891385D01*
X151075196Y-141883690D01*
X151073459Y-141882058D01*
X151037496Y-141820846D01*
X151036482Y-141764733D01*
X151038042Y-141759932D01*
X151058004Y-141570004D01*
X151042902Y-141426318D01*
X151038732Y-141386639D01*
X151038732Y-141386637D01*
X151038042Y-141380076D01*
X150979027Y-141198448D01*
X150941385Y-141133251D01*
X150924648Y-141064259D01*
X150941386Y-141007253D01*
X150975723Y-140947780D01*
X150975724Y-140947779D01*
X150979027Y-140942057D01*
X151038042Y-140760429D01*
X151040872Y-140733502D01*
X151055710Y-140592330D01*
X151082723Y-140526674D01*
X151140945Y-140486044D01*
X151181020Y-140479501D01*
X152280802Y-140479501D01*
X152348923Y-140499503D01*
X152368149Y-140515844D01*
X152368422Y-140515541D01*
X152373334Y-140519964D01*
X152377749Y-140524867D01*
X152399331Y-140540547D01*
X152525436Y-140632168D01*
X152532250Y-140637119D01*
X152538278Y-140639803D01*
X152538280Y-140639804D01*
X152700683Y-140712110D01*
X152706714Y-140714795D01*
X152789520Y-140732396D01*
X152887058Y-140753129D01*
X152887063Y-140753129D01*
X152893515Y-140754501D01*
X153084489Y-140754501D01*
X153090941Y-140753129D01*
X153090946Y-140753129D01*
X153188484Y-140732396D01*
X153271290Y-140714795D01*
X153277321Y-140712110D01*
X153439724Y-140639804D01*
X153439726Y-140639803D01*
X153445754Y-140637119D01*
X153452569Y-140632168D01*
X153501159Y-140596865D01*
X153600255Y-140524867D01*
X153728042Y-140382945D01*
X153823529Y-140217557D01*
X153882544Y-140035929D01*
X153886259Y-140000588D01*
X153901816Y-139852566D01*
X153902506Y-139846001D01*
X153901816Y-139839436D01*
X153883234Y-139662636D01*
X153883234Y-139662634D01*
X153882544Y-139656073D01*
X153823529Y-139474445D01*
X153818756Y-139466177D01*
X153731343Y-139314775D01*
X153728042Y-139309057D01*
X153600255Y-139167135D01*
X153573830Y-139147936D01*
X153530476Y-139091713D01*
X153524401Y-139020977D01*
X153557533Y-138958186D01*
X153573830Y-138944064D01*
X153586373Y-138934951D01*
X154599188Y-138934951D01*
X154599878Y-138941516D01*
X154614355Y-139079253D01*
X154619150Y-139124879D01*
X154678165Y-139306507D01*
X154681468Y-139312229D01*
X154681469Y-139312230D01*
X154715378Y-139370961D01*
X154773652Y-139471895D01*
X154778070Y-139476802D01*
X154778071Y-139476803D01*
X154897017Y-139608906D01*
X154901439Y-139613817D01*
X154959599Y-139656073D01*
X155025601Y-139704026D01*
X155055940Y-139726069D01*
X155061968Y-139728753D01*
X155061970Y-139728754D01*
X155224373Y-139801060D01*
X155230404Y-139803745D01*
X155236859Y-139805117D01*
X155236862Y-139805118D01*
X155251482Y-139808225D01*
X155260167Y-139810071D01*
X155322639Y-139843799D01*
X155356961Y-139905948D01*
X155353803Y-139972253D01*
X155312857Y-140098271D01*
X155312167Y-140104832D01*
X155312167Y-140104834D01*
X155310418Y-140121473D01*
X155292895Y-140288199D01*
X155312857Y-140478127D01*
X155319803Y-140499503D01*
X155360028Y-140623303D01*
X155362056Y-140694270D01*
X155333831Y-140746549D01*
X155300960Y-140783056D01*
X155260674Y-140852833D01*
X155209161Y-140942057D01*
X155205473Y-140948444D01*
X155146458Y-141130072D01*
X155126496Y-141320000D01*
X155127186Y-141326565D01*
X155137011Y-141420040D01*
X155146458Y-141509928D01*
X155205473Y-141691556D01*
X155300960Y-141856944D01*
X155305378Y-141861851D01*
X155305379Y-141861852D01*
X155391552Y-141957557D01*
X155428747Y-141998866D01*
X155583248Y-142111118D01*
X155589276Y-142113802D01*
X155589278Y-142113803D01*
X155751681Y-142186109D01*
X155757712Y-142188794D01*
X155848995Y-142208197D01*
X155938056Y-142227128D01*
X155938061Y-142227128D01*
X155944513Y-142228500D01*
X156135487Y-142228500D01*
X156141939Y-142227128D01*
X156141944Y-142227128D01*
X156231005Y-142208197D01*
X156322288Y-142188794D01*
X156328319Y-142186109D01*
X156490722Y-142113803D01*
X156490724Y-142113802D01*
X156496752Y-142111118D01*
X156651253Y-141998866D01*
X156688448Y-141957557D01*
X156774621Y-141861852D01*
X156774622Y-141861851D01*
X156779040Y-141856944D01*
X156874527Y-141691556D01*
X156933542Y-141509928D01*
X156942990Y-141420040D01*
X156952814Y-141326565D01*
X156953504Y-141320000D01*
X156933542Y-141130072D01*
X156886371Y-140984896D01*
X156884343Y-140913929D01*
X156912568Y-140861650D01*
X156941020Y-140830051D01*
X156941021Y-140830050D01*
X156945439Y-140825143D01*
X156998348Y-140733502D01*
X157049730Y-140684509D01*
X157107467Y-140670502D01*
X157151662Y-140670502D01*
X157158114Y-140669130D01*
X157158119Y-140669130D01*
X157245063Y-140650649D01*
X157338463Y-140630796D01*
X157355293Y-140623303D01*
X157506897Y-140555805D01*
X157506899Y-140555804D01*
X157512927Y-140553120D01*
X157667428Y-140440868D01*
X157724731Y-140377227D01*
X157790796Y-140303854D01*
X157790797Y-140303853D01*
X157795215Y-140298946D01*
X157890702Y-140133558D01*
X157949717Y-139951930D01*
X157955346Y-139898379D01*
X157968989Y-139768567D01*
X157969679Y-139762002D01*
X157963389Y-139702156D01*
X157950407Y-139578637D01*
X157950407Y-139578635D01*
X157949717Y-139572074D01*
X157890702Y-139390446D01*
X157795215Y-139225058D01*
X157667428Y-139083136D01*
X157512927Y-138970884D01*
X157506899Y-138968200D01*
X157506897Y-138968199D01*
X157344494Y-138895893D01*
X157344493Y-138895893D01*
X157338463Y-138893208D01*
X157332008Y-138891836D01*
X157331999Y-138891833D01*
X157294776Y-138883921D01*
X157232303Y-138850193D01*
X157197982Y-138788043D01*
X157202710Y-138717204D01*
X157211853Y-138697680D01*
X157298527Y-138547556D01*
X157357542Y-138365928D01*
X157374157Y-138207850D01*
X157376814Y-138182565D01*
X157377504Y-138176000D01*
X157364239Y-138049793D01*
X157358232Y-137992635D01*
X157358232Y-137992633D01*
X157357542Y-137986072D01*
X157298527Y-137804444D01*
X157203040Y-137639056D01*
X157146678Y-137576459D01*
X157079675Y-137502045D01*
X157079674Y-137502044D01*
X157075253Y-137497134D01*
X156920752Y-137384882D01*
X156914724Y-137382198D01*
X156914722Y-137382197D01*
X156752319Y-137309891D01*
X156752318Y-137309891D01*
X156746288Y-137307206D01*
X156652888Y-137287353D01*
X156565944Y-137268872D01*
X156565939Y-137268872D01*
X156559487Y-137267500D01*
X156368513Y-137267500D01*
X156362061Y-137268872D01*
X156362056Y-137268872D01*
X156275112Y-137287353D01*
X156181712Y-137307206D01*
X156175682Y-137309891D01*
X156175681Y-137309891D01*
X156013278Y-137382197D01*
X156013276Y-137382198D01*
X156007248Y-137384882D01*
X155852747Y-137497134D01*
X155848326Y-137502044D01*
X155848325Y-137502045D01*
X155781323Y-137576459D01*
X155724960Y-137639056D01*
X155629473Y-137804444D01*
X155614137Y-137851644D01*
X155585627Y-137939387D01*
X155545553Y-137997993D01*
X155480157Y-138025630D01*
X155465794Y-138026451D01*
X155417205Y-138026451D01*
X155410753Y-138027823D01*
X155410748Y-138027823D01*
X155323804Y-138046304D01*
X155230404Y-138066157D01*
X155224374Y-138068842D01*
X155224373Y-138068842D01*
X155061970Y-138141148D01*
X155061968Y-138141149D01*
X155055940Y-138143833D01*
X154901439Y-138256085D01*
X154897018Y-138260995D01*
X154897017Y-138260996D01*
X154842337Y-138321725D01*
X154773652Y-138398007D01*
X154678165Y-138563395D01*
X154619150Y-138745023D01*
X154618460Y-138751584D01*
X154618460Y-138751586D01*
X154605016Y-138879499D01*
X154599188Y-138934951D01*
X153586373Y-138934951D01*
X153600255Y-138924865D01*
X153625359Y-138896984D01*
X153723623Y-138787851D01*
X153723624Y-138787850D01*
X153728042Y-138782943D01*
X153823529Y-138617555D01*
X153882544Y-138435927D01*
X153887046Y-138393099D01*
X153901816Y-138252564D01*
X153902506Y-138245999D01*
X153882544Y-138056071D01*
X153823529Y-137874443D01*
X153728042Y-137709055D01*
X153654874Y-137627793D01*
X153604677Y-137572044D01*
X153604676Y-137572043D01*
X153600255Y-137567133D01*
X153523248Y-137511184D01*
X153479895Y-137454963D01*
X153473820Y-137384227D01*
X153506951Y-137321435D01*
X153523248Y-137307313D01*
X153525284Y-137305834D01*
X153600255Y-137251364D01*
X153653884Y-137191803D01*
X153723623Y-137114350D01*
X153723624Y-137114349D01*
X153728042Y-137109442D01*
X153823529Y-136944054D01*
X153882544Y-136762426D01*
X153884846Y-136740530D01*
X153901816Y-136579063D01*
X153902506Y-136572498D01*
X153885287Y-136408670D01*
X153898059Y-136338832D01*
X153946561Y-136286985D01*
X154010597Y-136269500D01*
X157275629Y-136269500D01*
X157286812Y-136270027D01*
X157294305Y-136271702D01*
X157302231Y-136271453D01*
X157302232Y-136271453D01*
X157362382Y-136269562D01*
X157366341Y-136269500D01*
X157394252Y-136269500D01*
X157398187Y-136269003D01*
X157398252Y-136268995D01*
X157410089Y-136268062D01*
X157442347Y-136267048D01*
X157446366Y-136266922D01*
X157454285Y-136266673D01*
X157473739Y-136261021D01*
X157493096Y-136257013D01*
X157505326Y-136255468D01*
X157505327Y-136255468D01*
X157513193Y-136254474D01*
X157520564Y-136251555D01*
X157520566Y-136251555D01*
X157554308Y-136238196D01*
X157565538Y-136234351D01*
X157600379Y-136224229D01*
X157600380Y-136224229D01*
X157607989Y-136222018D01*
X157614808Y-136217985D01*
X157614813Y-136217983D01*
X157625424Y-136211707D01*
X157643172Y-136203012D01*
X157662013Y-136195552D01*
X157697783Y-136169564D01*
X157707703Y-136163048D01*
X157738931Y-136144580D01*
X157738934Y-136144578D01*
X157745758Y-136140542D01*
X157760079Y-136126221D01*
X157775113Y-136113380D01*
X157791503Y-136101472D01*
X157819694Y-136067395D01*
X157827684Y-136058616D01*
X158534405Y-135351895D01*
X158596717Y-135317869D01*
X158667532Y-135322934D01*
G37*
%TD.AperFunction*%
%TA.AperFunction,Conductor*%
G36*
X136099012Y-139663138D02*
G01*
X136125619Y-139695362D01*
X136149885Y-139737392D01*
X136154303Y-139742299D01*
X136154304Y-139742300D01*
X136222974Y-139818566D01*
X136277672Y-139879314D01*
X136432173Y-139991566D01*
X136438201Y-139994250D01*
X136438203Y-139994251D01*
X136562001Y-140049369D01*
X136606637Y-140069242D01*
X136719341Y-140093198D01*
X136781814Y-140126926D01*
X136816136Y-140189076D01*
X136811408Y-140259915D01*
X136769132Y-140316953D01*
X136719341Y-140339692D01*
X136695487Y-140344763D01*
X136617600Y-140361318D01*
X136611570Y-140364003D01*
X136611569Y-140364003D01*
X136449166Y-140436309D01*
X136449164Y-140436310D01*
X136443136Y-140438994D01*
X136288635Y-140551246D01*
X136284214Y-140556156D01*
X136284213Y-140556157D01*
X136168645Y-140684509D01*
X136160848Y-140693168D01*
X136157549Y-140698881D01*
X136157546Y-140698886D01*
X136125619Y-140754186D01*
X136074236Y-140803179D01*
X136004523Y-140816615D01*
X135938612Y-140790228D01*
X135897430Y-140732396D01*
X135890500Y-140691186D01*
X135890500Y-139758362D01*
X135910502Y-139690241D01*
X135964158Y-139643748D01*
X136034432Y-139633644D01*
X136099012Y-139663138D01*
G37*
%TD.AperFunction*%
%TA.AperFunction,Conductor*%
G36*
X145326562Y-134456733D02*
G01*
X145345267Y-134463137D01*
X145363855Y-134471181D01*
X145371678Y-134472420D01*
X145371688Y-134472423D01*
X145407524Y-134478099D01*
X145419144Y-134480505D01*
X145454289Y-134489528D01*
X145461970Y-134491500D01*
X145482224Y-134491500D01*
X145501934Y-134493051D01*
X145521943Y-134496220D01*
X145529835Y-134495474D01*
X145565961Y-134492059D01*
X145577819Y-134491500D01*
X145663373Y-134491500D01*
X145731494Y-134511502D01*
X145750720Y-134527843D01*
X145750993Y-134527540D01*
X145755905Y-134531963D01*
X145760320Y-134536866D01*
X145765659Y-134540745D01*
X145886530Y-134628563D01*
X145914821Y-134649118D01*
X145920849Y-134651802D01*
X145920851Y-134651803D01*
X146073003Y-134719545D01*
X146089285Y-134726794D01*
X146177289Y-134745500D01*
X146269629Y-134765128D01*
X146269634Y-134765128D01*
X146276086Y-134766500D01*
X146467060Y-134766500D01*
X146473512Y-134765128D01*
X146473517Y-134765128D01*
X146565857Y-134745500D01*
X146653861Y-134726794D01*
X146670143Y-134719545D01*
X146822295Y-134651803D01*
X146822297Y-134651802D01*
X146828325Y-134649118D01*
X146856617Y-134628563D01*
X146977487Y-134540745D01*
X146982826Y-134536866D01*
X146987241Y-134531963D01*
X146992153Y-134527540D01*
X146994179Y-134529791D01*
X147043470Y-134499458D01*
X147114453Y-134500846D01*
X147173418Y-134540389D01*
X147185717Y-134558023D01*
X147226443Y-134628563D01*
X147230861Y-134633470D01*
X147230862Y-134633471D01*
X147349743Y-134765502D01*
X147354230Y-134770485D01*
X147449133Y-134839436D01*
X147493265Y-134871500D01*
X147508731Y-134882737D01*
X147514759Y-134885421D01*
X147514761Y-134885422D01*
X147638018Y-134940299D01*
X147683195Y-134960413D01*
X147776595Y-134980266D01*
X147863539Y-134998747D01*
X147863544Y-134998747D01*
X147869996Y-135000119D01*
X147930983Y-135000119D01*
X147999104Y-135020121D01*
X148045597Y-135073777D01*
X148056983Y-135126119D01*
X148056983Y-135685811D01*
X148036981Y-135753932D01*
X147995191Y-135793777D01*
X147992602Y-135794930D01*
X147987260Y-135798812D01*
X147987257Y-135798813D01*
X147918458Y-135848799D01*
X147838101Y-135907182D01*
X147833680Y-135912092D01*
X147833679Y-135912093D01*
X147734763Y-136021951D01*
X147710314Y-136049104D01*
X147676873Y-136107026D01*
X147618534Y-136208072D01*
X147614827Y-136214492D01*
X147555812Y-136396120D01*
X147555122Y-136402681D01*
X147555122Y-136402683D01*
X147550168Y-136449816D01*
X147535850Y-136586048D01*
X147536540Y-136592613D01*
X147555048Y-136768704D01*
X147555812Y-136775976D01*
X147614827Y-136957604D01*
X147710314Y-137122992D01*
X147772272Y-137191803D01*
X147787034Y-137208198D01*
X147817751Y-137272206D01*
X147808986Y-137342659D01*
X147782492Y-137381603D01*
X147006935Y-138157160D01*
X146944623Y-138191186D01*
X146873808Y-138186121D01*
X146824204Y-138152375D01*
X146820008Y-138147714D01*
X146758953Y-138079906D01*
X146604452Y-137967654D01*
X146598424Y-137964970D01*
X146598422Y-137964969D01*
X146436019Y-137892663D01*
X146436018Y-137892663D01*
X146429988Y-137889978D01*
X146329978Y-137868720D01*
X146249644Y-137851644D01*
X146249639Y-137851644D01*
X146243187Y-137850272D01*
X146052213Y-137850272D01*
X146045761Y-137851644D01*
X146045756Y-137851644D01*
X145965422Y-137868720D01*
X145865412Y-137889978D01*
X145859382Y-137892663D01*
X145859381Y-137892663D01*
X145696978Y-137964969D01*
X145696976Y-137964970D01*
X145690948Y-137967654D01*
X145536447Y-138079906D01*
X145532026Y-138084816D01*
X145532025Y-138084817D01*
X145416827Y-138212758D01*
X145408660Y-138221828D01*
X145350984Y-138321725D01*
X145318410Y-138378146D01*
X145313173Y-138387216D01*
X145254158Y-138568844D01*
X145253468Y-138575405D01*
X145253468Y-138575407D01*
X145236490Y-138736943D01*
X145209477Y-138802599D01*
X145151255Y-138843229D01*
X145111180Y-138849772D01*
X142961447Y-138849772D01*
X142893326Y-138829770D01*
X142846833Y-138776114D01*
X142836137Y-138736943D01*
X142818206Y-138566336D01*
X142818205Y-138566333D01*
X142817516Y-138559774D01*
X142758501Y-138378146D01*
X142663014Y-138212758D01*
X142656673Y-138205715D01*
X142539649Y-138075747D01*
X142539648Y-138075746D01*
X142535227Y-138070836D01*
X142409919Y-137979794D01*
X142386068Y-137962465D01*
X142386067Y-137962464D01*
X142380726Y-137958584D01*
X142374698Y-137955900D01*
X142374696Y-137955899D01*
X142212293Y-137883593D01*
X142212292Y-137883593D01*
X142206262Y-137880908D01*
X142112861Y-137861055D01*
X142025918Y-137842574D01*
X142025913Y-137842574D01*
X142019461Y-137841202D01*
X141857141Y-137841202D01*
X141789020Y-137821200D01*
X141742527Y-137767544D01*
X141732423Y-137697270D01*
X141761917Y-137632690D01*
X141765456Y-137629083D01*
X141765755Y-137628866D01*
X141766711Y-137627804D01*
X141766722Y-137627793D01*
X141889123Y-137491852D01*
X141889124Y-137491851D01*
X141893542Y-137486944D01*
X141989029Y-137321556D01*
X142048044Y-137139928D01*
X142050733Y-137114350D01*
X142067316Y-136956565D01*
X142068006Y-136950000D01*
X142064503Y-136916675D01*
X142077274Y-136846839D01*
X142125776Y-136794991D01*
X142194608Y-136777596D01*
X142263873Y-136801568D01*
X142298504Y-136826729D01*
X142298507Y-136826731D01*
X142303845Y-136830609D01*
X142309873Y-136833293D01*
X142309875Y-136833294D01*
X142340298Y-136846839D01*
X142478309Y-136908285D01*
X142571710Y-136928138D01*
X142658653Y-136946619D01*
X142658658Y-136946619D01*
X142665110Y-136947991D01*
X142856084Y-136947991D01*
X142862536Y-136946619D01*
X142862541Y-136946619D01*
X142949484Y-136928138D01*
X143042885Y-136908285D01*
X143180896Y-136846839D01*
X143211319Y-136833294D01*
X143211321Y-136833293D01*
X143217349Y-136830609D01*
X143371850Y-136718357D01*
X143376272Y-136713445D01*
X143381174Y-136709032D01*
X143382069Y-136710026D01*
X143436405Y-136676546D01*
X143507389Y-136677893D01*
X143558698Y-136708999D01*
X143696777Y-136847078D01*
X143730802Y-136909390D01*
X143725737Y-136980206D01*
X143716800Y-136999173D01*
X143691473Y-137043041D01*
X143632458Y-137224669D01*
X143631768Y-137231230D01*
X143631768Y-137231232D01*
X143623927Y-137305834D01*
X143612496Y-137414597D01*
X143613186Y-137421162D01*
X143621164Y-137497064D01*
X143632458Y-137604525D01*
X143691473Y-137786153D01*
X143694776Y-137791875D01*
X143694777Y-137791876D01*
X143723256Y-137841202D01*
X143786960Y-137951541D01*
X143791378Y-137956448D01*
X143791379Y-137956449D01*
X143898795Y-138075747D01*
X143914747Y-138093463D01*
X143980380Y-138141148D01*
X144049251Y-138191186D01*
X144069248Y-138205715D01*
X144075276Y-138208399D01*
X144075278Y-138208400D01*
X144237681Y-138280706D01*
X144243712Y-138283391D01*
X144337112Y-138303244D01*
X144424056Y-138321725D01*
X144424061Y-138321725D01*
X144430513Y-138323097D01*
X144621487Y-138323097D01*
X144627939Y-138321725D01*
X144627944Y-138321725D01*
X144714888Y-138303244D01*
X144808288Y-138283391D01*
X144814319Y-138280706D01*
X144976722Y-138208400D01*
X144976724Y-138208399D01*
X144982752Y-138205715D01*
X145002750Y-138191186D01*
X145071620Y-138141148D01*
X145137253Y-138093463D01*
X145153205Y-138075747D01*
X145260621Y-137956449D01*
X145260622Y-137956448D01*
X145265040Y-137951541D01*
X145328744Y-137841202D01*
X145357223Y-137791876D01*
X145357224Y-137791875D01*
X145360527Y-137786153D01*
X145419542Y-137604525D01*
X145427543Y-137528400D01*
X145439007Y-137419329D01*
X145466020Y-137353673D01*
X145524242Y-137313043D01*
X145564317Y-137306500D01*
X145669486Y-137306500D01*
X145675938Y-137305128D01*
X145675943Y-137305128D01*
X145762887Y-137286647D01*
X145856287Y-137266794D01*
X145882238Y-137255240D01*
X146024721Y-137191803D01*
X146024723Y-137191802D01*
X146030751Y-137189118D01*
X146185252Y-137076866D01*
X146292636Y-136957604D01*
X146308620Y-136939852D01*
X146308621Y-136939851D01*
X146313039Y-136934944D01*
X146403884Y-136777596D01*
X146405222Y-136775279D01*
X146405223Y-136775278D01*
X146408526Y-136769556D01*
X146467541Y-136587928D01*
X146487503Y-136398000D01*
X146484111Y-136365726D01*
X146468231Y-136214635D01*
X146468231Y-136214633D01*
X146467541Y-136208072D01*
X146408526Y-136026444D01*
X146389601Y-135993664D01*
X146360948Y-135944037D01*
X146313039Y-135861056D01*
X146266252Y-135809093D01*
X146189674Y-135724045D01*
X146189673Y-135724044D01*
X146185252Y-135719134D01*
X146030751Y-135606882D01*
X146024723Y-135604198D01*
X146024721Y-135604197D01*
X145862318Y-135531891D01*
X145862317Y-135531891D01*
X145856287Y-135529206D01*
X145762887Y-135509353D01*
X145675943Y-135490872D01*
X145675938Y-135490872D01*
X145669486Y-135489500D01*
X145478512Y-135489500D01*
X145472060Y-135490872D01*
X145472055Y-135490872D01*
X145385111Y-135509353D01*
X145291711Y-135529206D01*
X145285681Y-135531891D01*
X145285680Y-135531891D01*
X145123277Y-135604197D01*
X145123275Y-135604198D01*
X145117247Y-135606882D01*
X145087344Y-135628608D01*
X145069668Y-135641450D01*
X145002800Y-135665308D01*
X144933649Y-135649227D01*
X144906513Y-135628608D01*
X144400405Y-135122500D01*
X144366379Y-135060188D01*
X144363500Y-135033405D01*
X144363500Y-134966808D01*
X144383502Y-134898687D01*
X144437158Y-134852194D01*
X144489500Y-134840808D01*
X144555777Y-134840808D01*
X144562229Y-134839436D01*
X144562234Y-134839436D01*
X144649177Y-134820955D01*
X144742578Y-134801102D01*
X144802624Y-134774368D01*
X144911012Y-134726111D01*
X144911014Y-134726110D01*
X144917042Y-134723426D01*
X145071543Y-134611174D01*
X145181379Y-134489188D01*
X145241821Y-134451951D01*
X145306559Y-134453183D01*
X145306941Y-134451695D01*
X145326562Y-134456733D01*
G37*
%TD.AperFunction*%
%TA.AperFunction,Conductor*%
G36*
X141562255Y-133498235D02*
G01*
X141601111Y-133557655D01*
X141606500Y-133594111D01*
X141606500Y-134964310D01*
X141586498Y-135032431D01*
X141532842Y-135078924D01*
X141462568Y-135089028D01*
X141441992Y-135084243D01*
X141436290Y-135081704D01*
X141429838Y-135080332D01*
X141429833Y-135080331D01*
X141255946Y-135043370D01*
X141255941Y-135043370D01*
X141249489Y-135041998D01*
X141058515Y-135041998D01*
X141052063Y-135043370D01*
X141052058Y-135043370D01*
X140972938Y-135060188D01*
X140871714Y-135081704D01*
X140865687Y-135084387D01*
X140865679Y-135084390D01*
X140801829Y-135112818D01*
X140731462Y-135122252D01*
X140667165Y-135092145D01*
X140629352Y-135032056D01*
X140624581Y-134997711D01*
X140624581Y-133969848D01*
X140625108Y-133958665D01*
X140626783Y-133951172D01*
X140624643Y-133883095D01*
X140624581Y-133879136D01*
X140624581Y-133851225D01*
X140624076Y-133847225D01*
X140623143Y-133835382D01*
X140622003Y-133799116D01*
X140621754Y-133791191D01*
X140620798Y-133787899D01*
X140629640Y-133719473D01*
X140675362Y-133665159D01*
X140743190Y-133644186D01*
X140755972Y-133644653D01*
X140783014Y-133647019D01*
X140783025Y-133647019D01*
X140788500Y-133647498D01*
X141016587Y-133627543D01*
X141021900Y-133626119D01*
X141021902Y-133626119D01*
X141232433Y-133569707D01*
X141232435Y-133569706D01*
X141237743Y-133568284D01*
X141427250Y-133479916D01*
X141497442Y-133469255D01*
X141562255Y-133498235D01*
G37*
%TD.AperFunction*%
%TA.AperFunction,Conductor*%
G36*
X152968990Y-129032502D02*
G01*
X153015483Y-129086158D01*
X153025587Y-129156432D01*
X153015064Y-129191750D01*
X152948088Y-129335382D01*
X152943716Y-129344757D01*
X152884457Y-129565913D01*
X152864502Y-129794000D01*
X152884457Y-130022087D01*
X152885881Y-130027400D01*
X152885881Y-130027402D01*
X152932673Y-130202029D01*
X152943716Y-130243243D01*
X152946039Y-130248224D01*
X152946039Y-130248225D01*
X153038151Y-130445762D01*
X153038154Y-130445767D01*
X153040477Y-130450749D01*
X153089399Y-130520617D01*
X153159202Y-130620305D01*
X153171802Y-130638300D01*
X153333700Y-130800198D01*
X153338208Y-130803355D01*
X153338211Y-130803357D01*
X153400978Y-130847307D01*
X153521251Y-130931523D01*
X153526233Y-130933846D01*
X153526238Y-130933849D01*
X153561049Y-130950081D01*
X153614334Y-130996998D01*
X153633795Y-131065275D01*
X153613253Y-131133235D01*
X153561049Y-131178471D01*
X153526489Y-131194586D01*
X153516994Y-131200069D01*
X153464952Y-131236509D01*
X153456576Y-131246988D01*
X153463644Y-131260434D01*
X154448115Y-132244905D01*
X154482141Y-132307217D01*
X154477076Y-132378032D01*
X154448115Y-132423095D01*
X154267095Y-132604115D01*
X154204783Y-132638141D01*
X154133968Y-132633076D01*
X154088905Y-132604115D01*
X153103713Y-131618923D01*
X153091938Y-131612493D01*
X153079923Y-131621789D01*
X153044069Y-131672994D01*
X153038586Y-131682489D01*
X152946510Y-131879947D01*
X152942761Y-131890247D01*
X152926420Y-131951232D01*
X152889469Y-132011854D01*
X152825608Y-132042876D01*
X152755113Y-132034446D01*
X152715619Y-132007715D01*
X152610309Y-131902404D01*
X151379652Y-130671747D01*
X151372112Y-130663461D01*
X151368000Y-130656982D01*
X151352256Y-130642197D01*
X151325567Y-130617135D01*
X151318348Y-130610356D01*
X151315507Y-130607602D01*
X151295770Y-130587865D01*
X151292573Y-130585385D01*
X151283551Y-130577680D01*
X151270801Y-130565707D01*
X151251321Y-130547414D01*
X151244375Y-130543595D01*
X151244372Y-130543593D01*
X151233566Y-130537652D01*
X151217047Y-130526801D01*
X151209074Y-130520617D01*
X151201041Y-130514386D01*
X151193772Y-130511241D01*
X151193768Y-130511238D01*
X151160463Y-130496826D01*
X151149813Y-130491609D01*
X151111060Y-130470305D01*
X151091437Y-130465267D01*
X151072734Y-130458863D01*
X151061420Y-130453967D01*
X151061419Y-130453967D01*
X151054145Y-130450819D01*
X151046322Y-130449580D01*
X151046312Y-130449577D01*
X151010476Y-130443901D01*
X150998856Y-130441495D01*
X150963711Y-130432472D01*
X150963710Y-130432472D01*
X150956030Y-130430500D01*
X150935776Y-130430500D01*
X150916065Y-130428949D01*
X150903886Y-130427020D01*
X150896057Y-130425780D01*
X150888165Y-130426526D01*
X150852039Y-130429941D01*
X150840181Y-130430500D01*
X150442745Y-130430500D01*
X150374624Y-130410498D01*
X150328131Y-130356842D01*
X150318027Y-130286568D01*
X150328552Y-130251247D01*
X150329959Y-130248230D01*
X150329961Y-130248225D01*
X150332284Y-130243243D01*
X150343328Y-130202029D01*
X150390119Y-130027402D01*
X150390119Y-130027400D01*
X150391543Y-130022087D01*
X150411498Y-129794000D01*
X150391543Y-129565913D01*
X150332284Y-129344757D01*
X150327913Y-129335382D01*
X150260936Y-129191750D01*
X150250275Y-129121558D01*
X150279255Y-129056745D01*
X150338675Y-129017889D01*
X150375131Y-129012500D01*
X152900869Y-129012500D01*
X152968990Y-129032502D01*
G37*
%TD.AperFunction*%
%TA.AperFunction,Conductor*%
G36*
X137013621Y-117368502D02*
G01*
X137060114Y-117422158D01*
X137071500Y-117474500D01*
X137071500Y-119262134D01*
X137078255Y-119324316D01*
X137129385Y-119460705D01*
X137216739Y-119577261D01*
X137333295Y-119664615D01*
X137469684Y-119715745D01*
X137531866Y-119722500D01*
X137531728Y-119723767D01*
X137593790Y-119745688D01*
X137637323Y-119801772D01*
X137643625Y-119872488D01*
X137610694Y-119935385D01*
X137594116Y-119949796D01*
X137564747Y-119971134D01*
X137436960Y-120113056D01*
X137341473Y-120278444D01*
X137282458Y-120460072D01*
X137281768Y-120466633D01*
X137281768Y-120466635D01*
X137274702Y-120533865D01*
X137262496Y-120650000D01*
X137282458Y-120839928D01*
X137341473Y-121021556D01*
X137436960Y-121186944D01*
X137441378Y-121191851D01*
X137441379Y-121191852D01*
X137559024Y-121322510D01*
X137564747Y-121328866D01*
X137719248Y-121441118D01*
X137725276Y-121443802D01*
X137725278Y-121443803D01*
X137887681Y-121516109D01*
X137893712Y-121518794D01*
X137987113Y-121538647D01*
X138074056Y-121557128D01*
X138074061Y-121557128D01*
X138080513Y-121558500D01*
X138271487Y-121558500D01*
X138277939Y-121557128D01*
X138277944Y-121557128D01*
X138364887Y-121538647D01*
X138458288Y-121518794D01*
X138464319Y-121516109D01*
X138626722Y-121443803D01*
X138626724Y-121443802D01*
X138632752Y-121441118D01*
X138787253Y-121328866D01*
X138792976Y-121322510D01*
X138910621Y-121191852D01*
X138910622Y-121191851D01*
X138915040Y-121186944D01*
X139010527Y-121021556D01*
X139069542Y-120839928D01*
X139089504Y-120650000D01*
X139077298Y-120533865D01*
X139070232Y-120466635D01*
X139070232Y-120466633D01*
X139069542Y-120460072D01*
X139010527Y-120278444D01*
X138915040Y-120113056D01*
X138787253Y-119971134D01*
X138758763Y-119950435D01*
X138715411Y-119894213D01*
X138709336Y-119823477D01*
X138742468Y-119760685D01*
X138804288Y-119725774D01*
X138832826Y-119722500D01*
X139328134Y-119722500D01*
X139390316Y-119715745D01*
X139526705Y-119664615D01*
X139643261Y-119577261D01*
X139730615Y-119460705D01*
X139752799Y-119401529D01*
X139774598Y-119343382D01*
X139817240Y-119286618D01*
X139883802Y-119261918D01*
X139953150Y-119277126D01*
X139987817Y-119305114D01*
X140016250Y-119337938D01*
X140188126Y-119480632D01*
X140381000Y-119593338D01*
X140589692Y-119673030D01*
X140594760Y-119674061D01*
X140594763Y-119674062D01*
X140702017Y-119695883D01*
X140808597Y-119717567D01*
X140813772Y-119717757D01*
X140813774Y-119717757D01*
X141026673Y-119725564D01*
X141026677Y-119725564D01*
X141031837Y-119725753D01*
X141036957Y-119725097D01*
X141036959Y-119725097D01*
X141248288Y-119698025D01*
X141248289Y-119698025D01*
X141253416Y-119697368D01*
X141258366Y-119695883D01*
X141462429Y-119634661D01*
X141462434Y-119634659D01*
X141467384Y-119633174D01*
X141667994Y-119534896D01*
X141849860Y-119405173D01*
X142008096Y-119247489D01*
X142138453Y-119066077D01*
X142139776Y-119067028D01*
X142186645Y-119023857D01*
X142256580Y-119011625D01*
X142322026Y-119039144D01*
X142349875Y-119070994D01*
X142409987Y-119169088D01*
X142556250Y-119337938D01*
X142728126Y-119480632D01*
X142921000Y-119593338D01*
X143129692Y-119673030D01*
X143134760Y-119674061D01*
X143134763Y-119674062D01*
X143242017Y-119695883D01*
X143348597Y-119717567D01*
X143353772Y-119717757D01*
X143353774Y-119717757D01*
X143566673Y-119725564D01*
X143566677Y-119725564D01*
X143571837Y-119725753D01*
X143576957Y-119725097D01*
X143576959Y-119725097D01*
X143788288Y-119698025D01*
X143788289Y-119698025D01*
X143793416Y-119697368D01*
X143798366Y-119695883D01*
X144002429Y-119634661D01*
X144002434Y-119634659D01*
X144007384Y-119633174D01*
X144207994Y-119534896D01*
X144389860Y-119405173D01*
X144548096Y-119247489D01*
X144678453Y-119066077D01*
X144679776Y-119067028D01*
X144726645Y-119023857D01*
X144796580Y-119011625D01*
X144862026Y-119039144D01*
X144889875Y-119070994D01*
X144949987Y-119169088D01*
X145096250Y-119337938D01*
X145268126Y-119480632D01*
X145461000Y-119593338D01*
X145669692Y-119673030D01*
X145674760Y-119674061D01*
X145674763Y-119674062D01*
X145782017Y-119695883D01*
X145888597Y-119717567D01*
X145893772Y-119717757D01*
X145893774Y-119717757D01*
X146106673Y-119725564D01*
X146106677Y-119725564D01*
X146111837Y-119725753D01*
X146116957Y-119725097D01*
X146116959Y-119725097D01*
X146328288Y-119698025D01*
X146328289Y-119698025D01*
X146333416Y-119697368D01*
X146338366Y-119695883D01*
X146542429Y-119634661D01*
X146542434Y-119634659D01*
X146547384Y-119633174D01*
X146747994Y-119534896D01*
X146929860Y-119405173D01*
X147088096Y-119247489D01*
X147218453Y-119066077D01*
X147219776Y-119067028D01*
X147266645Y-119023857D01*
X147336580Y-119011625D01*
X147402026Y-119039144D01*
X147429875Y-119070994D01*
X147489987Y-119169088D01*
X147636250Y-119337938D01*
X147808126Y-119480632D01*
X148001000Y-119593338D01*
X148209692Y-119673030D01*
X148214760Y-119674061D01*
X148214763Y-119674062D01*
X148322017Y-119695883D01*
X148428597Y-119717567D01*
X148433772Y-119717757D01*
X148433774Y-119717757D01*
X148646673Y-119725564D01*
X148646677Y-119725564D01*
X148651837Y-119725753D01*
X148656957Y-119725097D01*
X148656959Y-119725097D01*
X148868288Y-119698025D01*
X148868289Y-119698025D01*
X148873416Y-119697368D01*
X148878366Y-119695883D01*
X149082429Y-119634661D01*
X149082434Y-119634659D01*
X149087384Y-119633174D01*
X149287994Y-119534896D01*
X149469860Y-119405173D01*
X149628096Y-119247489D01*
X149758453Y-119066077D01*
X149759776Y-119067028D01*
X149806645Y-119023857D01*
X149876580Y-119011625D01*
X149942026Y-119039144D01*
X149969875Y-119070994D01*
X150029987Y-119169088D01*
X150176250Y-119337938D01*
X150348126Y-119480632D01*
X150541000Y-119593338D01*
X150749692Y-119673030D01*
X150754760Y-119674061D01*
X150754763Y-119674062D01*
X150862017Y-119695883D01*
X150968597Y-119717567D01*
X150973772Y-119717757D01*
X150973774Y-119717757D01*
X151186673Y-119725564D01*
X151186677Y-119725564D01*
X151191837Y-119725753D01*
X151196957Y-119725097D01*
X151196959Y-119725097D01*
X151408288Y-119698025D01*
X151408289Y-119698025D01*
X151413416Y-119697368D01*
X151418366Y-119695883D01*
X151622429Y-119634661D01*
X151622434Y-119634659D01*
X151627384Y-119633174D01*
X151827994Y-119534896D01*
X152009860Y-119405173D01*
X152168096Y-119247489D01*
X152298453Y-119066077D01*
X152299776Y-119067028D01*
X152346645Y-119023857D01*
X152416580Y-119011625D01*
X152482026Y-119039144D01*
X152509875Y-119070994D01*
X152569987Y-119169088D01*
X152716250Y-119337938D01*
X152888126Y-119480632D01*
X153081000Y-119593338D01*
X153289692Y-119673030D01*
X153294760Y-119674061D01*
X153294763Y-119674062D01*
X153402017Y-119695883D01*
X153508597Y-119717567D01*
X153513772Y-119717757D01*
X153513774Y-119717757D01*
X153726673Y-119725564D01*
X153726677Y-119725564D01*
X153731837Y-119725753D01*
X153736957Y-119725097D01*
X153736959Y-119725097D01*
X153948288Y-119698025D01*
X153948289Y-119698025D01*
X153953416Y-119697368D01*
X153958366Y-119695883D01*
X154162429Y-119634661D01*
X154162434Y-119634659D01*
X154167384Y-119633174D01*
X154367994Y-119534896D01*
X154549860Y-119405173D01*
X154708096Y-119247489D01*
X154838453Y-119066077D01*
X154839776Y-119067028D01*
X154886645Y-119023857D01*
X154956580Y-119011625D01*
X155022026Y-119039144D01*
X155049875Y-119070994D01*
X155109987Y-119169088D01*
X155256250Y-119337938D01*
X155428126Y-119480632D01*
X155621000Y-119593338D01*
X155829692Y-119673030D01*
X155834760Y-119674061D01*
X155834763Y-119674062D01*
X155942017Y-119695883D01*
X156048597Y-119717567D01*
X156053772Y-119717757D01*
X156053774Y-119717757D01*
X156266673Y-119725564D01*
X156266677Y-119725564D01*
X156271837Y-119725753D01*
X156276957Y-119725097D01*
X156276959Y-119725097D01*
X156488288Y-119698025D01*
X156488289Y-119698025D01*
X156493416Y-119697368D01*
X156498366Y-119695883D01*
X156702429Y-119634661D01*
X156702434Y-119634659D01*
X156707384Y-119633174D01*
X156907994Y-119534896D01*
X157089860Y-119405173D01*
X157248096Y-119247489D01*
X157378453Y-119066077D01*
X157399320Y-119023857D01*
X157475136Y-118870453D01*
X157475137Y-118870451D01*
X157477430Y-118865811D01*
X157542370Y-118652069D01*
X157571529Y-118430590D01*
X157573156Y-118364000D01*
X157554852Y-118141361D01*
X157500431Y-117924702D01*
X157411354Y-117719840D01*
X157296912Y-117542939D01*
X157276705Y-117474880D01*
X157296501Y-117406699D01*
X157350016Y-117360045D01*
X157402704Y-117348500D01*
X158623500Y-117348500D01*
X158691621Y-117368502D01*
X158738114Y-117422158D01*
X158749500Y-117474500D01*
X158749500Y-125256212D01*
X158729498Y-125324333D01*
X158675842Y-125370826D01*
X158605568Y-125380930D01*
X158540988Y-125351436D01*
X158529870Y-125340529D01*
X158465165Y-125268667D01*
X158434449Y-125204661D01*
X158432802Y-125184358D01*
X158432802Y-123528069D01*
X158433329Y-123516886D01*
X158435004Y-123509393D01*
X158432864Y-123441302D01*
X158432802Y-123437345D01*
X158432802Y-123409446D01*
X158432298Y-123405455D01*
X158431365Y-123393613D01*
X158430225Y-123357338D01*
X158429976Y-123349413D01*
X158427764Y-123341799D01*
X158427763Y-123341794D01*
X158424325Y-123329961D01*
X158420314Y-123310597D01*
X158418769Y-123298366D01*
X158417776Y-123290505D01*
X158414859Y-123283138D01*
X158414858Y-123283133D01*
X158401500Y-123249394D01*
X158397656Y-123238167D01*
X158394600Y-123227649D01*
X158385320Y-123195709D01*
X158375009Y-123178274D01*
X158366314Y-123160526D01*
X158358854Y-123141685D01*
X158332866Y-123105915D01*
X158326350Y-123095995D01*
X158307882Y-123064767D01*
X158307880Y-123064764D01*
X158303844Y-123057940D01*
X158289523Y-123043619D01*
X158276682Y-123028585D01*
X158274433Y-123025490D01*
X158264774Y-123012195D01*
X158230697Y-122984004D01*
X158221918Y-122976014D01*
X155863652Y-120617747D01*
X155856112Y-120609461D01*
X155852000Y-120602982D01*
X155802348Y-120556356D01*
X155799507Y-120553602D01*
X155779770Y-120533865D01*
X155776573Y-120531385D01*
X155767551Y-120523680D01*
X155754116Y-120511064D01*
X155735321Y-120493414D01*
X155728375Y-120489595D01*
X155728372Y-120489593D01*
X155717566Y-120483652D01*
X155701047Y-120472801D01*
X155693097Y-120466635D01*
X155685041Y-120460386D01*
X155677772Y-120457241D01*
X155677768Y-120457238D01*
X155644463Y-120442826D01*
X155633813Y-120437609D01*
X155595060Y-120416305D01*
X155575437Y-120411267D01*
X155556734Y-120404863D01*
X155545420Y-120399967D01*
X155545419Y-120399967D01*
X155538145Y-120396819D01*
X155530322Y-120395580D01*
X155530312Y-120395577D01*
X155494476Y-120389901D01*
X155482856Y-120387495D01*
X155447711Y-120378472D01*
X155447710Y-120378472D01*
X155440030Y-120376500D01*
X155419776Y-120376500D01*
X155400065Y-120374949D01*
X155397534Y-120374548D01*
X155380057Y-120371780D01*
X155372165Y-120372526D01*
X155336039Y-120375941D01*
X155324181Y-120376500D01*
X145520272Y-120376500D01*
X145509088Y-120375973D01*
X145501600Y-120374299D01*
X145493677Y-120374548D01*
X145433542Y-120376438D01*
X145429584Y-120376500D01*
X145401653Y-120376500D01*
X145397738Y-120376995D01*
X145397734Y-120376995D01*
X145397676Y-120377003D01*
X145397647Y-120377006D01*
X145385805Y-120377939D01*
X145341619Y-120379327D01*
X145324253Y-120384372D01*
X145322167Y-120384978D01*
X145302815Y-120388986D01*
X145290577Y-120390532D01*
X145290575Y-120390533D01*
X145282712Y-120391526D01*
X145241595Y-120407806D01*
X145230394Y-120411641D01*
X145187915Y-120423982D01*
X145181096Y-120428015D01*
X145181091Y-120428017D01*
X145170480Y-120434293D01*
X145152730Y-120442990D01*
X145133892Y-120450448D01*
X145127476Y-120455109D01*
X145127475Y-120455110D01*
X145098134Y-120476428D01*
X145088210Y-120482947D01*
X145056969Y-120501422D01*
X145056964Y-120501426D01*
X145050146Y-120505458D01*
X145035822Y-120519782D01*
X145020790Y-120532621D01*
X145004402Y-120544528D01*
X144976221Y-120578593D01*
X144968231Y-120587373D01*
X142272095Y-123283509D01*
X142209783Y-123317535D01*
X142138968Y-123312470D01*
X142082132Y-123269923D01*
X142057321Y-123203403D01*
X142065018Y-123150184D01*
X142086978Y-123091606D01*
X142090605Y-123076351D01*
X142096131Y-123025486D01*
X142096500Y-123018672D01*
X142096500Y-122446115D01*
X142092025Y-122430876D01*
X142090635Y-122429671D01*
X142082952Y-122428000D01*
X139498616Y-122428000D01*
X139483377Y-122432475D01*
X139482172Y-122433865D01*
X139480501Y-122441548D01*
X139480501Y-123018669D01*
X139480871Y-123025490D01*
X139486395Y-123076352D01*
X139490021Y-123091604D01*
X139535176Y-123212054D01*
X139543714Y-123227649D01*
X139620215Y-123329724D01*
X139632776Y-123342285D01*
X139734851Y-123418786D01*
X139750446Y-123427324D01*
X139870894Y-123472478D01*
X139886143Y-123476104D01*
X139889596Y-123476479D01*
X139892106Y-123477522D01*
X139893831Y-123477932D01*
X139893765Y-123478211D01*
X139955159Y-123503719D01*
X139995588Y-123562080D01*
X139998046Y-123633034D01*
X139961753Y-123694054D01*
X139950260Y-123703344D01*
X139948714Y-123704641D01*
X139944200Y-123707802D01*
X139782302Y-123869700D01*
X139650977Y-124057251D01*
X139648654Y-124062233D01*
X139648651Y-124062238D01*
X139643400Y-124073500D01*
X139554216Y-124264757D01*
X139552793Y-124270067D01*
X139552792Y-124270071D01*
X139530967Y-124351522D01*
X139494015Y-124412145D01*
X139435457Y-124442158D01*
X139368946Y-124456296D01*
X139258810Y-124479706D01*
X139252780Y-124482391D01*
X139252779Y-124482391D01*
X139090376Y-124554697D01*
X139090374Y-124554698D01*
X139084346Y-124557382D01*
X138929845Y-124669634D01*
X138925424Y-124674544D01*
X138925423Y-124674545D01*
X138908984Y-124692803D01*
X138802058Y-124811556D01*
X138706571Y-124976944D01*
X138647556Y-125158572D01*
X138646866Y-125165133D01*
X138646866Y-125165135D01*
X138638594Y-125243841D01*
X138627594Y-125348500D01*
X138628284Y-125355065D01*
X138633486Y-125404558D01*
X138620714Y-125474397D01*
X138597271Y-125506824D01*
X138481987Y-125622108D01*
X138419675Y-125656134D01*
X138348860Y-125651069D01*
X138292024Y-125608522D01*
X138283773Y-125596013D01*
X138273791Y-125578724D01*
X138270490Y-125573006D01*
X138142703Y-125431084D01*
X138029036Y-125348500D01*
X137993544Y-125322713D01*
X137993543Y-125322712D01*
X137988202Y-125318832D01*
X137982174Y-125316148D01*
X137982172Y-125316147D01*
X137819769Y-125243841D01*
X137819768Y-125243841D01*
X137813738Y-125241156D01*
X137698894Y-125216745D01*
X137633394Y-125202822D01*
X137633389Y-125202822D01*
X137626937Y-125201450D01*
X137483420Y-125201450D01*
X137415299Y-125181448D01*
X137380535Y-125144991D01*
X137379365Y-125145841D01*
X137375481Y-125140496D01*
X137372180Y-125134778D01*
X137348010Y-125107935D01*
X137248815Y-124997767D01*
X137248814Y-124997766D01*
X137244393Y-124992856D01*
X137116347Y-124899825D01*
X137095234Y-124884485D01*
X137095233Y-124884484D01*
X137089892Y-124880604D01*
X137083864Y-124877920D01*
X137083862Y-124877919D01*
X136921459Y-124805613D01*
X136921458Y-124805613D01*
X136915428Y-124802928D01*
X136822027Y-124783075D01*
X136735084Y-124764594D01*
X136735079Y-124764594D01*
X136728627Y-124763222D01*
X136537653Y-124763222D01*
X136531201Y-124764594D01*
X136531196Y-124764594D01*
X136444253Y-124783075D01*
X136350852Y-124802928D01*
X136344822Y-124805613D01*
X136344821Y-124805613D01*
X136182418Y-124877919D01*
X136182416Y-124877920D01*
X136176388Y-124880604D01*
X136171047Y-124884484D01*
X136171046Y-124884485D01*
X136090561Y-124942961D01*
X136023693Y-124966820D01*
X135954542Y-124950739D01*
X135905061Y-124899825D01*
X135890500Y-124841025D01*
X135890500Y-121901885D01*
X139480500Y-121901885D01*
X139484975Y-121917124D01*
X139486365Y-121918329D01*
X139494048Y-121920000D01*
X140516385Y-121920000D01*
X140531624Y-121915525D01*
X140532829Y-121914135D01*
X140534500Y-121906452D01*
X140534500Y-121901885D01*
X141042500Y-121901885D01*
X141046975Y-121917124D01*
X141048365Y-121918329D01*
X141056048Y-121920000D01*
X142078384Y-121920000D01*
X142093623Y-121915525D01*
X142094828Y-121914135D01*
X142096499Y-121906452D01*
X142096499Y-121329331D01*
X142096129Y-121322510D01*
X142090605Y-121271648D01*
X142086979Y-121256396D01*
X142041824Y-121135946D01*
X142033286Y-121120351D01*
X141956785Y-121018276D01*
X141944224Y-121005715D01*
X141842149Y-120929214D01*
X141826554Y-120920676D01*
X141706106Y-120875522D01*
X141690851Y-120871895D01*
X141639986Y-120866369D01*
X141633172Y-120866000D01*
X141060615Y-120866000D01*
X141045376Y-120870475D01*
X141044171Y-120871865D01*
X141042500Y-120879548D01*
X141042500Y-121901885D01*
X140534500Y-121901885D01*
X140534500Y-120884116D01*
X140530025Y-120868877D01*
X140528635Y-120867672D01*
X140520952Y-120866001D01*
X139943831Y-120866001D01*
X139937010Y-120866371D01*
X139886148Y-120871895D01*
X139870896Y-120875521D01*
X139750446Y-120920676D01*
X139734851Y-120929214D01*
X139632776Y-121005715D01*
X139620215Y-121018276D01*
X139543714Y-121120351D01*
X139535176Y-121135946D01*
X139490022Y-121256394D01*
X139486395Y-121271649D01*
X139480869Y-121322514D01*
X139480500Y-121329328D01*
X139480500Y-121901885D01*
X135890500Y-121901885D01*
X135890500Y-117474500D01*
X135910502Y-117406379D01*
X135964158Y-117359886D01*
X136016500Y-117348500D01*
X136945500Y-117348500D01*
X137013621Y-117368502D01*
G37*
%TD.AperFunction*%
%TA.AperFunction,Conductor*%
G36*
X147732121Y-121663502D02*
G01*
X147778614Y-121717158D01*
X147790000Y-121769500D01*
X147790000Y-121901885D01*
X147794475Y-121917124D01*
X147795865Y-121918329D01*
X147803548Y-121920000D01*
X150387884Y-121920000D01*
X150403123Y-121915525D01*
X150404328Y-121914135D01*
X150405999Y-121906452D01*
X150405999Y-121769500D01*
X150426001Y-121701379D01*
X150479657Y-121654886D01*
X150531999Y-121643500D01*
X152801282Y-121643500D01*
X152869403Y-121663502D01*
X152915896Y-121717158D01*
X152926000Y-121787432D01*
X152922989Y-121802110D01*
X152884457Y-121945913D01*
X152864502Y-122174000D01*
X152884457Y-122402087D01*
X152885881Y-122407400D01*
X152885881Y-122407402D01*
X152895031Y-122441548D01*
X152943716Y-122623243D01*
X152946039Y-122628225D01*
X152947922Y-122633398D01*
X152946594Y-122633881D01*
X152956243Y-122697454D01*
X152927257Y-122762264D01*
X152867833Y-122801114D01*
X152831389Y-122806500D01*
X150532000Y-122806500D01*
X150463879Y-122786498D01*
X150417386Y-122732842D01*
X150406000Y-122680500D01*
X150406000Y-122446115D01*
X150401525Y-122430876D01*
X150400135Y-122429671D01*
X150392452Y-122428000D01*
X147808116Y-122428000D01*
X147792877Y-122432475D01*
X147791672Y-122433865D01*
X147790001Y-122441548D01*
X147790001Y-122680500D01*
X147769999Y-122748621D01*
X147716343Y-122795114D01*
X147664001Y-122806500D01*
X147215111Y-122806500D01*
X147146990Y-122786498D01*
X147100497Y-122732842D01*
X147090393Y-122662568D01*
X147099034Y-122633564D01*
X147098578Y-122633398D01*
X147100461Y-122628225D01*
X147102784Y-122623243D01*
X147151470Y-122441548D01*
X147160619Y-122407402D01*
X147160619Y-122407400D01*
X147162043Y-122402087D01*
X147181998Y-122174000D01*
X147162043Y-121945913D01*
X147123511Y-121802111D01*
X147125201Y-121731135D01*
X147164995Y-121672339D01*
X147230259Y-121644391D01*
X147245218Y-121643500D01*
X147664000Y-121643500D01*
X147732121Y-121663502D01*
G37*
%TD.AperFunction*%
%TD*%
M02*
