%TF.GenerationSoftware,KiCad,Pcbnew,(6.0.9)*%
%TF.CreationDate,2022-12-15T13:56:24+01:00*%
%TF.ProjectId,8view,38766965-772e-46b6-9963-61645f706362,rev?*%
%TF.SameCoordinates,Original*%
%TF.FileFunction,Copper,L2,Inr*%
%TF.FilePolarity,Positive*%
%FSLAX46Y46*%
G04 Gerber Fmt 4.6, Leading zero omitted, Abs format (unit mm)*
G04 Created by KiCad (PCBNEW (6.0.9)) date 2022-12-15 13:56:24*
%MOMM*%
%LPD*%
G01*
G04 APERTURE LIST*
%TA.AperFunction,ComponentPad*%
%ADD10R,1.700000X1.700000*%
%TD*%
%TA.AperFunction,ComponentPad*%
%ADD11O,1.700000X1.700000*%
%TD*%
%TA.AperFunction,ComponentPad*%
%ADD12R,1.600000X1.600000*%
%TD*%
%TA.AperFunction,ComponentPad*%
%ADD13C,1.600000*%
%TD*%
%TA.AperFunction,ViaPad*%
%ADD14C,0.800000*%
%TD*%
%TA.AperFunction,Conductor*%
%ADD15C,0.250000*%
%TD*%
%TA.AperFunction,Conductor*%
%ADD16C,0.200000*%
%TD*%
G04 APERTURE END LIST*
D10*
%TO.N,/in0*%
%TO.C,J1*%
X138430000Y-118364000D03*
D11*
%TO.N,/in1*%
X140970000Y-118364000D03*
%TO.N,/in2*%
X143510000Y-118364000D03*
%TO.N,/in3*%
X146050000Y-118364000D03*
%TO.N,/in4*%
X148590000Y-118364000D03*
%TO.N,/in5*%
X151130000Y-118364000D03*
%TO.N,/in6*%
X153670000Y-118364000D03*
%TO.N,/in7*%
X156210000Y-118364000D03*
%TD*%
D12*
%TO.N,+5V*%
%TO.C,U2*%
X140788500Y-122174000D03*
D13*
%TO.N,Net-(R16-Pad2)*%
X140788500Y-124714000D03*
%TO.N,Net-(R17-Pad2)*%
X140788500Y-127254000D03*
%TO.N,Net-(R15-Pad2)*%
X140788500Y-129794000D03*
%TO.N,Net-(R14-Pad2)*%
X140788500Y-132334000D03*
%TO.N,+5V*%
X145868500Y-132334000D03*
%TO.N,Net-(R18-Pad2)*%
X145868500Y-129794000D03*
%TO.N,Net-(R13-Pad2)*%
X145868500Y-127254000D03*
%TO.N,Net-(R12-Pad2)*%
X145868500Y-124714000D03*
%TO.N,Net-(R11-Pad2)*%
X145868500Y-122174000D03*
%TD*%
D12*
%TO.N,+5V*%
%TO.C,U3*%
X149098000Y-122174000D03*
D13*
%TO.N,Net-(R24-Pad2)*%
X149098000Y-124714000D03*
%TO.N,Net-(R25-Pad2)*%
X149098000Y-127254000D03*
%TO.N,Net-(R23-Pad2)*%
X149098000Y-129794000D03*
%TO.N,Net-(R22-Pad2)*%
X149098000Y-132334000D03*
%TO.N,+5V*%
X154178000Y-132334000D03*
%TO.N,Net-(R26-Pad2)*%
X154178000Y-129794000D03*
%TO.N,Net-(R21-Pad2)*%
X154178000Y-127254000D03*
%TO.N,Net-(R20-Pad2)*%
X154178000Y-124714000D03*
%TO.N,Net-(R19-Pad2)*%
X154178000Y-122174000D03*
%TD*%
D10*
%TO.N,GND*%
%TO.C,J2*%
X158750000Y-150876000D03*
D11*
%TO.N,/in7*%
X156210000Y-150876000D03*
%TO.N,/in6*%
X153670000Y-150876000D03*
%TO.N,/in5*%
X151130000Y-150876000D03*
%TO.N,/in4*%
X148590000Y-150876000D03*
%TO.N,/in3*%
X146050000Y-150876000D03*
%TO.N,/in2*%
X143510000Y-150876000D03*
%TO.N,/in1*%
X140970000Y-150876000D03*
%TO.N,/in0*%
X138430000Y-150876000D03*
%TO.N,+5V*%
X135890000Y-150876000D03*
%TD*%
D14*
%TO.N,/D1_I8*%
X136633140Y-125671722D03*
X138796106Y-134498107D03*
%TO.N,GND*%
X141154002Y-135950498D03*
%TO.N,/in0*%
X146147700Y-138758772D03*
X137356128Y-146021329D03*
%TO.N,/in1*%
X139640000Y-146030000D03*
%TO.N,/in2*%
X142230000Y-146051201D03*
%TO.N,/in3*%
X144730000Y-146080000D03*
%TO.N,/in4*%
X147300000Y-146020000D03*
%TO.N,/in5*%
X149881701Y-146021701D03*
%TO.N,/in6*%
X152420000Y-146020000D03*
%TO.N,/in7*%
X154951701Y-146031701D03*
%TO.N,+5V*%
X137160000Y-122682000D03*
X142240000Y-143764000D03*
X136894310Y-140199936D03*
X137720500Y-149300000D03*
X141515500Y-133825500D03*
X153924000Y-142240000D03*
X147691299Y-137296701D03*
X137160000Y-148590000D03*
X157988000Y-119380000D03*
X145110000Y-138758772D03*
%TO.N,GND*%
X138176000Y-120650000D03*
X156464000Y-138176000D03*
X151130000Y-149098000D03*
X140970000Y-149098000D03*
X146050000Y-149098000D03*
X156718000Y-148082000D03*
%TO.N,/ISP_MISO*%
X136899888Y-141230112D03*
X141923974Y-138749702D03*
X156040000Y-141320000D03*
%TO.N,/ISP_SCK*%
X136906064Y-142351446D03*
X156206399Y-140288199D03*
X136888925Y-139200448D03*
%TO.N,/ISP_MOSI*%
X141154502Y-136950000D03*
X136885962Y-143350746D03*
X136899898Y-138156328D03*
X157056175Y-139762002D03*
%TO.N,/ISP_RST*%
X136906019Y-137156844D03*
X155512692Y-138934951D03*
X136893452Y-144362999D03*
%TO.N,Net-(R22-Pad2)*%
X155448000Y-131643500D03*
%TO.N,/D1_I1*%
X137531450Y-126109950D03*
X151299635Y-143002000D03*
X143250000Y-143205500D03*
%TO.N,/D1_I2*%
X140959667Y-142221068D03*
X137363731Y-128678247D03*
X150144500Y-140570501D03*
%TO.N,/D1_I3*%
X150368000Y-139045999D03*
X137690526Y-131284874D03*
%TO.N,/D1_I4*%
X139634668Y-133534668D03*
X152989002Y-136572498D03*
%TO.N,/D1_I5*%
X139678455Y-130825500D03*
X152989002Y-138245999D03*
%TO.N,/D1_I6*%
X139541098Y-125348500D03*
X150144500Y-141570004D03*
%TO.N,/D1_I7*%
X152989002Y-139846001D03*
X139446000Y-127762000D03*
%TO.N,/D1_I8*%
X150368000Y-137442467D03*
%TO.N,/D2_I1*%
X157799302Y-125886882D03*
X142760597Y-136039491D03*
%TO.N,/D2_I2*%
X144526000Y-137414597D03*
X155702000Y-125114500D03*
%TO.N,/D2_I3*%
X144460290Y-133932308D03*
X155463900Y-127806330D03*
%TO.N,/D2_I4*%
X146371573Y-133858000D03*
X155448000Y-133503500D03*
%TO.N,/D2_I5*%
X147965483Y-134091619D03*
X157079898Y-133641500D03*
%TO.N,/D2_I6*%
X157799302Y-128426882D03*
X145573999Y-136398000D03*
%TO.N,/D2_I7*%
X150913500Y-134940299D03*
X157754641Y-130959990D03*
%TO.N,/D2_I8*%
X155518972Y-130194500D03*
X148449354Y-136586048D03*
%TD*%
D15*
%TO.N,/D1_I8*%
X136633140Y-125671722D02*
X136633140Y-125566860D01*
X136633140Y-125566860D02*
X137100000Y-125100000D01*
X137100000Y-125100000D02*
X138250000Y-125100000D01*
X138250000Y-125100000D02*
X138500000Y-125350000D01*
X138500000Y-125350000D02*
X138500000Y-129178120D01*
X138500000Y-129178120D02*
X138909668Y-129587788D01*
X138909668Y-129587788D02*
X138909668Y-134384545D01*
X138909668Y-134384545D02*
X138796106Y-134498107D01*
%TO.N,/D1_I2*%
X140959667Y-142221068D02*
X141154502Y-142026233D01*
X141154502Y-142026233D02*
X141154502Y-138360502D01*
X141154502Y-138360502D02*
X137900000Y-135106000D01*
X137900000Y-135106000D02*
X137900000Y-132650000D01*
X137900000Y-132650000D02*
X138415526Y-132134474D01*
X138415526Y-132134474D02*
X138415526Y-129730042D01*
X138415526Y-129730042D02*
X137363731Y-128678247D01*
%TO.N,/D1_I1*%
X143250000Y-143205500D02*
X143046500Y-143002000D01*
X143046500Y-143002000D02*
X141476471Y-143002000D01*
X141476471Y-143002000D02*
X141454807Y-143023664D01*
X141454807Y-143023664D02*
X140737664Y-143023664D01*
X140737664Y-143023664D02*
X140208000Y-142494000D01*
X140208000Y-142494000D02*
X140208000Y-138430000D01*
X140208000Y-138430000D02*
X136638731Y-134860731D01*
X136638731Y-134860731D02*
X136638731Y-127002669D01*
X136638731Y-127002669D02*
X137531450Y-126109950D01*
D16*
%TO.N,GND*%
X141350498Y-135950498D02*
X141154002Y-135950498D01*
D15*
%TO.N,/in0*%
X145288000Y-137160000D02*
X145288000Y-137151292D01*
X146147700Y-138019700D02*
X145288000Y-137160000D01*
X137950671Y-146021329D02*
X139388000Y-144584000D01*
X139710000Y-119960000D02*
X138450000Y-118700000D01*
X137356128Y-146021329D02*
X137950671Y-146021329D01*
X142944000Y-144584000D02*
X144780000Y-142748000D01*
X143510000Y-122682000D02*
X140788000Y-119960000D01*
X146147700Y-138758772D02*
X146147700Y-138019700D01*
X140788000Y-119960000D02*
X139710000Y-119960000D01*
X139388000Y-144584000D02*
X142944000Y-144584000D01*
X144780000Y-142748000D02*
X144780000Y-140126472D01*
X144780000Y-140126472D02*
X146147700Y-138758772D01*
X145288000Y-137151292D02*
X143510000Y-135373292D01*
X143510000Y-135373292D02*
X143510000Y-122682000D01*
%TO.N,/in1*%
X144272000Y-121982000D02*
X140990000Y-118700000D01*
X144272000Y-132461000D02*
X144272000Y-121982000D01*
X145185290Y-133755290D02*
X145185290Y-133374290D01*
X143764000Y-145034000D02*
X146966299Y-141831701D01*
X139640000Y-146030000D02*
X140636000Y-145034000D01*
X145185290Y-133374290D02*
X144272000Y-132461000D01*
X146966299Y-141831701D02*
X146966299Y-135536299D01*
X146966299Y-135536299D02*
X145185290Y-133755290D01*
X140636000Y-145034000D02*
X143764000Y-145034000D01*
%TO.N,/in2*%
X144830000Y-120000000D02*
X143530000Y-118700000D01*
X150622000Y-133858000D02*
X150622000Y-121158000D01*
X149420000Y-141664000D02*
X149420000Y-137301144D01*
X150284000Y-120820000D02*
X146728000Y-120820000D01*
X146528695Y-143256000D02*
X147828000Y-143256000D01*
X149420000Y-137301144D02*
X149950000Y-136771144D01*
X143944695Y-145840000D02*
X146528695Y-143256000D01*
X146728000Y-120820000D02*
X145908000Y-120000000D01*
X145908000Y-120000000D02*
X144830000Y-120000000D01*
X147828000Y-143256000D02*
X149420000Y-141664000D01*
X142441201Y-145840000D02*
X143944695Y-145840000D01*
X150622000Y-121158000D02*
X150284000Y-120820000D01*
X142230000Y-146051201D02*
X142441201Y-145840000D01*
X149950000Y-134530000D02*
X150622000Y-133858000D01*
X149950000Y-136771144D02*
X149950000Y-134530000D01*
%TO.N,/in3*%
X150335604Y-120142000D02*
X147512000Y-120142000D01*
X144730000Y-146080000D02*
X146792000Y-144018000D01*
X151130000Y-135749104D02*
X151638500Y-135240604D01*
X151384000Y-121190396D02*
X150335604Y-120142000D01*
X147512000Y-120142000D02*
X146070000Y-118700000D01*
X146792000Y-144018000D02*
X149098000Y-144018000D01*
X151638500Y-135240604D02*
X151638500Y-134639994D01*
X151130000Y-141986000D02*
X151130000Y-135749104D01*
X149098000Y-144018000D02*
X151130000Y-141986000D01*
X151638500Y-134639994D02*
X151384000Y-134385494D01*
X151384000Y-134385494D02*
X151384000Y-121190396D01*
%TO.N,/in4*%
X152146000Y-121110000D02*
X149736000Y-118700000D01*
X150876000Y-144526000D02*
X152146000Y-143256000D01*
X147300000Y-146020000D02*
X148794000Y-144526000D01*
X152146000Y-143256000D02*
X152146000Y-121110000D01*
X149736000Y-118700000D02*
X148610000Y-118700000D01*
X148794000Y-144526000D02*
X150876000Y-144526000D01*
%TO.N,/in5*%
X152480000Y-145295000D02*
X154686000Y-143089000D01*
X152908000Y-120458000D02*
X151150000Y-118700000D01*
X152908000Y-133986396D02*
X152908000Y-120458000D01*
X149881701Y-146021701D02*
X150608402Y-145295000D01*
X154686000Y-143089000D02*
X154686000Y-135764396D01*
X150608402Y-145295000D02*
X152480000Y-145295000D01*
X154686000Y-135764396D02*
X152908000Y-133986396D01*
%TO.N,/in6*%
X157781175Y-141430825D02*
X157781175Y-136699175D01*
X152420000Y-146020000D02*
X153192000Y-146020000D01*
X153192000Y-146020000D02*
X154613502Y-144598498D01*
X156972000Y-121666000D02*
X153670000Y-118364000D01*
X156972000Y-124968000D02*
X156972000Y-121666000D01*
X156354898Y-135272898D02*
X156354898Y-125585102D01*
X154613502Y-144598498D02*
X157781175Y-141430825D01*
X156354898Y-125585102D02*
X156972000Y-124968000D01*
X157781175Y-136699175D02*
X156354898Y-135272898D01*
%TO.N,/in7*%
X158524302Y-142459100D02*
X158524302Y-120994302D01*
X154951701Y-146031701D02*
X158524302Y-142459100D01*
X158524302Y-120994302D02*
X156230000Y-118700000D01*
%TO.N,GND*%
X142560000Y-123510000D02*
X139874500Y-123510000D01*
X142560000Y-123510000D02*
X142560000Y-133924000D01*
X139874500Y-123510000D02*
X138176000Y-121811500D01*
D16*
X142560000Y-134554000D02*
X142560000Y-133924000D01*
X141163502Y-135950498D02*
X142560000Y-134554000D01*
X141154002Y-135950498D02*
X141163502Y-135950498D01*
D15*
X138176000Y-121811500D02*
X138176000Y-120650000D01*
%TO.N,/ISP_SCK*%
X137922000Y-141906000D02*
X137476554Y-142351446D01*
X136888925Y-139200448D02*
X137422448Y-139200448D01*
X137422448Y-139200448D02*
X137922000Y-139700000D01*
X137476554Y-142351446D02*
X136906064Y-142351446D01*
X137922000Y-139700000D02*
X137922000Y-141906000D01*
%TO.N,/ISP_MOSI*%
X137573254Y-143350746D02*
X138430000Y-142494000D01*
X136885962Y-143350746D02*
X137573254Y-143350746D01*
X137648328Y-138156328D02*
X136899898Y-138156328D01*
X138430000Y-142494000D02*
X138430000Y-138938000D01*
X138430000Y-138938000D02*
X137648328Y-138156328D01*
%TO.N,/ISP_RST*%
X138764500Y-143019104D02*
X139250000Y-142533604D01*
X139250000Y-142533604D02*
X139250000Y-138616396D01*
X137424200Y-144362999D02*
X138764500Y-143022699D01*
X139250000Y-138616396D02*
X138091297Y-137457693D01*
X136893452Y-144362999D02*
X137424200Y-144362999D01*
X138764500Y-143022699D02*
X138764500Y-143019104D01*
X137206868Y-137457693D02*
X136906019Y-137156844D01*
X138091297Y-137457693D02*
X137206868Y-137457693D01*
%TD*%
%TA.AperFunction,Conductor*%
%TO.N,GND*%
G36*
X158667533Y-143315941D02*
G01*
X158724368Y-143358488D01*
X158749179Y-143425008D01*
X158749500Y-143433997D01*
X158749500Y-147016633D01*
X158748000Y-147036018D01*
X158745690Y-147050851D01*
X158745690Y-147050855D01*
X158744309Y-147059724D01*
X158745473Y-147068626D01*
X158745473Y-147068629D01*
X158745701Y-147070369D01*
X158746444Y-147077717D01*
X158761163Y-147283513D01*
X158762121Y-147287917D01*
X158793667Y-147432929D01*
X158807517Y-147496598D01*
X158809090Y-147500815D01*
X158809091Y-147500819D01*
X158876993Y-147682872D01*
X158883724Y-147700918D01*
X158988233Y-147892312D01*
X159118917Y-148066885D01*
X159221095Y-148169063D01*
X159255121Y-148231375D01*
X159258000Y-148258158D01*
X159258000Y-149392000D01*
X159237998Y-149460121D01*
X159184342Y-149506614D01*
X159132000Y-149518000D01*
X159022115Y-149518000D01*
X159006876Y-149522475D01*
X159005671Y-149523865D01*
X159004000Y-149531548D01*
X159004000Y-151004000D01*
X158983998Y-151072121D01*
X158930342Y-151118614D01*
X158878000Y-151130000D01*
X158622000Y-151130000D01*
X158553879Y-151109998D01*
X158507386Y-151056342D01*
X158496000Y-151004000D01*
X158496000Y-149536116D01*
X158491525Y-149520877D01*
X158490135Y-149519672D01*
X158482452Y-149518001D01*
X157855331Y-149518001D01*
X157848510Y-149518371D01*
X157797648Y-149523895D01*
X157782396Y-149527521D01*
X157661946Y-149572676D01*
X157646351Y-149581214D01*
X157544276Y-149657715D01*
X157531715Y-149670276D01*
X157455214Y-149772351D01*
X157446676Y-149787946D01*
X157405297Y-149898322D01*
X157362655Y-149955087D01*
X157296093Y-149979786D01*
X157226744Y-149964578D01*
X157194121Y-149938891D01*
X157143151Y-149882876D01*
X157143145Y-149882870D01*
X157139670Y-149879051D01*
X157135619Y-149875852D01*
X157135615Y-149875848D01*
X156968414Y-149743800D01*
X156968410Y-149743798D01*
X156964359Y-149740598D01*
X156768789Y-149632638D01*
X156763920Y-149630914D01*
X156763916Y-149630912D01*
X156563087Y-149559795D01*
X156563083Y-149559794D01*
X156558212Y-149558069D01*
X156553119Y-149557162D01*
X156553116Y-149557161D01*
X156343373Y-149519800D01*
X156343367Y-149519799D01*
X156338284Y-149518894D01*
X156264452Y-149517992D01*
X156120081Y-149516228D01*
X156120079Y-149516228D01*
X156114911Y-149516165D01*
X155894091Y-149549955D01*
X155681756Y-149619357D01*
X155651443Y-149635137D01*
X155533720Y-149696420D01*
X155483607Y-149722507D01*
X155479474Y-149725610D01*
X155479471Y-149725612D01*
X155331191Y-149836944D01*
X155304965Y-149856635D01*
X155150629Y-150018138D01*
X155043201Y-150175621D01*
X154988293Y-150220621D01*
X154917768Y-150228792D01*
X154854021Y-150197538D01*
X154833324Y-150173054D01*
X154752822Y-150048617D01*
X154752820Y-150048614D01*
X154750014Y-150044277D01*
X154599670Y-149879051D01*
X154595619Y-149875852D01*
X154595615Y-149875848D01*
X154428414Y-149743800D01*
X154428410Y-149743798D01*
X154424359Y-149740598D01*
X154228789Y-149632638D01*
X154223920Y-149630914D01*
X154223916Y-149630912D01*
X154023087Y-149559795D01*
X154023083Y-149559794D01*
X154018212Y-149558069D01*
X154013119Y-149557162D01*
X154013116Y-149557161D01*
X153803373Y-149519800D01*
X153803367Y-149519799D01*
X153798284Y-149518894D01*
X153724452Y-149517992D01*
X153580081Y-149516228D01*
X153580079Y-149516228D01*
X153574911Y-149516165D01*
X153354091Y-149549955D01*
X153141756Y-149619357D01*
X153111443Y-149635137D01*
X152993720Y-149696420D01*
X152943607Y-149722507D01*
X152939474Y-149725610D01*
X152939471Y-149725612D01*
X152791191Y-149836944D01*
X152764965Y-149856635D01*
X152610629Y-150018138D01*
X152503201Y-150175621D01*
X152448293Y-150220621D01*
X152377768Y-150228792D01*
X152314021Y-150197538D01*
X152293324Y-150173054D01*
X152212822Y-150048617D01*
X152212820Y-150048614D01*
X152210014Y-150044277D01*
X152059670Y-149879051D01*
X152055619Y-149875852D01*
X152055615Y-149875848D01*
X151888414Y-149743800D01*
X151888410Y-149743798D01*
X151884359Y-149740598D01*
X151688789Y-149632638D01*
X151683920Y-149630914D01*
X151683916Y-149630912D01*
X151483087Y-149559795D01*
X151483083Y-149559794D01*
X151478212Y-149558069D01*
X151473119Y-149557162D01*
X151473116Y-149557161D01*
X151263373Y-149519800D01*
X151263367Y-149519799D01*
X151258284Y-149518894D01*
X151184452Y-149517992D01*
X151040081Y-149516228D01*
X151040079Y-149516228D01*
X151034911Y-149516165D01*
X150814091Y-149549955D01*
X150601756Y-149619357D01*
X150571443Y-149635137D01*
X150453720Y-149696420D01*
X150403607Y-149722507D01*
X150399474Y-149725610D01*
X150399471Y-149725612D01*
X150251191Y-149836944D01*
X150224965Y-149856635D01*
X150070629Y-150018138D01*
X149963201Y-150175621D01*
X149908293Y-150220621D01*
X149837768Y-150228792D01*
X149774021Y-150197538D01*
X149753324Y-150173054D01*
X149672822Y-150048617D01*
X149672820Y-150048614D01*
X149670014Y-150044277D01*
X149519670Y-149879051D01*
X149515619Y-149875852D01*
X149515615Y-149875848D01*
X149348414Y-149743800D01*
X149348410Y-149743798D01*
X149344359Y-149740598D01*
X149148789Y-149632638D01*
X149143920Y-149630914D01*
X149143916Y-149630912D01*
X148943087Y-149559795D01*
X148943083Y-149559794D01*
X148938212Y-149558069D01*
X148933119Y-149557162D01*
X148933116Y-149557161D01*
X148723373Y-149519800D01*
X148723367Y-149519799D01*
X148718284Y-149518894D01*
X148644452Y-149517992D01*
X148500081Y-149516228D01*
X148500079Y-149516228D01*
X148494911Y-149516165D01*
X148274091Y-149549955D01*
X148061756Y-149619357D01*
X148031443Y-149635137D01*
X147913720Y-149696420D01*
X147863607Y-149722507D01*
X147859474Y-149725610D01*
X147859471Y-149725612D01*
X147711191Y-149836944D01*
X147684965Y-149856635D01*
X147530629Y-150018138D01*
X147423201Y-150175621D01*
X147368293Y-150220621D01*
X147297768Y-150228792D01*
X147234021Y-150197538D01*
X147213324Y-150173054D01*
X147132822Y-150048617D01*
X147132820Y-150048614D01*
X147130014Y-150044277D01*
X146979670Y-149879051D01*
X146975619Y-149875852D01*
X146975615Y-149875848D01*
X146808414Y-149743800D01*
X146808410Y-149743798D01*
X146804359Y-149740598D01*
X146608789Y-149632638D01*
X146603920Y-149630914D01*
X146603916Y-149630912D01*
X146403087Y-149559795D01*
X146403083Y-149559794D01*
X146398212Y-149558069D01*
X146393119Y-149557162D01*
X146393116Y-149557161D01*
X146183373Y-149519800D01*
X146183367Y-149519799D01*
X146178284Y-149518894D01*
X146104452Y-149517992D01*
X145960081Y-149516228D01*
X145960079Y-149516228D01*
X145954911Y-149516165D01*
X145734091Y-149549955D01*
X145521756Y-149619357D01*
X145491443Y-149635137D01*
X145373720Y-149696420D01*
X145323607Y-149722507D01*
X145319474Y-149725610D01*
X145319471Y-149725612D01*
X145171191Y-149836944D01*
X145144965Y-149856635D01*
X144990629Y-150018138D01*
X144883201Y-150175621D01*
X144828293Y-150220621D01*
X144757768Y-150228792D01*
X144694021Y-150197538D01*
X144673324Y-150173054D01*
X144592822Y-150048617D01*
X144592820Y-150048614D01*
X144590014Y-150044277D01*
X144439670Y-149879051D01*
X144435619Y-149875852D01*
X144435615Y-149875848D01*
X144268414Y-149743800D01*
X144268410Y-149743798D01*
X144264359Y-149740598D01*
X144068789Y-149632638D01*
X144063920Y-149630914D01*
X144063916Y-149630912D01*
X143863087Y-149559795D01*
X143863083Y-149559794D01*
X143858212Y-149558069D01*
X143853119Y-149557162D01*
X143853116Y-149557161D01*
X143643373Y-149519800D01*
X143643367Y-149519799D01*
X143638284Y-149518894D01*
X143564452Y-149517992D01*
X143420081Y-149516228D01*
X143420079Y-149516228D01*
X143414911Y-149516165D01*
X143194091Y-149549955D01*
X142981756Y-149619357D01*
X142951443Y-149635137D01*
X142833720Y-149696420D01*
X142783607Y-149722507D01*
X142779474Y-149725610D01*
X142779471Y-149725612D01*
X142631191Y-149836944D01*
X142604965Y-149856635D01*
X142450629Y-150018138D01*
X142343201Y-150175621D01*
X142288293Y-150220621D01*
X142217768Y-150228792D01*
X142154021Y-150197538D01*
X142133324Y-150173054D01*
X142052822Y-150048617D01*
X142052820Y-150048614D01*
X142050014Y-150044277D01*
X141899670Y-149879051D01*
X141895619Y-149875852D01*
X141895615Y-149875848D01*
X141728414Y-149743800D01*
X141728410Y-149743798D01*
X141724359Y-149740598D01*
X141528789Y-149632638D01*
X141523920Y-149630914D01*
X141523916Y-149630912D01*
X141323087Y-149559795D01*
X141323083Y-149559794D01*
X141318212Y-149558069D01*
X141313119Y-149557162D01*
X141313116Y-149557161D01*
X141103373Y-149519800D01*
X141103367Y-149519799D01*
X141098284Y-149518894D01*
X141024452Y-149517992D01*
X140880081Y-149516228D01*
X140880079Y-149516228D01*
X140874911Y-149516165D01*
X140654091Y-149549955D01*
X140441756Y-149619357D01*
X140411443Y-149635137D01*
X140293720Y-149696420D01*
X140243607Y-149722507D01*
X140239474Y-149725610D01*
X140239471Y-149725612D01*
X140091191Y-149836944D01*
X140064965Y-149856635D01*
X139910629Y-150018138D01*
X139803201Y-150175621D01*
X139748293Y-150220621D01*
X139677768Y-150228792D01*
X139614021Y-150197538D01*
X139593324Y-150173054D01*
X139512822Y-150048617D01*
X139512820Y-150048614D01*
X139510014Y-150044277D01*
X139359670Y-149879051D01*
X139355619Y-149875852D01*
X139355615Y-149875848D01*
X139188414Y-149743800D01*
X139188410Y-149743798D01*
X139184359Y-149740598D01*
X138988789Y-149632638D01*
X138983920Y-149630914D01*
X138983916Y-149630912D01*
X138783087Y-149559795D01*
X138783083Y-149559794D01*
X138778212Y-149558069D01*
X138773119Y-149557162D01*
X138773116Y-149557161D01*
X138725503Y-149548680D01*
X138661945Y-149517042D01*
X138625582Y-149456065D01*
X138622289Y-149411463D01*
X138633314Y-149306565D01*
X138634004Y-149300000D01*
X138615815Y-149126944D01*
X138614732Y-149116635D01*
X138614732Y-149116633D01*
X138614042Y-149110072D01*
X138555027Y-148928444D01*
X138459540Y-148763056D01*
X138331753Y-148621134D01*
X138209736Y-148532483D01*
X138182594Y-148512763D01*
X138182593Y-148512762D01*
X138177252Y-148508882D01*
X138171226Y-148506199D01*
X138171219Y-148506195D01*
X138124028Y-148485185D01*
X138069932Y-148439205D01*
X138053604Y-148400052D01*
X138053542Y-148400072D01*
X138053296Y-148399314D01*
X138053295Y-148399311D01*
X137994527Y-148218444D01*
X137899040Y-148053056D01*
X137771253Y-147911134D01*
X137652576Y-147824910D01*
X137622094Y-147802763D01*
X137622093Y-147802762D01*
X137616752Y-147798882D01*
X137610724Y-147796198D01*
X137610722Y-147796197D01*
X137448319Y-147723891D01*
X137448318Y-147723891D01*
X137442288Y-147721206D01*
X137346841Y-147700918D01*
X137261944Y-147682872D01*
X137261939Y-147682872D01*
X137255487Y-147681500D01*
X137064513Y-147681500D01*
X137058061Y-147682872D01*
X137058056Y-147682872D01*
X136973159Y-147700918D01*
X136877712Y-147721206D01*
X136871682Y-147723891D01*
X136871681Y-147723891D01*
X136709278Y-147796197D01*
X136709276Y-147796198D01*
X136703248Y-147798882D01*
X136697907Y-147802762D01*
X136697906Y-147802763D01*
X136667424Y-147824910D01*
X136548747Y-147911134D01*
X136420960Y-148053056D01*
X136325473Y-148218444D01*
X136266458Y-148400072D01*
X136265768Y-148406633D01*
X136265768Y-148406635D01*
X136262345Y-148439205D01*
X136246496Y-148590000D01*
X136247186Y-148596565D01*
X136265286Y-148768774D01*
X136266458Y-148779928D01*
X136325473Y-148961556D01*
X136420960Y-149126944D01*
X136548747Y-149268866D01*
X136703248Y-149381118D01*
X136709274Y-149383801D01*
X136709281Y-149383805D01*
X136756472Y-149404815D01*
X136810568Y-149450795D01*
X136826896Y-149489948D01*
X136826958Y-149489928D01*
X136828999Y-149496209D01*
X136828999Y-149496210D01*
X136870993Y-149625453D01*
X136873021Y-149696420D01*
X136836358Y-149757218D01*
X136772646Y-149788544D01*
X136702112Y-149780451D01*
X136673068Y-149763271D01*
X136648414Y-149743800D01*
X136648410Y-149743798D01*
X136644359Y-149740598D01*
X136448789Y-149632638D01*
X136443920Y-149630914D01*
X136443916Y-149630912D01*
X136243087Y-149559795D01*
X136243083Y-149559794D01*
X136238212Y-149558069D01*
X136233119Y-149557162D01*
X136233116Y-149557161D01*
X136023373Y-149519800D01*
X136023367Y-149519799D01*
X136018284Y-149518894D01*
X135944452Y-149517992D01*
X135800081Y-149516228D01*
X135800079Y-149516228D01*
X135794911Y-149516165D01*
X135574091Y-149549955D01*
X135569172Y-149551563D01*
X135569171Y-149551563D01*
X135547144Y-149558762D01*
X135476180Y-149560913D01*
X135415319Y-149524356D01*
X135383883Y-149460698D01*
X135382000Y-149438997D01*
X135382000Y-148512158D01*
X135402002Y-148444037D01*
X135418905Y-148423063D01*
X135521083Y-148320885D01*
X135651767Y-148146312D01*
X135756276Y-147954918D01*
X135770775Y-147916045D01*
X135830909Y-147754819D01*
X135830910Y-147754815D01*
X135832483Y-147750598D01*
X135839176Y-147719834D01*
X135877879Y-147541917D01*
X135878837Y-147537513D01*
X135891530Y-147360041D01*
X135892953Y-147348143D01*
X135895576Y-147332552D01*
X135895729Y-147320000D01*
X135891773Y-147292376D01*
X135890500Y-147274514D01*
X135890500Y-144913072D01*
X135910502Y-144844951D01*
X135964158Y-144798458D01*
X136034432Y-144788354D01*
X136099012Y-144817848D01*
X136125619Y-144850072D01*
X136154412Y-144899943D01*
X136158830Y-144904850D01*
X136158831Y-144904851D01*
X136174768Y-144922551D01*
X136282199Y-145041865D01*
X136327249Y-145074596D01*
X136428489Y-145148151D01*
X136436700Y-145154117D01*
X136442728Y-145156801D01*
X136442730Y-145156802D01*
X136605135Y-145229109D01*
X136605137Y-145229110D01*
X136608971Y-145230817D01*
X136608973Y-145230818D01*
X136611164Y-145231793D01*
X136610986Y-145232194D01*
X136666291Y-145270014D01*
X136693926Y-145335411D01*
X136681817Y-145405367D01*
X136662386Y-145434076D01*
X136617088Y-145484385D01*
X136521601Y-145649773D01*
X136462586Y-145831401D01*
X136461896Y-145837962D01*
X136461896Y-145837964D01*
X136452381Y-145928500D01*
X136442624Y-146021329D01*
X136443314Y-146027894D01*
X136461757Y-146203365D01*
X136462586Y-146211257D01*
X136521601Y-146392885D01*
X136617088Y-146558273D01*
X136621506Y-146563180D01*
X136621507Y-146563181D01*
X136703367Y-146654096D01*
X136744875Y-146700195D01*
X136899376Y-146812447D01*
X136905404Y-146815131D01*
X136905406Y-146815132D01*
X137064824Y-146886109D01*
X137073840Y-146890123D01*
X137167241Y-146909976D01*
X137254184Y-146928457D01*
X137254189Y-146928457D01*
X137260641Y-146929829D01*
X137451615Y-146929829D01*
X137458067Y-146928457D01*
X137458072Y-146928457D01*
X137545015Y-146909976D01*
X137638416Y-146890123D01*
X137647432Y-146886109D01*
X137806850Y-146815132D01*
X137806852Y-146815131D01*
X137812880Y-146812447D01*
X137820051Y-146807237D01*
X137962037Y-146704078D01*
X137962039Y-146704076D01*
X137967381Y-146700195D01*
X137971803Y-146695284D01*
X137975359Y-146691335D01*
X138035806Y-146654096D01*
X138044685Y-146652187D01*
X138050560Y-146652002D01*
X138070014Y-146646350D01*
X138089371Y-146642342D01*
X138101601Y-146640797D01*
X138101602Y-146640797D01*
X138109468Y-146639803D01*
X138116839Y-146636884D01*
X138116841Y-146636884D01*
X138150583Y-146623525D01*
X138161813Y-146619680D01*
X138196654Y-146609558D01*
X138196655Y-146609558D01*
X138204264Y-146607347D01*
X138211083Y-146603314D01*
X138211088Y-146603312D01*
X138221699Y-146597036D01*
X138239447Y-146588341D01*
X138258288Y-146580881D01*
X138294058Y-146554893D01*
X138303978Y-146548377D01*
X138335206Y-146529909D01*
X138335209Y-146529907D01*
X138342033Y-146525871D01*
X138356354Y-146511550D01*
X138371388Y-146498709D01*
X138381365Y-146491460D01*
X138387778Y-146486801D01*
X138415969Y-146452724D01*
X138423959Y-146443945D01*
X138576917Y-146290987D01*
X138639229Y-146256961D01*
X138710044Y-146262026D01*
X138766880Y-146304573D01*
X138785845Y-146341147D01*
X138802656Y-146392885D01*
X138805473Y-146401556D01*
X138808776Y-146407278D01*
X138808777Y-146407279D01*
X138829179Y-146442616D01*
X138900960Y-146566944D01*
X138905378Y-146571851D01*
X138905379Y-146571852D01*
X139023236Y-146702745D01*
X139028747Y-146708866D01*
X139097566Y-146758866D01*
X139164143Y-146807237D01*
X139183248Y-146821118D01*
X139189276Y-146823802D01*
X139189278Y-146823803D01*
X139351681Y-146896109D01*
X139357712Y-146898794D01*
X139451112Y-146918647D01*
X139538056Y-146937128D01*
X139538061Y-146937128D01*
X139544513Y-146938500D01*
X139735487Y-146938500D01*
X139741939Y-146937128D01*
X139741944Y-146937128D01*
X139828888Y-146918647D01*
X139922288Y-146898794D01*
X139928319Y-146896109D01*
X140090722Y-146823803D01*
X140090724Y-146823802D01*
X140096752Y-146821118D01*
X140115858Y-146807237D01*
X140182434Y-146758866D01*
X140251253Y-146708866D01*
X140256764Y-146702745D01*
X140374621Y-146571852D01*
X140374622Y-146571851D01*
X140379040Y-146566944D01*
X140450821Y-146442616D01*
X140471223Y-146407279D01*
X140471224Y-146407278D01*
X140474527Y-146401556D01*
X140533542Y-146219928D01*
X140534454Y-146211257D01*
X140548249Y-146080000D01*
X140550907Y-146054706D01*
X140577920Y-145989050D01*
X140587122Y-145978782D01*
X140861499Y-145704405D01*
X140923811Y-145670379D01*
X140950594Y-145667500D01*
X141225995Y-145667500D01*
X141294116Y-145687502D01*
X141340609Y-145741158D01*
X141350713Y-145811432D01*
X141345829Y-145832431D01*
X141336458Y-145861273D01*
X141335768Y-145867834D01*
X141335768Y-145867836D01*
X141317773Y-146039050D01*
X141316496Y-146051201D01*
X141317186Y-146057766D01*
X141334890Y-146226206D01*
X141336458Y-146241129D01*
X141395473Y-146422757D01*
X141398776Y-146428479D01*
X141398777Y-146428480D01*
X141407706Y-146443945D01*
X141490960Y-146588145D01*
X141495378Y-146593052D01*
X141495379Y-146593053D01*
X141601189Y-146710567D01*
X141618747Y-146730067D01*
X141663730Y-146762749D01*
X141746409Y-146822819D01*
X141773248Y-146842319D01*
X141779276Y-146845003D01*
X141779278Y-146845004D01*
X141941681Y-146917310D01*
X141947712Y-146919995D01*
X142028316Y-146937128D01*
X142128056Y-146958329D01*
X142128061Y-146958329D01*
X142134513Y-146959701D01*
X142325487Y-146959701D01*
X142331939Y-146958329D01*
X142331944Y-146958329D01*
X142431684Y-146937128D01*
X142512288Y-146919995D01*
X142518319Y-146917310D01*
X142680722Y-146845004D01*
X142680724Y-146845003D01*
X142686752Y-146842319D01*
X142713592Y-146822819D01*
X142796270Y-146762749D01*
X142841253Y-146730067D01*
X142858811Y-146710567D01*
X142964621Y-146593053D01*
X142964622Y-146593052D01*
X142969040Y-146588145D01*
X142998858Y-146536499D01*
X143050239Y-146487507D01*
X143107976Y-146473500D01*
X143835396Y-146473500D01*
X143903517Y-146493502D01*
X143944514Y-146536498D01*
X143990960Y-146616944D01*
X143995378Y-146621851D01*
X143995379Y-146621852D01*
X144114325Y-146753955D01*
X144118747Y-146758866D01*
X144273248Y-146871118D01*
X144279276Y-146873802D01*
X144279278Y-146873803D01*
X144441681Y-146946109D01*
X144447712Y-146948794D01*
X144541113Y-146968647D01*
X144628056Y-146987128D01*
X144628061Y-146987128D01*
X144634513Y-146988500D01*
X144825487Y-146988500D01*
X144831939Y-146987128D01*
X144831944Y-146987128D01*
X144918887Y-146968647D01*
X145012288Y-146948794D01*
X145018319Y-146946109D01*
X145180722Y-146873803D01*
X145180724Y-146873802D01*
X145186752Y-146871118D01*
X145341253Y-146758866D01*
X145345675Y-146753955D01*
X145464621Y-146621852D01*
X145464622Y-146621851D01*
X145469040Y-146616944D01*
X145537303Y-146498709D01*
X145561223Y-146457279D01*
X145561224Y-146457278D01*
X145564527Y-146451556D01*
X145623542Y-146269928D01*
X145629709Y-146211257D01*
X145632348Y-146186144D01*
X145640907Y-146104706D01*
X145667920Y-146039050D01*
X145677122Y-146028782D01*
X146346085Y-145359819D01*
X146408397Y-145325793D01*
X146479212Y-145330858D01*
X146536048Y-145373405D01*
X146560859Y-145439925D01*
X146544299Y-145511913D01*
X146465473Y-145648444D01*
X146406458Y-145830072D01*
X146405768Y-145836633D01*
X146405768Y-145836635D01*
X146405589Y-145838336D01*
X146386496Y-146020000D01*
X146406458Y-146209928D01*
X146465473Y-146391556D01*
X146468776Y-146397278D01*
X146468777Y-146397279D01*
X146474551Y-146407279D01*
X146560960Y-146556944D01*
X146565378Y-146561851D01*
X146565379Y-146561852D01*
X146680350Y-146689540D01*
X146688747Y-146698866D01*
X146843248Y-146811118D01*
X146849276Y-146813802D01*
X146849278Y-146813803D01*
X146984041Y-146873803D01*
X147017712Y-146888794D01*
X147111113Y-146908647D01*
X147198056Y-146927128D01*
X147198061Y-146927128D01*
X147204513Y-146928500D01*
X147395487Y-146928500D01*
X147401939Y-146927128D01*
X147401944Y-146927128D01*
X147488887Y-146908647D01*
X147582288Y-146888794D01*
X147615959Y-146873803D01*
X147750722Y-146813803D01*
X147750724Y-146813802D01*
X147756752Y-146811118D01*
X147911253Y-146698866D01*
X147919650Y-146689540D01*
X148034621Y-146561852D01*
X148034622Y-146561851D01*
X148039040Y-146556944D01*
X148125449Y-146407279D01*
X148131223Y-146397279D01*
X148131224Y-146397278D01*
X148134527Y-146391556D01*
X148193542Y-146209928D01*
X148210907Y-146044708D01*
X148237920Y-145979051D01*
X148247122Y-145968782D01*
X149019501Y-145196404D01*
X149081813Y-145162379D01*
X149108596Y-145159500D01*
X149152524Y-145159500D01*
X149220645Y-145179502D01*
X149267138Y-145233158D01*
X149277242Y-145303432D01*
X149246161Y-145369808D01*
X149142661Y-145484757D01*
X149047174Y-145650145D01*
X148988159Y-145831773D01*
X148987469Y-145838334D01*
X148987469Y-145838336D01*
X148977993Y-145928500D01*
X148968197Y-146021701D01*
X148968887Y-146028266D01*
X148972651Y-146064074D01*
X148988159Y-146211629D01*
X149047174Y-146393257D01*
X149050477Y-146398979D01*
X149050478Y-146398980D01*
X149056252Y-146408980D01*
X149142661Y-146558645D01*
X149147079Y-146563552D01*
X149147080Y-146563553D01*
X149265691Y-146695284D01*
X149270448Y-146700567D01*
X149424949Y-146812819D01*
X149430977Y-146815503D01*
X149430979Y-146815504D01*
X149593382Y-146887810D01*
X149599413Y-146890495D01*
X149692814Y-146910348D01*
X149779757Y-146928829D01*
X149779762Y-146928829D01*
X149786214Y-146930201D01*
X149977188Y-146930201D01*
X149983640Y-146928829D01*
X149983645Y-146928829D01*
X150070588Y-146910348D01*
X150163989Y-146890495D01*
X150170020Y-146887810D01*
X150332423Y-146815504D01*
X150332425Y-146815503D01*
X150338453Y-146812819D01*
X150492954Y-146700567D01*
X150497711Y-146695284D01*
X150616322Y-146563553D01*
X150616323Y-146563552D01*
X150620741Y-146558645D01*
X150707150Y-146408980D01*
X150712924Y-146398980D01*
X150712925Y-146398979D01*
X150716228Y-146393257D01*
X150775243Y-146211629D01*
X150792608Y-146046407D01*
X150819621Y-145980751D01*
X150828823Y-145970483D01*
X150833901Y-145965405D01*
X150896213Y-145931379D01*
X150922996Y-145928500D01*
X151383428Y-145928500D01*
X151451549Y-145948502D01*
X151498042Y-146002158D01*
X151508738Y-146041329D01*
X151526458Y-146209928D01*
X151585473Y-146391556D01*
X151588776Y-146397278D01*
X151588777Y-146397279D01*
X151594551Y-146407279D01*
X151680960Y-146556944D01*
X151685378Y-146561851D01*
X151685379Y-146561852D01*
X151800350Y-146689540D01*
X151808747Y-146698866D01*
X151963248Y-146811118D01*
X151969276Y-146813802D01*
X151969278Y-146813803D01*
X152104041Y-146873803D01*
X152137712Y-146888794D01*
X152231113Y-146908647D01*
X152318056Y-146927128D01*
X152318061Y-146927128D01*
X152324513Y-146928500D01*
X152515487Y-146928500D01*
X152521939Y-146927128D01*
X152521944Y-146927128D01*
X152608887Y-146908647D01*
X152702288Y-146888794D01*
X152735959Y-146873803D01*
X152870722Y-146813803D01*
X152870724Y-146813802D01*
X152876752Y-146811118D01*
X152948671Y-146758866D01*
X153024249Y-146703955D01*
X153031253Y-146698866D01*
X153035668Y-146693963D01*
X153040580Y-146689540D01*
X153042040Y-146691162D01*
X153093846Y-146659251D01*
X153131917Y-146655965D01*
X153131909Y-146655702D01*
X153139835Y-146655453D01*
X153139836Y-146655453D01*
X153199986Y-146653562D01*
X153203945Y-146653500D01*
X153231856Y-146653500D01*
X153235791Y-146653003D01*
X153235856Y-146652995D01*
X153247693Y-146652062D01*
X153279951Y-146651048D01*
X153283970Y-146650922D01*
X153291889Y-146650673D01*
X153311343Y-146645021D01*
X153330700Y-146641013D01*
X153342930Y-146639468D01*
X153342931Y-146639468D01*
X153350797Y-146638474D01*
X153358168Y-146635555D01*
X153358170Y-146635555D01*
X153391912Y-146622196D01*
X153403142Y-146618351D01*
X153437983Y-146608229D01*
X153437984Y-146608229D01*
X153445593Y-146606018D01*
X153452412Y-146601985D01*
X153452417Y-146601983D01*
X153463028Y-146595707D01*
X153480776Y-146587012D01*
X153499617Y-146579552D01*
X153514630Y-146568645D01*
X153535387Y-146553564D01*
X153545307Y-146547048D01*
X153576535Y-146528580D01*
X153576538Y-146528578D01*
X153583362Y-146524542D01*
X153597683Y-146510221D01*
X153612717Y-146497380D01*
X153629107Y-146485472D01*
X153657298Y-146451395D01*
X153665288Y-146442616D01*
X153870617Y-146237287D01*
X153932929Y-146203261D01*
X154003744Y-146208326D01*
X154060580Y-146250873D01*
X154079543Y-146287443D01*
X154117174Y-146403257D01*
X154120477Y-146408979D01*
X154120478Y-146408980D01*
X154145059Y-146451556D01*
X154212661Y-146568645D01*
X154217079Y-146573552D01*
X154217080Y-146573553D01*
X154334605Y-146704078D01*
X154340448Y-146710567D01*
X154372632Y-146733950D01*
X154482540Y-146813803D01*
X154494949Y-146822819D01*
X154500977Y-146825503D01*
X154500979Y-146825504D01*
X154663382Y-146897810D01*
X154669413Y-146900495D01*
X154748521Y-146917310D01*
X154849757Y-146938829D01*
X154849762Y-146938829D01*
X154856214Y-146940201D01*
X155047188Y-146940201D01*
X155053640Y-146938829D01*
X155053645Y-146938829D01*
X155154881Y-146917310D01*
X155233989Y-146900495D01*
X155240020Y-146897810D01*
X155402423Y-146825504D01*
X155402425Y-146825503D01*
X155408453Y-146822819D01*
X155420863Y-146813803D01*
X155530770Y-146733950D01*
X155562954Y-146710567D01*
X155568797Y-146704078D01*
X155686322Y-146573553D01*
X155686323Y-146573552D01*
X155690741Y-146568645D01*
X155758343Y-146451556D01*
X155782924Y-146408980D01*
X155782925Y-146408979D01*
X155786228Y-146403257D01*
X155845243Y-146221629D01*
X155862608Y-146056407D01*
X155889621Y-145990751D01*
X155898823Y-145980483D01*
X158534405Y-143344902D01*
X158596717Y-143310876D01*
X158667533Y-143315941D01*
G37*
%TD.AperFunction*%
%TA.AperFunction,Conductor*%
G36*
X153722803Y-133565606D02*
G01*
X153723764Y-133565956D01*
X153728757Y-133568284D01*
X153830686Y-133595596D01*
X153944598Y-133626119D01*
X153944600Y-133626119D01*
X153949913Y-133627543D01*
X154178000Y-133647498D01*
X154406087Y-133627543D01*
X154411399Y-133626120D01*
X154416819Y-133625164D01*
X154417218Y-133627428D01*
X154478369Y-133628887D01*
X154537163Y-133668684D01*
X154559831Y-133709965D01*
X154580346Y-133773102D01*
X154613473Y-133875056D01*
X154708960Y-134040444D01*
X154713378Y-134045351D01*
X154713379Y-134045352D01*
X154818074Y-134161628D01*
X154836747Y-134182366D01*
X154991248Y-134294618D01*
X154997276Y-134297302D01*
X154997278Y-134297303D01*
X155137398Y-134359688D01*
X155165712Y-134372294D01*
X155259112Y-134392147D01*
X155346056Y-134410628D01*
X155346061Y-134410628D01*
X155352513Y-134412000D01*
X155543487Y-134412000D01*
X155549943Y-134410628D01*
X155549950Y-134410627D01*
X155569200Y-134406535D01*
X155639991Y-134411936D01*
X155696624Y-134454752D01*
X155721118Y-134521389D01*
X155721398Y-134529781D01*
X155721398Y-135194131D01*
X155720871Y-135205314D01*
X155719196Y-135212807D01*
X155719445Y-135220733D01*
X155719445Y-135220734D01*
X155721336Y-135280884D01*
X155721398Y-135284843D01*
X155721398Y-135312754D01*
X155721895Y-135316688D01*
X155721895Y-135316689D01*
X155721903Y-135316754D01*
X155722836Y-135328591D01*
X155724225Y-135372787D01*
X155729876Y-135392237D01*
X155733885Y-135411598D01*
X155736424Y-135431695D01*
X155739343Y-135439066D01*
X155739343Y-135439068D01*
X155752702Y-135472810D01*
X155756547Y-135484040D01*
X155766669Y-135518881D01*
X155768880Y-135526491D01*
X155772913Y-135533310D01*
X155772915Y-135533315D01*
X155779191Y-135543926D01*
X155787886Y-135561674D01*
X155795346Y-135580515D01*
X155800008Y-135586931D01*
X155800008Y-135586932D01*
X155821334Y-135616285D01*
X155827850Y-135626205D01*
X155838372Y-135643996D01*
X155850356Y-135664260D01*
X155864677Y-135678581D01*
X155877517Y-135693614D01*
X155889426Y-135710005D01*
X155906396Y-135724044D01*
X155923503Y-135738196D01*
X155932282Y-135746186D01*
X157110770Y-136924674D01*
X157144796Y-136986986D01*
X157147675Y-137013769D01*
X157147675Y-138727502D01*
X157127673Y-138795623D01*
X157074017Y-138842116D01*
X157021675Y-138853502D01*
X156960688Y-138853502D01*
X156954236Y-138854874D01*
X156954231Y-138854874D01*
X156878795Y-138870909D01*
X156773887Y-138893208D01*
X156599423Y-138970884D01*
X156598621Y-138969082D01*
X156538768Y-138983596D01*
X156471678Y-138960369D01*
X156427796Y-138904558D01*
X156419465Y-138870909D01*
X156406924Y-138751586D01*
X156406924Y-138751584D01*
X156406234Y-138745023D01*
X156347219Y-138563395D01*
X156251732Y-138398007D01*
X156148532Y-138283391D01*
X156128367Y-138260996D01*
X156128366Y-138260995D01*
X156123945Y-138256085D01*
X156024849Y-138184087D01*
X155974786Y-138147714D01*
X155974785Y-138147713D01*
X155969444Y-138143833D01*
X155963416Y-138141149D01*
X155963414Y-138141148D01*
X155801011Y-138068842D01*
X155801010Y-138068842D01*
X155794980Y-138066157D01*
X155701580Y-138046304D01*
X155614636Y-138027823D01*
X155614631Y-138027823D01*
X155608179Y-138026451D01*
X155445500Y-138026451D01*
X155377379Y-138006449D01*
X155330886Y-137952793D01*
X155319500Y-137900451D01*
X155319500Y-135843164D01*
X155320027Y-135831981D01*
X155321702Y-135824488D01*
X155319562Y-135756397D01*
X155319500Y-135752440D01*
X155319500Y-135724540D01*
X155318996Y-135720549D01*
X155318063Y-135708707D01*
X155317991Y-135706389D01*
X155316674Y-135664507D01*
X155314462Y-135656893D01*
X155314461Y-135656888D01*
X155311023Y-135645055D01*
X155307012Y-135625691D01*
X155305467Y-135613460D01*
X155304474Y-135605599D01*
X155301557Y-135598232D01*
X155301556Y-135598227D01*
X155288198Y-135564488D01*
X155284354Y-135553261D01*
X155279919Y-135537998D01*
X155272018Y-135510803D01*
X155264233Y-135497639D01*
X155261707Y-135493368D01*
X155253012Y-135475620D01*
X155245552Y-135456779D01*
X155232685Y-135439068D01*
X155219564Y-135421009D01*
X155213048Y-135411089D01*
X155194580Y-135379861D01*
X155194578Y-135379858D01*
X155190542Y-135373034D01*
X155176221Y-135358713D01*
X155163380Y-135343679D01*
X155158082Y-135336387D01*
X155151472Y-135327289D01*
X155117395Y-135299098D01*
X155108616Y-135291108D01*
X153590611Y-133773102D01*
X153556585Y-133710790D01*
X153561650Y-133639974D01*
X153604197Y-133583139D01*
X153670717Y-133558328D01*
X153722803Y-133565606D01*
G37*
%TD.AperFunction*%
%TA.AperFunction,Conductor*%
G36*
X142305512Y-122373870D02*
G01*
X142312095Y-122379999D01*
X142839595Y-122907499D01*
X142873621Y-122969811D01*
X142876500Y-122996594D01*
X142876500Y-135004991D01*
X142856498Y-135073112D01*
X142802842Y-135119605D01*
X142750500Y-135130991D01*
X142665110Y-135130991D01*
X142658658Y-135132363D01*
X142658653Y-135132363D01*
X142571709Y-135150844D01*
X142478309Y-135170697D01*
X142472279Y-135173382D01*
X142472278Y-135173382D01*
X142309875Y-135245688D01*
X142309873Y-135245689D01*
X142303845Y-135248373D01*
X142149344Y-135360625D01*
X142144923Y-135365535D01*
X142144922Y-135365536D01*
X142030655Y-135492443D01*
X142021557Y-135502547D01*
X141926070Y-135667935D01*
X141867055Y-135849563D01*
X141866365Y-135856124D01*
X141866365Y-135856126D01*
X141865847Y-135861056D01*
X141847093Y-136039491D01*
X141850596Y-136072816D01*
X141837825Y-136142652D01*
X141789323Y-136194500D01*
X141720491Y-136211895D01*
X141651226Y-136187923D01*
X141616595Y-136162762D01*
X141616592Y-136162760D01*
X141611254Y-136158882D01*
X141605226Y-136156198D01*
X141605224Y-136156197D01*
X141442821Y-136083891D01*
X141442820Y-136083891D01*
X141436790Y-136081206D01*
X141343389Y-136061353D01*
X141256446Y-136042872D01*
X141256441Y-136042872D01*
X141249989Y-136041500D01*
X141059015Y-136041500D01*
X141052563Y-136042872D01*
X141052558Y-136042872D01*
X140965615Y-136061353D01*
X140872214Y-136081206D01*
X140866184Y-136083891D01*
X140866183Y-136083891D01*
X140703780Y-136156197D01*
X140703778Y-136156198D01*
X140697750Y-136158882D01*
X140543249Y-136271134D01*
X140538828Y-136276044D01*
X140538827Y-136276045D01*
X140454584Y-136369607D01*
X140415462Y-136413056D01*
X140412161Y-136418774D01*
X140383181Y-136468968D01*
X140331798Y-136517961D01*
X140262085Y-136531397D01*
X140196174Y-136505010D01*
X140184967Y-136495063D01*
X139716704Y-136026800D01*
X139193090Y-135503185D01*
X139159065Y-135440875D01*
X139164130Y-135370060D01*
X139206677Y-135313224D01*
X139230937Y-135298986D01*
X139246820Y-135291914D01*
X139246825Y-135291911D01*
X139252858Y-135289225D01*
X139258890Y-135284843D01*
X139358038Y-135212807D01*
X139407359Y-135176973D01*
X139440385Y-135140294D01*
X139530727Y-135039959D01*
X139530728Y-135039958D01*
X139535146Y-135035051D01*
X139623946Y-134881245D01*
X139627329Y-134875386D01*
X139627330Y-134875385D01*
X139630633Y-134869663D01*
X139689648Y-134688035D01*
X139692990Y-134656244D01*
X139705478Y-134537422D01*
X139732491Y-134471766D01*
X139790713Y-134431136D01*
X139804591Y-134427346D01*
X139826919Y-134422600D01*
X139916956Y-134403462D01*
X139932739Y-134396435D01*
X140085390Y-134328471D01*
X140085392Y-134328470D01*
X140091420Y-134325786D01*
X140106869Y-134314562D01*
X140146825Y-134285532D01*
X140245921Y-134213534D01*
X140255605Y-134202779D01*
X140369289Y-134076520D01*
X140369290Y-134076519D01*
X140373708Y-134071612D01*
X140402742Y-134021324D01*
X140454123Y-133972332D01*
X140523837Y-133958895D01*
X140589748Y-133985282D01*
X140631693Y-134045389D01*
X140680973Y-134197056D01*
X140684276Y-134202778D01*
X140684277Y-134202779D01*
X140692728Y-134217417D01*
X140776460Y-134362444D01*
X140780878Y-134367351D01*
X140780879Y-134367352D01*
X140873505Y-134470224D01*
X140904247Y-134504366D01*
X141058748Y-134616618D01*
X141064776Y-134619302D01*
X141064778Y-134619303D01*
X141204415Y-134681473D01*
X141233212Y-134694294D01*
X141326613Y-134714147D01*
X141413556Y-134732628D01*
X141413561Y-134732628D01*
X141420013Y-134734000D01*
X141610987Y-134734000D01*
X141617439Y-134732628D01*
X141617444Y-134732628D01*
X141704387Y-134714147D01*
X141797788Y-134694294D01*
X141826585Y-134681473D01*
X141966222Y-134619303D01*
X141966224Y-134619302D01*
X141972252Y-134616618D01*
X142126753Y-134504366D01*
X142157495Y-134470224D01*
X142250121Y-134367352D01*
X142250122Y-134367351D01*
X142254540Y-134362444D01*
X142338272Y-134217417D01*
X142346723Y-134202779D01*
X142346724Y-134202778D01*
X142350027Y-134197056D01*
X142409042Y-134015428D01*
X142412211Y-133985282D01*
X142428314Y-133832065D01*
X142429004Y-133825500D01*
X142410994Y-133654142D01*
X142409732Y-133642135D01*
X142409732Y-133642133D01*
X142409042Y-133635572D01*
X142350027Y-133453944D01*
X142254540Y-133288556D01*
X142126753Y-133146634D01*
X142006554Y-133059304D01*
X141963200Y-133003082D01*
X141957125Y-132932345D01*
X141966420Y-132904119D01*
X142020459Y-132788230D01*
X142020461Y-132788225D01*
X142022784Y-132783243D01*
X142025608Y-132772706D01*
X142080619Y-132567402D01*
X142080619Y-132567400D01*
X142082043Y-132562087D01*
X142101998Y-132334000D01*
X142082043Y-132105913D01*
X142080619Y-132100598D01*
X142024207Y-131890067D01*
X142024206Y-131890065D01*
X142022784Y-131884757D01*
X142011167Y-131859844D01*
X141928349Y-131682238D01*
X141928346Y-131682233D01*
X141926023Y-131677251D01*
X141852598Y-131572389D01*
X141797857Y-131494211D01*
X141797855Y-131494208D01*
X141794698Y-131489700D01*
X141632800Y-131327802D01*
X141628292Y-131324645D01*
X141628289Y-131324643D01*
X141487012Y-131225720D01*
X141445249Y-131196477D01*
X141440267Y-131194154D01*
X141440262Y-131194151D01*
X141406043Y-131178195D01*
X141352758Y-131131278D01*
X141333297Y-131063001D01*
X141353839Y-130995041D01*
X141406043Y-130949805D01*
X141440262Y-130933849D01*
X141440267Y-130933846D01*
X141445249Y-130931523D01*
X141583942Y-130834409D01*
X141628289Y-130803357D01*
X141628292Y-130803355D01*
X141632800Y-130800198D01*
X141794698Y-130638300D01*
X141926023Y-130450749D01*
X141928346Y-130445767D01*
X141928349Y-130445762D01*
X142020461Y-130248225D01*
X142020461Y-130248224D01*
X142022784Y-130243243D01*
X142032967Y-130205242D01*
X142080619Y-130027402D01*
X142080619Y-130027400D01*
X142082043Y-130022087D01*
X142101998Y-129794000D01*
X142082043Y-129565913D01*
X142022784Y-129344757D01*
X142020461Y-129339775D01*
X141928349Y-129142238D01*
X141928346Y-129142233D01*
X141926023Y-129137251D01*
X141794698Y-128949700D01*
X141632800Y-128787802D01*
X141628292Y-128784645D01*
X141628289Y-128784643D01*
X141479404Y-128680393D01*
X141445249Y-128656477D01*
X141440267Y-128654154D01*
X141440262Y-128654151D01*
X141406043Y-128638195D01*
X141352758Y-128591278D01*
X141333297Y-128523001D01*
X141353839Y-128455041D01*
X141406043Y-128409805D01*
X141440262Y-128393849D01*
X141440267Y-128393846D01*
X141445249Y-128391523D01*
X141583942Y-128294409D01*
X141628289Y-128263357D01*
X141628292Y-128263355D01*
X141632800Y-128260198D01*
X141794698Y-128098300D01*
X141926023Y-127910749D01*
X141928346Y-127905767D01*
X141928349Y-127905762D01*
X142020461Y-127708225D01*
X142020461Y-127708224D01*
X142022784Y-127703243D01*
X142061679Y-127558088D01*
X142080619Y-127487402D01*
X142080619Y-127487400D01*
X142082043Y-127482087D01*
X142101998Y-127254000D01*
X142082043Y-127025913D01*
X142076515Y-127005282D01*
X142024207Y-126810067D01*
X142024206Y-126810065D01*
X142022784Y-126804757D01*
X142019090Y-126796835D01*
X141928349Y-126602238D01*
X141928346Y-126602233D01*
X141926023Y-126597251D01*
X141794698Y-126409700D01*
X141632800Y-126247802D01*
X141628292Y-126244645D01*
X141628289Y-126244643D01*
X141550111Y-126189902D01*
X141445249Y-126116477D01*
X141440267Y-126114154D01*
X141440262Y-126114151D01*
X141406043Y-126098195D01*
X141352758Y-126051278D01*
X141333297Y-125983001D01*
X141353839Y-125915041D01*
X141406043Y-125869805D01*
X141440262Y-125853849D01*
X141440267Y-125853846D01*
X141445249Y-125851523D01*
X141583942Y-125754409D01*
X141628289Y-125723357D01*
X141628292Y-125723355D01*
X141632800Y-125720198D01*
X141794698Y-125558300D01*
X141926023Y-125370749D01*
X141928346Y-125365767D01*
X141928349Y-125365762D01*
X142020461Y-125168225D01*
X142020461Y-125168224D01*
X142022784Y-125163243D01*
X142068440Y-124992856D01*
X142080619Y-124947402D01*
X142080619Y-124947400D01*
X142082043Y-124942087D01*
X142101998Y-124714000D01*
X142082043Y-124485913D01*
X142080619Y-124480598D01*
X142024207Y-124270067D01*
X142024206Y-124270065D01*
X142022784Y-124264757D01*
X142020461Y-124259775D01*
X141928349Y-124062238D01*
X141928346Y-124062233D01*
X141926023Y-124057251D01*
X141794698Y-123869700D01*
X141632800Y-123707802D01*
X141628289Y-123704643D01*
X141624076Y-123701108D01*
X141625027Y-123699974D01*
X141585029Y-123649929D01*
X141577724Y-123579310D01*
X141609758Y-123515951D01*
X141670962Y-123479970D01*
X141688017Y-123476918D01*
X141698816Y-123475745D01*
X141835205Y-123424615D01*
X141951761Y-123337261D01*
X142039115Y-123220705D01*
X142090245Y-123084316D01*
X142097000Y-123022134D01*
X142097000Y-122469094D01*
X142117002Y-122400973D01*
X142170658Y-122354480D01*
X142240932Y-122344376D01*
X142305512Y-122373870D01*
G37*
%TD.AperFunction*%
%TA.AperFunction,Conductor*%
G36*
X137013621Y-117368502D02*
G01*
X137060114Y-117422158D01*
X137071500Y-117474500D01*
X137071500Y-119262134D01*
X137078255Y-119324316D01*
X137129385Y-119460705D01*
X137216739Y-119577261D01*
X137333295Y-119664615D01*
X137469684Y-119715745D01*
X137531866Y-119722500D01*
X138524405Y-119722500D01*
X138592526Y-119742502D01*
X138613501Y-119759405D01*
X138912961Y-120058866D01*
X139206353Y-120352258D01*
X139213887Y-120360537D01*
X139218000Y-120367018D01*
X139260596Y-120407018D01*
X139267651Y-120413643D01*
X139270493Y-120416398D01*
X139290230Y-120436135D01*
X139293427Y-120438615D01*
X139302447Y-120446318D01*
X139334679Y-120476586D01*
X139341625Y-120480405D01*
X139341628Y-120480407D01*
X139352434Y-120486348D01*
X139368953Y-120497199D01*
X139384959Y-120509614D01*
X139392228Y-120512759D01*
X139392232Y-120512762D01*
X139425537Y-120527174D01*
X139436187Y-120532391D01*
X139474940Y-120553695D01*
X139482615Y-120555666D01*
X139482616Y-120555666D01*
X139494562Y-120558733D01*
X139513267Y-120565137D01*
X139531855Y-120573181D01*
X139539678Y-120574420D01*
X139539688Y-120574423D01*
X139575524Y-120580099D01*
X139587144Y-120582505D01*
X139622289Y-120591528D01*
X139629970Y-120593500D01*
X139650224Y-120593500D01*
X139669934Y-120595051D01*
X139689943Y-120598220D01*
X139697835Y-120597474D01*
X139733961Y-120594059D01*
X139745819Y-120593500D01*
X140473406Y-120593500D01*
X140541527Y-120613502D01*
X140562501Y-120630405D01*
X140582501Y-120650405D01*
X140616527Y-120712717D01*
X140611462Y-120783532D01*
X140568915Y-120840368D01*
X140502395Y-120865179D01*
X140493406Y-120865500D01*
X139940366Y-120865500D01*
X139878184Y-120872255D01*
X139741795Y-120923385D01*
X139625239Y-121010739D01*
X139537885Y-121127295D01*
X139486755Y-121263684D01*
X139480000Y-121325866D01*
X139480000Y-123022134D01*
X139486755Y-123084316D01*
X139537885Y-123220705D01*
X139625239Y-123337261D01*
X139741795Y-123424615D01*
X139878184Y-123475745D01*
X139888974Y-123476917D01*
X139891106Y-123477803D01*
X139893722Y-123478425D01*
X139893621Y-123478848D01*
X139954535Y-123504155D01*
X139994963Y-123562517D01*
X139997422Y-123633471D01*
X139961129Y-123694490D01*
X139952469Y-123701489D01*
X139948707Y-123704646D01*
X139944200Y-123707802D01*
X139782302Y-123869700D01*
X139650977Y-124057251D01*
X139648654Y-124062233D01*
X139648651Y-124062238D01*
X139603986Y-124158025D01*
X139554216Y-124264757D01*
X139552793Y-124270067D01*
X139552792Y-124270071D01*
X139530967Y-124351522D01*
X139494015Y-124412145D01*
X139435457Y-124442158D01*
X139368946Y-124456296D01*
X139258810Y-124479706D01*
X139252780Y-124482391D01*
X139252779Y-124482391D01*
X139090376Y-124554697D01*
X139090374Y-124554698D01*
X139084346Y-124557382D01*
X139079005Y-124561262D01*
X139079004Y-124561263D01*
X138961882Y-124646358D01*
X138929845Y-124669634D01*
X138925427Y-124674541D01*
X138925419Y-124674548D01*
X138918486Y-124682248D01*
X138858040Y-124719487D01*
X138787056Y-124718135D01*
X138738599Y-124689788D01*
X138692350Y-124646358D01*
X138689507Y-124643602D01*
X138669770Y-124623865D01*
X138666573Y-124621385D01*
X138657551Y-124613680D01*
X138644122Y-124601069D01*
X138625321Y-124583414D01*
X138618375Y-124579595D01*
X138618372Y-124579593D01*
X138607566Y-124573652D01*
X138591047Y-124562801D01*
X138589064Y-124561263D01*
X138575041Y-124550386D01*
X138567772Y-124547241D01*
X138567768Y-124547238D01*
X138534463Y-124532826D01*
X138523813Y-124527609D01*
X138485060Y-124506305D01*
X138465437Y-124501267D01*
X138446734Y-124494863D01*
X138435420Y-124489967D01*
X138435419Y-124489967D01*
X138428145Y-124486819D01*
X138420322Y-124485580D01*
X138420312Y-124485577D01*
X138384476Y-124479901D01*
X138372856Y-124477495D01*
X138337711Y-124468472D01*
X138337710Y-124468472D01*
X138330030Y-124466500D01*
X138309776Y-124466500D01*
X138290065Y-124464949D01*
X138277886Y-124463020D01*
X138270057Y-124461780D01*
X138240786Y-124464547D01*
X138226039Y-124465941D01*
X138214181Y-124466500D01*
X137178768Y-124466500D01*
X137167585Y-124465973D01*
X137160092Y-124464298D01*
X137152166Y-124464547D01*
X137152165Y-124464547D01*
X137092002Y-124466438D01*
X137088044Y-124466500D01*
X137060144Y-124466500D01*
X137056154Y-124467004D01*
X137044320Y-124467936D01*
X137000111Y-124469326D01*
X136992497Y-124471538D01*
X136992492Y-124471539D01*
X136980659Y-124474977D01*
X136961296Y-124478988D01*
X136941203Y-124481526D01*
X136933836Y-124484443D01*
X136933831Y-124484444D01*
X136900092Y-124497802D01*
X136888865Y-124501646D01*
X136846407Y-124513982D01*
X136839581Y-124518019D01*
X136828972Y-124524293D01*
X136811224Y-124532988D01*
X136792383Y-124540448D01*
X136785967Y-124545110D01*
X136785966Y-124545110D01*
X136756613Y-124566436D01*
X136746693Y-124572952D01*
X136715465Y-124591420D01*
X136715462Y-124591422D01*
X136708638Y-124595458D01*
X136694317Y-124609779D01*
X136679284Y-124622619D01*
X136662893Y-124634528D01*
X136657840Y-124640636D01*
X136634708Y-124668598D01*
X136626718Y-124677378D01*
X136568136Y-124735960D01*
X136505238Y-124770112D01*
X136350852Y-124802928D01*
X136344822Y-124805613D01*
X136344821Y-124805613D01*
X136182418Y-124877919D01*
X136182416Y-124877920D01*
X136176388Y-124880604D01*
X136171047Y-124884484D01*
X136171046Y-124884485D01*
X136090561Y-124942961D01*
X136023693Y-124966820D01*
X135954542Y-124950739D01*
X135905061Y-124899825D01*
X135890500Y-124841025D01*
X135890500Y-122682000D01*
X136246496Y-122682000D01*
X136266458Y-122871928D01*
X136325473Y-123053556D01*
X136420960Y-123218944D01*
X136425378Y-123223851D01*
X136425379Y-123223852D01*
X136521028Y-123330081D01*
X136548747Y-123360866D01*
X136703248Y-123473118D01*
X136709276Y-123475802D01*
X136709278Y-123475803D01*
X136871681Y-123548109D01*
X136877712Y-123550794D01*
X136971113Y-123570647D01*
X137058056Y-123589128D01*
X137058061Y-123589128D01*
X137064513Y-123590500D01*
X137255487Y-123590500D01*
X137261939Y-123589128D01*
X137261944Y-123589128D01*
X137348887Y-123570647D01*
X137442288Y-123550794D01*
X137448319Y-123548109D01*
X137610722Y-123475803D01*
X137610724Y-123475802D01*
X137616752Y-123473118D01*
X137771253Y-123360866D01*
X137798972Y-123330081D01*
X137894621Y-123223852D01*
X137894622Y-123223851D01*
X137899040Y-123218944D01*
X137994527Y-123053556D01*
X138053542Y-122871928D01*
X138073504Y-122682000D01*
X138067852Y-122628225D01*
X138054232Y-122498635D01*
X138054232Y-122498633D01*
X138053542Y-122492072D01*
X137994527Y-122310444D01*
X137899040Y-122145056D01*
X137771253Y-122003134D01*
X137616752Y-121890882D01*
X137610724Y-121888198D01*
X137610722Y-121888197D01*
X137448319Y-121815891D01*
X137448318Y-121815891D01*
X137442288Y-121813206D01*
X137348888Y-121793353D01*
X137261944Y-121774872D01*
X137261939Y-121774872D01*
X137255487Y-121773500D01*
X137064513Y-121773500D01*
X137058061Y-121774872D01*
X137058056Y-121774872D01*
X136971112Y-121793353D01*
X136877712Y-121813206D01*
X136871682Y-121815891D01*
X136871681Y-121815891D01*
X136709278Y-121888197D01*
X136709276Y-121888198D01*
X136703248Y-121890882D01*
X136548747Y-122003134D01*
X136420960Y-122145056D01*
X136325473Y-122310444D01*
X136266458Y-122492072D01*
X136265768Y-122498633D01*
X136265768Y-122498635D01*
X136252148Y-122628225D01*
X136246496Y-122682000D01*
X135890500Y-122682000D01*
X135890500Y-117474500D01*
X135910502Y-117406379D01*
X135964158Y-117359886D01*
X136016500Y-117348500D01*
X136945500Y-117348500D01*
X137013621Y-117368502D01*
G37*
%TD.AperFunction*%
%TD*%
M02*
