%TF.GenerationSoftware,KiCad,Pcbnew,(6.0.9)*%
%TF.CreationDate,2022-11-24T13:48:04+01:00*%
%TF.ProjectId,8view,38766965-772e-46b6-9963-61645f706362,rev?*%
%TF.SameCoordinates,Original*%
%TF.FileFunction,Copper,L3,Inr*%
%TF.FilePolarity,Positive*%
%FSLAX46Y46*%
G04 Gerber Fmt 4.6, Leading zero omitted, Abs format (unit mm)*
G04 Created by KiCad (PCBNEW (6.0.9)) date 2022-11-24 13:48:04*
%MOMM*%
%LPD*%
G01*
G04 APERTURE LIST*
%TA.AperFunction,ComponentPad*%
%ADD10R,1.700000X1.700000*%
%TD*%
%TA.AperFunction,ComponentPad*%
%ADD11O,1.700000X1.700000*%
%TD*%
%TA.AperFunction,ComponentPad*%
%ADD12R,1.600000X1.600000*%
%TD*%
%TA.AperFunction,ComponentPad*%
%ADD13C,1.600000*%
%TD*%
%TA.AperFunction,ViaPad*%
%ADD14C,0.800000*%
%TD*%
%TA.AperFunction,Conductor*%
%ADD15C,0.250000*%
%TD*%
G04 APERTURE END LIST*
D10*
%TO.N,/in7*%
%TO.C,J2*%
X156195000Y-150819000D03*
D11*
%TO.N,/in6*%
X153655000Y-150819000D03*
%TO.N,/in5*%
X151115000Y-150819000D03*
%TO.N,/in4*%
X148575000Y-150819000D03*
%TO.N,/in3*%
X146035000Y-150819000D03*
%TO.N,/in2*%
X143495000Y-150819000D03*
%TO.N,/in1*%
X140955000Y-150819000D03*
%TO.N,/in0*%
X138415000Y-150819000D03*
%TD*%
D10*
%TO.N,/in0*%
%TO.C,J1*%
X138430000Y-118364000D03*
D11*
%TO.N,/in1*%
X140970000Y-118364000D03*
%TO.N,/in2*%
X143510000Y-118364000D03*
%TO.N,/in3*%
X146050000Y-118364000D03*
%TO.N,/in4*%
X148590000Y-118364000D03*
%TO.N,/in5*%
X151130000Y-118364000D03*
%TO.N,/in6*%
X153670000Y-118364000D03*
%TO.N,/in7*%
X156210000Y-118364000D03*
%TD*%
D12*
%TO.N,+5V*%
%TO.C,U2*%
X140788500Y-122174000D03*
D13*
%TO.N,Net-(R15-Pad2)*%
X140788500Y-124714000D03*
%TO.N,Net-(R16-Pad2)*%
X140788500Y-127254000D03*
%TO.N,Net-(R14-Pad2)*%
X140788500Y-129794000D03*
%TO.N,Net-(R13-Pad2)*%
X140788500Y-132334000D03*
%TO.N,+5V*%
X145868500Y-132334000D03*
%TO.N,Net-(R17-Pad2)*%
X145868500Y-129794000D03*
%TO.N,Net-(R12-Pad2)*%
X145868500Y-127254000D03*
%TO.N,Net-(R11-Pad2)*%
X145868500Y-124714000D03*
%TO.N,Net-(R10-Pad2)*%
X145868500Y-122174000D03*
%TD*%
D12*
%TO.N,+5V*%
%TO.C,U3*%
X149098000Y-122174000D03*
D13*
%TO.N,Net-(R23-Pad2)*%
X149098000Y-124714000D03*
%TO.N,Net-(R24-Pad2)*%
X149098000Y-127254000D03*
%TO.N,Net-(R22-Pad2)*%
X149098000Y-129794000D03*
%TO.N,Net-(R21-Pad2)*%
X149098000Y-132334000D03*
%TO.N,+5V*%
X154178000Y-132334000D03*
%TO.N,Net-(R25-Pad2)*%
X154178000Y-129794000D03*
%TO.N,Net-(R20-Pad2)*%
X154178000Y-127254000D03*
%TO.N,Net-(R19-Pad2)*%
X154178000Y-124714000D03*
%TO.N,Net-(R18-Pad2)*%
X154178000Y-122174000D03*
%TD*%
D14*
%TO.N,/in0*%
X146147700Y-138758772D03*
X137140000Y-146020000D03*
%TO.N,/in1*%
X139640000Y-146030000D03*
%TO.N,/in2*%
X142231701Y-146051701D03*
%TO.N,/in3*%
X144730000Y-146080000D03*
%TO.N,/in4*%
X147300000Y-146020000D03*
%TO.N,/in5*%
X149881701Y-146021701D03*
%TO.N,/in6*%
X152420000Y-146020000D03*
%TO.N,/in7*%
X154951701Y-146031701D03*
%TO.N,+5V*%
X136151005Y-141419546D03*
X141249137Y-134056502D03*
X152989002Y-143067003D03*
X148000000Y-137010000D03*
X145110000Y-138758772D03*
%TO.N,GND*%
X143554500Y-124023500D03*
X138176000Y-120650000D03*
X156095750Y-147459750D03*
%TO.N,Net-(R10-Pad2)*%
X137668000Y-124460000D03*
%TO.N,/ISP_MISO*%
X136761791Y-142210713D03*
X141931837Y-138758272D03*
X156040000Y-141320000D03*
%TO.N,/ISP_SCK*%
X136825989Y-143299509D03*
X156206399Y-140288199D03*
X136103158Y-140421190D03*
%TO.N,/ISP_MOSI*%
X141154502Y-136950000D03*
X136355935Y-144181583D03*
X136128003Y-139421997D03*
X157056175Y-139762002D03*
%TO.N,/ISP_RST*%
X136405500Y-138461789D03*
X155338502Y-139037502D03*
X136891292Y-145029494D03*
X140500000Y-134850000D03*
%TO.N,Net-(R11-Pad2)*%
X137668000Y-127000000D03*
%TO.N,Net-(R12-Pad2)*%
X137668000Y-129540000D03*
%TO.N,Net-(R13-Pad2)*%
X138684000Y-132334000D03*
%TO.N,Net-(R14-Pad2)*%
X138684000Y-129540000D03*
%TO.N,Net-(R15-Pad2)*%
X138684000Y-124460000D03*
%TO.N,Net-(R16-Pad2)*%
X138684000Y-127000000D03*
%TO.N,Net-(R17-Pad2)*%
X137668000Y-132334000D03*
%TO.N,Net-(R18-Pad2)*%
X157480000Y-124206000D03*
%TO.N,Net-(R19-Pad2)*%
X156464000Y-124206000D03*
%TO.N,Net-(R20-Pad2)*%
X156464000Y-126746000D03*
%TO.N,Net-(R21-Pad2)*%
X156464000Y-131826000D03*
%TO.N,Net-(R23-Pad2)*%
X157480000Y-126746000D03*
%TO.N,Net-(R24-Pad2)*%
X157480000Y-129286000D03*
%TO.N,Net-(R25-Pad2)*%
X156464000Y-129286000D03*
%TO.N,/D1_I1*%
X137670000Y-125470000D03*
X151243563Y-142819207D03*
X143250000Y-143205500D03*
%TO.N,/D1_I2*%
X141154502Y-142298664D03*
X137680000Y-128030000D03*
X150144500Y-140570501D03*
%TO.N,/D1_I3*%
X150734558Y-139045999D03*
X137764500Y-130534833D03*
%TO.N,/D1_I4*%
X138989589Y-133285641D03*
X152380000Y-136571498D03*
%TO.N,/D1_I5*%
X139320513Y-130310621D03*
X152913442Y-138245999D03*
%TO.N,/D1_I6*%
X139300000Y-125259500D03*
X141700511Y-143135850D03*
X150734558Y-141445999D03*
%TO.N,/D1_I7*%
X152913442Y-139846001D03*
X139369597Y-127727297D03*
%TO.N,/D1_I8*%
X137764500Y-133328833D03*
X150697686Y-137442467D03*
%TO.N,/D2_I1*%
X158282587Y-124801702D03*
X142830000Y-136571498D03*
%TO.N,/D2_I2*%
X144464242Y-137414597D03*
X156040000Y-125114500D03*
%TO.N,/D2_I3*%
X144560000Y-134650000D03*
X155750000Y-127799500D03*
%TO.N,/D2_I4*%
X146371573Y-134102199D03*
X156310000Y-133120000D03*
%TO.N,/D2_I5*%
X147965483Y-134091619D03*
X157480000Y-132844000D03*
%TO.N,/D2_I6*%
X157890000Y-127980000D03*
X145573999Y-136285442D03*
%TO.N,/D2_I7*%
X150710000Y-134860000D03*
X158101952Y-130398049D03*
%TO.N,/D2_I8*%
X155980000Y-130194500D03*
X148774001Y-136285442D03*
%TD*%
D15*
%TO.N,/D1_I1*%
X150794356Y-142370000D02*
X148250000Y-142370000D01*
X151243563Y-142819207D02*
X150794356Y-142370000D01*
X148250000Y-142370000D02*
X147986728Y-142633272D01*
X143822228Y-142633272D02*
X143250000Y-143205500D01*
X147986728Y-142633272D02*
X143822228Y-142633272D01*
%TO.N,/D1_I2*%
X147519520Y-141733272D02*
X141396728Y-141733272D01*
X148682291Y-140570501D02*
X147519520Y-141733272D01*
X150144500Y-140570501D02*
X148682291Y-140570501D01*
X141396728Y-141733272D02*
X141154502Y-141975498D01*
X141154502Y-141975498D02*
X141154502Y-142298664D01*
%TO.N,/D1_I3*%
X150734558Y-139045999D02*
X148934001Y-139045999D01*
X140943281Y-140833272D02*
X137639589Y-137529580D01*
X147146728Y-140833272D02*
X140943281Y-140833272D01*
X137639589Y-134579589D02*
X137630000Y-134570000D01*
X136493000Y-131806333D02*
X137764500Y-130534833D01*
X136493000Y-133719034D02*
X136493000Y-131806333D01*
X148934001Y-139045999D02*
X147146728Y-140833272D01*
X137343966Y-134570000D02*
X136493000Y-133719034D01*
X137630000Y-134570000D02*
X137343966Y-134570000D01*
X137639589Y-137529580D02*
X137639589Y-134579589D01*
%TO.N,/D1_I4*%
X138989589Y-136970392D02*
X141502469Y-139483272D01*
X152380000Y-136571498D02*
X149778502Y-136571498D01*
X149778502Y-136571498D02*
X149357533Y-136992467D01*
X138989589Y-133285641D02*
X138989589Y-136970392D01*
X149357533Y-136992467D02*
X149067533Y-136992467D01*
X146576728Y-139483272D02*
X147020000Y-139040000D01*
X141502469Y-139483272D02*
X146576728Y-139483272D01*
X149067533Y-136992467D02*
X147020000Y-139040000D01*
%TO.N,/D1_I5*%
X137464195Y-134053833D02*
X136943000Y-133532638D01*
X146949520Y-140383272D02*
X141129677Y-140383272D01*
X138611000Y-131609000D02*
X139320513Y-130899487D01*
X137853104Y-134053833D02*
X137464195Y-134053833D01*
X138089589Y-137343184D02*
X138089589Y-134290318D01*
X136943000Y-133532638D02*
X136943000Y-132033695D01*
X136943000Y-132033695D02*
X137367695Y-131609000D01*
X139320513Y-130899487D02*
X139320513Y-130310621D01*
X141129677Y-140383272D02*
X138089589Y-137343184D01*
X152913442Y-138245999D02*
X149086793Y-138245999D01*
X149086793Y-138245999D02*
X146949520Y-140383272D01*
X137367695Y-131609000D02*
X138611000Y-131609000D01*
X138089589Y-134290318D02*
X137853104Y-134053833D01*
%TO.N,/D1_I6*%
X149614001Y-141445999D02*
X149610000Y-141450000D01*
X147705916Y-142183272D02*
X142296728Y-142183272D01*
X149610000Y-141450000D02*
X149606001Y-141446001D01*
X150734558Y-141445999D02*
X149614001Y-141445999D01*
X141700511Y-142779489D02*
X141700511Y-143135850D01*
X149606001Y-141446001D02*
X148443187Y-141446001D01*
X148443187Y-141446001D02*
X147705916Y-142183272D01*
X142296728Y-142183272D02*
X141700511Y-142779489D01*
%TO.N,/D1_I7*%
X152913442Y-139846001D02*
X148770395Y-139846001D01*
X139369597Y-128270403D02*
X139369597Y-127727297D01*
X136930000Y-129252695D02*
X137367695Y-128815000D01*
X136043000Y-131619937D02*
X136930000Y-130732937D01*
X148770395Y-139846001D02*
X147333124Y-141283272D01*
X136930000Y-130732937D02*
X136930000Y-129252695D01*
X140733272Y-141283272D02*
X137189589Y-137739589D01*
X138825000Y-128815000D02*
X139369597Y-128270403D01*
X137367695Y-128815000D02*
X138825000Y-128815000D01*
X147333124Y-141283272D02*
X140733272Y-141283272D01*
X137189589Y-137739589D02*
X137189589Y-135052019D01*
X137189589Y-135052019D02*
X136043000Y-133905430D01*
X136043000Y-133905430D02*
X136043000Y-131619937D01*
%TO.N,/D1_I8*%
X149253929Y-137442467D02*
X146763124Y-139933272D01*
X146763124Y-139933272D02*
X141316073Y-139933272D01*
X141316073Y-139933272D02*
X138539589Y-137156788D01*
X150697686Y-137442467D02*
X149253929Y-137442467D01*
X138539589Y-134103922D02*
X137764500Y-133328833D01*
X138539589Y-137156788D02*
X138539589Y-134103922D01*
%TO.N,/D2_I1*%
X145441509Y-121010000D02*
X155360000Y-121010000D01*
X142830000Y-136571498D02*
X142830000Y-123621509D01*
X158240000Y-123890000D02*
X158240000Y-124770000D01*
X142830000Y-123621509D02*
X145441509Y-121010000D01*
X155360000Y-121010000D02*
X158240000Y-123890000D01*
%TO.N,/D2_I2*%
X143280000Y-135830000D02*
X143280000Y-126810000D01*
X154494991Y-123440000D02*
X156040000Y-124985009D01*
X144464242Y-137414597D02*
X144464242Y-137014242D01*
X145551509Y-123440000D02*
X150990000Y-123440000D01*
X144464242Y-137014242D02*
X143280000Y-135830000D01*
X143280000Y-126810000D02*
X143280000Y-125711509D01*
X143280000Y-125711509D02*
X145551509Y-123440000D01*
X156040000Y-124985009D02*
X156040000Y-125114500D01*
X150990000Y-123440000D02*
X154494991Y-123440000D01*
%TO.N,/D2_I3*%
X155591000Y-128379000D02*
X145402509Y-128379000D01*
X144180000Y-134270000D02*
X144560000Y-134650000D01*
X144180000Y-129601509D02*
X144180000Y-134270000D01*
X155750000Y-127799500D02*
X155750000Y-128220000D01*
X145402509Y-128379000D02*
X144180000Y-129601509D01*
X155750000Y-128220000D02*
X155591000Y-128379000D01*
%TO.N,/D2_I4*%
X146371573Y-134102199D02*
X145152199Y-134102199D01*
X144690000Y-131640000D02*
X145360000Y-130970000D01*
X156310000Y-132875009D02*
X156310000Y-133120000D01*
X154404991Y-130970000D02*
X156310000Y-132875009D01*
X144690000Y-133640000D02*
X144690000Y-131640000D01*
X145360000Y-130970000D02*
X154404991Y-130970000D01*
X145152199Y-134102199D02*
X144690000Y-133640000D01*
%TO.N,/D2_I5*%
X157640000Y-133004000D02*
X157480000Y-132844000D01*
X147965483Y-134091619D02*
X147968381Y-134091619D01*
X155624695Y-133460000D02*
X156009695Y-133845000D01*
X157640000Y-133540000D02*
X157640000Y-133004000D01*
X147968381Y-134091619D02*
X148600000Y-133460000D01*
X157335000Y-133845000D02*
X157640000Y-133540000D01*
X156009695Y-133845000D02*
X157335000Y-133845000D01*
X148600000Y-133460000D02*
X155624695Y-133460000D01*
%TO.N,/D2_I6*%
X143998198Y-135911802D02*
X143730000Y-135643604D01*
X145402509Y-125839000D02*
X146100000Y-125839000D01*
X157598305Y-125839000D02*
X158240000Y-126480695D01*
X158240000Y-126930000D02*
X158240000Y-127630000D01*
X144371838Y-136285442D02*
X143998198Y-135911802D01*
X145573999Y-136285442D02*
X144371838Y-136285442D01*
X150490000Y-125830000D02*
X150499000Y-125839000D01*
X143730000Y-133290000D02*
X143730000Y-127511509D01*
X150499000Y-125839000D02*
X154460000Y-125839000D01*
X143730000Y-127511509D02*
X145402509Y-125839000D01*
X158240000Y-126480695D02*
X158240000Y-126930000D01*
X143730000Y-135643604D02*
X143730000Y-133290000D01*
X150481000Y-125839000D02*
X150490000Y-125830000D01*
X146100000Y-125839000D02*
X150481000Y-125839000D01*
X158240000Y-127630000D02*
X157890000Y-127980000D01*
X154460000Y-125839000D02*
X157598305Y-125839000D01*
%TO.N,/D2_I7*%
X158700000Y-133752792D02*
X158700000Y-130996097D01*
X157592792Y-134860000D02*
X158700000Y-133752792D01*
X158700000Y-130996097D02*
X158101952Y-130398049D01*
X150710000Y-134860000D02*
X157592792Y-134860000D01*
%TO.N,/D2_I8*%
X148774001Y-134155999D02*
X148980000Y-133950000D01*
X152110000Y-133910000D02*
X155320000Y-133910000D01*
X148980000Y-133950000D02*
X149020000Y-133910000D01*
X158208198Y-133608198D02*
X158208198Y-131528893D01*
X157440000Y-134295000D02*
X157521396Y-134295000D01*
X155639150Y-134110851D02*
X155823299Y-134295000D01*
X148774001Y-136285442D02*
X148774001Y-134155999D01*
X156873805Y-130194500D02*
X155980000Y-130194500D01*
X158208198Y-131528893D02*
X156873805Y-130194500D01*
X149020000Y-133910000D02*
X152110000Y-133910000D01*
X157521396Y-134295000D02*
X158208198Y-133608198D01*
X155438299Y-133910000D02*
X155639150Y-134110851D01*
X155320000Y-133910000D02*
X155438299Y-133910000D01*
X155823299Y-134295000D02*
X157440000Y-134295000D01*
%TD*%
%TA.AperFunction,Conductor*%
%TO.N,+5V*%
G36*
X158667532Y-134785330D02*
G01*
X158724368Y-134827877D01*
X158749179Y-134894397D01*
X158749500Y-134903386D01*
X158749500Y-151765500D01*
X158729498Y-151833621D01*
X158675842Y-151880114D01*
X158623500Y-151891500D01*
X157674987Y-151891500D01*
X157606866Y-151871498D01*
X157560373Y-151817842D01*
X157549724Y-151751892D01*
X157553131Y-151720531D01*
X157553500Y-151717134D01*
X157553500Y-149920866D01*
X157546745Y-149858684D01*
X157495615Y-149722295D01*
X157408261Y-149605739D01*
X157291705Y-149518385D01*
X157155316Y-149467255D01*
X157093134Y-149460500D01*
X155296866Y-149460500D01*
X155234684Y-149467255D01*
X155098295Y-149518385D01*
X154981739Y-149605739D01*
X154894385Y-149722295D01*
X154891233Y-149730703D01*
X154849919Y-149840907D01*
X154807277Y-149897671D01*
X154740716Y-149922371D01*
X154671367Y-149907163D01*
X154638743Y-149881476D01*
X154588151Y-149825875D01*
X154588142Y-149825866D01*
X154584670Y-149822051D01*
X154580619Y-149818852D01*
X154580615Y-149818848D01*
X154413414Y-149686800D01*
X154413410Y-149686798D01*
X154409359Y-149683598D01*
X154213789Y-149575638D01*
X154208920Y-149573914D01*
X154208916Y-149573912D01*
X154008087Y-149502795D01*
X154008083Y-149502794D01*
X154003212Y-149501069D01*
X153998119Y-149500162D01*
X153998116Y-149500161D01*
X153788373Y-149462800D01*
X153788367Y-149462799D01*
X153783284Y-149461894D01*
X153709452Y-149460992D01*
X153565081Y-149459228D01*
X153565079Y-149459228D01*
X153559911Y-149459165D01*
X153339091Y-149492955D01*
X153126756Y-149562357D01*
X152928607Y-149665507D01*
X152924474Y-149668610D01*
X152924471Y-149668612D01*
X152754100Y-149796530D01*
X152749965Y-149799635D01*
X152710525Y-149840907D01*
X152656280Y-149897671D01*
X152595629Y-149961138D01*
X152488201Y-150118621D01*
X152433293Y-150163621D01*
X152362768Y-150171792D01*
X152299021Y-150140538D01*
X152278324Y-150116054D01*
X152197822Y-149991617D01*
X152197820Y-149991614D01*
X152195014Y-149987277D01*
X152044670Y-149822051D01*
X152040619Y-149818852D01*
X152040615Y-149818848D01*
X151873414Y-149686800D01*
X151873410Y-149686798D01*
X151869359Y-149683598D01*
X151673789Y-149575638D01*
X151668920Y-149573914D01*
X151668916Y-149573912D01*
X151468087Y-149502795D01*
X151468083Y-149502794D01*
X151463212Y-149501069D01*
X151458119Y-149500162D01*
X151458116Y-149500161D01*
X151248373Y-149462800D01*
X151248367Y-149462799D01*
X151243284Y-149461894D01*
X151169452Y-149460992D01*
X151025081Y-149459228D01*
X151025079Y-149459228D01*
X151019911Y-149459165D01*
X150799091Y-149492955D01*
X150586756Y-149562357D01*
X150388607Y-149665507D01*
X150384474Y-149668610D01*
X150384471Y-149668612D01*
X150214100Y-149796530D01*
X150209965Y-149799635D01*
X150170525Y-149840907D01*
X150116280Y-149897671D01*
X150055629Y-149961138D01*
X149948201Y-150118621D01*
X149893293Y-150163621D01*
X149822768Y-150171792D01*
X149759021Y-150140538D01*
X149738324Y-150116054D01*
X149657822Y-149991617D01*
X149657820Y-149991614D01*
X149655014Y-149987277D01*
X149504670Y-149822051D01*
X149500619Y-149818852D01*
X149500615Y-149818848D01*
X149333414Y-149686800D01*
X149333410Y-149686798D01*
X149329359Y-149683598D01*
X149133789Y-149575638D01*
X149128920Y-149573914D01*
X149128916Y-149573912D01*
X148928087Y-149502795D01*
X148928083Y-149502794D01*
X148923212Y-149501069D01*
X148918119Y-149500162D01*
X148918116Y-149500161D01*
X148708373Y-149462800D01*
X148708367Y-149462799D01*
X148703284Y-149461894D01*
X148629452Y-149460992D01*
X148485081Y-149459228D01*
X148485079Y-149459228D01*
X148479911Y-149459165D01*
X148259091Y-149492955D01*
X148046756Y-149562357D01*
X147848607Y-149665507D01*
X147844474Y-149668610D01*
X147844471Y-149668612D01*
X147674100Y-149796530D01*
X147669965Y-149799635D01*
X147630525Y-149840907D01*
X147576280Y-149897671D01*
X147515629Y-149961138D01*
X147408201Y-150118621D01*
X147353293Y-150163621D01*
X147282768Y-150171792D01*
X147219021Y-150140538D01*
X147198324Y-150116054D01*
X147117822Y-149991617D01*
X147117820Y-149991614D01*
X147115014Y-149987277D01*
X146964670Y-149822051D01*
X146960619Y-149818852D01*
X146960615Y-149818848D01*
X146793414Y-149686800D01*
X146793410Y-149686798D01*
X146789359Y-149683598D01*
X146593789Y-149575638D01*
X146588920Y-149573914D01*
X146588916Y-149573912D01*
X146388087Y-149502795D01*
X146388083Y-149502794D01*
X146383212Y-149501069D01*
X146378119Y-149500162D01*
X146378116Y-149500161D01*
X146168373Y-149462800D01*
X146168367Y-149462799D01*
X146163284Y-149461894D01*
X146089452Y-149460992D01*
X145945081Y-149459228D01*
X145945079Y-149459228D01*
X145939911Y-149459165D01*
X145719091Y-149492955D01*
X145506756Y-149562357D01*
X145308607Y-149665507D01*
X145304474Y-149668610D01*
X145304471Y-149668612D01*
X145134100Y-149796530D01*
X145129965Y-149799635D01*
X145090525Y-149840907D01*
X145036280Y-149897671D01*
X144975629Y-149961138D01*
X144868201Y-150118621D01*
X144813293Y-150163621D01*
X144742768Y-150171792D01*
X144679021Y-150140538D01*
X144658324Y-150116054D01*
X144577822Y-149991617D01*
X144577820Y-149991614D01*
X144575014Y-149987277D01*
X144424670Y-149822051D01*
X144420619Y-149818852D01*
X144420615Y-149818848D01*
X144253414Y-149686800D01*
X144253410Y-149686798D01*
X144249359Y-149683598D01*
X144053789Y-149575638D01*
X144048920Y-149573914D01*
X144048916Y-149573912D01*
X143848087Y-149502795D01*
X143848083Y-149502794D01*
X143843212Y-149501069D01*
X143838119Y-149500162D01*
X143838116Y-149500161D01*
X143628373Y-149462800D01*
X143628367Y-149462799D01*
X143623284Y-149461894D01*
X143549452Y-149460992D01*
X143405081Y-149459228D01*
X143405079Y-149459228D01*
X143399911Y-149459165D01*
X143179091Y-149492955D01*
X142966756Y-149562357D01*
X142768607Y-149665507D01*
X142764474Y-149668610D01*
X142764471Y-149668612D01*
X142594100Y-149796530D01*
X142589965Y-149799635D01*
X142550525Y-149840907D01*
X142496280Y-149897671D01*
X142435629Y-149961138D01*
X142328201Y-150118621D01*
X142273293Y-150163621D01*
X142202768Y-150171792D01*
X142139021Y-150140538D01*
X142118324Y-150116054D01*
X142037822Y-149991617D01*
X142037820Y-149991614D01*
X142035014Y-149987277D01*
X141884670Y-149822051D01*
X141880619Y-149818852D01*
X141880615Y-149818848D01*
X141713414Y-149686800D01*
X141713410Y-149686798D01*
X141709359Y-149683598D01*
X141513789Y-149575638D01*
X141508920Y-149573914D01*
X141508916Y-149573912D01*
X141308087Y-149502795D01*
X141308083Y-149502794D01*
X141303212Y-149501069D01*
X141298119Y-149500162D01*
X141298116Y-149500161D01*
X141088373Y-149462800D01*
X141088367Y-149462799D01*
X141083284Y-149461894D01*
X141009452Y-149460992D01*
X140865081Y-149459228D01*
X140865079Y-149459228D01*
X140859911Y-149459165D01*
X140639091Y-149492955D01*
X140426756Y-149562357D01*
X140228607Y-149665507D01*
X140224474Y-149668610D01*
X140224471Y-149668612D01*
X140054100Y-149796530D01*
X140049965Y-149799635D01*
X140010525Y-149840907D01*
X139956280Y-149897671D01*
X139895629Y-149961138D01*
X139788201Y-150118621D01*
X139733293Y-150163621D01*
X139662768Y-150171792D01*
X139599021Y-150140538D01*
X139578324Y-150116054D01*
X139497822Y-149991617D01*
X139497820Y-149991614D01*
X139495014Y-149987277D01*
X139344670Y-149822051D01*
X139340619Y-149818852D01*
X139340615Y-149818848D01*
X139173414Y-149686800D01*
X139173410Y-149686798D01*
X139169359Y-149683598D01*
X138973789Y-149575638D01*
X138968920Y-149573914D01*
X138968916Y-149573912D01*
X138768087Y-149502795D01*
X138768083Y-149502794D01*
X138763212Y-149501069D01*
X138758119Y-149500162D01*
X138758116Y-149500161D01*
X138548373Y-149462800D01*
X138548367Y-149462799D01*
X138543284Y-149461894D01*
X138469452Y-149460992D01*
X138325081Y-149459228D01*
X138325079Y-149459228D01*
X138319911Y-149459165D01*
X138099091Y-149492955D01*
X137886756Y-149562357D01*
X137688607Y-149665507D01*
X137684474Y-149668610D01*
X137684471Y-149668612D01*
X137514100Y-149796530D01*
X137509965Y-149799635D01*
X137470525Y-149840907D01*
X137416280Y-149897671D01*
X137355629Y-149961138D01*
X137229743Y-150145680D01*
X137135688Y-150348305D01*
X137075989Y-150563570D01*
X137052251Y-150785695D01*
X137065110Y-151008715D01*
X137066247Y-151013761D01*
X137066248Y-151013767D01*
X137090304Y-151120508D01*
X137114222Y-151226639D01*
X137198266Y-151433616D01*
X137235685Y-151494678D01*
X137312291Y-151619688D01*
X137314987Y-151624088D01*
X137318366Y-151627989D01*
X137318372Y-151627997D01*
X137366020Y-151683003D01*
X137395503Y-151747588D01*
X137385388Y-151817860D01*
X137338887Y-151871509D01*
X137270783Y-151891500D01*
X136270500Y-151891500D01*
X136202379Y-151871498D01*
X136155886Y-151817842D01*
X136144500Y-151765500D01*
X136144500Y-146582980D01*
X136164502Y-146514859D01*
X136218158Y-146468366D01*
X136288432Y-146458262D01*
X136353012Y-146487756D01*
X136379618Y-146519979D01*
X136400960Y-146556944D01*
X136405378Y-146561851D01*
X136405379Y-146561852D01*
X136501524Y-146668632D01*
X136528747Y-146698866D01*
X136683248Y-146811118D01*
X136689276Y-146813802D01*
X136689278Y-146813803D01*
X136824041Y-146873803D01*
X136857712Y-146888794D01*
X136951113Y-146908647D01*
X137038056Y-146927128D01*
X137038061Y-146927128D01*
X137044513Y-146928500D01*
X137235487Y-146928500D01*
X137241939Y-146927128D01*
X137241944Y-146927128D01*
X137328887Y-146908647D01*
X137422288Y-146888794D01*
X137455959Y-146873803D01*
X137590722Y-146813803D01*
X137590724Y-146813802D01*
X137596752Y-146811118D01*
X137751253Y-146698866D01*
X137778476Y-146668632D01*
X137874621Y-146561852D01*
X137874622Y-146561851D01*
X137879040Y-146556944D01*
X137967341Y-146404002D01*
X137971223Y-146397279D01*
X137971224Y-146397278D01*
X137974527Y-146391556D01*
X138033542Y-146209928D01*
X138052453Y-146030000D01*
X138726496Y-146030000D01*
X138746458Y-146219928D01*
X138805473Y-146401556D01*
X138900960Y-146566944D01*
X138905378Y-146571851D01*
X138905379Y-146571852D01*
X139023239Y-146702749D01*
X139028747Y-146708866D01*
X139097566Y-146758866D01*
X139164143Y-146807237D01*
X139183248Y-146821118D01*
X139189276Y-146823802D01*
X139189278Y-146823803D01*
X139351681Y-146896109D01*
X139357712Y-146898794D01*
X139447175Y-146917810D01*
X139538056Y-146937128D01*
X139538061Y-146937128D01*
X139544513Y-146938500D01*
X139735487Y-146938500D01*
X139741939Y-146937128D01*
X139741944Y-146937128D01*
X139832825Y-146917810D01*
X139922288Y-146898794D01*
X139928319Y-146896109D01*
X140090722Y-146823803D01*
X140090724Y-146823802D01*
X140096752Y-146821118D01*
X140115858Y-146807237D01*
X140182434Y-146758866D01*
X140251253Y-146708866D01*
X140256761Y-146702749D01*
X140374621Y-146571852D01*
X140374622Y-146571851D01*
X140379040Y-146566944D01*
X140474527Y-146401556D01*
X140533542Y-146219928D01*
X140551223Y-146051701D01*
X141318197Y-146051701D01*
X141338159Y-146241629D01*
X141397174Y-146423257D01*
X141492661Y-146588645D01*
X141497079Y-146593552D01*
X141497080Y-146593553D01*
X141605936Y-146714450D01*
X141620448Y-146730567D01*
X141652639Y-146753955D01*
X141739739Y-146817237D01*
X141774949Y-146842819D01*
X141780977Y-146845503D01*
X141780979Y-146845504D01*
X141943382Y-146917810D01*
X141949413Y-146920495D01*
X142035663Y-146938828D01*
X142129757Y-146958829D01*
X142129762Y-146958829D01*
X142136214Y-146960201D01*
X142327188Y-146960201D01*
X142333640Y-146958829D01*
X142333645Y-146958829D01*
X142427739Y-146938828D01*
X142513989Y-146920495D01*
X142520020Y-146917810D01*
X142682423Y-146845504D01*
X142682425Y-146845503D01*
X142688453Y-146842819D01*
X142723664Y-146817237D01*
X142810763Y-146753955D01*
X142842954Y-146730567D01*
X142857466Y-146714450D01*
X142966322Y-146593553D01*
X142966323Y-146593552D01*
X142970741Y-146588645D01*
X143066228Y-146423257D01*
X143125243Y-146241629D01*
X143142231Y-146080000D01*
X143816496Y-146080000D01*
X143817186Y-146086565D01*
X143834144Y-146247907D01*
X143836458Y-146269928D01*
X143895473Y-146451556D01*
X143990960Y-146616944D01*
X143995378Y-146621851D01*
X143995379Y-146621852D01*
X144093266Y-146730567D01*
X144118747Y-146758866D01*
X144273248Y-146871118D01*
X144279276Y-146873802D01*
X144279278Y-146873803D01*
X144441681Y-146946109D01*
X144447712Y-146948794D01*
X144541113Y-146968647D01*
X144628056Y-146987128D01*
X144628061Y-146987128D01*
X144634513Y-146988500D01*
X144825487Y-146988500D01*
X144831939Y-146987128D01*
X144831944Y-146987128D01*
X144918887Y-146968647D01*
X145012288Y-146948794D01*
X145018319Y-146946109D01*
X145180722Y-146873803D01*
X145180724Y-146873802D01*
X145186752Y-146871118D01*
X145341253Y-146758866D01*
X145366734Y-146730567D01*
X145464621Y-146621852D01*
X145464622Y-146621851D01*
X145469040Y-146616944D01*
X145564527Y-146451556D01*
X145623542Y-146269928D01*
X145625857Y-146247907D01*
X145642814Y-146086565D01*
X145643504Y-146080000D01*
X145637198Y-146020000D01*
X146386496Y-146020000D01*
X146406458Y-146209928D01*
X146465473Y-146391556D01*
X146468776Y-146397278D01*
X146468777Y-146397279D01*
X146472659Y-146404002D01*
X146560960Y-146556944D01*
X146565378Y-146561851D01*
X146565379Y-146561852D01*
X146661524Y-146668632D01*
X146688747Y-146698866D01*
X146843248Y-146811118D01*
X146849276Y-146813802D01*
X146849278Y-146813803D01*
X146984041Y-146873803D01*
X147017712Y-146888794D01*
X147111113Y-146908647D01*
X147198056Y-146927128D01*
X147198061Y-146927128D01*
X147204513Y-146928500D01*
X147395487Y-146928500D01*
X147401939Y-146927128D01*
X147401944Y-146927128D01*
X147488887Y-146908647D01*
X147582288Y-146888794D01*
X147615959Y-146873803D01*
X147750722Y-146813803D01*
X147750724Y-146813802D01*
X147756752Y-146811118D01*
X147911253Y-146698866D01*
X147938476Y-146668632D01*
X148034621Y-146561852D01*
X148034622Y-146561851D01*
X148039040Y-146556944D01*
X148127341Y-146404002D01*
X148131223Y-146397279D01*
X148131224Y-146397278D01*
X148134527Y-146391556D01*
X148193542Y-146209928D01*
X148213325Y-146021701D01*
X148968197Y-146021701D01*
X148988159Y-146211629D01*
X149047174Y-146393257D01*
X149050477Y-146398979D01*
X149050478Y-146398980D01*
X149067799Y-146428980D01*
X149142661Y-146558645D01*
X149147079Y-146563552D01*
X149147080Y-146563553D01*
X149266026Y-146695656D01*
X149270448Y-146700567D01*
X149424949Y-146812819D01*
X149430977Y-146815503D01*
X149430979Y-146815504D01*
X149593382Y-146887810D01*
X149599413Y-146890495D01*
X149692814Y-146910348D01*
X149779757Y-146928829D01*
X149779762Y-146928829D01*
X149786214Y-146930201D01*
X149977188Y-146930201D01*
X149983640Y-146928829D01*
X149983645Y-146928829D01*
X150070588Y-146910348D01*
X150163989Y-146890495D01*
X150170020Y-146887810D01*
X150332423Y-146815504D01*
X150332425Y-146815503D01*
X150338453Y-146812819D01*
X150492954Y-146700567D01*
X150497376Y-146695656D01*
X150616322Y-146563553D01*
X150616323Y-146563552D01*
X150620741Y-146558645D01*
X150695603Y-146428980D01*
X150712924Y-146398980D01*
X150712925Y-146398979D01*
X150716228Y-146393257D01*
X150775243Y-146211629D01*
X150795205Y-146021701D01*
X150795026Y-146020000D01*
X151506496Y-146020000D01*
X151526458Y-146209928D01*
X151585473Y-146391556D01*
X151588776Y-146397278D01*
X151588777Y-146397279D01*
X151592659Y-146404002D01*
X151680960Y-146556944D01*
X151685378Y-146561851D01*
X151685379Y-146561852D01*
X151781524Y-146668632D01*
X151808747Y-146698866D01*
X151963248Y-146811118D01*
X151969276Y-146813802D01*
X151969278Y-146813803D01*
X152104041Y-146873803D01*
X152137712Y-146888794D01*
X152231113Y-146908647D01*
X152318056Y-146927128D01*
X152318061Y-146927128D01*
X152324513Y-146928500D01*
X152515487Y-146928500D01*
X152521939Y-146927128D01*
X152521944Y-146927128D01*
X152608887Y-146908647D01*
X152702288Y-146888794D01*
X152735959Y-146873803D01*
X152870722Y-146813803D01*
X152870724Y-146813802D01*
X152876752Y-146811118D01*
X153031253Y-146698866D01*
X153058476Y-146668632D01*
X153154621Y-146561852D01*
X153154622Y-146561851D01*
X153159040Y-146556944D01*
X153247341Y-146404002D01*
X153251223Y-146397279D01*
X153251224Y-146397278D01*
X153254527Y-146391556D01*
X153313542Y-146209928D01*
X153332274Y-146031701D01*
X154038197Y-146031701D01*
X154058159Y-146221629D01*
X154117174Y-146403257D01*
X154212661Y-146568645D01*
X154217079Y-146573552D01*
X154217080Y-146573553D01*
X154334940Y-146704450D01*
X154340448Y-146710567D01*
X154367976Y-146730567D01*
X154482540Y-146813803D01*
X154494949Y-146822819D01*
X154500977Y-146825503D01*
X154500979Y-146825504D01*
X154663382Y-146897810D01*
X154669413Y-146900495D01*
X154762813Y-146920348D01*
X154849757Y-146938829D01*
X154849762Y-146938829D01*
X154856214Y-146940201D01*
X155047188Y-146940201D01*
X155053643Y-146938829D01*
X155053652Y-146938828D01*
X155115322Y-146925719D01*
X155186113Y-146931120D01*
X155242746Y-146973936D01*
X155267240Y-147040574D01*
X155258930Y-147087449D01*
X155261223Y-147088194D01*
X155202208Y-147269822D01*
X155182246Y-147459750D01*
X155202208Y-147649678D01*
X155261223Y-147831306D01*
X155356710Y-147996694D01*
X155484497Y-148138616D01*
X155638998Y-148250868D01*
X155645026Y-148253552D01*
X155645028Y-148253553D01*
X155807431Y-148325859D01*
X155813462Y-148328544D01*
X155906863Y-148348397D01*
X155993806Y-148366878D01*
X155993811Y-148366878D01*
X156000263Y-148368250D01*
X156191237Y-148368250D01*
X156197689Y-148366878D01*
X156197694Y-148366878D01*
X156284637Y-148348397D01*
X156378038Y-148328544D01*
X156384069Y-148325859D01*
X156546472Y-148253553D01*
X156546474Y-148253552D01*
X156552502Y-148250868D01*
X156707003Y-148138616D01*
X156834790Y-147996694D01*
X156930277Y-147831306D01*
X156989292Y-147649678D01*
X157009254Y-147459750D01*
X156989292Y-147269822D01*
X156930277Y-147088194D01*
X156834790Y-146922806D01*
X156815937Y-146901867D01*
X156711425Y-146785795D01*
X156711424Y-146785794D01*
X156707003Y-146780884D01*
X156552502Y-146668632D01*
X156546474Y-146665948D01*
X156546472Y-146665947D01*
X156384069Y-146593641D01*
X156384068Y-146593641D01*
X156378038Y-146590956D01*
X156273074Y-146568645D01*
X156197694Y-146552622D01*
X156197689Y-146552622D01*
X156191237Y-146551250D01*
X156000263Y-146551250D01*
X155993808Y-146552622D01*
X155993799Y-146552623D01*
X155932129Y-146565732D01*
X155861338Y-146560331D01*
X155804705Y-146517515D01*
X155780211Y-146450877D01*
X155788521Y-146404002D01*
X155786228Y-146403257D01*
X155827510Y-146276206D01*
X155845243Y-146221629D01*
X155865205Y-146031701D01*
X155851009Y-145896635D01*
X155845933Y-145848336D01*
X155845933Y-145848334D01*
X155845243Y-145841773D01*
X155786228Y-145660145D01*
X155780455Y-145650145D01*
X155694042Y-145500475D01*
X155690741Y-145494757D01*
X155680206Y-145483056D01*
X155567376Y-145357746D01*
X155567375Y-145357745D01*
X155562954Y-145352835D01*
X155463858Y-145280837D01*
X155413795Y-145244464D01*
X155413794Y-145244463D01*
X155408453Y-145240583D01*
X155402425Y-145237899D01*
X155402423Y-145237898D01*
X155240020Y-145165592D01*
X155240019Y-145165592D01*
X155233989Y-145162907D01*
X155140589Y-145143054D01*
X155053645Y-145124573D01*
X155053640Y-145124573D01*
X155047188Y-145123201D01*
X154856214Y-145123201D01*
X154849762Y-145124573D01*
X154849757Y-145124573D01*
X154762813Y-145143054D01*
X154669413Y-145162907D01*
X154663383Y-145165592D01*
X154663382Y-145165592D01*
X154500979Y-145237898D01*
X154500977Y-145237899D01*
X154494949Y-145240583D01*
X154489608Y-145244463D01*
X154489607Y-145244464D01*
X154439544Y-145280837D01*
X154340448Y-145352835D01*
X154336027Y-145357745D01*
X154336026Y-145357746D01*
X154223197Y-145483056D01*
X154212661Y-145494757D01*
X154209360Y-145500475D01*
X154122948Y-145650145D01*
X154117174Y-145660145D01*
X154058159Y-145841773D01*
X154057469Y-145848334D01*
X154057469Y-145848336D01*
X154052393Y-145896635D01*
X154038197Y-146031701D01*
X153332274Y-146031701D01*
X153333504Y-146020000D01*
X153313542Y-145830072D01*
X153254527Y-145648444D01*
X153159040Y-145483056D01*
X153056301Y-145368952D01*
X153035675Y-145346045D01*
X153035674Y-145346044D01*
X153031253Y-145341134D01*
X152898199Y-145244464D01*
X152882094Y-145232763D01*
X152882093Y-145232762D01*
X152876752Y-145228882D01*
X152870724Y-145226198D01*
X152870722Y-145226197D01*
X152708319Y-145153891D01*
X152708318Y-145153891D01*
X152702288Y-145151206D01*
X152608887Y-145131353D01*
X152521944Y-145112872D01*
X152521939Y-145112872D01*
X152515487Y-145111500D01*
X152324513Y-145111500D01*
X152318061Y-145112872D01*
X152318056Y-145112872D01*
X152231113Y-145131353D01*
X152137712Y-145151206D01*
X152131682Y-145153891D01*
X152131681Y-145153891D01*
X151969278Y-145226197D01*
X151969276Y-145226198D01*
X151963248Y-145228882D01*
X151957907Y-145232762D01*
X151957906Y-145232763D01*
X151941801Y-145244464D01*
X151808747Y-145341134D01*
X151804326Y-145346044D01*
X151804325Y-145346045D01*
X151783700Y-145368952D01*
X151680960Y-145483056D01*
X151585473Y-145648444D01*
X151526458Y-145830072D01*
X151506496Y-146020000D01*
X150795026Y-146020000D01*
X150782060Y-145896635D01*
X150775933Y-145838336D01*
X150775933Y-145838334D01*
X150775243Y-145831773D01*
X150716228Y-145650145D01*
X150620741Y-145484757D01*
X150549869Y-145406045D01*
X150497376Y-145347746D01*
X150497375Y-145347745D01*
X150492954Y-145342835D01*
X150376049Y-145257898D01*
X150343795Y-145234464D01*
X150343794Y-145234463D01*
X150338453Y-145230583D01*
X150332425Y-145227899D01*
X150332423Y-145227898D01*
X150170020Y-145155592D01*
X150170019Y-145155592D01*
X150163989Y-145152907D01*
X150070588Y-145133054D01*
X149983645Y-145114573D01*
X149983640Y-145114573D01*
X149977188Y-145113201D01*
X149786214Y-145113201D01*
X149779762Y-145114573D01*
X149779757Y-145114573D01*
X149692814Y-145133054D01*
X149599413Y-145152907D01*
X149593383Y-145155592D01*
X149593382Y-145155592D01*
X149430979Y-145227898D01*
X149430977Y-145227899D01*
X149424949Y-145230583D01*
X149419608Y-145234463D01*
X149419607Y-145234464D01*
X149387353Y-145257898D01*
X149270448Y-145342835D01*
X149266027Y-145347745D01*
X149266026Y-145347746D01*
X149213534Y-145406045D01*
X149142661Y-145484757D01*
X149047174Y-145650145D01*
X148988159Y-145831773D01*
X148987469Y-145838334D01*
X148987469Y-145838336D01*
X148981342Y-145896635D01*
X148968197Y-146021701D01*
X148213325Y-146021701D01*
X148213504Y-146020000D01*
X148193542Y-145830072D01*
X148134527Y-145648444D01*
X148039040Y-145483056D01*
X147936301Y-145368952D01*
X147915675Y-145346045D01*
X147915674Y-145346044D01*
X147911253Y-145341134D01*
X147778199Y-145244464D01*
X147762094Y-145232763D01*
X147762093Y-145232762D01*
X147756752Y-145228882D01*
X147750724Y-145226198D01*
X147750722Y-145226197D01*
X147588319Y-145153891D01*
X147588318Y-145153891D01*
X147582288Y-145151206D01*
X147488887Y-145131353D01*
X147401944Y-145112872D01*
X147401939Y-145112872D01*
X147395487Y-145111500D01*
X147204513Y-145111500D01*
X147198061Y-145112872D01*
X147198056Y-145112872D01*
X147111113Y-145131353D01*
X147017712Y-145151206D01*
X147011682Y-145153891D01*
X147011681Y-145153891D01*
X146849278Y-145226197D01*
X146849276Y-145226198D01*
X146843248Y-145228882D01*
X146837907Y-145232762D01*
X146837906Y-145232763D01*
X146821801Y-145244464D01*
X146688747Y-145341134D01*
X146684326Y-145346044D01*
X146684325Y-145346045D01*
X146663700Y-145368952D01*
X146560960Y-145483056D01*
X146465473Y-145648444D01*
X146406458Y-145830072D01*
X146386496Y-146020000D01*
X145637198Y-146020000D01*
X145623542Y-145890072D01*
X145564527Y-145708444D01*
X145469040Y-145543056D01*
X145443560Y-145514757D01*
X145345675Y-145406045D01*
X145345674Y-145406044D01*
X145341253Y-145401134D01*
X145186752Y-145288882D01*
X145180724Y-145286198D01*
X145180722Y-145286197D01*
X145018319Y-145213891D01*
X145018318Y-145213891D01*
X145012288Y-145211206D01*
X144918887Y-145191353D01*
X144831944Y-145172872D01*
X144831939Y-145172872D01*
X144825487Y-145171500D01*
X144634513Y-145171500D01*
X144628061Y-145172872D01*
X144628056Y-145172872D01*
X144541113Y-145191353D01*
X144447712Y-145211206D01*
X144441682Y-145213891D01*
X144441681Y-145213891D01*
X144279278Y-145286197D01*
X144279276Y-145286198D01*
X144273248Y-145288882D01*
X144118747Y-145401134D01*
X144114326Y-145406044D01*
X144114325Y-145406045D01*
X144016441Y-145514757D01*
X143990960Y-145543056D01*
X143895473Y-145708444D01*
X143836458Y-145890072D01*
X143816496Y-146080000D01*
X143142231Y-146080000D01*
X143145205Y-146051701D01*
X143128217Y-145890072D01*
X143125933Y-145868336D01*
X143125933Y-145868334D01*
X143125243Y-145861773D01*
X143066228Y-145680145D01*
X143048908Y-145650145D01*
X142974042Y-145520475D01*
X142970741Y-145514757D01*
X142957882Y-145500475D01*
X142847376Y-145377746D01*
X142847375Y-145377745D01*
X142842954Y-145372835D01*
X142688453Y-145260583D01*
X142682425Y-145257899D01*
X142682423Y-145257898D01*
X142520020Y-145185592D01*
X142520019Y-145185592D01*
X142513989Y-145182907D01*
X142413442Y-145161535D01*
X142333645Y-145144573D01*
X142333640Y-145144573D01*
X142327188Y-145143201D01*
X142136214Y-145143201D01*
X142129762Y-145144573D01*
X142129757Y-145144573D01*
X142049960Y-145161535D01*
X141949413Y-145182907D01*
X141943383Y-145185592D01*
X141943382Y-145185592D01*
X141780979Y-145257898D01*
X141780977Y-145257899D01*
X141774949Y-145260583D01*
X141620448Y-145372835D01*
X141616027Y-145377745D01*
X141616026Y-145377746D01*
X141505521Y-145500475D01*
X141492661Y-145514757D01*
X141489360Y-145520475D01*
X141414495Y-145650145D01*
X141397174Y-145680145D01*
X141338159Y-145861773D01*
X141337469Y-145868334D01*
X141337469Y-145868336D01*
X141335185Y-145890072D01*
X141318197Y-146051701D01*
X140551223Y-146051701D01*
X140553504Y-146030000D01*
X140533542Y-145840072D01*
X140474527Y-145658444D01*
X140468754Y-145648444D01*
X140411209Y-145548774D01*
X140379040Y-145493056D01*
X140367149Y-145479849D01*
X140255675Y-145356045D01*
X140255674Y-145356044D01*
X140251253Y-145351134D01*
X140135562Y-145267079D01*
X140102094Y-145242763D01*
X140102093Y-145242762D01*
X140096752Y-145238882D01*
X140090724Y-145236198D01*
X140090722Y-145236197D01*
X139928319Y-145163891D01*
X139928318Y-145163891D01*
X139922288Y-145161206D01*
X139828887Y-145141353D01*
X139741944Y-145122872D01*
X139741939Y-145122872D01*
X139735487Y-145121500D01*
X139544513Y-145121500D01*
X139538061Y-145122872D01*
X139538056Y-145122872D01*
X139451113Y-145141353D01*
X139357712Y-145161206D01*
X139351682Y-145163891D01*
X139351681Y-145163891D01*
X139189278Y-145236197D01*
X139189276Y-145236198D01*
X139183248Y-145238882D01*
X139177907Y-145242762D01*
X139177906Y-145242763D01*
X139144438Y-145267079D01*
X139028747Y-145351134D01*
X139024326Y-145356044D01*
X139024325Y-145356045D01*
X138912852Y-145479849D01*
X138900960Y-145493056D01*
X138868791Y-145548774D01*
X138811247Y-145648444D01*
X138805473Y-145658444D01*
X138746458Y-145840072D01*
X138726496Y-146030000D01*
X138052453Y-146030000D01*
X138053504Y-146020000D01*
X138033542Y-145830072D01*
X137974527Y-145648444D01*
X137879040Y-145483056D01*
X137809699Y-145406045D01*
X137795546Y-145390326D01*
X137764828Y-145326319D01*
X137769349Y-145267079D01*
X137778511Y-145238882D01*
X137784834Y-145219422D01*
X137790671Y-145163891D01*
X137804106Y-145036059D01*
X137804796Y-145029494D01*
X137784834Y-144839566D01*
X137725819Y-144657938D01*
X137630332Y-144492550D01*
X137502545Y-144350628D01*
X137354016Y-144242715D01*
X137310662Y-144186493D01*
X137304587Y-144115756D01*
X137337719Y-144052965D01*
X137354015Y-144038843D01*
X137437242Y-143978375D01*
X137441664Y-143973464D01*
X137560610Y-143841361D01*
X137560611Y-143841360D01*
X137565029Y-143836453D01*
X137660516Y-143671065D01*
X137719531Y-143489437D01*
X137739493Y-143299509D01*
X137735161Y-143258294D01*
X137720221Y-143116144D01*
X137720221Y-143116142D01*
X137719531Y-143109581D01*
X137660516Y-142927953D01*
X137607201Y-142835608D01*
X137565029Y-142762565D01*
X137567784Y-142760974D01*
X137548354Y-142707270D01*
X137564996Y-142636520D01*
X137593014Y-142587992D01*
X137593015Y-142587991D01*
X137596318Y-142582269D01*
X137655333Y-142400641D01*
X137675295Y-142210713D01*
X137665267Y-142115299D01*
X137656023Y-142027348D01*
X137656023Y-142027346D01*
X137655333Y-142020785D01*
X137596318Y-141839157D01*
X137500831Y-141673769D01*
X137373044Y-141531847D01*
X137218543Y-141419595D01*
X137212515Y-141416911D01*
X137212513Y-141416910D01*
X137050110Y-141344604D01*
X137050109Y-141344604D01*
X137044079Y-141341919D01*
X136940959Y-141320000D01*
X136863735Y-141303585D01*
X136863730Y-141303585D01*
X136857278Y-141302213D01*
X136815388Y-141302213D01*
X136747267Y-141282211D01*
X136700774Y-141228555D01*
X136690670Y-141158281D01*
X136721752Y-141091903D01*
X136837779Y-140963042D01*
X136837780Y-140963041D01*
X136842198Y-140958134D01*
X136937685Y-140792746D01*
X136996700Y-140611118D01*
X136999921Y-140580478D01*
X137015972Y-140427755D01*
X137016662Y-140421190D01*
X136996700Y-140231262D01*
X136937685Y-140049634D01*
X136912555Y-140006108D01*
X136895818Y-139937116D01*
X136912556Y-139880110D01*
X136959226Y-139799276D01*
X136959227Y-139799275D01*
X136962530Y-139793553D01*
X137021545Y-139611925D01*
X137025734Y-139572074D01*
X137040817Y-139428562D01*
X137041507Y-139421997D01*
X137039487Y-139402773D01*
X137022236Y-139238639D01*
X137022235Y-139238635D01*
X137021545Y-139232069D01*
X137019504Y-139225787D01*
X137018131Y-139219329D01*
X137020603Y-139218804D01*
X137018901Y-139159200D01*
X137047123Y-139106926D01*
X137144540Y-138998733D01*
X137211883Y-138882093D01*
X137263263Y-138833101D01*
X137332977Y-138819664D01*
X137398888Y-138846051D01*
X137410095Y-138855999D01*
X140229615Y-141675519D01*
X140237159Y-141683809D01*
X140241272Y-141690290D01*
X140247049Y-141695715D01*
X140290939Y-141736930D01*
X140293781Y-141739685D01*
X140310624Y-141756528D01*
X140344650Y-141818840D01*
X140339585Y-141889655D01*
X140330648Y-141908623D01*
X140319975Y-141927108D01*
X140260960Y-142108736D01*
X140240998Y-142298664D01*
X140241688Y-142305229D01*
X140257318Y-142453936D01*
X140260960Y-142488592D01*
X140319975Y-142670220D01*
X140415462Y-142835608D01*
X140543249Y-142977530D01*
X140606524Y-143023502D01*
X140680375Y-143077158D01*
X140697750Y-143089782D01*
X140719853Y-143099623D01*
X140773948Y-143145602D01*
X140793913Y-143201558D01*
X140805726Y-143313947D01*
X140806969Y-143325778D01*
X140865984Y-143507406D01*
X140961471Y-143672794D01*
X140965889Y-143677701D01*
X140965890Y-143677702D01*
X141084836Y-143809805D01*
X141089258Y-143814716D01*
X141243759Y-143926968D01*
X141249787Y-143929652D01*
X141249789Y-143929653D01*
X141412192Y-144001959D01*
X141418223Y-144004644D01*
X141511623Y-144024497D01*
X141598567Y-144042978D01*
X141598572Y-144042978D01*
X141605024Y-144044350D01*
X141795998Y-144044350D01*
X141802450Y-144042978D01*
X141802455Y-144042978D01*
X141889399Y-144024497D01*
X141982799Y-144004644D01*
X141988830Y-144001959D01*
X142151233Y-143929653D01*
X142151235Y-143929652D01*
X142157263Y-143926968D01*
X142311764Y-143814716D01*
X142350264Y-143771957D01*
X142410710Y-143734719D01*
X142481693Y-143736071D01*
X142537534Y-143771957D01*
X142638747Y-143884366D01*
X142793248Y-143996618D01*
X142799276Y-143999302D01*
X142799278Y-143999303D01*
X142900456Y-144044350D01*
X142967712Y-144074294D01*
X143061113Y-144094147D01*
X143148056Y-144112628D01*
X143148061Y-144112628D01*
X143154513Y-144114000D01*
X143345487Y-144114000D01*
X143351939Y-144112628D01*
X143351944Y-144112628D01*
X143438887Y-144094147D01*
X143532288Y-144074294D01*
X143599544Y-144044350D01*
X143700722Y-143999303D01*
X143700724Y-143999302D01*
X143706752Y-143996618D01*
X143861253Y-143884366D01*
X143923966Y-143814716D01*
X143984621Y-143747352D01*
X143984622Y-143747351D01*
X143989040Y-143742444D01*
X144084527Y-143577056D01*
X144143542Y-143395428D01*
X144145205Y-143379604D01*
X144172216Y-143313947D01*
X144230437Y-143273316D01*
X144270515Y-143266772D01*
X147907961Y-143266772D01*
X147919144Y-143267299D01*
X147926637Y-143268974D01*
X147934563Y-143268725D01*
X147934564Y-143268725D01*
X147994714Y-143266834D01*
X147998673Y-143266772D01*
X148026584Y-143266772D01*
X148030519Y-143266275D01*
X148030584Y-143266267D01*
X148042421Y-143265334D01*
X148074679Y-143264320D01*
X148078698Y-143264194D01*
X148086617Y-143263945D01*
X148106071Y-143258293D01*
X148125428Y-143254285D01*
X148137658Y-143252740D01*
X148137659Y-143252740D01*
X148145525Y-143251746D01*
X148152896Y-143248827D01*
X148152898Y-143248827D01*
X148186640Y-143235468D01*
X148197870Y-143231623D01*
X148232711Y-143221501D01*
X148232712Y-143221501D01*
X148240321Y-143219290D01*
X148247140Y-143215257D01*
X148247145Y-143215255D01*
X148257756Y-143208979D01*
X148275504Y-143200284D01*
X148294345Y-143192824D01*
X148305829Y-143184481D01*
X148330115Y-143166836D01*
X148340035Y-143160320D01*
X148371263Y-143141852D01*
X148371266Y-143141850D01*
X148378090Y-143137814D01*
X148392414Y-143123490D01*
X148407441Y-143110655D01*
X148423835Y-143098744D01*
X148441693Y-143077158D01*
X148452020Y-143064674D01*
X148460010Y-143055894D01*
X148475499Y-143040405D01*
X148537811Y-143006379D01*
X148564594Y-143003500D01*
X150256646Y-143003500D01*
X150324767Y-143023502D01*
X150371260Y-143077158D01*
X150376478Y-143090560D01*
X150409036Y-143190763D01*
X150412339Y-143196485D01*
X150412340Y-143196486D01*
X150419553Y-143208979D01*
X150504523Y-143356151D01*
X150632310Y-143498073D01*
X150786811Y-143610325D01*
X150792839Y-143613009D01*
X150792841Y-143613010D01*
X150914276Y-143667076D01*
X150961275Y-143688001D01*
X151054675Y-143707854D01*
X151141619Y-143726335D01*
X151141624Y-143726335D01*
X151148076Y-143727707D01*
X151339050Y-143727707D01*
X151345502Y-143726335D01*
X151345507Y-143726335D01*
X151432451Y-143707854D01*
X151525851Y-143688001D01*
X151572850Y-143667076D01*
X151694285Y-143613010D01*
X151694287Y-143613009D01*
X151700315Y-143610325D01*
X151854816Y-143498073D01*
X151982603Y-143356151D01*
X152067573Y-143208979D01*
X152074786Y-143196486D01*
X152074787Y-143196485D01*
X152078090Y-143190763D01*
X152137105Y-143009135D01*
X152145638Y-142927953D01*
X152156377Y-142825772D01*
X152157067Y-142819207D01*
X152141408Y-142670220D01*
X152137795Y-142635842D01*
X152137795Y-142635840D01*
X152137105Y-142629279D01*
X152078090Y-142447651D01*
X151982603Y-142282263D01*
X151854816Y-142140341D01*
X151700315Y-142028089D01*
X151694287Y-142025405D01*
X151694285Y-142025404D01*
X151627042Y-141995466D01*
X151572947Y-141949486D01*
X151552297Y-141881559D01*
X151563185Y-141829109D01*
X151565783Y-141823275D01*
X151569085Y-141817555D01*
X151628100Y-141635927D01*
X151648062Y-141445999D01*
X151632950Y-141302213D01*
X151628790Y-141262634D01*
X151628790Y-141262632D01*
X151628100Y-141256071D01*
X151569085Y-141074443D01*
X151473598Y-140909055D01*
X151430915Y-140861650D01*
X151350233Y-140772044D01*
X151350232Y-140772043D01*
X151345811Y-140767133D01*
X151263647Y-140707437D01*
X151220293Y-140651214D01*
X151214218Y-140580478D01*
X151247350Y-140517687D01*
X151309170Y-140482775D01*
X151337708Y-140479501D01*
X152205242Y-140479501D01*
X152273363Y-140499503D01*
X152292589Y-140515844D01*
X152292862Y-140515541D01*
X152297774Y-140519964D01*
X152302189Y-140524867D01*
X152323771Y-140540547D01*
X152449876Y-140632168D01*
X152456690Y-140637119D01*
X152462718Y-140639803D01*
X152462720Y-140639804D01*
X152625123Y-140712110D01*
X152631154Y-140714795D01*
X152719163Y-140733502D01*
X152811498Y-140753129D01*
X152811503Y-140753129D01*
X152817955Y-140754501D01*
X153008929Y-140754501D01*
X153015381Y-140753129D01*
X153015386Y-140753129D01*
X153107721Y-140733502D01*
X153195730Y-140714795D01*
X153201761Y-140712110D01*
X153364164Y-140639804D01*
X153364166Y-140639803D01*
X153370194Y-140637119D01*
X153377009Y-140632168D01*
X153461885Y-140570501D01*
X153524695Y-140524867D01*
X153652482Y-140382945D01*
X153736267Y-140237825D01*
X153744665Y-140223280D01*
X153744666Y-140223279D01*
X153747969Y-140217557D01*
X153806984Y-140035929D01*
X153813445Y-139974462D01*
X153826256Y-139852566D01*
X153826946Y-139846001D01*
X153820773Y-139787268D01*
X153807674Y-139662636D01*
X153807674Y-139662634D01*
X153806984Y-139656073D01*
X153747969Y-139474445D01*
X153652482Y-139309057D01*
X153589078Y-139238639D01*
X153529117Y-139172046D01*
X153529116Y-139172045D01*
X153524695Y-139167135D01*
X153498270Y-139147936D01*
X153454916Y-139091713D01*
X153450260Y-139037502D01*
X154424998Y-139037502D01*
X154425688Y-139044067D01*
X154444109Y-139219329D01*
X154444960Y-139227430D01*
X154503975Y-139409058D01*
X154599462Y-139574446D01*
X154603880Y-139579353D01*
X154603881Y-139579354D01*
X154722827Y-139711457D01*
X154727249Y-139716368D01*
X154881750Y-139828620D01*
X154887778Y-139831304D01*
X154887780Y-139831305D01*
X154997399Y-139880110D01*
X155056214Y-139906296D01*
X155218234Y-139940735D01*
X155280706Y-139974462D01*
X155315028Y-140036612D01*
X155315283Y-140090177D01*
X155314897Y-140091991D01*
X155312857Y-140098271D01*
X155292895Y-140288199D01*
X155312857Y-140478127D01*
X155314897Y-140484405D01*
X155360028Y-140623303D01*
X155362056Y-140694270D01*
X155333831Y-140746549D01*
X155300960Y-140783056D01*
X155205473Y-140948444D01*
X155146458Y-141130072D01*
X155126496Y-141320000D01*
X155127186Y-141326565D01*
X155136682Y-141416910D01*
X155146458Y-141509928D01*
X155205473Y-141691556D01*
X155300960Y-141856944D01*
X155305378Y-141861851D01*
X155305379Y-141861852D01*
X155358983Y-141921385D01*
X155428747Y-141998866D01*
X155467949Y-142027348D01*
X155571329Y-142102458D01*
X155583248Y-142111118D01*
X155589276Y-142113802D01*
X155589278Y-142113803D01*
X155751681Y-142186109D01*
X155757712Y-142188794D01*
X155851112Y-142208647D01*
X155938056Y-142227128D01*
X155938061Y-142227128D01*
X155944513Y-142228500D01*
X156135487Y-142228500D01*
X156141939Y-142227128D01*
X156141944Y-142227128D01*
X156228888Y-142208647D01*
X156322288Y-142188794D01*
X156328319Y-142186109D01*
X156490722Y-142113803D01*
X156490724Y-142113802D01*
X156496752Y-142111118D01*
X156508672Y-142102458D01*
X156612051Y-142027348D01*
X156651253Y-141998866D01*
X156721017Y-141921385D01*
X156774621Y-141861852D01*
X156774622Y-141861851D01*
X156779040Y-141856944D01*
X156874527Y-141691556D01*
X156933542Y-141509928D01*
X156943319Y-141416910D01*
X156952814Y-141326565D01*
X156953504Y-141320000D01*
X156933542Y-141130072D01*
X156886371Y-140984896D01*
X156884343Y-140913929D01*
X156912568Y-140861650D01*
X156941020Y-140830051D01*
X156941021Y-140830050D01*
X156945439Y-140825143D01*
X156998348Y-140733502D01*
X157049730Y-140684509D01*
X157107467Y-140670502D01*
X157151662Y-140670502D01*
X157158114Y-140669130D01*
X157158119Y-140669130D01*
X157245063Y-140650649D01*
X157338463Y-140630796D01*
X157397402Y-140604555D01*
X157506897Y-140555805D01*
X157506899Y-140555804D01*
X157512927Y-140553120D01*
X157667428Y-140440868D01*
X157795215Y-140298946D01*
X157890702Y-140133558D01*
X157949717Y-139951930D01*
X157954796Y-139903611D01*
X157968989Y-139768567D01*
X157969679Y-139762002D01*
X157954565Y-139618203D01*
X157950407Y-139578637D01*
X157950407Y-139578635D01*
X157949717Y-139572074D01*
X157890702Y-139390446D01*
X157795215Y-139225058D01*
X157667428Y-139083136D01*
X157551258Y-138998733D01*
X157518269Y-138974765D01*
X157518268Y-138974764D01*
X157512927Y-138970884D01*
X157506899Y-138968200D01*
X157506897Y-138968199D01*
X157344494Y-138895893D01*
X157344493Y-138895893D01*
X157338463Y-138893208D01*
X157245062Y-138873355D01*
X157158119Y-138854874D01*
X157158114Y-138854874D01*
X157151662Y-138853502D01*
X156960688Y-138853502D01*
X156954236Y-138854874D01*
X156954231Y-138854874D01*
X156867288Y-138873355D01*
X156773887Y-138893208D01*
X156767857Y-138895893D01*
X156767856Y-138895893D01*
X156605453Y-138968199D01*
X156605451Y-138968200D01*
X156599423Y-138970884D01*
X156594082Y-138974764D01*
X156594081Y-138974765D01*
X156446707Y-139081839D01*
X156379839Y-139105697D01*
X156310688Y-139089617D01*
X156261208Y-139038703D01*
X156247336Y-138993073D01*
X156243670Y-138958186D01*
X156237237Y-138896984D01*
X156232734Y-138854137D01*
X156232734Y-138854135D01*
X156232044Y-138847574D01*
X156173029Y-138665946D01*
X156077542Y-138500558D01*
X155949755Y-138358636D01*
X155809954Y-138257064D01*
X155800596Y-138250265D01*
X155800595Y-138250264D01*
X155795254Y-138246384D01*
X155789226Y-138243700D01*
X155789224Y-138243699D01*
X155626821Y-138171393D01*
X155626820Y-138171393D01*
X155620790Y-138168708D01*
X155527390Y-138148855D01*
X155440446Y-138130374D01*
X155440441Y-138130374D01*
X155433989Y-138129002D01*
X155243015Y-138129002D01*
X155236563Y-138130374D01*
X155236558Y-138130374D01*
X155149614Y-138148855D01*
X155056214Y-138168708D01*
X155050184Y-138171393D01*
X155050183Y-138171393D01*
X154887780Y-138243699D01*
X154887778Y-138243700D01*
X154881750Y-138246384D01*
X154876409Y-138250264D01*
X154876408Y-138250265D01*
X154867050Y-138257064D01*
X154727249Y-138358636D01*
X154599462Y-138500558D01*
X154503975Y-138665946D01*
X154444960Y-138847574D01*
X154444270Y-138854135D01*
X154444270Y-138854137D01*
X154426735Y-139020977D01*
X154424998Y-139037502D01*
X153450260Y-139037502D01*
X153448841Y-139020977D01*
X153481973Y-138958186D01*
X153498270Y-138944064D01*
X153500081Y-138942748D01*
X153524695Y-138924865D01*
X153549799Y-138896984D01*
X153648063Y-138787851D01*
X153648064Y-138787850D01*
X153652482Y-138782943D01*
X153747969Y-138617555D01*
X153806984Y-138435927D01*
X153826946Y-138245999D01*
X153819105Y-138171393D01*
X153807674Y-138062634D01*
X153807674Y-138062632D01*
X153806984Y-138056071D01*
X153747969Y-137874443D01*
X153652482Y-137709055D01*
X153581999Y-137630775D01*
X153529117Y-137572044D01*
X153529116Y-137572043D01*
X153524695Y-137567133D01*
X153406455Y-137481226D01*
X153375536Y-137458762D01*
X153375535Y-137458761D01*
X153370194Y-137454881D01*
X153364166Y-137452197D01*
X153364164Y-137452196D01*
X153201761Y-137379890D01*
X153201760Y-137379890D01*
X153195730Y-137377205D01*
X153189269Y-137375832D01*
X153189264Y-137375830D01*
X153141708Y-137365721D01*
X153079234Y-137331993D01*
X153044913Y-137269843D01*
X153049641Y-137199004D01*
X153074267Y-137158168D01*
X153119040Y-137108442D01*
X153205091Y-136959397D01*
X153211223Y-136948777D01*
X153211224Y-136948776D01*
X153214527Y-136943054D01*
X153273542Y-136761426D01*
X153293504Y-136571498D01*
X153292814Y-136564933D01*
X153274232Y-136388133D01*
X153274232Y-136388131D01*
X153273542Y-136381570D01*
X153214527Y-136199942D01*
X153119040Y-136034554D01*
X153034029Y-135940139D01*
X152995675Y-135897543D01*
X152995674Y-135897542D01*
X152991253Y-135892632D01*
X152836752Y-135780380D01*
X152830724Y-135777696D01*
X152830722Y-135777695D01*
X152733944Y-135734607D01*
X152679848Y-135688627D01*
X152659199Y-135620700D01*
X152678551Y-135552391D01*
X152731762Y-135505390D01*
X152785193Y-135493500D01*
X157514025Y-135493500D01*
X157525208Y-135494027D01*
X157532701Y-135495702D01*
X157540627Y-135495453D01*
X157540628Y-135495453D01*
X157600778Y-135493562D01*
X157604737Y-135493500D01*
X157632648Y-135493500D01*
X157636583Y-135493003D01*
X157636648Y-135492995D01*
X157648485Y-135492062D01*
X157680743Y-135491048D01*
X157684762Y-135490922D01*
X157692681Y-135490673D01*
X157712135Y-135485021D01*
X157731492Y-135481013D01*
X157743722Y-135479468D01*
X157743723Y-135479468D01*
X157751589Y-135478474D01*
X157758960Y-135475555D01*
X157758962Y-135475555D01*
X157792704Y-135462196D01*
X157803934Y-135458351D01*
X157838775Y-135448229D01*
X157838776Y-135448229D01*
X157846385Y-135446018D01*
X157853204Y-135441985D01*
X157853209Y-135441983D01*
X157863820Y-135435707D01*
X157881568Y-135427012D01*
X157900409Y-135419552D01*
X157936179Y-135393564D01*
X157946099Y-135387048D01*
X157977327Y-135368580D01*
X157977330Y-135368578D01*
X157984154Y-135364542D01*
X157998475Y-135350221D01*
X158013509Y-135337380D01*
X158023486Y-135330131D01*
X158029899Y-135325472D01*
X158058090Y-135291395D01*
X158066080Y-135282616D01*
X158534405Y-134814291D01*
X158596717Y-134780265D01*
X158667532Y-134785330D01*
G37*
%TD.AperFunction*%
%TA.AperFunction,Conductor*%
G36*
X147211084Y-134637637D02*
G01*
X147266927Y-134673525D01*
X147354230Y-134770485D01*
X147508731Y-134882737D01*
X147514759Y-134885421D01*
X147514761Y-134885422D01*
X147677164Y-134957728D01*
X147683195Y-134960413D01*
X147776595Y-134980266D01*
X147863539Y-134998747D01*
X147863544Y-134998747D01*
X147869996Y-135000119D01*
X148014501Y-135000119D01*
X148082622Y-135020121D01*
X148129115Y-135073777D01*
X148140501Y-135126119D01*
X148140501Y-135582918D01*
X148120499Y-135651039D01*
X148108143Y-135667221D01*
X148034961Y-135748498D01*
X148023413Y-135768500D01*
X147946361Y-135901958D01*
X147939474Y-135913886D01*
X147880459Y-136095514D01*
X147879769Y-136102075D01*
X147879769Y-136102077D01*
X147862409Y-136267251D01*
X147860497Y-136285442D01*
X147861187Y-136292007D01*
X147874511Y-136418774D01*
X147880459Y-136475370D01*
X147939474Y-136656998D01*
X148034961Y-136822386D01*
X148100291Y-136894942D01*
X148131008Y-136958950D01*
X148122243Y-137029403D01*
X148095749Y-137068347D01*
X147006935Y-138157160D01*
X146944623Y-138191186D01*
X146873807Y-138186121D01*
X146824204Y-138152375D01*
X146804395Y-138130374D01*
X146758953Y-138079906D01*
X146604452Y-137967654D01*
X146598424Y-137964970D01*
X146598422Y-137964969D01*
X146436019Y-137892663D01*
X146436018Y-137892663D01*
X146429988Y-137889978D01*
X146329978Y-137868720D01*
X146249644Y-137851644D01*
X146249639Y-137851644D01*
X146243187Y-137850272D01*
X146052213Y-137850272D01*
X146045761Y-137851644D01*
X146045756Y-137851644D01*
X145965422Y-137868720D01*
X145865412Y-137889978D01*
X145859382Y-137892663D01*
X145859381Y-137892663D01*
X145696978Y-137964969D01*
X145696976Y-137964970D01*
X145690948Y-137967654D01*
X145536447Y-138079906D01*
X145532026Y-138084816D01*
X145532025Y-138084817D01*
X145420751Y-138208400D01*
X145408660Y-138221828D01*
X145350984Y-138321725D01*
X145331916Y-138354753D01*
X145313173Y-138387216D01*
X145254158Y-138568844D01*
X145253468Y-138575405D01*
X145253468Y-138575407D01*
X145236490Y-138736943D01*
X145209477Y-138802599D01*
X145151255Y-138843229D01*
X145111180Y-138849772D01*
X142968409Y-138849772D01*
X142900288Y-138829770D01*
X142853795Y-138776114D01*
X142843099Y-138736942D01*
X142826069Y-138574907D01*
X142826069Y-138574905D01*
X142825379Y-138568344D01*
X142766364Y-138386716D01*
X142670877Y-138221328D01*
X142625916Y-138171393D01*
X142547512Y-138084317D01*
X142547511Y-138084316D01*
X142543090Y-138079406D01*
X142388589Y-137967154D01*
X142382561Y-137964470D01*
X142382559Y-137964469D01*
X142220156Y-137892163D01*
X142220155Y-137892163D01*
X142214125Y-137889478D01*
X142116467Y-137868720D01*
X142033781Y-137851144D01*
X142033776Y-137851144D01*
X142027324Y-137849772D01*
X141847623Y-137849772D01*
X141779502Y-137829770D01*
X141733009Y-137776114D01*
X141722905Y-137705840D01*
X141752399Y-137641260D01*
X141761587Y-137631894D01*
X141765755Y-137628866D01*
X141772252Y-137621651D01*
X141889123Y-137491852D01*
X141889124Y-137491851D01*
X141893542Y-137486944D01*
X141989029Y-137321556D01*
X141999502Y-137289322D01*
X142039575Y-137230717D01*
X142104972Y-137203080D01*
X142174928Y-137215187D01*
X142209301Y-137241174D01*
X142209423Y-137241039D01*
X142210994Y-137242454D01*
X142212969Y-137243946D01*
X142218747Y-137250364D01*
X142275795Y-137291812D01*
X142338678Y-137337499D01*
X142373248Y-137362616D01*
X142379276Y-137365300D01*
X142379278Y-137365301D01*
X142531046Y-137432872D01*
X142547712Y-137440292D01*
X142634606Y-137458762D01*
X142728056Y-137478626D01*
X142728061Y-137478626D01*
X142734513Y-137479998D01*
X142925487Y-137479998D01*
X142931939Y-137478626D01*
X142931944Y-137478626D01*
X143025394Y-137458762D01*
X143112288Y-137440292D01*
X143128954Y-137432872D01*
X143280722Y-137365301D01*
X143280724Y-137365300D01*
X143286752Y-137362616D01*
X143351368Y-137315670D01*
X143418234Y-137291812D01*
X143487386Y-137307892D01*
X143536866Y-137358805D01*
X143550684Y-137414603D01*
X143550738Y-137414597D01*
X143551428Y-137421162D01*
X143569013Y-137588470D01*
X143570700Y-137604525D01*
X143629715Y-137786153D01*
X143725202Y-137951541D01*
X143729620Y-137956448D01*
X143729621Y-137956449D01*
X143840332Y-138079406D01*
X143852989Y-138093463D01*
X143933994Y-138152317D01*
X143987493Y-138191186D01*
X144007490Y-138205715D01*
X144013518Y-138208399D01*
X144013520Y-138208400D01*
X144107551Y-138250265D01*
X144181954Y-138283391D01*
X144275354Y-138303244D01*
X144362298Y-138321725D01*
X144362303Y-138321725D01*
X144368755Y-138323097D01*
X144559729Y-138323097D01*
X144566181Y-138321725D01*
X144566186Y-138321725D01*
X144653130Y-138303244D01*
X144746530Y-138283391D01*
X144820933Y-138250265D01*
X144914964Y-138208400D01*
X144914966Y-138208399D01*
X144920994Y-138205715D01*
X144940992Y-138191186D01*
X144994490Y-138152317D01*
X145075495Y-138093463D01*
X145088152Y-138079406D01*
X145198863Y-137956449D01*
X145198864Y-137956448D01*
X145203282Y-137951541D01*
X145298769Y-137786153D01*
X145357784Y-137604525D01*
X145359472Y-137588470D01*
X145377056Y-137421162D01*
X145377746Y-137414597D01*
X145373816Y-137377205D01*
X145369182Y-137333112D01*
X145381954Y-137263274D01*
X145430457Y-137211427D01*
X145494492Y-137193942D01*
X145669486Y-137193942D01*
X145675938Y-137192570D01*
X145675943Y-137192570D01*
X145762886Y-137174089D01*
X145856287Y-137154236D01*
X145862318Y-137151551D01*
X146024721Y-137079245D01*
X146024723Y-137079244D01*
X146030751Y-137076560D01*
X146185252Y-136964308D01*
X146210048Y-136936769D01*
X146308620Y-136827294D01*
X146308621Y-136827293D01*
X146313039Y-136822386D01*
X146408526Y-136656998D01*
X146467541Y-136475370D01*
X146473490Y-136418774D01*
X146486813Y-136292007D01*
X146487503Y-136285442D01*
X146485591Y-136267251D01*
X146468231Y-136102077D01*
X146468231Y-136102075D01*
X146467541Y-136095514D01*
X146408526Y-135913886D01*
X146401640Y-135901958D01*
X146324587Y-135768500D01*
X146313039Y-135748498D01*
X146307973Y-135742871D01*
X146189674Y-135611487D01*
X146189673Y-135611486D01*
X146185252Y-135606576D01*
X146080941Y-135530789D01*
X146036093Y-135498205D01*
X146036092Y-135498204D01*
X146030751Y-135494324D01*
X146024723Y-135491640D01*
X146024721Y-135491639D01*
X145862318Y-135419333D01*
X145862317Y-135419333D01*
X145856287Y-135416648D01*
X145736687Y-135391226D01*
X145675943Y-135378314D01*
X145675938Y-135378314D01*
X145669486Y-135376942D01*
X145478512Y-135376942D01*
X145472060Y-135378314D01*
X145472055Y-135378314D01*
X145423068Y-135388727D01*
X145352277Y-135383325D01*
X145295645Y-135340508D01*
X145271151Y-135273870D01*
X145286572Y-135204569D01*
X145294752Y-135191706D01*
X145299040Y-135186944D01*
X145374522Y-135056206D01*
X145391223Y-135027279D01*
X145391224Y-135027278D01*
X145394527Y-135021556D01*
X145453542Y-134839928D01*
X145454063Y-134834971D01*
X145487508Y-134773026D01*
X145549658Y-134738707D01*
X145577024Y-134735699D01*
X145663373Y-134735699D01*
X145731494Y-134755701D01*
X145750720Y-134772042D01*
X145750993Y-134771739D01*
X145755905Y-134776162D01*
X145760320Y-134781065D01*
X145766190Y-134785330D01*
X145903955Y-134885422D01*
X145914821Y-134893317D01*
X145920849Y-134896001D01*
X145920851Y-134896002D01*
X146068603Y-134961785D01*
X146089285Y-134970993D01*
X146182685Y-134990846D01*
X146269629Y-135009327D01*
X146269634Y-135009327D01*
X146276086Y-135010699D01*
X146467060Y-135010699D01*
X146473512Y-135009327D01*
X146473517Y-135009327D01*
X146560461Y-134990846D01*
X146653861Y-134970993D01*
X146674543Y-134961785D01*
X146822295Y-134896002D01*
X146822297Y-134896001D01*
X146828325Y-134893317D01*
X146839192Y-134885422D01*
X146918395Y-134827877D01*
X146982826Y-134781065D01*
X147079656Y-134673525D01*
X147140101Y-134636285D01*
X147211084Y-134637637D01*
G37*
%TD.AperFunction*%
%TA.AperFunction,Conductor*%
G36*
X142139459Y-132873605D02*
G01*
X142185525Y-132927628D01*
X142196500Y-132979059D01*
X142196500Y-135868974D01*
X142176498Y-135937095D01*
X142164142Y-135953277D01*
X142090960Y-136034554D01*
X141995473Y-136199942D01*
X141993432Y-136206224D01*
X141993431Y-136206226D01*
X141985000Y-136232175D01*
X141944927Y-136290781D01*
X141879530Y-136318418D01*
X141809574Y-136306311D01*
X141775201Y-136280324D01*
X141775079Y-136280459D01*
X141773508Y-136279044D01*
X141771533Y-136277552D01*
X141765755Y-136271134D01*
X141611254Y-136158882D01*
X141605226Y-136156198D01*
X141605224Y-136156197D01*
X141442821Y-136083891D01*
X141442820Y-136083891D01*
X141436790Y-136081206D01*
X141343389Y-136061353D01*
X141256446Y-136042872D01*
X141256441Y-136042872D01*
X141249989Y-136041500D01*
X141059015Y-136041500D01*
X141052563Y-136042872D01*
X141052558Y-136042872D01*
X140965615Y-136061353D01*
X140872214Y-136081206D01*
X140866184Y-136083891D01*
X140866183Y-136083891D01*
X140703780Y-136156197D01*
X140703778Y-136156198D01*
X140697750Y-136158882D01*
X140543249Y-136271134D01*
X140538828Y-136276044D01*
X140538827Y-136276045D01*
X140511576Y-136306311D01*
X140415462Y-136413056D01*
X140412161Y-136418774D01*
X140327776Y-136564933D01*
X140319975Y-136578444D01*
X140260960Y-136760072D01*
X140260270Y-136766633D01*
X140260270Y-136766635D01*
X140253895Y-136827288D01*
X140240998Y-136950000D01*
X140241688Y-136956564D01*
X140247954Y-137016181D01*
X140235182Y-137086020D01*
X140186680Y-137137867D01*
X140117847Y-137155261D01*
X140050537Y-137132680D01*
X140033549Y-137118447D01*
X139659994Y-136744892D01*
X139625968Y-136682580D01*
X139623089Y-136655797D01*
X139623089Y-135562063D01*
X139643091Y-135493942D01*
X139696747Y-135447449D01*
X139767021Y-135437345D01*
X139831601Y-135466839D01*
X139842715Y-135477742D01*
X139888747Y-135528866D01*
X139929535Y-135558500D01*
X140029713Y-135631284D01*
X140043248Y-135641118D01*
X140049276Y-135643802D01*
X140049278Y-135643803D01*
X140181573Y-135702704D01*
X140217712Y-135718794D01*
X140292106Y-135734607D01*
X140398056Y-135757128D01*
X140398061Y-135757128D01*
X140404513Y-135758500D01*
X140595487Y-135758500D01*
X140601939Y-135757128D01*
X140601944Y-135757128D01*
X140707894Y-135734607D01*
X140782288Y-135718794D01*
X140818427Y-135702704D01*
X140950722Y-135643803D01*
X140950724Y-135643802D01*
X140956752Y-135641118D01*
X140970288Y-135631284D01*
X141070465Y-135558500D01*
X141111253Y-135528866D01*
X141144223Y-135492249D01*
X141234621Y-135391852D01*
X141234622Y-135391851D01*
X141239040Y-135386944D01*
X141325449Y-135237279D01*
X141331223Y-135227279D01*
X141331224Y-135227278D01*
X141334527Y-135221556D01*
X141393542Y-135039928D01*
X141394872Y-135027279D01*
X141412814Y-134856565D01*
X141413504Y-134850000D01*
X141393542Y-134660072D01*
X141334527Y-134478444D01*
X141239040Y-134313056D01*
X141111253Y-134171134D01*
X140956752Y-134058882D01*
X140950724Y-134056198D01*
X140950722Y-134056197D01*
X140788319Y-133983891D01*
X140788318Y-133983891D01*
X140782288Y-133981206D01*
X140688887Y-133961353D01*
X140601944Y-133942872D01*
X140601939Y-133942872D01*
X140595487Y-133941500D01*
X140404513Y-133941500D01*
X140398061Y-133942872D01*
X140398056Y-133942872D01*
X140311113Y-133961353D01*
X140217712Y-133981206D01*
X140211682Y-133983891D01*
X140211681Y-133983891D01*
X140049278Y-134056197D01*
X140049276Y-134056198D01*
X140043248Y-134058882D01*
X139888747Y-134171134D01*
X139842723Y-134222249D01*
X139782280Y-134259487D01*
X139711296Y-134258136D01*
X139652311Y-134218622D01*
X139624053Y-134153491D01*
X139623089Y-134137937D01*
X139623089Y-133988165D01*
X139643091Y-133920044D01*
X139655447Y-133903862D01*
X139728629Y-133822585D01*
X139824116Y-133657197D01*
X139877663Y-133492396D01*
X139917737Y-133433792D01*
X139983133Y-133406155D01*
X140053090Y-133418262D01*
X140069765Y-133428120D01*
X140131751Y-133471523D01*
X140136733Y-133473846D01*
X140136738Y-133473849D01*
X140316201Y-133557533D01*
X140339257Y-133568284D01*
X140344565Y-133569706D01*
X140344567Y-133569707D01*
X140555098Y-133626119D01*
X140555100Y-133626119D01*
X140560413Y-133627543D01*
X140788500Y-133647498D01*
X141016587Y-133627543D01*
X141021900Y-133626119D01*
X141021902Y-133626119D01*
X141232433Y-133569707D01*
X141232435Y-133569706D01*
X141237743Y-133568284D01*
X141260799Y-133557533D01*
X141440262Y-133473849D01*
X141440267Y-133473846D01*
X141445249Y-133471523D01*
X141603713Y-133360565D01*
X141628289Y-133343357D01*
X141628292Y-133343355D01*
X141632800Y-133340198D01*
X141794698Y-133178300D01*
X141926023Y-132990749D01*
X141928347Y-132985766D01*
X141928349Y-132985762D01*
X141956305Y-132925809D01*
X142003222Y-132872524D01*
X142071500Y-132853063D01*
X142139459Y-132873605D01*
G37*
%TD.AperFunction*%
%TA.AperFunction,Conductor*%
G36*
X137013621Y-117368502D02*
G01*
X137060114Y-117422158D01*
X137071500Y-117474500D01*
X137071500Y-119262134D01*
X137078255Y-119324316D01*
X137129385Y-119460705D01*
X137216739Y-119577261D01*
X137333295Y-119664615D01*
X137469684Y-119715745D01*
X137531866Y-119722500D01*
X137531728Y-119723767D01*
X137593790Y-119745688D01*
X137637323Y-119801772D01*
X137643625Y-119872488D01*
X137610694Y-119935385D01*
X137594116Y-119949796D01*
X137564747Y-119971134D01*
X137436960Y-120113056D01*
X137341473Y-120278444D01*
X137282458Y-120460072D01*
X137281768Y-120466633D01*
X137281768Y-120466635D01*
X137274702Y-120533865D01*
X137262496Y-120650000D01*
X137282458Y-120839928D01*
X137341473Y-121021556D01*
X137436960Y-121186944D01*
X137441378Y-121191851D01*
X137441379Y-121191852D01*
X137559024Y-121322510D01*
X137564747Y-121328866D01*
X137719248Y-121441118D01*
X137725276Y-121443802D01*
X137725278Y-121443803D01*
X137887681Y-121516109D01*
X137893712Y-121518794D01*
X137987113Y-121538647D01*
X138074056Y-121557128D01*
X138074061Y-121557128D01*
X138080513Y-121558500D01*
X138271487Y-121558500D01*
X138277939Y-121557128D01*
X138277944Y-121557128D01*
X138364887Y-121538647D01*
X138458288Y-121518794D01*
X138464319Y-121516109D01*
X138626722Y-121443803D01*
X138626724Y-121443802D01*
X138632752Y-121441118D01*
X138787253Y-121328866D01*
X138792976Y-121322510D01*
X138910621Y-121191852D01*
X138910622Y-121191851D01*
X138915040Y-121186944D01*
X139010527Y-121021556D01*
X139069542Y-120839928D01*
X139089504Y-120650000D01*
X139077298Y-120533865D01*
X139070232Y-120466635D01*
X139070232Y-120466633D01*
X139069542Y-120460072D01*
X139010527Y-120278444D01*
X138915040Y-120113056D01*
X138787253Y-119971134D01*
X138758763Y-119950435D01*
X138715411Y-119894213D01*
X138709336Y-119823477D01*
X138742468Y-119760685D01*
X138804288Y-119725774D01*
X138832826Y-119722500D01*
X139328134Y-119722500D01*
X139390316Y-119715745D01*
X139526705Y-119664615D01*
X139643261Y-119577261D01*
X139730615Y-119460705D01*
X139752799Y-119401529D01*
X139774598Y-119343382D01*
X139817240Y-119286618D01*
X139883802Y-119261918D01*
X139953150Y-119277126D01*
X139987817Y-119305114D01*
X140016250Y-119337938D01*
X140188126Y-119480632D01*
X140381000Y-119593338D01*
X140589692Y-119673030D01*
X140594760Y-119674061D01*
X140594763Y-119674062D01*
X140702017Y-119695883D01*
X140808597Y-119717567D01*
X140813772Y-119717757D01*
X140813774Y-119717757D01*
X141026673Y-119725564D01*
X141026677Y-119725564D01*
X141031837Y-119725753D01*
X141036957Y-119725097D01*
X141036959Y-119725097D01*
X141248288Y-119698025D01*
X141248289Y-119698025D01*
X141253416Y-119697368D01*
X141258366Y-119695883D01*
X141462429Y-119634661D01*
X141462434Y-119634659D01*
X141467384Y-119633174D01*
X141667994Y-119534896D01*
X141849860Y-119405173D01*
X142008096Y-119247489D01*
X142138453Y-119066077D01*
X142139776Y-119067028D01*
X142186645Y-119023857D01*
X142256580Y-119011625D01*
X142322026Y-119039144D01*
X142349875Y-119070994D01*
X142409987Y-119169088D01*
X142556250Y-119337938D01*
X142728126Y-119480632D01*
X142921000Y-119593338D01*
X143129692Y-119673030D01*
X143134760Y-119674061D01*
X143134763Y-119674062D01*
X143242017Y-119695883D01*
X143348597Y-119717567D01*
X143353772Y-119717757D01*
X143353774Y-119717757D01*
X143566673Y-119725564D01*
X143566677Y-119725564D01*
X143571837Y-119725753D01*
X143576957Y-119725097D01*
X143576959Y-119725097D01*
X143788288Y-119698025D01*
X143788289Y-119698025D01*
X143793416Y-119697368D01*
X143798366Y-119695883D01*
X144002429Y-119634661D01*
X144002434Y-119634659D01*
X144007384Y-119633174D01*
X144207994Y-119534896D01*
X144389860Y-119405173D01*
X144548096Y-119247489D01*
X144678453Y-119066077D01*
X144679776Y-119067028D01*
X144726645Y-119023857D01*
X144796580Y-119011625D01*
X144862026Y-119039144D01*
X144889875Y-119070994D01*
X144949987Y-119169088D01*
X145096250Y-119337938D01*
X145268126Y-119480632D01*
X145461000Y-119593338D01*
X145669692Y-119673030D01*
X145674760Y-119674061D01*
X145674763Y-119674062D01*
X145782017Y-119695883D01*
X145888597Y-119717567D01*
X145893772Y-119717757D01*
X145893774Y-119717757D01*
X146106673Y-119725564D01*
X146106677Y-119725564D01*
X146111837Y-119725753D01*
X146116957Y-119725097D01*
X146116959Y-119725097D01*
X146328288Y-119698025D01*
X146328289Y-119698025D01*
X146333416Y-119697368D01*
X146338366Y-119695883D01*
X146542429Y-119634661D01*
X146542434Y-119634659D01*
X146547384Y-119633174D01*
X146747994Y-119534896D01*
X146929860Y-119405173D01*
X147088096Y-119247489D01*
X147218453Y-119066077D01*
X147219776Y-119067028D01*
X147266645Y-119023857D01*
X147336580Y-119011625D01*
X147402026Y-119039144D01*
X147429875Y-119070994D01*
X147489987Y-119169088D01*
X147636250Y-119337938D01*
X147808126Y-119480632D01*
X148001000Y-119593338D01*
X148209692Y-119673030D01*
X148214760Y-119674061D01*
X148214763Y-119674062D01*
X148322017Y-119695883D01*
X148428597Y-119717567D01*
X148433772Y-119717757D01*
X148433774Y-119717757D01*
X148646673Y-119725564D01*
X148646677Y-119725564D01*
X148651837Y-119725753D01*
X148656957Y-119725097D01*
X148656959Y-119725097D01*
X148868288Y-119698025D01*
X148868289Y-119698025D01*
X148873416Y-119697368D01*
X148878366Y-119695883D01*
X149082429Y-119634661D01*
X149082434Y-119634659D01*
X149087384Y-119633174D01*
X149287994Y-119534896D01*
X149469860Y-119405173D01*
X149628096Y-119247489D01*
X149758453Y-119066077D01*
X149759776Y-119067028D01*
X149806645Y-119023857D01*
X149876580Y-119011625D01*
X149942026Y-119039144D01*
X149969875Y-119070994D01*
X150029987Y-119169088D01*
X150176250Y-119337938D01*
X150348126Y-119480632D01*
X150541000Y-119593338D01*
X150749692Y-119673030D01*
X150754760Y-119674061D01*
X150754763Y-119674062D01*
X150862017Y-119695883D01*
X150968597Y-119717567D01*
X150973772Y-119717757D01*
X150973774Y-119717757D01*
X151186673Y-119725564D01*
X151186677Y-119725564D01*
X151191837Y-119725753D01*
X151196957Y-119725097D01*
X151196959Y-119725097D01*
X151408288Y-119698025D01*
X151408289Y-119698025D01*
X151413416Y-119697368D01*
X151418366Y-119695883D01*
X151622429Y-119634661D01*
X151622434Y-119634659D01*
X151627384Y-119633174D01*
X151827994Y-119534896D01*
X152009860Y-119405173D01*
X152168096Y-119247489D01*
X152298453Y-119066077D01*
X152299776Y-119067028D01*
X152346645Y-119023857D01*
X152416580Y-119011625D01*
X152482026Y-119039144D01*
X152509875Y-119070994D01*
X152569987Y-119169088D01*
X152716250Y-119337938D01*
X152888126Y-119480632D01*
X153081000Y-119593338D01*
X153289692Y-119673030D01*
X153294760Y-119674061D01*
X153294763Y-119674062D01*
X153402017Y-119695883D01*
X153508597Y-119717567D01*
X153513772Y-119717757D01*
X153513774Y-119717757D01*
X153726673Y-119725564D01*
X153726677Y-119725564D01*
X153731837Y-119725753D01*
X153736957Y-119725097D01*
X153736959Y-119725097D01*
X153948288Y-119698025D01*
X153948289Y-119698025D01*
X153953416Y-119697368D01*
X153958366Y-119695883D01*
X154162429Y-119634661D01*
X154162434Y-119634659D01*
X154167384Y-119633174D01*
X154367994Y-119534896D01*
X154549860Y-119405173D01*
X154708096Y-119247489D01*
X154838453Y-119066077D01*
X154839776Y-119067028D01*
X154886645Y-119023857D01*
X154956580Y-119011625D01*
X155022026Y-119039144D01*
X155049875Y-119070994D01*
X155109987Y-119169088D01*
X155256250Y-119337938D01*
X155428126Y-119480632D01*
X155621000Y-119593338D01*
X155829692Y-119673030D01*
X155834760Y-119674061D01*
X155834763Y-119674062D01*
X155942017Y-119695883D01*
X156048597Y-119717567D01*
X156053772Y-119717757D01*
X156053774Y-119717757D01*
X156266673Y-119725564D01*
X156266677Y-119725564D01*
X156271837Y-119725753D01*
X156276957Y-119725097D01*
X156276959Y-119725097D01*
X156488288Y-119698025D01*
X156488289Y-119698025D01*
X156493416Y-119697368D01*
X156498366Y-119695883D01*
X156702429Y-119634661D01*
X156702434Y-119634659D01*
X156707384Y-119633174D01*
X156907994Y-119534896D01*
X157089860Y-119405173D01*
X157248096Y-119247489D01*
X157378453Y-119066077D01*
X157399320Y-119023857D01*
X157475136Y-118870453D01*
X157475137Y-118870451D01*
X157477430Y-118865811D01*
X157542370Y-118652069D01*
X157571529Y-118430590D01*
X157573156Y-118364000D01*
X157554852Y-118141361D01*
X157500431Y-117924702D01*
X157411354Y-117719840D01*
X157296912Y-117542939D01*
X157276705Y-117474880D01*
X157296501Y-117406699D01*
X157350016Y-117360045D01*
X157402704Y-117348500D01*
X158623500Y-117348500D01*
X158691621Y-117368502D01*
X158738114Y-117422158D01*
X158749500Y-117474500D01*
X158749500Y-123199406D01*
X158729498Y-123267527D01*
X158675842Y-123314020D01*
X158605568Y-123324124D01*
X158540988Y-123294630D01*
X158534405Y-123288501D01*
X155863652Y-120617747D01*
X155856112Y-120609461D01*
X155852000Y-120602982D01*
X155802348Y-120556356D01*
X155799507Y-120553602D01*
X155779770Y-120533865D01*
X155776573Y-120531385D01*
X155767551Y-120523680D01*
X155754116Y-120511064D01*
X155735321Y-120493414D01*
X155728375Y-120489595D01*
X155728372Y-120489593D01*
X155717566Y-120483652D01*
X155701047Y-120472801D01*
X155693097Y-120466635D01*
X155685041Y-120460386D01*
X155677772Y-120457241D01*
X155677768Y-120457238D01*
X155644463Y-120442826D01*
X155633813Y-120437609D01*
X155595060Y-120416305D01*
X155575437Y-120411267D01*
X155556734Y-120404863D01*
X155545420Y-120399967D01*
X155545419Y-120399967D01*
X155538145Y-120396819D01*
X155530322Y-120395580D01*
X155530312Y-120395577D01*
X155494476Y-120389901D01*
X155482856Y-120387495D01*
X155447711Y-120378472D01*
X155447710Y-120378472D01*
X155440030Y-120376500D01*
X155419776Y-120376500D01*
X155400065Y-120374949D01*
X155397534Y-120374548D01*
X155380057Y-120371780D01*
X155372165Y-120372526D01*
X155336039Y-120375941D01*
X155324181Y-120376500D01*
X145520272Y-120376500D01*
X145509088Y-120375973D01*
X145501600Y-120374299D01*
X145493677Y-120374548D01*
X145433542Y-120376438D01*
X145429584Y-120376500D01*
X145401653Y-120376500D01*
X145397738Y-120376995D01*
X145397734Y-120376995D01*
X145397676Y-120377003D01*
X145397647Y-120377006D01*
X145385805Y-120377939D01*
X145341619Y-120379327D01*
X145324253Y-120384372D01*
X145322167Y-120384978D01*
X145302815Y-120388986D01*
X145290577Y-120390532D01*
X145290575Y-120390533D01*
X145282712Y-120391526D01*
X145241595Y-120407806D01*
X145230394Y-120411641D01*
X145187915Y-120423982D01*
X145181096Y-120428015D01*
X145181091Y-120428017D01*
X145170480Y-120434293D01*
X145152730Y-120442990D01*
X145133892Y-120450448D01*
X145127476Y-120455109D01*
X145127475Y-120455110D01*
X145098134Y-120476428D01*
X145088210Y-120482947D01*
X145056969Y-120501422D01*
X145056964Y-120501426D01*
X145050146Y-120505458D01*
X145035822Y-120519782D01*
X145020790Y-120532621D01*
X145004402Y-120544528D01*
X144976221Y-120578593D01*
X144968231Y-120587373D01*
X142437747Y-123117857D01*
X142429461Y-123125397D01*
X142422982Y-123129509D01*
X142380895Y-123174328D01*
X142376357Y-123179160D01*
X142373602Y-123182002D01*
X142353865Y-123201739D01*
X142351385Y-123204936D01*
X142343682Y-123213956D01*
X142313414Y-123246188D01*
X142309595Y-123253134D01*
X142309593Y-123253137D01*
X142303652Y-123263943D01*
X142292801Y-123280462D01*
X142280386Y-123296468D01*
X142277241Y-123303737D01*
X142277238Y-123303741D01*
X142262826Y-123337046D01*
X142257609Y-123347696D01*
X142236305Y-123386449D01*
X142234334Y-123394124D01*
X142234334Y-123394125D01*
X142231267Y-123406071D01*
X142224863Y-123424775D01*
X142216819Y-123443364D01*
X142215580Y-123451187D01*
X142215577Y-123451197D01*
X142209901Y-123487033D01*
X142207495Y-123498653D01*
X142203164Y-123515524D01*
X142196500Y-123541479D01*
X142196500Y-123561733D01*
X142194949Y-123581443D01*
X142191780Y-123601452D01*
X142192526Y-123609344D01*
X142195941Y-123645470D01*
X142196500Y-123657328D01*
X142196500Y-124068941D01*
X142176498Y-124137062D01*
X142122842Y-124183555D01*
X142052568Y-124193659D01*
X141987988Y-124164165D01*
X141956305Y-124122191D01*
X141928349Y-124062238D01*
X141928346Y-124062233D01*
X141926023Y-124057251D01*
X141836060Y-123928771D01*
X141797857Y-123874211D01*
X141797855Y-123874208D01*
X141794698Y-123869700D01*
X141632800Y-123707802D01*
X141628289Y-123704643D01*
X141624076Y-123701108D01*
X141624888Y-123700140D01*
X141584410Y-123649506D01*
X141577096Y-123578887D01*
X141609124Y-123515524D01*
X141670323Y-123479536D01*
X141687401Y-123476480D01*
X141690852Y-123476105D01*
X141706104Y-123472479D01*
X141826554Y-123427324D01*
X141842149Y-123418786D01*
X141944224Y-123342285D01*
X141956785Y-123329724D01*
X142033286Y-123227649D01*
X142041824Y-123212054D01*
X142086978Y-123091606D01*
X142090605Y-123076351D01*
X142096131Y-123025486D01*
X142096500Y-123018672D01*
X142096500Y-122446115D01*
X142092025Y-122430876D01*
X142090635Y-122429671D01*
X142082952Y-122428000D01*
X139498616Y-122428000D01*
X139483377Y-122432475D01*
X139482172Y-122433865D01*
X139480501Y-122441548D01*
X139480501Y-123018669D01*
X139480871Y-123025490D01*
X139486395Y-123076352D01*
X139490021Y-123091604D01*
X139535176Y-123212054D01*
X139543714Y-123227649D01*
X139620215Y-123329724D01*
X139632776Y-123342285D01*
X139734851Y-123418786D01*
X139750446Y-123427324D01*
X139870894Y-123472478D01*
X139886143Y-123476104D01*
X139889596Y-123476479D01*
X139892106Y-123477522D01*
X139893831Y-123477932D01*
X139893765Y-123478211D01*
X139955159Y-123503719D01*
X139995588Y-123562080D01*
X139998046Y-123633034D01*
X139961753Y-123694054D01*
X139950260Y-123703344D01*
X139948714Y-123704641D01*
X139944200Y-123707802D01*
X139782302Y-123869700D01*
X139779145Y-123874208D01*
X139779143Y-123874211D01*
X139681955Y-124013010D01*
X139626498Y-124057338D01*
X139555878Y-124064647D01*
X139492518Y-124032616D01*
X139469623Y-124003740D01*
X139426341Y-123928774D01*
X139423040Y-123923056D01*
X139295253Y-123781134D01*
X139140752Y-123668882D01*
X139134724Y-123666198D01*
X139134722Y-123666197D01*
X138972319Y-123593891D01*
X138972318Y-123593891D01*
X138966288Y-123591206D01*
X138868729Y-123570469D01*
X138785944Y-123552872D01*
X138785939Y-123552872D01*
X138779487Y-123551500D01*
X138588513Y-123551500D01*
X138582061Y-123552872D01*
X138582056Y-123552872D01*
X138499271Y-123570469D01*
X138401712Y-123591206D01*
X138395682Y-123593891D01*
X138395681Y-123593891D01*
X138378699Y-123601452D01*
X138227248Y-123668882D01*
X138156882Y-123678316D01*
X138124753Y-123668882D01*
X138124752Y-123668882D01*
X137973301Y-123601452D01*
X137956319Y-123593891D01*
X137956318Y-123593891D01*
X137950288Y-123591206D01*
X137852729Y-123570469D01*
X137769944Y-123552872D01*
X137769939Y-123552872D01*
X137763487Y-123551500D01*
X137572513Y-123551500D01*
X137566061Y-123552872D01*
X137566056Y-123552872D01*
X137483271Y-123570469D01*
X137385712Y-123591206D01*
X137379682Y-123593891D01*
X137379681Y-123593891D01*
X137217278Y-123666197D01*
X137217276Y-123666198D01*
X137211248Y-123668882D01*
X137056747Y-123781134D01*
X136928960Y-123923056D01*
X136925659Y-123928774D01*
X136838990Y-124078889D01*
X136833473Y-124088444D01*
X136774458Y-124270072D01*
X136754496Y-124460000D01*
X136774458Y-124649928D01*
X136833473Y-124831556D01*
X136836776Y-124837278D01*
X136836777Y-124837279D01*
X136875144Y-124903732D01*
X136891882Y-124972727D01*
X136875144Y-125029732D01*
X136835473Y-125098444D01*
X136776458Y-125280072D01*
X136775768Y-125286633D01*
X136775768Y-125286635D01*
X136766454Y-125375257D01*
X136756496Y-125470000D01*
X136757186Y-125476565D01*
X136765777Y-125558300D01*
X136776458Y-125659928D01*
X136835473Y-125841556D01*
X136838776Y-125847278D01*
X136838777Y-125847279D01*
X136872686Y-125906010D01*
X136930960Y-126006944D01*
X136935378Y-126011851D01*
X136935379Y-126011852D01*
X137058747Y-126148866D01*
X137056740Y-126150673D01*
X137087690Y-126200922D01*
X137086332Y-126271906D01*
X137055442Y-126319959D01*
X137056747Y-126321134D01*
X136928960Y-126463056D01*
X136833473Y-126628444D01*
X136774458Y-126810072D01*
X136754496Y-127000000D01*
X136774458Y-127189928D01*
X136833473Y-127371556D01*
X136885919Y-127462394D01*
X136902656Y-127531386D01*
X136885919Y-127588390D01*
X136845473Y-127658444D01*
X136786458Y-127840072D01*
X136766496Y-128030000D01*
X136767186Y-128036565D01*
X136773675Y-128098300D01*
X136786458Y-128219928D01*
X136798277Y-128256301D01*
X136831364Y-128358132D01*
X136833392Y-128429100D01*
X136800626Y-128486164D01*
X136537747Y-128749043D01*
X136529461Y-128756583D01*
X136522982Y-128760695D01*
X136517557Y-128766472D01*
X136476357Y-128810346D01*
X136473602Y-128813188D01*
X136453865Y-128832925D01*
X136451385Y-128836122D01*
X136443682Y-128845142D01*
X136413414Y-128877374D01*
X136409595Y-128884320D01*
X136409593Y-128884323D01*
X136403652Y-128895129D01*
X136392801Y-128911648D01*
X136380386Y-128927654D01*
X136378181Y-128932748D01*
X136327062Y-128980480D01*
X136257211Y-128993186D01*
X136191580Y-128966111D01*
X136151005Y-128907852D01*
X136144500Y-128867889D01*
X136144500Y-121901885D01*
X139480500Y-121901885D01*
X139484975Y-121917124D01*
X139486365Y-121918329D01*
X139494048Y-121920000D01*
X140516385Y-121920000D01*
X140531624Y-121915525D01*
X140532829Y-121914135D01*
X140534500Y-121906452D01*
X140534500Y-121901885D01*
X141042500Y-121901885D01*
X141046975Y-121917124D01*
X141048365Y-121918329D01*
X141056048Y-121920000D01*
X142078384Y-121920000D01*
X142093623Y-121915525D01*
X142094828Y-121914135D01*
X142096499Y-121906452D01*
X142096499Y-121329331D01*
X142096129Y-121322510D01*
X142090605Y-121271648D01*
X142086979Y-121256396D01*
X142041824Y-121135946D01*
X142033286Y-121120351D01*
X141956785Y-121018276D01*
X141944224Y-121005715D01*
X141842149Y-120929214D01*
X141826554Y-120920676D01*
X141706106Y-120875522D01*
X141690851Y-120871895D01*
X141639986Y-120866369D01*
X141633172Y-120866000D01*
X141060615Y-120866000D01*
X141045376Y-120870475D01*
X141044171Y-120871865D01*
X141042500Y-120879548D01*
X141042500Y-121901885D01*
X140534500Y-121901885D01*
X140534500Y-120884116D01*
X140530025Y-120868877D01*
X140528635Y-120867672D01*
X140520952Y-120866001D01*
X139943831Y-120866001D01*
X139937010Y-120866371D01*
X139886148Y-120871895D01*
X139870896Y-120875521D01*
X139750446Y-120920676D01*
X139734851Y-120929214D01*
X139632776Y-121005715D01*
X139620215Y-121018276D01*
X139543714Y-121120351D01*
X139535176Y-121135946D01*
X139490022Y-121256394D01*
X139486395Y-121271649D01*
X139480869Y-121322514D01*
X139480500Y-121329328D01*
X139480500Y-121901885D01*
X136144500Y-121901885D01*
X136144500Y-117474500D01*
X136164502Y-117406379D01*
X136218158Y-117359886D01*
X136270500Y-117348500D01*
X136945500Y-117348500D01*
X137013621Y-117368502D01*
G37*
%TD.AperFunction*%
%TA.AperFunction,Conductor*%
G36*
X147732121Y-121663502D02*
G01*
X147778614Y-121717158D01*
X147790000Y-121769500D01*
X147790000Y-121901885D01*
X147794475Y-121917124D01*
X147795865Y-121918329D01*
X147803548Y-121920000D01*
X150387884Y-121920000D01*
X150403123Y-121915525D01*
X150404328Y-121914135D01*
X150405999Y-121906452D01*
X150405999Y-121769500D01*
X150426001Y-121701379D01*
X150479657Y-121654886D01*
X150531999Y-121643500D01*
X152801282Y-121643500D01*
X152869403Y-121663502D01*
X152915896Y-121717158D01*
X152926000Y-121787432D01*
X152922989Y-121802110D01*
X152884457Y-121945913D01*
X152864502Y-122174000D01*
X152884457Y-122402087D01*
X152885881Y-122407400D01*
X152885881Y-122407402D01*
X152895031Y-122441548D01*
X152943716Y-122623243D01*
X152946039Y-122628225D01*
X152947922Y-122633398D01*
X152946594Y-122633881D01*
X152956243Y-122697454D01*
X152927257Y-122762264D01*
X152867833Y-122801114D01*
X152831389Y-122806500D01*
X150532000Y-122806500D01*
X150463879Y-122786498D01*
X150417386Y-122732842D01*
X150406000Y-122680500D01*
X150406000Y-122446115D01*
X150401525Y-122430876D01*
X150400135Y-122429671D01*
X150392452Y-122428000D01*
X147808116Y-122428000D01*
X147792877Y-122432475D01*
X147791672Y-122433865D01*
X147790001Y-122441548D01*
X147790001Y-122680500D01*
X147769999Y-122748621D01*
X147716343Y-122795114D01*
X147664001Y-122806500D01*
X147215111Y-122806500D01*
X147146990Y-122786498D01*
X147100497Y-122732842D01*
X147090393Y-122662568D01*
X147099034Y-122633564D01*
X147098578Y-122633398D01*
X147100461Y-122628225D01*
X147102784Y-122623243D01*
X147151470Y-122441548D01*
X147160619Y-122407402D01*
X147160619Y-122407400D01*
X147162043Y-122402087D01*
X147181998Y-122174000D01*
X147162043Y-121945913D01*
X147123511Y-121802111D01*
X147125201Y-121731135D01*
X147164995Y-121672339D01*
X147230259Y-121644391D01*
X147245218Y-121643500D01*
X147664000Y-121643500D01*
X147732121Y-121663502D01*
G37*
%TD.AperFunction*%
%TD*%
M02*
