%TF.GenerationSoftware,KiCad,Pcbnew,(6.0.9)*%
%TF.CreationDate,2022-11-24T13:48:04+01:00*%
%TF.ProjectId,8view,38766965-772e-46b6-9963-61645f706362,rev?*%
%TF.SameCoordinates,Original*%
%TF.FileFunction,Copper,L4,Bot*%
%TF.FilePolarity,Positive*%
%FSLAX46Y46*%
G04 Gerber Fmt 4.6, Leading zero omitted, Abs format (unit mm)*
G04 Created by KiCad (PCBNEW (6.0.9)) date 2022-11-24 13:48:04*
%MOMM*%
%LPD*%
G01*
G04 APERTURE LIST*
%TA.AperFunction,ComponentPad*%
%ADD10R,1.700000X1.700000*%
%TD*%
%TA.AperFunction,ComponentPad*%
%ADD11O,1.700000X1.700000*%
%TD*%
%TA.AperFunction,ComponentPad*%
%ADD12R,1.600000X1.600000*%
%TD*%
%TA.AperFunction,ComponentPad*%
%ADD13C,1.600000*%
%TD*%
%TA.AperFunction,ViaPad*%
%ADD14C,0.800000*%
%TD*%
%TA.AperFunction,Conductor*%
%ADD15C,0.250000*%
%TD*%
G04 APERTURE END LIST*
D10*
%TO.P,J2,1,Pin_1*%
%TO.N,/in7*%
X156195000Y-150819000D03*
D11*
%TO.P,J2,2,Pin_2*%
%TO.N,/in6*%
X153655000Y-150819000D03*
%TO.P,J2,3,Pin_3*%
%TO.N,/in5*%
X151115000Y-150819000D03*
%TO.P,J2,4,Pin_4*%
%TO.N,/in4*%
X148575000Y-150819000D03*
%TO.P,J2,5,Pin_5*%
%TO.N,/in3*%
X146035000Y-150819000D03*
%TO.P,J2,6,Pin_6*%
%TO.N,/in2*%
X143495000Y-150819000D03*
%TO.P,J2,7,Pin_7*%
%TO.N,/in1*%
X140955000Y-150819000D03*
%TO.P,J2,8,Pin_8*%
%TO.N,/in0*%
X138415000Y-150819000D03*
%TD*%
D10*
%TO.P,J1,1,Pin_1*%
%TO.N,/in0*%
X138430000Y-118364000D03*
D11*
%TO.P,J1,2,Pin_2*%
%TO.N,/in1*%
X140970000Y-118364000D03*
%TO.P,J1,3,Pin_3*%
%TO.N,/in2*%
X143510000Y-118364000D03*
%TO.P,J1,4,Pin_4*%
%TO.N,/in3*%
X146050000Y-118364000D03*
%TO.P,J1,5,Pin_5*%
%TO.N,/in4*%
X148590000Y-118364000D03*
%TO.P,J1,6,Pin_6*%
%TO.N,/in5*%
X151130000Y-118364000D03*
%TO.P,J1,7,Pin_7*%
%TO.N,/in6*%
X153670000Y-118364000D03*
%TO.P,J1,8,Pin_8*%
%TO.N,/in7*%
X156210000Y-118364000D03*
%TD*%
D12*
%TO.P,U2,1,CA*%
%TO.N,+5V*%
X140788500Y-122174000D03*
D13*
%TO.P,U2,2,F*%
%TO.N,Net-(R15-Pad2)*%
X140788500Y-124714000D03*
%TO.P,U2,3,G*%
%TO.N,Net-(R16-Pad2)*%
X140788500Y-127254000D03*
%TO.P,U2,4,E*%
%TO.N,Net-(R14-Pad2)*%
X140788500Y-129794000D03*
%TO.P,U2,5,D*%
%TO.N,Net-(R13-Pad2)*%
X140788500Y-132334000D03*
%TO.P,U2,6,CA*%
%TO.N,+5V*%
X145868500Y-132334000D03*
%TO.P,U2,7,DP*%
%TO.N,Net-(R17-Pad2)*%
X145868500Y-129794000D03*
%TO.P,U2,8,C*%
%TO.N,Net-(R12-Pad2)*%
X145868500Y-127254000D03*
%TO.P,U2,9,B*%
%TO.N,Net-(R11-Pad2)*%
X145868500Y-124714000D03*
%TO.P,U2,10,A*%
%TO.N,Net-(R10-Pad2)*%
X145868500Y-122174000D03*
%TD*%
D12*
%TO.P,U3,1,CA*%
%TO.N,+5V*%
X149098000Y-122174000D03*
D13*
%TO.P,U3,2,F*%
%TO.N,Net-(R23-Pad2)*%
X149098000Y-124714000D03*
%TO.P,U3,3,G*%
%TO.N,Net-(R24-Pad2)*%
X149098000Y-127254000D03*
%TO.P,U3,4,E*%
%TO.N,Net-(R22-Pad2)*%
X149098000Y-129794000D03*
%TO.P,U3,5,D*%
%TO.N,Net-(R21-Pad2)*%
X149098000Y-132334000D03*
%TO.P,U3,6,CA*%
%TO.N,+5V*%
X154178000Y-132334000D03*
%TO.P,U3,7,DP*%
%TO.N,Net-(R25-Pad2)*%
X154178000Y-129794000D03*
%TO.P,U3,8,C*%
%TO.N,Net-(R20-Pad2)*%
X154178000Y-127254000D03*
%TO.P,U3,9,B*%
%TO.N,Net-(R19-Pad2)*%
X154178000Y-124714000D03*
%TO.P,U3,10,A*%
%TO.N,Net-(R18-Pad2)*%
X154178000Y-122174000D03*
%TD*%
D14*
%TO.N,/in0*%
X146147700Y-138758772D03*
X137140000Y-146020000D03*
%TO.N,/in1*%
X139640000Y-146030000D03*
%TO.N,/in2*%
X142231701Y-146051701D03*
%TO.N,/in3*%
X144730000Y-146080000D03*
%TO.N,/in4*%
X147300000Y-146020000D03*
%TO.N,/in5*%
X149881701Y-146021701D03*
%TO.N,/in6*%
X152420000Y-146020000D03*
%TO.N,/in7*%
X154951701Y-146031701D03*
%TO.N,+5V*%
X136151005Y-141419546D03*
X141249137Y-134056502D03*
X152989002Y-143067003D03*
X148000000Y-137010000D03*
X145110000Y-138758772D03*
%TO.N,GND*%
X143554500Y-124023500D03*
X138176000Y-120650000D03*
X156095750Y-147459750D03*
%TO.N,Net-(R10-Pad2)*%
X137668000Y-124460000D03*
%TO.N,/ISP_MISO*%
X136761791Y-142210713D03*
X141931837Y-138758272D03*
X156040000Y-141320000D03*
%TO.N,/ISP_SCK*%
X136825989Y-143299509D03*
X156206399Y-140288199D03*
X136103158Y-140421190D03*
%TO.N,/ISP_MOSI*%
X141154502Y-136950000D03*
X136355935Y-144181583D03*
X136128003Y-139421997D03*
X157056175Y-139762002D03*
%TO.N,/ISP_RST*%
X136405500Y-138461789D03*
X155338502Y-139037502D03*
X136891292Y-145029494D03*
X140500000Y-134850000D03*
%TO.N,Net-(R11-Pad2)*%
X137668000Y-127000000D03*
%TO.N,Net-(R12-Pad2)*%
X137668000Y-129540000D03*
%TO.N,Net-(R13-Pad2)*%
X138684000Y-132334000D03*
%TO.N,Net-(R14-Pad2)*%
X138684000Y-129540000D03*
%TO.N,Net-(R15-Pad2)*%
X138684000Y-124460000D03*
%TO.N,Net-(R16-Pad2)*%
X138684000Y-127000000D03*
%TO.N,Net-(R17-Pad2)*%
X137668000Y-132334000D03*
%TO.N,Net-(R18-Pad2)*%
X157480000Y-124206000D03*
%TO.N,Net-(R19-Pad2)*%
X156464000Y-124206000D03*
%TO.N,Net-(R20-Pad2)*%
X156464000Y-126746000D03*
%TO.N,Net-(R21-Pad2)*%
X156464000Y-131826000D03*
%TO.N,Net-(R23-Pad2)*%
X157480000Y-126746000D03*
%TO.N,Net-(R24-Pad2)*%
X157480000Y-129286000D03*
%TO.N,Net-(R25-Pad2)*%
X156464000Y-129286000D03*
%TO.N,/D1_I1*%
X137670000Y-125470000D03*
X151243563Y-142819207D03*
X143250000Y-143205500D03*
%TO.N,/D1_I2*%
X141154502Y-142298664D03*
X137680000Y-128030000D03*
X150144500Y-140570501D03*
%TO.N,/D1_I3*%
X150734558Y-139045999D03*
X137764500Y-130534833D03*
%TO.N,/D1_I4*%
X138989589Y-133285641D03*
X152380000Y-136571498D03*
%TO.N,/D1_I5*%
X139320513Y-130310621D03*
X152913442Y-138245999D03*
%TO.N,/D1_I6*%
X139300000Y-125259500D03*
X141700511Y-143135850D03*
X150734558Y-141445999D03*
%TO.N,/D1_I7*%
X152913442Y-139846001D03*
X139369597Y-127727297D03*
%TO.N,/D1_I8*%
X137764500Y-133328833D03*
X150697686Y-137442467D03*
%TO.N,/D2_I1*%
X158282587Y-124801702D03*
X142830000Y-136571498D03*
%TO.N,/D2_I2*%
X144464242Y-137414597D03*
X156040000Y-125114500D03*
%TO.N,/D2_I3*%
X144560000Y-134650000D03*
X155750000Y-127799500D03*
%TO.N,/D2_I4*%
X146371573Y-134102199D03*
X156310000Y-133120000D03*
%TO.N,/D2_I5*%
X147965483Y-134091619D03*
X157480000Y-132844000D03*
%TO.N,/D2_I6*%
X157890000Y-127980000D03*
X145573999Y-136285442D03*
%TO.N,/D2_I7*%
X150710000Y-134860000D03*
X158101952Y-130398049D03*
%TO.N,/D2_I8*%
X155980000Y-130194500D03*
X148774001Y-136285442D03*
%TD*%
D15*
%TO.N,+5V*%
X158242000Y-134366000D02*
X153416000Y-134366000D01*
X158750000Y-131318000D02*
X158750000Y-133858000D01*
X158750000Y-133858000D02*
X158242000Y-134366000D01*
X153053000Y-134003000D02*
X153053000Y-133459000D01*
X153416000Y-134366000D02*
X153053000Y-134003000D01*
X159004000Y-131064000D02*
X159004000Y-130817174D01*
X158750000Y-131318000D02*
X159004000Y-131064000D01*
X153162000Y-120396000D02*
X151384000Y-122174000D01*
X159004000Y-130817174D02*
X159007587Y-130813587D01*
X159007587Y-130813587D02*
X159007587Y-124463587D01*
X159007587Y-124463587D02*
X157226000Y-122682000D01*
X155448000Y-120396000D02*
X153162000Y-120396000D01*
X157226000Y-122682000D02*
X157226000Y-122174000D01*
X157226000Y-122174000D02*
X155448000Y-120396000D01*
X151384000Y-122174000D02*
X149098000Y-122174000D01*
%TO.N,/in0*%
X138445000Y-147325000D02*
X138445000Y-150032000D01*
X137140000Y-146020000D02*
X138445000Y-147325000D01*
%TO.N,/in1*%
X139640000Y-146030000D02*
X139640000Y-148687000D01*
X139640000Y-148687000D02*
X140985000Y-150032000D01*
%TO.N,/in2*%
X142231701Y-146051701D02*
X142231701Y-148738701D01*
X142231701Y-148738701D02*
X143525000Y-150032000D01*
%TO.N,/in3*%
X144730000Y-146080000D02*
X144730000Y-148697000D01*
X144730000Y-148697000D02*
X146065000Y-150032000D01*
%TO.N,/in4*%
X147300000Y-148727000D02*
X148605000Y-150032000D01*
X147300000Y-146020000D02*
X147300000Y-148727000D01*
%TO.N,/in5*%
X149881701Y-148768701D02*
X151145000Y-150032000D01*
X149881701Y-146021701D02*
X149881701Y-148768701D01*
%TO.N,/in6*%
X152420000Y-146020000D02*
X152420000Y-148767000D01*
X152420000Y-148767000D02*
X153685000Y-150032000D01*
%TO.N,/in7*%
X154951701Y-146031701D02*
X154951701Y-148758701D01*
X154951701Y-148758701D02*
X156225000Y-150032000D01*
%TO.N,+5V*%
X147973000Y-121049000D02*
X141913500Y-121049000D01*
X141950000Y-137450000D02*
X141950000Y-134757365D01*
X151384000Y-136652000D02*
X151384000Y-136144000D01*
X152060000Y-140770000D02*
X152060000Y-139346136D01*
X142971639Y-132334000D02*
X145868500Y-132334000D01*
X145110000Y-138354000D02*
X145110000Y-138758772D01*
X148809000Y-134655000D02*
X148809000Y-133459000D01*
X148000000Y-137010000D02*
X147320000Y-136330000D01*
X148632009Y-133459000D02*
X151171000Y-133459000D01*
X153053000Y-133459000D02*
X154178000Y-132334000D01*
X141249137Y-134056502D02*
X142971639Y-132334000D01*
X146454000Y-137010000D02*
X145110000Y-138354000D01*
X151638000Y-138924136D02*
X151638000Y-136906000D01*
X149098000Y-122174000D02*
X147973000Y-121049000D01*
X137980454Y-141419546D02*
X141950000Y-137450000D01*
X147507009Y-132334000D02*
X148632009Y-133459000D01*
X141913500Y-121049000D02*
X140788500Y-122174000D01*
X152188442Y-142266443D02*
X152188442Y-140898442D01*
X152060000Y-139346136D02*
X151638000Y-138924136D01*
X141950000Y-134757365D02*
X141249137Y-134056502D01*
X151171000Y-133459000D02*
X153053000Y-133459000D01*
X147320000Y-136144000D02*
X148809000Y-134655000D01*
X151384000Y-136144000D02*
X151638000Y-135890000D01*
X151638000Y-136906000D02*
X151384000Y-136652000D01*
X152188442Y-140898442D02*
X152060000Y-140770000D01*
X151638000Y-135890000D02*
X151638000Y-133926000D01*
X136151005Y-141419546D02*
X137980454Y-141419546D01*
X148000000Y-137010000D02*
X146454000Y-137010000D01*
X145868500Y-132334000D02*
X147507009Y-132334000D01*
X152989002Y-143067003D02*
X152188442Y-142266443D01*
X147507009Y-123764991D02*
X147507009Y-132334000D01*
X149098000Y-122174000D02*
X147507009Y-123764991D01*
X151638000Y-133926000D02*
X151171000Y-133459000D01*
X147320000Y-136330000D02*
X147320000Y-136144000D01*
%TO.N,Net-(R10-Pad2)*%
X137668000Y-124450695D02*
X138819695Y-123299000D01*
X138819695Y-123299000D02*
X144743500Y-123299000D01*
X137668000Y-124460000D02*
X137668000Y-124450695D01*
X144743500Y-123299000D02*
X145868500Y-122174000D01*
%TO.N,/ISP_MISO*%
X138490000Y-143870000D02*
X138490000Y-142864699D01*
X156040000Y-141320000D02*
X156570000Y-141850000D01*
X156570000Y-143800000D02*
X156440000Y-143930000D01*
X156570000Y-141850000D02*
X156570000Y-143800000D01*
X138490000Y-142864699D02*
X141931837Y-139422862D01*
X138550000Y-143930000D02*
X138490000Y-143870000D01*
X137415777Y-142864699D02*
X136761791Y-142210713D01*
X156440000Y-143930000D02*
X138550000Y-143930000D01*
X141931837Y-139422862D02*
X141931837Y-138758272D01*
X138490000Y-142864699D02*
X137415777Y-142864699D01*
%TO.N,/ISP_SCK*%
X137905773Y-144380000D02*
X136825989Y-143300216D01*
X157020000Y-141101800D02*
X157020000Y-144280000D01*
X156206399Y-140288199D02*
X157020000Y-141101800D01*
X156920000Y-144380000D02*
X137905773Y-144380000D01*
X136825989Y-143300216D02*
X136825989Y-143299509D01*
X157020000Y-144280000D02*
X156920000Y-144380000D01*
%TO.N,/ISP_MOSI*%
X137590000Y-144703604D02*
X137716396Y-144830000D01*
X157470000Y-139760000D02*
X157467998Y-139762002D01*
X138374399Y-139421997D02*
X136128003Y-139421997D01*
X141154502Y-136950000D02*
X140846396Y-136950000D01*
X140846396Y-136950000D02*
X138374399Y-139421997D01*
X137067979Y-144181583D02*
X136355935Y-144181583D01*
X137590000Y-144703604D02*
X137067979Y-144181583D01*
X157467998Y-139762002D02*
X157056175Y-139762002D01*
X157113604Y-144830000D02*
X157470000Y-144473604D01*
X137716396Y-144830000D02*
X157113604Y-144830000D01*
X157470000Y-144473604D02*
X157470000Y-139760000D01*
%TO.N,/ISP_RST*%
X140429502Y-136730498D02*
X138698211Y-138461789D01*
X140429502Y-136730498D02*
X140429502Y-134920498D01*
X137530000Y-145280000D02*
X157300000Y-145280000D01*
X157517502Y-139037502D02*
X155338502Y-139037502D01*
X140429502Y-134920498D02*
X140500000Y-134850000D01*
X137530000Y-145280000D02*
X137279494Y-145029494D01*
X137279494Y-145029494D02*
X136891292Y-145029494D01*
X157920000Y-139440000D02*
X157517502Y-139037502D01*
X138698211Y-138461789D02*
X136405500Y-138461789D01*
X157300000Y-145280000D02*
X157920000Y-144660000D01*
X157920000Y-144660000D02*
X157920000Y-139440000D01*
%TO.N,Net-(R11-Pad2)*%
X138674695Y-125984000D02*
X144598500Y-125984000D01*
X144598500Y-125984000D02*
X145868500Y-124714000D01*
X137668000Y-126990695D02*
X138674695Y-125984000D01*
X137668000Y-127000000D02*
X137668000Y-126990695D01*
%TO.N,Net-(R12-Pad2)*%
X137668000Y-129540000D02*
X137668000Y-129530695D01*
X137668000Y-129530695D02*
X138674695Y-128524000D01*
X138674695Y-128524000D02*
X144598500Y-128524000D01*
X144598500Y-128524000D02*
X145868500Y-127254000D01*
%TO.N,Net-(R13-Pad2)*%
X138684000Y-132334000D02*
X140788500Y-132334000D01*
%TO.N,Net-(R14-Pad2)*%
X140534500Y-129540000D02*
X140788500Y-129794000D01*
X138684000Y-129540000D02*
X140534500Y-129540000D01*
%TO.N,Net-(R15-Pad2)*%
X138684000Y-124460000D02*
X140534500Y-124460000D01*
X140534500Y-124460000D02*
X140788500Y-124714000D01*
%TO.N,Net-(R16-Pad2)*%
X138684000Y-127000000D02*
X140534500Y-127000000D01*
X140534500Y-127000000D02*
X140788500Y-127254000D01*
%TO.N,Net-(R17-Pad2)*%
X137668000Y-132334000D02*
X137668000Y-132324695D01*
X144598500Y-131064000D02*
X145868500Y-129794000D01*
X138928695Y-131064000D02*
X144598500Y-131064000D01*
X137668000Y-132324695D02*
X138928695Y-131064000D01*
%TO.N,Net-(R18-Pad2)*%
X157480000Y-124196695D02*
X156727305Y-123444000D01*
X155448000Y-123444000D02*
X154178000Y-122174000D01*
X156727305Y-123444000D02*
X155448000Y-123444000D01*
X157480000Y-124206000D02*
X157480000Y-124196695D01*
%TO.N,Net-(R19-Pad2)*%
X154686000Y-124206000D02*
X154178000Y-124714000D01*
X156464000Y-124206000D02*
X154686000Y-124206000D01*
%TO.N,Net-(R20-Pad2)*%
X154686000Y-126746000D02*
X154178000Y-127254000D01*
X156464000Y-126746000D02*
X154686000Y-126746000D01*
%TO.N,Net-(R21-Pad2)*%
X156464000Y-131826000D02*
X155847000Y-131209000D01*
X155847000Y-131209000D02*
X150223000Y-131209000D01*
X150223000Y-131209000D02*
X149098000Y-132334000D01*
%TO.N,Net-(R23-Pad2)*%
X157480000Y-126746000D02*
X157480000Y-126736695D01*
X157480000Y-126736695D02*
X156582305Y-125839000D01*
X156582305Y-125839000D02*
X150223000Y-125839000D01*
X150223000Y-125839000D02*
X149098000Y-124714000D01*
%TO.N,Net-(R24-Pad2)*%
X150368000Y-128524000D02*
X149098000Y-127254000D01*
X157480000Y-129276695D02*
X156727305Y-128524000D01*
X157480000Y-129286000D02*
X157480000Y-129276695D01*
X156727305Y-128524000D02*
X150368000Y-128524000D01*
%TO.N,Net-(R25-Pad2)*%
X156464000Y-129286000D02*
X154686000Y-129286000D01*
X154686000Y-129286000D02*
X154178000Y-129794000D01*
%TD*%
%TA.AperFunction,Conductor*%
%TO.N,+5V*%
G36*
X157069521Y-130097720D02*
G01*
X157129656Y-130124494D01*
X157183752Y-130170475D01*
X157204401Y-130238402D01*
X157203717Y-130252771D01*
X157188448Y-130398049D01*
X157189138Y-130404614D01*
X157207099Y-130575500D01*
X157208410Y-130587977D01*
X157267425Y-130769605D01*
X157362912Y-130934993D01*
X157367330Y-130939900D01*
X157367331Y-130939901D01*
X157385117Y-130959654D01*
X157490699Y-131076915D01*
X157645200Y-131189167D01*
X157651228Y-131191851D01*
X157651230Y-131191852D01*
X157813633Y-131264158D01*
X157819664Y-131266843D01*
X157901077Y-131284148D01*
X158000008Y-131305177D01*
X158000013Y-131305177D01*
X158006465Y-131306549D01*
X158197439Y-131306549D01*
X158203891Y-131305177D01*
X158203896Y-131305177D01*
X158302827Y-131284148D01*
X158384240Y-131266843D01*
X158390271Y-131264158D01*
X158552672Y-131191853D01*
X158552675Y-131191851D01*
X158558704Y-131189167D01*
X158561591Y-131187069D01*
X158629491Y-131170595D01*
X158696584Y-131193813D01*
X158740473Y-131249618D01*
X158749500Y-131296452D01*
X158749500Y-139143131D01*
X158729498Y-139211252D01*
X158675842Y-139257745D01*
X158605568Y-139267849D01*
X158540988Y-139238355D01*
X158508062Y-139193444D01*
X158506018Y-139186407D01*
X158501986Y-139179589D01*
X158501984Y-139179585D01*
X158495707Y-139168972D01*
X158487012Y-139151224D01*
X158479552Y-139132383D01*
X158473130Y-139123543D01*
X158453564Y-139096613D01*
X158447048Y-139086693D01*
X158445049Y-139083313D01*
X158424542Y-139048638D01*
X158418936Y-139043031D01*
X158410220Y-139034315D01*
X158397379Y-139019281D01*
X158390131Y-139009305D01*
X158390130Y-139009304D01*
X158385472Y-139002893D01*
X158351407Y-138974712D01*
X158342626Y-138966722D01*
X158021149Y-138645244D01*
X158013615Y-138636965D01*
X158009502Y-138630484D01*
X157959849Y-138583857D01*
X157957008Y-138581103D01*
X157937272Y-138561367D01*
X157934075Y-138558887D01*
X157925053Y-138551182D01*
X157898602Y-138526343D01*
X157892823Y-138520916D01*
X157885877Y-138517097D01*
X157885874Y-138517095D01*
X157875068Y-138511154D01*
X157858549Y-138500303D01*
X157852550Y-138495650D01*
X157842543Y-138487888D01*
X157835274Y-138484743D01*
X157835270Y-138484740D01*
X157801965Y-138470328D01*
X157791315Y-138465111D01*
X157752562Y-138443807D01*
X157732939Y-138438769D01*
X157714236Y-138432365D01*
X157702922Y-138427469D01*
X157702921Y-138427469D01*
X157695647Y-138424321D01*
X157687824Y-138423082D01*
X157687814Y-138423079D01*
X157651978Y-138417403D01*
X157640358Y-138414997D01*
X157605213Y-138405974D01*
X157605212Y-138405974D01*
X157597532Y-138404002D01*
X157577278Y-138404002D01*
X157557567Y-138402451D01*
X157545388Y-138400522D01*
X157537559Y-138399282D01*
X157529667Y-138400028D01*
X157493541Y-138403443D01*
X157481683Y-138404002D01*
X156046702Y-138404002D01*
X155978581Y-138384000D01*
X155959355Y-138367659D01*
X155959082Y-138367962D01*
X155954170Y-138363539D01*
X155949755Y-138358636D01*
X155846190Y-138283391D01*
X155800596Y-138250265D01*
X155800595Y-138250264D01*
X155795254Y-138246384D01*
X155789226Y-138243700D01*
X155789224Y-138243699D01*
X155626821Y-138171393D01*
X155626820Y-138171393D01*
X155620790Y-138168708D01*
X155527390Y-138148855D01*
X155440446Y-138130374D01*
X155440441Y-138130374D01*
X155433989Y-138129002D01*
X155243015Y-138129002D01*
X155236563Y-138130374D01*
X155236558Y-138130374D01*
X155149614Y-138148855D01*
X155056214Y-138168708D01*
X155050184Y-138171393D01*
X155050183Y-138171393D01*
X154887780Y-138243699D01*
X154887778Y-138243700D01*
X154881750Y-138246384D01*
X154727249Y-138358636D01*
X154722828Y-138363546D01*
X154722827Y-138363547D01*
X154613705Y-138484740D01*
X154599462Y-138500558D01*
X154503975Y-138665946D01*
X154444960Y-138847574D01*
X154444270Y-138854135D01*
X154444270Y-138854137D01*
X154427962Y-139009305D01*
X154424998Y-139037502D01*
X154425688Y-139044067D01*
X154443260Y-139211252D01*
X154444960Y-139227430D01*
X154503975Y-139409058D01*
X154507278Y-139414780D01*
X154507279Y-139414781D01*
X154523525Y-139442919D01*
X154599462Y-139574446D01*
X154603880Y-139579353D01*
X154603881Y-139579354D01*
X154680881Y-139664871D01*
X154727249Y-139716368D01*
X154881750Y-139828620D01*
X154887778Y-139831304D01*
X154887780Y-139831305D01*
X155050183Y-139903611D01*
X155056214Y-139906296D01*
X155218234Y-139940735D01*
X155280706Y-139974462D01*
X155315028Y-140036612D01*
X155315283Y-140090177D01*
X155314897Y-140091991D01*
X155312857Y-140098271D01*
X155292895Y-140288199D01*
X155293585Y-140294764D01*
X155303294Y-140387136D01*
X155312857Y-140478127D01*
X155346077Y-140580366D01*
X155360028Y-140623303D01*
X155362056Y-140694270D01*
X155333831Y-140746549D01*
X155300960Y-140783056D01*
X155242686Y-140883990D01*
X155209161Y-140942057D01*
X155205473Y-140948444D01*
X155146458Y-141130072D01*
X155126496Y-141320000D01*
X155127186Y-141326565D01*
X155136682Y-141416910D01*
X155146458Y-141509928D01*
X155205473Y-141691556D01*
X155300960Y-141856944D01*
X155305378Y-141861851D01*
X155305379Y-141861852D01*
X155369795Y-141933393D01*
X155428747Y-141998866D01*
X155467949Y-142027348D01*
X155571329Y-142102458D01*
X155583248Y-142111118D01*
X155589276Y-142113802D01*
X155589278Y-142113803D01*
X155687516Y-142157541D01*
X155757712Y-142188794D01*
X155832972Y-142204791D01*
X155836697Y-142205583D01*
X155899171Y-142239312D01*
X155933492Y-142301461D01*
X155936500Y-142328830D01*
X155936500Y-143170500D01*
X155916498Y-143238621D01*
X155862842Y-143285114D01*
X155810500Y-143296500D01*
X152217158Y-143296500D01*
X152149037Y-143276498D01*
X152102544Y-143222842D01*
X152092440Y-143152568D01*
X152097325Y-143131563D01*
X152098775Y-143127103D01*
X152137105Y-143009135D01*
X152157067Y-142819207D01*
X152141233Y-142668556D01*
X152137795Y-142635842D01*
X152137795Y-142635840D01*
X152137105Y-142629279D01*
X152078090Y-142447651D01*
X151982603Y-142282263D01*
X151941954Y-142237117D01*
X151859238Y-142145252D01*
X151859237Y-142145251D01*
X151854816Y-142140341D01*
X151700315Y-142028089D01*
X151694287Y-142025405D01*
X151694285Y-142025404D01*
X151627042Y-141995466D01*
X151572947Y-141949486D01*
X151552297Y-141881559D01*
X151563185Y-141829109D01*
X151565783Y-141823275D01*
X151569085Y-141817555D01*
X151628100Y-141635927D01*
X151630204Y-141615915D01*
X151647372Y-141452564D01*
X151648062Y-141445999D01*
X151639476Y-141364303D01*
X151628790Y-141262634D01*
X151628790Y-141262632D01*
X151628100Y-141256071D01*
X151569085Y-141074443D01*
X151473598Y-140909055D01*
X151345811Y-140767133D01*
X151235376Y-140686897D01*
X151196652Y-140658762D01*
X151196651Y-140658761D01*
X151191310Y-140654881D01*
X151127221Y-140626347D01*
X151073125Y-140580366D01*
X151053160Y-140524411D01*
X151038732Y-140387135D01*
X151038731Y-140387132D01*
X151038042Y-140380573D01*
X150979027Y-140198945D01*
X150923750Y-140103202D01*
X150907012Y-140034208D01*
X150930232Y-139967116D01*
X150986039Y-139923229D01*
X151006667Y-139916958D01*
X151010378Y-139916169D01*
X151010388Y-139916166D01*
X151016846Y-139914793D01*
X151022877Y-139912108D01*
X151185280Y-139839802D01*
X151185282Y-139839801D01*
X151191310Y-139837117D01*
X151199310Y-139831305D01*
X151292080Y-139763903D01*
X151345811Y-139724865D01*
X151366663Y-139701707D01*
X151469179Y-139587851D01*
X151469180Y-139587850D01*
X151473598Y-139582943D01*
X151532611Y-139480730D01*
X151565781Y-139423278D01*
X151565782Y-139423277D01*
X151569085Y-139417555D01*
X151628100Y-139235927D01*
X151630694Y-139211252D01*
X151647372Y-139052564D01*
X151648062Y-139045999D01*
X151643258Y-139000287D01*
X151628790Y-138862634D01*
X151628790Y-138862632D01*
X151628100Y-138856071D01*
X151569085Y-138674443D01*
X151473598Y-138509055D01*
X151418285Y-138447623D01*
X151350233Y-138372044D01*
X151350232Y-138372043D01*
X151345811Y-138367133D01*
X151328777Y-138354757D01*
X151298520Y-138332773D01*
X151255167Y-138276550D01*
X151249092Y-138205814D01*
X151282224Y-138143023D01*
X151298519Y-138128904D01*
X151308939Y-138121333D01*
X151341818Y-138084817D01*
X151432307Y-137984319D01*
X151432308Y-137984318D01*
X151436726Y-137979411D01*
X151507326Y-137857128D01*
X151528909Y-137819746D01*
X151528910Y-137819745D01*
X151532213Y-137814023D01*
X151591228Y-137632395D01*
X151593498Y-137610803D01*
X151610500Y-137449032D01*
X151611190Y-137442467D01*
X151605885Y-137391995D01*
X151618657Y-137322159D01*
X151667158Y-137270312D01*
X151735991Y-137252917D01*
X151805256Y-137276890D01*
X151917906Y-137358735D01*
X151923248Y-137362616D01*
X151929276Y-137365300D01*
X151929278Y-137365301D01*
X152087854Y-137435903D01*
X152097712Y-137440292D01*
X152104173Y-137441665D01*
X152104178Y-137441667D01*
X152151734Y-137451776D01*
X152214208Y-137485504D01*
X152248529Y-137547654D01*
X152243801Y-137618493D01*
X152219175Y-137659329D01*
X152174402Y-137709055D01*
X152078915Y-137874443D01*
X152019900Y-138056071D01*
X152019210Y-138062632D01*
X152019210Y-138062634D01*
X152007779Y-138171393D01*
X151999938Y-138245999D01*
X152000628Y-138252564D01*
X152018550Y-138423079D01*
X152019900Y-138435927D01*
X152078915Y-138617555D01*
X152082218Y-138623277D01*
X152082219Y-138623278D01*
X152094901Y-138645244D01*
X152174402Y-138782943D01*
X152302189Y-138924865D01*
X152325274Y-138941637D01*
X152328614Y-138944064D01*
X152371968Y-139000287D01*
X152378043Y-139071023D01*
X152344911Y-139133814D01*
X152328614Y-139147936D01*
X152302189Y-139167135D01*
X152297768Y-139172045D01*
X152297767Y-139172046D01*
X152203544Y-139276692D01*
X152174402Y-139309057D01*
X152137616Y-139372772D01*
X152097117Y-139442919D01*
X152078915Y-139474445D01*
X152019900Y-139656073D01*
X152019210Y-139662634D01*
X152019210Y-139662636D01*
X152010248Y-139747902D01*
X151999938Y-139846001D01*
X152000628Y-139852566D01*
X152018667Y-140024193D01*
X152019900Y-140035929D01*
X152078915Y-140217557D01*
X152082218Y-140223279D01*
X152082219Y-140223280D01*
X152090617Y-140237825D01*
X152174402Y-140382945D01*
X152302189Y-140524867D01*
X152378577Y-140580366D01*
X152441864Y-140626347D01*
X152456690Y-140637119D01*
X152462718Y-140639803D01*
X152462720Y-140639804D01*
X152625123Y-140712110D01*
X152631154Y-140714795D01*
X152724555Y-140734648D01*
X152811498Y-140753129D01*
X152811503Y-140753129D01*
X152817955Y-140754501D01*
X153008929Y-140754501D01*
X153015381Y-140753129D01*
X153015386Y-140753129D01*
X153102329Y-140734648D01*
X153195730Y-140714795D01*
X153201761Y-140712110D01*
X153364164Y-140639804D01*
X153364166Y-140639803D01*
X153370194Y-140637119D01*
X153385021Y-140626347D01*
X153448307Y-140580366D01*
X153524695Y-140524867D01*
X153652482Y-140382945D01*
X153736267Y-140237825D01*
X153744665Y-140223280D01*
X153744666Y-140223279D01*
X153747969Y-140217557D01*
X153806984Y-140035929D01*
X153808218Y-140024193D01*
X153826256Y-139852566D01*
X153826946Y-139846001D01*
X153816636Y-139747902D01*
X153807674Y-139662636D01*
X153807674Y-139662634D01*
X153806984Y-139656073D01*
X153747969Y-139474445D01*
X153729768Y-139442919D01*
X153689268Y-139372772D01*
X153652482Y-139309057D01*
X153623341Y-139276692D01*
X153529117Y-139172046D01*
X153529116Y-139172045D01*
X153524695Y-139167135D01*
X153498270Y-139147936D01*
X153454916Y-139091713D01*
X153448841Y-139020977D01*
X153481973Y-138958186D01*
X153498270Y-138944064D01*
X153501610Y-138941637D01*
X153524695Y-138924865D01*
X153652482Y-138782943D01*
X153731983Y-138645244D01*
X153744665Y-138623278D01*
X153744666Y-138623277D01*
X153747969Y-138617555D01*
X153806984Y-138435927D01*
X153808335Y-138423079D01*
X153826256Y-138252564D01*
X153826946Y-138245999D01*
X153819105Y-138171393D01*
X153807674Y-138062634D01*
X153807674Y-138062632D01*
X153806984Y-138056071D01*
X153747969Y-137874443D01*
X153652482Y-137709055D01*
X153621416Y-137674552D01*
X153529117Y-137572044D01*
X153529116Y-137572043D01*
X153524695Y-137567133D01*
X153406455Y-137481226D01*
X153375536Y-137458762D01*
X153375535Y-137458761D01*
X153370194Y-137454881D01*
X153364166Y-137452197D01*
X153364164Y-137452196D01*
X153201761Y-137379890D01*
X153201760Y-137379890D01*
X153195730Y-137377205D01*
X153189269Y-137375832D01*
X153189264Y-137375830D01*
X153141708Y-137365721D01*
X153079234Y-137331993D01*
X153044913Y-137269843D01*
X153049641Y-137199004D01*
X153074267Y-137158168D01*
X153119040Y-137108442D01*
X153214527Y-136943054D01*
X153273542Y-136761426D01*
X153276102Y-136737075D01*
X153292814Y-136578063D01*
X153292814Y-136578062D01*
X153293504Y-136571498D01*
X153286515Y-136504998D01*
X153274232Y-136388133D01*
X153274232Y-136388131D01*
X153273542Y-136381570D01*
X153214527Y-136199942D01*
X153119040Y-136034554D01*
X153107285Y-136021498D01*
X152995675Y-135897543D01*
X152995674Y-135897542D01*
X152991253Y-135892632D01*
X152836752Y-135780380D01*
X152830724Y-135777696D01*
X152830722Y-135777695D01*
X152668319Y-135705389D01*
X152668318Y-135705389D01*
X152662288Y-135702704D01*
X152568888Y-135682851D01*
X152481944Y-135664370D01*
X152481939Y-135664370D01*
X152475487Y-135662998D01*
X152284513Y-135662998D01*
X152278061Y-135664370D01*
X152278056Y-135664370D01*
X152191112Y-135682851D01*
X152097712Y-135702704D01*
X152091682Y-135705389D01*
X152091681Y-135705389D01*
X151929278Y-135777695D01*
X151929276Y-135777696D01*
X151923248Y-135780380D01*
X151768747Y-135892632D01*
X151764326Y-135897542D01*
X151764325Y-135897543D01*
X151652716Y-136021498D01*
X151640960Y-136034554D01*
X151545473Y-136199942D01*
X151486458Y-136381570D01*
X151485768Y-136388131D01*
X151485768Y-136388133D01*
X151473485Y-136504998D01*
X151466496Y-136571498D01*
X151471678Y-136620794D01*
X151471801Y-136621968D01*
X151459029Y-136691806D01*
X151410528Y-136743653D01*
X151341695Y-136761048D01*
X151272430Y-136737075D01*
X151159780Y-136655230D01*
X151159779Y-136655229D01*
X151154438Y-136651349D01*
X151148410Y-136648665D01*
X151148408Y-136648664D01*
X150986005Y-136576358D01*
X150986004Y-136576358D01*
X150979974Y-136573673D01*
X150861489Y-136548488D01*
X150799630Y-136535339D01*
X150799625Y-136535339D01*
X150793173Y-136533967D01*
X150602199Y-136533967D01*
X150595747Y-136535339D01*
X150595742Y-136535339D01*
X150533883Y-136548488D01*
X150415398Y-136573673D01*
X150409368Y-136576358D01*
X150409367Y-136576358D01*
X150246964Y-136648664D01*
X150246962Y-136648665D01*
X150240934Y-136651349D01*
X150086433Y-136763601D01*
X150082012Y-136768511D01*
X150082011Y-136768512D01*
X150029084Y-136827294D01*
X149958646Y-136905523D01*
X149922465Y-136968191D01*
X149874998Y-137050406D01*
X149863159Y-137070911D01*
X149804144Y-137252539D01*
X149803454Y-137259100D01*
X149803454Y-137259102D01*
X149787801Y-137408032D01*
X149784182Y-137442467D01*
X149784872Y-137449032D01*
X149801875Y-137610803D01*
X149804144Y-137632395D01*
X149863159Y-137814023D01*
X149866462Y-137819745D01*
X149866463Y-137819746D01*
X149888046Y-137857128D01*
X149958646Y-137979411D01*
X149963064Y-137984318D01*
X149963065Y-137984319D01*
X150053554Y-138084817D01*
X150086433Y-138121333D01*
X150091779Y-138125217D01*
X150091780Y-138125218D01*
X150133724Y-138155693D01*
X150177077Y-138211916D01*
X150183152Y-138282652D01*
X150150020Y-138345443D01*
X150133725Y-138359562D01*
X150123305Y-138367133D01*
X150118884Y-138372043D01*
X150118883Y-138372044D01*
X150050832Y-138447623D01*
X149995518Y-138509055D01*
X149900031Y-138674443D01*
X149841016Y-138856071D01*
X149840326Y-138862632D01*
X149840326Y-138862634D01*
X149825858Y-139000287D01*
X149821054Y-139045999D01*
X149821744Y-139052564D01*
X149838423Y-139211252D01*
X149841016Y-139235927D01*
X149900031Y-139417555D01*
X149903334Y-139423277D01*
X149903335Y-139423278D01*
X149911626Y-139437638D01*
X149949301Y-139502892D01*
X149955308Y-139513297D01*
X149972046Y-139582292D01*
X149948826Y-139649384D01*
X149893019Y-139693271D01*
X149872391Y-139699542D01*
X149868680Y-139700331D01*
X149868670Y-139700334D01*
X149862212Y-139701707D01*
X149856182Y-139704392D01*
X149856181Y-139704392D01*
X149693778Y-139776698D01*
X149693776Y-139776699D01*
X149687748Y-139779383D01*
X149533247Y-139891635D01*
X149528826Y-139896545D01*
X149528825Y-139896546D01*
X149415860Y-140022007D01*
X149405460Y-140033557D01*
X149309973Y-140198945D01*
X149250958Y-140380573D01*
X149250268Y-140387134D01*
X149250268Y-140387136D01*
X149240705Y-140478127D01*
X149230996Y-140570501D01*
X149231686Y-140577066D01*
X149245880Y-140712110D01*
X149250958Y-140760429D01*
X149309973Y-140942057D01*
X149313276Y-140947779D01*
X149313277Y-140947780D01*
X149315954Y-140952416D01*
X149405460Y-141107445D01*
X149533247Y-141249367D01*
X149621429Y-141313435D01*
X149639501Y-141326565D01*
X149687748Y-141361619D01*
X149751837Y-141390153D01*
X149805933Y-141436134D01*
X149825898Y-141492089D01*
X149839321Y-141619798D01*
X149841016Y-141635927D01*
X149900031Y-141817555D01*
X149903334Y-141823277D01*
X149903335Y-141823278D01*
X149919471Y-141851226D01*
X149995518Y-141982943D01*
X149999936Y-141987850D01*
X149999937Y-141987851D01*
X150039662Y-142031970D01*
X150123305Y-142124865D01*
X150207600Y-142186109D01*
X150269661Y-142231199D01*
X150277806Y-142237117D01*
X150283834Y-142239801D01*
X150283836Y-142239802D01*
X150351079Y-142269740D01*
X150405174Y-142315720D01*
X150425824Y-142383647D01*
X150414936Y-142436097D01*
X150412340Y-142441928D01*
X150409036Y-142447651D01*
X150350021Y-142629279D01*
X150349331Y-142635840D01*
X150349331Y-142635842D01*
X150345893Y-142668556D01*
X150330059Y-142819207D01*
X150350021Y-143009135D01*
X150388352Y-143127103D01*
X150389801Y-143131563D01*
X150391829Y-143202531D01*
X150355166Y-143263329D01*
X150291454Y-143294655D01*
X150269968Y-143296500D01*
X144286520Y-143296500D01*
X144218399Y-143276498D01*
X144171906Y-143222842D01*
X144161210Y-143183671D01*
X144144232Y-143022135D01*
X144144232Y-143022133D01*
X144143542Y-143015572D01*
X144084527Y-142833944D01*
X143989040Y-142668556D01*
X143899753Y-142569392D01*
X143865675Y-142531545D01*
X143865671Y-142531541D01*
X143861253Y-142526634D01*
X143706752Y-142414382D01*
X143700724Y-142411698D01*
X143700722Y-142411697D01*
X143538319Y-142339391D01*
X143538318Y-142339391D01*
X143532288Y-142336706D01*
X143429196Y-142314793D01*
X143351944Y-142298372D01*
X143351939Y-142298372D01*
X143345487Y-142297000D01*
X143154513Y-142297000D01*
X143148061Y-142298372D01*
X143148056Y-142298372D01*
X143070804Y-142314793D01*
X142967712Y-142336706D01*
X142961682Y-142339391D01*
X142961681Y-142339391D01*
X142799278Y-142411697D01*
X142799276Y-142411698D01*
X142793248Y-142414382D01*
X142638747Y-142526634D01*
X142600248Y-142569392D01*
X142539801Y-142606631D01*
X142468818Y-142605279D01*
X142412977Y-142569393D01*
X142311764Y-142456984D01*
X142157263Y-142344732D01*
X142135160Y-142334891D01*
X142081065Y-142288912D01*
X142061100Y-142232956D01*
X142048734Y-142115298D01*
X142048733Y-142115295D01*
X142048044Y-142108736D01*
X141989029Y-141927108D01*
X141893542Y-141761720D01*
X141809932Y-141668861D01*
X141770177Y-141624709D01*
X141770176Y-141624708D01*
X141765755Y-141619798D01*
X141639357Y-141527964D01*
X141616596Y-141511427D01*
X141616595Y-141511426D01*
X141611254Y-141507546D01*
X141605226Y-141504862D01*
X141605224Y-141504861D01*
X141442821Y-141432555D01*
X141442820Y-141432555D01*
X141436790Y-141429870D01*
X141343389Y-141410017D01*
X141256446Y-141391536D01*
X141256441Y-141391536D01*
X141249989Y-141390164D01*
X141164629Y-141390164D01*
X141096508Y-141370162D01*
X141050015Y-141316506D01*
X141039911Y-141246232D01*
X141069405Y-141181652D01*
X141075534Y-141175069D01*
X142324084Y-139926519D01*
X142332374Y-139918975D01*
X142338855Y-139914862D01*
X142360204Y-139892128D01*
X142385495Y-139865195D01*
X142388250Y-139862353D01*
X142407972Y-139842631D01*
X142410451Y-139839436D01*
X142418154Y-139830417D01*
X142442996Y-139803962D01*
X142448423Y-139798183D01*
X142452244Y-139791233D01*
X142458183Y-139780430D01*
X142469039Y-139763903D01*
X142476594Y-139754164D01*
X142476595Y-139754162D01*
X142481451Y-139747902D01*
X142499011Y-139707322D01*
X142504228Y-139696674D01*
X142521712Y-139664871D01*
X142521713Y-139664869D01*
X142525532Y-139657922D01*
X142527725Y-139649384D01*
X142530570Y-139638300D01*
X142536974Y-139619596D01*
X142541870Y-139608282D01*
X142541870Y-139608281D01*
X142545018Y-139601007D01*
X142546257Y-139593184D01*
X142546260Y-139593174D01*
X142551936Y-139557338D01*
X142554342Y-139545718D01*
X142563365Y-139510573D01*
X142563365Y-139510572D01*
X142565337Y-139502892D01*
X142565337Y-139482638D01*
X142566888Y-139462927D01*
X142570057Y-139442919D01*
X142571992Y-139443225D01*
X142590870Y-139385672D01*
X142601035Y-139372783D01*
X142670877Y-139295216D01*
X142755909Y-139147936D01*
X142763060Y-139135551D01*
X142763061Y-139135550D01*
X142766364Y-139129828D01*
X142825379Y-138948200D01*
X142827424Y-138928748D01*
X142844651Y-138764837D01*
X142845288Y-138758772D01*
X145234196Y-138758772D01*
X145234886Y-138765337D01*
X145253416Y-138941637D01*
X145254158Y-138948700D01*
X145313173Y-139130328D01*
X145316476Y-139136050D01*
X145316477Y-139136051D01*
X145335484Y-139168972D01*
X145408660Y-139295716D01*
X145413078Y-139300623D01*
X145413079Y-139300624D01*
X145532025Y-139432727D01*
X145536447Y-139437638D01*
X145595758Y-139480730D01*
X145685206Y-139545718D01*
X145690948Y-139549890D01*
X145696976Y-139552574D01*
X145696978Y-139552575D01*
X145805759Y-139601007D01*
X145865412Y-139627566D01*
X145958812Y-139647419D01*
X146045756Y-139665900D01*
X146045761Y-139665900D01*
X146052213Y-139667272D01*
X146243187Y-139667272D01*
X146249639Y-139665900D01*
X146249644Y-139665900D01*
X146336588Y-139647419D01*
X146429988Y-139627566D01*
X146489641Y-139601007D01*
X146598422Y-139552575D01*
X146598424Y-139552574D01*
X146604452Y-139549890D01*
X146610195Y-139545718D01*
X146699642Y-139480730D01*
X146758953Y-139437638D01*
X146763375Y-139432727D01*
X146882321Y-139300624D01*
X146882322Y-139300623D01*
X146886740Y-139295716D01*
X146959916Y-139168972D01*
X146978923Y-139136051D01*
X146978924Y-139136050D01*
X146982227Y-139130328D01*
X147041242Y-138948700D01*
X147041985Y-138941637D01*
X147060514Y-138765337D01*
X147061204Y-138758772D01*
X147042679Y-138582517D01*
X147041932Y-138575407D01*
X147041932Y-138575405D01*
X147041242Y-138568844D01*
X146982227Y-138387216D01*
X146973468Y-138372044D01*
X146944416Y-138321725D01*
X146886740Y-138221828D01*
X146874650Y-138208400D01*
X146763375Y-138084817D01*
X146763374Y-138084816D01*
X146758953Y-138079906D01*
X146604452Y-137967654D01*
X146598424Y-137964970D01*
X146598422Y-137964969D01*
X146436019Y-137892663D01*
X146436018Y-137892663D01*
X146429988Y-137889978D01*
X146323744Y-137867395D01*
X146249644Y-137851644D01*
X146249639Y-137851644D01*
X146243187Y-137850272D01*
X146052213Y-137850272D01*
X146045761Y-137851644D01*
X146045756Y-137851644D01*
X145971656Y-137867395D01*
X145865412Y-137889978D01*
X145859382Y-137892663D01*
X145859381Y-137892663D01*
X145696978Y-137964969D01*
X145696976Y-137964970D01*
X145690948Y-137967654D01*
X145536447Y-138079906D01*
X145532026Y-138084816D01*
X145532025Y-138084817D01*
X145420751Y-138208400D01*
X145408660Y-138221828D01*
X145350984Y-138321725D01*
X145321933Y-138372044D01*
X145313173Y-138387216D01*
X145254158Y-138568844D01*
X145253468Y-138575405D01*
X145253468Y-138575407D01*
X145252721Y-138582517D01*
X145234196Y-138758772D01*
X142845288Y-138758772D01*
X142845341Y-138758272D01*
X142835036Y-138660223D01*
X142826069Y-138574907D01*
X142826069Y-138574905D01*
X142825379Y-138568344D01*
X142766364Y-138386716D01*
X142755362Y-138367659D01*
X142705159Y-138280706D01*
X142670877Y-138221328D01*
X142662403Y-138211916D01*
X142547512Y-138084317D01*
X142547511Y-138084316D01*
X142543090Y-138079406D01*
X142388589Y-137967154D01*
X142382561Y-137964470D01*
X142382559Y-137964469D01*
X142220156Y-137892163D01*
X142220155Y-137892163D01*
X142214125Y-137889478D01*
X142116467Y-137868720D01*
X142033781Y-137851144D01*
X142033776Y-137851144D01*
X142027324Y-137849772D01*
X141847623Y-137849772D01*
X141779502Y-137829770D01*
X141733009Y-137776114D01*
X141722905Y-137705840D01*
X141752399Y-137641260D01*
X141761587Y-137631894D01*
X141765755Y-137628866D01*
X141798054Y-137592995D01*
X141889123Y-137491852D01*
X141889124Y-137491851D01*
X141893542Y-137486944D01*
X141989029Y-137321556D01*
X141999502Y-137289322D01*
X142039575Y-137230717D01*
X142104972Y-137203080D01*
X142174928Y-137215187D01*
X142209301Y-137241174D01*
X142209423Y-137241039D01*
X142210994Y-137242454D01*
X142212969Y-137243946D01*
X142218747Y-137250364D01*
X142275795Y-137291812D01*
X142338678Y-137337499D01*
X142373248Y-137362616D01*
X142379276Y-137365300D01*
X142379278Y-137365301D01*
X142537854Y-137435903D01*
X142547712Y-137440292D01*
X142634606Y-137458762D01*
X142728056Y-137478626D01*
X142728061Y-137478626D01*
X142734513Y-137479998D01*
X142925487Y-137479998D01*
X142931939Y-137478626D01*
X142931944Y-137478626D01*
X143025394Y-137458762D01*
X143112288Y-137440292D01*
X143122146Y-137435903D01*
X143280722Y-137365301D01*
X143280724Y-137365300D01*
X143286752Y-137362616D01*
X143351368Y-137315670D01*
X143418234Y-137291812D01*
X143487386Y-137307892D01*
X143536866Y-137358805D01*
X143550684Y-137414603D01*
X143550738Y-137414597D01*
X143551428Y-137421162D01*
X143569013Y-137588470D01*
X143570700Y-137604525D01*
X143629715Y-137786153D01*
X143633018Y-137791875D01*
X143633019Y-137791876D01*
X143642177Y-137807738D01*
X143725202Y-137951541D01*
X143729620Y-137956448D01*
X143729621Y-137956449D01*
X143840332Y-138079406D01*
X143852989Y-138093463D01*
X144007490Y-138205715D01*
X144013518Y-138208399D01*
X144013520Y-138208400D01*
X144175923Y-138280706D01*
X144181954Y-138283391D01*
X144275354Y-138303244D01*
X144362298Y-138321725D01*
X144362303Y-138321725D01*
X144368755Y-138323097D01*
X144559729Y-138323097D01*
X144566181Y-138321725D01*
X144566186Y-138321725D01*
X144653130Y-138303244D01*
X144746530Y-138283391D01*
X144752561Y-138280706D01*
X144914964Y-138208400D01*
X144914966Y-138208399D01*
X144920994Y-138205715D01*
X145075495Y-138093463D01*
X145088152Y-138079406D01*
X145198863Y-137956449D01*
X145198864Y-137956448D01*
X145203282Y-137951541D01*
X145286307Y-137807738D01*
X145295465Y-137791876D01*
X145295466Y-137791875D01*
X145298769Y-137786153D01*
X145357784Y-137604525D01*
X145359472Y-137588470D01*
X145377056Y-137421162D01*
X145377746Y-137414597D01*
X145373816Y-137377205D01*
X145369182Y-137333112D01*
X145381954Y-137263274D01*
X145430457Y-137211427D01*
X145494492Y-137193942D01*
X145669486Y-137193942D01*
X145675938Y-137192570D01*
X145675943Y-137192570D01*
X145762886Y-137174089D01*
X145856287Y-137154236D01*
X145862318Y-137151551D01*
X146024721Y-137079245D01*
X146024723Y-137079244D01*
X146030751Y-137076560D01*
X146185252Y-136964308D01*
X146238182Y-136905523D01*
X146308620Y-136827294D01*
X146308621Y-136827293D01*
X146313039Y-136822386D01*
X146371313Y-136721452D01*
X146405222Y-136662721D01*
X146405223Y-136662720D01*
X146408526Y-136656998D01*
X146467541Y-136475370D01*
X146474091Y-136413056D01*
X146486813Y-136292007D01*
X146487503Y-136285442D01*
X147860497Y-136285442D01*
X147861187Y-136292007D01*
X147873910Y-136413056D01*
X147880459Y-136475370D01*
X147939474Y-136656998D01*
X147942777Y-136662720D01*
X147942778Y-136662721D01*
X147976687Y-136721452D01*
X148034961Y-136822386D01*
X148039379Y-136827293D01*
X148039380Y-136827294D01*
X148109818Y-136905523D01*
X148162748Y-136964308D01*
X148317249Y-137076560D01*
X148323277Y-137079244D01*
X148323279Y-137079245D01*
X148485682Y-137151551D01*
X148491713Y-137154236D01*
X148585114Y-137174089D01*
X148672057Y-137192570D01*
X148672062Y-137192570D01*
X148678514Y-137193942D01*
X148869488Y-137193942D01*
X148875940Y-137192570D01*
X148875945Y-137192570D01*
X148962888Y-137174089D01*
X149056289Y-137154236D01*
X149062320Y-137151551D01*
X149224723Y-137079245D01*
X149224725Y-137079244D01*
X149230753Y-137076560D01*
X149385254Y-136964308D01*
X149438184Y-136905523D01*
X149508622Y-136827294D01*
X149508623Y-136827293D01*
X149513041Y-136822386D01*
X149571315Y-136721452D01*
X149605224Y-136662721D01*
X149605225Y-136662720D01*
X149608528Y-136656998D01*
X149667543Y-136475370D01*
X149674093Y-136413056D01*
X149686815Y-136292007D01*
X149687505Y-136285442D01*
X149685593Y-136267251D01*
X149668233Y-136102077D01*
X149668233Y-136102075D01*
X149667543Y-136095514D01*
X149608528Y-135913886D01*
X149513041Y-135748498D01*
X149497172Y-135730873D01*
X149389676Y-135611487D01*
X149389675Y-135611486D01*
X149385254Y-135606576D01*
X149264433Y-135518794D01*
X149236095Y-135498205D01*
X149236094Y-135498204D01*
X149230753Y-135494324D01*
X149224725Y-135491640D01*
X149224723Y-135491639D01*
X149062320Y-135419333D01*
X149062319Y-135419333D01*
X149056289Y-135416648D01*
X148936689Y-135391226D01*
X148875945Y-135378314D01*
X148875940Y-135378314D01*
X148869488Y-135376942D01*
X148678514Y-135376942D01*
X148672062Y-135378314D01*
X148672057Y-135378314D01*
X148611313Y-135391226D01*
X148491713Y-135416648D01*
X148485683Y-135419333D01*
X148485682Y-135419333D01*
X148323279Y-135491639D01*
X148323277Y-135491640D01*
X148317249Y-135494324D01*
X148311908Y-135498204D01*
X148311907Y-135498205D01*
X148283569Y-135518794D01*
X148162748Y-135606576D01*
X148158327Y-135611486D01*
X148158326Y-135611487D01*
X148050831Y-135730873D01*
X148034961Y-135748498D01*
X147939474Y-135913886D01*
X147880459Y-136095514D01*
X147879769Y-136102075D01*
X147879769Y-136102077D01*
X147862409Y-136267251D01*
X147860497Y-136285442D01*
X146487503Y-136285442D01*
X146485591Y-136267251D01*
X146468231Y-136102077D01*
X146468231Y-136102075D01*
X146467541Y-136095514D01*
X146408526Y-135913886D01*
X146313039Y-135748498D01*
X146297170Y-135730873D01*
X146189674Y-135611487D01*
X146189673Y-135611486D01*
X146185252Y-135606576D01*
X146064431Y-135518794D01*
X146036093Y-135498205D01*
X146036092Y-135498204D01*
X146030751Y-135494324D01*
X146024723Y-135491640D01*
X146024721Y-135491639D01*
X145862318Y-135419333D01*
X145862317Y-135419333D01*
X145856287Y-135416648D01*
X145736687Y-135391226D01*
X145675943Y-135378314D01*
X145675938Y-135378314D01*
X145669486Y-135376942D01*
X145478512Y-135376942D01*
X145472060Y-135378314D01*
X145472055Y-135378314D01*
X145423068Y-135388727D01*
X145352277Y-135383325D01*
X145295645Y-135340508D01*
X145271151Y-135273870D01*
X145286572Y-135204569D01*
X145294752Y-135191706D01*
X145299040Y-135186944D01*
X145374522Y-135056206D01*
X145391223Y-135027279D01*
X145391224Y-135027278D01*
X145394527Y-135021556D01*
X145453542Y-134839928D01*
X145461567Y-134763570D01*
X145488580Y-134697914D01*
X145546801Y-134657284D01*
X145617746Y-134654581D01*
X145680513Y-134692430D01*
X145760320Y-134781065D01*
X145841338Y-134839928D01*
X145903955Y-134885422D01*
X145914821Y-134893317D01*
X145920849Y-134896001D01*
X145920851Y-134896002D01*
X146068603Y-134961785D01*
X146089285Y-134970993D01*
X146182685Y-134990846D01*
X146269629Y-135009327D01*
X146269634Y-135009327D01*
X146276086Y-135010699D01*
X146467060Y-135010699D01*
X146473512Y-135009327D01*
X146473517Y-135009327D01*
X146560461Y-134990846D01*
X146653861Y-134970993D01*
X146674543Y-134961785D01*
X146822295Y-134896002D01*
X146822297Y-134896001D01*
X146828325Y-134893317D01*
X146839192Y-134885422D01*
X146901808Y-134839928D01*
X146982826Y-134781065D01*
X147079656Y-134673525D01*
X147140101Y-134636285D01*
X147211084Y-134637637D01*
X147266927Y-134673525D01*
X147348005Y-134763571D01*
X147354230Y-134770485D01*
X147508731Y-134882737D01*
X147514759Y-134885421D01*
X147514761Y-134885422D01*
X147677164Y-134957728D01*
X147683195Y-134960413D01*
X147776595Y-134980266D01*
X147863539Y-134998747D01*
X147863544Y-134998747D01*
X147869996Y-135000119D01*
X148060970Y-135000119D01*
X148067422Y-134998747D01*
X148067427Y-134998747D01*
X148154371Y-134980266D01*
X148247771Y-134960413D01*
X148253802Y-134957728D01*
X148416205Y-134885422D01*
X148416207Y-134885421D01*
X148422235Y-134882737D01*
X148453530Y-134860000D01*
X149796496Y-134860000D01*
X149797186Y-134866565D01*
X149814078Y-135027279D01*
X149816458Y-135049928D01*
X149875473Y-135231556D01*
X149970960Y-135396944D01*
X149975378Y-135401851D01*
X149975379Y-135401852D01*
X150094325Y-135533955D01*
X150098747Y-135538866D01*
X150253248Y-135651118D01*
X150259276Y-135653802D01*
X150259278Y-135653803D01*
X150375143Y-135705389D01*
X150427712Y-135728794D01*
X150499368Y-135744025D01*
X150608056Y-135767128D01*
X150608061Y-135767128D01*
X150614513Y-135768500D01*
X150805487Y-135768500D01*
X150811939Y-135767128D01*
X150811944Y-135767128D01*
X150920632Y-135744025D01*
X150992288Y-135728794D01*
X151044857Y-135705389D01*
X151160722Y-135653803D01*
X151160724Y-135653802D01*
X151166752Y-135651118D01*
X151321253Y-135538866D01*
X151325675Y-135533955D01*
X151444621Y-135401852D01*
X151444622Y-135401851D01*
X151449040Y-135396944D01*
X151544527Y-135231556D01*
X151603542Y-135049928D01*
X151605923Y-135027279D01*
X151622814Y-134866565D01*
X151623504Y-134860000D01*
X151603542Y-134670072D01*
X151544527Y-134488444D01*
X151538754Y-134478444D01*
X151452341Y-134328774D01*
X151449040Y-134323056D01*
X151421192Y-134292127D01*
X151325675Y-134186045D01*
X151325674Y-134186044D01*
X151321253Y-134181134D01*
X151189011Y-134085054D01*
X151172094Y-134072763D01*
X151172093Y-134072762D01*
X151166752Y-134068882D01*
X151160724Y-134066198D01*
X151160722Y-134066197D01*
X150998319Y-133993891D01*
X150998318Y-133993891D01*
X150992288Y-133991206D01*
X150884948Y-133968390D01*
X150811944Y-133952872D01*
X150811939Y-133952872D01*
X150805487Y-133951500D01*
X150614513Y-133951500D01*
X150608061Y-133952872D01*
X150608056Y-133952872D01*
X150535052Y-133968390D01*
X150427712Y-133991206D01*
X150421682Y-133993891D01*
X150421681Y-133993891D01*
X150259278Y-134066197D01*
X150259276Y-134066198D01*
X150253248Y-134068882D01*
X150247907Y-134072762D01*
X150247906Y-134072763D01*
X150230989Y-134085054D01*
X150098747Y-134181134D01*
X150094326Y-134186044D01*
X150094325Y-134186045D01*
X149998809Y-134292127D01*
X149970960Y-134323056D01*
X149967659Y-134328774D01*
X149881247Y-134478444D01*
X149875473Y-134488444D01*
X149816458Y-134670072D01*
X149796496Y-134860000D01*
X148453530Y-134860000D01*
X148576736Y-134770485D01*
X148581158Y-134765574D01*
X148700104Y-134633471D01*
X148700105Y-134633470D01*
X148704523Y-134628563D01*
X148788725Y-134482721D01*
X148796706Y-134468898D01*
X148796707Y-134468897D01*
X148800010Y-134463175D01*
X148859025Y-134281547D01*
X148868128Y-134194942D01*
X148878297Y-134098184D01*
X148878987Y-134091619D01*
X148875954Y-134062763D01*
X148859715Y-133908254D01*
X148859715Y-133908252D01*
X148859025Y-133901691D01*
X148825850Y-133799590D01*
X148823822Y-133728623D01*
X148860485Y-133667825D01*
X148924197Y-133636499D01*
X148956664Y-133635133D01*
X149092524Y-133647019D01*
X149092525Y-133647019D01*
X149098000Y-133647498D01*
X149326087Y-133627543D01*
X149331400Y-133626119D01*
X149331402Y-133626119D01*
X149541933Y-133569707D01*
X149541935Y-133569706D01*
X149547243Y-133568284D01*
X149570299Y-133557533D01*
X149749762Y-133473849D01*
X149749767Y-133473846D01*
X149754749Y-133471523D01*
X149828243Y-133420062D01*
X153456493Y-133420062D01*
X153465789Y-133432077D01*
X153516994Y-133467931D01*
X153526489Y-133473414D01*
X153723947Y-133565490D01*
X153734239Y-133569236D01*
X153944688Y-133625625D01*
X153955481Y-133627528D01*
X154172525Y-133646517D01*
X154183475Y-133646517D01*
X154400519Y-133627528D01*
X154411312Y-133625625D01*
X154621761Y-133569236D01*
X154632053Y-133565490D01*
X154829511Y-133473414D01*
X154839006Y-133467931D01*
X154891048Y-133431491D01*
X154899424Y-133421012D01*
X154892356Y-133407566D01*
X154190812Y-132706022D01*
X154176868Y-132698408D01*
X154175035Y-132698539D01*
X154168420Y-132702790D01*
X153462923Y-133408287D01*
X153456493Y-133420062D01*
X149828243Y-133420062D01*
X149913213Y-133360565D01*
X149937789Y-133343357D01*
X149937792Y-133343355D01*
X149942300Y-133340198D01*
X150104198Y-133178300D01*
X150127188Y-133145468D01*
X150196102Y-133047048D01*
X150235523Y-132990749D01*
X150237846Y-132985767D01*
X150237849Y-132985762D01*
X150329961Y-132788225D01*
X150329961Y-132788224D01*
X150332284Y-132783243D01*
X150341609Y-132748444D01*
X150390119Y-132567402D01*
X150390119Y-132567400D01*
X150391543Y-132562087D01*
X150411498Y-132334000D01*
X150391543Y-132105913D01*
X150390119Y-132100598D01*
X150390118Y-132100591D01*
X150374541Y-132042459D01*
X150376230Y-131971483D01*
X150407152Y-131920752D01*
X150448499Y-131879405D01*
X150510811Y-131845379D01*
X150537594Y-131842500D01*
X152791349Y-131842500D01*
X152859470Y-131862502D01*
X152905963Y-131916158D01*
X152916067Y-131986432D01*
X152913056Y-132001111D01*
X152886375Y-132100688D01*
X152884472Y-132111481D01*
X152865483Y-132328525D01*
X152865483Y-132339475D01*
X152884472Y-132556519D01*
X152886375Y-132567312D01*
X152942764Y-132777761D01*
X152946510Y-132788053D01*
X153038586Y-132985511D01*
X153044069Y-132995006D01*
X153080509Y-133047048D01*
X153090988Y-133055424D01*
X153104434Y-133048356D01*
X154088905Y-132063885D01*
X154151217Y-132029859D01*
X154222032Y-132034924D01*
X154267095Y-132063885D01*
X155252287Y-133049077D01*
X155266232Y-133056692D01*
X155267361Y-133056611D01*
X155336735Y-133071703D01*
X155386937Y-133121905D01*
X155401658Y-133169118D01*
X155410408Y-133252365D01*
X155415185Y-133297812D01*
X155416458Y-133309928D01*
X155475473Y-133491556D01*
X155478776Y-133497278D01*
X155478777Y-133497279D01*
X155491180Y-133518761D01*
X155570960Y-133656944D01*
X155575378Y-133661851D01*
X155575379Y-133661852D01*
X155682846Y-133781206D01*
X155698747Y-133798866D01*
X155853248Y-133911118D01*
X155859276Y-133913802D01*
X155859278Y-133913803D01*
X156021681Y-133986109D01*
X156027712Y-133988794D01*
X156116653Y-134007699D01*
X156208056Y-134027128D01*
X156208061Y-134027128D01*
X156214513Y-134028500D01*
X156405487Y-134028500D01*
X156411939Y-134027128D01*
X156411944Y-134027128D01*
X156503347Y-134007699D01*
X156592288Y-133988794D01*
X156598319Y-133986109D01*
X156760722Y-133913803D01*
X156760724Y-133913802D01*
X156766752Y-133911118D01*
X156921253Y-133798866D01*
X156938390Y-133779834D01*
X156971670Y-133742872D01*
X156994433Y-133717592D01*
X157054877Y-133680352D01*
X157125861Y-133681704D01*
X157139318Y-133686795D01*
X157197712Y-133712794D01*
X157291113Y-133732647D01*
X157378056Y-133751128D01*
X157378061Y-133751128D01*
X157384513Y-133752500D01*
X157575487Y-133752500D01*
X157581939Y-133751128D01*
X157581944Y-133751128D01*
X157668887Y-133732647D01*
X157762288Y-133712794D01*
X157777296Y-133706112D01*
X157930722Y-133637803D01*
X157930724Y-133637802D01*
X157936752Y-133635118D01*
X158091253Y-133522866D01*
X158095675Y-133517955D01*
X158214621Y-133385852D01*
X158214622Y-133385851D01*
X158219040Y-133380944D01*
X158310330Y-133222825D01*
X158311223Y-133221279D01*
X158311224Y-133221278D01*
X158314527Y-133215556D01*
X158373542Y-133033928D01*
X158377607Y-132995257D01*
X158392814Y-132850565D01*
X158393504Y-132844000D01*
X158378953Y-132705556D01*
X158374232Y-132660635D01*
X158374232Y-132660633D01*
X158373542Y-132654072D01*
X158314527Y-132472444D01*
X158219040Y-132307056D01*
X158091253Y-132165134D01*
X157936752Y-132052882D01*
X157930724Y-132050198D01*
X157930722Y-132050197D01*
X157768319Y-131977891D01*
X157768318Y-131977891D01*
X157762288Y-131975206D01*
X157668888Y-131955353D01*
X157581944Y-131936872D01*
X157581939Y-131936872D01*
X157575487Y-131935500D01*
X157502464Y-131935500D01*
X157434343Y-131915498D01*
X157387850Y-131861842D01*
X157377154Y-131822670D01*
X157358232Y-131642635D01*
X157358232Y-131642633D01*
X157357542Y-131636072D01*
X157298527Y-131454444D01*
X157203040Y-131289056D01*
X157183040Y-131266843D01*
X157079675Y-131152045D01*
X157079674Y-131152044D01*
X157075253Y-131147134D01*
X156959834Y-131063277D01*
X156926094Y-131038763D01*
X156926093Y-131038762D01*
X156920752Y-131034882D01*
X156914724Y-131032198D01*
X156914722Y-131032197D01*
X156752326Y-130959894D01*
X156752324Y-130959893D01*
X156751788Y-130959655D01*
X156751787Y-130959654D01*
X156746288Y-130957206D01*
X156746736Y-130956201D01*
X156693360Y-130919708D01*
X156665719Y-130854313D01*
X156677821Y-130784355D01*
X156697258Y-130755635D01*
X156719040Y-130731444D01*
X156808352Y-130576751D01*
X156811223Y-130571779D01*
X156811224Y-130571778D01*
X156814527Y-130566056D01*
X156873542Y-130384428D01*
X156876442Y-130356842D01*
X156892962Y-130199657D01*
X156919975Y-130134000D01*
X156978197Y-130093370D01*
X157049142Y-130090667D01*
X157069521Y-130097720D01*
G37*
%TD.AperFunction*%
%TA.AperFunction,Conductor*%
G36*
X141059015Y-137858500D02*
G01*
X141238716Y-137858500D01*
X141306837Y-137878502D01*
X141353330Y-137932158D01*
X141363434Y-138002432D01*
X141333940Y-138067012D01*
X141324752Y-138076378D01*
X141320584Y-138079406D01*
X141316162Y-138084317D01*
X141316161Y-138084318D01*
X141197216Y-138216420D01*
X141192797Y-138221328D01*
X141158515Y-138280706D01*
X141108313Y-138367659D01*
X141097310Y-138386716D01*
X141038295Y-138568344D01*
X141037605Y-138574905D01*
X141037605Y-138574907D01*
X141028638Y-138660223D01*
X141018333Y-138758272D01*
X141019023Y-138764837D01*
X141036251Y-138928748D01*
X141038295Y-138948200D01*
X141097310Y-139129828D01*
X141133762Y-139192964D01*
X141150499Y-139261956D01*
X141127279Y-139329048D01*
X141113737Y-139345057D01*
X138264500Y-142194294D01*
X138202188Y-142228320D01*
X138175405Y-142231199D01*
X137790899Y-142231199D01*
X137722778Y-142211197D01*
X137676285Y-142157541D01*
X137665589Y-142118369D01*
X137665267Y-142115298D01*
X137655333Y-142020785D01*
X137596318Y-141839157D01*
X137580218Y-141811270D01*
X137548776Y-141756812D01*
X137500831Y-141673769D01*
X137452236Y-141619798D01*
X137377466Y-141536758D01*
X137377465Y-141536757D01*
X137373044Y-141531847D01*
X137236381Y-141432555D01*
X137223885Y-141423476D01*
X137223884Y-141423475D01*
X137218543Y-141419595D01*
X137212515Y-141416911D01*
X137212513Y-141416910D01*
X137050110Y-141344604D01*
X137050109Y-141344604D01*
X137044079Y-141341919D01*
X136940959Y-141320000D01*
X136863735Y-141303585D01*
X136863730Y-141303585D01*
X136857278Y-141302213D01*
X136815388Y-141302213D01*
X136747267Y-141282211D01*
X136700774Y-141228555D01*
X136690670Y-141158281D01*
X136721752Y-141091903D01*
X136837779Y-140963042D01*
X136837780Y-140963041D01*
X136842198Y-140958134D01*
X136937685Y-140792746D01*
X136996700Y-140611118D01*
X137006282Y-140519956D01*
X137015972Y-140427755D01*
X137016662Y-140421190D01*
X136996700Y-140231262D01*
X136993182Y-140220434D01*
X136991152Y-140149470D01*
X137027813Y-140088671D01*
X137091524Y-140057343D01*
X137113014Y-140055497D01*
X138295632Y-140055497D01*
X138306815Y-140056024D01*
X138314308Y-140057699D01*
X138322234Y-140057450D01*
X138322235Y-140057450D01*
X138382385Y-140055559D01*
X138386344Y-140055497D01*
X138414255Y-140055497D01*
X138418190Y-140055000D01*
X138418255Y-140054992D01*
X138430092Y-140054059D01*
X138462350Y-140053045D01*
X138466369Y-140052919D01*
X138474288Y-140052670D01*
X138493742Y-140047018D01*
X138513099Y-140043010D01*
X138525329Y-140041465D01*
X138525330Y-140041465D01*
X138533196Y-140040471D01*
X138540567Y-140037552D01*
X138540569Y-140037552D01*
X138574311Y-140024193D01*
X138585541Y-140020348D01*
X138620382Y-140010226D01*
X138620383Y-140010226D01*
X138627992Y-140008015D01*
X138634811Y-140003982D01*
X138634816Y-140003980D01*
X138645427Y-139997704D01*
X138663175Y-139989009D01*
X138682016Y-139981549D01*
X138717786Y-139955561D01*
X138727706Y-139949045D01*
X138758934Y-139930577D01*
X138758937Y-139930575D01*
X138765761Y-139926539D01*
X138780082Y-139912218D01*
X138795116Y-139899377D01*
X138811506Y-139887469D01*
X138839697Y-139853392D01*
X138847687Y-139844613D01*
X140824905Y-137867395D01*
X140887217Y-137833369D01*
X140940193Y-137833243D01*
X141059015Y-137858500D01*
G37*
%TD.AperFunction*%
%TA.AperFunction,Conductor*%
G36*
X137013621Y-117368502D02*
G01*
X137060114Y-117422158D01*
X137071500Y-117474500D01*
X137071500Y-119262134D01*
X137078255Y-119324316D01*
X137129385Y-119460705D01*
X137216739Y-119577261D01*
X137333295Y-119664615D01*
X137469684Y-119715745D01*
X137531866Y-119722500D01*
X137531728Y-119723767D01*
X137593790Y-119745688D01*
X137637323Y-119801772D01*
X137643625Y-119872488D01*
X137610694Y-119935385D01*
X137594116Y-119949796D01*
X137564747Y-119971134D01*
X137436960Y-120113056D01*
X137341473Y-120278444D01*
X137282458Y-120460072D01*
X137262496Y-120650000D01*
X137282458Y-120839928D01*
X137341473Y-121021556D01*
X137436960Y-121186944D01*
X137441378Y-121191851D01*
X137441379Y-121191852D01*
X137559024Y-121322510D01*
X137564747Y-121328866D01*
X137719248Y-121441118D01*
X137725276Y-121443802D01*
X137725278Y-121443803D01*
X137880121Y-121512743D01*
X137893712Y-121518794D01*
X137987113Y-121538647D01*
X138074056Y-121557128D01*
X138074061Y-121557128D01*
X138080513Y-121558500D01*
X138271487Y-121558500D01*
X138277939Y-121557128D01*
X138277944Y-121557128D01*
X138364887Y-121538647D01*
X138458288Y-121518794D01*
X138471879Y-121512743D01*
X138626722Y-121443803D01*
X138626724Y-121443802D01*
X138632752Y-121441118D01*
X138787253Y-121328866D01*
X138792976Y-121322510D01*
X138910621Y-121191852D01*
X138910622Y-121191851D01*
X138915040Y-121186944D01*
X139010527Y-121021556D01*
X139069542Y-120839928D01*
X139089504Y-120650000D01*
X139069542Y-120460072D01*
X139010527Y-120278444D01*
X138915040Y-120113056D01*
X138787253Y-119971134D01*
X138758763Y-119950435D01*
X138715411Y-119894213D01*
X138709336Y-119823477D01*
X138742468Y-119760685D01*
X138804288Y-119725774D01*
X138832826Y-119722500D01*
X139328134Y-119722500D01*
X139390316Y-119715745D01*
X139526705Y-119664615D01*
X139643261Y-119577261D01*
X139730615Y-119460705D01*
X139752799Y-119401529D01*
X139774598Y-119343382D01*
X139817240Y-119286618D01*
X139883802Y-119261918D01*
X139953150Y-119277126D01*
X139987817Y-119305114D01*
X140016250Y-119337938D01*
X140188126Y-119480632D01*
X140381000Y-119593338D01*
X140589692Y-119673030D01*
X140594760Y-119674061D01*
X140594763Y-119674062D01*
X140702017Y-119695883D01*
X140808597Y-119717567D01*
X140813772Y-119717757D01*
X140813774Y-119717757D01*
X141026673Y-119725564D01*
X141026677Y-119725564D01*
X141031837Y-119725753D01*
X141036957Y-119725097D01*
X141036959Y-119725097D01*
X141248288Y-119698025D01*
X141248289Y-119698025D01*
X141253416Y-119697368D01*
X141258366Y-119695883D01*
X141462429Y-119634661D01*
X141462434Y-119634659D01*
X141467384Y-119633174D01*
X141667994Y-119534896D01*
X141849860Y-119405173D01*
X142008096Y-119247489D01*
X142138453Y-119066077D01*
X142139776Y-119067028D01*
X142186645Y-119023857D01*
X142256580Y-119011625D01*
X142322026Y-119039144D01*
X142349875Y-119070994D01*
X142409987Y-119169088D01*
X142556250Y-119337938D01*
X142728126Y-119480632D01*
X142921000Y-119593338D01*
X143129692Y-119673030D01*
X143134760Y-119674061D01*
X143134763Y-119674062D01*
X143242017Y-119695883D01*
X143348597Y-119717567D01*
X143353772Y-119717757D01*
X143353774Y-119717757D01*
X143566673Y-119725564D01*
X143566677Y-119725564D01*
X143571837Y-119725753D01*
X143576957Y-119725097D01*
X143576959Y-119725097D01*
X143788288Y-119698025D01*
X143788289Y-119698025D01*
X143793416Y-119697368D01*
X143798366Y-119695883D01*
X144002429Y-119634661D01*
X144002434Y-119634659D01*
X144007384Y-119633174D01*
X144207994Y-119534896D01*
X144389860Y-119405173D01*
X144548096Y-119247489D01*
X144678453Y-119066077D01*
X144679776Y-119067028D01*
X144726645Y-119023857D01*
X144796580Y-119011625D01*
X144862026Y-119039144D01*
X144889875Y-119070994D01*
X144949987Y-119169088D01*
X145096250Y-119337938D01*
X145268126Y-119480632D01*
X145461000Y-119593338D01*
X145669692Y-119673030D01*
X145674760Y-119674061D01*
X145674763Y-119674062D01*
X145782017Y-119695883D01*
X145888597Y-119717567D01*
X145893772Y-119717757D01*
X145893774Y-119717757D01*
X146106673Y-119725564D01*
X146106677Y-119725564D01*
X146111837Y-119725753D01*
X146116957Y-119725097D01*
X146116959Y-119725097D01*
X146328288Y-119698025D01*
X146328289Y-119698025D01*
X146333416Y-119697368D01*
X146338366Y-119695883D01*
X146542429Y-119634661D01*
X146542434Y-119634659D01*
X146547384Y-119633174D01*
X146747994Y-119534896D01*
X146929860Y-119405173D01*
X147088096Y-119247489D01*
X147218453Y-119066077D01*
X147219776Y-119067028D01*
X147266645Y-119023857D01*
X147336580Y-119011625D01*
X147402026Y-119039144D01*
X147429875Y-119070994D01*
X147489987Y-119169088D01*
X147636250Y-119337938D01*
X147808126Y-119480632D01*
X148001000Y-119593338D01*
X148209692Y-119673030D01*
X148214760Y-119674061D01*
X148214763Y-119674062D01*
X148322017Y-119695883D01*
X148428597Y-119717567D01*
X148433772Y-119717757D01*
X148433774Y-119717757D01*
X148646673Y-119725564D01*
X148646677Y-119725564D01*
X148651837Y-119725753D01*
X148656957Y-119725097D01*
X148656959Y-119725097D01*
X148868288Y-119698025D01*
X148868289Y-119698025D01*
X148873416Y-119697368D01*
X148878366Y-119695883D01*
X149082429Y-119634661D01*
X149082434Y-119634659D01*
X149087384Y-119633174D01*
X149287994Y-119534896D01*
X149469860Y-119405173D01*
X149628096Y-119247489D01*
X149758453Y-119066077D01*
X149759776Y-119067028D01*
X149806645Y-119023857D01*
X149876580Y-119011625D01*
X149942026Y-119039144D01*
X149969875Y-119070994D01*
X150029987Y-119169088D01*
X150176250Y-119337938D01*
X150348126Y-119480632D01*
X150541000Y-119593338D01*
X150749692Y-119673030D01*
X150754760Y-119674061D01*
X150754763Y-119674062D01*
X150862017Y-119695883D01*
X150968597Y-119717567D01*
X150973772Y-119717757D01*
X150973774Y-119717757D01*
X151186673Y-119725564D01*
X151186677Y-119725564D01*
X151191837Y-119725753D01*
X151196957Y-119725097D01*
X151196959Y-119725097D01*
X151408288Y-119698025D01*
X151408289Y-119698025D01*
X151413416Y-119697368D01*
X151418366Y-119695883D01*
X151622429Y-119634661D01*
X151622434Y-119634659D01*
X151627384Y-119633174D01*
X151827994Y-119534896D01*
X152009860Y-119405173D01*
X152168096Y-119247489D01*
X152298453Y-119066077D01*
X152299776Y-119067028D01*
X152346645Y-119023857D01*
X152416580Y-119011625D01*
X152482026Y-119039144D01*
X152509875Y-119070994D01*
X152569987Y-119169088D01*
X152716250Y-119337938D01*
X152888126Y-119480632D01*
X153081000Y-119593338D01*
X153289692Y-119673030D01*
X153294760Y-119674061D01*
X153294763Y-119674062D01*
X153402017Y-119695883D01*
X153508597Y-119717567D01*
X153513772Y-119717757D01*
X153513774Y-119717757D01*
X153726673Y-119725564D01*
X153726677Y-119725564D01*
X153731837Y-119725753D01*
X153736957Y-119725097D01*
X153736959Y-119725097D01*
X153948288Y-119698025D01*
X153948289Y-119698025D01*
X153953416Y-119697368D01*
X153958366Y-119695883D01*
X154162429Y-119634661D01*
X154162434Y-119634659D01*
X154167384Y-119633174D01*
X154367994Y-119534896D01*
X154549860Y-119405173D01*
X154708096Y-119247489D01*
X154838453Y-119066077D01*
X154839776Y-119067028D01*
X154886645Y-119023857D01*
X154956580Y-119011625D01*
X155022026Y-119039144D01*
X155049875Y-119070994D01*
X155109987Y-119169088D01*
X155256250Y-119337938D01*
X155428126Y-119480632D01*
X155621000Y-119593338D01*
X155829692Y-119673030D01*
X155834760Y-119674061D01*
X155834763Y-119674062D01*
X155942017Y-119695883D01*
X156048597Y-119717567D01*
X156053772Y-119717757D01*
X156053774Y-119717757D01*
X156266673Y-119725564D01*
X156266677Y-119725564D01*
X156271837Y-119725753D01*
X156276957Y-119725097D01*
X156276959Y-119725097D01*
X156488288Y-119698025D01*
X156488289Y-119698025D01*
X156493416Y-119697368D01*
X156498366Y-119695883D01*
X156702429Y-119634661D01*
X156702434Y-119634659D01*
X156707384Y-119633174D01*
X156907994Y-119534896D01*
X157089860Y-119405173D01*
X157248096Y-119247489D01*
X157378453Y-119066077D01*
X157399320Y-119023857D01*
X157475136Y-118870453D01*
X157475137Y-118870451D01*
X157477430Y-118865811D01*
X157542370Y-118652069D01*
X157571529Y-118430590D01*
X157573156Y-118364000D01*
X157554852Y-118141361D01*
X157500431Y-117924702D01*
X157411354Y-117719840D01*
X157296912Y-117542939D01*
X157276705Y-117474880D01*
X157296501Y-117406699D01*
X157350016Y-117360045D01*
X157402704Y-117348500D01*
X158623500Y-117348500D01*
X158691621Y-117368502D01*
X158738114Y-117422158D01*
X158749500Y-117474500D01*
X158749500Y-123821085D01*
X158729498Y-123889206D01*
X158675842Y-123935699D01*
X158605568Y-123945803D01*
X158577192Y-123937617D01*
X158577187Y-123937634D01*
X158576690Y-123937473D01*
X158572251Y-123936192D01*
X158570906Y-123935593D01*
X158570905Y-123935593D01*
X158564875Y-123932908D01*
X158435187Y-123905342D01*
X158398742Y-123897595D01*
X158336268Y-123863866D01*
X158315539Y-123833859D01*
X158314527Y-123834444D01*
X158283748Y-123781134D01*
X158219040Y-123669056D01*
X158122719Y-123562080D01*
X158095675Y-123532045D01*
X158095674Y-123532044D01*
X158091253Y-123527134D01*
X157975454Y-123443001D01*
X157942094Y-123418763D01*
X157942093Y-123418762D01*
X157936752Y-123414882D01*
X157930724Y-123412198D01*
X157930722Y-123412197D01*
X157768319Y-123339891D01*
X157768318Y-123339891D01*
X157762288Y-123337206D01*
X157641460Y-123311523D01*
X157581944Y-123298872D01*
X157581939Y-123298872D01*
X157575487Y-123297500D01*
X157528900Y-123297500D01*
X157460779Y-123277498D01*
X157439805Y-123260595D01*
X157230957Y-123051747D01*
X157223417Y-123043461D01*
X157219305Y-123036982D01*
X157203561Y-123022197D01*
X157169654Y-122990357D01*
X157166812Y-122987602D01*
X157147075Y-122967865D01*
X157143878Y-122965385D01*
X157134856Y-122957680D01*
X157108405Y-122932841D01*
X157102626Y-122927414D01*
X157095680Y-122923595D01*
X157095677Y-122923593D01*
X157084871Y-122917652D01*
X157068352Y-122906801D01*
X157067888Y-122906441D01*
X157052346Y-122894386D01*
X157045077Y-122891241D01*
X157045073Y-122891238D01*
X157011768Y-122876826D01*
X157001118Y-122871609D01*
X156962365Y-122850305D01*
X156942742Y-122845267D01*
X156924039Y-122838863D01*
X156912725Y-122833967D01*
X156912724Y-122833967D01*
X156905450Y-122830819D01*
X156897627Y-122829580D01*
X156897617Y-122829577D01*
X156861781Y-122823901D01*
X156850161Y-122821495D01*
X156815016Y-122812472D01*
X156815015Y-122812472D01*
X156807335Y-122810500D01*
X156787081Y-122810500D01*
X156767370Y-122808949D01*
X156755191Y-122807020D01*
X156747362Y-122805780D01*
X156739470Y-122806526D01*
X156703344Y-122809941D01*
X156691486Y-122810500D01*
X155762595Y-122810500D01*
X155694474Y-122790498D01*
X155673500Y-122773595D01*
X155487152Y-122587247D01*
X155453126Y-122524935D01*
X155454540Y-122465541D01*
X155460969Y-122441548D01*
X155471543Y-122402087D01*
X155491498Y-122174000D01*
X155471543Y-121945913D01*
X155463028Y-121914135D01*
X155413707Y-121730067D01*
X155413706Y-121730065D01*
X155412284Y-121724757D01*
X155334118Y-121557128D01*
X155317849Y-121522238D01*
X155317846Y-121522233D01*
X155315523Y-121517251D01*
X155184198Y-121329700D01*
X155022300Y-121167802D01*
X155017792Y-121164645D01*
X155017789Y-121164643D01*
X154939611Y-121109902D01*
X154834749Y-121036477D01*
X154829767Y-121034154D01*
X154829762Y-121034151D01*
X154632225Y-120942039D01*
X154632224Y-120942039D01*
X154627243Y-120939716D01*
X154621935Y-120938294D01*
X154621933Y-120938293D01*
X154411402Y-120881881D01*
X154411400Y-120881881D01*
X154406087Y-120880457D01*
X154178000Y-120860502D01*
X153949913Y-120880457D01*
X153944600Y-120881881D01*
X153944598Y-120881881D01*
X153734067Y-120938293D01*
X153734065Y-120938294D01*
X153728757Y-120939716D01*
X153723776Y-120942039D01*
X153723775Y-120942039D01*
X153526238Y-121034151D01*
X153526233Y-121034154D01*
X153521251Y-121036477D01*
X153416389Y-121109902D01*
X153338211Y-121164643D01*
X153338208Y-121164645D01*
X153333700Y-121167802D01*
X153171802Y-121329700D01*
X153040477Y-121517251D01*
X153038154Y-121522233D01*
X153038151Y-121522238D01*
X153021882Y-121557128D01*
X152943716Y-121724757D01*
X152942294Y-121730065D01*
X152942293Y-121730067D01*
X152892972Y-121914135D01*
X152884457Y-121945913D01*
X152864502Y-122174000D01*
X152884457Y-122402087D01*
X152885880Y-122407398D01*
X152885881Y-122407402D01*
X152901460Y-122465541D01*
X152943716Y-122623243D01*
X152946039Y-122628224D01*
X152946039Y-122628225D01*
X153038151Y-122825762D01*
X153038154Y-122825767D01*
X153040477Y-122830749D01*
X153093729Y-122906801D01*
X153134790Y-122965441D01*
X153171802Y-123018300D01*
X153333700Y-123180198D01*
X153338208Y-123183355D01*
X153338211Y-123183357D01*
X153379195Y-123212054D01*
X153521251Y-123311523D01*
X153526233Y-123313846D01*
X153526238Y-123313849D01*
X153560457Y-123329805D01*
X153613742Y-123376722D01*
X153633203Y-123444999D01*
X153612661Y-123512959D01*
X153560457Y-123558195D01*
X153526238Y-123574151D01*
X153526233Y-123574154D01*
X153521251Y-123576477D01*
X153416955Y-123649506D01*
X153338211Y-123704643D01*
X153338208Y-123704645D01*
X153333700Y-123707802D01*
X153171802Y-123869700D01*
X153168645Y-123874208D01*
X153168643Y-123874211D01*
X153130438Y-123928774D01*
X153040477Y-124057251D01*
X153038154Y-124062233D01*
X153038151Y-124062238D01*
X152970711Y-124206865D01*
X152943716Y-124264757D01*
X152942294Y-124270065D01*
X152942293Y-124270067D01*
X152892623Y-124455436D01*
X152884457Y-124485913D01*
X152864502Y-124714000D01*
X152884457Y-124942087D01*
X152911561Y-125043239D01*
X152912539Y-125046888D01*
X152910849Y-125117865D01*
X152871055Y-125176661D01*
X152805791Y-125204609D01*
X152790832Y-125205500D01*
X150537595Y-125205500D01*
X150469474Y-125185498D01*
X150448500Y-125168595D01*
X150407152Y-125127247D01*
X150373126Y-125064935D01*
X150374540Y-125005541D01*
X150376797Y-124997118D01*
X150391543Y-124942087D01*
X150411498Y-124714000D01*
X150391543Y-124485913D01*
X150383377Y-124455436D01*
X150333707Y-124270067D01*
X150333706Y-124270065D01*
X150332284Y-124264757D01*
X150305289Y-124206865D01*
X150237849Y-124062238D01*
X150237846Y-124062233D01*
X150235523Y-124057251D01*
X150145562Y-123928774D01*
X150107357Y-123874211D01*
X150107355Y-123874208D01*
X150104198Y-123869700D01*
X149942300Y-123707802D01*
X149937789Y-123704643D01*
X149933576Y-123701108D01*
X149934388Y-123700140D01*
X149893910Y-123649506D01*
X149886596Y-123578887D01*
X149918624Y-123515524D01*
X149979823Y-123479536D01*
X149996901Y-123476480D01*
X150000352Y-123476105D01*
X150015604Y-123472479D01*
X150136054Y-123427324D01*
X150151649Y-123418786D01*
X150253724Y-123342285D01*
X150266285Y-123329724D01*
X150342786Y-123227649D01*
X150351324Y-123212054D01*
X150396478Y-123091606D01*
X150400105Y-123076351D01*
X150405631Y-123025486D01*
X150406000Y-123018672D01*
X150406000Y-122446115D01*
X150401525Y-122430876D01*
X150400135Y-122429671D01*
X150392452Y-122428000D01*
X147808116Y-122428000D01*
X147792877Y-122432475D01*
X147791672Y-122433865D01*
X147790001Y-122441548D01*
X147790001Y-123018669D01*
X147790371Y-123025490D01*
X147795895Y-123076352D01*
X147799521Y-123091604D01*
X147844676Y-123212054D01*
X147853214Y-123227649D01*
X147929715Y-123329724D01*
X147942276Y-123342285D01*
X148044351Y-123418786D01*
X148059946Y-123427324D01*
X148180394Y-123472478D01*
X148195643Y-123476104D01*
X148199096Y-123476479D01*
X148201606Y-123477522D01*
X148203331Y-123477932D01*
X148203265Y-123478211D01*
X148264659Y-123503719D01*
X148305088Y-123562080D01*
X148307546Y-123633034D01*
X148271253Y-123694054D01*
X148259760Y-123703344D01*
X148258214Y-123704641D01*
X148253700Y-123707802D01*
X148091802Y-123869700D01*
X148088645Y-123874208D01*
X148088643Y-123874211D01*
X148050438Y-123928774D01*
X147960477Y-124057251D01*
X147958154Y-124062233D01*
X147958151Y-124062238D01*
X147890711Y-124206865D01*
X147863716Y-124264757D01*
X147862294Y-124270065D01*
X147862293Y-124270067D01*
X147812623Y-124455436D01*
X147804457Y-124485913D01*
X147784502Y-124714000D01*
X147804457Y-124942087D01*
X147805880Y-124947398D01*
X147805881Y-124947402D01*
X147844820Y-125092721D01*
X147863716Y-125163243D01*
X147866039Y-125168224D01*
X147866039Y-125168225D01*
X147958151Y-125365762D01*
X147958154Y-125365767D01*
X147960477Y-125370749D01*
X148091802Y-125558300D01*
X148253700Y-125720198D01*
X148258208Y-125723355D01*
X148258211Y-125723357D01*
X148336389Y-125778098D01*
X148441251Y-125851523D01*
X148446233Y-125853846D01*
X148446238Y-125853849D01*
X148480457Y-125869805D01*
X148533742Y-125916722D01*
X148553203Y-125984999D01*
X148532661Y-126052959D01*
X148480457Y-126098195D01*
X148446238Y-126114151D01*
X148446233Y-126114154D01*
X148441251Y-126116477D01*
X148336389Y-126189902D01*
X148258211Y-126244643D01*
X148258208Y-126244645D01*
X148253700Y-126247802D01*
X148091802Y-126409700D01*
X148088645Y-126414208D01*
X148088643Y-126414211D01*
X148050438Y-126468774D01*
X147960477Y-126597251D01*
X147958154Y-126602233D01*
X147958151Y-126602238D01*
X147888053Y-126752565D01*
X147863716Y-126804757D01*
X147862294Y-126810065D01*
X147862293Y-126810067D01*
X147811400Y-127000000D01*
X147804457Y-127025913D01*
X147784502Y-127254000D01*
X147804457Y-127482087D01*
X147805880Y-127487398D01*
X147805881Y-127487402D01*
X147838315Y-127608444D01*
X147863716Y-127703243D01*
X147866039Y-127708224D01*
X147866039Y-127708225D01*
X147958151Y-127905762D01*
X147958154Y-127905767D01*
X147960477Y-127910749D01*
X147981214Y-127940364D01*
X148048575Y-128036565D01*
X148091802Y-128098300D01*
X148253700Y-128260198D01*
X148258208Y-128263355D01*
X148258211Y-128263357D01*
X148274408Y-128274698D01*
X148441251Y-128391523D01*
X148446233Y-128393846D01*
X148446238Y-128393849D01*
X148480457Y-128409805D01*
X148533742Y-128456722D01*
X148553203Y-128524999D01*
X148532661Y-128592959D01*
X148480457Y-128638195D01*
X148446238Y-128654151D01*
X148446233Y-128654154D01*
X148441251Y-128656477D01*
X148366432Y-128708866D01*
X148258211Y-128784643D01*
X148258208Y-128784645D01*
X148253700Y-128787802D01*
X148091802Y-128949700D01*
X148088645Y-128954208D01*
X148088643Y-128954211D01*
X148050438Y-129008774D01*
X147960477Y-129137251D01*
X147958154Y-129142233D01*
X147958151Y-129142238D01*
X147867448Y-129336753D01*
X147863716Y-129344757D01*
X147862294Y-129350065D01*
X147862293Y-129350067D01*
X147805881Y-129560598D01*
X147804457Y-129565913D01*
X147784502Y-129794000D01*
X147804457Y-130022087D01*
X147805880Y-130027398D01*
X147805881Y-130027402D01*
X147828378Y-130111359D01*
X147863716Y-130243243D01*
X147866039Y-130248224D01*
X147866039Y-130248225D01*
X147958151Y-130445762D01*
X147958154Y-130445767D01*
X147960477Y-130450749D01*
X148091802Y-130638300D01*
X148253700Y-130800198D01*
X148258208Y-130803355D01*
X148258211Y-130803357D01*
X148330984Y-130854313D01*
X148441251Y-130931523D01*
X148446233Y-130933846D01*
X148446238Y-130933849D01*
X148480457Y-130949805D01*
X148533742Y-130996722D01*
X148553203Y-131064999D01*
X148532661Y-131132959D01*
X148480457Y-131178195D01*
X148446238Y-131194151D01*
X148446233Y-131194154D01*
X148441251Y-131196477D01*
X148367757Y-131247938D01*
X148258211Y-131324643D01*
X148258208Y-131324645D01*
X148253700Y-131327802D01*
X148091802Y-131489700D01*
X148088645Y-131494208D01*
X148088643Y-131494211D01*
X148068778Y-131522581D01*
X147960477Y-131677251D01*
X147958154Y-131682233D01*
X147958151Y-131682238D01*
X147868475Y-131874551D01*
X147863716Y-131884757D01*
X147862294Y-131890065D01*
X147862293Y-131890067D01*
X147819386Y-132050197D01*
X147804457Y-132105913D01*
X147784502Y-132334000D01*
X147804457Y-132562087D01*
X147805881Y-132567400D01*
X147805881Y-132567402D01*
X147854392Y-132748444D01*
X147863716Y-132783243D01*
X147866039Y-132788224D01*
X147866039Y-132788225D01*
X147958152Y-132985762D01*
X147960477Y-132990749D01*
X147963629Y-132995251D01*
X147963899Y-132995718D01*
X147980637Y-133064713D01*
X147957417Y-133131805D01*
X147901609Y-133175692D01*
X147871619Y-133183119D01*
X147869996Y-133183119D01*
X147863544Y-133184491D01*
X147863539Y-133184491D01*
X147776595Y-133202972D01*
X147683195Y-133222825D01*
X147677165Y-133225510D01*
X147677164Y-133225510D01*
X147514761Y-133297816D01*
X147514759Y-133297817D01*
X147508731Y-133300501D01*
X147503390Y-133304381D01*
X147503389Y-133304382D01*
X147460700Y-133335398D01*
X147354230Y-133412753D01*
X147349809Y-133417663D01*
X147349808Y-133417664D01*
X147344704Y-133423333D01*
X147264690Y-133512198D01*
X147257401Y-133520293D01*
X147196955Y-133557533D01*
X147125972Y-133556181D01*
X147070129Y-133520293D01*
X146987248Y-133428244D01*
X146987247Y-133428243D01*
X146982826Y-133423333D01*
X146975847Y-133418262D01*
X146924483Y-133380944D01*
X146896432Y-133360564D01*
X146853079Y-133304343D01*
X146847004Y-133233607D01*
X146873974Y-133177635D01*
X146877472Y-133173466D01*
X147002431Y-132995007D01*
X147007914Y-132985511D01*
X147099990Y-132788053D01*
X147103736Y-132777761D01*
X147160125Y-132567312D01*
X147162028Y-132556519D01*
X147181017Y-132339475D01*
X147181017Y-132328525D01*
X147162028Y-132111481D01*
X147160125Y-132100688D01*
X147103736Y-131890239D01*
X147099990Y-131879947D01*
X147007914Y-131682489D01*
X147002431Y-131672994D01*
X146965991Y-131620952D01*
X146955512Y-131612576D01*
X146942066Y-131619644D01*
X145153423Y-133408287D01*
X145146993Y-133420062D01*
X145156289Y-133432077D01*
X145207494Y-133467931D01*
X145216989Y-133473414D01*
X145414447Y-133565490D01*
X145424739Y-133569236D01*
X145448043Y-133575480D01*
X145508666Y-133612431D01*
X145539687Y-133676292D01*
X145535265Y-133736123D01*
X145514879Y-133798866D01*
X145478031Y-133912271D01*
X145470271Y-133986109D01*
X145470006Y-133988628D01*
X145442993Y-134054285D01*
X145384772Y-134094915D01*
X145313827Y-134097618D01*
X145251060Y-134059769D01*
X145171253Y-133971134D01*
X145067037Y-133895416D01*
X145022094Y-133862763D01*
X145022093Y-133862762D01*
X145016752Y-133858882D01*
X145010724Y-133856198D01*
X145010722Y-133856197D01*
X144848319Y-133783891D01*
X144848318Y-133783891D01*
X144842288Y-133781206D01*
X144748888Y-133761353D01*
X144661944Y-133742872D01*
X144661939Y-133742872D01*
X144655487Y-133741500D01*
X144464513Y-133741500D01*
X144458061Y-133742872D01*
X144458056Y-133742872D01*
X144371112Y-133761353D01*
X144277712Y-133781206D01*
X144271682Y-133783891D01*
X144271681Y-133783891D01*
X144109278Y-133856197D01*
X144109276Y-133856198D01*
X144103248Y-133858882D01*
X144097907Y-133862762D01*
X144097906Y-133862763D01*
X144052963Y-133895416D01*
X143948747Y-133971134D01*
X143944329Y-133976041D01*
X143944325Y-133976045D01*
X143873878Y-134054285D01*
X143820960Y-134113056D01*
X143725473Y-134278444D01*
X143666458Y-134460072D01*
X143665768Y-134466633D01*
X143665768Y-134466635D01*
X143663866Y-134484729D01*
X143646496Y-134650000D01*
X143647186Y-134656565D01*
X143659756Y-134776158D01*
X143666458Y-134839928D01*
X143725473Y-135021556D01*
X143820960Y-135186944D01*
X143825378Y-135191851D01*
X143825379Y-135191852D01*
X143846466Y-135215271D01*
X143948747Y-135328866D01*
X144042448Y-135396944D01*
X144073264Y-135419333D01*
X144103248Y-135441118D01*
X144109276Y-135443802D01*
X144109278Y-135443803D01*
X144222751Y-135494324D01*
X144277712Y-135518794D01*
X144371113Y-135538647D01*
X144458056Y-135557128D01*
X144458061Y-135557128D01*
X144464513Y-135558500D01*
X144655487Y-135558500D01*
X144661939Y-135557128D01*
X144661944Y-135557128D01*
X144710931Y-135546715D01*
X144781722Y-135552117D01*
X144838354Y-135594934D01*
X144862848Y-135661572D01*
X144847427Y-135730873D01*
X144839247Y-135743736D01*
X144834959Y-135748498D01*
X144831655Y-135754221D01*
X144748908Y-135897543D01*
X144739472Y-135913886D01*
X144680457Y-136095514D01*
X144679767Y-136102075D01*
X144679767Y-136102077D01*
X144662407Y-136267251D01*
X144660495Y-136285442D01*
X144661185Y-136292007D01*
X144669059Y-136366927D01*
X144656287Y-136436765D01*
X144607784Y-136488612D01*
X144543749Y-136506097D01*
X144368755Y-136506097D01*
X144362303Y-136507469D01*
X144362298Y-136507469D01*
X144275354Y-136525950D01*
X144181954Y-136545803D01*
X144175924Y-136548488D01*
X144175923Y-136548488D01*
X144013520Y-136620794D01*
X144013518Y-136620795D01*
X144007490Y-136623479D01*
X144002149Y-136627359D01*
X144002148Y-136627360D01*
X143942875Y-136670425D01*
X143876008Y-136694283D01*
X143806856Y-136678203D01*
X143757376Y-136627290D01*
X143743558Y-136571492D01*
X143743504Y-136571498D01*
X143743463Y-136571111D01*
X143736515Y-136504998D01*
X143724232Y-136388133D01*
X143724232Y-136388131D01*
X143723542Y-136381570D01*
X143664527Y-136199942D01*
X143569040Y-136034554D01*
X143557285Y-136021498D01*
X143445675Y-135897543D01*
X143445674Y-135897542D01*
X143441253Y-135892632D01*
X143286752Y-135780380D01*
X143280724Y-135777696D01*
X143280722Y-135777695D01*
X143118319Y-135705389D01*
X143118318Y-135705389D01*
X143112288Y-135702704D01*
X143018888Y-135682851D01*
X142931944Y-135664370D01*
X142931939Y-135664370D01*
X142925487Y-135662998D01*
X142734513Y-135662998D01*
X142728061Y-135664370D01*
X142728056Y-135664370D01*
X142641112Y-135682851D01*
X142547712Y-135702704D01*
X142541682Y-135705389D01*
X142541681Y-135705389D01*
X142379278Y-135777695D01*
X142379276Y-135777696D01*
X142373248Y-135780380D01*
X142218747Y-135892632D01*
X142214326Y-135897542D01*
X142214325Y-135897543D01*
X142102716Y-136021498D01*
X142090960Y-136034554D01*
X141995473Y-136199942D01*
X141993432Y-136206224D01*
X141993431Y-136206226D01*
X141985000Y-136232175D01*
X141944927Y-136290781D01*
X141879530Y-136318418D01*
X141809574Y-136306311D01*
X141775201Y-136280324D01*
X141775079Y-136280459D01*
X141773508Y-136279044D01*
X141771533Y-136277552D01*
X141765755Y-136271134D01*
X141611254Y-136158882D01*
X141605226Y-136156198D01*
X141605224Y-136156197D01*
X141442821Y-136083891D01*
X141442820Y-136083891D01*
X141436790Y-136081206D01*
X141343389Y-136061353D01*
X141256446Y-136042872D01*
X141256441Y-136042872D01*
X141249989Y-136041500D01*
X141189002Y-136041500D01*
X141120881Y-136021498D01*
X141074388Y-135967842D01*
X141063002Y-135915500D01*
X141063002Y-135627482D01*
X141083004Y-135559361D01*
X141104687Y-135533850D01*
X141105914Y-135532745D01*
X141111253Y-135528866D01*
X141209877Y-135419333D01*
X141234621Y-135391852D01*
X141234622Y-135391851D01*
X141239040Y-135386944D01*
X141325449Y-135237279D01*
X141331223Y-135227279D01*
X141331224Y-135227278D01*
X141334527Y-135221556D01*
X141393542Y-135039928D01*
X141394872Y-135027279D01*
X141412814Y-134856565D01*
X141413504Y-134850000D01*
X141393542Y-134660072D01*
X141334527Y-134478444D01*
X141325712Y-134463175D01*
X141248115Y-134328774D01*
X141239040Y-134313056D01*
X141220196Y-134292127D01*
X141115675Y-134176045D01*
X141115674Y-134176044D01*
X141111253Y-134171134D01*
X140985053Y-134079444D01*
X140962094Y-134062763D01*
X140962093Y-134062762D01*
X140956752Y-134058882D01*
X140950724Y-134056198D01*
X140950722Y-134056197D01*
X140788319Y-133983891D01*
X140788318Y-133983891D01*
X140782288Y-133981206D01*
X140680622Y-133959596D01*
X140601944Y-133942872D01*
X140601939Y-133942872D01*
X140595487Y-133941500D01*
X140404513Y-133941500D01*
X140398061Y-133942872D01*
X140398056Y-133942872D01*
X140319378Y-133959596D01*
X140217712Y-133981206D01*
X140211682Y-133983891D01*
X140211681Y-133983891D01*
X140049278Y-134056197D01*
X140049276Y-134056198D01*
X140043248Y-134058882D01*
X140037907Y-134062762D01*
X140037906Y-134062763D01*
X140014947Y-134079444D01*
X139888747Y-134171134D01*
X139884326Y-134176044D01*
X139884325Y-134176045D01*
X139779805Y-134292127D01*
X139760960Y-134313056D01*
X139751885Y-134328774D01*
X139674289Y-134463175D01*
X139665473Y-134478444D01*
X139606458Y-134660072D01*
X139586496Y-134850000D01*
X139587186Y-134856565D01*
X139605129Y-135027279D01*
X139606458Y-135039928D01*
X139665473Y-135221556D01*
X139668776Y-135227278D01*
X139668777Y-135227279D01*
X139724593Y-135323955D01*
X139760960Y-135386944D01*
X139765379Y-135391852D01*
X139769261Y-135397195D01*
X139767680Y-135398343D01*
X139794355Y-135453922D01*
X139796002Y-135474229D01*
X139796002Y-136415903D01*
X139776000Y-136484024D01*
X139759097Y-136504998D01*
X138472711Y-137791384D01*
X138410399Y-137825410D01*
X138383616Y-137828289D01*
X137113700Y-137828289D01*
X137045579Y-137808287D01*
X137026353Y-137791946D01*
X137026080Y-137792249D01*
X137021168Y-137787826D01*
X137016753Y-137782923D01*
X136910658Y-137705840D01*
X136867594Y-137674552D01*
X136867593Y-137674551D01*
X136862252Y-137670671D01*
X136856224Y-137667987D01*
X136856222Y-137667986D01*
X136693819Y-137595680D01*
X136693818Y-137595680D01*
X136687788Y-137592995D01*
X136566118Y-137567133D01*
X136507444Y-137554661D01*
X136507439Y-137554661D01*
X136500987Y-137553289D01*
X136310013Y-137553289D01*
X136303561Y-137554660D01*
X136303546Y-137554662D01*
X136296693Y-137556119D01*
X136225903Y-137550715D01*
X136169271Y-137507897D01*
X136144779Y-137441259D01*
X136144500Y-137432872D01*
X136144500Y-132334000D01*
X136754496Y-132334000D01*
X136774458Y-132523928D01*
X136833473Y-132705556D01*
X136836776Y-132711278D01*
X136836777Y-132711279D01*
X136919561Y-132854664D01*
X136936299Y-132923659D01*
X136928420Y-132956772D01*
X136929973Y-132957277D01*
X136870958Y-133138905D01*
X136870268Y-133145466D01*
X136870268Y-133145468D01*
X136854256Y-133297812D01*
X136850996Y-133328833D01*
X136851686Y-133335398D01*
X136868099Y-133491556D01*
X136870958Y-133518761D01*
X136929973Y-133700389D01*
X137025460Y-133865777D01*
X137029878Y-133870684D01*
X137029879Y-133870685D01*
X137131810Y-133983891D01*
X137153247Y-134007699D01*
X137242958Y-134072878D01*
X137291503Y-134108148D01*
X137307748Y-134119951D01*
X137313776Y-134122635D01*
X137313778Y-134122636D01*
X137474382Y-134194141D01*
X137482212Y-134197627D01*
X137575612Y-134217480D01*
X137662556Y-134235961D01*
X137662561Y-134235961D01*
X137669013Y-134237333D01*
X137859987Y-134237333D01*
X137866439Y-134235961D01*
X137866444Y-134235961D01*
X137953388Y-134217480D01*
X138046788Y-134197627D01*
X138054618Y-134194141D01*
X138215222Y-134122636D01*
X138215224Y-134122635D01*
X138221252Y-134119951D01*
X138237498Y-134108148D01*
X138332708Y-134038973D01*
X138399575Y-134015115D01*
X138468727Y-134031195D01*
X138480827Y-134038972D01*
X138532837Y-134076759D01*
X138538865Y-134079443D01*
X138538867Y-134079444D01*
X138701270Y-134151750D01*
X138707301Y-134154435D01*
X138800702Y-134174288D01*
X138887645Y-134192769D01*
X138887650Y-134192769D01*
X138894102Y-134194141D01*
X139085076Y-134194141D01*
X139091528Y-134192769D01*
X139091533Y-134192769D01*
X139178476Y-134174288D01*
X139271877Y-134154435D01*
X139277908Y-134151750D01*
X139440311Y-134079444D01*
X139440313Y-134079443D01*
X139446341Y-134076759D01*
X139460879Y-134066197D01*
X139509054Y-134031195D01*
X139600842Y-133964507D01*
X139646496Y-133913803D01*
X139724210Y-133827493D01*
X139724211Y-133827492D01*
X139728629Y-133822585D01*
X139809967Y-133681704D01*
X139820812Y-133662920D01*
X139820813Y-133662919D01*
X139824116Y-133657197D01*
X139877663Y-133492396D01*
X139917737Y-133433792D01*
X139983133Y-133406155D01*
X140053090Y-133418262D01*
X140069765Y-133428120D01*
X140131751Y-133471523D01*
X140136733Y-133473846D01*
X140136738Y-133473849D01*
X140316201Y-133557533D01*
X140339257Y-133568284D01*
X140344565Y-133569706D01*
X140344567Y-133569707D01*
X140555098Y-133626119D01*
X140555100Y-133626119D01*
X140560413Y-133627543D01*
X140788500Y-133647498D01*
X141016587Y-133627543D01*
X141021900Y-133626119D01*
X141021902Y-133626119D01*
X141232433Y-133569707D01*
X141232435Y-133569706D01*
X141237743Y-133568284D01*
X141260799Y-133557533D01*
X141440262Y-133473849D01*
X141440267Y-133473846D01*
X141445249Y-133471523D01*
X141603713Y-133360565D01*
X141628289Y-133343357D01*
X141628292Y-133343355D01*
X141632800Y-133340198D01*
X141794698Y-133178300D01*
X141817688Y-133145468D01*
X141886602Y-133047048D01*
X141926023Y-132990749D01*
X141928346Y-132985767D01*
X141928349Y-132985762D01*
X142020461Y-132788225D01*
X142020461Y-132788224D01*
X142022784Y-132783243D01*
X142032109Y-132748444D01*
X142080619Y-132567402D01*
X142080619Y-132567400D01*
X142082043Y-132562087D01*
X142101998Y-132334000D01*
X142082043Y-132105913D01*
X142067114Y-132050197D01*
X142024207Y-131890067D01*
X142024206Y-131890065D01*
X142022784Y-131884757D01*
X142020289Y-131879405D01*
X142019052Y-131876753D01*
X142018831Y-131875296D01*
X142018578Y-131874602D01*
X142018718Y-131874551D01*
X142008389Y-131806562D01*
X142037367Y-131741748D01*
X142096785Y-131702890D01*
X142133245Y-131697500D01*
X144519733Y-131697500D01*
X144530917Y-131698027D01*
X144538409Y-131699702D01*
X144539002Y-131699683D01*
X144601906Y-131724797D01*
X144643144Y-131782589D01*
X144646590Y-131853502D01*
X144638307Y-131877165D01*
X144637012Y-131879942D01*
X144633264Y-131890239D01*
X144576875Y-132100688D01*
X144574972Y-132111481D01*
X144555983Y-132328525D01*
X144555983Y-132339475D01*
X144574972Y-132556519D01*
X144576875Y-132567312D01*
X144633264Y-132777761D01*
X144637010Y-132788053D01*
X144729086Y-132985511D01*
X144734569Y-132995006D01*
X144771009Y-133047048D01*
X144781488Y-133055424D01*
X144794934Y-133048356D01*
X146583577Y-131259713D01*
X146590007Y-131247938D01*
X146580711Y-131235923D01*
X146529506Y-131200069D01*
X146520011Y-131194586D01*
X146485451Y-131178471D01*
X146432166Y-131131554D01*
X146412705Y-131063277D01*
X146433247Y-130995317D01*
X146485451Y-130950081D01*
X146520262Y-130933849D01*
X146520267Y-130933846D01*
X146525249Y-130931523D01*
X146635516Y-130854313D01*
X146708289Y-130803357D01*
X146708292Y-130803355D01*
X146712800Y-130800198D01*
X146874698Y-130638300D01*
X147006023Y-130450749D01*
X147008346Y-130445767D01*
X147008349Y-130445762D01*
X147100461Y-130248225D01*
X147100461Y-130248224D01*
X147102784Y-130243243D01*
X147138123Y-130111359D01*
X147160619Y-130027402D01*
X147160620Y-130027398D01*
X147162043Y-130022087D01*
X147181998Y-129794000D01*
X147162043Y-129565913D01*
X147160619Y-129560598D01*
X147104207Y-129350067D01*
X147104206Y-129350065D01*
X147102784Y-129344757D01*
X147099052Y-129336753D01*
X147008349Y-129142238D01*
X147008346Y-129142233D01*
X147006023Y-129137251D01*
X146916062Y-129008774D01*
X146877857Y-128954211D01*
X146877855Y-128954208D01*
X146874698Y-128949700D01*
X146712800Y-128787802D01*
X146708292Y-128784645D01*
X146708289Y-128784643D01*
X146600068Y-128708866D01*
X146525249Y-128656477D01*
X146520267Y-128654154D01*
X146520262Y-128654151D01*
X146486043Y-128638195D01*
X146432758Y-128591278D01*
X146413297Y-128523001D01*
X146433839Y-128455041D01*
X146486043Y-128409805D01*
X146520262Y-128393849D01*
X146520267Y-128393846D01*
X146525249Y-128391523D01*
X146692092Y-128274698D01*
X146708289Y-128263357D01*
X146708292Y-128263355D01*
X146712800Y-128260198D01*
X146874698Y-128098300D01*
X146917926Y-128036565D01*
X146985286Y-127940364D01*
X147006023Y-127910749D01*
X147008346Y-127905767D01*
X147008349Y-127905762D01*
X147100461Y-127708225D01*
X147100461Y-127708224D01*
X147102784Y-127703243D01*
X147128186Y-127608444D01*
X147160619Y-127487402D01*
X147160620Y-127487398D01*
X147162043Y-127482087D01*
X147181998Y-127254000D01*
X147162043Y-127025913D01*
X147155100Y-127000000D01*
X147104207Y-126810067D01*
X147104206Y-126810065D01*
X147102784Y-126804757D01*
X147078447Y-126752565D01*
X147008349Y-126602238D01*
X147008346Y-126602233D01*
X147006023Y-126597251D01*
X146916062Y-126468774D01*
X146877857Y-126414211D01*
X146877855Y-126414208D01*
X146874698Y-126409700D01*
X146712800Y-126247802D01*
X146708292Y-126244645D01*
X146708289Y-126244643D01*
X146630111Y-126189902D01*
X146525249Y-126116477D01*
X146520267Y-126114154D01*
X146520262Y-126114151D01*
X146486043Y-126098195D01*
X146432758Y-126051278D01*
X146413297Y-125983001D01*
X146433839Y-125915041D01*
X146486043Y-125869805D01*
X146520262Y-125853849D01*
X146520267Y-125853846D01*
X146525249Y-125851523D01*
X146630111Y-125778098D01*
X146708289Y-125723357D01*
X146708292Y-125723355D01*
X146712800Y-125720198D01*
X146874698Y-125558300D01*
X147006023Y-125370749D01*
X147008346Y-125365767D01*
X147008349Y-125365762D01*
X147100461Y-125168225D01*
X147100461Y-125168224D01*
X147102784Y-125163243D01*
X147121681Y-125092721D01*
X147160619Y-124947402D01*
X147160620Y-124947398D01*
X147162043Y-124942087D01*
X147181998Y-124714000D01*
X147162043Y-124485913D01*
X147153877Y-124455436D01*
X147104207Y-124270067D01*
X147104206Y-124270065D01*
X147102784Y-124264757D01*
X147075789Y-124206865D01*
X147008349Y-124062238D01*
X147008346Y-124062233D01*
X147006023Y-124057251D01*
X146916062Y-123928774D01*
X146877857Y-123874211D01*
X146877855Y-123874208D01*
X146874698Y-123869700D01*
X146712800Y-123707802D01*
X146708292Y-123704645D01*
X146708289Y-123704643D01*
X146629545Y-123649506D01*
X146525249Y-123576477D01*
X146520267Y-123574154D01*
X146520262Y-123574151D01*
X146486043Y-123558195D01*
X146432758Y-123511278D01*
X146413297Y-123443001D01*
X146433839Y-123375041D01*
X146486043Y-123329805D01*
X146520262Y-123313849D01*
X146520267Y-123313846D01*
X146525249Y-123311523D01*
X146667305Y-123212054D01*
X146708289Y-123183357D01*
X146708292Y-123183355D01*
X146712800Y-123180198D01*
X146874698Y-123018300D01*
X146911711Y-122965441D01*
X146952771Y-122906801D01*
X147006023Y-122830749D01*
X147008346Y-122825767D01*
X147008349Y-122825762D01*
X147100461Y-122628225D01*
X147100461Y-122628224D01*
X147102784Y-122623243D01*
X147145041Y-122465541D01*
X147160619Y-122407402D01*
X147160620Y-122407398D01*
X147162043Y-122402087D01*
X147181998Y-122174000D01*
X147162043Y-121945913D01*
X147153528Y-121914135D01*
X147150246Y-121901885D01*
X147790000Y-121901885D01*
X147794475Y-121917124D01*
X147795865Y-121918329D01*
X147803548Y-121920000D01*
X148825885Y-121920000D01*
X148841124Y-121915525D01*
X148842329Y-121914135D01*
X148844000Y-121906452D01*
X148844000Y-121901885D01*
X149352000Y-121901885D01*
X149356475Y-121917124D01*
X149357865Y-121918329D01*
X149365548Y-121920000D01*
X150387884Y-121920000D01*
X150403123Y-121915525D01*
X150404328Y-121914135D01*
X150405999Y-121906452D01*
X150405999Y-121329331D01*
X150405629Y-121322510D01*
X150400105Y-121271648D01*
X150396479Y-121256396D01*
X150351324Y-121135946D01*
X150342786Y-121120351D01*
X150266285Y-121018276D01*
X150253724Y-121005715D01*
X150151649Y-120929214D01*
X150136054Y-120920676D01*
X150015606Y-120875522D01*
X150000351Y-120871895D01*
X149949486Y-120866369D01*
X149942672Y-120866000D01*
X149370115Y-120866000D01*
X149354876Y-120870475D01*
X149353671Y-120871865D01*
X149352000Y-120879548D01*
X149352000Y-121901885D01*
X148844000Y-121901885D01*
X148844000Y-120884116D01*
X148839525Y-120868877D01*
X148838135Y-120867672D01*
X148830452Y-120866001D01*
X148253331Y-120866001D01*
X148246510Y-120866371D01*
X148195648Y-120871895D01*
X148180396Y-120875521D01*
X148059946Y-120920676D01*
X148044351Y-120929214D01*
X147942276Y-121005715D01*
X147929715Y-121018276D01*
X147853214Y-121120351D01*
X147844676Y-121135946D01*
X147799522Y-121256394D01*
X147795895Y-121271649D01*
X147790369Y-121322514D01*
X147790000Y-121329328D01*
X147790000Y-121901885D01*
X147150246Y-121901885D01*
X147104207Y-121730067D01*
X147104206Y-121730065D01*
X147102784Y-121724757D01*
X147024618Y-121557128D01*
X147008349Y-121522238D01*
X147008346Y-121522233D01*
X147006023Y-121517251D01*
X146874698Y-121329700D01*
X146712800Y-121167802D01*
X146708292Y-121164645D01*
X146708289Y-121164643D01*
X146630111Y-121109902D01*
X146525249Y-121036477D01*
X146520267Y-121034154D01*
X146520262Y-121034151D01*
X146322725Y-120942039D01*
X146322724Y-120942039D01*
X146317743Y-120939716D01*
X146312435Y-120938294D01*
X146312433Y-120938293D01*
X146101902Y-120881881D01*
X146101900Y-120881881D01*
X146096587Y-120880457D01*
X145868500Y-120860502D01*
X145640413Y-120880457D01*
X145635100Y-120881881D01*
X145635098Y-120881881D01*
X145424567Y-120938293D01*
X145424565Y-120938294D01*
X145419257Y-120939716D01*
X145414276Y-120942039D01*
X145414275Y-120942039D01*
X145216738Y-121034151D01*
X145216733Y-121034154D01*
X145211751Y-121036477D01*
X145106889Y-121109902D01*
X145028711Y-121164643D01*
X145028708Y-121164645D01*
X145024200Y-121167802D01*
X144862302Y-121329700D01*
X144730977Y-121517251D01*
X144728654Y-121522233D01*
X144728651Y-121522238D01*
X144712382Y-121557128D01*
X144634216Y-121724757D01*
X144632794Y-121730065D01*
X144632793Y-121730067D01*
X144583472Y-121914135D01*
X144574957Y-121945913D01*
X144555002Y-122174000D01*
X144574957Y-122402087D01*
X144585531Y-122441548D01*
X144591960Y-122465541D01*
X144590270Y-122536518D01*
X144559348Y-122587247D01*
X144518000Y-122628595D01*
X144455688Y-122662621D01*
X144428905Y-122665500D01*
X142222500Y-122665500D01*
X142154379Y-122645498D01*
X142107886Y-122591842D01*
X142096500Y-122539500D01*
X142096500Y-122446115D01*
X142092025Y-122430876D01*
X142090635Y-122429671D01*
X142082952Y-122428000D01*
X139498616Y-122428000D01*
X139483377Y-122432475D01*
X139482172Y-122433865D01*
X139480501Y-122441548D01*
X139480501Y-122539500D01*
X139460499Y-122607621D01*
X139406843Y-122654114D01*
X139354501Y-122665500D01*
X138898463Y-122665500D01*
X138887280Y-122664973D01*
X138879787Y-122663298D01*
X138871861Y-122663547D01*
X138871860Y-122663547D01*
X138811697Y-122665438D01*
X138807739Y-122665500D01*
X138779839Y-122665500D01*
X138775849Y-122666004D01*
X138764015Y-122666936D01*
X138719806Y-122668326D01*
X138712190Y-122670539D01*
X138712188Y-122670539D01*
X138700347Y-122673979D01*
X138680988Y-122677988D01*
X138679678Y-122678154D01*
X138660898Y-122680526D01*
X138653532Y-122683442D01*
X138653526Y-122683444D01*
X138619793Y-122696800D01*
X138608563Y-122700645D01*
X138573712Y-122710770D01*
X138566102Y-122712981D01*
X138559279Y-122717016D01*
X138548661Y-122723295D01*
X138530908Y-122731992D01*
X138523263Y-122735019D01*
X138512078Y-122739448D01*
X138505663Y-122744109D01*
X138476307Y-122765437D01*
X138466390Y-122771951D01*
X138428333Y-122794458D01*
X138414012Y-122808779D01*
X138398979Y-122821619D01*
X138382588Y-122833528D01*
X138377538Y-122839632D01*
X138377533Y-122839637D01*
X138354402Y-122867598D01*
X138346412Y-122876379D01*
X137708194Y-123514596D01*
X137645882Y-123548621D01*
X137619099Y-123551500D01*
X137572513Y-123551500D01*
X137566061Y-123552872D01*
X137566056Y-123552872D01*
X137479112Y-123571353D01*
X137385712Y-123591206D01*
X137379682Y-123593891D01*
X137379681Y-123593891D01*
X137217278Y-123666197D01*
X137217276Y-123666198D01*
X137211248Y-123668882D01*
X137056747Y-123781134D01*
X137052326Y-123786044D01*
X137052325Y-123786045D01*
X136955841Y-123893202D01*
X136928960Y-123923056D01*
X136897963Y-123976745D01*
X136858366Y-124045329D01*
X136833473Y-124088444D01*
X136774458Y-124270072D01*
X136754496Y-124460000D01*
X136774458Y-124649928D01*
X136833473Y-124831556D01*
X136836776Y-124837278D01*
X136836777Y-124837279D01*
X136875144Y-124903732D01*
X136891882Y-124972727D01*
X136875144Y-125029732D01*
X136850678Y-125072109D01*
X136835473Y-125098444D01*
X136776458Y-125280072D01*
X136775768Y-125286633D01*
X136775768Y-125286635D01*
X136766454Y-125375257D01*
X136756496Y-125470000D01*
X136757186Y-125476565D01*
X136765777Y-125558300D01*
X136776458Y-125659928D01*
X136835473Y-125841556D01*
X136838776Y-125847278D01*
X136838777Y-125847279D01*
X136857606Y-125879891D01*
X136930960Y-126006944D01*
X136935378Y-126011851D01*
X136935379Y-126011852D01*
X137058747Y-126148866D01*
X137056740Y-126150673D01*
X137087690Y-126200922D01*
X137086332Y-126271906D01*
X137055442Y-126319959D01*
X137056747Y-126321134D01*
X137008747Y-126374444D01*
X136928960Y-126463056D01*
X136897963Y-126516745D01*
X136839259Y-126618423D01*
X136833473Y-126628444D01*
X136774458Y-126810072D01*
X136754496Y-127000000D01*
X136774458Y-127189928D01*
X136833473Y-127371556D01*
X136885919Y-127462394D01*
X136902656Y-127531386D01*
X136885919Y-127588390D01*
X136845473Y-127658444D01*
X136786458Y-127840072D01*
X136785768Y-127846633D01*
X136785768Y-127846635D01*
X136783260Y-127870498D01*
X136766496Y-128030000D01*
X136767186Y-128036565D01*
X136773675Y-128098300D01*
X136786458Y-128219928D01*
X136845473Y-128401556D01*
X136848776Y-128407278D01*
X136848777Y-128407279D01*
X136876353Y-128455041D01*
X136940960Y-128566944D01*
X136945378Y-128571851D01*
X136945379Y-128571852D01*
X137055385Y-128694026D01*
X137086103Y-128758033D01*
X137077338Y-128828487D01*
X137055385Y-128862646D01*
X136977002Y-128949700D01*
X136928960Y-129003056D01*
X136925659Y-129008774D01*
X136839259Y-129158423D01*
X136833473Y-129168444D01*
X136774458Y-129350072D01*
X136754496Y-129540000D01*
X136755186Y-129546565D01*
X136773329Y-129719183D01*
X136774458Y-129729928D01*
X136833473Y-129911556D01*
X136907564Y-130039884D01*
X136919561Y-130060664D01*
X136936299Y-130129659D01*
X136928420Y-130162772D01*
X136929973Y-130163277D01*
X136870958Y-130344905D01*
X136870268Y-130351466D01*
X136870268Y-130351468D01*
X136865561Y-130396250D01*
X136850996Y-130534833D01*
X136851686Y-130541398D01*
X136861397Y-130633789D01*
X136870958Y-130724761D01*
X136929973Y-130906389D01*
X136933276Y-130912111D01*
X136933277Y-130912112D01*
X136949321Y-130939901D01*
X137025460Y-131071777D01*
X137029878Y-131076684D01*
X137029879Y-131076685D01*
X137148825Y-131208788D01*
X137153247Y-131213699D01*
X137158589Y-131217580D01*
X137158591Y-131217582D01*
X137200373Y-131247938D01*
X137279655Y-131305540D01*
X137323008Y-131361761D01*
X137329083Y-131432497D01*
X137295952Y-131495289D01*
X137256842Y-131522581D01*
X137217286Y-131540193D01*
X137217281Y-131540196D01*
X137211248Y-131542882D01*
X137056747Y-131655134D01*
X137052326Y-131660044D01*
X137052325Y-131660045D01*
X137018601Y-131697500D01*
X136928960Y-131797056D01*
X136833473Y-131962444D01*
X136774458Y-132144072D01*
X136754496Y-132334000D01*
X136144500Y-132334000D01*
X136144500Y-121901885D01*
X139480500Y-121901885D01*
X139484975Y-121917124D01*
X139486365Y-121918329D01*
X139494048Y-121920000D01*
X140516385Y-121920000D01*
X140531624Y-121915525D01*
X140532829Y-121914135D01*
X140534500Y-121906452D01*
X140534500Y-121901885D01*
X141042500Y-121901885D01*
X141046975Y-121917124D01*
X141048365Y-121918329D01*
X141056048Y-121920000D01*
X142078384Y-121920000D01*
X142093623Y-121915525D01*
X142094828Y-121914135D01*
X142096499Y-121906452D01*
X142096499Y-121329331D01*
X142096129Y-121322510D01*
X142090605Y-121271648D01*
X142086979Y-121256396D01*
X142041824Y-121135946D01*
X142033286Y-121120351D01*
X141956785Y-121018276D01*
X141944224Y-121005715D01*
X141842149Y-120929214D01*
X141826554Y-120920676D01*
X141706106Y-120875522D01*
X141690851Y-120871895D01*
X141639986Y-120866369D01*
X141633172Y-120866000D01*
X141060615Y-120866000D01*
X141045376Y-120870475D01*
X141044171Y-120871865D01*
X141042500Y-120879548D01*
X141042500Y-121901885D01*
X140534500Y-121901885D01*
X140534500Y-120884116D01*
X140530025Y-120868877D01*
X140528635Y-120867672D01*
X140520952Y-120866001D01*
X139943831Y-120866001D01*
X139937010Y-120866371D01*
X139886148Y-120871895D01*
X139870896Y-120875521D01*
X139750446Y-120920676D01*
X139734851Y-120929214D01*
X139632776Y-121005715D01*
X139620215Y-121018276D01*
X139543714Y-121120351D01*
X139535176Y-121135946D01*
X139490022Y-121256394D01*
X139486395Y-121271649D01*
X139480869Y-121322514D01*
X139480500Y-121329328D01*
X139480500Y-121901885D01*
X136144500Y-121901885D01*
X136144500Y-117474500D01*
X136164502Y-117406379D01*
X136218158Y-117359886D01*
X136270500Y-117348500D01*
X136945500Y-117348500D01*
X137013621Y-117368502D01*
G37*
%TD.AperFunction*%
%TD*%
M02*
