%TF.GenerationSoftware,KiCad,Pcbnew,(6.0.9)*%
%TF.CreationDate,2022-11-24T13:48:04+01:00*%
%TF.ProjectId,8view,38766965-772e-46b6-9963-61645f706362,rev?*%
%TF.SameCoordinates,Original*%
%TF.FileFunction,Copper,L1,Top*%
%TF.FilePolarity,Positive*%
%FSLAX46Y46*%
G04 Gerber Fmt 4.6, Leading zero omitted, Abs format (unit mm)*
G04 Created by KiCad (PCBNEW (6.0.9)) date 2022-11-24 13:48:04*
%MOMM*%
%LPD*%
G01*
G04 APERTURE LIST*
G04 Aperture macros list*
%AMRoundRect*
0 Rectangle with rounded corners*
0 $1 Rounding radius*
0 $2 $3 $4 $5 $6 $7 $8 $9 X,Y pos of 4 corners*
0 Add a 4 corners polygon primitive as box body*
4,1,4,$2,$3,$4,$5,$6,$7,$8,$9,$2,$3,0*
0 Add four circle primitives for the rounded corners*
1,1,$1+$1,$2,$3*
1,1,$1+$1,$4,$5*
1,1,$1+$1,$6,$7*
1,1,$1+$1,$8,$9*
0 Add four rect primitives between the rounded corners*
20,1,$1+$1,$2,$3,$4,$5,0*
20,1,$1+$1,$4,$5,$6,$7,0*
20,1,$1+$1,$6,$7,$8,$9,0*
20,1,$1+$1,$8,$9,$2,$3,0*%
G04 Aperture macros list end*
%TA.AperFunction,ComponentPad*%
%ADD10R,1.700000X1.700000*%
%TD*%
%TA.AperFunction,ComponentPad*%
%ADD11O,1.700000X1.700000*%
%TD*%
%TA.AperFunction,SMDPad,CuDef*%
%ADD12RoundRect,0.135000X0.185000X-0.135000X0.185000X0.135000X-0.185000X0.135000X-0.185000X-0.135000X0*%
%TD*%
%TA.AperFunction,SMDPad,CuDef*%
%ADD13RoundRect,0.218750X0.256250X-0.218750X0.256250X0.218750X-0.256250X0.218750X-0.256250X-0.218750X0*%
%TD*%
%TA.AperFunction,ComponentPad*%
%ADD14R,1.600000X1.600000*%
%TD*%
%TA.AperFunction,ComponentPad*%
%ADD15C,1.600000*%
%TD*%
%TA.AperFunction,SMDPad,CuDef*%
%ADD16R,0.550000X1.600000*%
%TD*%
%TA.AperFunction,SMDPad,CuDef*%
%ADD17R,1.600000X0.550000*%
%TD*%
%TA.AperFunction,SMDPad,CuDef*%
%ADD18R,1.100000X0.300000*%
%TD*%
%TA.AperFunction,SMDPad,CuDef*%
%ADD19R,3.100000X2.300000*%
%TD*%
%TA.AperFunction,SMDPad,CuDef*%
%ADD20RoundRect,0.135000X0.135000X0.185000X-0.135000X0.185000X-0.135000X-0.185000X0.135000X-0.185000X0*%
%TD*%
%TA.AperFunction,ViaPad*%
%ADD21C,0.800000*%
%TD*%
%TA.AperFunction,Conductor*%
%ADD22C,0.250000*%
%TD*%
G04 APERTURE END LIST*
D10*
%TO.P,J2,1,Pin_1*%
%TO.N,/in7*%
X156195000Y-150819000D03*
D11*
%TO.P,J2,2,Pin_2*%
%TO.N,/in6*%
X153655000Y-150819000D03*
%TO.P,J2,3,Pin_3*%
%TO.N,/in5*%
X151115000Y-150819000D03*
%TO.P,J2,4,Pin_4*%
%TO.N,/in4*%
X148575000Y-150819000D03*
%TO.P,J2,5,Pin_5*%
%TO.N,/in3*%
X146035000Y-150819000D03*
%TO.P,J2,6,Pin_6*%
%TO.N,/in2*%
X143495000Y-150819000D03*
%TO.P,J2,7,Pin_7*%
%TO.N,/in1*%
X140955000Y-150819000D03*
%TO.P,J2,8,Pin_8*%
%TO.N,/in0*%
X138415000Y-150819000D03*
%TD*%
D10*
%TO.P,J1,1,Pin_1*%
%TO.N,/in0*%
X138430000Y-118364000D03*
D11*
%TO.P,J1,2,Pin_2*%
%TO.N,/in1*%
X140970000Y-118364000D03*
%TO.P,J1,3,Pin_3*%
%TO.N,/in2*%
X143510000Y-118364000D03*
%TO.P,J1,4,Pin_4*%
%TO.N,/in3*%
X146050000Y-118364000D03*
%TO.P,J1,5,Pin_5*%
%TO.N,/in4*%
X148590000Y-118364000D03*
%TO.P,J1,6,Pin_6*%
%TO.N,/in5*%
X151130000Y-118364000D03*
%TO.P,J1,7,Pin_7*%
%TO.N,/in6*%
X153670000Y-118364000D03*
%TO.P,J1,8,Pin_8*%
%TO.N,/in7*%
X156210000Y-118364000D03*
%TD*%
D12*
%TO.P,R11,1*%
%TO.N,/D1_I2*%
X137668000Y-128018000D03*
%TO.P,R11,2*%
%TO.N,Net-(R11-Pad2)*%
X137668000Y-126998000D03*
%TD*%
%TO.P,R12,1*%
%TO.N,/D1_I3*%
X137668000Y-130558000D03*
%TO.P,R12,2*%
%TO.N,Net-(R12-Pad2)*%
X137668000Y-129538000D03*
%TD*%
D13*
%TO.P,D4,1,K*%
%TO.N,GND*%
X146050000Y-147345500D03*
%TO.P,D4,2,A*%
%TO.N,Net-(D4-Pad2)*%
X146050000Y-145770500D03*
%TD*%
D12*
%TO.P,R6,1*%
%TO.N,Net-(D6-Pad2)*%
X149860000Y-147068000D03*
%TO.P,R6,2*%
%TO.N,/in5*%
X149860000Y-146048000D03*
%TD*%
D14*
%TO.P,U2,1,CA*%
%TO.N,+5V*%
X140788500Y-122174000D03*
D15*
%TO.P,U2,2,F*%
%TO.N,Net-(R15-Pad2)*%
X140788500Y-124714000D03*
%TO.P,U2,3,G*%
%TO.N,Net-(R16-Pad2)*%
X140788500Y-127254000D03*
%TO.P,U2,4,E*%
%TO.N,Net-(R14-Pad2)*%
X140788500Y-129794000D03*
%TO.P,U2,5,D*%
%TO.N,Net-(R13-Pad2)*%
X140788500Y-132334000D03*
%TO.P,U2,6,CA*%
%TO.N,+5V*%
X145868500Y-132334000D03*
%TO.P,U2,7,DP*%
%TO.N,Net-(R17-Pad2)*%
X145868500Y-129794000D03*
%TO.P,U2,8,C*%
%TO.N,Net-(R12-Pad2)*%
X145868500Y-127254000D03*
%TO.P,U2,9,B*%
%TO.N,Net-(R11-Pad2)*%
X145868500Y-124714000D03*
%TO.P,U2,10,A*%
%TO.N,Net-(R10-Pad2)*%
X145868500Y-122174000D03*
%TD*%
D16*
%TO.P,U1,1,PC2*%
%TO.N,/in2*%
X144774000Y-143696000D03*
%TO.P,U1,2,PC3*%
%TO.N,/in3*%
X145574000Y-143696000D03*
%TO.P,U1,3,PC4*%
%TO.N,/in4*%
X146374000Y-143696000D03*
%TO.P,U1,4,VCC*%
%TO.N,+5V*%
X147174000Y-143696000D03*
%TO.P,U1,5,GND*%
%TO.N,GND*%
X147974000Y-143696000D03*
%TO.P,U1,6,PC5*%
%TO.N,/in5*%
X148774000Y-143696000D03*
%TO.P,U1,7,PC6*%
%TO.N,/in6*%
X149574000Y-143696000D03*
%TO.P,U1,8,PC7*%
%TO.N,/in7*%
X150374000Y-143696000D03*
D17*
%TO.P,U1,9,PA0*%
%TO.N,/D1_I1*%
X151824000Y-142246000D03*
%TO.P,U1,10,PA1*%
%TO.N,/D1_I6*%
X151824000Y-141446000D03*
%TO.P,U1,11,PA2*%
%TO.N,/D1_I2*%
X151824000Y-140646000D03*
%TO.P,U1,12,PA3*%
%TO.N,/D1_I7*%
X151824000Y-139846000D03*
%TO.P,U1,13,PA4*%
%TO.N,/D1_I3*%
X151824000Y-139046000D03*
%TO.P,U1,14,PA5*%
%TO.N,/D1_I5*%
X151824000Y-138246000D03*
%TO.P,U1,15,PA6*%
%TO.N,/D1_I8*%
X151824000Y-137446000D03*
%TO.P,U1,16,PA7*%
%TO.N,/D1_I4*%
X151824000Y-136646000D03*
D16*
%TO.P,U1,17,PB0*%
%TO.N,/D2_I7*%
X150374000Y-135196000D03*
%TO.P,U1,18,AVCC*%
%TO.N,+5V*%
X149574000Y-135196000D03*
%TO.P,U1,19,PB1*%
%TO.N,/D2_I8*%
X148774000Y-135196000D03*
%TO.P,U1,20,PB2*%
%TO.N,/D2_I5*%
X147974000Y-135196000D03*
%TO.P,U1,21,GND*%
%TO.N,GND*%
X147174000Y-135196000D03*
%TO.P,U1,22,PB3*%
%TO.N,/D2_I4*%
X146374000Y-135196000D03*
%TO.P,U1,23,PB4*%
%TO.N,/D2_I6*%
X145574000Y-135196000D03*
%TO.P,U1,24,PB5*%
%TO.N,/D2_I3*%
X144774000Y-135196000D03*
D17*
%TO.P,U1,25,PB6*%
%TO.N,/D2_I1*%
X143324000Y-136646000D03*
%TO.P,U1,26,PB7*%
%TO.N,/D2_I2*%
X143324000Y-137446000D03*
%TO.P,U1,27,PD0*%
%TO.N,/ISP_MOSI*%
X143324000Y-138246000D03*
%TO.P,U1,28,PD1*%
%TO.N,/ISP_MISO*%
X143324000Y-139046000D03*
%TO.P,U1,29,PD2/~{RESET}*%
%TO.N,/ISP_RST*%
X143324000Y-139846000D03*
%TO.P,U1,30,PD3*%
%TO.N,/ISP_SCK*%
X143324000Y-140646000D03*
%TO.P,U1,31,PC0*%
%TO.N,/in0*%
X143324000Y-141446000D03*
%TO.P,U1,32,PC1*%
%TO.N,/in1*%
X143324000Y-142246000D03*
%TD*%
D12*
%TO.P,R24,1*%
%TO.N,/D2_I7*%
X157480000Y-130304000D03*
%TO.P,R24,2*%
%TO.N,Net-(R24-Pad2)*%
X157480000Y-129284000D03*
%TD*%
%TO.P,R22,1*%
%TO.N,/D2_I5*%
X157480000Y-132844000D03*
%TO.P,R22,2*%
%TO.N,Net-(R22-Pad2)*%
X157480000Y-131824000D03*
%TD*%
%TO.P,R20,1*%
%TO.N,/D2_I3*%
X156464000Y-127764000D03*
%TO.P,R20,2*%
%TO.N,Net-(R20-Pad2)*%
X156464000Y-126744000D03*
%TD*%
%TO.P,R23,1*%
%TO.N,/D2_I6*%
X157480000Y-127764000D03*
%TO.P,R23,2*%
%TO.N,Net-(R23-Pad2)*%
X157480000Y-126744000D03*
%TD*%
%TO.P,R7,1*%
%TO.N,Net-(D7-Pad2)*%
X152400000Y-147066000D03*
%TO.P,R7,2*%
%TO.N,/in6*%
X152400000Y-146046000D03*
%TD*%
%TO.P,R8,1*%
%TO.N,Net-(D8-Pad2)*%
X154940000Y-147068000D03*
%TO.P,R8,2*%
%TO.N,/in7*%
X154940000Y-146048000D03*
%TD*%
D18*
%TO.P,J4,1,Pin_1*%
%TO.N,GND*%
X140705000Y-138958000D03*
%TO.P,J4,2,Pin_2*%
%TO.N,/ISP_RST*%
X140705000Y-139458000D03*
%TO.P,J4,3,Pin_3*%
%TO.N,/ISP_MOSI*%
X140705000Y-139958000D03*
%TO.P,J4,4,Pin_4*%
%TO.N,/ISP_SCK*%
X140705000Y-140458000D03*
%TO.P,J4,5,Pin_5*%
%TO.N,+5V*%
X140705000Y-140958000D03*
%TO.P,J4,6,Pin_6*%
%TO.N,/ISP_MISO*%
X140705000Y-141458000D03*
D19*
%TO.P,J4,MP*%
%TO.N,N/C*%
X139005000Y-137288000D03*
X139005000Y-143128000D03*
%TD*%
D12*
%TO.P,R25,1*%
%TO.N,/D2_I8*%
X156464000Y-130304000D03*
%TO.P,R25,2*%
%TO.N,Net-(R25-Pad2)*%
X156464000Y-129284000D03*
%TD*%
%TO.P,R10,1*%
%TO.N,/D1_I1*%
X137668000Y-125478000D03*
%TO.P,R10,2*%
%TO.N,Net-(R10-Pad2)*%
X137668000Y-124458000D03*
%TD*%
D13*
%TO.P,D1,1,K*%
%TO.N,GND*%
X138430000Y-147345500D03*
%TO.P,D1,2,A*%
%TO.N,Net-(D1-Pad2)*%
X138430000Y-145770500D03*
%TD*%
D12*
%TO.P,R1,1*%
%TO.N,Net-(D1-Pad2)*%
X137160000Y-147068000D03*
%TO.P,R1,2*%
%TO.N,/in0*%
X137160000Y-146048000D03*
%TD*%
%TO.P,R18,1*%
%TO.N,/D2_I1*%
X157480000Y-125224000D03*
%TO.P,R18,2*%
%TO.N,Net-(R18-Pad2)*%
X157480000Y-124204000D03*
%TD*%
D18*
%TO.P,J3,1,Pin_1*%
%TO.N,/ISP_MISO*%
X154189000Y-141458000D03*
%TO.P,J3,2,Pin_2*%
%TO.N,+5V*%
X154189000Y-140958000D03*
%TO.P,J3,3,Pin_3*%
%TO.N,/ISP_SCK*%
X154189000Y-140458000D03*
%TO.P,J3,4,Pin_4*%
%TO.N,/ISP_MOSI*%
X154189000Y-139958000D03*
%TO.P,J3,5,Pin_5*%
%TO.N,/ISP_RST*%
X154189000Y-139458000D03*
%TO.P,J3,6,Pin_6*%
%TO.N,GND*%
X154189000Y-138958000D03*
D19*
%TO.P,J3,MP*%
%TO.N,N/C*%
X155889000Y-137288000D03*
X155889000Y-143128000D03*
%TD*%
D12*
%TO.P,R2,1*%
%TO.N,Net-(D2-Pad2)*%
X139700000Y-147066000D03*
%TO.P,R2,2*%
%TO.N,/in1*%
X139700000Y-146046000D03*
%TD*%
%TO.P,R19,1*%
%TO.N,/D2_I2*%
X156464000Y-125224000D03*
%TO.P,R19,2*%
%TO.N,Net-(R19-Pad2)*%
X156464000Y-124204000D03*
%TD*%
D13*
%TO.P,D5,1,K*%
%TO.N,GND*%
X148590000Y-147345500D03*
%TO.P,D5,2,A*%
%TO.N,Net-(D5-Pad2)*%
X148590000Y-145770500D03*
%TD*%
D12*
%TO.P,R4,1*%
%TO.N,Net-(D4-Pad2)*%
X144780000Y-147068000D03*
%TO.P,R4,2*%
%TO.N,/in3*%
X144780000Y-146048000D03*
%TD*%
D14*
%TO.P,U3,1,CA*%
%TO.N,+5V*%
X149098000Y-122174000D03*
D15*
%TO.P,U3,2,F*%
%TO.N,Net-(R23-Pad2)*%
X149098000Y-124714000D03*
%TO.P,U3,3,G*%
%TO.N,Net-(R24-Pad2)*%
X149098000Y-127254000D03*
%TO.P,U3,4,E*%
%TO.N,Net-(R22-Pad2)*%
X149098000Y-129794000D03*
%TO.P,U3,5,D*%
%TO.N,Net-(R21-Pad2)*%
X149098000Y-132334000D03*
%TO.P,U3,6,CA*%
%TO.N,+5V*%
X154178000Y-132334000D03*
%TO.P,U3,7,DP*%
%TO.N,Net-(R25-Pad2)*%
X154178000Y-129794000D03*
%TO.P,U3,8,C*%
%TO.N,Net-(R20-Pad2)*%
X154178000Y-127254000D03*
%TO.P,U3,9,B*%
%TO.N,Net-(R19-Pad2)*%
X154178000Y-124714000D03*
%TO.P,U3,10,A*%
%TO.N,Net-(R18-Pad2)*%
X154178000Y-122174000D03*
%TD*%
D12*
%TO.P,R16,1*%
%TO.N,/D1_I7*%
X138684000Y-128018000D03*
%TO.P,R16,2*%
%TO.N,Net-(R16-Pad2)*%
X138684000Y-126998000D03*
%TD*%
%TO.P,R13,1*%
%TO.N,/D1_I4*%
X138684000Y-133352000D03*
%TO.P,R13,2*%
%TO.N,Net-(R13-Pad2)*%
X138684000Y-132332000D03*
%TD*%
%TO.P,R15,1*%
%TO.N,/D1_I6*%
X138684000Y-125478000D03*
%TO.P,R15,2*%
%TO.N,Net-(R15-Pad2)*%
X138684000Y-124458000D03*
%TD*%
%TO.P,R5,1*%
%TO.N,Net-(D5-Pad2)*%
X147320000Y-147068000D03*
%TO.P,R5,2*%
%TO.N,/in4*%
X147320000Y-146048000D03*
%TD*%
D13*
%TO.P,D6,1,K*%
%TO.N,GND*%
X151130000Y-147345500D03*
%TO.P,D6,2,A*%
%TO.N,Net-(D6-Pad2)*%
X151130000Y-145770500D03*
%TD*%
D12*
%TO.P,R3,1*%
%TO.N,Net-(D3-Pad2)*%
X142240000Y-147068000D03*
%TO.P,R3,2*%
%TO.N,/in2*%
X142240000Y-146048000D03*
%TD*%
%TO.P,R21,1*%
%TO.N,/D2_I4*%
X156464000Y-132844000D03*
%TO.P,R21,2*%
%TO.N,Net-(R21-Pad2)*%
X156464000Y-131824000D03*
%TD*%
D13*
%TO.P,D8,1,K*%
%TO.N,GND*%
X156210000Y-147345500D03*
%TO.P,D8,2,A*%
%TO.N,Net-(D8-Pad2)*%
X156210000Y-145770500D03*
%TD*%
%TO.P,D2,1,K*%
%TO.N,GND*%
X140970000Y-147345500D03*
%TO.P,D2,2,A*%
%TO.N,Net-(D2-Pad2)*%
X140970000Y-145770500D03*
%TD*%
D12*
%TO.P,R17,1*%
%TO.N,/D1_I8*%
X137668000Y-133352000D03*
%TO.P,R17,2*%
%TO.N,Net-(R17-Pad2)*%
X137668000Y-132332000D03*
%TD*%
D13*
%TO.P,D3,1,K*%
%TO.N,GND*%
X143510000Y-147345500D03*
%TO.P,D3,2,A*%
%TO.N,Net-(D3-Pad2)*%
X143510000Y-145770500D03*
%TD*%
D20*
%TO.P,R9,1*%
%TO.N,+5V*%
X141478000Y-134874000D03*
%TO.P,R9,2*%
%TO.N,/ISP_RST*%
X140458000Y-134874000D03*
%TD*%
D13*
%TO.P,D7,1,K*%
%TO.N,GND*%
X153670000Y-147345500D03*
%TO.P,D7,2,A*%
%TO.N,Net-(D7-Pad2)*%
X153670000Y-145770500D03*
%TD*%
D12*
%TO.P,R14,1*%
%TO.N,/D1_I5*%
X138684000Y-130558000D03*
%TO.P,R14,2*%
%TO.N,Net-(R14-Pad2)*%
X138684000Y-129538000D03*
%TD*%
D21*
%TO.N,/in0*%
X146147700Y-138758772D03*
X137140000Y-146020000D03*
%TO.N,/in1*%
X139640000Y-146030000D03*
%TO.N,/in2*%
X142231701Y-146051701D03*
%TO.N,/in3*%
X144730000Y-146080000D03*
%TO.N,/in4*%
X147300000Y-146020000D03*
%TO.N,/in5*%
X149881701Y-146021701D03*
%TO.N,/in6*%
X152420000Y-146020000D03*
%TO.N,/in7*%
X154951701Y-146031701D03*
%TO.N,+5V*%
X136151005Y-141419546D03*
X141249137Y-134056502D03*
X152989002Y-143067003D03*
X148000000Y-137010000D03*
X145110000Y-138758772D03*
%TO.N,GND*%
X143554500Y-124023500D03*
X138176000Y-120650000D03*
X156095750Y-147459750D03*
%TO.N,Net-(R10-Pad2)*%
X137668000Y-124460000D03*
%TO.N,/ISP_MISO*%
X136761791Y-142210713D03*
X141931837Y-138758272D03*
X156040000Y-141320000D03*
%TO.N,/ISP_SCK*%
X136825989Y-143299509D03*
X156206399Y-140288199D03*
X136103158Y-140421190D03*
%TO.N,/ISP_MOSI*%
X141154502Y-136950000D03*
X136355935Y-144181583D03*
X136128003Y-139421997D03*
X157056175Y-139762002D03*
%TO.N,/ISP_RST*%
X136405500Y-138461789D03*
X155338502Y-139037502D03*
X136891292Y-145029494D03*
X140500000Y-134850000D03*
%TO.N,Net-(R11-Pad2)*%
X137668000Y-127000000D03*
%TO.N,Net-(R12-Pad2)*%
X137668000Y-129540000D03*
%TO.N,Net-(R13-Pad2)*%
X138684000Y-132334000D03*
%TO.N,Net-(R14-Pad2)*%
X138684000Y-129540000D03*
%TO.N,Net-(R15-Pad2)*%
X138684000Y-124460000D03*
%TO.N,Net-(R16-Pad2)*%
X138684000Y-127000000D03*
%TO.N,Net-(R17-Pad2)*%
X137668000Y-132334000D03*
%TO.N,Net-(R18-Pad2)*%
X157480000Y-124206000D03*
%TO.N,Net-(R19-Pad2)*%
X156464000Y-124206000D03*
%TO.N,Net-(R20-Pad2)*%
X156464000Y-126746000D03*
%TO.N,Net-(R21-Pad2)*%
X156464000Y-131826000D03*
%TO.N,Net-(R23-Pad2)*%
X157480000Y-126746000D03*
%TO.N,Net-(R24-Pad2)*%
X157480000Y-129286000D03*
%TO.N,Net-(R25-Pad2)*%
X156464000Y-129286000D03*
%TO.N,/D1_I1*%
X137670000Y-125470000D03*
X151243563Y-142819207D03*
X143250000Y-143205500D03*
%TO.N,/D1_I2*%
X141154502Y-142298664D03*
X137680000Y-128030000D03*
X150144500Y-140570501D03*
%TO.N,/D1_I3*%
X150734558Y-139045999D03*
X137764500Y-130534833D03*
%TO.N,/D1_I4*%
X138989589Y-133285641D03*
X152380000Y-136571498D03*
%TO.N,/D1_I5*%
X139320513Y-130310621D03*
X152913442Y-138245999D03*
%TO.N,/D1_I6*%
X139300000Y-125259500D03*
X141700511Y-143135850D03*
X150734558Y-141445999D03*
%TO.N,/D1_I7*%
X152913442Y-139846001D03*
X139369597Y-127727297D03*
%TO.N,/D1_I8*%
X137764500Y-133328833D03*
X150697686Y-137442467D03*
%TO.N,/D2_I1*%
X158282587Y-124801702D03*
X142830000Y-136571498D03*
%TO.N,/D2_I2*%
X144464242Y-137414597D03*
X156040000Y-125114500D03*
%TO.N,/D2_I3*%
X144560000Y-134650000D03*
X155750000Y-127799500D03*
%TO.N,/D2_I4*%
X146371573Y-134102199D03*
X156310000Y-133120000D03*
%TO.N,/D2_I5*%
X147965483Y-134091619D03*
X157480000Y-132844000D03*
%TO.N,/D2_I6*%
X157890000Y-127980000D03*
X145573999Y-136285442D03*
%TO.N,/D2_I7*%
X150710000Y-134860000D03*
X158101952Y-130398049D03*
%TO.N,/D2_I8*%
X155980000Y-130194500D03*
X148774001Y-136285442D03*
%TD*%
D22*
%TO.N,/in0*%
X146147700Y-138758772D02*
X146147700Y-139547300D01*
X144249000Y-141446000D02*
X143324000Y-141446000D01*
X146147700Y-139547300D02*
X144249000Y-141446000D01*
X137160000Y-146048000D02*
X137160000Y-146040000D01*
X137160000Y-146040000D02*
X137140000Y-146020000D01*
%TO.N,/in1*%
X139700000Y-145796521D02*
X140488521Y-145008000D01*
X144021802Y-142951802D02*
X143324000Y-142254000D01*
X144021802Y-143811802D02*
X144021802Y-142951802D01*
X139656000Y-146046000D02*
X139640000Y-146030000D01*
X139700000Y-146046000D02*
X139700000Y-145796521D01*
X142355604Y-145008000D02*
X143121802Y-144241802D01*
X140488521Y-145008000D02*
X142355604Y-145008000D01*
X139700000Y-146046000D02*
X139656000Y-146046000D01*
X143121802Y-144241802D02*
X143591802Y-144241802D01*
X143324000Y-142254000D02*
X143324000Y-142246000D01*
X143591802Y-144241802D02*
X144021802Y-143811802D01*
%TO.N,/in2*%
X142240000Y-146048000D02*
X142235402Y-146048000D01*
X143210000Y-144790000D02*
X142230000Y-145770000D01*
X142235402Y-146048000D02*
X142231701Y-146051701D01*
X144774000Y-143696000D02*
X143680000Y-144790000D01*
X143680000Y-144790000D02*
X143210000Y-144790000D01*
%TO.N,/in3*%
X144762000Y-146048000D02*
X144730000Y-146080000D01*
X145574000Y-144456000D02*
X144780000Y-145250000D01*
X144780000Y-145250000D02*
X144780000Y-146048000D01*
X144780000Y-146048000D02*
X144762000Y-146048000D01*
X145574000Y-143696000D02*
X145574000Y-144456000D01*
%TO.N,/in4*%
X147320000Y-146048000D02*
X147320000Y-146040000D01*
X147300000Y-145610000D02*
X146374000Y-144684000D01*
X147320000Y-146040000D02*
X147300000Y-146020000D01*
X146374000Y-144684000D02*
X146374000Y-143696000D01*
X147300000Y-146020000D02*
X147300000Y-145610000D01*
%TO.N,/in5*%
X149860000Y-146043402D02*
X149881701Y-146021701D01*
X149881701Y-145661701D02*
X148774000Y-144554000D01*
X149881701Y-146021701D02*
X149881701Y-145661701D01*
X149860000Y-146048000D02*
X149860000Y-146043402D01*
X148774000Y-144554000D02*
X148774000Y-143696000D01*
%TO.N,/in6*%
X149945000Y-144821000D02*
X149574000Y-144450000D01*
X152400000Y-146046000D02*
X152400000Y-146040000D01*
X151424479Y-144821000D02*
X149945000Y-144821000D01*
X149574000Y-144450000D02*
X149574000Y-143696000D01*
X152420000Y-146020000D02*
X152420000Y-145816521D01*
X152420000Y-145816521D02*
X151424479Y-144821000D01*
X152400000Y-146040000D02*
X152420000Y-146020000D01*
%TO.N,/in7*%
X152239875Y-145000000D02*
X151610875Y-144371000D01*
X154940000Y-146048000D02*
X154940000Y-146043402D01*
X151610875Y-144371000D02*
X151049000Y-144371000D01*
X154940000Y-146043402D02*
X154951701Y-146031701D01*
X154940000Y-146048000D02*
X154940000Y-145796521D01*
X154940000Y-145796521D02*
X154143479Y-145000000D01*
X151049000Y-144371000D02*
X150374000Y-143696000D01*
X154143479Y-145000000D02*
X152239875Y-145000000D01*
%TO.N,+5V*%
X149574000Y-136510748D02*
X149074748Y-137010000D01*
X146448005Y-138033772D02*
X146872700Y-138458467D01*
X141249137Y-134056502D02*
X141249137Y-134645137D01*
X145835000Y-138033772D02*
X146448005Y-138033772D01*
X154189000Y-140958000D02*
X153368000Y-140958000D01*
X152989002Y-141320998D02*
X152989002Y-143067003D01*
X149574000Y-135196000D02*
X149574000Y-136510748D01*
X136612551Y-140958000D02*
X140705000Y-140958000D01*
X136151005Y-141419546D02*
X136612551Y-140958000D01*
X146872700Y-138458467D02*
X146872700Y-142554700D01*
X141249137Y-134645137D02*
X141478000Y-134874000D01*
X145110000Y-138758772D02*
X145835000Y-138033772D01*
X146872700Y-142554700D02*
X147174000Y-142856000D01*
X147174000Y-142856000D02*
X147174000Y-143696000D01*
X149074748Y-137010000D02*
X148000000Y-137010000D01*
X153360000Y-140950000D02*
X152989002Y-141320998D01*
X153368000Y-140958000D02*
X153360000Y-140950000D01*
%TO.N,GND*%
X137130000Y-138763000D02*
X137130000Y-135813000D01*
X144004000Y-133336000D02*
X143554500Y-132886500D01*
X147174000Y-133296000D02*
X148469009Y-133296000D01*
X141514500Y-120650000D02*
X138176000Y-120650000D01*
X151154000Y-134020000D02*
X152607000Y-135473000D01*
X154014000Y-138763000D02*
X154250000Y-138763000D01*
X143554500Y-132886500D02*
X143554500Y-124023500D01*
X144004000Y-133336000D02*
X144743500Y-132596500D01*
X145317000Y-147663000D02*
X145634500Y-147345500D01*
X143827500Y-147663000D02*
X145317000Y-147663000D01*
X141546962Y-147345500D02*
X141864462Y-147663000D01*
X140654500Y-147661000D02*
X140970000Y-147345500D01*
X143554500Y-124023500D02*
X143554500Y-122690000D01*
X147174000Y-137804000D02*
X147974000Y-138604000D01*
X147174000Y-131294000D02*
X147174000Y-133296000D01*
X143192500Y-147663000D02*
X143510000Y-147345500D01*
X157424000Y-135473000D02*
X152607000Y-135473000D01*
X157781175Y-142162825D02*
X157781175Y-135830175D01*
X153905500Y-147345500D02*
X154460000Y-147900000D01*
X148469009Y-133296000D02*
X149193009Y-134020000D01*
X140970000Y-147345500D02*
X141546962Y-147345500D01*
X145634500Y-147345500D02*
X146050000Y-147345500D01*
X148272500Y-147663000D02*
X148590000Y-147345500D01*
X157764000Y-145791500D02*
X157764000Y-142180000D01*
X138430000Y-147345500D02*
X138745500Y-147661000D01*
X157764000Y-142180000D02*
X157781175Y-142162825D01*
X154460000Y-147900000D02*
X155655500Y-147900000D01*
X144743500Y-132596500D02*
X144743500Y-131866500D01*
X146367500Y-147663000D02*
X148272500Y-147663000D01*
X148825500Y-147345500D02*
X149270000Y-147790000D01*
X149270000Y-147790000D02*
X150685500Y-147790000D01*
X145450000Y-131160000D02*
X147040000Y-131160000D01*
X157781175Y-135830175D02*
X157424000Y-135473000D01*
X147174000Y-135196000D02*
X147174000Y-137804000D01*
X140705000Y-138958000D02*
X140510000Y-138763000D01*
X151614500Y-147830000D02*
X153185500Y-147830000D01*
X147974000Y-138604000D02*
X147974000Y-143696000D01*
X152607000Y-135473000D02*
X154014000Y-136880000D01*
X151130000Y-147345500D02*
X151614500Y-147830000D01*
X137130000Y-135813000D02*
X137368000Y-135575000D01*
X156210000Y-147345500D02*
X157764000Y-145791500D01*
X146050000Y-147345500D02*
X146367500Y-147663000D01*
X140510000Y-138763000D02*
X137130000Y-138763000D01*
X141864462Y-147663000D02*
X143192500Y-147663000D01*
X156095750Y-147459750D02*
X156210000Y-147345500D01*
X148590000Y-147345500D02*
X148825500Y-147345500D01*
X150685500Y-147790000D02*
X151130000Y-147345500D01*
X149193009Y-134020000D02*
X151154000Y-134020000D01*
X143554500Y-122690000D02*
X141514500Y-120650000D01*
X141765000Y-135575000D02*
X144004000Y-133336000D01*
X155655500Y-147900000D02*
X156095750Y-147459750D01*
X137368000Y-135575000D02*
X141765000Y-135575000D01*
X138745500Y-147661000D02*
X140654500Y-147661000D01*
X147040000Y-131160000D02*
X147174000Y-131294000D01*
X147174000Y-133296000D02*
X147174000Y-135196000D01*
X153185500Y-147830000D02*
X153670000Y-147345500D01*
X154014000Y-136880000D02*
X154014000Y-138763000D01*
X144743500Y-131866500D02*
X145450000Y-131160000D01*
X153670000Y-147345500D02*
X153905500Y-147345500D01*
X143510000Y-147345500D02*
X143827500Y-147663000D01*
%TO.N,/ISP_MISO*%
X140510000Y-141653000D02*
X140705000Y-141458000D01*
X137854502Y-141653000D02*
X137319504Y-141653000D01*
X137319504Y-141653000D02*
X136761791Y-142210713D01*
X142219565Y-139046000D02*
X141931837Y-138758272D01*
X155902000Y-141458000D02*
X154189000Y-141458000D01*
X143324000Y-139046000D02*
X142219565Y-139046000D01*
X156040000Y-141320000D02*
X155902000Y-141458000D01*
X137854502Y-141653000D02*
X140510000Y-141653000D01*
%TO.N,/ISP_SCK*%
X155818197Y-140288199D02*
X155623396Y-140483000D01*
X136103158Y-140421190D02*
X136141968Y-140460000D01*
X154214000Y-140483000D02*
X154189000Y-140458000D01*
X136141968Y-140460000D02*
X139763208Y-140460000D01*
X155623396Y-140483000D02*
X154214000Y-140483000D01*
X139765208Y-140458000D02*
X140705000Y-140458000D01*
X156206399Y-140288199D02*
X155818197Y-140288199D01*
X143136000Y-140458000D02*
X143324000Y-140646000D01*
X139763208Y-140460000D02*
X139765208Y-140458000D01*
X140705000Y-140458000D02*
X143136000Y-140458000D01*
%TO.N,/ISP_MOSI*%
X139901604Y-139958000D02*
X140705000Y-139958000D01*
X156620000Y-139480000D02*
X155990000Y-139480000D01*
X136369006Y-139663000D02*
X139606604Y-139663000D01*
X154214000Y-139933000D02*
X154189000Y-139958000D01*
X136128003Y-139421997D02*
X136369006Y-139663000D01*
X142444870Y-138246000D02*
X143324000Y-138246000D01*
X155990000Y-139480000D02*
X155537000Y-139933000D01*
X142232142Y-138027640D02*
X142232142Y-138033272D01*
X142232142Y-138033272D02*
X142444870Y-138246000D01*
X156902002Y-139762002D02*
X156620000Y-139480000D01*
X139606604Y-139663000D02*
X139901604Y-139958000D01*
X155537000Y-139933000D02*
X154214000Y-139933000D01*
X157056175Y-139762002D02*
X156902002Y-139762002D01*
X141154502Y-136950000D02*
X142232142Y-138027640D01*
%TO.N,/ISP_RST*%
X140038000Y-139458000D02*
X140705000Y-139458000D01*
X139793000Y-139213000D02*
X140038000Y-139458000D01*
X140458000Y-134874000D02*
X140476000Y-134874000D01*
X136405500Y-138461789D02*
X136405500Y-138674896D01*
X155338502Y-139037502D02*
X155338502Y-139051498D01*
X154907000Y-139483000D02*
X154150000Y-139483000D01*
X136405500Y-138674896D02*
X136943604Y-139213000D01*
X141744000Y-139458000D02*
X142132000Y-139846000D01*
X140705000Y-139458000D02*
X141744000Y-139458000D01*
X140476000Y-134874000D02*
X140500000Y-134850000D01*
X142132000Y-139846000D02*
X143324000Y-139846000D01*
X136943604Y-139213000D02*
X139793000Y-139213000D01*
X155338502Y-139051498D02*
X154907000Y-139483000D01*
%TO.N,Net-(D1-Pad2)*%
X138430000Y-145798000D02*
X137160000Y-147068000D01*
X138430000Y-145770500D02*
X138430000Y-145798000D01*
%TO.N,Net-(D2-Pad2)*%
X140970000Y-145796000D02*
X139700000Y-147066000D01*
X140970000Y-145770500D02*
X140970000Y-145796000D01*
%TO.N,Net-(D3-Pad2)*%
X143510000Y-145798000D02*
X142240000Y-147068000D01*
X143510000Y-145770500D02*
X143510000Y-145798000D01*
%TO.N,Net-(D4-Pad2)*%
X146050000Y-145798000D02*
X144780000Y-147068000D01*
X146050000Y-145770500D02*
X146050000Y-145798000D01*
%TO.N,Net-(D5-Pad2)*%
X148590000Y-145770500D02*
X148590000Y-145798000D01*
X148590000Y-145798000D02*
X147320000Y-147068000D01*
%TO.N,Net-(D6-Pad2)*%
X151130000Y-145770500D02*
X151130000Y-145798000D01*
X151130000Y-145798000D02*
X149860000Y-147068000D01*
%TO.N,Net-(D7-Pad2)*%
X153670000Y-145796000D02*
X152400000Y-147066000D01*
X153670000Y-145770500D02*
X153670000Y-145796000D01*
%TO.N,Net-(D8-Pad2)*%
X156210000Y-145798000D02*
X154940000Y-147068000D01*
X156210000Y-145770500D02*
X156210000Y-145798000D01*
%TO.N,Net-(R22-Pad2)*%
X150223000Y-130919000D02*
X149098000Y-129794000D01*
X156582305Y-130919000D02*
X150223000Y-130919000D01*
X157480000Y-131824000D02*
X157480000Y-131816695D01*
X157480000Y-131816695D02*
X156582305Y-130919000D01*
%TO.N,/D1_I1*%
X137668000Y-125472000D02*
X137670000Y-125470000D01*
X151243563Y-142819207D02*
X151816770Y-142246000D01*
X137668000Y-125478000D02*
X137668000Y-125472000D01*
X151816770Y-142246000D02*
X151824000Y-142246000D01*
%TO.N,/D1_I2*%
X150144500Y-140570501D02*
X150219999Y-140646000D01*
X150219999Y-140646000D02*
X151824000Y-140646000D01*
X137668000Y-128018000D02*
X137680000Y-128030000D01*
%TO.N,/D1_I3*%
X137668000Y-130558000D02*
X137741333Y-130558000D01*
X137741333Y-130558000D02*
X137764500Y-130534833D01*
X151824000Y-139046000D02*
X150734558Y-139045999D01*
%TO.N,/D1_I4*%
X138684000Y-133352000D02*
X138923230Y-133352000D01*
X138923230Y-133352000D02*
X138989589Y-133285641D01*
X151824000Y-136646000D02*
X152305498Y-136646000D01*
X152305498Y-136646000D02*
X152380000Y-136571498D01*
%TO.N,/D1_I5*%
X139073134Y-130558000D02*
X139320513Y-130310621D01*
X138684000Y-130558000D02*
X139073134Y-130558000D01*
X151824000Y-138246000D02*
X152913442Y-138245999D01*
%TO.N,/D1_I6*%
X139081500Y-125478000D02*
X139300000Y-125259500D01*
X151824000Y-141446000D02*
X150734558Y-141445999D01*
X138684000Y-125478000D02*
X139081500Y-125478000D01*
%TO.N,/D1_I7*%
X138684000Y-128018000D02*
X139078894Y-128018000D01*
X139078894Y-128018000D02*
X139369597Y-127727297D01*
X151824000Y-139846000D02*
X152913442Y-139846001D01*
%TO.N,/D1_I8*%
X150701219Y-137446000D02*
X150697686Y-137442467D01*
X137668000Y-133352000D02*
X137741333Y-133352000D01*
X151824000Y-137446000D02*
X150701219Y-137446000D01*
X137741333Y-133352000D02*
X137764500Y-133328833D01*
%TO.N,/D2_I1*%
X143324000Y-136646000D02*
X142904502Y-136646000D01*
X142904502Y-136646000D02*
X142830000Y-136571498D01*
X157480000Y-125224000D02*
X157860289Y-125224000D01*
X157860289Y-125224000D02*
X158282587Y-124801702D01*
%TO.N,/D2_I2*%
X156354500Y-125114500D02*
X156464000Y-125224000D01*
X144432839Y-137446000D02*
X144464242Y-137414597D01*
X143324000Y-137446000D02*
X144432839Y-137446000D01*
X156040000Y-125114500D02*
X156354500Y-125114500D01*
%TO.N,/D2_I3*%
X155785500Y-127764000D02*
X155750000Y-127799500D01*
X144774000Y-135196000D02*
X144774000Y-134864000D01*
X144774000Y-134864000D02*
X144560000Y-134650000D01*
X156464000Y-127764000D02*
X155785500Y-127764000D01*
%TO.N,/D2_I4*%
X146374000Y-135196000D02*
X146374000Y-134104626D01*
X146374000Y-134104626D02*
X146371573Y-134102199D01*
%TO.N,/D2_I5*%
X147974000Y-134100136D02*
X147965483Y-134091619D01*
X147974000Y-135196000D02*
X147974000Y-134100136D01*
%TO.N,/D2_I6*%
X157890000Y-127980000D02*
X157696000Y-127980000D01*
X157696000Y-127980000D02*
X157480000Y-127764000D01*
X145574000Y-135196000D02*
X145573999Y-136285442D01*
%TO.N,/D2_I7*%
X158101952Y-130398049D02*
X157574049Y-130398049D01*
X157574049Y-130398049D02*
X157480000Y-130304000D01*
X150374000Y-135196000D02*
X150710000Y-134860000D01*
%TO.N,/D2_I8*%
X148774000Y-135196000D02*
X148774001Y-136285442D01*
X155980000Y-130194500D02*
X156354500Y-130194500D01*
X156354500Y-130194500D02*
X156464000Y-130304000D01*
%TD*%
%TA.AperFunction,Conductor*%
%TO.N,GND*%
G36*
X158696584Y-131193813D02*
G01*
X158740473Y-131249618D01*
X158749500Y-131296452D01*
X158749500Y-151765500D01*
X158729498Y-151833621D01*
X158675842Y-151880114D01*
X158623500Y-151891500D01*
X157674987Y-151891500D01*
X157606866Y-151871498D01*
X157560373Y-151817842D01*
X157549724Y-151751892D01*
X157553131Y-151720531D01*
X157553500Y-151717134D01*
X157553500Y-149920866D01*
X157546745Y-149858684D01*
X157495615Y-149722295D01*
X157408261Y-149605739D01*
X157291705Y-149518385D01*
X157155316Y-149467255D01*
X157093134Y-149460500D01*
X155296866Y-149460500D01*
X155234684Y-149467255D01*
X155098295Y-149518385D01*
X154981739Y-149605739D01*
X154894385Y-149722295D01*
X154891233Y-149730703D01*
X154849919Y-149840907D01*
X154807277Y-149897671D01*
X154740716Y-149922371D01*
X154671367Y-149907163D01*
X154638743Y-149881476D01*
X154588151Y-149825875D01*
X154588142Y-149825866D01*
X154584670Y-149822051D01*
X154580619Y-149818852D01*
X154580615Y-149818848D01*
X154413414Y-149686800D01*
X154413410Y-149686798D01*
X154409359Y-149683598D01*
X154213789Y-149575638D01*
X154208920Y-149573914D01*
X154208916Y-149573912D01*
X154008087Y-149502795D01*
X154008083Y-149502794D01*
X154003212Y-149501069D01*
X153998119Y-149500162D01*
X153998116Y-149500161D01*
X153788373Y-149462800D01*
X153788367Y-149462799D01*
X153783284Y-149461894D01*
X153709452Y-149460992D01*
X153565081Y-149459228D01*
X153565079Y-149459228D01*
X153559911Y-149459165D01*
X153339091Y-149492955D01*
X153126756Y-149562357D01*
X152928607Y-149665507D01*
X152924474Y-149668610D01*
X152924471Y-149668612D01*
X152754100Y-149796530D01*
X152749965Y-149799635D01*
X152710525Y-149840907D01*
X152656280Y-149897671D01*
X152595629Y-149961138D01*
X152488201Y-150118621D01*
X152433293Y-150163621D01*
X152362768Y-150171792D01*
X152299021Y-150140538D01*
X152278324Y-150116054D01*
X152197822Y-149991617D01*
X152197820Y-149991614D01*
X152195014Y-149987277D01*
X152044670Y-149822051D01*
X152040619Y-149818852D01*
X152040615Y-149818848D01*
X151873414Y-149686800D01*
X151873410Y-149686798D01*
X151869359Y-149683598D01*
X151673789Y-149575638D01*
X151668920Y-149573914D01*
X151668916Y-149573912D01*
X151468087Y-149502795D01*
X151468083Y-149502794D01*
X151463212Y-149501069D01*
X151458119Y-149500162D01*
X151458116Y-149500161D01*
X151248373Y-149462800D01*
X151248367Y-149462799D01*
X151243284Y-149461894D01*
X151169452Y-149460992D01*
X151025081Y-149459228D01*
X151025079Y-149459228D01*
X151019911Y-149459165D01*
X150799091Y-149492955D01*
X150586756Y-149562357D01*
X150388607Y-149665507D01*
X150384474Y-149668610D01*
X150384471Y-149668612D01*
X150214100Y-149796530D01*
X150209965Y-149799635D01*
X150170525Y-149840907D01*
X150116280Y-149897671D01*
X150055629Y-149961138D01*
X149948201Y-150118621D01*
X149893293Y-150163621D01*
X149822768Y-150171792D01*
X149759021Y-150140538D01*
X149738324Y-150116054D01*
X149657822Y-149991617D01*
X149657820Y-149991614D01*
X149655014Y-149987277D01*
X149504670Y-149822051D01*
X149500619Y-149818852D01*
X149500615Y-149818848D01*
X149333414Y-149686800D01*
X149333410Y-149686798D01*
X149329359Y-149683598D01*
X149133789Y-149575638D01*
X149128920Y-149573914D01*
X149128916Y-149573912D01*
X148928087Y-149502795D01*
X148928083Y-149502794D01*
X148923212Y-149501069D01*
X148918119Y-149500162D01*
X148918116Y-149500161D01*
X148708373Y-149462800D01*
X148708367Y-149462799D01*
X148703284Y-149461894D01*
X148629452Y-149460992D01*
X148485081Y-149459228D01*
X148485079Y-149459228D01*
X148479911Y-149459165D01*
X148259091Y-149492955D01*
X148046756Y-149562357D01*
X147848607Y-149665507D01*
X147844474Y-149668610D01*
X147844471Y-149668612D01*
X147674100Y-149796530D01*
X147669965Y-149799635D01*
X147630525Y-149840907D01*
X147576280Y-149897671D01*
X147515629Y-149961138D01*
X147408201Y-150118621D01*
X147353293Y-150163621D01*
X147282768Y-150171792D01*
X147219021Y-150140538D01*
X147198324Y-150116054D01*
X147117822Y-149991617D01*
X147117820Y-149991614D01*
X147115014Y-149987277D01*
X146964670Y-149822051D01*
X146960619Y-149818852D01*
X146960615Y-149818848D01*
X146793414Y-149686800D01*
X146793410Y-149686798D01*
X146789359Y-149683598D01*
X146593789Y-149575638D01*
X146588920Y-149573914D01*
X146588916Y-149573912D01*
X146388087Y-149502795D01*
X146388083Y-149502794D01*
X146383212Y-149501069D01*
X146378119Y-149500162D01*
X146378116Y-149500161D01*
X146168373Y-149462800D01*
X146168367Y-149462799D01*
X146163284Y-149461894D01*
X146089452Y-149460992D01*
X145945081Y-149459228D01*
X145945079Y-149459228D01*
X145939911Y-149459165D01*
X145719091Y-149492955D01*
X145506756Y-149562357D01*
X145308607Y-149665507D01*
X145304474Y-149668610D01*
X145304471Y-149668612D01*
X145134100Y-149796530D01*
X145129965Y-149799635D01*
X145090525Y-149840907D01*
X145036280Y-149897671D01*
X144975629Y-149961138D01*
X144868201Y-150118621D01*
X144813293Y-150163621D01*
X144742768Y-150171792D01*
X144679021Y-150140538D01*
X144658324Y-150116054D01*
X144577822Y-149991617D01*
X144577820Y-149991614D01*
X144575014Y-149987277D01*
X144424670Y-149822051D01*
X144420619Y-149818852D01*
X144420615Y-149818848D01*
X144253414Y-149686800D01*
X144253410Y-149686798D01*
X144249359Y-149683598D01*
X144053789Y-149575638D01*
X144048920Y-149573914D01*
X144048916Y-149573912D01*
X143848087Y-149502795D01*
X143848083Y-149502794D01*
X143843212Y-149501069D01*
X143838119Y-149500162D01*
X143838116Y-149500161D01*
X143628373Y-149462800D01*
X143628367Y-149462799D01*
X143623284Y-149461894D01*
X143549452Y-149460992D01*
X143405081Y-149459228D01*
X143405079Y-149459228D01*
X143399911Y-149459165D01*
X143179091Y-149492955D01*
X142966756Y-149562357D01*
X142768607Y-149665507D01*
X142764474Y-149668610D01*
X142764471Y-149668612D01*
X142594100Y-149796530D01*
X142589965Y-149799635D01*
X142550525Y-149840907D01*
X142496280Y-149897671D01*
X142435629Y-149961138D01*
X142328201Y-150118621D01*
X142273293Y-150163621D01*
X142202768Y-150171792D01*
X142139021Y-150140538D01*
X142118324Y-150116054D01*
X142037822Y-149991617D01*
X142037820Y-149991614D01*
X142035014Y-149987277D01*
X141884670Y-149822051D01*
X141880619Y-149818852D01*
X141880615Y-149818848D01*
X141713414Y-149686800D01*
X141713410Y-149686798D01*
X141709359Y-149683598D01*
X141513789Y-149575638D01*
X141508920Y-149573914D01*
X141508916Y-149573912D01*
X141308087Y-149502795D01*
X141308083Y-149502794D01*
X141303212Y-149501069D01*
X141298119Y-149500162D01*
X141298116Y-149500161D01*
X141088373Y-149462800D01*
X141088367Y-149462799D01*
X141083284Y-149461894D01*
X141009452Y-149460992D01*
X140865081Y-149459228D01*
X140865079Y-149459228D01*
X140859911Y-149459165D01*
X140639091Y-149492955D01*
X140426756Y-149562357D01*
X140228607Y-149665507D01*
X140224474Y-149668610D01*
X140224471Y-149668612D01*
X140054100Y-149796530D01*
X140049965Y-149799635D01*
X140010525Y-149840907D01*
X139956280Y-149897671D01*
X139895629Y-149961138D01*
X139788201Y-150118621D01*
X139733293Y-150163621D01*
X139662768Y-150171792D01*
X139599021Y-150140538D01*
X139578324Y-150116054D01*
X139497822Y-149991617D01*
X139497820Y-149991614D01*
X139495014Y-149987277D01*
X139344670Y-149822051D01*
X139340619Y-149818852D01*
X139340615Y-149818848D01*
X139173414Y-149686800D01*
X139173410Y-149686798D01*
X139169359Y-149683598D01*
X138973789Y-149575638D01*
X138968920Y-149573914D01*
X138968916Y-149573912D01*
X138768087Y-149502795D01*
X138768083Y-149502794D01*
X138763212Y-149501069D01*
X138758119Y-149500162D01*
X138758116Y-149500161D01*
X138548373Y-149462800D01*
X138548367Y-149462799D01*
X138543284Y-149461894D01*
X138469452Y-149460992D01*
X138325081Y-149459228D01*
X138325079Y-149459228D01*
X138319911Y-149459165D01*
X138099091Y-149492955D01*
X137886756Y-149562357D01*
X137688607Y-149665507D01*
X137684474Y-149668610D01*
X137684471Y-149668612D01*
X137514100Y-149796530D01*
X137509965Y-149799635D01*
X137470525Y-149840907D01*
X137416280Y-149897671D01*
X137355629Y-149961138D01*
X137229743Y-150145680D01*
X137135688Y-150348305D01*
X137075989Y-150563570D01*
X137052251Y-150785695D01*
X137065110Y-151008715D01*
X137066247Y-151013761D01*
X137066248Y-151013767D01*
X137090304Y-151120508D01*
X137114222Y-151226639D01*
X137198266Y-151433616D01*
X137235685Y-151494678D01*
X137312291Y-151619688D01*
X137314987Y-151624088D01*
X137318366Y-151627989D01*
X137318372Y-151627997D01*
X137366020Y-151683003D01*
X137395503Y-151747588D01*
X137385388Y-151817860D01*
X137338887Y-151871509D01*
X137270783Y-151891500D01*
X136270500Y-151891500D01*
X136202379Y-151871498D01*
X136155886Y-151817842D01*
X136144500Y-151765500D01*
X136144500Y-147522939D01*
X136164502Y-147454818D01*
X136218158Y-147408325D01*
X136288432Y-147398221D01*
X136353012Y-147427715D01*
X136377907Y-147461675D01*
X136379731Y-147460596D01*
X136462494Y-147600541D01*
X136577459Y-147715506D01*
X136717404Y-147798269D01*
X136725015Y-147800480D01*
X136725017Y-147800481D01*
X136815750Y-147826841D01*
X136873534Y-147843629D01*
X136879941Y-147844133D01*
X136879945Y-147844134D01*
X136907556Y-147846307D01*
X136907562Y-147846307D01*
X136910011Y-147846500D01*
X137159848Y-147846500D01*
X137409988Y-147846499D01*
X137412450Y-147846305D01*
X137412458Y-147846305D01*
X137413245Y-147846243D01*
X137413370Y-147846269D01*
X137414928Y-147846208D01*
X137414943Y-147846600D01*
X137482725Y-147860836D01*
X137530279Y-147905551D01*
X137596470Y-148012514D01*
X137605506Y-148023915D01*
X137715080Y-148133298D01*
X137726491Y-148142310D01*
X137858291Y-148223553D01*
X137871468Y-148229697D01*
X138018843Y-148278579D01*
X138032210Y-148281445D01*
X138122270Y-148290672D01*
X138128685Y-148291000D01*
X138157885Y-148291000D01*
X138173124Y-148286525D01*
X138174329Y-148285135D01*
X138176000Y-148277452D01*
X138176000Y-147217500D01*
X138196002Y-147149379D01*
X138249658Y-147102886D01*
X138302000Y-147091500D01*
X138558000Y-147091500D01*
X138626121Y-147111502D01*
X138672614Y-147165158D01*
X138684000Y-147217500D01*
X138684000Y-148272885D01*
X138688475Y-148288124D01*
X138689865Y-148289329D01*
X138697548Y-148291000D01*
X138731266Y-148291000D01*
X138737782Y-148290663D01*
X138829021Y-148281196D01*
X138842417Y-148278303D01*
X138989687Y-148229170D01*
X139002866Y-148222996D01*
X139134514Y-148141530D01*
X139145915Y-148132494D01*
X139255298Y-148022920D01*
X139264310Y-148011509D01*
X139330688Y-147903825D01*
X139383461Y-147856331D01*
X139445040Y-147844846D01*
X139445065Y-147844209D01*
X139447556Y-147844307D01*
X139450011Y-147844500D01*
X139699848Y-147844500D01*
X139949988Y-147844499D01*
X139952450Y-147844305D01*
X139954928Y-147844208D01*
X139954957Y-147844941D01*
X140021550Y-147858932D01*
X140069099Y-147903644D01*
X140136470Y-148012514D01*
X140145506Y-148023915D01*
X140255080Y-148133298D01*
X140266491Y-148142310D01*
X140398291Y-148223553D01*
X140411468Y-148229697D01*
X140558843Y-148278579D01*
X140572210Y-148281445D01*
X140662270Y-148290672D01*
X140668685Y-148291000D01*
X140697885Y-148291000D01*
X140713124Y-148286525D01*
X140714329Y-148285135D01*
X140716000Y-148277452D01*
X140716000Y-147217500D01*
X140736002Y-147149379D01*
X140789658Y-147102886D01*
X140842000Y-147091500D01*
X141098000Y-147091500D01*
X141166121Y-147111502D01*
X141212614Y-147165158D01*
X141224000Y-147217500D01*
X141224000Y-148272885D01*
X141228475Y-148288124D01*
X141229865Y-148289329D01*
X141237548Y-148291000D01*
X141271266Y-148291000D01*
X141277782Y-148290663D01*
X141369021Y-148281196D01*
X141382417Y-148278303D01*
X141529687Y-148229170D01*
X141542866Y-148222996D01*
X141674514Y-148141530D01*
X141685915Y-148132494D01*
X141795298Y-148022920D01*
X141804310Y-148011509D01*
X141869512Y-147905732D01*
X141922284Y-147858239D01*
X141985052Y-147846538D01*
X141985065Y-147846209D01*
X141986511Y-147846266D01*
X141986665Y-147846237D01*
X141987545Y-147846306D01*
X141987547Y-147846306D01*
X141990011Y-147846500D01*
X142239848Y-147846500D01*
X142489988Y-147846499D01*
X142492450Y-147846305D01*
X142492458Y-147846305D01*
X142493245Y-147846243D01*
X142493370Y-147846269D01*
X142494928Y-147846208D01*
X142494943Y-147846600D01*
X142562725Y-147860836D01*
X142610279Y-147905551D01*
X142676470Y-148012514D01*
X142685506Y-148023915D01*
X142795080Y-148133298D01*
X142806491Y-148142310D01*
X142938291Y-148223553D01*
X142951468Y-148229697D01*
X143098843Y-148278579D01*
X143112210Y-148281445D01*
X143202270Y-148290672D01*
X143208685Y-148291000D01*
X143237885Y-148291000D01*
X143253124Y-148286525D01*
X143254329Y-148285135D01*
X143256000Y-148277452D01*
X143256000Y-147217500D01*
X143276002Y-147149379D01*
X143329658Y-147102886D01*
X143382000Y-147091500D01*
X143638000Y-147091500D01*
X143706121Y-147111502D01*
X143752614Y-147165158D01*
X143764000Y-147217500D01*
X143764000Y-148272885D01*
X143768475Y-148288124D01*
X143769865Y-148289329D01*
X143777548Y-148291000D01*
X143811266Y-148291000D01*
X143817782Y-148290663D01*
X143909021Y-148281196D01*
X143922417Y-148278303D01*
X144069687Y-148229170D01*
X144082866Y-148222996D01*
X144214514Y-148141530D01*
X144225915Y-148132494D01*
X144335298Y-148022920D01*
X144344310Y-148011509D01*
X144409512Y-147905732D01*
X144462284Y-147858239D01*
X144525052Y-147846538D01*
X144525065Y-147846209D01*
X144526511Y-147846266D01*
X144526665Y-147846237D01*
X144527545Y-147846306D01*
X144527547Y-147846306D01*
X144530011Y-147846500D01*
X144779848Y-147846500D01*
X145029988Y-147846499D01*
X145032450Y-147846305D01*
X145032458Y-147846305D01*
X145033245Y-147846243D01*
X145033370Y-147846269D01*
X145034928Y-147846208D01*
X145034943Y-147846600D01*
X145102725Y-147860836D01*
X145150279Y-147905551D01*
X145216470Y-148012514D01*
X145225506Y-148023915D01*
X145335080Y-148133298D01*
X145346491Y-148142310D01*
X145478291Y-148223553D01*
X145491468Y-148229697D01*
X145638843Y-148278579D01*
X145652210Y-148281445D01*
X145742270Y-148290672D01*
X145748685Y-148291000D01*
X145777885Y-148291000D01*
X145793124Y-148286525D01*
X145794329Y-148285135D01*
X145796000Y-148277452D01*
X145796000Y-147217500D01*
X145816002Y-147149379D01*
X145869658Y-147102886D01*
X145922000Y-147091500D01*
X146178000Y-147091500D01*
X146246121Y-147111502D01*
X146292614Y-147165158D01*
X146304000Y-147217500D01*
X146304000Y-148272885D01*
X146308475Y-148288124D01*
X146309865Y-148289329D01*
X146317548Y-148291000D01*
X146351266Y-148291000D01*
X146357782Y-148290663D01*
X146449021Y-148281196D01*
X146462417Y-148278303D01*
X146609687Y-148229170D01*
X146622866Y-148222996D01*
X146754514Y-148141530D01*
X146765915Y-148132494D01*
X146875298Y-148022920D01*
X146884310Y-148011509D01*
X146949512Y-147905732D01*
X147002284Y-147858239D01*
X147065052Y-147846538D01*
X147065065Y-147846209D01*
X147066511Y-147846266D01*
X147066665Y-147846237D01*
X147067545Y-147846306D01*
X147067547Y-147846306D01*
X147070011Y-147846500D01*
X147319848Y-147846500D01*
X147569988Y-147846499D01*
X147572450Y-147846305D01*
X147572458Y-147846305D01*
X147573245Y-147846243D01*
X147573370Y-147846269D01*
X147574928Y-147846208D01*
X147574943Y-147846600D01*
X147642725Y-147860836D01*
X147690279Y-147905551D01*
X147756470Y-148012514D01*
X147765506Y-148023915D01*
X147875080Y-148133298D01*
X147886491Y-148142310D01*
X148018291Y-148223553D01*
X148031468Y-148229697D01*
X148178843Y-148278579D01*
X148192210Y-148281445D01*
X148282270Y-148290672D01*
X148288685Y-148291000D01*
X148317885Y-148291000D01*
X148333124Y-148286525D01*
X148334329Y-148285135D01*
X148336000Y-148277452D01*
X148336000Y-147217500D01*
X148356002Y-147149379D01*
X148409658Y-147102886D01*
X148462000Y-147091500D01*
X148718000Y-147091500D01*
X148786121Y-147111502D01*
X148832614Y-147165158D01*
X148844000Y-147217500D01*
X148844000Y-148272885D01*
X148848475Y-148288124D01*
X148849865Y-148289329D01*
X148857548Y-148291000D01*
X148891266Y-148291000D01*
X148897782Y-148290663D01*
X148989021Y-148281196D01*
X149002417Y-148278303D01*
X149149687Y-148229170D01*
X149162866Y-148222996D01*
X149294514Y-148141530D01*
X149305915Y-148132494D01*
X149415298Y-148022920D01*
X149424310Y-148011509D01*
X149489512Y-147905732D01*
X149542284Y-147858239D01*
X149605052Y-147846538D01*
X149605065Y-147846209D01*
X149606511Y-147846266D01*
X149606665Y-147846237D01*
X149607545Y-147846306D01*
X149607547Y-147846306D01*
X149610011Y-147846500D01*
X149859848Y-147846500D01*
X150109988Y-147846499D01*
X150112450Y-147846305D01*
X150112458Y-147846305D01*
X150113245Y-147846243D01*
X150113370Y-147846269D01*
X150114928Y-147846208D01*
X150114943Y-147846600D01*
X150182725Y-147860836D01*
X150230279Y-147905551D01*
X150296470Y-148012514D01*
X150305506Y-148023915D01*
X150415080Y-148133298D01*
X150426491Y-148142310D01*
X150558291Y-148223553D01*
X150571468Y-148229697D01*
X150718843Y-148278579D01*
X150732210Y-148281445D01*
X150822270Y-148290672D01*
X150828685Y-148291000D01*
X150857885Y-148291000D01*
X150873124Y-148286525D01*
X150874329Y-148285135D01*
X150876000Y-148277452D01*
X150876000Y-147217500D01*
X150896002Y-147149379D01*
X150949658Y-147102886D01*
X151002000Y-147091500D01*
X151258000Y-147091500D01*
X151326121Y-147111502D01*
X151372614Y-147165158D01*
X151384000Y-147217500D01*
X151384000Y-148272885D01*
X151388475Y-148288124D01*
X151389865Y-148289329D01*
X151397548Y-148291000D01*
X151431266Y-148291000D01*
X151437782Y-148290663D01*
X151529021Y-148281196D01*
X151542417Y-148278303D01*
X151689687Y-148229170D01*
X151702866Y-148222996D01*
X151834514Y-148141530D01*
X151845915Y-148132494D01*
X151955298Y-148022920D01*
X151964310Y-148011509D01*
X152030688Y-147903825D01*
X152083461Y-147856331D01*
X152145040Y-147844846D01*
X152145065Y-147844209D01*
X152147556Y-147844307D01*
X152150011Y-147844500D01*
X152399848Y-147844500D01*
X152649988Y-147844499D01*
X152652450Y-147844305D01*
X152654928Y-147844208D01*
X152654957Y-147844941D01*
X152721550Y-147858932D01*
X152769099Y-147903644D01*
X152836470Y-148012514D01*
X152845506Y-148023915D01*
X152955080Y-148133298D01*
X152966491Y-148142310D01*
X153098291Y-148223553D01*
X153111468Y-148229697D01*
X153258843Y-148278579D01*
X153272210Y-148281445D01*
X153362270Y-148290672D01*
X153368685Y-148291000D01*
X153397885Y-148291000D01*
X153413124Y-148286525D01*
X153414329Y-148285135D01*
X153416000Y-148277452D01*
X153416000Y-147217500D01*
X153436002Y-147149379D01*
X153489658Y-147102886D01*
X153542000Y-147091500D01*
X153798000Y-147091500D01*
X153866121Y-147111502D01*
X153912614Y-147165158D01*
X153924000Y-147217500D01*
X153924000Y-148272885D01*
X153928475Y-148288124D01*
X153929865Y-148289329D01*
X153937548Y-148291000D01*
X153971266Y-148291000D01*
X153977782Y-148290663D01*
X154069021Y-148281196D01*
X154082417Y-148278303D01*
X154229687Y-148229170D01*
X154242866Y-148222996D01*
X154374514Y-148141530D01*
X154385915Y-148132494D01*
X154495298Y-148022920D01*
X154504310Y-148011509D01*
X154569512Y-147905732D01*
X154622284Y-147858239D01*
X154685052Y-147846538D01*
X154685065Y-147846209D01*
X154686511Y-147846266D01*
X154686665Y-147846237D01*
X154687545Y-147846306D01*
X154687547Y-147846306D01*
X154690011Y-147846500D01*
X154939848Y-147846500D01*
X155189988Y-147846499D01*
X155192450Y-147846305D01*
X155192458Y-147846305D01*
X155193245Y-147846243D01*
X155193370Y-147846269D01*
X155194928Y-147846208D01*
X155194943Y-147846600D01*
X155262725Y-147860836D01*
X155310279Y-147905551D01*
X155376470Y-148012514D01*
X155385506Y-148023915D01*
X155495080Y-148133298D01*
X155506491Y-148142310D01*
X155638291Y-148223553D01*
X155651468Y-148229697D01*
X155798843Y-148278579D01*
X155812210Y-148281445D01*
X155902270Y-148290672D01*
X155908685Y-148291000D01*
X155937885Y-148291000D01*
X155953124Y-148286525D01*
X155954329Y-148285135D01*
X155956000Y-148277452D01*
X155956000Y-148272885D01*
X156464000Y-148272885D01*
X156468475Y-148288124D01*
X156469865Y-148289329D01*
X156477548Y-148291000D01*
X156511266Y-148291000D01*
X156517782Y-148290663D01*
X156609021Y-148281196D01*
X156622417Y-148278303D01*
X156769687Y-148229170D01*
X156782866Y-148222996D01*
X156914514Y-148141530D01*
X156925915Y-148132494D01*
X157035298Y-148022920D01*
X157044310Y-148011509D01*
X157125553Y-147879709D01*
X157131697Y-147866532D01*
X157180579Y-147719157D01*
X157183445Y-147705790D01*
X157192614Y-147616300D01*
X157188525Y-147602376D01*
X157187135Y-147601171D01*
X157179452Y-147599500D01*
X156482115Y-147599500D01*
X156466876Y-147603975D01*
X156465671Y-147605365D01*
X156464000Y-147613048D01*
X156464000Y-148272885D01*
X155956000Y-148272885D01*
X155956000Y-147217500D01*
X155976002Y-147149379D01*
X156029658Y-147102886D01*
X156082000Y-147091500D01*
X157174885Y-147091500D01*
X157190124Y-147087025D01*
X157191329Y-147085635D01*
X157192842Y-147078679D01*
X157192663Y-147075218D01*
X157183196Y-146983979D01*
X157180303Y-146970583D01*
X157131170Y-146823313D01*
X157124996Y-146810134D01*
X157043530Y-146678486D01*
X157034494Y-146667085D01*
X157014842Y-146647467D01*
X156980763Y-146585184D01*
X156985766Y-146514364D01*
X157014686Y-146469277D01*
X157035692Y-146448234D01*
X157040864Y-146443053D01*
X157129849Y-146298692D01*
X157183238Y-146137731D01*
X157193500Y-146037572D01*
X157193500Y-145503428D01*
X157182978Y-145402018D01*
X157129308Y-145241151D01*
X157040071Y-145096945D01*
X156944633Y-145001673D01*
X156910554Y-144939390D01*
X156915557Y-144868570D01*
X156958054Y-144811698D01*
X157024553Y-144786829D01*
X157033651Y-144786500D01*
X157487134Y-144786500D01*
X157549316Y-144779745D01*
X157685705Y-144728615D01*
X157802261Y-144641261D01*
X157889615Y-144524705D01*
X157940745Y-144388316D01*
X157947500Y-144326134D01*
X157947500Y-141929866D01*
X157940745Y-141867684D01*
X157889615Y-141731295D01*
X157802261Y-141614739D01*
X157685705Y-141527385D01*
X157549316Y-141476255D01*
X157487134Y-141469500D01*
X157077728Y-141469500D01*
X157009607Y-141449498D01*
X156963114Y-141395842D01*
X156952884Y-141333171D01*
X156952814Y-141333171D01*
X156952814Y-141332745D01*
X156952419Y-141330325D01*
X156952814Y-141326568D01*
X156952814Y-141326565D01*
X156953504Y-141320000D01*
X156945564Y-141244456D01*
X156934232Y-141136635D01*
X156934232Y-141136633D01*
X156933542Y-141130072D01*
X156886371Y-140984896D01*
X156884343Y-140913929D01*
X156912568Y-140861650D01*
X156941020Y-140830051D01*
X156941021Y-140830050D01*
X156945439Y-140825143D01*
X156998348Y-140733502D01*
X157049730Y-140684509D01*
X157107467Y-140670502D01*
X157151662Y-140670502D01*
X157158114Y-140669130D01*
X157158119Y-140669130D01*
X157245063Y-140650649D01*
X157338463Y-140630796D01*
X157451689Y-140580385D01*
X157506897Y-140555805D01*
X157506899Y-140555804D01*
X157512927Y-140553120D01*
X157667428Y-140440868D01*
X157671850Y-140435957D01*
X157790796Y-140303854D01*
X157790797Y-140303853D01*
X157795215Y-140298946D01*
X157890702Y-140133558D01*
X157949717Y-139951930D01*
X157960228Y-139851929D01*
X157968989Y-139768567D01*
X157969679Y-139762002D01*
X157955694Y-139628939D01*
X157950407Y-139578637D01*
X157950407Y-139578635D01*
X157949717Y-139572074D01*
X157890702Y-139390446D01*
X157795215Y-139225058D01*
X157667428Y-139083136D01*
X157667897Y-139082714D01*
X157633110Y-139026252D01*
X157634461Y-138955268D01*
X157673974Y-138896283D01*
X157684654Y-138889009D01*
X157685705Y-138888615D01*
X157690410Y-138885089D01*
X157690417Y-138885084D01*
X157795081Y-138806642D01*
X157802261Y-138801261D01*
X157889615Y-138684705D01*
X157940745Y-138548316D01*
X157947500Y-138486134D01*
X157947500Y-136089866D01*
X157940745Y-136027684D01*
X157889615Y-135891295D01*
X157802261Y-135774739D01*
X157685705Y-135687385D01*
X157549316Y-135636255D01*
X157487134Y-135629500D01*
X154290866Y-135629500D01*
X154228684Y-135636255D01*
X154092295Y-135687385D01*
X153975739Y-135774739D01*
X153888385Y-135891295D01*
X153837255Y-136027684D01*
X153830500Y-136089866D01*
X153830500Y-137578523D01*
X153810498Y-137646644D01*
X153756842Y-137693137D01*
X153686568Y-137703241D01*
X153621988Y-137673747D01*
X153610864Y-137662834D01*
X153524695Y-137567133D01*
X153383074Y-137464239D01*
X153375536Y-137458762D01*
X153375535Y-137458761D01*
X153370194Y-137454881D01*
X153364166Y-137452197D01*
X153364164Y-137452196D01*
X153207251Y-137382334D01*
X153153155Y-137336354D01*
X153132500Y-137267227D01*
X153132500Y-137122866D01*
X153133250Y-137122866D01*
X153149184Y-137056232D01*
X153211223Y-136948777D01*
X153211224Y-136948776D01*
X153214527Y-136943054D01*
X153273542Y-136761426D01*
X153281166Y-136688893D01*
X153292814Y-136578063D01*
X153293504Y-136571498D01*
X153285701Y-136497252D01*
X153274232Y-136388133D01*
X153274232Y-136388131D01*
X153273542Y-136381570D01*
X153214527Y-136199942D01*
X153119040Y-136034554D01*
X153107285Y-136021498D01*
X152995675Y-135897543D01*
X152995674Y-135897542D01*
X152991253Y-135892632D01*
X152836752Y-135780380D01*
X152830724Y-135777696D01*
X152830722Y-135777695D01*
X152668319Y-135705389D01*
X152668318Y-135705389D01*
X152662288Y-135702704D01*
X152568888Y-135682851D01*
X152481944Y-135664370D01*
X152481939Y-135664370D01*
X152475487Y-135662998D01*
X152284513Y-135662998D01*
X152278061Y-135664370D01*
X152278056Y-135664370D01*
X152191112Y-135682851D01*
X152097712Y-135702704D01*
X152091682Y-135705389D01*
X152091681Y-135705389D01*
X151929278Y-135777695D01*
X151929276Y-135777696D01*
X151923248Y-135780380D01*
X151917907Y-135784260D01*
X151917906Y-135784261D01*
X151843341Y-135838436D01*
X151776473Y-135862294D01*
X151769280Y-135862500D01*
X151283500Y-135862500D01*
X151215379Y-135842498D01*
X151168886Y-135788842D01*
X151157500Y-135736500D01*
X151157500Y-135722040D01*
X151177502Y-135653919D01*
X151209439Y-135620104D01*
X151228266Y-135606425D01*
X151321253Y-135538866D01*
X151325675Y-135533955D01*
X151444621Y-135401852D01*
X151444622Y-135401851D01*
X151449040Y-135396944D01*
X151544527Y-135231556D01*
X151603542Y-135049928D01*
X151605923Y-135027279D01*
X151622814Y-134866565D01*
X151623504Y-134860000D01*
X151603542Y-134670072D01*
X151544527Y-134488444D01*
X151538754Y-134478444D01*
X151452341Y-134328774D01*
X151449040Y-134323056D01*
X151370620Y-134235961D01*
X151325675Y-134186045D01*
X151325674Y-134186044D01*
X151321253Y-134181134D01*
X151194237Y-134088851D01*
X151172094Y-134072763D01*
X151172093Y-134072762D01*
X151166752Y-134068882D01*
X151160724Y-134066198D01*
X151160722Y-134066197D01*
X150998321Y-133993892D01*
X150992288Y-133991206D01*
X150969963Y-133986460D01*
X150920596Y-133964040D01*
X150902892Y-133950771D01*
X150902890Y-133950770D01*
X150895705Y-133945385D01*
X150759316Y-133894255D01*
X150697134Y-133887500D01*
X150050866Y-133887500D01*
X149988684Y-133894255D01*
X149988420Y-133891826D01*
X149959580Y-133891826D01*
X149959316Y-133894255D01*
X149900531Y-133887869D01*
X149897134Y-133887500D01*
X149250866Y-133887500D01*
X149188684Y-133894255D01*
X149188420Y-133891826D01*
X149159582Y-133891826D01*
X149159318Y-133894255D01*
X149151327Y-133893387D01*
X149147570Y-133891826D01*
X149144836Y-133891826D01*
X149143760Y-133891570D01*
X149144047Y-133890362D01*
X149085764Y-133866146D01*
X149045337Y-133807783D01*
X149042881Y-133736829D01*
X149079176Y-133675811D01*
X149142697Y-133644101D01*
X149153951Y-133642603D01*
X149177413Y-133640550D01*
X149326087Y-133627543D01*
X149331400Y-133626119D01*
X149331402Y-133626119D01*
X149541933Y-133569707D01*
X149541935Y-133569706D01*
X149547243Y-133568284D01*
X149570299Y-133557533D01*
X149749762Y-133473849D01*
X149749767Y-133473846D01*
X149754749Y-133471523D01*
X149912792Y-133360860D01*
X149937789Y-133343357D01*
X149937792Y-133343355D01*
X149942300Y-133340198D01*
X150104198Y-133178300D01*
X150107426Y-133173691D01*
X150183733Y-133064713D01*
X150235523Y-132990749D01*
X150237846Y-132985767D01*
X150237849Y-132985762D01*
X150329961Y-132788225D01*
X150329961Y-132788224D01*
X150332284Y-132783243D01*
X150341609Y-132748444D01*
X150390119Y-132567402D01*
X150390119Y-132567400D01*
X150391543Y-132562087D01*
X150411498Y-132334000D01*
X150391543Y-132105913D01*
X150381021Y-132066644D01*
X150333707Y-131890067D01*
X150333706Y-131890065D01*
X150332284Y-131884757D01*
X150260936Y-131731750D01*
X150250275Y-131661558D01*
X150279255Y-131596745D01*
X150338675Y-131557889D01*
X150375131Y-131552500D01*
X152900869Y-131552500D01*
X152968990Y-131572502D01*
X153015483Y-131626158D01*
X153025587Y-131696432D01*
X153015064Y-131731749D01*
X152943716Y-131884757D01*
X152942294Y-131890065D01*
X152942293Y-131890067D01*
X152894979Y-132066644D01*
X152884457Y-132105913D01*
X152864502Y-132334000D01*
X152884457Y-132562087D01*
X152885881Y-132567400D01*
X152885881Y-132567402D01*
X152934392Y-132748444D01*
X152943716Y-132783243D01*
X152946039Y-132788224D01*
X152946039Y-132788225D01*
X153038151Y-132985762D01*
X153038154Y-132985767D01*
X153040477Y-132990749D01*
X153092267Y-133064713D01*
X153168575Y-133173691D01*
X153171802Y-133178300D01*
X153333700Y-133340198D01*
X153338208Y-133343355D01*
X153338211Y-133343357D01*
X153363208Y-133360860D01*
X153521251Y-133471523D01*
X153526233Y-133473846D01*
X153526238Y-133473849D01*
X153705701Y-133557533D01*
X153728757Y-133568284D01*
X153734065Y-133569706D01*
X153734067Y-133569707D01*
X153944598Y-133626119D01*
X153944600Y-133626119D01*
X153949913Y-133627543D01*
X154178000Y-133647498D01*
X154406087Y-133627543D01*
X154411400Y-133626119D01*
X154411402Y-133626119D01*
X154621933Y-133569707D01*
X154621935Y-133569706D01*
X154627243Y-133568284D01*
X154650299Y-133557533D01*
X154829762Y-133473849D01*
X154829767Y-133473846D01*
X154834749Y-133471523D01*
X154992792Y-133360860D01*
X155017789Y-133343357D01*
X155017792Y-133343355D01*
X155022300Y-133340198D01*
X155184198Y-133178300D01*
X155187351Y-133173797D01*
X155187440Y-133173691D01*
X155246551Y-133134367D01*
X155317539Y-133133243D01*
X155377865Y-133170677D01*
X155409268Y-133241516D01*
X155415185Y-133297812D01*
X155416458Y-133309928D01*
X155475473Y-133491556D01*
X155478776Y-133497278D01*
X155478777Y-133497279D01*
X155511785Y-133554450D01*
X155570960Y-133656944D01*
X155575378Y-133661851D01*
X155575379Y-133661852D01*
X155682846Y-133781206D01*
X155698747Y-133798866D01*
X155783298Y-133860296D01*
X155826343Y-133891570D01*
X155853248Y-133911118D01*
X155859276Y-133913802D01*
X155859278Y-133913803D01*
X156021681Y-133986109D01*
X156027712Y-133988794D01*
X156121113Y-134008647D01*
X156208056Y-134027128D01*
X156208061Y-134027128D01*
X156214513Y-134028500D01*
X156405487Y-134028500D01*
X156411939Y-134027128D01*
X156411944Y-134027128D01*
X156498887Y-134008647D01*
X156592288Y-133988794D01*
X156598319Y-133986109D01*
X156760722Y-133913803D01*
X156760724Y-133913802D01*
X156766752Y-133911118D01*
X156793658Y-133891570D01*
X156836702Y-133860296D01*
X156921253Y-133798866D01*
X156938390Y-133779834D01*
X156971670Y-133742872D01*
X156994433Y-133717592D01*
X157054877Y-133680352D01*
X157125861Y-133681704D01*
X157139317Y-133686795D01*
X157149281Y-133691231D01*
X157197712Y-133712794D01*
X157291113Y-133732647D01*
X157378056Y-133751128D01*
X157378061Y-133751128D01*
X157384513Y-133752500D01*
X157575487Y-133752500D01*
X157581939Y-133751128D01*
X157581944Y-133751128D01*
X157668887Y-133732647D01*
X157762288Y-133712794D01*
X157832118Y-133681704D01*
X157930722Y-133637803D01*
X157930724Y-133637802D01*
X157936752Y-133635118D01*
X158091253Y-133522866D01*
X158114292Y-133497279D01*
X158214621Y-133385852D01*
X158214622Y-133385851D01*
X158219040Y-133380944D01*
X158299539Y-133241516D01*
X158311223Y-133221279D01*
X158311224Y-133221278D01*
X158314527Y-133215556D01*
X158373542Y-133033928D01*
X158377607Y-132995257D01*
X158392814Y-132850565D01*
X158393504Y-132844000D01*
X158373542Y-132654072D01*
X158314527Y-132472444D01*
X158302380Y-132451404D01*
X158249794Y-132360323D01*
X158233056Y-132291328D01*
X158250459Y-132233184D01*
X158256234Y-132223419D01*
X158256234Y-132223418D01*
X158260269Y-132216596D01*
X158279433Y-132150635D01*
X158303834Y-132066644D01*
X158305629Y-132060466D01*
X158308500Y-132023989D01*
X158308499Y-131624012D01*
X158305629Y-131587534D01*
X158274498Y-131480382D01*
X158260280Y-131431441D01*
X158260483Y-131360444D01*
X158299037Y-131300828D01*
X158355081Y-131273041D01*
X158377782Y-131268216D01*
X158377785Y-131268215D01*
X158384240Y-131266843D01*
X158390271Y-131264158D01*
X158552672Y-131191853D01*
X158552675Y-131191851D01*
X158558704Y-131189167D01*
X158561591Y-131187069D01*
X158629491Y-131170595D01*
X158696584Y-131193813D01*
G37*
%TD.AperFunction*%
%TA.AperFunction,Conductor*%
G36*
X146847514Y-136503631D02*
G01*
X146854328Y-136504000D01*
X147035733Y-136504000D01*
X147103854Y-136524002D01*
X147150347Y-136577658D01*
X147160451Y-136647932D01*
X147155568Y-136668928D01*
X147106458Y-136820072D01*
X147105768Y-136826633D01*
X147105768Y-136826635D01*
X147091298Y-136964308D01*
X147086496Y-137010000D01*
X147087186Y-137016565D01*
X147101656Y-137154236D01*
X147106458Y-137199928D01*
X147165473Y-137381556D01*
X147168776Y-137387278D01*
X147168777Y-137387279D01*
X147175007Y-137398070D01*
X147260960Y-137546944D01*
X147265378Y-137551851D01*
X147265379Y-137551852D01*
X147347452Y-137643003D01*
X147388747Y-137688866D01*
X147543248Y-137801118D01*
X147549276Y-137803802D01*
X147549278Y-137803803D01*
X147707939Y-137874443D01*
X147717712Y-137878794D01*
X147811112Y-137898647D01*
X147898056Y-137917128D01*
X147898061Y-137917128D01*
X147904513Y-137918500D01*
X148095487Y-137918500D01*
X148101939Y-137917128D01*
X148101944Y-137917128D01*
X148188888Y-137898647D01*
X148282288Y-137878794D01*
X148292061Y-137874443D01*
X148450722Y-137803803D01*
X148450724Y-137803802D01*
X148456752Y-137801118D01*
X148611253Y-137688866D01*
X148615668Y-137683963D01*
X148620580Y-137679540D01*
X148621705Y-137680789D01*
X148675014Y-137647949D01*
X148708200Y-137643500D01*
X148995981Y-137643500D01*
X149007164Y-137644027D01*
X149014657Y-137645702D01*
X149022583Y-137645453D01*
X149022584Y-137645453D01*
X149082734Y-137643562D01*
X149086693Y-137643500D01*
X149114604Y-137643500D01*
X149118539Y-137643003D01*
X149118604Y-137642995D01*
X149130441Y-137642062D01*
X149162699Y-137641048D01*
X149166718Y-137640922D01*
X149174637Y-137640673D01*
X149194091Y-137635021D01*
X149213448Y-137631013D01*
X149225678Y-137629468D01*
X149225679Y-137629468D01*
X149233545Y-137628474D01*
X149240916Y-137625555D01*
X149240918Y-137625555D01*
X149274660Y-137612196D01*
X149285890Y-137608351D01*
X149320731Y-137598229D01*
X149320732Y-137598229D01*
X149328341Y-137596018D01*
X149335160Y-137591985D01*
X149335165Y-137591983D01*
X149345776Y-137585707D01*
X149363524Y-137577012D01*
X149382365Y-137569552D01*
X149394906Y-137560441D01*
X149418135Y-137543564D01*
X149428055Y-137537048D01*
X149459283Y-137518580D01*
X149459286Y-137518578D01*
X149466110Y-137514542D01*
X149480431Y-137500221D01*
X149495465Y-137487380D01*
X149502068Y-137482583D01*
X149511855Y-137475472D01*
X149540041Y-137441401D01*
X149548030Y-137432622D01*
X149573993Y-137406659D01*
X149636305Y-137372633D01*
X149707120Y-137377698D01*
X149763956Y-137420245D01*
X149788398Y-137482583D01*
X149802981Y-137621329D01*
X149804144Y-137632395D01*
X149863159Y-137814023D01*
X149958646Y-137979411D01*
X149963064Y-137984318D01*
X149963065Y-137984319D01*
X150082011Y-138116422D01*
X150086433Y-138121333D01*
X150091779Y-138125217D01*
X150091780Y-138125218D01*
X150133724Y-138155693D01*
X150177077Y-138211916D01*
X150183152Y-138282652D01*
X150150020Y-138345443D01*
X150133725Y-138359562D01*
X150123305Y-138367133D01*
X150118884Y-138372043D01*
X150118883Y-138372044D01*
X150050018Y-138448527D01*
X149995518Y-138509055D01*
X149900031Y-138674443D01*
X149841016Y-138856071D01*
X149840326Y-138862632D01*
X149840326Y-138862634D01*
X149831512Y-138946500D01*
X149821054Y-139045999D01*
X149821744Y-139052564D01*
X149839874Y-139225058D01*
X149841016Y-139235927D01*
X149900031Y-139417555D01*
X149903334Y-139423277D01*
X149903335Y-139423278D01*
X149955308Y-139513297D01*
X149972046Y-139582292D01*
X149948826Y-139649384D01*
X149893019Y-139693271D01*
X149872391Y-139699542D01*
X149868680Y-139700331D01*
X149868670Y-139700334D01*
X149862212Y-139701707D01*
X149856182Y-139704392D01*
X149856181Y-139704392D01*
X149693778Y-139776698D01*
X149693776Y-139776699D01*
X149687748Y-139779383D01*
X149533247Y-139891635D01*
X149528826Y-139896545D01*
X149528825Y-139896546D01*
X149484867Y-139945367D01*
X149405460Y-140033557D01*
X149309973Y-140198945D01*
X149250958Y-140380573D01*
X149230996Y-140570501D01*
X149231686Y-140577066D01*
X149242979Y-140684509D01*
X149250958Y-140760429D01*
X149309973Y-140942057D01*
X149313276Y-140947779D01*
X149313277Y-140947780D01*
X149334706Y-140984896D01*
X149405460Y-141107445D01*
X149533247Y-141249367D01*
X149547698Y-141259866D01*
X149648007Y-141332745D01*
X149687748Y-141361619D01*
X149751837Y-141390153D01*
X149805933Y-141436134D01*
X149825898Y-141492089D01*
X149839544Y-141621919D01*
X149841016Y-141635927D01*
X149900031Y-141817555D01*
X149995518Y-141982943D01*
X150123305Y-142124865D01*
X150128647Y-142128746D01*
X150128649Y-142128748D01*
X150171064Y-142159564D01*
X150214418Y-142215786D01*
X150220493Y-142286522D01*
X150187362Y-142349314D01*
X150125541Y-142384226D01*
X150097003Y-142387500D01*
X150050866Y-142387500D01*
X150047469Y-142387869D01*
X150011044Y-142391826D01*
X149988684Y-142394255D01*
X149988420Y-142391826D01*
X149959580Y-142391826D01*
X149959316Y-142394255D01*
X149900531Y-142387869D01*
X149897134Y-142387500D01*
X149250866Y-142387500D01*
X149247469Y-142387869D01*
X149211044Y-142391826D01*
X149188684Y-142394255D01*
X149188420Y-142391826D01*
X149159580Y-142391826D01*
X149159316Y-142394255D01*
X149100531Y-142387869D01*
X149097134Y-142387500D01*
X148450866Y-142387500D01*
X148447469Y-142387869D01*
X148411044Y-142391826D01*
X148388684Y-142394255D01*
X148388452Y-142392116D01*
X148359488Y-142392166D01*
X148359207Y-142394748D01*
X148300486Y-142388369D01*
X148293672Y-142388000D01*
X148246115Y-142388000D01*
X148230876Y-142392475D01*
X148229671Y-142393865D01*
X148225121Y-142414783D01*
X148223903Y-142414518D01*
X148207998Y-142468687D01*
X148177565Y-142501392D01*
X148135739Y-142532739D01*
X148130358Y-142539919D01*
X148074826Y-142614015D01*
X148017967Y-142656530D01*
X147947148Y-142661556D01*
X147884855Y-142627496D01*
X147873174Y-142614015D01*
X147817642Y-142539919D01*
X147812261Y-142532739D01*
X147770435Y-142501392D01*
X147727920Y-142444533D01*
X147722587Y-142414926D01*
X147715525Y-142390877D01*
X147714135Y-142389672D01*
X147706452Y-142388001D01*
X147654095Y-142388001D01*
X147585974Y-142367999D01*
X147565000Y-142351096D01*
X147543105Y-142329201D01*
X147509079Y-142266889D01*
X147506200Y-142240106D01*
X147506200Y-138537230D01*
X147506727Y-138526046D01*
X147508401Y-138518558D01*
X147506262Y-138450499D01*
X147506200Y-138446542D01*
X147506200Y-138418611D01*
X147505694Y-138414605D01*
X147504761Y-138402759D01*
X147503622Y-138366504D01*
X147503373Y-138358577D01*
X147497722Y-138339125D01*
X147493714Y-138319773D01*
X147492168Y-138307535D01*
X147492167Y-138307533D01*
X147491174Y-138299670D01*
X147474894Y-138258553D01*
X147471059Y-138247352D01*
X147458718Y-138204873D01*
X147454685Y-138198054D01*
X147454683Y-138198049D01*
X147448407Y-138187438D01*
X147439710Y-138169688D01*
X147432252Y-138150850D01*
X147406271Y-138115090D01*
X147399753Y-138105168D01*
X147381278Y-138073927D01*
X147381274Y-138073922D01*
X147377242Y-138067104D01*
X147362918Y-138052780D01*
X147350076Y-138037745D01*
X147338172Y-138021360D01*
X147304106Y-137993178D01*
X147295327Y-137985189D01*
X146951657Y-137641519D01*
X146944117Y-137633233D01*
X146940005Y-137626754D01*
X146932990Y-137620166D01*
X146896294Y-137585707D01*
X146890353Y-137580128D01*
X146887512Y-137577374D01*
X146867775Y-137557637D01*
X146864578Y-137555157D01*
X146855556Y-137547452D01*
X146844477Y-137537048D01*
X146823326Y-137517186D01*
X146816380Y-137513367D01*
X146816377Y-137513365D01*
X146805571Y-137507424D01*
X146789052Y-137496573D01*
X146784712Y-137493207D01*
X146773046Y-137484158D01*
X146765777Y-137481013D01*
X146765773Y-137481010D01*
X146732468Y-137466598D01*
X146721818Y-137461381D01*
X146683065Y-137440077D01*
X146663442Y-137435039D01*
X146644739Y-137428635D01*
X146633425Y-137423739D01*
X146633424Y-137423739D01*
X146626150Y-137420591D01*
X146618327Y-137419352D01*
X146618317Y-137419349D01*
X146582481Y-137413673D01*
X146570861Y-137411267D01*
X146535716Y-137402244D01*
X146535715Y-137402244D01*
X146528035Y-137400272D01*
X146507781Y-137400272D01*
X146488070Y-137398721D01*
X146475891Y-137396792D01*
X146468062Y-137395552D01*
X146460170Y-137396298D01*
X146424044Y-137399713D01*
X146412186Y-137400272D01*
X145913767Y-137400272D01*
X145902583Y-137399745D01*
X145895091Y-137398070D01*
X145887164Y-137398319D01*
X145885332Y-137398146D01*
X145819396Y-137371822D01*
X145778159Y-137314029D01*
X145774714Y-137243116D01*
X145810153Y-137181597D01*
X145855791Y-137154341D01*
X145856287Y-137154236D01*
X145862314Y-137151553D01*
X145862316Y-137151552D01*
X146024721Y-137079245D01*
X146024723Y-137079244D01*
X146030751Y-137076560D01*
X146185252Y-136964308D01*
X146313039Y-136822386D01*
X146408526Y-136656998D01*
X146429787Y-136591564D01*
X146469861Y-136532958D01*
X146535257Y-136505321D01*
X146549620Y-136504500D01*
X146697134Y-136504500D01*
X146705134Y-136503631D01*
X146759316Y-136497745D01*
X146759548Y-136499884D01*
X146788512Y-136499834D01*
X146788793Y-136497252D01*
X146847514Y-136503631D01*
G37*
%TD.AperFunction*%
%TA.AperFunction,Conductor*%
G36*
X137013621Y-117368502D02*
G01*
X137060114Y-117422158D01*
X137071500Y-117474500D01*
X137071500Y-119262134D01*
X137078255Y-119324316D01*
X137129385Y-119460705D01*
X137216739Y-119577261D01*
X137333295Y-119664615D01*
X137469684Y-119715745D01*
X137531866Y-119722500D01*
X139328134Y-119722500D01*
X139390316Y-119715745D01*
X139526705Y-119664615D01*
X139643261Y-119577261D01*
X139730615Y-119460705D01*
X139752799Y-119401529D01*
X139774598Y-119343382D01*
X139817240Y-119286618D01*
X139883802Y-119261918D01*
X139953150Y-119277126D01*
X139987817Y-119305114D01*
X140016250Y-119337938D01*
X140188126Y-119480632D01*
X140381000Y-119593338D01*
X140589692Y-119673030D01*
X140594760Y-119674061D01*
X140594763Y-119674062D01*
X140702017Y-119695883D01*
X140808597Y-119717567D01*
X140813772Y-119717757D01*
X140813774Y-119717757D01*
X141026673Y-119725564D01*
X141026677Y-119725564D01*
X141031837Y-119725753D01*
X141036957Y-119725097D01*
X141036959Y-119725097D01*
X141248288Y-119698025D01*
X141248289Y-119698025D01*
X141253416Y-119697368D01*
X141258366Y-119695883D01*
X141462429Y-119634661D01*
X141462434Y-119634659D01*
X141467384Y-119633174D01*
X141667994Y-119534896D01*
X141849860Y-119405173D01*
X142008096Y-119247489D01*
X142138453Y-119066077D01*
X142139776Y-119067028D01*
X142186645Y-119023857D01*
X142256580Y-119011625D01*
X142322026Y-119039144D01*
X142349875Y-119070994D01*
X142409987Y-119169088D01*
X142556250Y-119337938D01*
X142728126Y-119480632D01*
X142921000Y-119593338D01*
X143129692Y-119673030D01*
X143134760Y-119674061D01*
X143134763Y-119674062D01*
X143242017Y-119695883D01*
X143348597Y-119717567D01*
X143353772Y-119717757D01*
X143353774Y-119717757D01*
X143566673Y-119725564D01*
X143566677Y-119725564D01*
X143571837Y-119725753D01*
X143576957Y-119725097D01*
X143576959Y-119725097D01*
X143788288Y-119698025D01*
X143788289Y-119698025D01*
X143793416Y-119697368D01*
X143798366Y-119695883D01*
X144002429Y-119634661D01*
X144002434Y-119634659D01*
X144007384Y-119633174D01*
X144207994Y-119534896D01*
X144389860Y-119405173D01*
X144548096Y-119247489D01*
X144678453Y-119066077D01*
X144679776Y-119067028D01*
X144726645Y-119023857D01*
X144796580Y-119011625D01*
X144862026Y-119039144D01*
X144889875Y-119070994D01*
X144949987Y-119169088D01*
X145096250Y-119337938D01*
X145268126Y-119480632D01*
X145461000Y-119593338D01*
X145669692Y-119673030D01*
X145674760Y-119674061D01*
X145674763Y-119674062D01*
X145782017Y-119695883D01*
X145888597Y-119717567D01*
X145893772Y-119717757D01*
X145893774Y-119717757D01*
X146106673Y-119725564D01*
X146106677Y-119725564D01*
X146111837Y-119725753D01*
X146116957Y-119725097D01*
X146116959Y-119725097D01*
X146328288Y-119698025D01*
X146328289Y-119698025D01*
X146333416Y-119697368D01*
X146338366Y-119695883D01*
X146542429Y-119634661D01*
X146542434Y-119634659D01*
X146547384Y-119633174D01*
X146747994Y-119534896D01*
X146929860Y-119405173D01*
X147088096Y-119247489D01*
X147218453Y-119066077D01*
X147219776Y-119067028D01*
X147266645Y-119023857D01*
X147336580Y-119011625D01*
X147402026Y-119039144D01*
X147429875Y-119070994D01*
X147489987Y-119169088D01*
X147636250Y-119337938D01*
X147808126Y-119480632D01*
X148001000Y-119593338D01*
X148209692Y-119673030D01*
X148214760Y-119674061D01*
X148214763Y-119674062D01*
X148322017Y-119695883D01*
X148428597Y-119717567D01*
X148433772Y-119717757D01*
X148433774Y-119717757D01*
X148646673Y-119725564D01*
X148646677Y-119725564D01*
X148651837Y-119725753D01*
X148656957Y-119725097D01*
X148656959Y-119725097D01*
X148868288Y-119698025D01*
X148868289Y-119698025D01*
X148873416Y-119697368D01*
X148878366Y-119695883D01*
X149082429Y-119634661D01*
X149082434Y-119634659D01*
X149087384Y-119633174D01*
X149287994Y-119534896D01*
X149469860Y-119405173D01*
X149628096Y-119247489D01*
X149758453Y-119066077D01*
X149759776Y-119067028D01*
X149806645Y-119023857D01*
X149876580Y-119011625D01*
X149942026Y-119039144D01*
X149969875Y-119070994D01*
X150029987Y-119169088D01*
X150176250Y-119337938D01*
X150348126Y-119480632D01*
X150541000Y-119593338D01*
X150749692Y-119673030D01*
X150754760Y-119674061D01*
X150754763Y-119674062D01*
X150862017Y-119695883D01*
X150968597Y-119717567D01*
X150973772Y-119717757D01*
X150973774Y-119717757D01*
X151186673Y-119725564D01*
X151186677Y-119725564D01*
X151191837Y-119725753D01*
X151196957Y-119725097D01*
X151196959Y-119725097D01*
X151408288Y-119698025D01*
X151408289Y-119698025D01*
X151413416Y-119697368D01*
X151418366Y-119695883D01*
X151622429Y-119634661D01*
X151622434Y-119634659D01*
X151627384Y-119633174D01*
X151827994Y-119534896D01*
X152009860Y-119405173D01*
X152168096Y-119247489D01*
X152298453Y-119066077D01*
X152299776Y-119067028D01*
X152346645Y-119023857D01*
X152416580Y-119011625D01*
X152482026Y-119039144D01*
X152509875Y-119070994D01*
X152569987Y-119169088D01*
X152716250Y-119337938D01*
X152888126Y-119480632D01*
X153081000Y-119593338D01*
X153289692Y-119673030D01*
X153294760Y-119674061D01*
X153294763Y-119674062D01*
X153402017Y-119695883D01*
X153508597Y-119717567D01*
X153513772Y-119717757D01*
X153513774Y-119717757D01*
X153726673Y-119725564D01*
X153726677Y-119725564D01*
X153731837Y-119725753D01*
X153736957Y-119725097D01*
X153736959Y-119725097D01*
X153948288Y-119698025D01*
X153948289Y-119698025D01*
X153953416Y-119697368D01*
X153958366Y-119695883D01*
X154162429Y-119634661D01*
X154162434Y-119634659D01*
X154167384Y-119633174D01*
X154367994Y-119534896D01*
X154549860Y-119405173D01*
X154708096Y-119247489D01*
X154838453Y-119066077D01*
X154839776Y-119067028D01*
X154886645Y-119023857D01*
X154956580Y-119011625D01*
X155022026Y-119039144D01*
X155049875Y-119070994D01*
X155109987Y-119169088D01*
X155256250Y-119337938D01*
X155428126Y-119480632D01*
X155621000Y-119593338D01*
X155829692Y-119673030D01*
X155834760Y-119674061D01*
X155834763Y-119674062D01*
X155942017Y-119695883D01*
X156048597Y-119717567D01*
X156053772Y-119717757D01*
X156053774Y-119717757D01*
X156266673Y-119725564D01*
X156266677Y-119725564D01*
X156271837Y-119725753D01*
X156276957Y-119725097D01*
X156276959Y-119725097D01*
X156488288Y-119698025D01*
X156488289Y-119698025D01*
X156493416Y-119697368D01*
X156498366Y-119695883D01*
X156702429Y-119634661D01*
X156702434Y-119634659D01*
X156707384Y-119633174D01*
X156907994Y-119534896D01*
X157089860Y-119405173D01*
X157248096Y-119247489D01*
X157378453Y-119066077D01*
X157399320Y-119023857D01*
X157475136Y-118870453D01*
X157475137Y-118870451D01*
X157477430Y-118865811D01*
X157542370Y-118652069D01*
X157571529Y-118430590D01*
X157573156Y-118364000D01*
X157554852Y-118141361D01*
X157500431Y-117924702D01*
X157411354Y-117719840D01*
X157296912Y-117542939D01*
X157276705Y-117474880D01*
X157296501Y-117406699D01*
X157350016Y-117360045D01*
X157402704Y-117348500D01*
X158623500Y-117348500D01*
X158691621Y-117368502D01*
X158738114Y-117422158D01*
X158749500Y-117474500D01*
X158749500Y-123821085D01*
X158729498Y-123889206D01*
X158675842Y-123935699D01*
X158605568Y-123945803D01*
X158577192Y-123937617D01*
X158577187Y-123937634D01*
X158576690Y-123937473D01*
X158572251Y-123936192D01*
X158570906Y-123935593D01*
X158570905Y-123935593D01*
X158564875Y-123932908D01*
X158435187Y-123905342D01*
X158398742Y-123897595D01*
X158336268Y-123863866D01*
X158315539Y-123833859D01*
X158314527Y-123834444D01*
X158283748Y-123781134D01*
X158219040Y-123669056D01*
X158138233Y-123579310D01*
X158095675Y-123532045D01*
X158095674Y-123532044D01*
X158091253Y-123527134D01*
X157954487Y-123427767D01*
X157942094Y-123418763D01*
X157942093Y-123418762D01*
X157936752Y-123414882D01*
X157930724Y-123412198D01*
X157930722Y-123412197D01*
X157768319Y-123339891D01*
X157768318Y-123339891D01*
X157762288Y-123337206D01*
X157641460Y-123311523D01*
X157581944Y-123298872D01*
X157581939Y-123298872D01*
X157575487Y-123297500D01*
X157384513Y-123297500D01*
X157378061Y-123298872D01*
X157378056Y-123298872D01*
X157318540Y-123311523D01*
X157197712Y-123337206D01*
X157023248Y-123414882D01*
X156952882Y-123424316D01*
X156920753Y-123414882D01*
X156920752Y-123414882D01*
X156746288Y-123337206D01*
X156625460Y-123311523D01*
X156565944Y-123298872D01*
X156565939Y-123298872D01*
X156559487Y-123297500D01*
X156368513Y-123297500D01*
X156362061Y-123298872D01*
X156362056Y-123298872D01*
X156302540Y-123311523D01*
X156181712Y-123337206D01*
X156175682Y-123339891D01*
X156175681Y-123339891D01*
X156013278Y-123412197D01*
X156013276Y-123412198D01*
X156007248Y-123414882D01*
X156001907Y-123418762D01*
X156001906Y-123418763D01*
X155989513Y-123427767D01*
X155852747Y-123527134D01*
X155848326Y-123532044D01*
X155848325Y-123532045D01*
X155805768Y-123579310D01*
X155724960Y-123669056D01*
X155629473Y-123834444D01*
X155570458Y-124016072D01*
X155569768Y-124022633D01*
X155569768Y-124022635D01*
X155567526Y-124043971D01*
X155540514Y-124109628D01*
X155482293Y-124150258D01*
X155411348Y-124152962D01*
X155350203Y-124116881D01*
X155328022Y-124084054D01*
X155317849Y-124062240D01*
X155317848Y-124062238D01*
X155315523Y-124057251D01*
X155225560Y-123928771D01*
X155187357Y-123874211D01*
X155187355Y-123874208D01*
X155184198Y-123869700D01*
X155022300Y-123707802D01*
X155017792Y-123704645D01*
X155017789Y-123704643D01*
X154939611Y-123649902D01*
X154834749Y-123576477D01*
X154829767Y-123574154D01*
X154829762Y-123574151D01*
X154795543Y-123558195D01*
X154742258Y-123511278D01*
X154722797Y-123443001D01*
X154743339Y-123375041D01*
X154795543Y-123329805D01*
X154829762Y-123313849D01*
X154829767Y-123313846D01*
X154834749Y-123311523D01*
X154976458Y-123212297D01*
X155017789Y-123183357D01*
X155017792Y-123183355D01*
X155022300Y-123180198D01*
X155184198Y-123018300D01*
X155315523Y-122830749D01*
X155317846Y-122825767D01*
X155317849Y-122825762D01*
X155409961Y-122628225D01*
X155409961Y-122628224D01*
X155412284Y-122623243D01*
X155471543Y-122402087D01*
X155491498Y-122174000D01*
X155471543Y-121945913D01*
X155412284Y-121724757D01*
X155409961Y-121719775D01*
X155317849Y-121522238D01*
X155317846Y-121522233D01*
X155315523Y-121517251D01*
X155184198Y-121329700D01*
X155022300Y-121167802D01*
X155017792Y-121164645D01*
X155017789Y-121164643D01*
X154939611Y-121109902D01*
X154834749Y-121036477D01*
X154829767Y-121034154D01*
X154829762Y-121034151D01*
X154632225Y-120942039D01*
X154632224Y-120942039D01*
X154627243Y-120939716D01*
X154621935Y-120938294D01*
X154621933Y-120938293D01*
X154411402Y-120881881D01*
X154411400Y-120881881D01*
X154406087Y-120880457D01*
X154178000Y-120860502D01*
X153949913Y-120880457D01*
X153944600Y-120881881D01*
X153944598Y-120881881D01*
X153734067Y-120938293D01*
X153734065Y-120938294D01*
X153728757Y-120939716D01*
X153723776Y-120942039D01*
X153723775Y-120942039D01*
X153526238Y-121034151D01*
X153526233Y-121034154D01*
X153521251Y-121036477D01*
X153416389Y-121109902D01*
X153338211Y-121164643D01*
X153338208Y-121164645D01*
X153333700Y-121167802D01*
X153171802Y-121329700D01*
X153040477Y-121517251D01*
X153038154Y-121522233D01*
X153038151Y-121522238D01*
X152946039Y-121719775D01*
X152943716Y-121724757D01*
X152884457Y-121945913D01*
X152864502Y-122174000D01*
X152884457Y-122402087D01*
X152943716Y-122623243D01*
X152946039Y-122628224D01*
X152946039Y-122628225D01*
X153038151Y-122825762D01*
X153038154Y-122825767D01*
X153040477Y-122830749D01*
X153171802Y-123018300D01*
X153333700Y-123180198D01*
X153338208Y-123183355D01*
X153338211Y-123183357D01*
X153379542Y-123212297D01*
X153521251Y-123311523D01*
X153526233Y-123313846D01*
X153526238Y-123313849D01*
X153560457Y-123329805D01*
X153613742Y-123376722D01*
X153633203Y-123444999D01*
X153612661Y-123512959D01*
X153560457Y-123558195D01*
X153526238Y-123574151D01*
X153526233Y-123574154D01*
X153521251Y-123576477D01*
X153416389Y-123649902D01*
X153338211Y-123704643D01*
X153338208Y-123704645D01*
X153333700Y-123707802D01*
X153171802Y-123869700D01*
X153168645Y-123874208D01*
X153168643Y-123874211D01*
X153130440Y-123928771D01*
X153040477Y-124057251D01*
X153038154Y-124062233D01*
X153038151Y-124062238D01*
X152956445Y-124237459D01*
X152943716Y-124264757D01*
X152942294Y-124270065D01*
X152942293Y-124270067D01*
X152891400Y-124460000D01*
X152884457Y-124485913D01*
X152864502Y-124714000D01*
X152884457Y-124942087D01*
X152885881Y-124947400D01*
X152885881Y-124947402D01*
X152924820Y-125092721D01*
X152943716Y-125163243D01*
X152946039Y-125168224D01*
X152946039Y-125168225D01*
X153038151Y-125365762D01*
X153038154Y-125365767D01*
X153040477Y-125370749D01*
X153171802Y-125558300D01*
X153333700Y-125720198D01*
X153338208Y-125723355D01*
X153338211Y-125723357D01*
X153377758Y-125751048D01*
X153521251Y-125851523D01*
X153526231Y-125853845D01*
X153526238Y-125853849D01*
X153560457Y-125869805D01*
X153613742Y-125916722D01*
X153633203Y-125984999D01*
X153612661Y-126052959D01*
X153560457Y-126098195D01*
X153526238Y-126114151D01*
X153526233Y-126114154D01*
X153521251Y-126116477D01*
X153447669Y-126168000D01*
X153338211Y-126244643D01*
X153338208Y-126244645D01*
X153333700Y-126247802D01*
X153171802Y-126409700D01*
X153168645Y-126414208D01*
X153168643Y-126414211D01*
X153130440Y-126468771D01*
X153040477Y-126597251D01*
X153038154Y-126602233D01*
X153038151Y-126602238D01*
X152968053Y-126752565D01*
X152943716Y-126804757D01*
X152942294Y-126810065D01*
X152942293Y-126810067D01*
X152891400Y-127000000D01*
X152884457Y-127025913D01*
X152864502Y-127254000D01*
X152884457Y-127482087D01*
X152885881Y-127487400D01*
X152885881Y-127487402D01*
X152918315Y-127608444D01*
X152943716Y-127703243D01*
X152946039Y-127708224D01*
X152946039Y-127708225D01*
X153038151Y-127905762D01*
X153038154Y-127905767D01*
X153040477Y-127910749D01*
X153043634Y-127915257D01*
X153128575Y-128036565D01*
X153171802Y-128098300D01*
X153333700Y-128260198D01*
X153338208Y-128263355D01*
X153338211Y-128263357D01*
X153354408Y-128274698D01*
X153521251Y-128391523D01*
X153526233Y-128393846D01*
X153526238Y-128393849D01*
X153560457Y-128409805D01*
X153613742Y-128456722D01*
X153633203Y-128524999D01*
X153612661Y-128592959D01*
X153560457Y-128638195D01*
X153526238Y-128654151D01*
X153526233Y-128654154D01*
X153521251Y-128656477D01*
X153447669Y-128708000D01*
X153338211Y-128784643D01*
X153338208Y-128784645D01*
X153333700Y-128787802D01*
X153171802Y-128949700D01*
X153168645Y-128954208D01*
X153168643Y-128954211D01*
X153130440Y-129008771D01*
X153040477Y-129137251D01*
X153038154Y-129142233D01*
X153038151Y-129142238D01*
X152968053Y-129292565D01*
X152943716Y-129344757D01*
X152942294Y-129350065D01*
X152942293Y-129350067D01*
X152885881Y-129560598D01*
X152884457Y-129565913D01*
X152864502Y-129794000D01*
X152884457Y-130022087D01*
X152912539Y-130126888D01*
X152910849Y-130197865D01*
X152871055Y-130256661D01*
X152805791Y-130284609D01*
X152790832Y-130285500D01*
X150537595Y-130285500D01*
X150469474Y-130265498D01*
X150448500Y-130248595D01*
X150407152Y-130207247D01*
X150373126Y-130144935D01*
X150374540Y-130085541D01*
X150391543Y-130022087D01*
X150411498Y-129794000D01*
X150391543Y-129565913D01*
X150390119Y-129560598D01*
X150333707Y-129350067D01*
X150333706Y-129350065D01*
X150332284Y-129344757D01*
X150307947Y-129292565D01*
X150237849Y-129142238D01*
X150237846Y-129142233D01*
X150235523Y-129137251D01*
X150145560Y-129008771D01*
X150107357Y-128954211D01*
X150107355Y-128954208D01*
X150104198Y-128949700D01*
X149942300Y-128787802D01*
X149937792Y-128784645D01*
X149937789Y-128784643D01*
X149828331Y-128708000D01*
X149754749Y-128656477D01*
X149749767Y-128654154D01*
X149749762Y-128654151D01*
X149715543Y-128638195D01*
X149662258Y-128591278D01*
X149642797Y-128523001D01*
X149663339Y-128455041D01*
X149715543Y-128409805D01*
X149749762Y-128393849D01*
X149749767Y-128393846D01*
X149754749Y-128391523D01*
X149921592Y-128274698D01*
X149937789Y-128263357D01*
X149937792Y-128263355D01*
X149942300Y-128260198D01*
X150104198Y-128098300D01*
X150147426Y-128036565D01*
X150232366Y-127915257D01*
X150235523Y-127910749D01*
X150237846Y-127905767D01*
X150237849Y-127905762D01*
X150329961Y-127708225D01*
X150329961Y-127708224D01*
X150332284Y-127703243D01*
X150357686Y-127608444D01*
X150390119Y-127487402D01*
X150390119Y-127487400D01*
X150391543Y-127482087D01*
X150411498Y-127254000D01*
X150391543Y-127025913D01*
X150384600Y-127000000D01*
X150333707Y-126810067D01*
X150333706Y-126810065D01*
X150332284Y-126804757D01*
X150307947Y-126752565D01*
X150237849Y-126602238D01*
X150237846Y-126602233D01*
X150235523Y-126597251D01*
X150145560Y-126468771D01*
X150107357Y-126414211D01*
X150107355Y-126414208D01*
X150104198Y-126409700D01*
X149942300Y-126247802D01*
X149937792Y-126244645D01*
X149937789Y-126244643D01*
X149828331Y-126168000D01*
X149754749Y-126116477D01*
X149749767Y-126114154D01*
X149749762Y-126114151D01*
X149715543Y-126098195D01*
X149662258Y-126051278D01*
X149642797Y-125983001D01*
X149663339Y-125915041D01*
X149715543Y-125869805D01*
X149749762Y-125853849D01*
X149749769Y-125853845D01*
X149754749Y-125851523D01*
X149898242Y-125751048D01*
X149937789Y-125723357D01*
X149937792Y-125723355D01*
X149942300Y-125720198D01*
X150104198Y-125558300D01*
X150235523Y-125370749D01*
X150237846Y-125365767D01*
X150237849Y-125365762D01*
X150329961Y-125168225D01*
X150329961Y-125168224D01*
X150332284Y-125163243D01*
X150351181Y-125092721D01*
X150390119Y-124947402D01*
X150390119Y-124947400D01*
X150391543Y-124942087D01*
X150411498Y-124714000D01*
X150391543Y-124485913D01*
X150384600Y-124460000D01*
X150333707Y-124270067D01*
X150333706Y-124270065D01*
X150332284Y-124264757D01*
X150319555Y-124237459D01*
X150237849Y-124062238D01*
X150237846Y-124062233D01*
X150235523Y-124057251D01*
X150145560Y-123928771D01*
X150107357Y-123874211D01*
X150107355Y-123874208D01*
X150104198Y-123869700D01*
X149942300Y-123707802D01*
X149937789Y-123704643D01*
X149933576Y-123701108D01*
X149934527Y-123699974D01*
X149894529Y-123649929D01*
X149887224Y-123579310D01*
X149919258Y-123515951D01*
X149980462Y-123479970D01*
X149997517Y-123476918D01*
X150008316Y-123475745D01*
X150144705Y-123424615D01*
X150261261Y-123337261D01*
X150348615Y-123220705D01*
X150399745Y-123084316D01*
X150406500Y-123022134D01*
X150406500Y-121325866D01*
X150399745Y-121263684D01*
X150348615Y-121127295D01*
X150261261Y-121010739D01*
X150144705Y-120923385D01*
X150008316Y-120872255D01*
X149946134Y-120865500D01*
X148249866Y-120865500D01*
X148187684Y-120872255D01*
X148051295Y-120923385D01*
X147934739Y-121010739D01*
X147847385Y-121127295D01*
X147796255Y-121263684D01*
X147789500Y-121325866D01*
X147789500Y-123022134D01*
X147796255Y-123084316D01*
X147847385Y-123220705D01*
X147934739Y-123337261D01*
X148051295Y-123424615D01*
X148187684Y-123475745D01*
X148198474Y-123476917D01*
X148200606Y-123477803D01*
X148203222Y-123478425D01*
X148203121Y-123478848D01*
X148264035Y-123504155D01*
X148304463Y-123562517D01*
X148306922Y-123633471D01*
X148270629Y-123694490D01*
X148261969Y-123701489D01*
X148258207Y-123704646D01*
X148253700Y-123707802D01*
X148091802Y-123869700D01*
X148088645Y-123874208D01*
X148088643Y-123874211D01*
X148050440Y-123928771D01*
X147960477Y-124057251D01*
X147958154Y-124062233D01*
X147958151Y-124062238D01*
X147876445Y-124237459D01*
X147863716Y-124264757D01*
X147862294Y-124270065D01*
X147862293Y-124270067D01*
X147811400Y-124460000D01*
X147804457Y-124485913D01*
X147784502Y-124714000D01*
X147804457Y-124942087D01*
X147805881Y-124947400D01*
X147805881Y-124947402D01*
X147844820Y-125092721D01*
X147863716Y-125163243D01*
X147866039Y-125168224D01*
X147866039Y-125168225D01*
X147958151Y-125365762D01*
X147958154Y-125365767D01*
X147960477Y-125370749D01*
X148091802Y-125558300D01*
X148253700Y-125720198D01*
X148258208Y-125723355D01*
X148258211Y-125723357D01*
X148297758Y-125751048D01*
X148441251Y-125851523D01*
X148446231Y-125853845D01*
X148446238Y-125853849D01*
X148480457Y-125869805D01*
X148533742Y-125916722D01*
X148553203Y-125984999D01*
X148532661Y-126052959D01*
X148480457Y-126098195D01*
X148446238Y-126114151D01*
X148446233Y-126114154D01*
X148441251Y-126116477D01*
X148367669Y-126168000D01*
X148258211Y-126244643D01*
X148258208Y-126244645D01*
X148253700Y-126247802D01*
X148091802Y-126409700D01*
X148088645Y-126414208D01*
X148088643Y-126414211D01*
X148050440Y-126468771D01*
X147960477Y-126597251D01*
X147958154Y-126602233D01*
X147958151Y-126602238D01*
X147888053Y-126752565D01*
X147863716Y-126804757D01*
X147862294Y-126810065D01*
X147862293Y-126810067D01*
X147811400Y-127000000D01*
X147804457Y-127025913D01*
X147784502Y-127254000D01*
X147804457Y-127482087D01*
X147805881Y-127487400D01*
X147805881Y-127487402D01*
X147838315Y-127608444D01*
X147863716Y-127703243D01*
X147866039Y-127708224D01*
X147866039Y-127708225D01*
X147958151Y-127905762D01*
X147958154Y-127905767D01*
X147960477Y-127910749D01*
X147963634Y-127915257D01*
X148048575Y-128036565D01*
X148091802Y-128098300D01*
X148253700Y-128260198D01*
X148258208Y-128263355D01*
X148258211Y-128263357D01*
X148274408Y-128274698D01*
X148441251Y-128391523D01*
X148446233Y-128393846D01*
X148446238Y-128393849D01*
X148480457Y-128409805D01*
X148533742Y-128456722D01*
X148553203Y-128524999D01*
X148532661Y-128592959D01*
X148480457Y-128638195D01*
X148446238Y-128654151D01*
X148446233Y-128654154D01*
X148441251Y-128656477D01*
X148367669Y-128708000D01*
X148258211Y-128784643D01*
X148258208Y-128784645D01*
X148253700Y-128787802D01*
X148091802Y-128949700D01*
X148088645Y-128954208D01*
X148088643Y-128954211D01*
X148050440Y-129008771D01*
X147960477Y-129137251D01*
X147958154Y-129142233D01*
X147958151Y-129142238D01*
X147888053Y-129292565D01*
X147863716Y-129344757D01*
X147862294Y-129350065D01*
X147862293Y-129350067D01*
X147805881Y-129560598D01*
X147804457Y-129565913D01*
X147784502Y-129794000D01*
X147804457Y-130022087D01*
X147805880Y-130027398D01*
X147805881Y-130027402D01*
X147832539Y-130126888D01*
X147863716Y-130243243D01*
X147866039Y-130248224D01*
X147866039Y-130248225D01*
X147958151Y-130445762D01*
X147958154Y-130445767D01*
X147960477Y-130450749D01*
X148091802Y-130638300D01*
X148253700Y-130800198D01*
X148258208Y-130803355D01*
X148258211Y-130803357D01*
X148336389Y-130858098D01*
X148441251Y-130931523D01*
X148446233Y-130933846D01*
X148446238Y-130933849D01*
X148480457Y-130949805D01*
X148533742Y-130996722D01*
X148553203Y-131064999D01*
X148532661Y-131132959D01*
X148480457Y-131178195D01*
X148446238Y-131194151D01*
X148446233Y-131194154D01*
X148441251Y-131196477D01*
X148365358Y-131249618D01*
X148258211Y-131324643D01*
X148258208Y-131324645D01*
X148253700Y-131327802D01*
X148091802Y-131489700D01*
X148088645Y-131494208D01*
X148088643Y-131494211D01*
X148054563Y-131542882D01*
X147960477Y-131677251D01*
X147958154Y-131682233D01*
X147958151Y-131682238D01*
X147866039Y-131879775D01*
X147863716Y-131884757D01*
X147862294Y-131890065D01*
X147862293Y-131890067D01*
X147814979Y-132066644D01*
X147804457Y-132105913D01*
X147784502Y-132334000D01*
X147804457Y-132562087D01*
X147805881Y-132567400D01*
X147805881Y-132567402D01*
X147854392Y-132748444D01*
X147863716Y-132783243D01*
X147866039Y-132788224D01*
X147866039Y-132788225D01*
X147958152Y-132985762D01*
X147960477Y-132990749D01*
X147963629Y-132995251D01*
X147963899Y-132995718D01*
X147980637Y-133064713D01*
X147957417Y-133131805D01*
X147901609Y-133175692D01*
X147871619Y-133183119D01*
X147869996Y-133183119D01*
X147863544Y-133184491D01*
X147863539Y-133184491D01*
X147776595Y-133202972D01*
X147683195Y-133222825D01*
X147677165Y-133225510D01*
X147677164Y-133225510D01*
X147514761Y-133297816D01*
X147514759Y-133297817D01*
X147508731Y-133300501D01*
X147354230Y-133412753D01*
X147258063Y-133519558D01*
X147257401Y-133520293D01*
X147196955Y-133557533D01*
X147125972Y-133556181D01*
X147070129Y-133520293D01*
X146987248Y-133428244D01*
X146987247Y-133428243D01*
X146982826Y-133423333D01*
X146896840Y-133360860D01*
X146853486Y-133304637D01*
X146847411Y-133233901D01*
X146873746Y-133179252D01*
X146874698Y-133178300D01*
X147006023Y-132990749D01*
X147008346Y-132985767D01*
X147008349Y-132985762D01*
X147100461Y-132788225D01*
X147100461Y-132788224D01*
X147102784Y-132783243D01*
X147112109Y-132748444D01*
X147160619Y-132567402D01*
X147160619Y-132567400D01*
X147162043Y-132562087D01*
X147181998Y-132334000D01*
X147162043Y-132105913D01*
X147151521Y-132066644D01*
X147104207Y-131890067D01*
X147104206Y-131890065D01*
X147102784Y-131884757D01*
X147100461Y-131879775D01*
X147008349Y-131682238D01*
X147008346Y-131682233D01*
X147006023Y-131677251D01*
X146911937Y-131542882D01*
X146877857Y-131494211D01*
X146877855Y-131494208D01*
X146874698Y-131489700D01*
X146712800Y-131327802D01*
X146708292Y-131324645D01*
X146708289Y-131324643D01*
X146601142Y-131249618D01*
X146525249Y-131196477D01*
X146520267Y-131194154D01*
X146520262Y-131194151D01*
X146486043Y-131178195D01*
X146432758Y-131131278D01*
X146413297Y-131063001D01*
X146433839Y-130995041D01*
X146486043Y-130949805D01*
X146520262Y-130933849D01*
X146520267Y-130933846D01*
X146525249Y-130931523D01*
X146630111Y-130858098D01*
X146708289Y-130803357D01*
X146708292Y-130803355D01*
X146712800Y-130800198D01*
X146874698Y-130638300D01*
X147006023Y-130450749D01*
X147008346Y-130445767D01*
X147008349Y-130445762D01*
X147100461Y-130248225D01*
X147100461Y-130248224D01*
X147102784Y-130243243D01*
X147133962Y-130126888D01*
X147160619Y-130027402D01*
X147160620Y-130027398D01*
X147162043Y-130022087D01*
X147181998Y-129794000D01*
X147162043Y-129565913D01*
X147160619Y-129560598D01*
X147104207Y-129350067D01*
X147104206Y-129350065D01*
X147102784Y-129344757D01*
X147078447Y-129292565D01*
X147008349Y-129142238D01*
X147008346Y-129142233D01*
X147006023Y-129137251D01*
X146916060Y-129008771D01*
X146877857Y-128954211D01*
X146877855Y-128954208D01*
X146874698Y-128949700D01*
X146712800Y-128787802D01*
X146708292Y-128784645D01*
X146708289Y-128784643D01*
X146598831Y-128708000D01*
X146525249Y-128656477D01*
X146520267Y-128654154D01*
X146520262Y-128654151D01*
X146486043Y-128638195D01*
X146432758Y-128591278D01*
X146413297Y-128523001D01*
X146433839Y-128455041D01*
X146486043Y-128409805D01*
X146520262Y-128393849D01*
X146520267Y-128393846D01*
X146525249Y-128391523D01*
X146692092Y-128274698D01*
X146708289Y-128263357D01*
X146708292Y-128263355D01*
X146712800Y-128260198D01*
X146874698Y-128098300D01*
X146917926Y-128036565D01*
X147002866Y-127915257D01*
X147006023Y-127910749D01*
X147008346Y-127905767D01*
X147008349Y-127905762D01*
X147100461Y-127708225D01*
X147100461Y-127708224D01*
X147102784Y-127703243D01*
X147128186Y-127608444D01*
X147160619Y-127487402D01*
X147160619Y-127487400D01*
X147162043Y-127482087D01*
X147181998Y-127254000D01*
X147162043Y-127025913D01*
X147155100Y-127000000D01*
X147104207Y-126810067D01*
X147104206Y-126810065D01*
X147102784Y-126804757D01*
X147078447Y-126752565D01*
X147008349Y-126602238D01*
X147008346Y-126602233D01*
X147006023Y-126597251D01*
X146916060Y-126468771D01*
X146877857Y-126414211D01*
X146877855Y-126414208D01*
X146874698Y-126409700D01*
X146712800Y-126247802D01*
X146708292Y-126244645D01*
X146708289Y-126244643D01*
X146598831Y-126168000D01*
X146525249Y-126116477D01*
X146520267Y-126114154D01*
X146520262Y-126114151D01*
X146486043Y-126098195D01*
X146432758Y-126051278D01*
X146413297Y-125983001D01*
X146433839Y-125915041D01*
X146486043Y-125869805D01*
X146520262Y-125853849D01*
X146520269Y-125853845D01*
X146525249Y-125851523D01*
X146668742Y-125751048D01*
X146708289Y-125723357D01*
X146708292Y-125723355D01*
X146712800Y-125720198D01*
X146874698Y-125558300D01*
X147006023Y-125370749D01*
X147008346Y-125365767D01*
X147008349Y-125365762D01*
X147100461Y-125168225D01*
X147100461Y-125168224D01*
X147102784Y-125163243D01*
X147121681Y-125092721D01*
X147160619Y-124947402D01*
X147160619Y-124947400D01*
X147162043Y-124942087D01*
X147181998Y-124714000D01*
X147162043Y-124485913D01*
X147155100Y-124460000D01*
X147104207Y-124270067D01*
X147104206Y-124270065D01*
X147102784Y-124264757D01*
X147090055Y-124237459D01*
X147008349Y-124062238D01*
X147008346Y-124062233D01*
X147006023Y-124057251D01*
X146916060Y-123928771D01*
X146877857Y-123874211D01*
X146877855Y-123874208D01*
X146874698Y-123869700D01*
X146712800Y-123707802D01*
X146708292Y-123704645D01*
X146708289Y-123704643D01*
X146630111Y-123649902D01*
X146525249Y-123576477D01*
X146520267Y-123574154D01*
X146520262Y-123574151D01*
X146486043Y-123558195D01*
X146432758Y-123511278D01*
X146413297Y-123443001D01*
X146433839Y-123375041D01*
X146486043Y-123329805D01*
X146520262Y-123313849D01*
X146520267Y-123313846D01*
X146525249Y-123311523D01*
X146666958Y-123212297D01*
X146708289Y-123183357D01*
X146708292Y-123183355D01*
X146712800Y-123180198D01*
X146874698Y-123018300D01*
X147006023Y-122830749D01*
X147008346Y-122825767D01*
X147008349Y-122825762D01*
X147100461Y-122628225D01*
X147100461Y-122628224D01*
X147102784Y-122623243D01*
X147162043Y-122402087D01*
X147181998Y-122174000D01*
X147162043Y-121945913D01*
X147102784Y-121724757D01*
X147100461Y-121719775D01*
X147008349Y-121522238D01*
X147008346Y-121522233D01*
X147006023Y-121517251D01*
X146874698Y-121329700D01*
X146712800Y-121167802D01*
X146708292Y-121164645D01*
X146708289Y-121164643D01*
X146630111Y-121109902D01*
X146525249Y-121036477D01*
X146520267Y-121034154D01*
X146520262Y-121034151D01*
X146322725Y-120942039D01*
X146322724Y-120942039D01*
X146317743Y-120939716D01*
X146312435Y-120938294D01*
X146312433Y-120938293D01*
X146101902Y-120881881D01*
X146101900Y-120881881D01*
X146096587Y-120880457D01*
X145868500Y-120860502D01*
X145640413Y-120880457D01*
X145635100Y-120881881D01*
X145635098Y-120881881D01*
X145424567Y-120938293D01*
X145424565Y-120938294D01*
X145419257Y-120939716D01*
X145414276Y-120942039D01*
X145414275Y-120942039D01*
X145216738Y-121034151D01*
X145216733Y-121034154D01*
X145211751Y-121036477D01*
X145106889Y-121109902D01*
X145028711Y-121164643D01*
X145028708Y-121164645D01*
X145024200Y-121167802D01*
X144862302Y-121329700D01*
X144730977Y-121517251D01*
X144728654Y-121522233D01*
X144728651Y-121522238D01*
X144636539Y-121719775D01*
X144634216Y-121724757D01*
X144574957Y-121945913D01*
X144555002Y-122174000D01*
X144574957Y-122402087D01*
X144634216Y-122623243D01*
X144636539Y-122628224D01*
X144636539Y-122628225D01*
X144728651Y-122825762D01*
X144728654Y-122825767D01*
X144730977Y-122830749D01*
X144862302Y-123018300D01*
X145024200Y-123180198D01*
X145028708Y-123183355D01*
X145028711Y-123183357D01*
X145070042Y-123212297D01*
X145211751Y-123311523D01*
X145216733Y-123313846D01*
X145216738Y-123313849D01*
X145250957Y-123329805D01*
X145304242Y-123376722D01*
X145323703Y-123444999D01*
X145303161Y-123512959D01*
X145250957Y-123558195D01*
X145216738Y-123574151D01*
X145216733Y-123574154D01*
X145211751Y-123576477D01*
X145106889Y-123649902D01*
X145028711Y-123704643D01*
X145028708Y-123704645D01*
X145024200Y-123707802D01*
X144862302Y-123869700D01*
X144859145Y-123874208D01*
X144859143Y-123874211D01*
X144820940Y-123928771D01*
X144730977Y-124057251D01*
X144728654Y-124062233D01*
X144728651Y-124062238D01*
X144646945Y-124237459D01*
X144634216Y-124264757D01*
X144632794Y-124270065D01*
X144632793Y-124270067D01*
X144581900Y-124460000D01*
X144574957Y-124485913D01*
X144555002Y-124714000D01*
X144574957Y-124942087D01*
X144576381Y-124947400D01*
X144576381Y-124947402D01*
X144615320Y-125092721D01*
X144634216Y-125163243D01*
X144636539Y-125168224D01*
X144636539Y-125168225D01*
X144728651Y-125365762D01*
X144728654Y-125365767D01*
X144730977Y-125370749D01*
X144862302Y-125558300D01*
X145024200Y-125720198D01*
X145028708Y-125723355D01*
X145028711Y-125723357D01*
X145068258Y-125751048D01*
X145211751Y-125851523D01*
X145216731Y-125853845D01*
X145216738Y-125853849D01*
X145250957Y-125869805D01*
X145304242Y-125916722D01*
X145323703Y-125984999D01*
X145303161Y-126052959D01*
X145250957Y-126098195D01*
X145216738Y-126114151D01*
X145216733Y-126114154D01*
X145211751Y-126116477D01*
X145138169Y-126168000D01*
X145028711Y-126244643D01*
X145028708Y-126244645D01*
X145024200Y-126247802D01*
X144862302Y-126409700D01*
X144859145Y-126414208D01*
X144859143Y-126414211D01*
X144820940Y-126468771D01*
X144730977Y-126597251D01*
X144728654Y-126602233D01*
X144728651Y-126602238D01*
X144658553Y-126752565D01*
X144634216Y-126804757D01*
X144632794Y-126810065D01*
X144632793Y-126810067D01*
X144581900Y-127000000D01*
X144574957Y-127025913D01*
X144555002Y-127254000D01*
X144574957Y-127482087D01*
X144576381Y-127487400D01*
X144576381Y-127487402D01*
X144608815Y-127608444D01*
X144634216Y-127703243D01*
X144636539Y-127708224D01*
X144636539Y-127708225D01*
X144728651Y-127905762D01*
X144728654Y-127905767D01*
X144730977Y-127910749D01*
X144734134Y-127915257D01*
X144819075Y-128036565D01*
X144862302Y-128098300D01*
X145024200Y-128260198D01*
X145028708Y-128263355D01*
X145028711Y-128263357D01*
X145044908Y-128274698D01*
X145211751Y-128391523D01*
X145216733Y-128393846D01*
X145216738Y-128393849D01*
X145250957Y-128409805D01*
X145304242Y-128456722D01*
X145323703Y-128524999D01*
X145303161Y-128592959D01*
X145250957Y-128638195D01*
X145216738Y-128654151D01*
X145216733Y-128654154D01*
X145211751Y-128656477D01*
X145138169Y-128708000D01*
X145028711Y-128784643D01*
X145028708Y-128784645D01*
X145024200Y-128787802D01*
X144862302Y-128949700D01*
X144859145Y-128954208D01*
X144859143Y-128954211D01*
X144820940Y-129008771D01*
X144730977Y-129137251D01*
X144728654Y-129142233D01*
X144728651Y-129142238D01*
X144658553Y-129292565D01*
X144634216Y-129344757D01*
X144632794Y-129350065D01*
X144632793Y-129350067D01*
X144576381Y-129560598D01*
X144574957Y-129565913D01*
X144555002Y-129794000D01*
X144574957Y-130022087D01*
X144576380Y-130027398D01*
X144576381Y-130027402D01*
X144603039Y-130126888D01*
X144634216Y-130243243D01*
X144636539Y-130248224D01*
X144636539Y-130248225D01*
X144728651Y-130445762D01*
X144728654Y-130445767D01*
X144730977Y-130450749D01*
X144862302Y-130638300D01*
X145024200Y-130800198D01*
X145028708Y-130803355D01*
X145028711Y-130803357D01*
X145106889Y-130858098D01*
X145211751Y-130931523D01*
X145216733Y-130933846D01*
X145216738Y-130933849D01*
X145250957Y-130949805D01*
X145304242Y-130996722D01*
X145323703Y-131064999D01*
X145303161Y-131132959D01*
X145250957Y-131178195D01*
X145216738Y-131194151D01*
X145216733Y-131194154D01*
X145211751Y-131196477D01*
X145135858Y-131249618D01*
X145028711Y-131324643D01*
X145028708Y-131324645D01*
X145024200Y-131327802D01*
X144862302Y-131489700D01*
X144859145Y-131494208D01*
X144859143Y-131494211D01*
X144825063Y-131542882D01*
X144730977Y-131677251D01*
X144728654Y-131682233D01*
X144728651Y-131682238D01*
X144636539Y-131879775D01*
X144634216Y-131884757D01*
X144632794Y-131890065D01*
X144632793Y-131890067D01*
X144585479Y-132066644D01*
X144574957Y-132105913D01*
X144555002Y-132334000D01*
X144574957Y-132562087D01*
X144576381Y-132567400D01*
X144576381Y-132567402D01*
X144624892Y-132748444D01*
X144634216Y-132783243D01*
X144636539Y-132788224D01*
X144636539Y-132788225D01*
X144728651Y-132985762D01*
X144728654Y-132985767D01*
X144730977Y-132990749D01*
X144782767Y-133064713D01*
X144859075Y-133173691D01*
X144862302Y-133178300D01*
X145024200Y-133340198D01*
X145028708Y-133343355D01*
X145028711Y-133343357D01*
X145053708Y-133360860D01*
X145211751Y-133471523D01*
X145216733Y-133473846D01*
X145216738Y-133473849D01*
X145396201Y-133557533D01*
X145419257Y-133568284D01*
X145447891Y-133575956D01*
X145508512Y-133612908D01*
X145539534Y-133676769D01*
X145535111Y-133736598D01*
X145529944Y-133752500D01*
X145514369Y-133800436D01*
X145474295Y-133859042D01*
X145408899Y-133886679D01*
X145394536Y-133887500D01*
X145250866Y-133887500D01*
X145188684Y-133894255D01*
X145188420Y-133891826D01*
X145159580Y-133891826D01*
X145159316Y-133894255D01*
X145100531Y-133887869D01*
X145097134Y-133887500D01*
X145093718Y-133887500D01*
X145090320Y-133887316D01*
X145090416Y-133885543D01*
X145028960Y-133867498D01*
X145023020Y-133863436D01*
X145022094Y-133862763D01*
X145022093Y-133862762D01*
X145016752Y-133858882D01*
X145010724Y-133856198D01*
X145010722Y-133856197D01*
X144848319Y-133783891D01*
X144848318Y-133783891D01*
X144842288Y-133781206D01*
X144748888Y-133761353D01*
X144661944Y-133742872D01*
X144661939Y-133742872D01*
X144655487Y-133741500D01*
X144464513Y-133741500D01*
X144458061Y-133742872D01*
X144458056Y-133742872D01*
X144371112Y-133761353D01*
X144277712Y-133781206D01*
X144271682Y-133783891D01*
X144271681Y-133783891D01*
X144109278Y-133856197D01*
X144109276Y-133856198D01*
X144103248Y-133858882D01*
X144097907Y-133862762D01*
X144097906Y-133862763D01*
X144066552Y-133885543D01*
X143948747Y-133971134D01*
X143944326Y-133976044D01*
X143944325Y-133976045D01*
X143877793Y-134049937D01*
X143820960Y-134113056D01*
X143725473Y-134278444D01*
X143666458Y-134460072D01*
X143665768Y-134466633D01*
X143665768Y-134466635D01*
X143663866Y-134484729D01*
X143646496Y-134650000D01*
X143666458Y-134839928D01*
X143725473Y-135021556D01*
X143820960Y-135186944D01*
X143825378Y-135191851D01*
X143825379Y-135191852D01*
X143943843Y-135323419D01*
X143948747Y-135328866D01*
X143949835Y-135329657D01*
X143986050Y-135388441D01*
X143990500Y-135421630D01*
X143990500Y-135736500D01*
X143970498Y-135804621D01*
X143916842Y-135851114D01*
X143864500Y-135862500D01*
X143440720Y-135862500D01*
X143372599Y-135842498D01*
X143366659Y-135838436D01*
X143292094Y-135784261D01*
X143292093Y-135784260D01*
X143286752Y-135780380D01*
X143280724Y-135777696D01*
X143280722Y-135777695D01*
X143118319Y-135705389D01*
X143118318Y-135705389D01*
X143112288Y-135702704D01*
X143018888Y-135682851D01*
X142931944Y-135664370D01*
X142931939Y-135664370D01*
X142925487Y-135662998D01*
X142734513Y-135662998D01*
X142728061Y-135664370D01*
X142728056Y-135664370D01*
X142641112Y-135682851D01*
X142547712Y-135702704D01*
X142541682Y-135705389D01*
X142541681Y-135705389D01*
X142379278Y-135777695D01*
X142379276Y-135777696D01*
X142373248Y-135780380D01*
X142218747Y-135892632D01*
X142214326Y-135897542D01*
X142214325Y-135897543D01*
X142102716Y-136021498D01*
X142090960Y-136034554D01*
X141995473Y-136199942D01*
X141993432Y-136206224D01*
X141993431Y-136206226D01*
X141985000Y-136232175D01*
X141944927Y-136290781D01*
X141879530Y-136318418D01*
X141809574Y-136306311D01*
X141775201Y-136280324D01*
X141775079Y-136280459D01*
X141773508Y-136279044D01*
X141771533Y-136277552D01*
X141765755Y-136271134D01*
X141611254Y-136158882D01*
X141605226Y-136156198D01*
X141605224Y-136156197D01*
X141442821Y-136083891D01*
X141442820Y-136083891D01*
X141436790Y-136081206D01*
X141343389Y-136061353D01*
X141256446Y-136042872D01*
X141256441Y-136042872D01*
X141249989Y-136041500D01*
X141149252Y-136041500D01*
X141081131Y-136021498D01*
X141034638Y-135967842D01*
X141031270Y-135959729D01*
X141008768Y-135899705D01*
X141008767Y-135899703D01*
X141005615Y-135891295D01*
X140982488Y-135860437D01*
X140957640Y-135793931D01*
X140972693Y-135724549D01*
X141022867Y-135674318D01*
X141092232Y-135659188D01*
X141118467Y-135663875D01*
X141188541Y-135684233D01*
X141241534Y-135699629D01*
X141247941Y-135700133D01*
X141247945Y-135700134D01*
X141275556Y-135702307D01*
X141275562Y-135702307D01*
X141278011Y-135702500D01*
X141477878Y-135702500D01*
X141677988Y-135702499D01*
X141714466Y-135699629D01*
X141811270Y-135671505D01*
X141862983Y-135656481D01*
X141862985Y-135656480D01*
X141870596Y-135654269D01*
X141902499Y-135635402D01*
X142003720Y-135575540D01*
X142010541Y-135571506D01*
X142125506Y-135456541D01*
X142157849Y-135401852D01*
X142204234Y-135323419D01*
X142204234Y-135323418D01*
X142208269Y-135316596D01*
X142253629Y-135160466D01*
X142256500Y-135123989D01*
X142256499Y-134624012D01*
X142253629Y-134587534D01*
X142208269Y-134431404D01*
X142155585Y-134342319D01*
X142138126Y-134273504D01*
X142140742Y-134252391D01*
X142142679Y-134246430D01*
X142162641Y-134056502D01*
X142155280Y-133986462D01*
X142143369Y-133873137D01*
X142143369Y-133873135D01*
X142142679Y-133866574D01*
X142083664Y-133684946D01*
X141988177Y-133519558D01*
X141947021Y-133473849D01*
X141864812Y-133382547D01*
X141864811Y-133382546D01*
X141860390Y-133377636D01*
X141824509Y-133351567D01*
X141781155Y-133295345D01*
X141775080Y-133224609D01*
X141795357Y-133177361D01*
X141922863Y-132995263D01*
X141922867Y-132995257D01*
X141926023Y-132990749D01*
X141928346Y-132985767D01*
X141928349Y-132985762D01*
X142020461Y-132788225D01*
X142020461Y-132788224D01*
X142022784Y-132783243D01*
X142032109Y-132748444D01*
X142080619Y-132567402D01*
X142080619Y-132567400D01*
X142082043Y-132562087D01*
X142101998Y-132334000D01*
X142082043Y-132105913D01*
X142071521Y-132066644D01*
X142024207Y-131890067D01*
X142024206Y-131890065D01*
X142022784Y-131884757D01*
X142020461Y-131879775D01*
X141928349Y-131682238D01*
X141928346Y-131682233D01*
X141926023Y-131677251D01*
X141831937Y-131542882D01*
X141797857Y-131494211D01*
X141797855Y-131494208D01*
X141794698Y-131489700D01*
X141632800Y-131327802D01*
X141628292Y-131324645D01*
X141628289Y-131324643D01*
X141521142Y-131249618D01*
X141445249Y-131196477D01*
X141440267Y-131194154D01*
X141440262Y-131194151D01*
X141406043Y-131178195D01*
X141352758Y-131131278D01*
X141333297Y-131063001D01*
X141353839Y-130995041D01*
X141406043Y-130949805D01*
X141440262Y-130933849D01*
X141440267Y-130933846D01*
X141445249Y-130931523D01*
X141550111Y-130858098D01*
X141628289Y-130803357D01*
X141628292Y-130803355D01*
X141632800Y-130800198D01*
X141794698Y-130638300D01*
X141926023Y-130450749D01*
X141928346Y-130445767D01*
X141928349Y-130445762D01*
X142020461Y-130248225D01*
X142020461Y-130248224D01*
X142022784Y-130243243D01*
X142053962Y-130126888D01*
X142080619Y-130027402D01*
X142080620Y-130027398D01*
X142082043Y-130022087D01*
X142101998Y-129794000D01*
X142082043Y-129565913D01*
X142080619Y-129560598D01*
X142024207Y-129350067D01*
X142024206Y-129350065D01*
X142022784Y-129344757D01*
X141998447Y-129292565D01*
X141928349Y-129142238D01*
X141928346Y-129142233D01*
X141926023Y-129137251D01*
X141836060Y-129008771D01*
X141797857Y-128954211D01*
X141797855Y-128954208D01*
X141794698Y-128949700D01*
X141632800Y-128787802D01*
X141628292Y-128784645D01*
X141628289Y-128784643D01*
X141518831Y-128708000D01*
X141445249Y-128656477D01*
X141440267Y-128654154D01*
X141440262Y-128654151D01*
X141406043Y-128638195D01*
X141352758Y-128591278D01*
X141333297Y-128523001D01*
X141353839Y-128455041D01*
X141406043Y-128409805D01*
X141440262Y-128393849D01*
X141440267Y-128393846D01*
X141445249Y-128391523D01*
X141612092Y-128274698D01*
X141628289Y-128263357D01*
X141628292Y-128263355D01*
X141632800Y-128260198D01*
X141794698Y-128098300D01*
X141837926Y-128036565D01*
X141922866Y-127915257D01*
X141926023Y-127910749D01*
X141928346Y-127905767D01*
X141928349Y-127905762D01*
X142020461Y-127708225D01*
X142020461Y-127708224D01*
X142022784Y-127703243D01*
X142048186Y-127608444D01*
X142080619Y-127487402D01*
X142080619Y-127487400D01*
X142082043Y-127482087D01*
X142101998Y-127254000D01*
X142082043Y-127025913D01*
X142075100Y-127000000D01*
X142024207Y-126810067D01*
X142024206Y-126810065D01*
X142022784Y-126804757D01*
X141998447Y-126752565D01*
X141928349Y-126602238D01*
X141928346Y-126602233D01*
X141926023Y-126597251D01*
X141836060Y-126468771D01*
X141797857Y-126414211D01*
X141797855Y-126414208D01*
X141794698Y-126409700D01*
X141632800Y-126247802D01*
X141628292Y-126244645D01*
X141628289Y-126244643D01*
X141518831Y-126168000D01*
X141445249Y-126116477D01*
X141440267Y-126114154D01*
X141440262Y-126114151D01*
X141406043Y-126098195D01*
X141352758Y-126051278D01*
X141333297Y-125983001D01*
X141353839Y-125915041D01*
X141406043Y-125869805D01*
X141440262Y-125853849D01*
X141440269Y-125853845D01*
X141445249Y-125851523D01*
X141588742Y-125751048D01*
X141628289Y-125723357D01*
X141628292Y-125723355D01*
X141632800Y-125720198D01*
X141794698Y-125558300D01*
X141926023Y-125370749D01*
X141928346Y-125365767D01*
X141928349Y-125365762D01*
X142020461Y-125168225D01*
X142020461Y-125168224D01*
X142022784Y-125163243D01*
X142041681Y-125092721D01*
X142080619Y-124947402D01*
X142080619Y-124947400D01*
X142082043Y-124942087D01*
X142101998Y-124714000D01*
X142082043Y-124485913D01*
X142075100Y-124460000D01*
X142024207Y-124270067D01*
X142024206Y-124270065D01*
X142022784Y-124264757D01*
X142010055Y-124237459D01*
X141928349Y-124062238D01*
X141928346Y-124062233D01*
X141926023Y-124057251D01*
X141836060Y-123928771D01*
X141797857Y-123874211D01*
X141797855Y-123874208D01*
X141794698Y-123869700D01*
X141632800Y-123707802D01*
X141628289Y-123704643D01*
X141624076Y-123701108D01*
X141625027Y-123699974D01*
X141585029Y-123649929D01*
X141577724Y-123579310D01*
X141609758Y-123515951D01*
X141670962Y-123479970D01*
X141688017Y-123476918D01*
X141698816Y-123475745D01*
X141835205Y-123424615D01*
X141951761Y-123337261D01*
X142039115Y-123220705D01*
X142090245Y-123084316D01*
X142097000Y-123022134D01*
X142097000Y-121325866D01*
X142090245Y-121263684D01*
X142039115Y-121127295D01*
X141951761Y-121010739D01*
X141835205Y-120923385D01*
X141698816Y-120872255D01*
X141636634Y-120865500D01*
X139940366Y-120865500D01*
X139878184Y-120872255D01*
X139741795Y-120923385D01*
X139625239Y-121010739D01*
X139537885Y-121127295D01*
X139486755Y-121263684D01*
X139480000Y-121325866D01*
X139480000Y-123022134D01*
X139486755Y-123084316D01*
X139537885Y-123220705D01*
X139625239Y-123337261D01*
X139741795Y-123424615D01*
X139878184Y-123475745D01*
X139888974Y-123476917D01*
X139891106Y-123477803D01*
X139893722Y-123478425D01*
X139893621Y-123478848D01*
X139954535Y-123504155D01*
X139994963Y-123562517D01*
X139997422Y-123633471D01*
X139961129Y-123694490D01*
X139952469Y-123701489D01*
X139948707Y-123704646D01*
X139944200Y-123707802D01*
X139782302Y-123869700D01*
X139779145Y-123874208D01*
X139779143Y-123874211D01*
X139681955Y-124013010D01*
X139626498Y-124057338D01*
X139555878Y-124064647D01*
X139492518Y-124032616D01*
X139469623Y-124003740D01*
X139436173Y-123945803D01*
X139423040Y-123923056D01*
X139396160Y-123893202D01*
X139299675Y-123786045D01*
X139299674Y-123786044D01*
X139295253Y-123781134D01*
X139140752Y-123668882D01*
X139134724Y-123666198D01*
X139134722Y-123666197D01*
X138972319Y-123593891D01*
X138972318Y-123593891D01*
X138966288Y-123591206D01*
X138872888Y-123571353D01*
X138785944Y-123552872D01*
X138785939Y-123552872D01*
X138779487Y-123551500D01*
X138588513Y-123551500D01*
X138582061Y-123552872D01*
X138582056Y-123552872D01*
X138495112Y-123571353D01*
X138401712Y-123591206D01*
X138227248Y-123668882D01*
X138156882Y-123678316D01*
X138124753Y-123668882D01*
X138124752Y-123668882D01*
X137950288Y-123591206D01*
X137856888Y-123571353D01*
X137769944Y-123552872D01*
X137769939Y-123552872D01*
X137763487Y-123551500D01*
X137572513Y-123551500D01*
X137566061Y-123552872D01*
X137566056Y-123552872D01*
X137479112Y-123571353D01*
X137385712Y-123591206D01*
X137379682Y-123593891D01*
X137379681Y-123593891D01*
X137217278Y-123666197D01*
X137217276Y-123666198D01*
X137211248Y-123668882D01*
X137056747Y-123781134D01*
X137052326Y-123786044D01*
X137052325Y-123786045D01*
X136955841Y-123893202D01*
X136928960Y-123923056D01*
X136915827Y-123945803D01*
X136859150Y-124043971D01*
X136833473Y-124088444D01*
X136774458Y-124270072D01*
X136754496Y-124460000D01*
X136774458Y-124649928D01*
X136833473Y-124831556D01*
X136836776Y-124837278D01*
X136836777Y-124837279D01*
X136875144Y-124903732D01*
X136891882Y-124972727D01*
X136875144Y-125029732D01*
X136835473Y-125098444D01*
X136776458Y-125280072D01*
X136775768Y-125286633D01*
X136775768Y-125286635D01*
X136766454Y-125375257D01*
X136756496Y-125470000D01*
X136757186Y-125476565D01*
X136770657Y-125604730D01*
X136776458Y-125659928D01*
X136835473Y-125841556D01*
X136838776Y-125847278D01*
X136838777Y-125847279D01*
X136870219Y-125901737D01*
X136930960Y-126006944D01*
X136935378Y-126011851D01*
X136935379Y-126011852D01*
X137058747Y-126148866D01*
X137056740Y-126150673D01*
X137087690Y-126200922D01*
X137086332Y-126271906D01*
X137055442Y-126319959D01*
X137056747Y-126321134D01*
X137008747Y-126374444D01*
X136928960Y-126463056D01*
X136925659Y-126468774D01*
X136859150Y-126583971D01*
X136833473Y-126628444D01*
X136774458Y-126810072D01*
X136754496Y-127000000D01*
X136774458Y-127189928D01*
X136833473Y-127371556D01*
X136885919Y-127462394D01*
X136902656Y-127531386D01*
X136885919Y-127588390D01*
X136845473Y-127658444D01*
X136786458Y-127840072D01*
X136766496Y-128030000D01*
X136767186Y-128036565D01*
X136773675Y-128098300D01*
X136786458Y-128219928D01*
X136845473Y-128401556D01*
X136848776Y-128407278D01*
X136848777Y-128407279D01*
X136850375Y-128410046D01*
X136940960Y-128566944D01*
X136945378Y-128571851D01*
X136945379Y-128571852D01*
X137055385Y-128694026D01*
X137086103Y-128758033D01*
X137077338Y-128828487D01*
X137055385Y-128862646D01*
X136977002Y-128949700D01*
X136928960Y-129003056D01*
X136925659Y-129008774D01*
X136859150Y-129123971D01*
X136833473Y-129168444D01*
X136774458Y-129350072D01*
X136773768Y-129356633D01*
X136773768Y-129356635D01*
X136768855Y-129403382D01*
X136754496Y-129540000D01*
X136755186Y-129546565D01*
X136773329Y-129719183D01*
X136774458Y-129729928D01*
X136833473Y-129911556D01*
X136836776Y-129917278D01*
X136836777Y-129917279D01*
X136897622Y-130022665D01*
X136914360Y-130091660D01*
X136896956Y-130149805D01*
X136893407Y-130155807D01*
X136887731Y-130165404D01*
X136842371Y-130321534D01*
X136839500Y-130358011D01*
X136839501Y-130757988D01*
X136842371Y-130794466D01*
X136844168Y-130800650D01*
X136882866Y-130933849D01*
X136887731Y-130950596D01*
X136891766Y-130957418D01*
X136891766Y-130957419D01*
X136962436Y-131076915D01*
X136970494Y-131090541D01*
X137085459Y-131205506D01*
X137225404Y-131288269D01*
X137233016Y-131290481D01*
X137240290Y-131293628D01*
X137239692Y-131295009D01*
X137292089Y-131328471D01*
X137321768Y-131392966D01*
X137311865Y-131463269D01*
X137265527Y-131517058D01*
X137248350Y-131526363D01*
X137217281Y-131540195D01*
X137217274Y-131540199D01*
X137211248Y-131542882D01*
X137205907Y-131546762D01*
X137205906Y-131546763D01*
X137190593Y-131557889D01*
X137056747Y-131655134D01*
X137052326Y-131660044D01*
X137052325Y-131660045D01*
X136942977Y-131781489D01*
X136928960Y-131797056D01*
X136833473Y-131962444D01*
X136774458Y-132144072D01*
X136773768Y-132150633D01*
X136773768Y-132150635D01*
X136766118Y-132223419D01*
X136754496Y-132334000D01*
X136755186Y-132340565D01*
X136766836Y-132451404D01*
X136774458Y-132523928D01*
X136833473Y-132705556D01*
X136836776Y-132711278D01*
X136836777Y-132711279D01*
X136897622Y-132816665D01*
X136914360Y-132885660D01*
X136896956Y-132943805D01*
X136887731Y-132959404D01*
X136885520Y-132967015D01*
X136885519Y-132967017D01*
X136878624Y-132990749D01*
X136842371Y-133115534D01*
X136841867Y-133121941D01*
X136841866Y-133121945D01*
X136839693Y-133149556D01*
X136839500Y-133152011D01*
X136839501Y-133551988D01*
X136842371Y-133588466D01*
X136862266Y-133656944D01*
X136885408Y-133736599D01*
X136887731Y-133744596D01*
X136891766Y-133751418D01*
X136891766Y-133751419D01*
X136959615Y-133866146D01*
X136970494Y-133884541D01*
X137085459Y-133999506D01*
X137225404Y-134082269D01*
X137255075Y-134090889D01*
X137293979Y-134109948D01*
X137302403Y-134116068D01*
X137302406Y-134116070D01*
X137307748Y-134119951D01*
X137313776Y-134122635D01*
X137313778Y-134122636D01*
X137474382Y-134194141D01*
X137482212Y-134197627D01*
X137575612Y-134217480D01*
X137662556Y-134235961D01*
X137662561Y-134235961D01*
X137669013Y-134237333D01*
X137859987Y-134237333D01*
X137866439Y-134235961D01*
X137866444Y-134235961D01*
X137953388Y-134217480D01*
X138046788Y-134197627D01*
X138054618Y-134194141D01*
X138215224Y-134122635D01*
X138215225Y-134122634D01*
X138221252Y-134119951D01*
X138224767Y-134117397D01*
X138292950Y-134100856D01*
X138322107Y-134105716D01*
X138391353Y-134125834D01*
X138391360Y-134125835D01*
X138397534Y-134127629D01*
X138403941Y-134128133D01*
X138403945Y-134128134D01*
X138431556Y-134130307D01*
X138431562Y-134130307D01*
X138434011Y-134130500D01*
X138626760Y-134130500D01*
X138678006Y-134141392D01*
X138707301Y-134154435D01*
X138748929Y-134163283D01*
X138887645Y-134192769D01*
X138887650Y-134192769D01*
X138894102Y-134194141D01*
X139085076Y-134194141D01*
X139091528Y-134192769D01*
X139091533Y-134192769D01*
X139178476Y-134174288D01*
X139271877Y-134154435D01*
X139301170Y-134141393D01*
X139440311Y-134079444D01*
X139440313Y-134079443D01*
X139446341Y-134076759D01*
X139460879Y-134066197D01*
X139501746Y-134036505D01*
X139600842Y-133964507D01*
X139605264Y-133959596D01*
X139724210Y-133827493D01*
X139724211Y-133827492D01*
X139728629Y-133822585D01*
X139793567Y-133710109D01*
X139820812Y-133662920D01*
X139820813Y-133662919D01*
X139824116Y-133657197D01*
X139877663Y-133492396D01*
X139917737Y-133433792D01*
X139983133Y-133406155D01*
X140053090Y-133418262D01*
X140069765Y-133428120D01*
X140131751Y-133471523D01*
X140136733Y-133473846D01*
X140136738Y-133473849D01*
X140336583Y-133567037D01*
X140389868Y-133613954D01*
X140409329Y-133682231D01*
X140403167Y-133720164D01*
X140355595Y-133866574D01*
X140354905Y-133873137D01*
X140354351Y-133875745D01*
X140320621Y-133938217D01*
X140257302Y-133972791D01*
X140217712Y-133981206D01*
X140211682Y-133983891D01*
X140211681Y-133983891D01*
X140049278Y-134056197D01*
X140049276Y-134056198D01*
X140043248Y-134058882D01*
X140037907Y-134062762D01*
X140037906Y-134062763D01*
X140016611Y-134078235D01*
X139888747Y-134171134D01*
X139884326Y-134176044D01*
X139884325Y-134176045D01*
X139830377Y-134235961D01*
X139760960Y-134313056D01*
X139665473Y-134478444D01*
X139606458Y-134660072D01*
X139586496Y-134850000D01*
X139587186Y-134856565D01*
X139605129Y-135027279D01*
X139606458Y-135039928D01*
X139665473Y-135221556D01*
X139668776Y-135227278D01*
X139668777Y-135227279D01*
X139744943Y-135359201D01*
X139760960Y-135386944D01*
X139765375Y-135391848D01*
X139765379Y-135391853D01*
X139776948Y-135404702D01*
X139791764Y-135424871D01*
X139800333Y-135439360D01*
X139817793Y-135508176D01*
X139795277Y-135575507D01*
X139739933Y-135619977D01*
X139691880Y-135629500D01*
X137406866Y-135629500D01*
X137344684Y-135636255D01*
X137208295Y-135687385D01*
X137091739Y-135774739D01*
X137004385Y-135891295D01*
X136953255Y-136027684D01*
X136946500Y-136089866D01*
X136946500Y-137514157D01*
X136926498Y-137582278D01*
X136872842Y-137628771D01*
X136802568Y-137638875D01*
X136769252Y-137629264D01*
X136693823Y-137595681D01*
X136693815Y-137595678D01*
X136687788Y-137592995D01*
X136566118Y-137567133D01*
X136507444Y-137554661D01*
X136507439Y-137554661D01*
X136500987Y-137553289D01*
X136310013Y-137553289D01*
X136303561Y-137554660D01*
X136303546Y-137554662D01*
X136296693Y-137556119D01*
X136225903Y-137550715D01*
X136169271Y-137507897D01*
X136144779Y-137441259D01*
X136144500Y-137432872D01*
X136144500Y-117474500D01*
X136164502Y-117406379D01*
X136218158Y-117359886D01*
X136270500Y-117348500D01*
X136945500Y-117348500D01*
X137013621Y-117368502D01*
G37*
%TD.AperFunction*%
%TD*%
M02*
