%TF.GenerationSoftware,KiCad,Pcbnew,(6.0.9)*%
%TF.CreationDate,2022-11-24T13:48:04+01:00*%
%TF.ProjectId,8view,38766965-772e-46b6-9963-61645f706362,rev?*%
%TF.SameCoordinates,Original*%
%TF.FileFunction,Legend,Top*%
%TF.FilePolarity,Positive*%
%FSLAX46Y46*%
G04 Gerber Fmt 4.6, Leading zero omitted, Abs format (unit mm)*
G04 Created by KiCad (PCBNEW (6.0.9)) date 2022-11-24 13:48:04*
%MOMM*%
%LPD*%
G01*
G04 APERTURE LIST*
%ADD10C,0.150000*%
%ADD11C,0.120000*%
G04 APERTURE END LIST*
D10*
X147306500Y-148043000D02*
X147306500Y-148043000D01*
X147306500Y-148043000D02*
X147306500Y-149606000D01*
X147306500Y-149606000D02*
X147306500Y-149606000D01*
X147306500Y-149606000D02*
X147306500Y-148043000D01*
X156945000Y-148043000D02*
X137668000Y-148043000D01*
X137668000Y-148043000D02*
X137668000Y-149606000D01*
X137668000Y-149606000D02*
X156945000Y-149606000D01*
X156945000Y-149606000D02*
X156945000Y-148043000D01*
%TO.C,J2*%
X157917380Y-155537333D02*
X158631666Y-155537333D01*
X158774523Y-155584952D01*
X158869761Y-155680190D01*
X158917380Y-155823047D01*
X158917380Y-155918285D01*
X158012619Y-155108761D02*
X157965000Y-155061142D01*
X157917380Y-154965904D01*
X157917380Y-154727809D01*
X157965000Y-154632571D01*
X158012619Y-154584952D01*
X158107857Y-154537333D01*
X158203095Y-154537333D01*
X158345952Y-154584952D01*
X158917380Y-155156380D01*
X158917380Y-154537333D01*
%TO.C,J1*%
X135612380Y-114312333D02*
X136326666Y-114312333D01*
X136469523Y-114359952D01*
X136564761Y-114455190D01*
X136612380Y-114598047D01*
X136612380Y-114693285D01*
X136612380Y-113312333D02*
X136612380Y-113883761D01*
X136612380Y-113598047D02*
X135612380Y-113598047D01*
X135755238Y-113693285D01*
X135850476Y-113788523D01*
X135898095Y-113883761D01*
%TO.C,U2*%
X142566595Y-119467380D02*
X142566595Y-120276904D01*
X142614214Y-120372142D01*
X142661833Y-120419761D01*
X142757071Y-120467380D01*
X142947547Y-120467380D01*
X143042785Y-120419761D01*
X143090404Y-120372142D01*
X143138023Y-120276904D01*
X143138023Y-119467380D01*
X143566595Y-119562619D02*
X143614214Y-119515000D01*
X143709452Y-119467380D01*
X143947547Y-119467380D01*
X144042785Y-119515000D01*
X144090404Y-119562619D01*
X144138023Y-119657857D01*
X144138023Y-119753095D01*
X144090404Y-119895952D01*
X143518976Y-120467380D01*
X144138023Y-120467380D01*
%TO.C,U3*%
X150876095Y-119467380D02*
X150876095Y-120276904D01*
X150923714Y-120372142D01*
X150971333Y-120419761D01*
X151066571Y-120467380D01*
X151257047Y-120467380D01*
X151352285Y-120419761D01*
X151399904Y-120372142D01*
X151447523Y-120276904D01*
X151447523Y-119467380D01*
X151828476Y-119467380D02*
X152447523Y-119467380D01*
X152114190Y-119848333D01*
X152257047Y-119848333D01*
X152352285Y-119895952D01*
X152399904Y-119943571D01*
X152447523Y-120038809D01*
X152447523Y-120276904D01*
X152399904Y-120372142D01*
X152352285Y-120419761D01*
X152257047Y-120467380D01*
X151971333Y-120467380D01*
X151876095Y-120419761D01*
X151828476Y-120372142D01*
D11*
%TO.C,J2*%
X146415000Y-160919000D02*
X145655000Y-160919000D01*
X145655000Y-160919000D02*
X145655000Y-154919000D01*
X148195000Y-151861929D02*
X148195000Y-152259000D01*
X142225000Y-152259000D02*
X142225000Y-154919000D01*
X141335000Y-160919000D02*
X140575000Y-160919000D01*
X157525000Y-152259000D02*
X137085000Y-152259000D01*
X154035000Y-154919000D02*
X154035000Y-160919000D01*
X156575000Y-151929000D02*
X156575000Y-152259000D01*
X143875000Y-151861929D02*
X143875000Y-152259000D01*
X148955000Y-154919000D02*
X148955000Y-160919000D01*
X154925000Y-152259000D02*
X154925000Y-154919000D01*
X138795000Y-151861929D02*
X138795000Y-152259000D01*
X148955000Y-160919000D02*
X148195000Y-160919000D01*
X156575000Y-154919000D02*
X156575000Y-160919000D01*
X148195000Y-160919000D02*
X148195000Y-154919000D01*
X139685000Y-152259000D02*
X139685000Y-154919000D01*
X143115000Y-151861929D02*
X143115000Y-152259000D01*
X150735000Y-151861929D02*
X150735000Y-152259000D01*
X137085000Y-154919000D02*
X157525000Y-154919000D01*
X146415000Y-154919000D02*
X146415000Y-160919000D01*
X147305000Y-152259000D02*
X147305000Y-154919000D01*
X138035000Y-160919000D02*
X138035000Y-154919000D01*
X157465000Y-149549000D02*
X157465000Y-150819000D01*
X140575000Y-160919000D02*
X140575000Y-154919000D01*
X143875000Y-154919000D02*
X143875000Y-160919000D01*
X156195000Y-149549000D02*
X157465000Y-149549000D01*
X151495000Y-160919000D02*
X150735000Y-160919000D01*
X154035000Y-151861929D02*
X154035000Y-152259000D01*
X156395000Y-154919000D02*
X156395000Y-160919000D01*
X138035000Y-151861929D02*
X138035000Y-152259000D01*
X153275000Y-151861929D02*
X153275000Y-152259000D01*
X156155000Y-154919000D02*
X156155000Y-160919000D01*
X148955000Y-151861929D02*
X148955000Y-152259000D01*
X143875000Y-160919000D02*
X143115000Y-160919000D01*
X156575000Y-160919000D02*
X155815000Y-160919000D01*
X155815000Y-160919000D02*
X155815000Y-154919000D01*
X152385000Y-152259000D02*
X152385000Y-154919000D01*
X151495000Y-154919000D02*
X151495000Y-160919000D01*
X141335000Y-154919000D02*
X141335000Y-160919000D01*
X151495000Y-151861929D02*
X151495000Y-152259000D01*
X138795000Y-160919000D02*
X138035000Y-160919000D01*
X137085000Y-152259000D02*
X137085000Y-154919000D01*
X157525000Y-154919000D02*
X157525000Y-152259000D01*
X154035000Y-160919000D02*
X153275000Y-160919000D01*
X144765000Y-152259000D02*
X144765000Y-154919000D01*
X141335000Y-151861929D02*
X141335000Y-152259000D01*
X156035000Y-154919000D02*
X156035000Y-160919000D01*
X153275000Y-160919000D02*
X153275000Y-154919000D01*
X155815000Y-151929000D02*
X155815000Y-152259000D01*
X156515000Y-154919000D02*
X156515000Y-160919000D01*
X140575000Y-151861929D02*
X140575000Y-152259000D01*
X150735000Y-160919000D02*
X150735000Y-154919000D01*
X146415000Y-151861929D02*
X146415000Y-152259000D01*
X156275000Y-154919000D02*
X156275000Y-160919000D01*
X145655000Y-151861929D02*
X145655000Y-152259000D01*
X143115000Y-160919000D02*
X143115000Y-154919000D01*
X149845000Y-152259000D02*
X149845000Y-154919000D01*
X138795000Y-154919000D02*
X138795000Y-160919000D01*
X155915000Y-154919000D02*
X155915000Y-160919000D01*
%TO.C,J1*%
X148210000Y-108264000D02*
X148970000Y-108264000D01*
X148970000Y-108264000D02*
X148970000Y-114264000D01*
X146430000Y-117321071D02*
X146430000Y-116924000D01*
X152400000Y-116924000D02*
X152400000Y-114264000D01*
X153290000Y-108264000D02*
X154050000Y-108264000D01*
X137100000Y-116924000D02*
X157540000Y-116924000D01*
X140590000Y-114264000D02*
X140590000Y-108264000D01*
X138050000Y-117254000D02*
X138050000Y-116924000D01*
X150750000Y-117321071D02*
X150750000Y-116924000D01*
X145670000Y-114264000D02*
X145670000Y-108264000D01*
X139700000Y-116924000D02*
X139700000Y-114264000D01*
X155830000Y-117321071D02*
X155830000Y-116924000D01*
X145670000Y-108264000D02*
X146430000Y-108264000D01*
X138050000Y-114264000D02*
X138050000Y-108264000D01*
X146430000Y-108264000D02*
X146430000Y-114264000D01*
X154940000Y-116924000D02*
X154940000Y-114264000D01*
X151510000Y-117321071D02*
X151510000Y-116924000D01*
X143890000Y-117321071D02*
X143890000Y-116924000D01*
X157540000Y-114264000D02*
X137100000Y-114264000D01*
X148210000Y-114264000D02*
X148210000Y-108264000D01*
X147320000Y-116924000D02*
X147320000Y-114264000D01*
X156590000Y-108264000D02*
X156590000Y-114264000D01*
X137160000Y-119634000D02*
X137160000Y-118364000D01*
X154050000Y-108264000D02*
X154050000Y-114264000D01*
X150750000Y-114264000D02*
X150750000Y-108264000D01*
X138430000Y-119634000D02*
X137160000Y-119634000D01*
X143130000Y-108264000D02*
X143890000Y-108264000D01*
X140590000Y-117321071D02*
X140590000Y-116924000D01*
X138230000Y-114264000D02*
X138230000Y-108264000D01*
X156590000Y-117321071D02*
X156590000Y-116924000D01*
X141350000Y-117321071D02*
X141350000Y-116924000D01*
X138470000Y-114264000D02*
X138470000Y-108264000D01*
X145670000Y-117321071D02*
X145670000Y-116924000D01*
X150750000Y-108264000D02*
X151510000Y-108264000D01*
X138050000Y-108264000D02*
X138810000Y-108264000D01*
X138810000Y-108264000D02*
X138810000Y-114264000D01*
X142240000Y-116924000D02*
X142240000Y-114264000D01*
X143130000Y-114264000D02*
X143130000Y-108264000D01*
X153290000Y-114264000D02*
X153290000Y-108264000D01*
X143130000Y-117321071D02*
X143130000Y-116924000D01*
X155830000Y-108264000D02*
X156590000Y-108264000D01*
X157540000Y-116924000D02*
X157540000Y-114264000D01*
X137100000Y-114264000D02*
X137100000Y-116924000D01*
X140590000Y-108264000D02*
X141350000Y-108264000D01*
X149860000Y-116924000D02*
X149860000Y-114264000D01*
X153290000Y-117321071D02*
X153290000Y-116924000D01*
X138590000Y-114264000D02*
X138590000Y-108264000D01*
X141350000Y-108264000D02*
X141350000Y-114264000D01*
X138810000Y-117254000D02*
X138810000Y-116924000D01*
X138110000Y-114264000D02*
X138110000Y-108264000D01*
X154050000Y-117321071D02*
X154050000Y-116924000D01*
X143890000Y-108264000D02*
X143890000Y-114264000D01*
X148210000Y-117321071D02*
X148210000Y-116924000D01*
X138350000Y-114264000D02*
X138350000Y-108264000D01*
X148970000Y-117321071D02*
X148970000Y-116924000D01*
X151510000Y-108264000D02*
X151510000Y-114264000D01*
X144780000Y-116924000D02*
X144780000Y-114264000D01*
X155830000Y-114264000D02*
X155830000Y-108264000D01*
X138710000Y-114264000D02*
X138710000Y-108264000D01*
%TO.C,R11*%
X137288000Y-127661641D02*
X137288000Y-127354359D01*
X138048000Y-127661641D02*
X138048000Y-127354359D01*
%TO.C,R12*%
X138048000Y-130201641D02*
X138048000Y-129894359D01*
X137288000Y-130201641D02*
X137288000Y-129894359D01*
%TO.C,D4*%
X146785000Y-148043000D02*
X146785000Y-145758000D01*
X145315000Y-145758000D02*
X145315000Y-148043000D01*
X145315000Y-148043000D02*
X146785000Y-148043000D01*
%TO.C,R6*%
X149480000Y-146711641D02*
X149480000Y-146404359D01*
X150240000Y-146711641D02*
X150240000Y-146404359D01*
D10*
%TO.C,U2*%
X139518500Y-120904000D02*
X139518500Y-133604000D01*
D11*
X139158500Y-120544000D02*
X140788500Y-120544000D01*
D10*
X147138500Y-133604000D02*
X147138500Y-120904000D01*
X147138500Y-120904000D02*
X139518500Y-120904000D01*
X139518500Y-133604000D02*
X147138500Y-133604000D01*
D11*
X139158500Y-122174000D02*
X139158500Y-120544000D01*
D10*
%TO.C,U1*%
X151199000Y-135821000D02*
X150874000Y-135821000D01*
X143949000Y-143071000D02*
X144174000Y-143071000D01*
X143949000Y-135821000D02*
X143949000Y-136146000D01*
X151199000Y-135821000D02*
X151199000Y-136146000D01*
X144174000Y-143071000D02*
X144174000Y-144496000D01*
X151199000Y-143071000D02*
X151199000Y-142746000D01*
X151199000Y-143071000D02*
X150874000Y-143071000D01*
X143949000Y-135821000D02*
X144274000Y-135821000D01*
X143949000Y-143071000D02*
X143949000Y-142746000D01*
D11*
%TO.C,R24*%
X157100000Y-129947641D02*
X157100000Y-129640359D01*
X157860000Y-129947641D02*
X157860000Y-129640359D01*
%TO.C,R22*%
X157860000Y-132487641D02*
X157860000Y-132180359D01*
X157100000Y-132487641D02*
X157100000Y-132180359D01*
%TO.C,R20*%
X156844000Y-127407641D02*
X156844000Y-127100359D01*
X156084000Y-127407641D02*
X156084000Y-127100359D01*
%TO.C,R23*%
X157100000Y-127407641D02*
X157100000Y-127100359D01*
X157860000Y-127407641D02*
X157860000Y-127100359D01*
%TO.C,R7*%
X152780000Y-146709641D02*
X152780000Y-146402359D01*
X152020000Y-146709641D02*
X152020000Y-146402359D01*
%TO.C,R8*%
X155320000Y-146711641D02*
X155320000Y-146404359D01*
X154560000Y-146711641D02*
X154560000Y-146404359D01*
%TO.C,J4*%
X139905000Y-139158000D02*
X139905000Y-138758000D01*
X137315000Y-135883000D02*
X136715000Y-135883000D01*
X137315000Y-135993000D02*
X137315000Y-135883000D01*
X139505000Y-138958000D02*
X139905000Y-139158000D01*
X137315000Y-144423000D02*
X137315000Y-144533000D01*
X137315000Y-144533000D02*
X136715000Y-144533000D01*
X139905000Y-138758000D02*
X139505000Y-138958000D01*
%TO.C,R25*%
X156084000Y-129947641D02*
X156084000Y-129640359D01*
X156844000Y-129947641D02*
X156844000Y-129640359D01*
%TO.C,R10*%
X138048000Y-125121641D02*
X138048000Y-124814359D01*
X137288000Y-125121641D02*
X137288000Y-124814359D01*
%TO.C,D1*%
X137695000Y-148043000D02*
X139165000Y-148043000D01*
X137695000Y-145758000D02*
X137695000Y-148043000D01*
X139165000Y-148043000D02*
X139165000Y-145758000D01*
%TO.C,R1*%
X136780000Y-146711641D02*
X136780000Y-146404359D01*
X137540000Y-146711641D02*
X137540000Y-146404359D01*
%TO.C,R18*%
X157860000Y-124867641D02*
X157860000Y-124560359D01*
X157100000Y-124867641D02*
X157100000Y-124560359D01*
%TO.C,J3*%
X157579000Y-144533000D02*
X158179000Y-144533000D01*
X154989000Y-141258000D02*
X154989000Y-141658000D01*
X157579000Y-135993000D02*
X157579000Y-135883000D01*
X155389000Y-141458000D02*
X154989000Y-141258000D01*
X154989000Y-141658000D02*
X155389000Y-141458000D01*
X157579000Y-144423000D02*
X157579000Y-144533000D01*
X157579000Y-135883000D02*
X158179000Y-135883000D01*
%TO.C,R2*%
X140080000Y-146709641D02*
X140080000Y-146402359D01*
X139320000Y-146709641D02*
X139320000Y-146402359D01*
%TO.C,R19*%
X156084000Y-124867641D02*
X156084000Y-124560359D01*
X156844000Y-124867641D02*
X156844000Y-124560359D01*
%TO.C,D5*%
X147855000Y-145758000D02*
X147855000Y-148043000D01*
X149325000Y-148043000D02*
X149325000Y-145758000D01*
X147855000Y-148043000D02*
X149325000Y-148043000D01*
%TO.C,R4*%
X145160000Y-146711641D02*
X145160000Y-146404359D01*
X144400000Y-146711641D02*
X144400000Y-146404359D01*
D10*
%TO.C,U3*%
X147828000Y-120904000D02*
X147828000Y-133604000D01*
X155448000Y-120904000D02*
X147828000Y-120904000D01*
X155448000Y-133604000D02*
X155448000Y-120904000D01*
X147828000Y-133604000D02*
X155448000Y-133604000D01*
D11*
X147468000Y-122174000D02*
X147468000Y-120544000D01*
X147468000Y-120544000D02*
X149098000Y-120544000D01*
%TO.C,R16*%
X138304000Y-127661641D02*
X138304000Y-127354359D01*
X139064000Y-127661641D02*
X139064000Y-127354359D01*
%TO.C,R13*%
X138304000Y-132995641D02*
X138304000Y-132688359D01*
X139064000Y-132995641D02*
X139064000Y-132688359D01*
%TO.C,R15*%
X138304000Y-125121641D02*
X138304000Y-124814359D01*
X139064000Y-125121641D02*
X139064000Y-124814359D01*
%TO.C,R5*%
X147700000Y-146711641D02*
X147700000Y-146404359D01*
X146940000Y-146711641D02*
X146940000Y-146404359D01*
%TO.C,D6*%
X151865000Y-148043000D02*
X151865000Y-145758000D01*
X150395000Y-145758000D02*
X150395000Y-148043000D01*
X150395000Y-148043000D02*
X151865000Y-148043000D01*
%TO.C,R3*%
X141860000Y-146711641D02*
X141860000Y-146404359D01*
X142620000Y-146711641D02*
X142620000Y-146404359D01*
%TO.C,R21*%
X156084000Y-132487641D02*
X156084000Y-132180359D01*
X156844000Y-132487641D02*
X156844000Y-132180359D01*
%TO.C,D8*%
X155475000Y-148043000D02*
X156945000Y-148043000D01*
X155475000Y-145758000D02*
X155475000Y-148043000D01*
X156945000Y-148043000D02*
X156945000Y-145758000D01*
%TO.C,D2*%
X140235000Y-148043000D02*
X141705000Y-148043000D01*
X140235000Y-145758000D02*
X140235000Y-148043000D01*
X141705000Y-148043000D02*
X141705000Y-145758000D01*
%TO.C,R17*%
X138048000Y-132995641D02*
X138048000Y-132688359D01*
X137288000Y-132995641D02*
X137288000Y-132688359D01*
%TO.C,D3*%
X142775000Y-145758000D02*
X142775000Y-148043000D01*
X142775000Y-148043000D02*
X144245000Y-148043000D01*
X144245000Y-148043000D02*
X144245000Y-145758000D01*
%TO.C,R9*%
X141121641Y-134494000D02*
X140814359Y-134494000D01*
X141121641Y-135254000D02*
X140814359Y-135254000D01*
%TO.C,D7*%
X152935000Y-145758000D02*
X152935000Y-148043000D01*
X152935000Y-148043000D02*
X154405000Y-148043000D01*
X154405000Y-148043000D02*
X154405000Y-145758000D01*
%TO.C,R14*%
X138304000Y-130201641D02*
X138304000Y-129894359D01*
X139064000Y-130201641D02*
X139064000Y-129894359D01*
%TD*%
M02*
